<svg width="1620" height="143" viewBox="0 0 1620 143" fill="none" xmlns="http://www.w3.org/2000/svg">
<g filter="url(#filter0_d_1_64)">
<path d="M0 15C0 6.71573 6.71573 0 15 0H1605C1613.28 0 1620 6.71573 1620 15V120C1620 128.284 1613.28 135 1605 135H15C6.71577 135 0 128.284 0 120V15Z" fill="#1D3671" fill-opacity="0.3" shape-rendering="crispEdges"/>
</g>
<path d="M162.318 79V55.7273H165.136V66.0909H177.545V55.7273H180.364V79H177.545V68.5909H165.136V79H162.318ZM190.778 79.4091C187.46 79.4091 184.824 77.4545 184.824 74.0455C184.824 70.0455 188.358 69.3295 191.597 68.9091C194.778 68.5 196.097 68.6136 196.097 67.3182V67.2273C196.097 64.9886 194.881 63.6818 192.415 63.6818C189.858 63.6818 188.46 65.0455 187.869 66.3182L185.324 65.4091C186.688 62.2273 189.688 61.3182 192.324 61.3182C194.551 61.3182 198.778 61.9545 198.778 67.5V79H196.097V76.6364H195.96C195.415 77.7727 193.824 79.4091 190.778 79.4091ZM191.188 77C194.369 77 196.097 74.8636 196.097 72.6818V70.2273C195.642 70.7727 192.597 71.0909 191.46 71.2273C189.369 71.5 187.506 72.1364 187.506 74.1818C187.506 76.0455 189.051 77 191.188 77ZM203.673 79V61.5455H206.264V64.1818H206.446C207.082 62.4545 208.901 61.2727 210.991 61.2727C211.389 61.2727 212.094 61.2955 212.401 61.3182V64.0455C212.219 64 211.48 63.8636 210.764 63.8636C208.219 63.8636 206.355 65.5909 206.355 67.9545V79H203.673ZM221.639 79.3636C217.276 79.3636 214.23 75.8636 214.23 70.3182C214.23 64.8182 217.276 61.3182 221.685 61.3182C225.094 61.3182 226.139 63.4091 226.73 64.3182H226.957V55.7273H229.639V79H227.048V76.3182H226.73C226.139 77.2727 225.003 79.3636 221.639 79.3636ZM222.003 76.9545C225.23 76.9545 227.003 74.2273 227.003 70.2727C227.003 66.3636 225.276 63.7273 222.003 63.7273C218.594 63.7273 216.912 66.5909 216.912 70.2727C216.912 74 218.639 76.9545 222.003 76.9545ZM238.878 79L233.56 61.5455H236.378L240.151 74.9091H240.332L244.06 61.5455H246.923L250.605 74.8636H250.787L254.56 61.5455H257.378L252.06 79H249.423L245.605 65.5909H245.332L241.514 79H238.878ZM266.06 79.4091C262.741 79.4091 260.105 77.4545 260.105 74.0455C260.105 70.0455 263.639 69.3295 266.878 68.9091C270.06 68.5 271.378 68.6136 271.378 67.3182V67.2273C271.378 64.9886 270.162 63.6818 267.696 63.6818C265.139 63.6818 263.741 65.0455 263.151 66.3182L260.605 65.4091C261.969 62.2273 264.969 61.3182 267.605 61.3182C269.832 61.3182 274.06 61.9545 274.06 67.5V79H271.378V76.6364H271.241C270.696 77.7727 269.105 79.4091 266.06 79.4091ZM266.469 77C269.651 77 271.378 74.8636 271.378 72.6818V70.2273C270.923 70.7727 267.878 71.0909 266.741 71.2273C264.651 71.5 262.787 72.1364 262.787 74.1818C262.787 76.0455 264.332 77 266.469 77ZM278.955 79V61.5455H281.545V64.1818H281.727C282.364 62.4545 284.182 61.2727 286.273 61.2727C286.67 61.2727 287.375 61.2955 287.682 61.3182V64.0455C287.5 64 286.761 63.8636 286.045 63.8636C283.5 63.8636 281.636 65.5909 281.636 67.9545V79H278.955ZM297.648 79.3636C292.602 79.3636 289.511 75.7727 289.511 70.4091C289.511 65.0455 292.648 61.3182 297.375 61.3182C301.011 61.3182 304.875 63.5455 304.875 70.0455V71.1818H292.205C292.33 74.9205 294.5 76.9545 297.648 76.9545C299.75 76.9545 301.33 76.0455 302.011 74.2273L304.602 74.9545C303.784 77.5909 301.193 79.3636 297.648 79.3636ZM292.205 68.8636H302.148C302.148 65.9091 300.284 63.7273 297.375 63.7273C294.307 63.7273 292.386 66.1477 292.205 68.8636Z" fill="white"/>
<path d="M59 90.9375C57.7708 90.2083 56.7917 89.2292 56.0625 88H49C48.4583 88 47.9896 87.8021 47.5938 87.4062C47.1979 87.0104 47 86.5417 47 86C47 85.4583 47.1979 84.9896 47.5938 84.5938C47.9896 84.1979 48.4583 84 49 84H55V76H49C48.4583 76 47.9896 75.8021 47.5938 75.4062C47.1979 75.0104 47 74.5417 47 74C47 73.4583 47.1979 72.9896 47.5938 72.5938C47.9896 72.1979 48.4583 72 49 72H55V64H49C48.4583 64 47.9896 63.8021 47.5938 63.4062C47.1979 63.0104 47 62.5417 47 62C47 61.4583 47.1979 60.9896 47.5938 60.5938C47.9896 60.1979 48.4583 60 49 60H55V52H49C48.4583 52 47.9896 51.8021 47.5938 51.4062C47.1979 51.0104 47 50.5417 47 50C47 49.4583 47.1979 48.9896 47.5938 48.5938C47.9896 48.1979 48.4583 48 49 48H56.0625C56.7917 46.7708 57.7708 45.7917 59 45.0625V38C59 37.4583 59.1979 36.9896 59.5938 36.5938C59.9896 36.1979 60.4583 36 61 36C61.5417 36 62.0104 36.1979 62.4062 36.5938C62.8021 36.9896 63 37.4583 63 38V44H71V38C71 37.4583 71.1979 36.9896 71.5938 36.5938C71.9896 36.1979 72.4583 36 73 36C73.5417 36 74.0104 36.1979 74.4062 36.5938C74.8021 36.9896 75 37.4583 75 38V44H83V38C83 37.4583 83.1979 36.9896 83.5938 36.5938C83.9896 36.1979 84.4583 36 85 36C85.5417 36 86.0104 36.1979 86.4062 36.5938C86.8021 36.9896 87 37.4583 87 38V44H95V38C95 37.4583 95.1979 36.9896 95.5938 36.5938C95.9896 36.1979 96.4583 36 97 36C97.5417 36 98.0104 36.1979 98.4062 36.5938C98.8021 36.9896 99 37.4583 99 38V45.0625C100.229 45.7917 101.208 46.7708 101.938 48H109C109.542 48 110.01 48.1979 110.406 48.5938C110.802 48.9896 111 49.4583 111 50C111 50.5417 110.802 51.0104 110.406 51.4062C110.01 51.8021 109.542 52 109 52H103V60H109C109.542 60 110.01 60.1979 110.406 60.5938C110.802 60.9896 111 61.4583 111 62C111 62.5417 110.802 63.0104 110.406 63.4062C110.01 63.8021 109.542 64 109 64H103V72H109C109.542 72 110.01 72.1979 110.406 72.5938C110.802 72.9896 111 73.4583 111 74C111 74.5417 110.802 75.0104 110.406 75.4062C110.01 75.8021 109.542 76 109 76H103V84H109C109.542 84 110.01 84.1979 110.406 84.5938C110.802 84.9896 111 85.4583 111 86C111 86.5417 110.802 87.0104 110.406 87.4062C110.01 87.8021 109.542 88 109 88H101.938C101.208 89.2292 100.229 90.2083 99 90.9375V98C99 98.5417 98.8021 99.0104 98.4062 99.4062C98.0104 99.8021 97.5417 100 97 100C96.4583 100 95.9896 99.8021 95.5938 99.4062C95.1979 99.0104 95 98.5417 95 98V92H87V98C87 98.5417 86.8021 99.0104 86.4062 99.4062C86.0104 99.8021 85.5417 100 85 100C84.4583 100 83.9896 99.8021 83.5938 99.4062C83.1979 99.0104 83 98.5417 83 98V92H75V98C75 98.5417 74.8021 99.0104 74.4062 99.4062C74.0104 99.8021 73.5417 100 73 100C72.4583 100 71.9896 99.8021 71.5938 99.4062C71.1979 99.0104 71 98.5417 71 98V92H63V98C63 98.5417 62.8021 99.0104 62.4062 99.4062C62.0104 99.8021 61.5417 100 61 100C60.4583 100 59.9896 99.8021 59.5938 99.4062C59.1979 99.0104 59 98.5417 59 98V90.9375ZM95 88C95.5625 88 96.0833 87.8958 96.5625 87.6875C97.0417 87.4792 97.4583 87.1979 97.8125 86.8438C98.1875 86.4688 98.4792 86.0417 98.6875 85.5625C98.8958 85.0833 99 84.5625 99 84V52C99 51.4583 98.8958 50.9479 98.6875 50.4688C98.4792 49.9688 98.1875 49.5417 97.8125 49.1875C97.4583 48.8125 97.0312 48.5208 96.5312 48.3125C96.0521 48.1042 95.5417 48 95 48H63C62.4375 48 61.9167 48.1042 61.4375 48.3125C60.9583 48.5208 60.5312 48.8125 60.1562 49.1875C59.8021 49.5417 59.5208 49.9583 59.3125 50.4375C59.1042 50.9167 59 51.4375 59 52V84C59 84.5625 59.1042 85.0938 59.3125 85.5938C59.5208 86.0729 59.8021 86.4896 60.1562 86.8438C60.5104 87.1979 60.9271 87.4792 61.4062 87.6875C61.9062 87.8958 62.4375 88 63 88H95ZM64.3438 61.9688C64.3438 61.6771 64.4062 61.4062 64.5312 61.1562C65.1771 59.7812 66.0104 58.5312 67.0312 57.4062C68.0521 56.2604 69.1875 55.2917 70.4375 54.5C71.7083 53.7083 73.0729 53.0938 74.5312 52.6562C75.9896 52.2188 77.4792 52 79 52C81.2917 52 83.4792 52.4688 85.5625 53.4062C87.6667 54.3438 89.4792 55.6771 91 57.4062V54C91 53.4583 91.1979 52.9896 91.5938 52.5938C91.9896 52.1979 92.4583 52 93 52C93.5417 52 94.0104 52.1979 94.4062 52.5938C94.8021 52.9896 95 53.4583 95 54V62C95 62.5417 94.8021 63.0104 94.4062 63.4062C94.0104 63.8021 93.5417 64 93 64H85C84.4583 64 83.9896 63.8021 83.5938 63.4062C83.1979 63.0104 83 62.5417 83 62C83 61.5625 83.0833 61.2083 83.25 60.9375C83.4375 60.6667 83.6771 60.4583 83.9688 60.3125C84.2604 60.1667 84.5833 60.0729 84.9375 60.0312C85.3125 59.9688 85.6875 59.9375 86.0625 59.9375C86.4167 59.9375 86.75 59.9479 87.0625 59.9688C87.3958 59.9896 87.6875 60 87.9375 60C86.7917 58.7083 85.4375 57.7188 83.875 57.0312C82.3333 56.3438 80.7083 56 79 56C76.6667 56 74.5208 56.625 72.5625 57.875C72.0208 58.2083 71.5417 58.5521 71.125 58.9062C70.7083 59.2604 70.3229 59.6458 69.9688 60.0625C69.6354 60.4583 69.3229 60.8854 69.0312 61.3438C68.7396 61.8021 68.4479 62.3021 68.1562 62.8438C67.9688 63.1979 67.7188 63.4792 67.4062 63.6875C67.1146 63.8958 66.7604 64 66.3438 64C65.8021 64 65.3333 63.8021 64.9375 63.4062C64.5417 62.9896 64.3438 62.5104 64.3438 61.9688ZM63 82V74C63 73.4583 63.1979 72.9896 63.5938 72.5938C63.9896 72.1979 64.4583 72 65 72H73C73.5417 72 74.0104 72.1979 74.4062 72.5938C74.8021 72.9896 75 73.4583 75 74C75 74.4375 74.9062 74.7917 74.7188 75.0625C74.5521 75.3333 74.3229 75.5417 74.0312 75.6875C73.7396 75.8333 73.4062 75.9375 73.0312 76C72.6771 76.0417 72.3125 76.0625 71.9375 76.0625C71.5833 76.0625 71.2396 76.0521 70.9062 76.0312C70.5938 76.0104 70.3125 76 70.0625 76C71.2083 77.2917 72.5521 78.2812 74.0938 78.9688C75.6562 79.6562 77.2917 80 79 80C81.2917 80 83.4271 79.375 85.4062 78.125C85.9271 77.7917 86.3958 77.4479 86.8125 77.0938C87.25 76.7396 87.6354 76.3646 87.9688 75.9688C88.3229 75.5521 88.6458 75.1146 88.9375 74.6562C89.25 74.1771 89.5521 73.6667 89.8438 73.125C90.2396 72.375 90.8438 72 91.6562 72C92.1979 72 92.6667 72.1979 93.0625 72.5938C93.4583 72.9896 93.6562 73.4583 93.6562 74C93.6562 74.3125 93.5938 74.5938 93.4688 74.8438C92.8438 76.2188 92.0208 77.4792 91 78.625C89.9792 79.75 88.8229 80.7083 87.5312 81.5C86.2604 82.2917 84.8958 82.9062 83.4375 83.3438C81.9792 83.7812 80.5 84 79 84C76.6875 84 74.4896 83.5417 72.4062 82.625C70.3229 81.7083 68.5208 80.3646 67 78.5938V82C67 82.5417 66.8021 83.0104 66.4062 83.4062C66.0104 83.8021 65.5417 84 65 84C64.4583 84 63.9896 83.8021 63.5938 83.4062C63.1979 83.0104 63 82.5417 63 82Z" fill="white"/>
<defs>
<filter id="filter0_d_1_64" x="-4" y="0" width="1628" height="143" filterUnits="userSpaceOnUse" color-interpolation-filters="sRGB">
<feFlood flood-opacity="0" result="BackgroundImageFix"/>
<feColorMatrix in="SourceAlpha" type="matrix" values="0 0 0 0 0 0 0 0 0 0 0 0 0 0 0 0 0 0 127 0" result="hardAlpha"/>
<feOffset dy="4"/>
<feGaussianBlur stdDeviation="2"/>
<feComposite in2="hardAlpha" operator="out"/>
<feColorMatrix type="matrix" values="0 0 0 0 0 0 0 0 0 0 0 0 0 0 0 0 0 0 0.25 0"/>
<feBlend mode="normal" in2="BackgroundImageFix" result="effect1_dropShadow_1_64"/>
<feBlend mode="normal" in="SourceGraphic" in2="effect1_dropShadow_1_64" result="shape"/>
</filter>
</defs>
</svg>
