<svg width="23" height="23" viewBox="0 0 23 23" fill="none" xmlns="http://www.w3.org/2000/svg">
<path d="M2.089 0H20.911C22.0638 0 23 0.936209 23 2.089V20.911C23 22.0638 22.0638 23 20.911 23H2.089C0.936209 23 0 22.0638 0 20.911V2.089C0 0.936209 0.936209 0 2.089 0Z" fill="#464646"/>
<path d="M17.5 6.27273C17.7083 6.27273 17.9036 6.31357 18.0859 6.39525C18.2682 6.47692 18.4271 6.58855 18.5625 6.73012C18.6979 6.87169 18.8047 7.03777 18.8828 7.22834C18.9609 7.41892 19 7.62311 19 7.84091V15.1591C19 15.3769 18.9609 15.5811 18.8828 15.7717C18.8047 15.9622 18.6979 16.1283 18.5625 16.2699C18.4271 16.4115 18.2682 16.5231 18.0859 16.6048C17.9036 16.6864 17.7083 16.7273 17.5 16.7273H17V18.8182H16V16.7273H15V18.8182H14V16.7273H13V18.8182H12V16.7273H11V18.8182H10V16.7273H9V18.8182H8V16.7273H7V18.8182H6V16.7273H5.5C5.29167 16.7273 5.09635 16.6864 4.91406 16.6048C4.73177 16.5231 4.57292 16.4115 4.4375 16.2699C4.30208 16.1283 4.19531 15.9622 4.11719 15.7717C4.03906 15.5811 4 15.3769 4 15.1591V7.84091C4 7.62311 4.03906 7.41892 4.11719 7.22834C4.19531 7.03777 4.30208 6.87169 4.4375 6.73012C4.57292 6.58855 4.73177 6.47692 4.91406 6.39525C5.09635 6.31357 5.29167 6.27273 5.5 6.27273H6V4.18182H7V6.27273H8V4.18182H9V6.27273H10V4.18182H11V6.27273H12V4.18182H13V6.27273H14V4.18182H15V6.27273H16V4.18182H17V6.27273H17.5ZM18 7.84091C18 7.69934 17.9505 7.57683 17.8516 7.47337C17.7526 7.36992 17.6354 7.31819 17.5 7.31819H5.5C5.36458 7.31819 5.2474 7.36992 5.14844 7.47337C5.04948 7.57683 5 7.69934 5 7.84091V15.1591C5 15.3007 5.04948 15.4232 5.14844 15.5266C5.2474 15.6301 5.36458 15.6818 5.5 15.6818H17.5C17.6354 15.6818 17.7526 15.6301 17.8516 15.5266C17.9505 15.4232 18 15.3007 18 15.1591V7.84091ZM6 8.36364H17V14.6364H6V8.36364ZM7 13.5909H16V9.4091H7V13.5909Z" fill="white"/>
</svg>
