<?xml version="1.0" encoding="UTF-8" standalone="no"?>
<!DOCTYPE svg PUBLIC "-//W3C//DTD SVG 1.1//EN" "http://www.w3.org/Graphics/SVG/1.1/DTD/svg11.dtd">
<!-- Generated by Microsoft Visio, SVG Export auth-entra-join-ad-kt.svg AADJ Kerb Auth -->
<svg xmlns="http://www.w3.org/2000/svg" xmlns:xlink="http://www.w3.org/1999/xlink" xmlns:ev="http://www.w3.org/2001/xml-events"
		width="11in" height="8.5in" viewBox="0 0 792 612" xml:space="preserve" color-interpolation-filters="sRGB" class="st13">
	<style type="text/css">
	<![CDATA[
		.st1 {fill:#ffffff;stroke:#e9eff7;stroke-width:0.75}
		.st2 {stroke:#5b9bd5;stroke-dasharray:7,5;stroke-linecap:round;stroke-linejoin:round;stroke-width:1}
		.st3 {fill:#5b9bd5;font-family:Calibri;font-size:1.00001em;font-weight:bold}
		.st4 {font-size:1em}
		.st5 {marker-end:url(#mrkr4-46);stroke:#5b9bd5;stroke-linecap:round;stroke-linejoin:round;stroke-width:1}
		.st6 {fill:#5b9bd5;fill-opacity:1;stroke:#5b9bd5;stroke-opacity:1;stroke-width:0.23584905660377}
		.st7 {fill:#ffffff;stroke:none;stroke-linecap:butt;stroke-width:7.2}
		.st8 {fill:#4f87bb;font-family:Calibri;font-size:0.833336em}
		.st9 {marker-end:url(#mrkr3-54);stroke:#5b9bd5;stroke-dasharray:7,5;stroke-linecap:round;stroke-linejoin:round;stroke-width:1}
		.st10 {fill:#ffffff;stroke:none;stroke-linecap:butt}
		.st11 {fill:#002060;stroke:none;stroke-width:0.75}
		.st12 {fill:#ffffff;font-family:Calibri;font-size:1.16666em;font-weight:bold}
		.st13 {fill:none;fill-rule:evenodd;font-size:12px;overflow:visible;stroke-linecap:square;stroke-miterlimit:3}
	]]>
	</style>

	<defs id="Markers">
		<g id="lend4">
			<path d="M 2 1 L 0 0 L 2 -1 L 2 1 " style="stroke:none"/>
		</g>
		<marker id="mrkr4-46" class="st6" refX="-8.48" orient="auto" markerUnits="strokeWidth" overflow="visible">
			<use xlink:href="#lend4" transform="scale(-4.24,-4.24) "/>
		</marker>
		<g id="lend3">
			<path d="M 2 1 L 0 0 L 2 -1 " style="stroke-linecap:round;stroke-linejoin:round;fill:none"/>
		</g>
		<marker id="mrkr3-54" class="st6" orient="auto" markerUnits="strokeWidth" overflow="visible">
			<use xlink:href="#lend3" transform="scale(-4.24,-4.24) "/>
		</marker>
	</defs>
	<g>
		<title>auth-entra-join-ad-kt</title>
		<g id="group1005-1" transform="translate(427.462,-555.056)">
			<title>Object lifeline.1005</title>
			<desc>Domain Controller</desc>
			<g id="shape1006-2" transform="translate(13.5,-6.3)">
				<title>Sheet.1006</title>
				<rect x="0" y="586.8" width="54" height="25.2" class="st1"/>
			</g>
			<g id="shape1007-4" transform="translate(31.5,-41.4)">
				<title>Sheet.1007</title>
				<path d="M9 612 a0 0 0 1 1 0 0 a0 0 0 1 1 0 0 Z" class="st1"/>
			</g>
			<g id="shape1008-6" transform="translate(27,325.556)">
				<title>Sheet.1008</title>
			</g>
			<g id="shape1009-8" transform="translate(652.5,612) rotate(90)">
				<title>Sheet.1009</title>
				<path d="M0 612 L303.06 612" class="st2"/>
			</g>
			<g id="shape1005-11">
				<rect x="0" y="574.2" width="81" height="37.8" class="st1"/>
				<text x="20.96" y="589.5" class="st3">Domain <tspan x="15.34" dy="1.2em" class="st4">Controller</tspan></text>			</g>
		</g>
		<g id="group1015-15" transform="translate(19.1441,-555.056)">
			<title>Object lifeline.1015</title>
			<desc>Windows</desc>
			<g id="shape1016-16" transform="translate(13.5,-6.3)">
				<title>Sheet.1016</title>
				<rect x="0" y="586.8" width="54" height="25.2" class="st1"/>
			</g>
			<g id="shape1017-18" transform="translate(31.5,-41.4)">
				<title>Sheet.1017</title>
				<path d="M9 612 a0 0 0 1 1 0 0 a0 0 0 1 1 0 0 Z" class="st1"/>
			</g>
			<g id="shape1018-20" transform="translate(27,325.556)">
				<title>Sheet.1018</title>
			</g>
			<g id="shape1019-22" transform="translate(652.5,612) rotate(90)">
				<title>Sheet.1019</title>
				<path d="M0 612 L303.06 612" class="st2"/>
			</g>
			<g id="shape1015-25">
				<rect x="0" y="574.2" width="81" height="37.8" class="st1"/>
				<text x="17.06" y="596.7" class="st3">Windows</text>			</g>
		</g>
		<g id="group1022-28" transform="translate(236.25,-555.056)">
			<title>Object lifeline.1022</title>
			<desc>DNS</desc>
			<g id="shape1023-29" transform="translate(13.5,-6.3)">
				<title>Sheet.1023</title>
				<rect x="0" y="586.8" width="54" height="25.2" class="st1"/>
			</g>
			<g id="shape1024-31" transform="translate(31.5,-41.4)">
				<title>Sheet.1024</title>
				<path d="M9 612 a0 0 0 1 1 0 0 a0 0 0 1 1 0 0 Z" class="st1"/>
			</g>
			<g id="shape1025-33" transform="translate(27,325.556)">
				<title>Sheet.1025</title>
			</g>
			<g id="shape1026-35" transform="translate(652.5,612) rotate(90)">
				<title>Sheet.1026</title>
				<path d="M0 612 L303.06 612" class="st2"/>
			</g>
			<g id="shape1022-38">
				<rect x="0" y="574.2" width="81" height="37.8" class="st1"/>
				<text x="29.93" y="596.7" class="st3">DNS</text>			</g>
		</g>
		<g id="shape1027-41" transform="translate(59.6441,-492.056)">
			<title>Message.1027</title>
			<desc>DcLocator</desc>
			<path d="M0 603 L208.63 603" class="st5"/>
			<rect x="88.0597" y="597" width="40.9867" height="12.0001" class="st7"/>
			<text x="88.06" y="606" class="st8">DcLocator</text>		</g>
		<g id="shape1028-49" transform="translate(276.75,-474.056)">
			<title>Return Message.1028</title>
			<desc>return list of domain controlers</desc>
			<path d="M0 603 L-217.11 603" class="st9"/>
			<rect x="-145.877" y="591" width="74.6491" height="24.0002" class="st7"/>
			<text x="-133.8" y="600" class="st8">return list of <tspan x="-145.88" dy="1.2em" class="st4">domain controlers</tspan></text>		</g>
		<g id="shape1029-58" transform="translate(59.6441,-420.056)">
			<title>Message.1029</title>
			<desc>KRB_AS_REQ w/signed preAuth data</desc>
			<path d="M0 603 L399.84 603" class="st5"/>
			<rect x="129.568" y="597" width="149.181" height="12.0001" class="st7"/>
			<text x="129.57" y="606" class="st8">KRB_AS_REQ w/signed preAuth data</text>		</g>
		<g id="shape1030-65" transform="translate(458.962,-429.056)">
			<title>Self Message.1030</title>
			<desc>PreAuth data validation</desc>
			<path d="M9 612 L27 612 L27 630 L17.48 630" class="st5"/>
			<rect x="31.6802" y="610.556" width="53.7163" height="24.0002" class="st7"/>
			<text x="31.68" y="619.56" class="st8">PreAuth data<tspan x="38.48" dy="1.2em" class="st4">validation</tspan></text>		</g>
		<g id="shape1031-73" transform="translate(467.962,-402.056)">
			<title>Return Message.1031</title>
			<desc>KRB_AS_REP w/KDC cert and TGT</desc>
			<path d="M0 603 L-408.32 603" class="st9"/>
			<rect x="-272.164" y="597" width="136.011" height="12.0001" class="st7"/>
			<text x="-272.16" y="606" class="st8">KRB_AS_REP w/KDC cert and TGT</text>		</g>
		<g id="shape1032-80" transform="translate(267.75,-501.056)">
			<title>Self Message.1032</title>
			<desc>find _ldap._tcp.dc._msdcs.domainhint.om</desc>
			<path d="M9 612 L27 612 L27 630 L17.48 630" class="st5"/>
			<rect x="33.7334" y="606.056" width="153.034" height="24.0002" class="st7"/>
			<text x="102.32" y="615.06" class="st8">find <tspan x="33.73" dy="1.2em" class="st4">_ldap._tcp.dc._msdcs.domainhint.om</tspan></text>		</g>
		<g id="shape1033-88" transform="translate(50.6441,-393.056)">
			<title>Self Message.1033</title>
			<desc>Kdc cert chains and validates</desc>
			<path d="M9 612 L27 612 L27 630 L17.48 630" class="st5"/>
			<rect x="28.861" y="606.056" width="83.9899" height="24.0002" class="st7"/>
			<text x="54.37" y="615.06" class="st8">Kdc cert<tspan x="28.86" dy="1.2em" class="st4"> </tspan>chains and validates</text>		</g>
		<g id="shape1034-96" transform="translate(50.6441,-357.056)">
			<title>Self Message.1034</title>
			<desc>KDC cert include KDC Authentication EKU (1.3.6.1.5.2.3.5)</desc>
			<path d="M9 612 L27 612 L27 630 L17.48 630" class="st5"/>
			<rect x="30.6537" y="600.056" width="98.4045" height="36.0003" class="st7"/>
			<text x="46.46" y="609.06" class="st8">KDC cert include <tspan x="30.65" dy="1.2em" class="st4">KDC Authentication EKU</tspan><tspan
						x="47.72" dy="1.2em" class="st4">(1.3.6.1.5.2.3.5)</tspan></text>		</g>
		<g id="shape1035-105" transform="translate(50.6441,-321.056)">
			<title>Self Message.1035</title>
			<desc>KDC cert subject alternate name matches domain DNS</desc>
			<path d="M9 612 L27 612 L27 630 L17.48 630" class="st5"/>
			<rect x="30.5253" y="604.556" width="94.1613" height="36.0003" class="st10"/>
			<text x="60.12" y="613.56" class="st8">KDC cert<tspan x="30.53" dy="1.2em" class="st4">subject alternate name</tspan><tspan
						x="34.07" dy="1.2em" class="st4">matches domain DNS</tspan></text>		</g>
		<g id="shape1036-114" transform="translate(50.6441,-537.056)">
			<title>Self Message.1036</title>
			<desc>Get domain hint from key metadata</desc>
			<path d="M9 612 L27 612 L27 630 L17.48 630" class="st5"/>
			<rect x="28.7743" y="604.556" width="66.163" height="36.0003" class="st7"/>
			<text x="28.77" y="613.56" class="st8">Get domain hint <tspan x="43.8" dy="1.2em" class="st4">from key</tspan><tspan
						x="42.21" dy="1.2em" class="st4">metadata</tspan></text>		</g>
		<g id="shape1037-123" transform="translate(50.6441,-465.056)">
			<title>Self Message.1037</title>
			<desc>WHFB privKey signs preAuth data</desc>
			<path d="M9 612 L27 612 L27 630 L17.48 630" class="st5"/>
			<rect x="32.7844" y="610.556" width="76.1432" height="24.0002" class="st7"/>
			<text x="42.02" y="619.56" class="st8">WHFB privKey<tspan x="32.78" dy="1.2em" class="st4">signs preAuth data</tspan></text>		</g>
		<g id="group1038-131" transform="translate(427.462,-214.2)">
			<title>Object lifeline.1038</title>
			<desc>Domain Controller</desc>
			<g id="shape1039-132" transform="translate(13.5,-6.3)">
				<title>Sheet.1039</title>
				<rect x="0" y="586.8" width="54" height="25.2" class="st1"/>
			</g>
			<g id="shape1040-134" transform="translate(31.5,-41.4)">
				<title>Sheet.1040</title>
				<path d="M9 612 a0 0 0 1 1 0 0 a0 0 0 1 1 0 0 Z" class="st1"/>
			</g>
			<g id="shape1041-136" transform="translate(27,325.556)">
				<title>Sheet.1041</title>
			</g>
			<g id="shape1038-138">
				<rect x="0" y="574.2" width="81" height="37.8" class="st1"/>
				<text x="20.96" y="589.5" class="st3">Domain <tspan x="15.34" dy="1.2em" class="st4">Controller</tspan></text>			</g>
		</g>
		<g id="group1043-142" transform="translate(19.1441,-214.2)">
			<title>Object lifeline.1043</title>
			<desc>Windows</desc>
			<g id="shape1044-143" transform="translate(13.5,-6.3)">
				<title>Sheet.1044</title>
				<rect x="0" y="586.8" width="54" height="25.2" class="st1"/>
			</g>
			<g id="shape1045-145" transform="translate(31.5,-41.4)">
				<title>Sheet.1045</title>
				<path d="M9 612 a0 0 0 1 1 0 0 a0 0 0 1 1 0 0 Z" class="st1"/>
			</g>
			<g id="shape1046-147" transform="translate(27,325.556)">
				<title>Sheet.1046</title>
			</g>
			<g id="shape1043-149">
				<rect x="0" y="574.2" width="81" height="37.8" class="st1"/>
				<text x="17.06" y="596.7" class="st3">Windows</text>			</g>
		</g>
		<g id="group1048-152" transform="translate(236.25,-214.2)">
			<title>Object lifeline.1048</title>
			<desc>DNS</desc>
			<g id="shape1049-153" transform="translate(13.5,-6.3)">
				<title>Sheet.1049</title>
				<rect x="0" y="586.8" width="54" height="25.2" class="st1"/>
			</g>
			<g id="shape1050-155" transform="translate(31.5,-41.4)">
				<title>Sheet.1050</title>
				<path d="M9 612 a0 0 0 1 1 0 0 a0 0 0 1 1 0 0 Z" class="st1"/>
			</g>
			<g id="shape1051-157" transform="translate(27,325.556)">
				<title>Sheet.1051</title>
			</g>
			<g id="shape1048-159">
				<rect x="0" y="574.2" width="81" height="37.8" class="st1"/>
				<text x="29.93" y="596.7" class="st3">DNS</text>			</g>
		</g>
		<g id="shape1052-162" transform="translate(33.661,-489.661)">
			<title>State.1090</title>
			<desc>A</desc>
			<path d="M0 602.16 A9.83896 9.83896 0 0 1 19.68 602.16 A9.83896 9.83896 0 1 1 0 602.16 Z" class="st11"/>
			<text x="5.6" y="606.36" class="st12">A</text>		</g>
		<g id="shape1053-165" transform="translate(33.661,-422.161)">
			<title>State.1053</title>
			<desc>B</desc>
			<path d="M0 602.16 A9.83896 9.83896 0 0 1 19.68 602.16 A9.83896 9.83896 0 1 1 0 602.16 Z" class="st11"/>
			<text x="5.92" y="606.36" class="st12">B</text>		</g>
		<g id="shape1054-168" transform="translate(33.661,-331.322)">
			<title>State.1054</title>
			<desc>C</desc>
			<path d="M0 602.16 A9.83896 9.83896 0 0 1 19.68 602.16 A9.83896 9.83896 0 1 1 0 602.16 Z" class="st11"/>
			<text x="6.13" y="606.36" class="st12">C</text>		</g>
	</g>
</svg>
