<?xml version="1.0" encoding="UTF-8" standalone="no"?>
<!DOCTYPE svg PUBLIC "-//W3C//DTD SVG 1.1//EN" "http://www.w3.org/Graphics/SVG/1.1/DTD/svg11.dtd">
<!-- Generated by Microsoft Visio, SVG Export auth-entra-join-ad-ckt.svg AADJ Kerb Auth-KeyTrust (2) -->
<svg xmlns="http://www.w3.org/2000/svg" xmlns:xlink="http://www.w3.org/1999/xlink" xmlns:ev="http://www.w3.org/2001/xml-events"
		width="11in" height="8.5in" viewBox="0 0 792 612" xml:space="preserve" color-interpolation-filters="sRGB" class="st12">
	<style type="text/css">
	<![CDATA[
		.st1 {fill:#ffffff;stroke:#e9eff7;stroke-width:0.75}
		.st2 {stroke:#5b9bd5;stroke-dasharray:7,5;stroke-linecap:round;stroke-linejoin:round;stroke-width:1}
		.st3 {fill:#5b9bd5;font-family:Calibri;font-size:1.00001em;font-weight:bold}
		.st4 {font-size:1em}
		.st5 {marker-end:url(#mrkr4-46);stroke:#5b9bd5;stroke-linecap:round;stroke-linejoin:round;stroke-width:1}
		.st6 {fill:#5b9bd5;fill-opacity:1;stroke:#5b9bd5;stroke-opacity:1;stroke-width:0.23584905660377}
		.st7 {fill:#ffffff;stroke:none;stroke-linecap:butt;stroke-width:7.2}
		.st8 {fill:#4f87bb;font-family:Calibri;font-size:0.833336em}
		.st9 {marker-end:url(#mrkr3-54);stroke:#5b9bd5;stroke-dasharray:7,5;stroke-linecap:round;stroke-linejoin:round;stroke-width:1}
		.st10 {fill:#002060;stroke:none;stroke-width:0.75}
		.st11 {fill:#ffffff;font-family:Calibri;font-size:1.16666em;font-weight:bold}
		.st12 {fill:none;fill-rule:evenodd;font-size:12px;overflow:visible;stroke-linecap:square;stroke-miterlimit:3}
	]]>
	</style>

	<defs id="Markers">
		<g id="lend4">
			<path d="M 2 1 L 0 0 L 2 -1 L 2 1 " style="stroke:none"/>
		</g>
		<marker id="mrkr4-46" class="st6" refX="-8.48" orient="auto" markerUnits="strokeWidth" overflow="visible">
			<use xlink:href="#lend4" transform="scale(-4.24,-4.24) "/>
		</marker>
		<g id="lend3">
			<path d="M 2 1 L 0 0 L 2 -1 " style="stroke-linecap:round;stroke-linejoin:round;fill:none"/>
		</g>
		<marker id="mrkr3-54" class="st6" orient="auto" markerUnits="strokeWidth" overflow="visible">
			<use xlink:href="#lend3" transform="scale(-4.24,-4.24) "/>
		</marker>
	</defs>
	<g>
		<title>auth-entra-join-ad-ckt</title>
		<g id="group1005-1" transform="translate(427.462,-555.056)">
			<title>Object lifeline.1005</title>
			<desc>Domain Controller</desc>
			<g id="shape1006-2" transform="translate(13.5,-6.3)">
				<title>Sheet.1006</title>
				<rect x="0" y="586.8" width="54" height="25.2" class="st1"/>
			</g>
			<g id="shape1007-4" transform="translate(31.5,-41.4)">
				<title>Sheet.1007</title>
				<path d="M9 612 a0 0 0 1 1 0 0 a0 0 0 1 1 0 0 Z" class="st1"/>
			</g>
			<g id="shape1008-6" transform="translate(27,204.056)">
				<title>Sheet.1008</title>
			</g>
			<g id="shape1009-8" transform="translate(652.5,612) rotate(90)">
				<title>Sheet.1009</title>
				<path d="M0 612 L181.56 612" class="st2"/>
			</g>
			<g id="shape1005-11">
				<rect x="0" y="574.2" width="81" height="37.8" class="st1"/>
				<text x="20.96" y="589.5" class="st3">Domain <tspan x="15.34" dy="1.2em" class="st4">Controller</tspan></text>			</g>
		</g>
		<g id="group1015-15" transform="translate(19.1441,-555.056)">
			<title>Object lifeline.1015</title>
			<desc>Windows</desc>
			<g id="shape1016-16" transform="translate(13.5,-6.3)">
				<title>Sheet.1016</title>
				<rect x="0" y="586.8" width="54" height="25.2" class="st1"/>
			</g>
			<g id="shape1017-18" transform="translate(31.5,-41.4)">
				<title>Sheet.1017</title>
				<path d="M9 612 a0 0 0 1 1 0 0 a0 0 0 1 1 0 0 Z" class="st1"/>
			</g>
			<g id="shape1018-20" transform="translate(27,212.303)">
				<title>Sheet.1018</title>
			</g>
			<g id="shape1019-22" transform="translate(652.5,612) rotate(90)">
				<title>Sheet.1019</title>
				<path d="M0 612 L189.8 612" class="st2"/>
			</g>
			<g id="shape1015-25">
				<rect x="0" y="574.2" width="81" height="37.8" class="st1"/>
				<text x="17.06" y="596.7" class="st3">Windows</text>			</g>
		</g>
		<g id="group1022-28" transform="translate(236.25,-555.056)">
			<title>Object lifeline.1022</title>
			<desc>DNS</desc>
			<g id="shape1023-29" transform="translate(13.5,-6.3)">
				<title>Sheet.1023</title>
				<rect x="0" y="586.8" width="54" height="25.2" class="st1"/>
			</g>
			<g id="shape1024-31" transform="translate(31.5,-41.4)">
				<title>Sheet.1024</title>
				<path d="M9 612 a0 0 0 1 1 0 0 a0 0 0 1 1 0 0 Z" class="st1"/>
			</g>
			<g id="shape1025-33" transform="translate(27,206.303)">
				<title>Sheet.1025</title>
			</g>
			<g id="shape1026-35" transform="translate(652.5,612) rotate(90)">
				<title>Sheet.1026</title>
				<path d="M0 612 L183.8 612" class="st2"/>
			</g>
			<g id="shape1022-38">
				<rect x="0" y="574.2" width="81" height="37.8" class="st1"/>
				<text x="29.93" y="596.7" class="st3">DNS</text>			</g>
		</g>
		<g id="shape1027-41" transform="translate(59.6441,-492.056)">
			<title>Message.1027</title>
			<desc>DcLocator</desc>
			<path d="M0 603 L208.63 603" class="st5"/>
			<rect x="88.0597" y="597" width="40.9867" height="12.0001" class="st7"/>
			<text x="88.06" y="606" class="st8">DcLocator</text>		</g>
		<g id="shape1028-49" transform="translate(276.75,-474.056)">
			<title>Return Message.1028</title>
			<desc>return list of domain controlers</desc>
			<path d="M0 603 L-217.11 603" class="st9"/>
			<rect x="-145.877" y="591" width="74.6491" height="24.0002" class="st7"/>
			<text x="-133.8" y="600" class="st8">return list of <tspan x="-145.88" dy="1.2em" class="st4">domain controlers</tspan></text>		</g>
		<g id="shape1029-58" transform="translate(59.6441,-420.056)">
			<title>Message.1029</title>
			<desc>TGS_REQ w/ Partial TGT</desc>
			<path d="M0 603 L399.84 603" class="st5"/>
			<rect x="155.25" y="597" width="97.8176" height="12.0001" class="st7"/>
			<text x="155.25" y="606" class="st8">TGS_REQ w/ Partial TGT</text>		</g>
		<g id="shape1030-65" transform="translate(458.962,-429.056)">
			<title>Self Message.1030</title>
			<desc>Validate partial TGT</desc>
			<path d="M9 612 L27 612 L27 630 L17.48 630" class="st5"/>
			<rect x="34.1578" y="615.053" width="80.2595" height="12.0001" class="st7"/>
			<text x="34.16" y="624.05" class="st8">Validate partial TGT</text>		</g>
		<g id="shape1031-72" transform="translate(467.962,-402.056)">
			<title>Return Message.1031</title>
			<desc>TGT</desc>
			<path d="M0 603 L-408.32 603" class="st9"/>
			<rect x="-212.186" y="597" width="16.0546" height="12.0001" class="st7"/>
			<text x="-212.19" y="606" class="st8">TGT</text>		</g>
		<g id="shape1032-79" transform="translate(267.75,-501.056)">
			<title>Self Message.1032</title>
			<desc>find _ldap._tcp.dc._msdcs.domainhint.om</desc>
			<path d="M9 612 L27 612 L27 630 L17.48 630" class="st5"/>
			<rect x="33.7334" y="606.056" width="153.034" height="24.0002" class="st7"/>
			<text x="102.32" y="615.06" class="st8">find <tspan x="33.73" dy="1.2em" class="st4">_ldap._tcp.dc._msdcs.domainhint.om</tspan></text>		</g>
		<g id="shape1036-87" transform="translate(50.6441,-537.056)">
			<title>Self Message.1036</title>
			<desc>Get domain hint from key metadata</desc>
			<path d="M9 612 L27 612 L27 630 L17.48 630" class="st5"/>
			<rect x="28.7743" y="604.556" width="66.163" height="36.0003" class="st7"/>
			<text x="28.77" y="613.56" class="st8">Get domain hint <tspan x="43.8" dy="1.2em" class="st4">from key</tspan><tspan
						x="42.21" dy="1.2em" class="st4">metadata</tspan></text>		</g>
		<g id="shape1039-96" transform="translate(50.6441,-356.253)">
			<title>Dynamic connector.1039</title>
		</g>
		<g id="group1040-97" transform="translate(427.462,-346.95)">
			<title>Object lifeline.1040</title>
			<desc>Domain Controller</desc>
			<g id="shape1041-98" transform="translate(13.5,-6.3)">
				<title>Sheet.1041</title>
				<rect x="0" y="586.8" width="54" height="25.2" class="st1"/>
			</g>
			<g id="shape1042-100" transform="translate(31.5,-41.4)">
				<title>Sheet.1042</title>
				<path d="M9 612 a0 0 0 1 1 0 0 a0 0 0 1 1 0 0 Z" class="st1"/>
			</g>
			<g id="shape1043-102" transform="translate(27,204.803)">
				<title>Sheet.1043</title>
			</g>
			<g id="shape1040-104">
				<rect x="0" y="574.2" width="81" height="37.8" class="st1"/>
				<text x="20.96" y="589.5" class="st3">Domain <tspan x="15.34" dy="1.2em" class="st4">Controller</tspan></text>			</g>
		</g>
		<g id="group1045-108" transform="translate(19.1441,-346.95)">
			<title>Object lifeline.1045</title>
			<desc>Windows</desc>
			<g id="shape1046-109" transform="translate(13.5,-6.3)">
				<title>Sheet.1046</title>
				<rect x="0" y="586.8" width="54" height="25.2" class="st1"/>
			</g>
			<g id="shape1047-111" transform="translate(31.5,-41.4)">
				<title>Sheet.1047</title>
				<path d="M9 612 a0 0 0 1 1 0 0 a0 0 0 1 1 0 0 Z" class="st1"/>
			</g>
			<g id="shape1048-113" transform="translate(27,212.303)">
				<title>Sheet.1048</title>
			</g>
			<g id="shape1045-115">
				<rect x="0" y="574.2" width="81" height="37.8" class="st1"/>
				<text x="17.06" y="596.7" class="st3">Windows</text>			</g>
		</g>
		<g id="group1050-118" transform="translate(236.25,-346.95)">
			<title>Object lifeline.1050</title>
			<desc>DNS</desc>
			<g id="shape1051-119" transform="translate(13.5,-6.3)">
				<title>Sheet.1051</title>
				<rect x="0" y="586.8" width="54" height="25.2" class="st1"/>
			</g>
			<g id="shape1052-121" transform="translate(31.5,-41.4)">
				<title>Sheet.1052</title>
				<path d="M9 612 a0 0 0 1 1 0 0 a0 0 0 1 1 0 0 Z" class="st1"/>
			</g>
			<g id="shape1053-123" transform="translate(27,206.303)">
				<title>Sheet.1053</title>
			</g>
			<g id="shape1050-125">
				<rect x="0" y="574.2" width="81" height="37.8" class="st1"/>
				<text x="29.93" y="596.7" class="st3">DNS</text>			</g>
		</g>
		<g id="shape1054-128" transform="translate(32.5744,-491.072)">
			<title>State.1090</title>
			<desc>A</desc>
			<path d="M0 602.16 A9.83896 9.83896 0 0 1 19.68 602.16 A9.83896 9.83896 0 1 1 0 602.16 Z" class="st10"/>
			<text x="5.6" y="606.36" class="st11">A</text>		</g>
		<g id="shape1055-131" transform="translate(32.5744,-420.75)">
			<title>State.1055</title>
			<desc>B</desc>
			<path d="M0 602.16 A9.83896 9.83896 0 0 1 19.68 602.16 A9.83896 9.83896 0 1 1 0 602.16 Z" class="st10"/>
			<text x="5.92" y="606.36" class="st11">B</text>		</g>
	</g>
</svg>
