<?xml version="1.0" encoding="UTF-8" standalone="no"?>
<!DOCTYPE svg PUBLIC "-//W3C//DTD SVG 1.1//EN" "http://www.w3.org/Graphics/SVG/1.1/DTD/svg11.dtd">
<!-- Generated by Microsoft Visio, SVG Export auth-entra-join-entra.svg AADJ Authentication -->
<svg xmlns="http://www.w3.org/2000/svg" xmlns:xlink="http://www.w3.org/1999/xlink" xmlns:ev="http://www.w3.org/2001/xml-events"
		width="11in" height="8.5in" viewBox="0 0 792 612" xml:space="preserve" color-interpolation-filters="sRGB" class="st14">
	<style type="text/css">
	<![CDATA[
		.st1 {fill:#ffffff;stroke:#e9eff7;stroke-width:0.75}
		.st2 {stroke:#5b9bd5;stroke-dasharray:7,5;stroke-linecap:round;stroke-linejoin:round;stroke-width:1}
		.st3 {fill:#5b9bd5;font-family:Calibri;font-size:1.00001em;font-weight:bold}
		.st4 {font-size:1em}
		.st5 {marker-end:url(#mrkr4-61);stroke:#5b9bd5;stroke-linecap:round;stroke-linejoin:round;stroke-width:1}
		.st6 {fill:#5b9bd5;fill-opacity:1;stroke:#5b9bd5;stroke-opacity:1;stroke-width:0.23584905660377}
		.st7 {fill:#ffffff;stroke:none;stroke-linecap:butt}
		.st8 {fill:#4f87bb;font-family:Calibri;font-size:0.833336em}
		.st9 {fill:#ffffff;stroke:none;stroke-linecap:butt;stroke-width:7.2}
		.st10 {fill:#4f87bb;font-family:Calibri;font-size:0.666664em}
		.st11 {marker-end:url(#mrkr3-96);stroke:#5b9bd5;stroke-dasharray:7,5;stroke-linecap:round;stroke-linejoin:round;stroke-width:1}
		.st12 {fill:#002060;stroke:none;stroke-width:0.75}
		.st13 {fill:#ffffff;font-family:Calibri;font-size:1.16666em;font-weight:bold}
		.st14 {fill:none;fill-rule:evenodd;font-size:12px;overflow:visible;stroke-linecap:square;stroke-miterlimit:3}
	]]>
	</style>

	<defs id="Markers">
		<g id="lend4">
			<path d="M 2 1 L 0 0 L 2 -1 L 2 1 " style="stroke:none"/>
		</g>
		<marker id="mrkr4-61" class="st6" refX="-8.48" orient="auto" markerUnits="strokeWidth" overflow="visible">
			<use xlink:href="#lend4" transform="scale(-4.24,-4.24) "/>
		</marker>
		<g id="lend3">
			<path d="M 2 1 L 0 0 L 2 -1 " style="stroke-linecap:round;stroke-linejoin:round;fill:none"/>
		</g>
		<marker id="mrkr3-96" class="st6" orient="auto" markerUnits="strokeWidth" overflow="visible">
			<use xlink:href="#lend3" transform="scale(-4.24,-4.24) "/>
		</marker>
	</defs>
	<g>
		<title>auth-entra-join-entra</title>
		<g id="group1000-1" transform="translate(307.144,-555.056)">
			<title>Object lifeline.46</title>
			<desc>Credential Provider</desc>
			<g id="shape1001-2" transform="translate(13.5,-6.3)">
				<title>Sheet.1001</title>
				<rect x="0" y="586.8" width="54" height="25.2" class="st1"/>
			</g>
			<g id="shape1002-4" transform="translate(31.5,-41.4)">
				<title>Sheet.1002</title>
				<path d="M9 612 a0 0 0 1 1 0 0 a0 0 0 1 1 0 0 Z" class="st1"/>
			</g>
			<g id="shape1003-6" transform="translate(27,379.556)">
				<title>Sheet.1003</title>
			</g>
			<g id="shape1004-8" transform="translate(652.5,612) rotate(90)">
				<title>Sheet.1004</title>
				<path d="M0 612 L357.06 612" class="st2"/>
			</g>
			<g id="shape1000-11">
				<rect x="0" y="574.2" width="81" height="37.8" class="st1"/>
				<text x="14.72" y="589.5" class="st3">Credential <tspan x="19.26" dy="1.2em" class="st4">Provider</tspan></text>			</g>
		</g>
		<g id="group1005-15" transform="translate(454.5,-555.056)">
			<title>Object lifeline.1005</title>
			<desc>Cloud AP provider</desc>
			<g id="shape1006-16" transform="translate(13.5,-6.3)">
				<title>Sheet.1006</title>
				<rect x="0" y="586.8" width="54" height="25.2" class="st1"/>
			</g>
			<g id="shape1007-18" transform="translate(31.5,-41.4)">
				<title>Sheet.1007</title>
				<path d="M9 612 a0 0 0 1 1 0 0 a0 0 0 1 1 0 0 Z" class="st1"/>
			</g>
			<g id="shape1008-20" transform="translate(27,379.556)">
				<title>Sheet.1008</title>
			</g>
			<g id="shape1009-22" transform="translate(652.5,612) rotate(90)">
				<title>Sheet.1009</title>
				<path d="M0 612 L357.06 612" class="st2"/>
			</g>
			<g id="shape1005-25">
				<rect x="0" y="574.2" width="81" height="37.8" class="st1"/>
				<text x="18" y="589.5" class="st3">Cloud AP <tspan x="19.24" dy="1.2em" class="st4">provider</tspan></text>			</g>
		</g>
		<g id="group1010-29" transform="translate(601.856,-555.056)">
			<title>Object lifeline.1010</title>
			<desc>Microsoft Entra ID</desc>
			<g id="shape1011-30" transform="translate(13.5,-6.3)">
				<title>Sheet.1011</title>
				<rect x="0" y="586.8" width="54" height="25.2" class="st1"/>
			</g>
			<g id="shape1012-32" transform="translate(31.5,-41.4)">
				<title>Sheet.1012</title>
				<path d="M9 612 a0 0 0 1 1 0 0 a0 0 0 1 1 0 0 Z" class="st1"/>
			</g>
			<g id="shape1013-34" transform="translate(27,379.556)">
				<title>Sheet.1013</title>
			</g>
			<g id="shape1014-36" transform="translate(652.5,612) rotate(90)">
				<title>Sheet.1014</title>
				<path d="M0 612 L357.06 612" class="st2"/>
			</g>
			<g id="shape1010-39">
				<rect x="0" y="574.2" width="81" height="37.8" class="st1"/>
				<text x="16.32" y="589.5" class="st3">Microsoft <tspan x="20.44" dy="1.2em" class="st4">Entra ID</tspan></text>			</g>
		</g>
		<g id="group1015-43" transform="translate(19.1441,-555.056)">
			<title>Object lifeline.1015</title>
			<desc>Winlogon</desc>
			<g id="shape1016-44" transform="translate(13.5,-6.3)">
				<title>Sheet.1016</title>
				<rect x="0" y="586.8" width="54" height="25.2" class="st1"/>
			</g>
			<g id="shape1017-46" transform="translate(31.5,-41.4)">
				<title>Sheet.1017</title>
				<path d="M9 612 a0 0 0 1 1 0 0 a0 0 0 1 1 0 0 Z" class="st1"/>
			</g>
			<g id="shape1018-48" transform="translate(27,379.556)">
				<title>Sheet.1018</title>
			</g>
			<g id="shape1019-50" transform="translate(652.5,612) rotate(90)">
				<title>Sheet.1019</title>
				<path d="M0 612 L357.06 612" class="st2"/>
			</g>
			<g id="shape1015-53">
				<rect x="0" y="574.2" width="81" height="37.8" class="st1"/>
				<text x="16.38" y="596.7" class="st3">Winlogon</text>			</g>
		</g>
		<g id="shape1020-56" transform="translate(338.644,-537.056)">
			<title>Self Message.1020</title>
			<desc>User provides gesture</desc>
			<path d="M9 612 L27 612 L27 630 L17.48 630" class="st5"/>
			<rect x="30.888" y="616.556" width="88.936" height="12.0001" class="st7"/>
			<text x="30.89" y="625.56" class="st8">User provides gesture</text>		</g>
		<g id="shape1021-64" transform="translate(200.288,-492.056)">
			<title>Message.1021</title>
			<desc>Collected Credentials</desc>
			<path d="M0 603 L286.23 603" class="st5"/>
			<rect x="44.6326" y="596.306" width="86.1584" height="12.0001" class="st9"/>
			<text x="44.63" y="605.31" class="st8">Collected Credentials</text>		</g>
		<g id="group1022-71" transform="translate(159.788,-555.056)">
			<title>Object lifeline.1022</title>
			<desc>LSA</desc>
			<g id="shape1023-72" transform="translate(13.5,-6.3)">
				<title>Sheet.1023</title>
				<rect x="0" y="586.8" width="54" height="25.2" class="st1"/>
			</g>
			<g id="shape1024-74" transform="translate(31.5,-41.4)">
				<title>Sheet.1024</title>
				<path d="M9 612 a0 0 0 1 1 0 0 a0 0 0 1 1 0 0 Z" class="st1"/>
			</g>
			<g id="shape1025-76" transform="translate(27,379.556)">
				<title>Sheet.1025</title>
			</g>
			<g id="shape1026-78" transform="translate(652.5,612) rotate(90)">
				<title>Sheet.1026</title>
				<path d="M0 612 L357.06 612" class="st2"/>
			</g>
			<g id="shape1022-81">
				<rect x="0" y="574.2" width="81" height="37.8" class="st1"/>
				<text x="31.49" y="596.7" class="st3">LSA</text>			</g>
		</g>
		<g id="shape1027-84" transform="translate(59.6441,-528.056)">
			<title>Message.1027</title>
			<desc>Show the WHFB Cred Prov</desc>
			<path d="M0 603 L279.52 603" class="st5"/>
			<rect x="45.8386" y="599.756" width="86.0348" height="9.59985" class="st9"/>
			<text x="45.84" y="606.96" class="st10">Show the WHFB Cred Prov</text>		</g>
		<g id="shape1028-91" transform="translate(347.644,-510.056)">
			<title>Return Message.1028</title>
			<desc>Collected Credentials</desc>
			<path d="M0 603 L-288 603" class="st11"/>
			<rect x="-140.973" y="596.306" width="86.1584" height="12.0001" class="st9"/>
			<text x="-140.97" y="605.31" class="st8">Collected Credentials</text>		</g>
		<g id="shape1029-99" transform="translate(59.6441,-492.056)">
			<title>Message.1029</title>
			<desc>Collected Credentials</desc>
			<path d="M0 603 L132.16 603" class="st5"/>
			<rect x="27.243" y="597" width="86.1584" height="12.0001" class="st7"/>
			<text x="27.24" y="606" class="st8">Collected Credentials</text>		</g>
		<g id="shape1030-106" transform="translate(495,-492.056)">
			<title>Message.1030</title>
			<desc>Request Nonce</desc>
			<path d="M0 603 L138.88 603" class="st5"/>
			<rect x="42.8794" y="597" width="61.5973" height="12.0001" class="st7"/>
			<text x="42.88" y="606" class="st8">Request Nonce</text>		</g>
		<g id="shape1033-113" transform="translate(642.356,-492.056)">
			<title>Return Message.1033</title>
			<desc>Nonce</desc>
			<path d="M0 621 L-147.36 621" class="st11"/>
			<rect x="-86.7712" y="615" width="26.1867" height="12.0001" class="st9"/>
			<text x="-86.77" y="624" class="st8">Nonce</text>		</g>
		<g id="shape1034-120" transform="translate(642.356,-348.056)">
			<title>Return Message.1034</title>
			<desc>PRT w/Session key</desc>
			<path d="M0 621 L-147.36 621" class="st11"/>
			<rect x="-111.31" y="615" width="75.264" height="12.0001" class="st9"/>
			<text x="-111.31" y="624" class="st8">PRT w/Session key</text>		</g>
		<g id="shape1035-127" transform="translate(495,-258.056)">
			<title>Return Message.1035</title>
			<desc>Successful Authentication</desc>
			<path d="M0 603 L-294.71 603" class="st11"/>
			<rect x="-199.693" y="597" width="104.674" height="12.0001" class="st9"/>
			<text x="-199.69" y="606" class="st8">Successful Authentication</text>		</g>
		<g id="shape1036-134" transform="translate(486,-465.056)">
			<title>Self Message.1036</title>
			<desc>Sign nonce WHFB privkey</desc>
			<path d="M9 612 L27 612 L27 630 L17.48 630" class="st5"/>
			<rect x="29.9892" y="610.556" width="57.0218" height="24.0002" class="st9"/>
			<text x="36.45" y="619.56" class="st8">Sign nonce <tspan x="29.99" dy="1.2em" class="st4">WHFB privkey</tspan></text>		</g>
		<g id="shape1037-142" transform="translate(495,-420.056)">
			<title>Message.1037</title>
			<desc>Signed Nonce</desc>
			<path d="M0 603 L138.88 603" class="st5"/>
			<rect x="45.9141" y="597" width="55.5279" height="12.0001" class="st9"/>
			<text x="45.91" y="606" class="st8">Signed Nonce</text>		</g>
		<g id="shape1038-149" transform="translate(633.356,-411.056)">
			<title>Self Message.1038</title>
			<desc>Validate signature WHFB pubkey</desc>
			<path d="M9 612 L27 612 L27 630 L17.48 630" class="st5"/>
			<rect x="31.7908" y="610.556" width="73.707" height="24.0002" class="st9"/>
			<text x="31.79" y="619.56" class="st8">Validate signature<tspan x="38.9" dy="1.2em" class="st4"> </tspan>WHFB pubkey</text>		</g>
		<g id="shape1039-157" transform="translate(633.356,-375.056)">
			<title>Self Message.1039</title>
			<desc>Validate Nonce</desc>
			<path d="M9 612 L27 612 L27 630 L17.48 630" class="st5"/>
			<rect x="33.2088" y="612.056" width="61.8709" height="12.0001" class="st7"/>
			<text x="33.21" y="621.06" class="st8">Validate Nonce</text>		</g>
		<g id="shape1040-164" transform="translate(486,-321.056)">
			<title>Self Message.1040</title>
			<desc>Decrypt Session key w/ Transport key</desc>
			<path d="M9 612 L27 612 L27 630 L17.48 630" class="st5"/>
			<rect x="31.6212" y="610.556" width="80.7575" height="24.0002" class="st7"/>
			<text x="31.62" y="619.56" class="st8">Decrypt Session key <tspan x="37.37" dy="1.2em" class="st4">w/ Transport key</tspan></text>		</g>
		<g id="shape1041-172" transform="translate(486,-285.056)">
			<title>Self Message.1041</title>
			<desc>Import Session Key to TPM</desc>
			<path d="M9 612 L27 612 L27 630 L17.48 630" class="st5"/>
			<rect x="28.8475" y="610.556" width="77.3053" height="24.0002" class="st9"/>
			<text x="28.85" y="619.56" class="st8">Import Session Key<tspan x="52.76" dy="1.2em" class="st4">to TPM</tspan></text>		</g>
		<g id="shape1042-180" transform="translate(200.288,-258.056)">
			<title>Return Message.1042</title>
			<path d="M0 603 L-140.64 603" class="st11"/>
		</g>
		<g id="shape1043-185" transform="translate(50.6441,-249.056)">
			<title>Self Message.1043</title>
			<desc>Load User Desktop</desc>
			<path d="M9 612 L27 612 L27 630 L17.48 630" class="st5"/>
			<rect x="28.2088" y="612.056" width="76.2943" height="12.0001" class="st7"/>
			<text x="28.21" y="621.06" class="st8">Load User Desktop</text>		</g>
		<g id="shape1044-192" transform="translate(30.8268,-508.5)">
			<title>State.1090</title>
			<desc>A</desc>
			<path d="M0 602.16 A9.83896 9.83896 0 0 1 19.68 602.16 A9.83896 9.83896 0 1 1 0 602.16 Z" class="st12"/>
			<text x="5.6" y="606.36" class="st13">A</text>		</g>
		<g id="group1045-195" transform="translate(307.144,-169.2)">
			<title>Object lifeline.1045</title>
			<desc>Credential Provider</desc>
			<g id="shape1046-196" transform="translate(13.5,-6.3)">
				<title>Sheet.1046</title>
				<rect x="0" y="586.8" width="54" height="25.2" class="st1"/>
			</g>
			<g id="shape1047-198" transform="translate(31.5,-41.4)">
				<title>Sheet.1047</title>
				<path d="M9 612 a0 0 0 1 1 0 0 a0 0 0 1 1 0 0 Z" class="st1"/>
			</g>
			<g id="shape1048-200" transform="translate(27,379.556)">
				<title>Sheet.1048</title>
			</g>
			<g id="shape1045-202">
				<rect x="0" y="574.2" width="81" height="37.8" class="st1"/>
				<text x="14.72" y="589.5" class="st3">Credential <tspan x="19.26" dy="1.2em" class="st4">Provider</tspan></text>			</g>
		</g>
		<g id="group1050-206" transform="translate(454.5,-169.2)">
			<title>Object lifeline.1050</title>
			<desc>Cloud AP provider</desc>
			<g id="shape1051-207" transform="translate(13.5,-6.3)">
				<title>Sheet.1051</title>
				<rect x="0" y="586.8" width="54" height="25.2" class="st1"/>
			</g>
			<g id="shape1052-209" transform="translate(31.5,-41.4)">
				<title>Sheet.1052</title>
				<path d="M9 612 a0 0 0 1 1 0 0 a0 0 0 1 1 0 0 Z" class="st1"/>
			</g>
			<g id="shape1053-211" transform="translate(27,379.556)">
				<title>Sheet.1053</title>
			</g>
			<g id="shape1050-213">
				<rect x="0" y="574.2" width="81" height="37.8" class="st1"/>
				<text x="18" y="589.5" class="st3">Cloud AP <tspan x="19.24" dy="1.2em" class="st4">provider</tspan></text>			</g>
		</g>
		<g id="group1055-217" transform="translate(601.856,-169.2)">
			<title>Object lifeline.1055</title>
			<desc>Microsoft Entra ID</desc>
			<g id="shape1056-218" transform="translate(13.5,-6.3)">
				<title>Sheet.1056</title>
				<rect x="0" y="586.8" width="54" height="25.2" class="st1"/>
			</g>
			<g id="shape1057-220" transform="translate(31.5,-41.4)">
				<title>Sheet.1057</title>
				<path d="M9 612 a0 0 0 1 1 0 0 a0 0 0 1 1 0 0 Z" class="st1"/>
			</g>
			<g id="shape1058-222" transform="translate(27,379.556)">
				<title>Sheet.1058</title>
			</g>
			<g id="shape1055-224">
				<rect x="0" y="574.2" width="81" height="37.8" class="st1"/>
				<text x="16.32" y="589.5" class="st3">Microsoft <tspan x="20.44" dy="1.2em" class="st4">Entra ID</tspan></text>			</g>
		</g>
		<g id="group1060-228" transform="translate(19.1441,-169.2)">
			<title>Object lifeline.1060</title>
			<desc>Winlogon</desc>
			<g id="shape1061-229" transform="translate(13.5,-6.3)">
				<title>Sheet.1061</title>
				<rect x="0" y="586.8" width="54" height="25.2" class="st1"/>
			</g>
			<g id="shape1062-231" transform="translate(31.5,-41.4)">
				<title>Sheet.1062</title>
				<path d="M9 612 a0 0 0 1 1 0 0 a0 0 0 1 1 0 0 Z" class="st1"/>
			</g>
			<g id="shape1063-233" transform="translate(27,379.556)">
				<title>Sheet.1063</title>
			</g>
			<g id="shape1060-235">
				<rect x="0" y="574.2" width="81" height="37.8" class="st1"/>
				<text x="16.38" y="596.7" class="st3">Winlogon</text>			</g>
		</g>
		<g id="group1065-238" transform="translate(159.788,-169.2)">
			<title>Object lifeline.1065</title>
			<desc>LSA</desc>
			<g id="shape1066-239" transform="translate(13.5,-6.3)">
				<title>Sheet.1066</title>
				<rect x="0" y="586.8" width="54" height="25.2" class="st1"/>
			</g>
			<g id="shape1067-241" transform="translate(31.5,-41.4)">
				<title>Sheet.1067</title>
				<path d="M9 612 a0 0 0 1 1 0 0 a0 0 0 1 1 0 0 Z" class="st1"/>
			</g>
			<g id="shape1068-243" transform="translate(27,379.556)">
				<title>Sheet.1068</title>
			</g>
			<g id="shape1065-245">
				<rect x="0" y="574.2" width="81" height="37.8" class="st1"/>
				<text x="31.49" y="596.7" class="st3">LSA</text>			</g>
		</g>
		<g id="shape1069-248" transform="translate(468.635,-441)">
			<title>State.1069</title>
			<desc>B</desc>
			<path d="M0 602.16 A9.83896 9.83896 0 0 1 19.68 602.16 A9.83896 9.83896 0 1 1 0 602.16 Z" class="st12"/>
			<text x="5.92" y="606.36" class="st13">B</text>		</g>
		<g id="shape1070-251" transform="translate(612,-372.661)">
			<title>State.1070</title>
			<desc>C</desc>
			<path d="M0 602.16 A9.83896 9.83896 0 0 1 19.68 602.16 A9.83896 9.83896 0 1 1 0 602.16 Z" class="st12"/>
			<text x="6.13" y="606.36" class="st13">C</text>		</g>
		<g id="shape1071-254" transform="translate(468.635,-286.322)">
			<title>State.1071</title>
			<desc>D</desc>
			<path d="M0 602.16 A9.83896 9.83896 0 0 1 19.68 602.16 A9.83896 9.83896 0 1 1 0 602.16 Z" class="st12"/>
			<text x="5.43" y="606.36" class="st13">D</text>		</g>
		<g id="shape1072-257" transform="translate(30.8268,-241.322)">
			<title>State.1072</title>
			<desc>E</desc>
			<path d="M0 602.16 A9.83896 9.83896 0 0 1 19.68 602.16 A9.83896 9.83896 0 1 1 0 602.16 Z" class="st12"/>
			<text x="6.42" y="606.36" class="st13">E</text>		</g>
	</g>
</svg>
