<?xml version="1.0" encoding="UTF-8" standalone="no"?>
<!DOCTYPE svg PUBLIC "-//W3C//DTD SVG 1.1//EN" "http://www.w3.org/Graphics/SVG/1.1/DTD/svg11.dtd">
<!-- Generated by Microsoft Visio, SVG Export auth-hybrid-join-ct.svg HAADJ-Auth-CertTrust -->
<svg xmlns="http://www.w3.org/2000/svg" xmlns:xlink="http://www.w3.org/1999/xlink" xmlns:ev="http://www.w3.org/2001/xml-events"
		width="21.5in" height="24.5in" viewBox="0 0 1548 1764" xml:space="preserve" color-interpolation-filters="sRGB" class="st17">
	<style type="text/css">
	<![CDATA[
		.st1 {fill:#ffffff;stroke:#e9eff7;stroke-width:0.75}
		.st2 {stroke:#5b9bd5;stroke-dasharray:7,5;stroke-linecap:round;stroke-linejoin:round;stroke-width:1}
		.st3 {fill:#5b9bd5;font-family:Calibri;font-size:1.00001em;font-weight:bold}
		.st4 {font-size:1em}
		.st5 {marker-end:url(#mrkr4-102);stroke:#5b9bd5;stroke-linecap:round;stroke-linejoin:round;stroke-width:1}
		.st6 {fill:#5b9bd5;fill-opacity:1;stroke:#5b9bd5;stroke-opacity:1;stroke-width:0.23584905660377}
		.st7 {fill:#ffffff;stroke:none;stroke-linecap:butt;stroke-width:7.2}
		.st8 {fill:#4f87bb;font-family:Calibri;font-size:0.833336em}
		.st9 {marker-end:url(#mrkr3-117);stroke:#5b9bd5;stroke-dasharray:7,5;stroke-linecap:round;stroke-linejoin:round;stroke-width:1}
		.st10 {marker-end:url(#mrkr4-224);stroke:#ed7d31;stroke-linecap:round;stroke-linejoin:round;stroke-width:1}
		.st11 {fill:#ed7d31;fill-opacity:1;stroke:#ed7d31;stroke-opacity:1;stroke-width:0.23584905660377}
		.st12 {fill:#d06d29;font-family:Calibri;font-size:0.833336em}
		.st13 {marker-end:url(#mrkr3-239);stroke:#ed7d31;stroke-dasharray:7,5;stroke-linecap:round;stroke-linejoin:round;stroke-width:1}
		.st14 {fill:#ffffff;stroke:none;stroke-linecap:butt}
		.st15 {fill:#002060;stroke:none;stroke-width:0.75}
		.st16 {fill:#ffffff;font-family:Calibri;font-size:1.16666em;font-weight:bold}
		.st17 {fill:none;fill-rule:evenodd;font-size:12px;overflow:visible;stroke-linecap:square;stroke-miterlimit:3}
	]]>
	</style>

	<defs id="Markers">
		<g id="lend4">
			<path d="M 2 1 L 0 0 L 2 -1 L 2 1 " style="stroke:none"/>
		</g>
		<marker id="mrkr4-102" class="st6" refX="-8.48" orient="auto" markerUnits="strokeWidth" overflow="visible">
			<use xlink:href="#lend4" transform="scale(-4.24,-4.24) "/>
		</marker>
		<g id="lend3">
			<path d="M 2 1 L 0 0 L 2 -1 " style="stroke-linecap:round;stroke-linejoin:round;fill:none"/>
		</g>
		<marker id="mrkr3-117" class="st6" orient="auto" markerUnits="strokeWidth" overflow="visible">
			<use xlink:href="#lend3" transform="scale(-4.24,-4.24) "/>
		</marker>
		<marker id="mrkr4-224" class="st11" refX="-8.48" orient="auto" markerUnits="strokeWidth" overflow="visible">
			<use xlink:href="#lend4" transform="scale(-4.24,-4.24) "/>
		</marker>
		<marker id="mrkr3-239" class="st11" orient="auto" markerUnits="strokeWidth" overflow="visible">
			<use xlink:href="#lend3" transform="scale(-4.24,-4.24) "/>
		</marker>
	</defs>
	<g>
		<title>auth-hybrid-join-ct</title>
		<g id="group1005-1" transform="translate(677.212,-1707.06)">
			<title>Object lifeline.1005</title>
			<desc>Domain Controller</desc>
			<g id="shape1006-2" transform="translate(13.5,-6.3)">
				<title>Sheet.1006</title>
				<rect x="0" y="1738.8" width="54" height="25.2" class="st1"/>
			</g>
			<g id="shape1007-4" transform="translate(31.5,-41.4)">
				<title>Sheet.1007</title>
				<path d="M9 1764 a0 0 0 1 1 0 0 a0 0 0 1 1 0 0 Z" class="st1"/>
			</g>
			<g id="shape1008-6" transform="translate(27,584.306)">
				<title>Sheet.1008</title>
			</g>
			<g id="shape1009-8" transform="translate(1804.5,1764) rotate(90)">
				<title>Sheet.1009</title>
				<path d="M0 1764 L561.81 1764" class="st2"/>
			</g>
			<g id="shape1005-11">
				<rect x="0" y="1726.2" width="81" height="37.8" class="st1"/>
				<text x="20.96" y="1741.5" class="st3">Domain <tspan x="15.34" dy="1.2em" class="st4">Controller</tspan></text>			</g>
		</g>
		<g id="group1015-15" transform="translate(19.1441,-1707.06)">
			<title>Object lifeline.1015</title>
			<desc>Winlogon</desc>
			<g id="shape1016-16" transform="translate(13.5,-6.3)">
				<title>Sheet.1016</title>
				<rect x="0" y="1738.8" width="54" height="25.2" class="st1"/>
			</g>
			<g id="shape1017-18" transform="translate(31.5,-41.4)">
				<title>Sheet.1017</title>
				<path d="M9 1764 a0 0 0 1 1 0 0 a0 0 0 1 1 0 0 Z" class="st1"/>
			</g>
			<g id="shape1018-20" transform="translate(27,585.853)">
				<title>Sheet.1018</title>
			</g>
			<g id="shape1019-22" transform="translate(1804.5,1764) rotate(90)">
				<title>Sheet.1019</title>
				<path d="M0 1764 L563.35 1764" class="st2"/>
			</g>
			<g id="shape1015-25">
				<rect x="0" y="1726.2" width="81" height="37.8" class="st1"/>
				<text x="16.38" y="1748.7" class="st3">Winlogon</text>			</g>
		</g>
		<g id="group1020-28" transform="translate(567.534,-1707.06)">
			<title>Object lifeline.1020</title>
			<desc>Microsoft Entra ID</desc>
			<g id="shape1021-29" transform="translate(13.5,-6.3)">
				<title>Sheet.1021</title>
				<rect x="0" y="1738.8" width="54" height="25.2" class="st1"/>
			</g>
			<g id="shape1022-31" transform="translate(31.5,-41.4)">
				<title>Sheet.1022</title>
				<path d="M9 1764 a0 0 0 1 1 0 0 a0 0 0 1 1 0 0 Z" class="st1"/>
			</g>
			<g id="shape1023-33" transform="translate(27,586.556)">
				<title>Sheet.1023</title>
			</g>
			<g id="shape1024-35" transform="translate(1804.5,1764) rotate(90)">
				<title>Sheet.1024</title>
				<path d="M0 1764 L564.06 1764" class="st2"/>
			</g>
			<g id="shape1020-38">
				<rect x="0" y="1726.2" width="81" height="37.8" class="st1"/>
				<text x="16.32" y="1741.5" class="st3">Microsoft <tspan x="20.44" dy="1.2em" class="st4">Entra ID</tspan></text>			</g>
		</g>
		<g id="group1025-42" transform="translate(128.822,-1707.06)">
			<title>Object lifeline.1025</title>
			<desc>LSA</desc>
			<g id="shape1026-43" transform="translate(13.5,-6.3)">
				<title>Sheet.1026</title>
				<rect x="0" y="1738.8" width="54" height="25.2" class="st1"/>
			</g>
			<g id="shape1027-45" transform="translate(31.5,-41.4)">
				<title>Sheet.1027</title>
				<path d="M9 1764 a0 0 0 1 1 0 0 a0 0 0 1 1 0 0 Z" class="st1"/>
			</g>
			<g id="shape1028-47" transform="translate(27,591.056)">
				<title>Sheet.1028</title>
			</g>
			<g id="shape1029-49" transform="translate(1804.5,1764) rotate(90)">
				<title>Sheet.1029</title>
				<path d="M0 1764 L568.56 1764" class="st2"/>
			</g>
			<g id="shape1025-52">
				<rect x="0" y="1726.2" width="81" height="37.8" class="st1"/>
				<text x="31.49" y="1748.7" class="st3">LSA</text>			</g>
		</g>
		<g id="group1030-55" transform="translate(238.5,-1707.06)">
			<title>Object lifeline.1030</title>
			<desc>Credential Provider</desc>
			<g id="shape1031-56" transform="translate(13.5,-6.3)">
				<title>Sheet.1031</title>
				<rect x="0" y="1738.8" width="54" height="25.2" class="st1"/>
			</g>
			<g id="shape1032-58" transform="translate(31.5,-41.4)">
				<title>Sheet.1032</title>
				<path d="M9 1764 a0 0 0 1 1 0 0 a0 0 0 1 1 0 0 Z" class="st1"/>
			</g>
			<g id="shape1033-60" transform="translate(27,586.556)">
				<title>Sheet.1033</title>
			</g>
			<g id="shape1034-62" transform="translate(1804.5,1764) rotate(90)">
				<title>Sheet.1034</title>
				<path d="M0 1764 L564.06 1764" class="st2"/>
			</g>
			<g id="shape1030-65">
				<rect x="0" y="1726.2" width="81" height="37.8" class="st1"/>
				<text x="14.72" y="1741.5" class="st3">Credential<tspan x="19.26" dy="1.2em" class="st4">Provider</tspan></text>			</g>
		</g>
		<g id="group1035-69" transform="translate(457.856,-1707.06)">
			<title>Object lifeline.1035</title>
			<desc>Cloud Auth provider</desc>
			<g id="shape1036-70" transform="translate(13.5,-6.3)">
				<title>Sheet.1036</title>
				<rect x="0" y="1738.8" width="54" height="25.2" class="st1"/>
			</g>
			<g id="shape1037-72" transform="translate(31.5,-41.4)">
				<title>Sheet.1037</title>
				<path d="M9 1764 a0 0 0 1 1 0 0 a0 0 0 1 1 0 0 Z" class="st1"/>
			</g>
			<g id="shape1038-74" transform="translate(27,586.556)">
				<title>Sheet.1038</title>
			</g>
			<g id="shape1039-76" transform="translate(1804.5,1764) rotate(90)">
				<title>Sheet.1039</title>
				<path d="M0 1764 L564.06 1764" class="st2"/>
			</g>
			<g id="shape1035-79">
				<rect x="0" y="1726.2" width="81" height="37.8" class="st1"/>
				<text x="12.67" y="1741.5" class="st3">Cloud Auth<tspan x="19.24" dy="1.2em" class="st4">provider</tspan></text>			</g>
		</g>
		<g id="group1040-83" transform="translate(348.178,-1707.06)">
			<title>Object lifeline.1040</title>
			<desc>Kerberos provider</desc>
			<g id="shape1041-84" transform="translate(13.5,-6.3)">
				<title>Sheet.1041</title>
				<rect x="0" y="1738.8" width="54" height="25.2" class="st1"/>
			</g>
			<g id="shape1042-86" transform="translate(31.5,-41.4)">
				<title>Sheet.1042</title>
				<path d="M9 1764 a0 0 0 1 1 0 0 a0 0 0 1 1 0 0 Z" class="st1"/>
			</g>
			<g id="shape1043-88" transform="translate(27,584.306)">
				<title>Sheet.1043</title>
			</g>
			<g id="shape1044-90" transform="translate(1804.5,1764) rotate(90)">
				<title>Sheet.1044</title>
				<path d="M0 1764 L561.81 1764" class="st2"/>
			</g>
			<g id="shape1040-93">
				<rect x="0" y="1726.2" width="81" height="37.8" class="st1"/>
				<text x="18.07" y="1741.5" class="st3">Kerberos<tspan x="19.24" dy="1.2em" class="st4">provider</tspan></text>			</g>
		</g>
		<g id="shape1045-97" transform="translate(270,-1689.06)">
			<title>Self Message.1020</title>
			<desc>User provides gesture</desc>
			<path d="M9 1764 L27 1764 L27 1782 L17.48 1782" class="st5"/>
			<rect x="29.7821" y="1768.56" width="88.936" height="12.0001" class="st7"/>
			<text x="29.78" y="1777.56" class="st8">User provides gesture</text>		</g>
		<g id="shape1046-105" transform="translate(169.322,-1644.06)">
			<title>Message.1021</title>
			<desc>Collected Credentials</desc>
			<path d="M0 1755 L210.88 1755" class="st5"/>
			<rect x="22.2053" y="1748.31" width="86.1584" height="12.0001" class="st7"/>
			<text x="22.21" y="1757.31" class="st8">Collected Credentials</text>		</g>
		<g id="shape1047-112" transform="translate(279,-1662.06)">
			<title>Return Message.1028</title>
			<desc>Collected Credentials</desc>
			<path d="M0 1755 L-219.36 1755" class="st9"/>
			<rect x="-117.64" y="1748.31" width="86.1584" height="12.0001" class="st7"/>
			<text x="-117.64" y="1757.31" class="st8">Collected Credentials</text>		</g>
		<g id="shape1048-120" transform="translate(59.6441,-1644.06)">
			<title>Message.1029</title>
			<desc>Collected Credentials</desc>
			<path d="M0 1755 L101.2 1755" class="st5"/>
			<rect x="11.7599" y="1749" width="86.1584" height="12.0001" class="st7"/>
			<text x="11.76" y="1758" class="st8">Collected Credentials</text>		</g>
		<g id="shape1049-127" transform="translate(59.6441,-1680.06)">
			<title>Message.1027</title>
			<desc>Show the WHFB Cred Prov</desc>
			<path d="M0 1755 L210.88 1755" class="st5"/>
			<rect x="13.9052" y="1750.56" width="107.544" height="12.0001" class="st7"/>
			<text x="13.91" y="1759.56" class="st8">Show the WHFB Cred Prov</text>		</g>
		<g id="shape1050-134" transform="translate(379.678,-1653.06)">
			<title>Self Message.1036</title>
			<desc>Get domain hint from computer</desc>
			<path d="M9 1764 L27 1764 L27 1782 L17.48 1782" class="st5"/>
			<rect x="28.2406" y="1758.06" width="66.163" height="24.0002" class="st7"/>
			<text x="28.24" y="1767.06" class="st8">Get domain hint <tspan x="30.39" dy="1.2em" class="st4">from computer</tspan></text>		</g>
		<g id="shape1051-142" transform="translate(717.712,-1590.06)">
			<title>Return Message.1051</title>
			<desc>return list of domain controlers</desc>
			<path d="M0 1755 L-329.03 1755" class="st9"/>
			<rect x="-201.841" y="1743" width="74.6491" height="24.0002" class="st7"/>
			<text x="-189.77" y="1752" class="st8">return list of <tspan x="-201.84" dy="1.2em" class="st4">domain controlers</tspan></text>		</g>
		<g id="shape1052-150" transform="translate(388.678,-1536.06)">
			<title>Message.1052</title>
			<desc>KRB_AS_REQ w/signed preAuth data</desc>
			<path d="M0 1755 L320.55 1755" class="st5"/>
			<rect x="89.9266" y="1749" width="149.181" height="12.0001" class="st7"/>
			<text x="89.93" y="1758" class="st8">KRB_AS_REQ w/signed preAuth data</text>		</g>
		<g id="shape1053-157" transform="translate(708.712,-1545.06)">
			<title>Self Message.1030</title>
			<desc>PreAuth data validation</desc>
			<path d="M9 1764 L27 1764 L27 1782 L17.48 1782" class="st5"/>
			<rect x="29.4303" y="1762.56" width="53.7163" height="24.0002" class="st7"/>
			<text x="29.43" y="1771.56" class="st8">PreAuth data<tspan x="36.23" dy="1.2em" class="st4">validation</tspan></text>		</g>
		<g id="shape1054-165" transform="translate(717.712,-1518.06)">
			<title>Return Message.1031</title>
			<desc>KRB_AS_REP w/KDC cert and TGT</desc>
			<path d="M0 1755 L-329.03 1755" class="st9"/>
			<rect x="-232.522" y="1749" width="136.011" height="12.0001" class="st7"/>
			<text x="-232.52" y="1758" class="st8">KRB_AS_REP w/KDC cert and TGT</text>		</g>
		<g id="shape1056-172" transform="translate(379.678,-1509.06)">
			<title>Self Message.1033</title>
			<desc>Kdc cert chains and validates</desc>
			<path d="M9 1764 L27 1764 L27 1782 L17.48 1782" class="st5"/>
			<rect x="30.5772" y="1758.06" width="83.9899" height="24.0002" class="st7"/>
			<text x="56.08" y="1767.06" class="st8">Kdc cert<tspan x="30.58" dy="1.2em" class="st4"> </tspan>chains and validates</text>		</g>
		<g id="shape1057-180" transform="translate(379.678,-1473.06)">
			<title>Self Message.1034</title>
			<desc>KDC cert include KDC Authentication EKU (1.3.6.1.5.2.3.5)</desc>
			<path d="M9 1764 L27 1764 L27 1782 L17.48 1782" class="st5"/>
			<rect x="30.1199" y="1752.06" width="98.4045" height="36.0003" class="st7"/>
			<text x="45.92" y="1761.06" class="st8">KDC cert include <tspan x="30.12" dy="1.2em" class="st4">KDC Authentication EKU</tspan><tspan
						x="47.18" dy="1.2em" class="st4">(1.3.6.1.5.2.3.5)</tspan></text>		</g>
		<g id="shape1058-189" transform="translate(379.678,-1437.06)">
			<title>Self Message.1035</title>
			<desc>KDC cert subject alternate name matches domain DNS</desc>
			<path d="M9 1764 L27 1764 L27 1782 L17.48 1782" class="st5"/>
			<rect x="31.6208" y="1762.56" width="131.403" height="24.0002" class="st7"/>
			<text x="31.62" y="1771.56" class="st8">KDC cert subject alternate name<tspan x="53.78" dy="1.2em" class="st4">matches domain DNS</tspan></text>		</g>
		<g id="shape1059-197" transform="translate(379.678,-1581.06)">
			<title>Self Message.1037</title>
			<desc>WHFB privKey signs preAuth data</desc>
			<path d="M9 1764 L27 1764 L27 1782 L17.48 1782" class="st5"/>
			<rect x="32.2506" y="1762.56" width="76.1432" height="24.0002" class="st7"/>
			<text x="41.49" y="1771.56" class="st8">WHFB privKey<tspan x="32.25" dy="1.2em" class="st4">signs preAuth data</tspan></text>		</g>
		<g id="shape1060-205" transform="translate(388.678,-1608.06)">
			<title>Message.1060</title>
			<desc>DcLocator via DNS</desc>
			<path d="M0 1755 L320.55 1755" class="st5"/>
			<rect x="127.361" y="1749" width="74.3118" height="12.0001" class="st7"/>
			<text x="127.36" y="1758" class="st8">DcLocator via DNS</text>		</g>
		<g id="shape1061-212" transform="translate(388.678,-1410.06)">
			<title>Return Message.1061</title>
			<desc>TGT</desc>
			<path d="M0 1755 L-219.36 1755" class="st9"/>
			<rect x="-117.705" y="1749" width="16.0546" height="12.0001" class="st7"/>
			<text x="-117.71" y="1758" class="st8">TGT</text>		</g>
		<g id="shape1062-219" transform="translate(169.322,-1374.06)">
			<title>Message.1062</title>
			<desc>Collected Credentials</desc>
			<path d="M0 1755 L320.55 1755" class="st10"/>
			<rect x="121.438" y="1749" width="86.1584" height="12.0001" class="st7"/>
			<text x="121.44" y="1758" class="st12">Collected Credentials</text>		</g>
		<g id="shape1063-227" transform="translate(498.356,-1374.06)">
			<title>Message.1030</title>
			<desc>Request Nonce</desc>
			<path d="M0 1755 L101.2 1755" class="st10"/>
			<rect x="24.0404" y="1749" width="61.5973" height="12.0001" class="st7"/>
			<text x="24.04" y="1758" class="st12">Request Nonce</text>		</g>
		<g id="shape1064-234" transform="translate(608.034,-1356.06)">
			<title>Return Message.1033</title>
			<desc>Nonce</desc>
			<path d="M0 1755 L-109.68 1755" class="st13"/>
			<rect x="-67.9323" y="1749" width="26.1867" height="12.0001" class="st7"/>
			<text x="-67.93" y="1758" class="st12">Nonce</text>		</g>
		<g id="shape1065-242" transform="translate(608.034,-1248.06)">
			<title>Return Message.1034</title>
			<desc>PRT w/Session key</desc>
			<path d="M0 1755 L-109.68 1755" class="st13"/>
			<rect x="-92.4709" y="1749" width="75.264" height="12.0001" class="st7"/>
			<text x="-92.47" y="1758" class="st12">PRT w/Session key</text>		</g>
		<g id="shape1066-249" transform="translate(489.356,-1347.06)">
			<title>Self Message.1066</title>
			<desc>Sign nonce WHFB privkey</desc>
			<path d="M9 1764 L27 1764 L27 1782 L17.48 1782" class="st10"/>
			<rect x="31.1334" y="1762.56" width="57.0218" height="24.0002" class="st7"/>
			<text x="37.6" y="1771.56" class="st12">Sign nonce <tspan x="31.13" dy="1.2em" class="st4">WHFB privkey</tspan></text>		</g>
		<g id="shape1067-257" transform="translate(498.356,-1302.06)">
			<title>Message.1037</title>
			<desc>Signed Nonce</desc>
			<path d="M0 1755 L101.2 1755" class="st10"/>
			<rect x="27.0751" y="1749" width="55.5279" height="12.0001" class="st7"/>
			<text x="27.08" y="1758" class="st12">Signed Nonce</text>		</g>
		<g id="shape1068-264" transform="translate(599.034,-1311.06)">
			<title>Self Message.1038</title>
			<desc>Validate signature WHFB pubkey</desc>
			<path d="M9 1764 L27 1764 L27 1782 L17.48 1782" class="st10"/>
			<rect x="30.1128" y="1762.56" width="73.707" height="24.0002" class="st14"/>
			<text x="30.11" y="1771.56" class="st12">Validate signature<tspan x="37.22" dy="1.2em" class="st4"> </tspan>WHFB pubkey</text>		</g>
		<g id="shape1069-272" transform="translate(599.034,-1275.06)">
			<title>Self Message.1039</title>
			<desc>Validate Nonce</desc>
			<path d="M9 1764 L27 1764 L27 1782 L17.48 1782" class="st10"/>
			<rect x="36.0309" y="1768.56" width="61.8709" height="12.0001" class="st7"/>
			<text x="36.03" y="1777.56" class="st12">Validate Nonce</text>		</g>
		<g id="shape1070-279" transform="translate(489.356,-1239.06)">
			<title>Self Message.1040</title>
			<desc>Decrypt Session key w/ Transport key</desc>
			<path d="M9 1764 L27 1764 L27 1782 L17.48 1782" class="st10"/>
			<rect x="30.5154" y="1762.56" width="80.7575" height="24.0002" class="st7"/>
			<text x="30.52" y="1771.56" class="st12">Decrypt Session key <tspan x="36.27" dy="1.2em" class="st4">w/ Transport key</tspan></text>		</g>
		<g id="shape1071-287" transform="translate(489.356,-1203.06)">
			<title>Self Message.1041</title>
			<desc>Import Session Key to TPM</desc>
			<path d="M9 1764 L27 1764 L27 1782 L17.48 1782" class="st10"/>
			<rect x="29.9916" y="1762.56" width="77.3053" height="24.0002" class="st7"/>
			<text x="29.99" y="1771.56" class="st12">Import Session Key<tspan x="53.91" dy="1.2em" class="st4">to TPM</tspan></text>		</g>
		<g id="shape1072-295" transform="translate(498.938,-1161)">
			<title>Return Message.1035</title>
			<desc>Successful Authentication</desc>
			<path d="M0 1755 L-329.62 1755" class="st13"/>
			<rect x="-217.15" y="1749" width="104.674" height="12.0001" class="st7"/>
			<text x="-217.15" y="1758" class="st12">Successful Authentication</text>		</g>
		<g id="shape1074-302" transform="translate(50.6441,-1401.06)">
			<title>Self Message.1043</title>
			<desc>Load User Desktop</desc>
			<path d="M9 1764 L27 1764 L27 1782 L17.48 1782" class="st5"/>
			<rect x="30.4588" y="1764.06" width="76.2943" height="12.0001" class="st14"/>
			<text x="30.46" y="1773.06" class="st8">Load User Desktop</text>		</g>
		<g id="shape1075-309" transform="translate(169.322,-1410.06)">
			<title>Return Message.1075</title>
			<desc>Success</desc>
			<path d="M0 1755 L-109.68 1755" class="st9"/>
			<rect x="-70.391" y="1749" width="31.1039" height="12.0001" class="st7"/>
			<text x="-70.39" y="1758" class="st8">Success</text>		</g>
		<g id="shape1076-316" transform="translate(29.661,-1667.66)">
			<title>State.1090</title>
			<desc>A</desc>
			<path d="M0 1754.16 A9.83896 9.83896 0 0 1 19.68 1754.16 A9.83896 9.83896 0 1 1 0 1754.16 Z" class="st15"/>
			<text x="5.6" y="1758.36" class="st16">A</text>		</g>
		<g id="shape1077-319" transform="translate(35.161,-1397.66)">
			<title>State.1077</title>
			<desc>E</desc>
			<path d="M0 1754.16 A9.83896 9.83896 0 0 1 19.68 1754.16 A9.83896 9.83896 0 1 1 0 1754.16 Z" class="st15"/>
			<text x="6.42" y="1758.36" class="st16">E</text>		</g>
		<g id="shape1078-322" transform="translate(358.161,-1557.16)">
			<title>State.1078</title>
			<desc>B</desc>
			<path d="M0 1754.16 A9.83896 9.83896 0 0 1 19.68 1754.16 A9.83896 9.83896 0 1 1 0 1754.16 Z" class="st15"/>
			<text x="5.92" y="1758.36" class="st16">B</text>		</g>
		<g id="shape1079-325" transform="translate(358.661,-1469.16)">
			<title>State.1079</title>
			<desc>C</desc>
			<path d="M0 1754.16 A9.83896 9.83896 0 0 1 19.68 1754.16 A9.83896 9.83896 0 1 1 0 1754.16 Z" class="st15"/>
			<text x="6.13" y="1758.36" class="st16">C</text>		</g>
		<g id="shape1080-328" transform="translate(147.161,-1422.84)">
			<title>State.1080</title>
			<desc>D</desc>
			<path d="M0 1754.16 A9.83896 9.83896 0 0 1 19.68 1754.16 A9.83896 9.83896 0 1 1 0 1754.16 Z" class="st15"/>
			<text x="5.43" y="1758.36" class="st16">D</text>		</g>
		<g id="shape1081-331" transform="translate(147.161,-1366.32)">
			<title>State.1081</title>
			<desc>F</desc>
			<path d="M0 1754.16 A9.83896 9.83896 0 0 1 19.68 1754.16 A9.83896 9.83896 0 1 1 0 1754.16 Z" class="st15"/>
			<text x="6.63" y="1758.36" class="st16">F</text>		</g>
		<g id="shape1082-334" transform="translate(470.161,-1296.16)">
			<title>State.1082</title>
			<desc>G</desc>
			<path d="M0 1754.16 A9.83896 9.83896 0 0 1 19.68 1754.16 A9.83896 9.83896 0 1 1 0 1754.16 Z" class="st15"/>
			<text x="5.38" y="1758.36" class="st16">G</text>		</g>
		<g id="group1083-337" transform="translate(677.212,-1110.6)">
			<title>Object lifeline.1083</title>
			<desc>Domain Controller</desc>
			<g id="shape1084-338" transform="translate(13.5,-6.3)">
				<title>Sheet.1084</title>
				<rect x="0" y="1738.8" width="54" height="25.2" class="st1"/>
			</g>
			<g id="shape1085-340" transform="translate(31.5,-41.4)">
				<title>Sheet.1085</title>
				<path d="M9 1764 a0 0 0 1 1 0 0 a0 0 0 1 1 0 0 Z" class="st1"/>
			</g>
			<g id="shape1086-342" transform="translate(27,559.556)">
				<title>Sheet.1086</title>
			</g>
			<g id="shape1083-344">
				<rect x="0" y="1726.2" width="81" height="37.8" class="st1"/>
				<text x="20.96" y="1741.5" class="st3">Domain <tspan x="15.34" dy="1.2em" class="st4">Controller</tspan></text>			</g>
		</g>
		<g id="group1088-348" transform="translate(19.1441,-1110.6)">
			<title>Object lifeline.1088</title>
			<desc>Winlogon</desc>
			<g id="shape1089-349" transform="translate(13.5,-6.3)">
				<title>Sheet.1089</title>
				<rect x="0" y="1738.8" width="54" height="25.2" class="st1"/>
			</g>
			<g id="shape1090-351" transform="translate(31.5,-41.4)">
				<title>Sheet.1090</title>
				<path d="M9 1764 a0 0 0 1 1 0 0 a0 0 0 1 1 0 0 Z" class="st1"/>
			</g>
			<g id="shape1091-353" transform="translate(27,559.556)">
				<title>Sheet.1091</title>
			</g>
			<g id="shape1088-355">
				<rect x="0" y="1726.2" width="81" height="37.8" class="st1"/>
				<text x="16.38" y="1748.7" class="st3">Winlogon</text>			</g>
		</g>
		<g id="group1093-358" transform="translate(567.534,-1110.6)">
			<title>Object lifeline.1093</title>
			<desc>Microsoft Entra ID</desc>
			<g id="shape1094-359" transform="translate(13.5,-6.3)">
				<title>Sheet.1094</title>
				<rect x="0" y="1738.8" width="54" height="25.2" class="st1"/>
			</g>
			<g id="shape1095-361" transform="translate(31.5,-41.4)">
				<title>Sheet.1095</title>
				<path d="M9 1764 a0 0 0 1 1 0 0 a0 0 0 1 1 0 0 Z" class="st1"/>
			</g>
			<g id="shape1096-363" transform="translate(27,559.556)">
				<title>Sheet.1096</title>
			</g>
			<g id="shape1093-365">
				<rect x="0" y="1726.2" width="81" height="37.8" class="st1"/>
				<text x="16.32" y="1741.5" class="st3">Microsoft <tspan x="20.44" dy="1.2em" class="st4">Entra ID</tspan></text>			</g>
		</g>
		<g id="group1098-369" transform="translate(128.822,-1110.6)">
			<title>Object lifeline.1098</title>
			<desc>LSA</desc>
			<g id="shape1099-370" transform="translate(13.5,-6.3)">
				<title>Sheet.1099</title>
				<rect x="0" y="1738.8" width="54" height="25.2" class="st1"/>
			</g>
			<g id="shape1100-372" transform="translate(31.5,-41.4)">
				<title>Sheet.1100</title>
				<path d="M9 1764 a0 0 0 1 1 0 0 a0 0 0 1 1 0 0 Z" class="st1"/>
			</g>
			<g id="shape1101-374" transform="translate(27,559.556)">
				<title>Sheet.1101</title>
			</g>
			<g id="shape1098-376">
				<rect x="0" y="1726.2" width="81" height="37.8" class="st1"/>
				<text x="31.49" y="1748.7" class="st3">LSA</text>			</g>
		</g>
		<g id="group1103-379" transform="translate(238.5,-1110.6)">
			<title>Object lifeline.1103</title>
			<desc>Credential Provider</desc>
			<g id="shape1104-380" transform="translate(13.5,-6.3)">
				<title>Sheet.1104</title>
				<rect x="0" y="1738.8" width="54" height="25.2" class="st1"/>
			</g>
			<g id="shape1105-382" transform="translate(31.5,-41.4)">
				<title>Sheet.1105</title>
				<path d="M9 1764 a0 0 0 1 1 0 0 a0 0 0 1 1 0 0 Z" class="st1"/>
			</g>
			<g id="shape1106-384" transform="translate(27,559.556)">
				<title>Sheet.1106</title>
			</g>
			<g id="shape1103-386">
				<rect x="0" y="1726.2" width="81" height="37.8" class="st1"/>
				<text x="14.72" y="1741.5" class="st3">Credential<tspan x="19.26" dy="1.2em" class="st4">Provider</tspan></text>			</g>
		</g>
		<g id="group1108-390" transform="translate(457.856,-1110.6)">
			<title>Object lifeline.1108</title>
			<desc>Cloud Auth provider</desc>
			<g id="shape1109-391" transform="translate(13.5,-6.3)">
				<title>Sheet.1109</title>
				<rect x="0" y="1738.8" width="54" height="25.2" class="st1"/>
			</g>
			<g id="shape1110-393" transform="translate(31.5,-41.4)">
				<title>Sheet.1110</title>
				<path d="M9 1764 a0 0 0 1 1 0 0 a0 0 0 1 1 0 0 Z" class="st1"/>
			</g>
			<g id="shape1111-395" transform="translate(27,559.556)">
				<title>Sheet.1111</title>
			</g>
			<g id="shape1108-397">
				<rect x="0" y="1726.2" width="81" height="37.8" class="st1"/>
				<text x="12.67" y="1741.5" class="st3">Cloud Auth<tspan x="19.24" dy="1.2em" class="st4">provider</tspan></text>			</g>
		</g>
		<g id="group1113-401" transform="translate(348.178,-1110.6)">
			<title>Object lifeline.1113</title>
			<desc>Kerberos provider</desc>
			<g id="shape1114-402" transform="translate(13.5,-6.3)">
				<title>Sheet.1114</title>
				<rect x="0" y="1738.8" width="54" height="25.2" class="st1"/>
			</g>
			<g id="shape1115-404" transform="translate(31.5,-41.4)">
				<title>Sheet.1115</title>
				<path d="M9 1764 a0 0 0 1 1 0 0 a0 0 0 1 1 0 0 Z" class="st1"/>
			</g>
			<g id="shape1116-406" transform="translate(27,559.556)">
				<title>Sheet.1116</title>
			</g>
			<g id="shape1113-408">
				<rect x="0" y="1726.2" width="81" height="37.8" class="st1"/>
				<text x="18.07" y="1741.5" class="st3">Kerberos<tspan x="19.24" dy="1.2em" class="st4">provider</tspan></text>			</g>
		</g>
	</g>
</svg>
