<?xml version="1.0" encoding="UTF-8" standalone="no"?>
<!DOCTYPE svg PUBLIC "-//W3C//DTD SVG 1.1//EN" "http://www.w3.org/Graphics/SVG/1.1/DTD/svg11.dtd">
<!-- Generated by Microsoft Visio, SVG Export auth-hybrid-entra-join-ckt.svg HAADJ-Auth-KeyTrust (2) -->
<svg xmlns="http://www.w3.org/2000/svg" xmlns:xlink="http://www.w3.org/1999/xlink" xmlns:ev="http://www.w3.org/2001/xml-events"
		width="11in" height="8.5in" viewBox="0 0 792 612" xml:space="preserve" color-interpolation-filters="sRGB" class="st17">
	<style type="text/css">
	<![CDATA[
		.st1 {fill:#ffffff;stroke:#e9eff7;stroke-width:0.75}
		.st2 {stroke:#5b9bd5;stroke-dasharray:7,5;stroke-linecap:round;stroke-linejoin:round;stroke-width:1}
		.st3 {fill:#5b9bd5;font-family:Calibri;font-size:1.00001em;font-weight:bold}
		.st4 {font-size:1em}
		.st5 {marker-end:url(#mrkr4-102);stroke:#5b9bd5;stroke-linecap:round;stroke-linejoin:round;stroke-width:1}
		.st6 {fill:#5b9bd5;fill-opacity:1;stroke:#5b9bd5;stroke-opacity:1;stroke-width:0.23584905660377}
		.st7 {fill:#ffffff;stroke:none;stroke-linecap:butt;stroke-width:7.2}
		.st8 {fill:#4f87bb;font-family:Calibri;font-size:0.833336em}
		.st9 {marker-end:url(#mrkr3-110);stroke:#5b9bd5;stroke-dasharray:7,5;stroke-linecap:round;stroke-linejoin:round;stroke-width:1}
		.st10 {marker-end:url(#mrkr4-139);stroke:#ed7d31;stroke-linecap:round;stroke-linejoin:round;stroke-width:1}
		.st11 {fill:#ed7d31;fill-opacity:1;stroke:#ed7d31;stroke-opacity:1;stroke-width:0.23584905660377}
		.st12 {fill:#d06d29;font-family:Calibri;font-size:0.833336em}
		.st13 {marker-end:url(#mrkr3-154);stroke:#ed7d31;stroke-dasharray:7,5;stroke-linecap:round;stroke-linejoin:round;stroke-width:1}
		.st14 {fill:#ffffff;stroke:none;stroke-linecap:butt}
		.st15 {fill:#002060;stroke:none;stroke-width:0.75}
		.st16 {fill:#ffffff;font-family:Calibri;font-size:1.16666em;font-weight:bold}
		.st17 {fill:none;fill-rule:evenodd;font-size:12px;overflow:visible;stroke-linecap:square;stroke-miterlimit:3}
	]]>
	</style>

	<defs id="Markers">
		<g id="lend4">
			<path d="M 2 1 L 0 0 L 2 -1 L 2 1 " style="stroke:none"/>
		</g>
		<marker id="mrkr4-102" class="st6" refX="-8.48" orient="auto" markerUnits="strokeWidth" overflow="visible">
			<use xlink:href="#lend4" transform="scale(-4.24,-4.24) "/>
		</marker>
		<g id="lend3">
			<path d="M 2 1 L 0 0 L 2 -1 " style="stroke-linecap:round;stroke-linejoin:round;fill:none"/>
		</g>
		<marker id="mrkr3-110" class="st6" orient="auto" markerUnits="strokeWidth" overflow="visible">
			<use xlink:href="#lend3" transform="scale(-4.24,-4.24) "/>
		</marker>
		<marker id="mrkr4-139" class="st11" refX="-8.48" orient="auto" markerUnits="strokeWidth" overflow="visible">
			<use xlink:href="#lend4" transform="scale(-4.24,-4.24) "/>
		</marker>
		<marker id="mrkr3-154" class="st11" orient="auto" markerUnits="strokeWidth" overflow="visible">
			<use xlink:href="#lend3" transform="scale(-4.24,-4.24) "/>
		</marker>
	</defs>
	<g>
		<title>auth-hybrid-entra-join-ckt</title>
		<g id="group1005-1" transform="translate(677.212,-555.056)">
			<title>Object lifeline.1005</title>
			<desc>Domain Controller</desc>
			<g id="shape1006-2" transform="translate(13.5,-6.3)">
				<title>Sheet.1006</title>
				<rect x="0" y="586.8" width="54" height="25.2" class="st1"/>
			</g>
			<g id="shape1007-4" transform="translate(31.5,-41.4)">
				<title>Sheet.1007</title>
				<path d="M9 612 a0 0 0 1 1 0 0 a0 0 0 1 1 0 0 Z" class="st1"/>
			</g>
			<g id="shape1008-6" transform="translate(27,559.556)">
				<title>Sheet.1008</title>
			</g>
			<g id="shape1009-8" transform="translate(652.5,612) rotate(90)">
				<title>Sheet.1009</title>
				<path d="M0 612 L537.06 612" class="st2"/>
			</g>
			<g id="shape1005-11">
				<rect x="0" y="574.2" width="81" height="37.8" class="st1"/>
				<text x="20.96" y="589.5" class="st3">Domain <tspan x="15.34" dy="1.2em" class="st4">Controller</tspan></text>			</g>
		</g>
		<g id="group1015-15" transform="translate(19.1441,-555.056)">
			<title>Object lifeline.1015</title>
			<desc>Winlogon</desc>
			<g id="shape1016-16" transform="translate(13.5,-6.3)">
				<title>Sheet.1016</title>
				<rect x="0" y="586.8" width="54" height="25.2" class="st1"/>
			</g>
			<g id="shape1017-18" transform="translate(31.5,-41.4)">
				<title>Sheet.1017</title>
				<path d="M9 612 a0 0 0 1 1 0 0 a0 0 0 1 1 0 0 Z" class="st1"/>
			</g>
			<g id="shape1018-20" transform="translate(27,559.556)">
				<title>Sheet.1018</title>
			</g>
			<g id="shape1019-22" transform="translate(652.5,612) rotate(90)">
				<title>Sheet.1019</title>
				<path d="M0 612 L537.06 612" class="st2"/>
			</g>
			<g id="shape1015-25">
				<rect x="0" y="574.2" width="81" height="37.8" class="st1"/>
				<text x="16.38" y="596.7" class="st3">Winlogon</text>			</g>
		</g>
		<g id="group1020-28" transform="translate(567.534,-555.056)">
			<title>Object lifeline.1020</title>
			<desc>Microsoft Entra ID</desc>
			<g id="shape1021-29" transform="translate(13.5,-6.3)">
				<title>Sheet.1021</title>
				<rect x="0" y="586.8" width="54" height="25.2" class="st1"/>
			</g>
			<g id="shape1022-31" transform="translate(31.5,-41.4)">
				<title>Sheet.1022</title>
				<path d="M9 612 a0 0 0 1 1 0 0 a0 0 0 1 1 0 0 Z" class="st1"/>
			</g>
			<g id="shape1023-33" transform="translate(27,559.556)">
				<title>Sheet.1023</title>
			</g>
			<g id="shape1024-35" transform="translate(652.5,612) rotate(90)">
				<title>Sheet.1024</title>
				<path d="M0 612 L537.06 612" class="st2"/>
			</g>
			<g id="shape1020-38">
				<rect x="0" y="574.2" width="81" height="37.8" class="st1"/>
				<text x="16.32" y="589.5" class="st3">Microsoft <tspan x="20.44" dy="1.2em" class="st4">Entra ID</tspan></text>			</g>
		</g>
		<g id="group1025-42" transform="translate(128.822,-555.056)">
			<title>Object lifeline.1025</title>
			<desc>LSA</desc>
			<g id="shape1026-43" transform="translate(13.5,-6.3)">
				<title>Sheet.1026</title>
				<rect x="0" y="586.8" width="54" height="25.2" class="st1"/>
			</g>
			<g id="shape1027-45" transform="translate(31.5,-41.4)">
				<title>Sheet.1027</title>
				<path d="M9 612 a0 0 0 1 1 0 0 a0 0 0 1 1 0 0 Z" class="st1"/>
			</g>
			<g id="shape1028-47" transform="translate(27,559.556)">
				<title>Sheet.1028</title>
			</g>
			<g id="shape1029-49" transform="translate(652.5,612) rotate(90)">
				<title>Sheet.1029</title>
				<path d="M0 612 L537.06 612" class="st2"/>
			</g>
			<g id="shape1025-52">
				<rect x="0" y="574.2" width="81" height="37.8" class="st1"/>
				<text x="31.49" y="596.7" class="st3">LSA</text>			</g>
		</g>
		<g id="group1030-55" transform="translate(238.5,-555.056)">
			<title>Object lifeline.1030</title>
			<desc>Credential Provider</desc>
			<g id="shape1031-56" transform="translate(13.5,-6.3)">
				<title>Sheet.1031</title>
				<rect x="0" y="586.8" width="54" height="25.2" class="st1"/>
			</g>
			<g id="shape1032-58" transform="translate(31.5,-41.4)">
				<title>Sheet.1032</title>
				<path d="M9 612 a0 0 0 1 1 0 0 a0 0 0 1 1 0 0 Z" class="st1"/>
			</g>
			<g id="shape1033-60" transform="translate(27,559.556)">
				<title>Sheet.1033</title>
			</g>
			<g id="shape1034-62" transform="translate(652.5,612) rotate(90)">
				<title>Sheet.1034</title>
				<path d="M0 612 L537.06 612" class="st2"/>
			</g>
			<g id="shape1030-65">
				<rect x="0" y="574.2" width="81" height="37.8" class="st1"/>
				<text x="14.72" y="589.5" class="st3">Credential<tspan x="19.26" dy="1.2em" class="st4">Provider</tspan></text>			</g>
		</g>
		<g id="group1035-69" transform="translate(457.856,-555.056)">
			<title>Object lifeline.1035</title>
			<desc>Cloud Auth provider</desc>
			<g id="shape1036-70" transform="translate(13.5,-6.3)">
				<title>Sheet.1036</title>
				<rect x="0" y="586.8" width="54" height="25.2" class="st1"/>
			</g>
			<g id="shape1037-72" transform="translate(31.5,-41.4)">
				<title>Sheet.1037</title>
				<path d="M9 612 a0 0 0 1 1 0 0 a0 0 0 1 1 0 0 Z" class="st1"/>
			</g>
			<g id="shape1038-74" transform="translate(27,559.556)">
				<title>Sheet.1038</title>
			</g>
			<g id="shape1039-76" transform="translate(652.5,612) rotate(90)">
				<title>Sheet.1039</title>
				<path d="M0 612 L537.06 612" class="st2"/>
			</g>
			<g id="shape1035-79">
				<rect x="0" y="574.2" width="81" height="37.8" class="st1"/>
				<text x="12.67" y="589.5" class="st3">Cloud Auth<tspan x="19.24" dy="1.2em" class="st4">provider</tspan></text>			</g>
		</g>
		<g id="group1040-83" transform="translate(348.178,-555.056)">
			<title>Object lifeline.1040</title>
			<desc>Kerberos provider</desc>
			<g id="shape1041-84" transform="translate(13.5,-6.3)">
				<title>Sheet.1041</title>
				<rect x="0" y="586.8" width="54" height="25.2" class="st1"/>
			</g>
			<g id="shape1042-86" transform="translate(31.5,-41.4)">
				<title>Sheet.1042</title>
				<path d="M9 612 a0 0 0 1 1 0 0 a0 0 0 1 1 0 0 Z" class="st1"/>
			</g>
			<g id="shape1043-88" transform="translate(27,559.556)">
				<title>Sheet.1043</title>
			</g>
			<g id="shape1044-90" transform="translate(652.5,612) rotate(90)">
				<title>Sheet.1044</title>
				<path d="M0 612 L537.06 612" class="st2"/>
			</g>
			<g id="shape1040-93">
				<rect x="0" y="574.2" width="81" height="37.8" class="st1"/>
				<text x="18.07" y="589.5" class="st3">Kerberos<tspan x="19.24" dy="1.2em" class="st4">provider</tspan></text>			</g>
		</g>
		<g id="shape1045-97" transform="translate(270,-537.056)">
			<title>Self Message.1020</title>
			<desc>User provides gesture</desc>
			<path d="M9 612 L27 612 L27 630 L17.48 630" class="st5"/>
			<rect x="32.0321" y="616.556" width="88.936" height="12.0001" class="st7"/>
			<text x="32.03" y="625.56" class="st8">User provides gesture</text>		</g>
		<g id="shape1047-105" transform="translate(279,-510.056)">
			<title>Return Message.1028</title>
			<desc>Collected Credentials</desc>
			<path d="M0 603 L-219.36 603" class="st9"/>
			<rect x="-117.64" y="596.306" width="86.1584" height="12.0001" class="st7"/>
			<text x="-117.64" y="605.31" class="st8">Collected Credentials</text>		</g>
		<g id="shape1048-113" transform="translate(59.6441,-492.056)">
			<title>Message.1029</title>
			<desc>Collected Credentials</desc>
			<path d="M0 603 L101.2 603" class="st5"/>
			<rect x="11.7599" y="597" width="86.1584" height="12.0001" class="st7"/>
			<text x="11.76" y="606" class="st8">Collected Credentials</text>		</g>
		<g id="shape1049-120" transform="translate(59.6441,-528.056)">
			<title>Message.1027</title>
			<desc>Show the WHFB Cred Prov</desc>
			<path d="M0 603 L210.88 603" class="st5"/>
			<rect x="13.9052" y="598.556" width="107.544" height="12.0001" class="st7"/>
			<text x="13.91" y="607.56" class="st8">Show the WHFB Cred Prov</text>		</g>
		<g id="shape1061-127" transform="translate(388.678,-160.136)">
			<title>Return Message.1061</title>
			<desc>TGT</desc>
			<path d="M0 603 L-219.36 603" class="st9"/>
			<rect x="-117.705" y="597" width="16.0546" height="12.0001" class="st7"/>
			<text x="-117.71" y="606" class="st8">TGT</text>		</g>
		<g id="shape1062-134" transform="translate(169.322,-492.056)">
			<title>Message.1062</title>
			<desc>Collected Credentials</desc>
			<path d="M0 603 L320.55 603" class="st10"/>
			<rect x="121.438" y="597" width="86.1584" height="12.0001" class="st7"/>
			<text x="121.44" y="606" class="st12">Collected Credentials</text>		</g>
		<g id="shape1063-142" transform="translate(498.356,-492.776)">
			<title>Message.1030</title>
			<desc>Request Nonce</desc>
			<path d="M0 603 L101.2 603" class="st10"/>
			<rect x="24.0404" y="597" width="61.5973" height="12.0001" class="st7"/>
			<text x="24.04" y="606" class="st12">Request Nonce</text>		</g>
		<g id="shape1064-149" transform="translate(608.034,-474.776)">
			<title>Return Message.1033</title>
			<desc>Nonce</desc>
			<path d="M0 603 L-109.68 603" class="st13"/>
			<rect x="-67.9323" y="597" width="26.1867" height="12.0001" class="st7"/>
			<text x="-67.93" y="606" class="st12">Nonce</text>		</g>
		<g id="shape1065-157" transform="translate(608.034,-372.536)">
			<title>Return Message.1034</title>
			<desc>PRT w/Session key and Partial TGT</desc>
			<path d="M0 603 L-109.68 603" class="st13"/>
			<rect x="-86.1646" y="590.033" width="75.264" height="23.9999" class="st7"/>
			<text x="-86.16" y="599.03" class="st12">PRT w/Session key  <tspan x="-79.56" dy="1.2em" class="st4">and Partial TGT</tspan></text>		</g>
		<g id="shape1066-165" transform="translate(489.355,-468.655)">
			<title>Self Message.1066</title>
			<desc>Sign nonce WHFB privkey</desc>
			<path d="M9 612 L27 612 L27 630 L17.48 630" class="st10"/>
			<rect x="31.1334" y="610.556" width="57.0218" height="24.0002" class="st7"/>
			<text x="37.6" y="619.56" class="st12">Sign nonce <tspan x="31.13" dy="1.2em" class="st4">WHFB privkey</tspan></text>		</g>
		<g id="shape1067-173" transform="translate(498.356,-426.536)">
			<title>Message.1037</title>
			<desc>Signed Nonce</desc>
			<path d="M0 603 L101.2 603" class="st10"/>
			<rect x="27.0751" y="597" width="55.5279" height="12.0001" class="st7"/>
			<text x="27.08" y="606" class="st12">Signed Nonce</text>		</g>
		<g id="shape1068-180" transform="translate(599.034,-435.536)">
			<title>Self Message.1038</title>
			<desc>Validate signature WHFB pubkey</desc>
			<path d="M9 612 L27 612 L27 630 L17.48 630" class="st10"/>
			<rect x="30.1128" y="610.556" width="73.707" height="24.0002" class="st7"/>
			<text x="30.11" y="619.56" class="st12">Validate signature<tspan x="37.22" dy="1.2em" class="st4"> </tspan>WHFB pubkey</text>		</g>
		<g id="shape1069-188" transform="translate(599.034,-399.536)">
			<title>Self Message.1039</title>
			<desc>Validate Nonce</desc>
			<path d="M9 612 L27 612 L27 630 L17.48 630" class="st10"/>
			<rect x="31.5309" y="614.306" width="61.8709" height="12.0001" class="st7"/>
			<text x="31.53" y="623.31" class="st12">Validate Nonce</text>		</g>
		<g id="shape1070-195" transform="translate(489.356,-354.896)">
			<title>Self Message.1040</title>
			<desc>Decrypt Session key w/ Transport key</desc>
			<path d="M9 612 L27 612 L27 630 L17.48 630" class="st10"/>
			<rect x="32.7654" y="610.556" width="80.7575" height="24.0002" class="st7"/>
			<text x="32.77" y="619.56" class="st12">Decrypt Session key <tspan x="38.52" dy="1.2em" class="st4">w/ Transport key</tspan></text>		</g>
		<g id="shape1071-203" transform="translate(489.356,-318.896)">
			<title>Self Message.1041</title>
			<desc>Import Session Key to TPM</desc>
			<path d="M9 612 L27 612 L27 630 L17.48 630" class="st10"/>
			<rect x="34.4916" y="610.556" width="77.3053" height="24.0002" class="st7"/>
			<text x="34.49" y="619.56" class="st12">Import Session Key<tspan x="58.41" dy="1.2em" class="st4">to TPM</tspan></text>		</g>
		<g id="shape1072-211" transform="translate(498.359,-291.24)">
			<title>Return Message.1035</title>
			<desc>Partial TGT</desc>
			<path d="M0 603 L-329.03 603" class="st13"/>
			<rect x="-186.761" y="597" width="44.4875" height="12.0001" class="st7"/>
			<text x="-186.76" y="606" class="st12">Partial TGT</text>		</g>
		<g id="shape1074-218" transform="translate(50.6441,-151.136)">
			<title>Self Message.1043</title>
			<desc>Load User Desktop</desc>
			<path d="M9 612 L27 612 L27 630 L17.48 630" class="st5"/>
			<rect x="30.4588" y="616.556" width="76.2943" height="12.0001" class="st7"/>
			<text x="30.46" y="625.56" class="st8">Load User Desktop</text>		</g>
		<g id="shape1075-225" transform="translate(169.322,-160.136)">
			<title>Return Message.1075</title>
			<desc>Success</desc>
			<path d="M0 603 L-109.68 603" class="st9"/>
			<rect x="-70.391" y="597" width="31.1039" height="12.0001" class="st7"/>
			<text x="-70.39" y="606" class="st8">Success</text>		</g>
		<g id="shape1078-232" transform="translate(169.138,-271.796)">
			<title>Message.1021</title>
			<desc>Partial TGT</desc>
			<path d="M0 603 L210.88 603" class="st5"/>
			<rect x="43.0408" y="596.306" width="44.4875" height="12.0001" class="st7"/>
			<text x="43.04" y="605.31" class="st8">Partial TGT</text>		</g>
		<g id="shape1079-239" transform="translate(379.494,-280.796)">
			<title>Self Message.1036</title>
			<desc>Get domain hint from computer</desc>
			<path d="M9 612 L27 612 L27 630 L17.48 630" class="st5"/>
			<rect x="28.2406" y="608.306" width="66.163" height="24.0002" class="st7"/>
			<text x="28.24" y="617.31" class="st8">Get domain hint <tspan x="30.39" dy="1.2em" class="st4">from computer</tspan></text>		</g>
		<g id="shape1080-247" transform="translate(717.528,-217.796)">
			<title>Return Message.1051</title>
			<desc>return list of domain controlers</desc>
			<path d="M0 603 L-329.03 603" class="st9"/>
			<rect x="-201.841" y="591" width="74.6491" height="24.0002" class="st7"/>
			<text x="-189.77" y="600" class="st8">return list of <tspan x="-201.84" dy="1.2em" class="st4">domain controlers</tspan></text>		</g>
		<g id="shape1081-255" transform="translate(388.494,-235.796)">
			<title>Message.1060</title>
			<desc>DcLocator via DNS</desc>
			<path d="M0 603 L320.55 603" class="st5"/>
			<rect x="127.361" y="597" width="74.3118" height="12.0001" class="st14"/>
			<text x="127.36" y="606" class="st8">DcLocator via DNS</text>		</g>
		<g id="shape1082-262" transform="translate(717.712,-159.416)">
			<title>Return Message.1082</title>
			<desc>TGT</desc>
			<path d="M0 603 L-329.03 603" class="st9"/>
			<rect x="-172.544" y="597" width="16.0546" height="12.0001" class="st7"/>
			<text x="-172.54" y="606" class="st8">TGT</text>		</g>
		<g id="shape1083-269" transform="translate(387.723,-181.562)">
			<title>Message.1083</title>
			<desc>TGS_REQ w/ Partial TGT</desc>
			<path d="M0 603 L320.55 603" class="st5"/>
			<rect x="115.608" y="597" width="97.8176" height="12.0001" class="st7"/>
			<text x="115.61" y="606" class="st8">TGS_REQ w/ Partial TGT</text>		</g>
		<g id="shape1084-276" transform="translate(461.943,-449.161)">
			<title>State</title>
			<desc>B</desc>
			<path d="M0 602.16 A9.83896 9.83896 0 0 1 19.68 602.16 A9.83896 9.83896 0 1 1 0 602.16 Z" class="st15"/>
			<text x="5.92" y="606.36" class="st16">B</text>		</g>
		<g id="shape1087-279" transform="translate(461.943,-336.661)">
			<title>State.1087</title>
			<desc>D</desc>
			<path d="M0 602.16 A9.83896 9.83896 0 0 1 19.68 602.16 A9.83896 9.83896 0 1 1 0 602.16 Z" class="st15"/>
			<text x="5.43" y="606.36" class="st16">D</text>		</g>
		<g id="shape1088-282" transform="translate(579.661,-398.822)">
			<title>State.1088</title>
			<desc>C</desc>
			<path d="M0 602.16 A9.83896 9.83896 0 0 1 19.68 602.16 A9.83896 9.83896 0 1 1 0 602.16 Z" class="st15"/>
			<text x="6.13" y="606.36" class="st16">C</text>		</g>
		<g id="shape1089-285" transform="translate(358.322,-227.822)">
			<title>State.1089</title>
			<desc>E</desc>
			<path d="M0 602.16 A9.83896 9.83896 0 0 1 19.68 602.16 A9.83896 9.83896 0 1 1 0 602.16 Z" class="st15"/>
			<text x="6.42" y="606.36" class="st16">E</text>		</g>
		<g id="shape1090-288" transform="translate(29.8221,-508.5)">
			<title>State.1090</title>
			<desc>A</desc>
			<path d="M0 602.16 A9.83896 9.83896 0 0 1 19.68 602.16 A9.83896 9.83896 0 1 1 0 602.16 Z" class="st15"/>
			<text x="5.6" y="606.36" class="st16">A</text>		</g>
		<g id="group1126-291" transform="translate(677.212,-19.1441)">
			<title>Object lifeline.1126</title>
			<desc>Domain Controller</desc>
			<g id="shape1127-292" transform="translate(13.5,-6.3)">
				<title>Sheet.1127</title>
				<rect x="0" y="586.8" width="54" height="25.2" class="st1"/>
			</g>
			<g id="shape1128-294" transform="translate(31.5,-41.4)">
				<title>Sheet.1128</title>
				<path d="M9 612 a0 0 0 1 1 0 0 a0 0 0 1 1 0 0 Z" class="st1"/>
			</g>
			<g id="shape1129-296" transform="translate(27,559.556)">
				<title>Sheet.1129</title>
			</g>
			<g id="shape1126-298">
				<rect x="0" y="574.2" width="81" height="37.8" class="st1"/>
				<text x="20.96" y="589.5" class="st3">Domain <tspan x="15.34" dy="1.2em" class="st4">Controller</tspan></text>			</g>
		</g>
		<g id="group1131-302" transform="translate(19.1441,-19.1441)">
			<title>Object lifeline.1131</title>
			<desc>Winlogon</desc>
			<g id="shape1132-303" transform="translate(13.5,-6.3)">
				<title>Sheet.1132</title>
				<rect x="0" y="586.8" width="54" height="25.2" class="st1"/>
			</g>
			<g id="shape1133-305" transform="translate(31.5,-41.4)">
				<title>Sheet.1133</title>
				<path d="M9 612 a0 0 0 1 1 0 0 a0 0 0 1 1 0 0 Z" class="st1"/>
			</g>
			<g id="shape1134-307" transform="translate(27,559.556)">
				<title>Sheet.1134</title>
			</g>
			<g id="shape1131-309">
				<rect x="0" y="574.2" width="81" height="37.8" class="st1"/>
				<text x="16.38" y="596.7" class="st3">Winlogon</text>			</g>
		</g>
		<g id="group1136-312" transform="translate(567.534,-19.1441)">
			<title>Object lifeline.1136</title>
			<desc>Microsoft Entra ID</desc>
			<g id="shape1137-313" transform="translate(13.5,-6.3)">
				<title>Sheet.1137</title>
				<rect x="0" y="586.8" width="54" height="25.2" class="st1"/>
			</g>
			<g id="shape1138-315" transform="translate(31.5,-41.4)">
				<title>Sheet.1138</title>
				<path d="M9 612 a0 0 0 1 1 0 0 a0 0 0 1 1 0 0 Z" class="st1"/>
			</g>
			<g id="shape1139-317" transform="translate(27,559.556)">
				<title>Sheet.1139</title>
			</g>
			<g id="shape1136-319">
				<rect x="0" y="574.2" width="81" height="37.8" class="st1"/>
				<text x="16.32" y="589.5" class="st3">Microsoft <tspan x="20.44" dy="1.2em" class="st4">Entra ID</tspan></text>			</g>
		</g>
		<g id="group1141-323" transform="translate(128.822,-19.1441)">
			<title>Object lifeline.1141</title>
			<desc>LSA</desc>
			<g id="shape1142-324" transform="translate(13.5,-6.3)">
				<title>Sheet.1142</title>
				<rect x="0" y="586.8" width="54" height="25.2" class="st1"/>
			</g>
			<g id="shape1143-326" transform="translate(31.5,-41.4)">
				<title>Sheet.1143</title>
				<path d="M9 612 a0 0 0 1 1 0 0 a0 0 0 1 1 0 0 Z" class="st1"/>
			</g>
			<g id="shape1144-328" transform="translate(27,559.556)">
				<title>Sheet.1144</title>
			</g>
			<g id="shape1141-330">
				<rect x="0" y="574.2" width="81" height="37.8" class="st1"/>
				<text x="31.49" y="596.7" class="st3">LSA</text>			</g>
		</g>
		<g id="group1146-333" transform="translate(238.5,-19.1441)">
			<title>Object lifeline.1146</title>
			<desc>Credential Provider</desc>
			<g id="shape1147-334" transform="translate(13.5,-6.3)">
				<title>Sheet.1147</title>
				<rect x="0" y="586.8" width="54" height="25.2" class="st1"/>
			</g>
			<g id="shape1148-336" transform="translate(31.5,-41.4)">
				<title>Sheet.1148</title>
				<path d="M9 612 a0 0 0 1 1 0 0 a0 0 0 1 1 0 0 Z" class="st1"/>
			</g>
			<g id="shape1149-338" transform="translate(27,559.556)">
				<title>Sheet.1149</title>
			</g>
			<g id="shape1146-340">
				<rect x="0" y="574.2" width="81" height="37.8" class="st1"/>
				<text x="14.72" y="589.5" class="st3">Credential<tspan x="19.26" dy="1.2em" class="st4">Provider</tspan></text>			</g>
		</g>
		<g id="group1151-344" transform="translate(457.856,-19.1441)">
			<title>Object lifeline.1151</title>
			<desc>Cloud Auth provider</desc>
			<g id="shape1152-345" transform="translate(13.5,-6.3)">
				<title>Sheet.1152</title>
				<rect x="0" y="586.8" width="54" height="25.2" class="st1"/>
			</g>
			<g id="shape1153-347" transform="translate(31.5,-41.4)">
				<title>Sheet.1153</title>
				<path d="M9 612 a0 0 0 1 1 0 0 a0 0 0 1 1 0 0 Z" class="st1"/>
			</g>
			<g id="shape1154-349" transform="translate(27,559.556)">
				<title>Sheet.1154</title>
			</g>
			<g id="shape1151-351">
				<rect x="0" y="574.2" width="81" height="37.8" class="st1"/>
				<text x="12.67" y="589.5" class="st3">Cloud Auth<tspan x="19.24" dy="1.2em" class="st4">provider</tspan></text>			</g>
		</g>
		<g id="group1156-355" transform="translate(348.178,-19.1441)">
			<title>Object lifeline.1156</title>
			<desc>Kerberos provider</desc>
			<g id="shape1157-356" transform="translate(13.5,-6.3)">
				<title>Sheet.1157</title>
				<rect x="0" y="586.8" width="54" height="25.2" class="st1"/>
			</g>
			<g id="shape1158-358" transform="translate(31.5,-41.4)">
				<title>Sheet.1158</title>
				<path d="M9 612 a0 0 0 1 1 0 0 a0 0 0 1 1 0 0 Z" class="st1"/>
			</g>
			<g id="shape1159-360" transform="translate(27,559.556)">
				<title>Sheet.1159</title>
			</g>
			<g id="shape1156-362">
				<rect x="0" y="574.2" width="81" height="37.8" class="st1"/>
				<text x="18.07" y="589.5" class="st3">Kerberos<tspan x="19.24" dy="1.2em" class="st4">provider</tspan></text>			</g>
		</g>
	</g>
</svg>
