<svg id="Titles" xmlns="http://www.w3.org/2000/svg" viewBox="0 0 64 64">
  <defs>
    <style>
      .cls-1, .cls-2, .cls-3 {
        fill: none;
      }

      .cls-1, .cls-3 {
        stroke: #000;
        stroke-miterlimit: 10;
        stroke-width: 2px;
      }

      .cls-3 {
        stroke-linecap: round;
      }
    </style>
  </defs>
  <title>pbi-exploring-data</title>
  <polyline class="cls-1" points="8 36 2 36 2 3 48 3 48 10"/>
  <rect class="cls-2" x="33" y="23" width="32" height="32"/>
  <g>
    <g>
      <rect class="cls-2" x="16" y="17" width="48" height="48"/>
      <rect class="cls-2" x="16" y="17" width="48" height="48"/>
      <rect class="cls-2" x="16" y="17" width="48" height="48"/>
    </g>
    <line class="cls-3" x1="36.42" y1="47.58" x2="21.36" y2="62.64"/>
    <path d="M29.72,42H9V11H53v9.05a17.88,17.88,0,0,1,2,.85V9H7V44H30.42A17.92,17.92,0,0,1,29.72,42Z"/>
    <path class="cls-1" d="M47,22A15,15,0,1,0,62,37,15,15,0,0,0,47,22Z"/>
  </g>
  <rect x="12" y="27" width="4" height="14"/>
  <rect x="18" y="16" width="4" height="25"/>
  <rect x="24" y="20" width="4" height="21"/>
</svg>
