<svg xmlns="http://www.w3.org/2000/svg" viewBox="0 0 2048 2048">
  <path d="M441 1792q-63 0-120-25t-99-68-68-100-26-120V441q0-63 25-120t68-99 100-68 120-26h1038q63 0 120 25t99 68 68 100 26 120v368q-61-30-128-48V448q0-39-15-74t-41-61-62-42-74-15H448q-39 0-74 15t-61 41-42 62-15 74v1024q0 39 15 74t41 61 62 42 74 15h313q18 67 48 128H441zM576 640q-26 0-45-19t-19-45q0-26 19-45t45-19h768q26 0 45 19t19 45q0 26-19 45t-45 19H576zm0 384q-26 0-45-19t-19-45q0-26 19-45t45-19h438q-35 28-67 60t-59 68H576zm320 448q0-119 45-224t124-183 183-123 224-46q79 0 152 20t138 58 117 91 90 117 58 137 21 153q0 119-45 224t-124 183-183 123-224 46q-120 0-225-45t-183-123-123-183-45-225zm640 64h192q26 0 45-19t19-45q0-26-19-45t-45-19h-192v-192q0-26-19-45t-45-19q-26 0-45 19t-19 45v192h-192q-26 0-45 19t-19 45q0 26 19 45t45 19h192v192q0 26 19 45t45 19q26 0 45-19t19-45v-192z" />
</svg>