<svg width="14" height="18" viewBox="0 0 14 18" fill="none" xmlns="http://www.w3.org/2000/svg">
<path d="M7 10.875C7 11.6497 6.85026 12.3789 6.55078 13.0625C6.25781 13.7461 5.85742 14.3418 5.34961 14.8496C4.8418 15.3574 4.24609 15.7611 3.5625 16.0605C2.87891 16.3535 2.14974 16.5 1.375 16.5C1.20573 16.5 1.05924 16.4382 0.935547 16.3145C0.811849 16.1908 0.75 16.0443 0.75 15.875C0.75 15.7057 0.811849 15.5592 0.935547 15.4355C1.05924 15.3118 1.20573 15.25 1.375 15.25C1.98047 15.25 2.54688 15.1361 3.07422 14.9082C3.60807 14.6738 4.07031 14.3613 4.46094 13.9707C4.85807 13.5736 5.17057 13.1113 5.39844 12.584C5.63281 12.0501 5.75 11.4805 5.75 10.875C5.75 10.7057 5.81185 10.5592 5.93555 10.4355C6.05924 10.3118 6.20573 10.25 6.375 10.25C6.54427 10.25 6.69076 10.3118 6.81445 10.4355C6.93815 10.5592 7 10.7057 7 10.875ZM6.375 1.5C5.52214 1.5 4.71484 1.60417 3.95312 1.8125C3.19141 2.01432 2.42969 2.30078 1.66797 2.67188C1.5638 2.72396 1.46615 2.75 1.375 2.75C1.20573 2.75 1.05924 2.68815 0.935547 2.56445C0.811849 2.44076 0.75 2.29427 0.75 2.125C0.75 1.88411 0.860677 1.70182 1.08203 1.57812C1.45964 1.35677 1.86654 1.16471 2.30273 1.00195C2.73893 0.832682 3.1849 0.692708 3.64062 0.582031C4.10286 0.471354 4.5651 0.389974 5.02734 0.337891C5.49609 0.279297 5.94531 0.25 6.375 0.25C6.8112 0.25 7.26042 0.279297 7.72266 0.337891C8.1849 0.389974 8.64388 0.471354 9.09961 0.582031C9.56185 0.692708 10.0078 0.832682 10.4375 1.00195C10.8737 1.16471 11.2839 1.35677 11.668 1.57812C11.8893 1.70182 12 1.88086 12 2.11523C12 2.29102 11.9382 2.44076 11.8145 2.56445C11.6973 2.68815 11.5508 2.75 11.375 2.75C11.3099 2.75 11.2578 2.74674 11.2188 2.74023C11.1797 2.72721 11.1341 2.70443 11.082 2.67188C10.3333 2.28776 9.57161 1.99805 8.79688 1.80273C8.02865 1.60091 7.22135 1.5 6.375 1.5ZM6.375 2.75C7.10417 2.75 7.81706 2.8444 8.51367 3.0332C9.21029 3.22201 9.87109 3.50195 10.4961 3.87305C10.776 4.04232 11.056 4.23438 11.3359 4.44922C11.6224 4.66406 11.8926 4.89844 12.1465 5.15234C12.4004 5.40625 12.6348 5.67318 12.8496 5.95312C13.071 6.23307 13.2598 6.51953 13.416 6.8125C13.4681 6.91667 13.4941 7.01758 13.4941 7.11523C13.4941 7.29102 13.4323 7.44076 13.3086 7.56445C13.1849 7.68815 13.0384 7.75 12.8691 7.75C12.7454 7.75 12.6413 7.72396 12.5566 7.67188C12.472 7.61328 12.3971 7.53516 12.332 7.4375C12.2018 7.23568 12.0716 7.04036 11.9414 6.85156C11.8112 6.66276 11.6647 6.48047 11.502 6.30469C11.1764 5.9401 10.8184 5.61458 10.4277 5.32812C10.0371 5.04167 9.62044 4.80078 9.17773 4.60547C8.74154 4.41016 8.28581 4.26042 7.81055 4.15625C7.3418 4.05208 6.86328 4 6.375 4C5.58724 4 4.82552 4.13346 4.08984 4.40039C3.35417 4.66081 2.68034 5.03516 2.06836 5.52344C1.91862 5.64062 1.77865 5.76758 1.64844 5.9043C1.51823 6.03451 1.38477 6.16471 1.24805 6.29492C1.17643 6.36654 1.10482 6.41862 1.0332 6.45117C0.968099 6.48372 0.886719 6.5 0.789062 6.5C0.613281 6.5 0.463542 6.43815 0.339844 6.31445C0.222656 6.19076 0.164062 6.04427 0.164062 5.875C0.164062 5.79036 0.177083 5.71549 0.203125 5.65039C0.229167 5.58529 0.268229 5.52018 0.320312 5.45508C0.476562 5.25326 0.662109 5.05794 0.876953 4.86914C1.0918 4.68034 1.31641 4.5013 1.55078 4.33203C1.79167 4.16276 2.03581 4.00651 2.2832 3.86328C2.5306 3.72005 2.77148 3.5931 3.00586 3.48242C3.5332 3.23503 4.08008 3.05273 4.64648 2.93555C5.21289 2.81185 5.78906 2.75 6.375 2.75ZM6.375 5.25C7.14974 5.25 7.87891 5.39974 8.5625 5.69922C9.24609 5.99219 9.8418 6.39258 10.3496 6.90039C10.8574 7.4082 11.2578 8.00391 11.5508 8.6875C11.8503 9.37109 12 10.1003 12 10.875C12 11.487 11.9479 12.0957 11.8438 12.7012C11.7461 13.3001 11.5931 13.8861 11.3848 14.459C11.3001 14.6934 11.1927 14.9505 11.0625 15.2305C10.9388 15.5104 10.8021 15.7904 10.6523 16.0703C10.5026 16.3438 10.3431 16.6074 10.1738 16.8613C10.0046 17.1152 9.83854 17.3333 9.67578 17.5156C9.60417 17.5872 9.5293 17.6458 9.45117 17.6914C9.37956 17.7305 9.29167 17.75 9.1875 17.75C9.01823 17.75 8.87174 17.6914 8.74805 17.5742C8.62435 17.4505 8.5625 17.3008 8.5625 17.125C8.5625 16.9883 8.60807 16.8581 8.69922 16.7344C8.82292 16.5651 8.94336 16.3991 9.06055 16.2363C9.17773 16.0736 9.29167 15.901 9.40234 15.7188C9.85156 14.9831 10.1868 14.2083 10.4082 13.3945C10.6361 12.5742 10.75 11.7344 10.75 10.875C10.75 10.2695 10.6328 9.70312 10.3984 9.17578C10.1706 8.64193 9.85807 8.17969 9.46094 7.78906C9.07031 7.39193 8.60807 7.07943 8.07422 6.85156C7.54688 6.61719 6.98047 6.5 6.375 6.5C5.76953 6.5 5.19987 6.61719 4.66602 6.85156C4.13867 7.07943 3.67643 7.39193 3.2793 7.78906C2.88867 8.17969 2.57617 8.64193 2.3418 9.17578C2.11393 9.70312 2 10.2695 2 10.875C2 11.0443 1.93815 11.1908 1.81445 11.3145C1.69076 11.4382 1.54427 11.5 1.375 11.5C1.20573 11.5 1.05924 11.4382 0.935547 11.3145C0.811849 11.1908 0.75 11.0443 0.75 10.875C0.75 10.1003 0.896484 9.37109 1.18945 8.6875C1.48893 8.00391 1.89258 7.4082 2.40039 6.90039C2.9082 6.39258 3.50391 5.99219 4.1875 5.69922C4.87109 5.39974 5.60026 5.25 6.375 5.25ZM6.375 7.75C6.80469 7.75 7.20833 7.83464 7.58594 8.00391C7.96354 8.16667 8.29232 8.39128 8.57227 8.67773C8.85872 8.95768 9.08333 9.28646 9.24609 9.66406C9.41536 10.0417 9.5 10.4453 9.5 10.875C9.5 11.5456 9.41536 12.2064 9.24609 12.8574C9.08333 13.5085 8.8457 14.127 8.5332 14.7129C8.2207 15.2988 7.83984 15.8424 7.39062 16.3438C6.94141 16.8451 6.43359 17.278 5.86719 17.6426C5.8151 17.6751 5.76302 17.7012 5.71094 17.7207C5.65885 17.7402 5.59701 17.75 5.52539 17.75C5.34961 17.75 5.19987 17.6882 5.07617 17.5645C4.95898 17.4408 4.90039 17.2943 4.90039 17.125C4.90039 17.0078 4.92318 16.9102 4.96875 16.832C5.01432 16.7539 5.08268 16.679 5.17383 16.6074C5.34961 16.4642 5.52214 16.3307 5.69141 16.207C5.86719 16.0768 6.03646 15.9303 6.19922 15.7676C6.85677 15.1165 7.36133 14.3711 7.71289 13.5312C8.07096 12.6849 8.25 11.7995 8.25 10.875C8.25 10.6146 8.20117 10.3704 8.10352 10.1426C8.00586 9.91471 7.8724 9.71615 7.70312 9.54688C7.53385 9.3776 7.33529 9.24414 7.10742 9.14648C6.87956 9.04883 6.63542 9 6.375 9C6.11458 9 5.87044 9.04883 5.64258 9.14648C5.41471 9.24414 5.21615 9.3776 5.04688 9.54688C4.8776 9.71615 4.74414 9.91471 4.64648 10.1426C4.54883 10.3704 4.5 10.6146 4.5 10.875C4.5 11.3047 4.41862 11.7116 4.25586 12.0957C4.0931 12.4733 3.86849 12.8053 3.58203 13.0918C3.30208 13.3717 2.97005 13.5931 2.58594 13.7559C2.20833 13.9186 1.80469 14 1.375 14C1.20573 14 1.05924 13.9382 0.935547 13.8145C0.811849 13.6908 0.75 13.5443 0.75 13.375C0.75 13.2057 0.811849 13.0592 0.935547 12.9355C1.05924 12.8118 1.20573 12.75 1.375 12.75C1.63542 12.75 1.87956 12.7012 2.10742 12.6035C2.33529 12.5059 2.53385 12.3724 2.70312 12.2031C2.8724 12.0339 3.00586 11.8353 3.10352 11.6074C3.20117 11.3796 3.25 11.1354 3.25 10.875C3.25 10.4453 3.33138 10.0417 3.49414 9.66406C3.6569 9.28646 3.87826 8.95768 4.1582 8.67773C4.44466 8.39128 4.77669 8.16667 5.1543 8.00391C5.53841 7.83464 5.94531 7.75 6.375 7.75Z" fill="#0883D9"/>
</svg>
