<svg width="14" height="12" viewBox="0 0 14 12" fill="none" xmlns="http://www.w3.org/2000/svg">
<path d="M6.95117 11.3809C6.29362 11.3809 5.64258 11.2962 4.99805 11.127C4.36003 10.9577 3.7513 10.7168 3.17188 10.4043C2.59896 10.0853 2.06836 9.70117 1.58008 9.25195C1.0918 8.80273 0.678385 8.29492 0.339844 7.72852C0.229167 7.55924 0.173828 7.37695 0.173828 7.18164C0.173828 7.04492 0.19987 6.91471 0.251953 6.79102C0.304036 6.66732 0.375651 6.5599 0.466797 6.46875C0.564453 6.3776 0.671875 6.30599 0.789062 6.25391C0.91276 6.20182 1.04297 6.17578 1.17969 6.17578C1.36198 6.17578 1.52474 6.2181 1.66797 6.30273C1.8112 6.38737 1.9349 6.50456 2.03906 6.6543C2.65104 7.53971 3.36719 8.21354 4.1875 8.67578C5.01432 9.13802 5.97786 9.36914 7.07812 9.36914C8.11979 9.36914 9.05078 9.12826 9.87109 8.64648C10.6979 8.1582 11.401 7.49414 11.9805 6.6543C12.0781 6.51107 12.1921 6.39714 12.3223 6.3125C12.459 6.22135 12.6185 6.17578 12.8008 6.17578C13.0938 6.17578 13.3411 6.26693 13.543 6.44922C13.7448 6.63151 13.8457 6.87565 13.8457 7.18164C13.8457 7.2793 13.8327 7.37044 13.8066 7.45508C13.7806 7.5332 13.7415 7.61458 13.6895 7.69922C13.5332 7.98568 13.3444 8.2526 13.123 8.5C12.9082 8.7474 12.6836 8.98503 12.4492 9.21289C11.7005 9.92253 10.8542 10.4629 9.91016 10.834C8.96615 11.1986 7.97982 11.3809 6.95117 11.3809ZM4.95898 1.6543C4.95898 1.86914 4.91667 2.07422 4.83203 2.26953C4.7474 2.46484 4.63346 2.63737 4.49023 2.78711C4.34701 2.93034 4.17773 3.04427 3.98242 3.12891C3.79362 3.21354 3.58854 3.25586 3.36719 3.25586C3.14583 3.25586 2.9375 3.21354 2.74219 3.12891C2.55339 3.04427 2.38737 2.93034 2.24414 2.78711C2.10091 2.64388 1.98698 2.47786 1.90234 2.28906C1.81771 2.09375 1.77539 1.88542 1.77539 1.66406C1.77539 1.44271 1.81445 1.23438 1.89258 1.03906C1.97721 0.84375 2.09115 0.674479 2.23438 0.53125C2.3776 0.38151 2.54362 0.264323 2.73242 0.179688C2.92773 0.0950521 3.13607 0.0527344 3.35742 0.0527344C3.57878 0.0527344 3.78385 0.0950521 3.97266 0.179688C4.16797 0.264323 4.33724 0.38151 4.48047 0.53125C4.63021 0.674479 4.7474 0.84375 4.83203 1.03906C4.91667 1.22786 4.95898 1.43294 4.95898 1.6543ZM9.06055 1.6543C9.06055 1.43294 9.10286 1.22461 9.1875 1.0293C9.27214 0.833984 9.38607 0.664714 9.5293 0.521484C9.67253 0.378255 9.8418 0.264323 10.0371 0.179688C10.2324 0.0950521 10.4408 0.0527344 10.6621 0.0527344C10.8835 0.0527344 11.0885 0.0950521 11.2773 0.179688C11.4727 0.264323 11.6419 0.38151 11.7852 0.53125C11.9284 0.674479 12.0391 0.84375 12.1172 1.03906C12.2018 1.22786 12.2441 1.43294 12.2441 1.6543C12.2441 1.87565 12.2018 2.08398 12.1172 2.2793C12.0326 2.4681 11.9186 2.63737 11.7754 2.78711C11.6322 2.93034 11.4629 3.04427 11.2676 3.12891C11.0788 3.21354 10.8737 3.25586 10.6523 3.25586C10.431 3.25586 10.2227 3.21354 10.0273 3.12891C9.83854 3.04427 9.67253 2.93034 9.5293 2.78711C9.38607 2.63737 9.27214 2.4681 9.1875 2.2793C9.10286 2.08398 9.06055 1.87565 9.06055 1.6543Z" fill="#0883D9"/>
</svg>
