<svg width="20" height="15" viewBox="0 0 20 15" fill="none" xmlns="http://www.w3.org/2000/svg">
<path d="M10.0117 0.816406C10.9023 0.816406 11.793 0.941406 12.6836 1.19141C13.5742 1.43359 14.4141 1.78516 15.2031 2.24609C15.9922 2.70703 16.707 3.26562 17.3477 3.92188C17.9961 4.57031 18.5273 5.29687 18.9414 6.10156C18.9883 6.20312 19.0273 6.30469 19.0586 6.40625C19.0898 6.50781 19.1055 6.61328 19.1055 6.72266C19.1055 6.91797 19.0703 7.09766 19 7.26172C18.9297 7.41797 18.832 7.55469 18.707 7.67188C18.582 7.78125 18.4375 7.86719 18.2734 7.92969C18.1094 7.99219 17.9336 8.02344 17.7461 8.02344C17.5039 8.02344 17.2969 7.96094 17.125 7.83594C16.9531 7.70312 16.8047 7.54297 16.6797 7.35547C16.5781 7.19922 16.4805 7.04297 16.3867 6.88672C16.293 6.73047 16.1914 6.57812 16.082 6.42969C15.7305 5.95312 15.3242 5.52734 14.8633 5.15234C14.4102 4.77734 13.9219 4.46094 13.3984 4.20312C12.8828 3.9375 12.3359 3.73828 11.7578 3.60547C11.1875 3.46484 10.6055 3.39453 10.0117 3.39453C9.36328 3.39453 8.73047 3.47656 8.11328 3.64062C7.49609 3.79687 6.91016 4.02734 6.35547 4.33203C5.80859 4.63672 5.30078 5.00781 4.83203 5.44531C4.36328 5.875 3.95312 6.36328 3.60156 6.91016C3.54688 6.99609 3.5 7.07812 3.46094 7.15625C3.42188 7.22656 3.375 7.30469 3.32031 7.39062C3.20312 7.58594 3.04688 7.74219 2.85156 7.85938C2.65625 7.96875 2.44531 8.02344 2.21875 8.02344C2.03906 8.02344 1.87109 7.98828 1.71484 7.91797C1.55859 7.84766 1.42188 7.75391 1.30469 7.63672C1.1875 7.51953 1.09375 7.38281 1.02344 7.22656C0.953125 7.07031 0.917969 6.90234 0.917969 6.72266C0.917969 6.51172 0.972656 6.30469 1.08203 6.10156C1.53516 5.28125 2.07812 4.54687 2.71094 3.89844C3.35156 3.24219 4.05469 2.6875 4.82031 2.23438C5.59375 1.77344 6.41797 1.42188 7.29297 1.17969C8.16797 0.9375 9.07422 0.816406 10.0117 0.816406ZM10.0117 7.27344C10.5273 7.27344 11.0117 7.37109 11.4648 7.56641C11.918 7.76172 12.3125 8.03125 12.6484 8.375C12.9844 8.71094 13.25 9.10547 13.4453 9.55859C13.6406 10.0117 13.7383 10.4961 13.7383 11.0117C13.7383 11.5352 13.6367 12.0234 13.4336 12.4766C13.2383 12.9297 12.9688 13.3242 12.625 13.6602C12.2891 13.9961 11.8945 14.2617 11.4414 14.457C10.9883 14.6523 10.5039 14.75 9.98828 14.75C9.46484 14.75 8.97656 14.6523 8.52344 14.457C8.07812 14.2617 7.6875 13.9961 7.35156 13.6602C7.02344 13.3164 6.76172 12.918 6.56641 12.4648C6.37891 12.0039 6.28516 11.5156 6.28516 11C6.28516 10.4844 6.38281 10.0039 6.57812 9.55859C6.77344 9.10547 7.03906 8.71094 7.375 8.375C7.71875 8.03125 8.11328 7.76172 8.55859 7.56641C9.01172 7.37109 9.49609 7.27344 10.0117 7.27344Z" fill="#0883D9"/>
</svg>
