<svg width="20" height="20" viewBox="0 0 20 20" fill="none" xmlns="http://www.w3.org/2000/svg">
<path d="M16.3281 2.5C16.8164 2.5 17.2819 2.59766 17.7246 2.79297C18.1673 2.98828 18.5579 3.25521 18.8965 3.59375C19.235 3.93229 19.502 4.32292 19.6973 4.76562C19.8926 5.20833 19.9935 5.67708 20 6.17188V13.8281C20 14.3164 19.9023 14.7819 19.707 15.2246C19.5117 15.6673 19.2448 16.0579 18.9062 16.3965C18.5677 16.735 18.1771 17.002 17.7344 17.1973C17.2917 17.3926 16.8229 17.4935 16.3281 17.5H3.67188C3.18359 17.5 2.7181 17.4023 2.27539 17.207C1.83268 17.0117 1.44206 16.7448 1.10352 16.4062C0.764974 16.0677 0.498047 15.6771 0.302734 15.2344C0.107422 14.7917 0.00651042 14.3229 0 13.8281V6.17188C0 5.68359 0.0976562 5.2181 0.292969 4.77539C0.488281 4.33268 0.755208 3.94206 1.09375 3.60352C1.43229 3.26497 1.82292 2.99805 2.26562 2.80273C2.70833 2.60742 3.17708 2.50651 3.67188 2.5H16.3281ZM18.75 6.20117C18.75 5.87565 18.6849 5.56641 18.5547 5.27344C18.4245 4.98047 18.2454 4.72005 18.0176 4.49219C17.7897 4.26432 17.5293 4.08529 17.2363 3.95508C16.9434 3.82487 16.6309 3.75651 16.2988 3.75H3.70117C3.37565 3.75 3.06641 3.8151 2.77344 3.94531C2.48047 4.07552 2.22005 4.25456 1.99219 4.48242C1.76432 4.71029 1.58529 4.9707 1.45508 5.26367C1.32487 5.55664 1.25651 5.86914 1.25 6.20117V13.7988C1.25 14.1243 1.3151 14.4336 1.44531 14.7266C1.57552 15.0195 1.75456 15.2799 1.98242 15.5078C2.21029 15.7357 2.4707 15.9147 2.76367 16.0449C3.05664 16.1751 3.36914 16.2435 3.70117 16.25H16.2988C16.6243 16.25 16.9336 16.1849 17.2266 16.0547C17.5195 15.9245 17.7799 15.7454 18.0078 15.5176C18.2357 15.2897 18.4147 15.0293 18.5449 14.7363C18.6751 14.4434 18.7435 14.1309 18.75 13.7988V6.20117ZM14.375 6.25C14.6289 6.25 14.8698 6.29883 15.0977 6.39648C15.3255 6.49414 15.5241 6.6276 15.6934 6.79688C15.8626 6.96615 15.9993 7.16797 16.1035 7.40234C16.2077 7.63672 16.2565 7.8776 16.25 8.125V11.875C16.25 12.1289 16.2012 12.3698 16.1035 12.5977C16.0059 12.8255 15.8724 13.0241 15.7031 13.1934C15.5339 13.3626 15.332 13.4993 15.0977 13.6035C14.8633 13.7077 14.6224 13.7565 14.375 13.75H10.625C10.3711 13.75 10.1302 13.7012 9.90234 13.6035C9.67448 13.5059 9.47591 13.3724 9.30664 13.2031C9.13737 13.0339 9.00065 12.832 8.89648 12.5977C8.79232 12.3633 8.74349 12.1224 8.75 11.875V8.125C8.75 7.87109 8.79883 7.63021 8.89648 7.40234C8.99414 7.17448 9.1276 6.97591 9.29688 6.80664C9.46615 6.63737 9.66797 6.50065 9.90234 6.39648C10.1367 6.29232 10.3776 6.24349 10.625 6.25H14.375ZM10.625 7.5C10.4557 7.5 10.3092 7.56185 10.1855 7.68555C10.0618 7.80924 10 7.95573 10 8.125V8.75H15V8.125C15 7.95573 14.9382 7.80924 14.8145 7.68555C14.6908 7.56185 14.5443 7.5 14.375 7.5H10.625ZM10 11.875C10 12.0443 10.0618 12.1908 10.1855 12.3145C10.3092 12.4382 10.4557 12.5 10.625 12.5H11.25V10H10V11.875ZM14.375 12.5C14.5443 12.5 14.6908 12.4382 14.8145 12.3145C14.9382 12.1908 15 12.0443 15 11.875V10H12.5V12.5H14.375Z" fill="#0883D9"/>
</svg>
