<svg width="20" height="20" viewBox="0 0 20 20" fill="none" xmlns="http://www.w3.org/2000/svg">
<g clip-path="url(#clip0_49_3935)">
<g clip-path="url(#clip1_49_3935)">
<path d="M18.8399 9.1783L15.2316 5.19317C15.1191 5.07028 14.9745 5.00006 14.8137 5.00006H5.17828C5.02559 5.00006 4.8729 5.07028 4.76039 5.19317L1.16016 9.1783H18.8399Z" fill="#E1E3E6"/>
<path opacity="0.5" d="M18.8399 9.1783L15.2316 5.19317C15.1191 5.07028 14.9745 5.00006 14.8137 5.00006H5.17828C5.02559 5.00006 4.8729 5.07028 4.76039 5.19317L1.16016 9.1783H18.8399Z" fill="url(#paint0_linear_49_3935)"/>
<path opacity="0.5" d="M1.16016 9.1783L4.76679 5.19317C4.87925 5.07028 5.02383 5.00006 5.18448 5.00006H14.8156C14.9682 5.00006 15.1208 5.07028 15.2333 5.19317L18.8399 9.1783H1.16016Z" fill="url(#paint1_linear_49_3935)"/>
<path d="M18.4431 15H1.56476C1.25011 15 1 14.7309 1 14.3922V9.60785C1 9.26921 1.25011 9.00003 1.56476 9.00003H18.4351C18.7497 9.00003 18.9998 9.26921 18.9998 9.60785V14.3922C19.0079 14.7222 18.7497 15 18.4431 15Z" fill="url(#paint2_linear_49_3935)"/>
<path opacity="0.6" d="M18.4431 15H1.56476C1.25011 15 1 14.7309 1 14.3922V9.60785C1 9.26921 1.25011 9.00003 1.56476 9.00003H18.4351C18.7497 9.00003 18.9998 9.26921 18.9998 9.60785V14.3922C19.0079 14.7222 18.7497 15 18.4431 15Z" fill="url(#paint3_linear_49_3935)"/>
<path opacity="0.6" d="M1.56477 15H18.4352C18.7499 15 19 14.7309 19 14.3922V9.60785C19 9.26921 18.7499 9.00003 18.4352 9.00003H1.56477C1.25011 9.00003 1 9.26921 1 9.60785V14.3922C1 14.7222 1.25818 15 1.56477 15Z" fill="url(#paint4_linear_49_3935)"/>
<path d="M17.4667 14H2.53333C2.23619 14 2 13.752 2 13.44V9.00003H18V13.44C18 13.752 17.7638 14 17.4667 14Z" fill="url(#paint5_linear_49_3935)"/>
<path d="M18.4375 9.07717C18.7107 9.07717 18.9277 9.3086 18.9277 9.60003V14.4C18.9277 14.6915 18.7107 14.9229 18.4375 14.9229H1.5625C1.28929 14.9229 1.07232 14.6915 1.07232 14.4V9.60003C1.07232 9.3086 1.28929 9.07717 1.5625 9.07717H18.4375ZM18.4375 9.00003H1.5625C1.24911 9.00003 1 9.26574 1 9.60003V14.4C1 14.7343 1.24911 15 1.5625 15H18.4375C18.7509 15 19 14.7343 19 14.4V9.60003C19 9.26574 18.7509 9.00003 18.4375 9.00003Z" fill="url(#paint6_linear_49_3935)"/>
<path opacity="0.15" d="M4.99972 12.0003C5.27602 11.7244 5.27627 11.2766 5.00028 11.0003C4.7243 10.724 4.27658 10.7238 4.00028 10.9998C3.72398 11.2758 3.72373 11.7235 3.99972 11.9998C4.2757 12.2761 4.72342 12.2763 4.99972 12.0003Z" stroke="#00FF00" stroke-width="0.522914" stroke-miterlimit="10"/>
<path opacity="0.3" d="M4.99972 12.0003C5.27602 11.7244 5.27627 11.2766 5.00028 11.0003C4.7243 10.724 4.27658 10.7238 4.00028 10.9998C3.72398 11.2758 3.72373 11.7235 3.99972 11.9998C4.2757 12.2761 4.72342 12.2763 4.99972 12.0003Z" stroke="#00FF00" stroke-width="0.261461" stroke-miterlimit="10"/>
<path d="M4.99972 12.0003C5.27602 11.7244 5.27627 11.2766 5.00028 11.0003C4.7243 10.724 4.27658 10.7238 4.00028 10.9998C3.72398 11.2758 3.72373 11.7235 3.99972 11.9998C4.2757 12.2761 4.72342 12.2763 4.99972 12.0003Z" fill="#00B300"/>
<path d="M4.3911 11.9616C4.77598 11.899 5.03555 11.5409 4.9729 11.1561C4.955 11.0755 4.92814 10.9949 4.89234 10.9233C4.74913 10.8249 4.57011 10.7801 4.38214 10.807C3.99726 10.8696 3.73769 11.2277 3.80034 11.6125C3.81824 11.6931 3.8451 11.7737 3.8809 11.8453C4.02411 11.9437 4.20313 11.9885 4.3911 11.9616Z" fill="url(#paint7_radial_49_3935)"/>
<path d="M4.99972 12.0003C5.27602 11.7244 5.27627 11.2766 5.00028 11.0003C4.7243 10.724 4.27658 10.7238 4.00028 10.9998C3.72398 11.2758 3.72373 11.7235 3.99972 11.9998C4.2757 12.2761 4.72342 12.2763 4.99972 12.0003Z" stroke="#00FF00" stroke-width="0.0894687" stroke-miterlimit="10"/>
</g>
</g>
<defs>
<linearGradient id="paint0_linear_49_3935" x1="13.9892" y1="4.95508" x2="14.6969" y2="4.35094" gradientUnits="userSpaceOnUse">
<stop stop-color="white" stop-opacity="0"/>
<stop offset="0.2836" stop-color="#DCDCDC" stop-opacity="0.1418"/>
<stop offset="0.9093" stop-color="#838383" stop-opacity="0.4546"/>
<stop offset="1" stop-color="#767676" stop-opacity="0.5"/>
</linearGradient>
<linearGradient id="paint1_linear_49_3935" x1="6.00862" y1="4.95507" x2="5.30105" y2="4.35125" gradientUnits="userSpaceOnUse">
<stop stop-color="white" stop-opacity="0"/>
<stop offset="0.2836" stop-color="#DCDCDC" stop-opacity="0.1418"/>
<stop offset="0.9093" stop-color="#838383" stop-opacity="0.4546"/>
<stop offset="1" stop-color="#767676" stop-opacity="0.5"/>
</linearGradient>
<linearGradient id="paint2_linear_49_3935" x1="10.0039" y1="14.9968" x2="10.0039" y2="8.9946" gradientUnits="userSpaceOnUse">
<stop stop-color="#ABABAB"/>
<stop offset="0.1971" stop-color="#A7A7A7"/>
<stop offset="0.3984" stop-color="#9B9B9B"/>
<stop offset="0.6016" stop-color="#868686"/>
<stop offset="0.8047" stop-color="#6A6A6A"/>
<stop offset="1" stop-color="#474747"/>
</linearGradient>
<linearGradient id="paint3_linear_49_3935" x1="7.39469" y1="9.18753" x2="6.70448" y2="8.54622" gradientUnits="userSpaceOnUse">
<stop stop-color="white" stop-opacity="0"/>
<stop offset="0.4506" stop-color="#BBBBBB" stop-opacity="0.2253"/>
<stop offset="0.8188" stop-color="#898989" stop-opacity="0.4094"/>
<stop offset="1" stop-color="#767676" stop-opacity="0.5"/>
</linearGradient>
<linearGradient id="paint4_linear_49_3935" x1="12.6133" y1="9.18753" x2="13.3035" y2="8.54621" gradientUnits="userSpaceOnUse">
<stop stop-color="white" stop-opacity="0"/>
<stop offset="0.4506" stop-color="#BBBBBB" stop-opacity="0.2253"/>
<stop offset="0.8188" stop-color="#898989" stop-opacity="0.4094"/>
<stop offset="1" stop-color="#767676" stop-opacity="0.5"/>
</linearGradient>
<linearGradient id="paint5_linear_49_3935" x1="10" y1="14" x2="10" y2="8.99894" gradientUnits="userSpaceOnUse">
<stop stop-color="#666666"/>
<stop offset="0.109" stop-color="#5E5E5E"/>
<stop offset="0.6917" stop-color="#393939"/>
<stop offset="1" stop-color="#2B2B2B"/>
</linearGradient>
<linearGradient id="paint6_linear_49_3935" x1="10" y1="15" x2="10" y2="9.00003" gradientUnits="userSpaceOnUse">
<stop stop-color="#C9C9C9"/>
<stop offset="0.3698" stop-color="#CDCDCD"/>
<stop offset="0.7464" stop-color="#D9D9D9"/>
<stop offset="1" stop-color="#E6E6E6"/>
</linearGradient>
<radialGradient id="paint7_radial_49_3935" cx="0" cy="0" r="1" gradientUnits="userSpaceOnUse" gradientTransform="translate(4.33069 11.589) rotate(-117.661) scale(0.94236 0.847944)">
<stop stop-color="#BDFFBD"/>
<stop offset="1" stop-color="#00FF00"/>
</radialGradient>
<clipPath id="clip0_49_3935">
<rect width="20" height="20" fill="white"/>
</clipPath>
<clipPath id="clip1_49_3935">
<rect width="20" height="20" fill="white"/>
</clipPath>
</defs>
</svg>
