<svg width="20" height="20" viewBox="0 0 20 20" fill="none" xmlns="http://www.w3.org/2000/svg">
<g clip-path="url(#clip0_49_4097)">
<g clip-path="url(#clip1_49_4097)">
<path d="M18.8399 9.1783L15.2316 5.19317C15.1191 5.07028 14.9745 5.00006 14.8137 5.00006H5.17828C5.02559 5.00006 4.8729 5.07028 4.76039 5.19317L1.16016 9.1783H18.8399Z" fill="#E1E3E6"/>
<path opacity="0.5" d="M18.8399 9.1783L15.2316 5.19317C15.1191 5.07028 14.9745 5.00006 14.8137 5.00006H5.17828C5.02559 5.00006 4.8729 5.07028 4.76039 5.19317L1.16016 9.1783H18.8399Z" fill="url(#paint0_linear_49_4097)"/>
<path opacity="0.5" d="M1.16016 9.1783L4.76679 5.19317C4.87925 5.07028 5.02383 5.00006 5.18448 5.00006H14.8156C14.9682 5.00006 15.1208 5.07028 15.2333 5.19317L18.8399 9.1783H1.16016Z" fill="url(#paint1_linear_49_4097)"/>
<path d="M18.4431 15H1.56476C1.25011 15 1 14.7309 1 14.3922V9.60785C1 9.26921 1.25011 9.00003 1.56476 9.00003H18.4351C18.7497 9.00003 18.9998 9.26921 18.9998 9.60785V14.3922C19.0079 14.7222 18.7497 15 18.4431 15Z" fill="url(#paint2_linear_49_4097)"/>
<path opacity="0.6" d="M18.4431 15H1.56476C1.25011 15 1 14.7309 1 14.3922V9.60785C1 9.26921 1.25011 9.00003 1.56476 9.00003H18.4351C18.7497 9.00003 18.9998 9.26921 18.9998 9.60785V14.3922C19.0079 14.7222 18.7497 15 18.4431 15Z" fill="url(#paint3_linear_49_4097)"/>
<path opacity="0.6" d="M1.56477 15H18.4352C18.7499 15 19 14.7309 19 14.3922V9.60785C19 9.26921 18.7499 9.00003 18.4352 9.00003H1.56477C1.25011 9.00003 1 9.26921 1 9.60785V14.3922C1 14.7222 1.25818 15 1.56477 15Z" fill="url(#paint4_linear_49_4097)"/>
<path d="M17.4667 14H2.53333C2.23619 14 2 13.752 2 13.44V9.00003H18V13.44C18 13.752 17.7638 14 17.4667 14Z" fill="url(#paint5_linear_49_4097)"/>
<path d="M18.4375 9.07717C18.7107 9.07717 18.9277 9.3086 18.9277 9.60003V14.4C18.9277 14.6915 18.7107 14.9229 18.4375 14.9229H1.5625C1.28929 14.9229 1.07232 14.6915 1.07232 14.4V9.60003C1.07232 9.3086 1.28929 9.07717 1.5625 9.07717H18.4375ZM18.4375 9.00003H1.5625C1.24911 9.00003 1 9.26574 1 9.60003V14.4C1 14.7343 1.24911 15 1.5625 15H18.4375C18.7509 15 19 14.7343 19 14.4V9.60003C19 9.26574 18.7509 9.00003 18.4375 9.00003Z" fill="url(#paint6_linear_49_4097)"/>
<path opacity="0.15" d="M4.99972 12.0003C5.27602 11.7244 5.27627 11.2766 5.00028 11.0003C4.7243 10.724 4.27658 10.7238 4.00028 10.9998C3.72398 11.2758 3.72373 11.7235 3.99972 11.9998C4.2757 12.2761 4.72342 12.2763 4.99972 12.0003Z" stroke="#00FF00" stroke-width="0.522914" stroke-miterlimit="10"/>
<path opacity="0.3" d="M4.99972 12.0003C5.27602 11.7244 5.27627 11.2766 5.00028 11.0003C4.7243 10.724 4.27658 10.7238 4.00028 10.9998C3.72398 11.2758 3.72373 11.7235 3.99972 11.9998C4.2757 12.2761 4.72342 12.2763 4.99972 12.0003Z" stroke="#00FF00" stroke-width="0.261461" stroke-miterlimit="10"/>
<path d="M4.99972 12.0003C5.27602 11.7244 5.27627 11.2766 5.00028 11.0003C4.7243 10.724 4.27658 10.7238 4.00028 10.9998C3.72398 11.2758 3.72373 11.7235 3.99972 11.9998C4.2757 12.2761 4.72342 12.2763 4.99972 12.0003Z" fill="#00B300"/>
<path d="M4.3911 11.9616C4.77598 11.899 5.03555 11.5409 4.9729 11.1561C4.955 11.0755 4.92814 10.9949 4.89234 10.9233C4.74913 10.8249 4.57011 10.7801 4.38214 10.807C3.99726 10.8696 3.73769 11.2277 3.80034 11.6125C3.81824 11.6931 3.8451 11.7737 3.8809 11.8453C4.02411 11.9437 4.20313 11.9885 4.3911 11.9616Z" fill="url(#paint7_radial_49_4097)"/>
<path d="M4.99972 12.0003C5.27602 11.7244 5.27627 11.2766 5.00028 11.0003C4.7243 10.724 4.27658 10.7238 4.00028 10.9998C3.72398 11.2758 3.72373 11.7235 3.99972 11.9998C4.2757 12.2761 4.72342 12.2763 4.99972 12.0003Z" stroke="#00FF00" stroke-width="0.0894687" stroke-miterlimit="10"/>
<path d="M8.00439 6C8.00439 5.44772 8.45211 5 9.00439 5H15.0044C15.5567 5 16.0044 5.44772 16.0044 6V11C16.0044 11.5523 15.5567 12 15.0044 12H9.00439C8.45211 12 8.00439 11.5523 8.00439 11V6Z" fill="#FFC225"/>
<g style="mix-blend-mode:overlay" opacity="0.5">
<path d="M10.5098 5.01077H8.50546C8.22872 5.01077 8.00438 5.23511 8.00438 5.51185V11.5248C8.00438 11.8015 8.22872 12.0259 8.50546 12.0259H10.5098V5.01077Z" fill="url(#paint8_linear_49_4097)" fill-opacity="0.5"/>
</g>
<g style="mix-blend-mode:overlay" opacity="0.5">
<path d="M16.0215 5.51185C16.0215 5.23511 15.7971 5.01077 15.5204 5.01077H8.50532C8.22858 5.01077 8.00424 5.23511 8.00424 5.51185V11.5248C8.00424 11.8015 8.22858 12.0259 8.50532 12.0259H15.5204C15.7971 12.0259 16.0215 11.8015 16.0215 11.5248V5.51185Z" fill="url(#paint9_linear_49_4097)" fill-opacity="0.5"/>
</g>
<path d="M10.0085 5.01077L10.0085 3.00646C10.0085 1.89951 10.9059 1.00215 12.0129 1.00215V1.00215C13.1198 1.00215 14.0172 1.89951 14.0172 3.00646V5.01077" stroke="#FFD400" stroke-width="1.5"/>
<g style="mix-blend-mode:overlay" opacity="0.25">
<path d="M8 5.99997H16V11H8V5.99997Z" fill="white"/>
</g>
<g style="mix-blend-mode:overlay" opacity="0.25">
<rect x="8" y="11" width="8" height="1" fill="black"/>
</g>
<g style="mix-blend-mode:overlay" opacity="0.25">
<rect x="8" y="9.99997" width="8" height="1" fill="white"/>
</g>
<g style="mix-blend-mode:overlay" opacity="0.25">
<rect x="8" y="4.99997" width="8" height="1" fill="black"/>
</g>
<g style="mix-blend-mode:overlay" opacity="0.25">
<rect x="8" y="5.99997" width="8" height="1" fill="white"/>
</g>
</g>
<path d="M12.2264 7.5C11.7002 7.50298 11.1967 7.71448 10.8262 8.08812C10.4557 8.46177 10.2485 8.96707 10.25 9.49325C10.2552 9.9027 10.3822 10.3013 10.6148 10.6383C10.8475 10.9753 11.1753 11.2353 11.5563 11.3851L13.009 11.3345C13.4254 11.1485 13.766 10.8261 13.9745 10.4204C14.1829 10.0148 14.2468 9.55019 14.1556 9.10333C14.0644 8.65648 13.8235 8.25408 13.4728 7.96259C13.122 7.67109 12.6824 7.50791 12.2264 7.5V7.5ZM12.2264 9.0991C12.1324 9.10022 12.0401 9.07328 11.9615 9.02174C11.8829 8.9702 11.8214 8.8964 11.7849 8.80975C11.7484 8.72309 11.7385 8.62753 11.7566 8.53526C11.7747 8.44299 11.8198 8.3582 11.8863 8.29172C11.9528 8.22524 12.0376 8.18008 12.1299 8.16201C12.2221 8.14394 12.3177 8.15378 12.4044 8.19027C12.491 8.22676 12.5648 8.28826 12.6164 8.36689C12.6679 8.44553 12.6948 8.53774 12.6937 8.63176C12.6937 8.75571 12.6445 8.87458 12.5568 8.96222C12.4692 9.04987 12.3503 9.0991 12.2264 9.0991V9.0991Z" fill="url(#paint10_linear_49_4097)"/>
<path d="M12.2264 7.5C11.7002 7.50298 11.1967 7.71448 10.8262 8.08812C10.4557 8.46177 10.2485 8.96707 10.25 9.49325C10.2552 9.9027 10.3822 10.3013 10.6148 10.6383C10.8475 10.9753 11.1753 11.2353 11.5563 11.3851L13.009 11.3345C13.4254 11.1485 13.766 10.8261 13.9745 10.4204C14.1829 10.0148 14.2468 9.55019 14.1556 9.10333C14.0644 8.65648 13.8235 8.25408 13.4728 7.96259C13.122 7.67109 12.6824 7.50791 12.2264 7.5V7.5ZM12.2264 9.07658C11.9842 9.07658 11.4156 8.87388 11.4156 8.63176C11.4156 8.38964 11.9786 8.18694 12.2264 8.18694C12.3443 8.18694 12.4575 8.2338 12.5409 8.31722C12.6243 8.40064 12.6712 8.51379 12.6712 8.63176C12.6712 8.74973 12.6243 8.86288 12.5409 8.9463C12.4575 9.02972 12.3443 9.07658 12.2264 9.07658V9.07658Z" fill="url(#paint11_linear_49_4097)"/>
<path d="M12.2263 7.83691C11.8611 7.86375 11.5144 8.00856 11.2387 8.24951C10.9629 8.49046 10.7729 8.81451 10.6973 9.17284C10.6217 9.53116 10.6646 9.90435 10.8195 10.2362C10.9744 10.568 11.233 10.8405 11.5562 11.0126V11.5757C11.5562 11.5757 11.5562 14.9822 11.5562 15.6128C11.697 15.7536 12.1193 16.0802 12.2882 16.2547C12.3727 16.1928 12.3502 16.0689 12.4909 15.6128C12.4395 15.4531 12.4018 15.2892 12.3783 15.123C12.3783 15.0836 12.3051 14.802 12.3051 14.7851C12.3415 14.6871 12.3661 14.585 12.3783 14.4811C12.3783 14.3572 12.4515 14.2277 12.4515 14.0982C12.4515 14.0982 12.4065 13.8786 12.4121 13.873C12.4177 13.8673 12.3783 13.6534 12.3783 13.6477C12.3783 12.9214 12.3783 12.2063 12.3783 11.7953C12.5979 11.7953 13.0089 11.8516 13.0089 11.6095V10.9563C13.3124 10.7672 13.5481 10.4868 13.6821 10.1552C13.816 9.82371 13.8413 9.45823 13.7543 9.11141C13.6673 8.7646 13.4724 8.45434 13.1978 8.22531C12.9233 7.99628 12.5831 7.86029 12.2263 7.83691V7.83691ZM12.2263 9.09818C12.1323 9.09929 12.0401 9.07236 11.9614 9.02082C11.8828 8.96928 11.8213 8.89547 11.7848 8.80882C11.7483 8.72217 11.7385 8.62661 11.7565 8.53434C11.7746 8.44207 11.8198 8.35728 11.8862 8.29079C11.9527 8.22431 12.0375 8.17915 12.1298 8.16108C12.2221 8.14301 12.3176 8.15285 12.4043 8.18935C12.4909 8.22584 12.5647 8.28733 12.6163 8.36597C12.6678 8.44461 12.6947 8.53682 12.6936 8.63084C12.6936 8.75478 12.6444 8.87365 12.5567 8.9613C12.4691 9.04894 12.3502 9.09818 12.2263 9.09818Z" fill="url(#paint12_linear_49_4097)"/>
<path d="M12.2263 7.83691C11.8611 7.86375 11.5144 8.00856 11.2387 8.24951C10.9629 8.49046 10.7729 8.81451 10.6973 9.17284C10.6217 9.53116 10.6646 9.90435 10.8195 10.2362C10.9744 10.568 11.233 10.8405 11.5562 11.0126V11.5757C11.5562 11.5757 11.5562 14.909 11.5562 15.5171" stroke="url(#paint13_linear_49_4097)" stroke-width="0.0337839" stroke-miterlimit="10"/>
<path d="M12.3049 16.2497C12.3894 16.1878 12.4457 16.0133 12.7441 15.6078C12.7441 15.5234 12.7441 15.1968 12.7441 14.966C12.6772 14.8814 12.6151 14.793 12.5583 14.7013C12.6143 14.6249 12.6745 14.5516 12.7385 14.4817C12.7385 14.3578 12.7385 14.2283 12.7385 14.0988C12.7385 14.0988 12.547 13.8792 12.5583 13.8736C12.5696 13.868 12.7385 13.654 12.7385 13.6484C12.7385 12.922 12.7385 12.2069 12.7385 11.7959H12.3049V16.2497Z" fill="#EBB850"/>
<path d="M11.7812 15.7993V11.7959H12.0403V16.0245L11.7812 15.7993Z" fill="#EBB850"/>
<path d="M11.7812 15.7993V11.7959H11.8939H12.0403L11.8939 11.9479V15.895L11.7812 15.7993Z" fill="url(#paint14_linear_49_4097)"/>
<path d="M12.3049 16.2497V11.7959H12.4119H12.7103L12.4119 11.9479V16.0977L12.3049 16.2497Z" fill="url(#paint15_linear_49_4097)"/>
<g style="mix-blend-mode:multiply" opacity="0.2">
<g style="mix-blend-mode:multiply" opacity="0.2">
<path d="M12.2264 7.51689C12.678 7.52524 13.1134 7.68718 13.4607 7.97605C13.808 8.26492 14.0465 8.66347 14.137 9.10605C14.2275 9.54863 14.1645 10.0088 13.9584 10.4108C13.7524 10.8128 13.4155 11.1326 13.0034 11.3176V11.3176V11.6047C13.0034 11.7061 12.9246 11.7624 12.75 11.7737C12.75 12.2297 12.75 12.8998 12.75 13.6149C12.75 13.6149 12.6487 13.7444 12.6092 13.7951C12.6072 13.8081 12.6072 13.8214 12.6092 13.8345C12.6473 13.8928 12.6906 13.9475 12.7387 13.9978L12.7894 14.0597V14.2117C12.7894 14.2849 12.7894 14.3581 12.7894 14.4313C12.7272 14.4992 12.6689 14.5707 12.6149 14.6453V14.6453C12.6656 14.7426 12.728 14.8334 12.8007 14.9156C12.8007 15.2703 12.8007 15.4786 12.8007 15.5462C12.6917 15.6899 12.5921 15.8403 12.5023 15.9967C12.4701 16.0515 12.4344 16.1042 12.3953 16.1543V16.1543H12.3615C12.2874 16.0762 12.2084 16.0028 12.125 15.9347V15.9347L11.8153 15.7883L11.6858 15.687L11.5732 15.5912C11.5732 15.3435 11.5732 14.7016 11.5732 14.0259C11.5732 13.6487 11.5732 13.2602 11.5732 12.8998V11.3739C11.1939 11.2247 10.8673 10.9664 10.6348 10.6317C10.4023 10.2969 10.2743 9.90077 10.2669 9.49325C10.2654 8.97155 10.4708 8.47054 10.8381 8.10007C11.2054 7.72959 11.7047 7.51987 12.2264 7.51689V7.51689ZM12.2264 7.51689C11.7031 7.51985 11.2021 7.72902 10.8321 8.09902C10.4621 8.46902 10.253 8.97 10.25 9.49325C10.2551 9.9027 10.3822 10.3013 10.6148 10.6383C10.8475 10.9753 11.1752 11.2353 11.5563 11.3851V12.9167C11.5563 13.9415 11.5563 15.2421 11.5563 15.6081C11.6014 15.6532 11.6914 15.7207 11.7815 15.7996L12.0405 16.0248C12.1419 16.1093 12.2264 16.1937 12.2883 16.2557C12.3728 16.1937 12.4291 16.0192 12.7275 15.6138C12.7275 15.5293 12.7275 15.2027 12.7275 14.9719C12.6605 14.8873 12.5985 14.7989 12.5417 14.7072C12.5977 14.6308 12.6579 14.5575 12.7219 14.4876C12.7219 14.3638 12.7219 14.2343 12.7219 14.1048C12.7219 14.1048 12.536 13.8852 12.5417 13.8795L12.7219 13.6543C12.7219 12.9336 12.7219 12.2185 12.7219 11.8074C12.8739 11.8074 12.9921 11.7511 12.9921 11.616V11.3345C13.4074 11.1492 13.7474 10.8282 13.9562 10.4242C14.165 10.0202 14.2302 9.55725 14.1412 9.1113C14.0521 8.66535 13.814 8.26294 13.4661 7.97013C13.1181 7.67733 12.681 7.51155 12.2264 7.5V7.51689Z" fill="black"/>
</g>
</g>
<path d="M13.0088 10.9678V11.3112C13.0881 11.2759 13.1636 11.2325 13.234 11.1817L13.0088 10.9678Z" fill="url(#paint16_linear_49_4097)"/>
<path d="M12.2263 8.01182C12.1034 8.00959 11.9825 8.044 11.8792 8.11069C11.7759 8.17737 11.6948 8.2733 11.6461 8.38626C11.5975 8.49922 11.5837 8.6241 11.6063 8.74497C11.6289 8.86585 11.687 8.97727 11.7731 9.06502C11.8593 9.15277 11.9696 9.21288 12.09 9.23771C12.2105 9.26254 12.3356 9.25095 12.4494 9.20442C12.5633 9.15789 12.6607 9.07852 12.7292 8.97644C12.7978 8.87435 12.8344 8.75417 12.8344 8.63119C12.8352 8.55059 12.82 8.47064 12.7899 8.39589C12.7597 8.32114 12.7151 8.25307 12.6587 8.19556C12.6022 8.13804 12.535 8.09221 12.4608 8.06069C12.3866 8.02916 12.3069 8.01256 12.2263 8.01182V8.01182ZM12.2263 9.07601C12.1368 9.07825 12.0486 9.05375 11.9731 9.00563C11.8975 8.95752 11.8381 8.88798 11.8022 8.80589C11.7664 8.7238 11.7559 8.6329 11.7719 8.54479C11.788 8.45668 11.83 8.37537 11.8926 8.31124C11.9551 8.24711 12.0353 8.20308 12.123 8.18477C12.2106 8.16645 12.3018 8.17469 12.3848 8.20843C12.4677 8.24217 12.5387 8.29987 12.5888 8.37417C12.6388 8.44847 12.6655 8.536 12.6655 8.62556C12.667 8.74258 12.6224 8.85549 12.5412 8.9398C12.4601 9.02412 12.349 9.07306 12.232 9.07601H12.2263Z" fill="url(#paint17_linear_49_4097)"/>
<g opacity="0.5">
<path opacity="0.5" d="M12.2264 8.10191C12.3313 8.1008 12.4342 8.13089 12.522 8.18836C12.6097 8.24584 12.6785 8.32811 12.7194 8.42472C12.7603 8.52133 12.7716 8.62792 12.7518 8.73096C12.732 8.834 12.6821 8.92883 12.6083 9.00342C12.5345 9.078 12.4402 9.12897 12.3374 9.14986C12.2346 9.17074 12.1278 9.16059 12.0308 9.1207C11.9338 9.08081 11.8508 9.01298 11.7924 8.92583C11.7339 8.83867 11.7028 8.73612 11.7027 8.6312C11.702 8.56196 11.715 8.49326 11.741 8.42907C11.767 8.36489 11.8054 8.3065 11.8541 8.25727C11.9028 8.20805 11.9608 8.16897 12.0247 8.14231C12.0886 8.11564 12.1572 8.10191 12.2264 8.10191V8.10191ZM12.2264 8.0625C12.115 8.0625 12.0062 8.09552 11.9136 8.15739C11.821 8.21926 11.7488 8.3072 11.7062 8.41009C11.6636 8.51298 11.6524 8.62619 11.6741 8.73541C11.6959 8.84464 11.7495 8.94497 11.8282 9.02371C11.907 9.10246 12.0073 9.15609 12.1165 9.17781C12.2258 9.19954 12.339 9.18839 12.4419 9.14577C12.5448 9.10315 12.6327 9.03098 12.6946 8.93839C12.7564 8.84579 12.7895 8.73693 12.7895 8.62557C12.7895 8.47623 12.7301 8.33301 12.6245 8.22742C12.5189 8.12182 12.3757 8.0625 12.2264 8.0625V8.0625Z" fill="url(#paint18_linear_49_4097)"/>
</g>
<path d="M11.6487 7.5C11.1226 7.50298 10.619 7.71448 10.2486 8.08812C9.87808 8.46177 9.67087 8.96707 9.67237 9.49325C9.67752 9.9027 9.80452 10.3013 10.0372 10.6383C10.2698 10.9753 10.5976 11.2353 10.9787 11.3851L12.4314 11.3345C12.8478 11.1485 13.1884 10.8261 13.3968 10.4204C13.6053 10.0148 13.6692 9.55019 13.578 9.10333C13.4868 8.65648 13.2459 8.25408 12.8951 7.96259C12.5444 7.67109 12.1047 7.50791 11.6487 7.5V7.5ZM11.6487 9.0991C11.5547 9.10022 11.4625 9.07328 11.3839 9.02174C11.3052 8.9702 11.2437 8.8964 11.2072 8.80975C11.1707 8.72309 11.1609 8.62753 11.179 8.53526C11.197 8.44299 11.2422 8.3582 11.3087 8.29172C11.3752 8.22524 11.46 8.18008 11.5522 8.16201C11.6445 8.14394 11.7401 8.15378 11.8267 8.19027C11.9134 8.22676 11.9872 8.28826 12.0387 8.36689C12.0903 8.44553 12.1172 8.53774 12.1161 8.63176C12.1161 8.75571 12.0668 8.87458 11.9792 8.96222C11.8915 9.04987 11.7727 9.0991 11.6487 9.0991V9.0991Z" fill="url(#paint19_linear_49_4097)"/>
<path d="M11.6487 7.5C11.1226 7.50298 10.619 7.71448 10.2486 8.08812C9.87808 8.46177 9.67087 8.96707 9.67237 9.49325C9.67752 9.9027 9.80452 10.3013 10.0372 10.6383C10.2698 10.9753 10.5976 11.2353 10.9787 11.3851L12.4314 11.3345C12.8478 11.1485 13.1884 10.8261 13.3968 10.4204C13.6053 10.0148 13.6692 9.55019 13.578 9.10333C13.4868 8.65648 13.2459 8.25408 12.8951 7.96259C12.5444 7.67109 12.1047 7.50791 11.6487 7.5V7.5ZM11.6487 9.07658C11.4066 9.07658 10.8379 8.87388 10.8379 8.63176C10.8379 8.38964 11.401 8.18694 11.6487 8.18694C11.7667 8.18694 11.8798 8.2338 11.9633 8.31722C12.0467 8.40064 12.0936 8.51379 12.0936 8.63176C12.0936 8.74973 12.0467 8.86288 11.9633 8.9463C11.8798 9.02972 11.7667 9.07658 11.6487 9.07658V9.07658Z" fill="url(#paint20_linear_49_4097)"/>
<path d="M11.6486 7.83691C11.2834 7.86375 10.9368 8.00856 10.661 8.24951C10.3853 8.49046 10.1952 8.81451 10.1196 9.17284C10.044 9.53116 10.0869 9.90435 10.2419 10.2362C10.3968 10.568 10.6553 10.8405 10.9786 11.0126V11.5757C10.9786 11.5757 10.9786 14.9822 10.9786 15.6128C11.1194 15.7536 11.5417 16.0802 11.7106 16.2547C11.795 16.1928 11.7725 16.0689 11.9133 15.6128C11.8619 15.4531 11.8242 15.2892 11.8007 15.123C11.8007 15.0836 11.7275 14.802 11.7275 14.7851C11.7639 14.6871 11.7885 14.585 11.8007 14.4811C11.8007 14.3572 11.8739 14.2277 11.8739 14.0982C11.8739 14.0982 11.8288 13.8786 11.8345 13.873C11.8401 13.8673 11.8007 13.6534 11.8007 13.6477C11.8007 12.9214 11.8007 12.2063 11.8007 11.7953C12.0203 11.7953 12.4313 11.8516 12.4313 11.6095V10.9563C12.7348 10.7672 12.9705 10.4868 13.1044 10.1552C13.2384 9.82371 13.2637 9.45823 13.1766 9.11141C13.0896 8.7646 12.8948 8.45434 12.6202 8.22531C12.3456 7.99628 12.0054 7.86029 11.6486 7.83691V7.83691ZM11.6486 9.09818C11.5546 9.09929 11.4624 9.07236 11.3838 9.02082C11.3051 8.96928 11.2437 8.89547 11.2072 8.80882C11.1707 8.72217 11.1608 8.62661 11.1789 8.53434C11.197 8.44207 11.2421 8.35728 11.3086 8.29079C11.3751 8.22431 11.4599 8.17915 11.5521 8.16108C11.6444 8.14301 11.74 8.15285 11.8266 8.18935C11.9133 8.22584 11.9871 8.28733 12.0386 8.36597C12.0902 8.44461 12.1171 8.53682 12.116 8.63084C12.116 8.75478 12.0668 8.87365 11.9791 8.9613C11.8915 9.04894 11.7726 9.09818 11.6486 9.09818Z" fill="url(#paint21_linear_49_4097)"/>
<path d="M11.6486 7.83691C11.2834 7.86375 10.9368 8.00856 10.661 8.24951C10.3853 8.49046 10.1952 8.81451 10.1196 9.17284C10.044 9.53116 10.0869 9.90435 10.2419 10.2362C10.3968 10.568 10.6553 10.8405 10.9786 11.0126V11.5757C10.9786 11.5757 10.9786 14.909 10.9786 15.5171" stroke="url(#paint22_linear_49_4097)" stroke-width="0.0337839" stroke-miterlimit="10"/>
<path d="M11.7273 16.2497C11.8118 16.1878 11.8681 16.0133 12.1665 15.6078C12.1665 15.5234 12.1665 15.1968 12.1665 14.966C12.0995 14.8814 12.0375 14.793 11.9807 14.7013C12.0367 14.6249 12.0969 14.5516 12.1609 14.4817C12.1609 14.3578 12.1609 14.2283 12.1609 14.0988C12.1609 14.0988 11.9694 13.8792 11.9807 13.8736C11.9919 13.868 12.1609 13.654 12.1609 13.6484C12.1609 12.922 12.1609 12.2069 12.1609 11.7959H11.7273V16.2497Z" fill="#EBB850"/>
<path d="M11.2036 15.7993V11.7959H11.4626V16.0245L11.2036 15.7993Z" fill="#EBB850"/>
<path d="M11.2036 15.7993V11.7959H11.3162H11.4626L11.3162 11.9479V15.895L11.2036 15.7993Z" fill="url(#paint23_linear_49_4097)"/>
<path d="M11.7273 16.2497V11.7959H11.8343H12.1327L11.8343 11.9479V16.0977L11.7273 16.2497Z" fill="url(#paint24_linear_49_4097)"/>
<g style="mix-blend-mode:multiply" opacity="0.2">
<g style="mix-blend-mode:multiply" opacity="0.2">
<path d="M11.6487 7.51689C12.1004 7.52524 12.5357 7.68718 12.883 7.97605C13.2303 8.26492 13.4689 8.66347 13.5593 9.10605C13.6498 9.54863 13.5869 10.0088 13.3808 10.4108C13.1747 10.8128 12.8379 11.1326 12.4258 11.3176V11.3176V11.6047C12.4258 11.7061 12.3469 11.7624 12.1724 11.7737C12.1724 12.2297 12.1724 12.8998 12.1724 13.6149C12.1724 13.6149 12.071 13.7444 12.0316 13.7951C12.0296 13.8081 12.0296 13.8214 12.0316 13.8345C12.0696 13.8928 12.113 13.9475 12.1611 13.9978L12.2118 14.0597V14.2117C12.2118 14.2849 12.2118 14.3581 12.2118 14.4313C12.1495 14.4992 12.0912 14.5707 12.0372 14.6453V14.6453C12.0879 14.7426 12.1503 14.8334 12.223 14.9156C12.223 15.2703 12.223 15.4786 12.223 15.5462C12.1141 15.6899 12.0144 15.8403 11.9246 15.9967C11.8925 16.0515 11.8567 16.1042 11.8176 16.1543V16.1543H11.7839C11.7098 16.0762 11.6308 16.0028 11.5474 15.9347V15.9347L11.2377 15.7883L11.1082 15.687L10.9956 15.5912C10.9956 15.3435 10.9956 14.7016 10.9956 14.0259C10.9956 13.6487 10.9956 13.2602 10.9956 12.8998V11.3739C10.6163 11.2247 10.2897 10.9664 10.0572 10.6317C9.82465 10.2969 9.69662 9.90077 9.68926 9.49325C9.68776 8.97155 9.89318 8.47054 10.2605 8.10007C10.6278 7.72959 11.127 7.51987 11.6487 7.51689V7.51689ZM11.6487 7.51689C11.1255 7.51985 10.6245 7.72902 10.2545 8.09902C9.88449 8.46902 9.67532 8.97 9.67236 9.49325C9.67751 9.9027 9.80451 10.3013 10.0372 10.6383C10.2698 10.9753 10.5976 11.2353 10.9787 11.3851V12.9167C10.9787 13.9415 10.9787 15.2421 10.9787 15.6081C11.0237 15.6532 11.1138 15.7207 11.2039 15.7996L11.4629 16.0248C11.5643 16.1093 11.6487 16.1937 11.7107 16.2557C11.7951 16.1937 11.8514 16.0192 12.1498 15.6138C12.1498 15.5293 12.1498 15.2027 12.1498 14.9719C12.0829 14.8873 12.0209 14.7989 11.964 14.7072C12.0201 14.6308 12.0802 14.5575 12.1442 14.4876C12.1442 14.3638 12.1442 14.2343 12.1442 14.1048C12.1442 14.1048 11.9584 13.8852 11.964 13.8795L12.1442 13.6543C12.1442 12.9336 12.1442 12.2185 12.1442 11.8074C12.2962 11.8074 12.4145 11.7511 12.4145 11.616V11.3345C12.8298 11.1492 13.1698 10.8282 13.3786 10.4242C13.5874 10.0202 13.6526 9.55725 13.5635 9.1113C13.4745 8.66535 13.2364 8.26294 12.8885 7.97013C12.5405 7.67733 12.1033 7.51155 11.6487 7.5V7.51689Z" fill="black"/>
</g>
</g>
<path d="M12.4312 10.9678V11.3112C12.5104 11.2759 12.5859 11.2325 12.6564 11.1817L12.4312 10.9678Z" fill="url(#paint25_linear_49_4097)"/>
<path d="M11.6487 8.01182C11.5257 8.00959 11.4049 8.044 11.3016 8.11069C11.1983 8.17737 11.1171 8.2733 11.0685 8.38626C11.0199 8.49922 11.006 8.6241 11.0286 8.74497C11.0512 8.86585 11.1093 8.97727 11.1955 9.06502C11.2816 9.15277 11.392 9.21288 11.5124 9.23771C11.6328 9.26254 11.758 9.25095 11.8718 9.20442C11.9856 9.15789 12.083 9.07852 12.1516 8.97644C12.2202 8.87435 12.2568 8.75417 12.2568 8.63119C12.2576 8.55059 12.2424 8.47064 12.2123 8.39589C12.1821 8.32114 12.1375 8.25307 12.081 8.19556C12.0246 8.13804 11.9573 8.09221 11.8831 8.06069C11.809 8.02916 11.7293 8.01256 11.6487 8.01182V8.01182ZM11.6487 9.07601C11.5592 9.07825 11.471 9.05375 11.3954 9.00563C11.3199 8.95752 11.2604 8.88798 11.2246 8.80589C11.1888 8.7238 11.1782 8.6329 11.1943 8.54479C11.2104 8.45668 11.2524 8.37537 11.3149 8.31124C11.3774 8.24711 11.4577 8.20308 11.5453 8.18477C11.633 8.16645 11.7241 8.17469 11.8071 8.20843C11.8901 8.24217 11.9611 8.29987 12.0111 8.37417C12.0611 8.44847 12.0879 8.536 12.0879 8.62556C12.0894 8.74258 12.0448 8.85549 11.9636 8.9398C11.8824 9.02412 11.7713 9.07306 11.6543 9.07601H11.6487Z" fill="url(#paint26_linear_49_4097)"/>
<g opacity="0.5">
<path opacity="0.5" d="M11.6488 8.10191C11.7537 8.1008 11.8566 8.13089 11.9443 8.18836C12.0321 8.24584 12.1008 8.32811 12.1417 8.42472C12.1827 8.52133 12.194 8.62792 12.1742 8.73096C12.1544 8.834 12.1044 8.92883 12.0306 9.00342C11.9569 9.078 11.8626 9.12897 11.7597 9.14986C11.6569 9.17074 11.5502 9.16059 11.4532 9.1207C11.3561 9.08081 11.2731 9.01298 11.2147 8.92583C11.1563 8.83867 11.1251 8.73612 11.1251 8.6312C11.1244 8.56196 11.1374 8.49326 11.1633 8.42907C11.1893 8.36489 11.2278 8.3065 11.2765 8.25727C11.3252 8.20805 11.3832 8.16897 11.4471 8.14231C11.511 8.11564 11.5795 8.10191 11.6488 8.10191V8.10191ZM11.6488 8.0625C11.5374 8.0625 11.4285 8.09552 11.3359 8.15739C11.2433 8.21926 11.1712 8.3072 11.1286 8.41009C11.0859 8.51298 11.0748 8.62619 11.0965 8.73541C11.1182 8.84464 11.1719 8.94497 11.2506 9.02371C11.3294 9.10246 11.4297 9.15609 11.5389 9.17781C11.6481 9.19954 11.7613 9.18839 11.8642 9.14577C11.9671 9.10315 12.0551 9.03098 12.1169 8.93839C12.1788 8.84579 12.2118 8.73693 12.2118 8.62557C12.2118 8.47623 12.1525 8.33301 12.0469 8.22742C11.9413 8.12182 11.7981 8.0625 11.6488 8.0625V8.0625Z" fill="url(#paint27_linear_49_4097)"/>
</g>
<path d="M11.1613 8.58772C10.794 8.96422 10.5884 9.46938 10.5884 9.99538C10.5884 10.5214 10.794 11.0265 11.1613 11.403C11.452 11.69 11.823 11.8819 12.2252 11.9533C12.6274 12.0247 13.0419 11.9722 13.4136 11.8028L14.382 10.7611C14.5314 10.3972 14.571 9.99746 14.496 9.61126C14.421 9.22506 14.2345 8.86925 13.9597 8.58772C13.7773 8.40163 13.5596 8.25381 13.3193 8.15289C13.0791 8.05198 12.8211 8 12.5605 8C12.2999 8 12.042 8.05198 11.8017 8.15289C11.5614 8.25381 11.3437 8.40163 11.1613 8.58772V8.58772ZM12.248 9.71385C12.1652 9.76276 12.0683 9.78197 11.9731 9.76829C11.8779 9.75461 11.7903 9.70888 11.7246 9.63863C11.659 9.56839 11.6193 9.47785 11.6121 9.38198C11.6048 9.28611 11.6306 9.19064 11.6849 9.11137C11.7612 9.03971 11.8619 8.99981 11.9665 8.99981C12.0711 8.99981 12.1718 9.03971 12.248 9.11137C12.3261 9.1922 12.3698 9.30021 12.3698 9.41261C12.3698 9.525 12.3261 9.63301 12.248 9.71385V9.71385Z" fill="#C6C6C6"/>
<path d="M11.1613 8.58772C10.794 8.96422 10.5884 9.46938 10.5884 9.99538C10.5884 10.5214 10.794 11.0265 11.1613 11.403C11.452 11.69 11.823 11.8819 12.2252 11.9533C12.6274 12.0247 13.0419 11.9722 13.4136 11.8028L14.382 10.7611C14.5314 10.3972 14.571 9.99746 14.496 9.61126C14.421 9.22506 14.2345 8.86925 13.9597 8.58772C13.7773 8.40163 13.5596 8.25381 13.3193 8.15289C13.0791 8.05198 12.8211 8 12.5605 8C12.2999 8 12.042 8.05198 11.8017 8.15289C11.5614 8.25381 11.3437 8.40163 11.1613 8.58772V8.58772ZM12.2874 9.77015C12.246 9.81254 12.1965 9.84623 12.1419 9.86923C12.0872 9.89223 12.0286 9.90407 11.9693 9.90407C11.91 9.90407 11.8513 9.89223 11.7967 9.86923C11.7421 9.84623 11.6926 9.81254 11.6512 9.77015C11.6036 9.68361 11.5854 9.58396 11.5993 9.48619C11.6132 9.38841 11.6585 9.2978 11.7284 9.22797C11.7982 9.15814 11.8888 9.11286 11.9866 9.09894C12.0843 9.08502 12.184 9.10321 12.2705 9.15078C12.3525 9.23754 12.3982 9.35237 12.3982 9.47173C12.3982 9.59108 12.3525 9.70592 12.2705 9.79267L12.2874 9.77015Z" fill="url(#paint28_linear_49_4097)"/>
<path d="M11.398 8.85257C11.0935 9.16755 10.9233 9.58849 10.9233 10.0266C10.9233 10.4646 11.0935 10.8856 11.398 11.2006C11.6213 11.4255 11.905 11.5809 12.2148 11.6479C12.5246 11.7148 12.8472 11.6905 13.1435 11.5778L13.5376 11.972C13.5376 11.972 15.9081 14.3875 16.353 14.8154C16.55 14.8154 17.0681 14.7479 17.3045 14.7591C17.3045 14.6521 17.2201 14.5789 17.0005 14.1566C16.9442 14.0947 16.7415 14.0553 16.5782 13.892C16.5782 13.8639 16.3023 13.7175 16.2854 13.7062C16.2487 13.6107 16.1974 13.5214 16.1334 13.4416C16.0433 13.3571 16.0095 13.2107 15.9194 13.1206C15.8552 13.0788 15.7932 13.0336 15.7336 12.9855C15.6687 12.9447 15.6066 12.8995 15.5478 12.8503C15.041 12.3436 14.5399 11.8368 14.2584 11.544C14.416 11.3864 14.7426 11.1274 14.5737 10.981L14.4611 10.8402L14.1345 10.5136C14.2162 10.2272 14.2206 9.9242 14.1475 9.63545C14.0743 9.34671 13.9261 9.08244 13.7178 8.86946C13.5675 8.71446 13.3879 8.59091 13.1893 8.50603C12.9908 8.42114 12.7774 8.37662 12.5614 8.37504C12.3455 8.37347 12.1315 8.41488 11.9317 8.49687C11.732 8.57885 11.5505 8.69977 11.398 8.85257V8.85257ZM12.2876 9.74785C12.2445 9.79334 12.1925 9.82957 12.1349 9.85433C12.0773 9.87908 12.0153 9.89185 11.9526 9.89185C11.8899 9.89185 11.8279 9.87908 11.7703 9.85433C11.7127 9.82957 11.6607 9.79334 11.6176 9.74785C11.5282 9.65814 11.478 9.53665 11.478 9.41001C11.478 9.28336 11.5282 9.16188 11.6176 9.07217C11.6615 9.02807 11.7137 8.99309 11.7712 8.96922C11.8287 8.94534 11.8904 8.93306 11.9526 8.93306C12.0149 8.93306 12.0765 8.94534 12.134 8.96922C12.1915 8.99309 12.2437 9.02807 12.2876 9.07217C12.377 9.16188 12.4272 9.28336 12.4272 9.41001C12.4272 9.53665 12.377 9.65814 12.2876 9.74785V9.74785Z" fill="url(#paint29_linear_49_4097)"/>
<path d="M11.398 8.85254C11.0935 9.16752 10.9233 9.58846 10.9233 10.0265C10.9233 10.4646 11.0935 10.8855 11.398 11.2005C11.6213 11.4255 11.905 11.5809 12.2148 11.6478C12.5246 11.7148 12.8472 11.6905 13.1435 11.5778L13.5376 11.9719C13.5376 11.9719 15.8575 14.3312 16.3135 14.7872" stroke="url(#paint30_linear_49_4097)" stroke-width="0.0337839" stroke-miterlimit="10"/>
<path d="M17.3327 14.748C17.303 14.4884 17.2578 14.2308 17.1976 13.9766L16.7528 13.5205L16.4375 13.4642C16.4375 13.4642 16.4093 13.2052 16.4093 13.1771L16.139 12.9124C16.0434 12.9185 15.9475 12.9185 15.8519 12.9124C15.8519 12.9124 15.8519 12.6309 15.8181 12.6253L14.5287 11.2852L14.219 11.6005L17.3327 14.748Z" fill="#C2C5C7"/>
<path d="M16.6456 14.7985L13.8528 11.9719L14.0386 11.7861L16.9891 14.7704L16.6456 14.7985Z" fill="#C2C5C7"/>
<g style="mix-blend-mode:multiply" opacity="0.4">
<path d="M16.6456 14.7985L13.8528 11.9719L13.9316 11.8931L14.0386 11.7861V12.0001L16.7976 14.7873L16.6456 14.7985Z" fill="black"/>
</g>
<g style="mix-blend-mode:multiply" opacity="0.4">
<path d="M17.3327 14.7479L14.219 11.6004L14.2978 11.516L14.5118 11.3076L14.4048 11.6229L17.3102 14.5565L17.3327 14.7479Z" fill="black"/>
</g>
<g style="mix-blend-mode:multiply" opacity="0.2">
<g style="mix-blend-mode:multiply" opacity="0.2">
<path d="M12.5577 8.02451C12.8144 8.02191 13.069 8.07034 13.3068 8.167C13.5446 8.26367 13.7608 8.40663 13.9428 8.58758C14.2213 8.86558 14.4115 9.21957 14.4896 9.6052C14.5677 9.99082 14.5303 10.3909 14.382 10.7554L14.4214 10.7948L14.5566 10.9299C14.6298 11.0031 14.6073 11.0988 14.4946 11.234C14.8156 11.5606 15.2886 12.0504 15.7841 12.5403C15.7841 12.5403 15.7841 12.7092 15.7841 12.7712C15.7841 12.8331 15.7841 12.8106 15.7841 12.8218C15.7841 12.8218 15.7841 12.8218 16.0037 12.8612H16.0769C16.1153 12.894 16.1511 12.9298 16.1838 12.9682L16.3415 13.1203C16.3365 13.2122 16.3365 13.3043 16.3415 13.3962V13.3962C16.4461 13.4276 16.5536 13.4483 16.6624 13.4581C16.9102 13.7058 17.051 13.8522 17.096 13.9029C17.1203 14.0829 17.1542 14.2614 17.1974 14.4378C17.2153 14.5005 17.2285 14.5645 17.2368 14.6293V14.6293V14.6687H17.203H16.9215H16.882L16.6343 14.7813H16.364C16.0937 14.5223 15.1872 13.6157 14.4721 12.895L13.5487 11.966L13.4136 11.8308C13.0405 11.9942 12.6267 12.0408 12.2267 11.9644C11.8267 11.888 11.4591 11.6923 11.1726 11.4029C10.8012 11.0285 10.5928 10.5226 10.5928 9.99524C10.5928 9.46792 10.8012 8.96196 11.1726 8.58758C11.355 8.40713 11.5713 8.2645 11.809 8.16787C12.0467 8.07125 12.3011 8.02253 12.5577 8.02451V8.02451ZM12.5577 8.02451C12.2994 8.02197 12.043 8.07039 11.8034 8.167C11.5638 8.26362 11.3456 8.40654 11.1613 8.58758C10.794 8.96408 10.5884 9.46924 10.5884 9.99524C10.5884 10.5212 10.794 11.0264 11.1613 11.4029C11.3478 11.5857 11.5688 11.7296 11.8114 11.8263C12.054 11.923 12.3135 11.9704 12.5746 11.966C12.8602 11.9654 13.1423 11.904 13.4023 11.7858L13.5374 11.966L14.4721 12.9232C15.1928 13.6495 16.105 14.5673 16.3696 14.8151L16.6343 14.7813H16.9778H17.2593H17.31C17.289 14.5108 17.2514 14.2419 17.1974 13.9761L16.7525 13.52L16.4372 13.4637C16.4372 13.4637 16.4091 13.2047 16.4091 13.1766L16.1388 12.9119C16.0432 12.9177 15.9473 12.9177 15.8516 12.9119C15.8456 12.8157 15.8343 12.7198 15.8178 12.6248L14.5341 11.2847C14.6298 11.172 14.6805 11.0538 14.5904 10.9581L14.4609 10.8398L14.382 10.761C14.5314 10.397 14.571 9.99733 14.496 9.61112C14.421 9.22492 14.2345 8.86912 13.9597 8.58758C13.5851 8.22214 13.0811 8.01973 12.5577 8.02451V8.02451Z" fill="black"/>
</g>
</g>
<g style="mix-blend-mode:multiply" opacity="0.3">
<path d="M14.1401 10.502L14.3766 10.7441C14.4255 10.6722 14.4547 10.5887 14.4611 10.502H14.1401Z" fill="#808080"/>
</g>
<g opacity="0.5">
<path opacity="0.5" d="M11.9499 8.86875C12.091 8.87218 12.2256 8.92845 12.3271 9.02641C12.4237 9.13053 12.4774 9.26729 12.4774 9.4093C12.4774 9.5513 12.4237 9.68806 12.3271 9.79218C12.2782 9.84381 12.2193 9.88492 12.1539 9.91302C12.0886 9.94112 12.0182 9.95561 11.9471 9.95561C11.8759 9.95561 11.8056 9.94112 11.7402 9.91302C11.6749 9.88492 11.6159 9.84381 11.567 9.79218C11.4704 9.68806 11.4168 9.5513 11.4168 9.4093C11.4168 9.26729 11.4704 9.13053 11.567 9.02641C11.6652 8.92683 11.7988 8.87015 11.9386 8.86875H11.9499ZM11.9386 8.83497C11.8641 8.83528 11.7904 8.85037 11.7218 8.87937C11.6532 8.90836 11.591 8.95069 11.5389 9.00389C11.4861 9.05828 11.4449 9.12275 11.4177 9.19344C11.3905 9.26413 11.3778 9.33958 11.3805 9.41529C11.3831 9.49099 11.401 9.56538 11.433 9.63401C11.4651 9.70264 11.5106 9.7641 11.567 9.8147C11.6194 9.86833 11.6821 9.91095 11.7512 9.94004C11.8203 9.96913 11.8946 9.98412 11.9696 9.98412C12.0446 9.98412 12.1189 9.96913 12.188 9.94004C12.2571 9.91095 12.3197 9.86833 12.3722 9.8147C12.4267 9.76218 12.47 9.69921 12.4996 9.62955C12.5292 9.55989 12.5445 9.48498 12.5445 9.4093C12.5445 9.33361 12.5292 9.2587 12.4996 9.18904C12.47 9.11939 12.4267 9.05641 12.3722 9.00389C12.3194 8.95001 12.2563 8.90729 12.1866 8.87827C12.117 8.84926 12.0422 8.83453 11.9668 8.83497H11.9386Z" fill="url(#paint31_linear_49_4097)"/>
</g>
<g style="mix-blend-mode:multiply" opacity="0.3">
<path d="M8.84172 10.4687C8.88113 10.5982 9.90591 10.0746 10.0354 10.0352C10.0261 10.2235 10.0374 10.4123 10.0692 10.5982L10.362 10.4124L10.6717 10.3054V10.221L11.0039 10.0352L11.9048 9.71423L12.13 9.62414C12.023 9.65792 11.9273 9.66355 11.8879 9.53968L12.1751 9.37076C12.13 9.24125 12.13 9.15116 11.978 9.20184L8.99374 10.1647C8.93354 10.1852 8.88384 10.2286 8.8554 10.2855C8.82695 10.3424 8.82203 10.4082 8.84172 10.4687V10.4687Z" fill="black"/>
</g>
<path style="mix-blend-mode:multiply" d="M11.5218 8.98202C11.408 9.09875 11.3442 9.25535 11.3442 9.4184C11.3442 9.58145 11.408 9.73805 11.5218 9.85477C11.6366 9.96791 11.7913 10.0313 11.9525 10.0313C12.1137 10.0313 12.2685 9.96791 12.3833 9.85477C12.4971 9.73805 12.5608 9.58145 12.5608 9.4184C12.5608 9.25535 12.4971 9.09875 12.3833 8.98202C12.3272 8.92465 12.2602 8.87906 12.1862 8.84794C12.1122 8.81681 12.0328 8.80078 11.9525 8.80078C11.8723 8.80078 11.7929 8.81681 11.7189 8.84794C11.6449 8.87906 11.5779 8.92465 11.5218 8.98202V8.98202ZM12.265 9.71401C12.2242 9.75538 12.1755 9.78822 12.1219 9.81064C12.0682 9.83306 12.0107 9.8446 11.9525 9.8446C11.8944 9.8446 11.8368 9.83306 11.7832 9.81064C11.7296 9.78822 11.6809 9.75538 11.64 9.71401C11.5985 9.67267 11.5655 9.62354 11.543 9.56943C11.5206 9.51532 11.509 9.45729 11.509 9.39869C11.509 9.34009 11.5206 9.28207 11.543 9.22796C11.5655 9.17384 11.5985 9.12471 11.64 9.08338C11.6809 9.04201 11.7296 9.00916 11.7832 8.98674C11.8368 8.96432 11.8944 8.95278 11.9525 8.95278C12.0107 8.95278 12.0682 8.96432 12.1219 8.98674C12.1755 9.00916 12.2242 9.04201 12.265 9.08338C12.3066 9.12471 12.3395 9.17384 12.362 9.22796C12.3845 9.28207 12.3961 9.34009 12.3961 9.39869C12.3961 9.45729 12.3845 9.51532 12.362 9.56943C12.3395 9.62354 12.3066 9.67267 12.265 9.71401Z" fill="url(#paint32_linear_49_4097)"/>
<path d="M11.1613 7.93928C10.794 8.31578 10.5884 8.82094 10.5884 9.34694C10.5884 9.87294 10.794 10.3781 11.1613 10.7546C11.452 11.0416 11.823 11.2335 12.2252 11.3049C12.6274 11.3763 13.0419 11.3238 13.4136 11.1544L14.382 10.1127C14.5314 9.74875 14.571 9.34903 14.496 8.96282C14.421 8.57662 14.2345 8.22082 13.9597 7.93928C13.7773 7.7532 13.5596 7.60537 13.3193 7.50446C13.0791 7.40354 12.8211 7.35156 12.5605 7.35156C12.2999 7.35156 12.042 7.40354 11.8017 7.50446C11.5614 7.60537 11.3437 7.7532 11.1613 7.93928V7.93928ZM12.248 9.06541C12.1652 9.11432 12.0683 9.13353 11.9731 9.11985C11.8779 9.10618 11.7903 9.06044 11.7246 8.9902C11.659 8.91995 11.6193 8.82941 11.6121 8.73354C11.6048 8.63767 11.6306 8.5422 11.6849 8.46293C11.7612 8.39127 11.8619 8.35138 11.9665 8.35138C12.0711 8.35138 12.1718 8.39127 12.248 8.46293C12.3261 8.54376 12.3698 8.65177 12.3698 8.76417C12.3698 8.87657 12.3261 8.98457 12.248 9.06541V9.06541Z" fill="#C6C6C6"/>
<path d="M11.1613 7.93928C10.794 8.31578 10.5884 8.82094 10.5884 9.34694C10.5884 9.87294 10.794 10.3781 11.1613 10.7546C11.452 11.0416 11.823 11.2335 12.2252 11.3049C12.6274 11.3763 13.0419 11.3238 13.4136 11.1544L14.382 10.1127C14.5314 9.74875 14.571 9.34903 14.496 8.96282C14.421 8.57662 14.2345 8.22082 13.9597 7.93928C13.7773 7.7532 13.5596 7.60537 13.3193 7.50446C13.0791 7.40354 12.8211 7.35156 12.5605 7.35156C12.2999 7.35156 12.042 7.40354 11.8017 7.50446C11.5614 7.60537 11.3437 7.7532 11.1613 7.93928V7.93928ZM12.2874 9.12171C12.246 9.16411 12.1965 9.19779 12.1419 9.22079C12.0872 9.24379 12.0286 9.25564 11.9693 9.25564C11.91 9.25564 11.8513 9.24379 11.7967 9.22079C11.7421 9.19779 11.6926 9.16411 11.6512 9.12171C11.6036 9.03517 11.5854 8.93552 11.5993 8.83775C11.6132 8.73998 11.6585 8.64936 11.7284 8.57953C11.7982 8.5097 11.8888 8.46442 11.9866 8.4505C12.0843 8.43658 12.184 8.45477 12.2705 8.50234C12.3525 8.5891 12.3982 8.70393 12.3982 8.82329C12.3982 8.94265 12.3525 9.05748 12.2705 9.14424L12.2874 9.12171Z" fill="url(#paint33_linear_49_4097)"/>
<path d="M11.398 8.20414C11.0935 8.51911 10.9233 8.94005 10.9233 9.37813C10.9233 9.8162 11.0935 10.2371 11.398 10.5521C11.6213 10.7771 11.905 10.9325 12.2148 10.9994C12.5246 11.0664 12.8472 11.0421 13.1435 10.9294L13.5376 11.3235C13.5376 11.3235 15.9081 13.7391 16.353 14.167C16.55 14.167 17.0681 14.0994 17.3045 14.1107C17.3045 14.0037 17.2201 13.9305 17.0005 13.5082C16.9442 13.4463 16.7415 13.4069 16.5782 13.2436C16.5782 13.2154 16.3023 13.069 16.2854 13.0578C16.2487 12.9622 16.1974 12.8729 16.1334 12.7931C16.0433 12.7087 16.0095 12.5623 15.9194 12.4722C15.8552 12.4303 15.7932 12.3852 15.7336 12.337C15.6687 12.2963 15.6066 12.2511 15.5478 12.2019C15.041 11.6951 14.5399 11.1884 14.2584 10.8956C14.416 10.7379 14.7426 10.4789 14.5737 10.3325L14.4611 10.1918L14.1345 9.86518C14.2162 9.57872 14.2206 9.27576 14.1475 8.98701C14.0743 8.69827 13.9261 8.43401 13.7178 8.22103C13.5675 8.06602 13.3879 7.94247 13.1893 7.85759C12.9908 7.7727 12.7774 7.72818 12.5614 7.72661C12.3455 7.72503 12.1315 7.76645 11.9317 7.84843C11.732 7.93041 11.5505 8.05133 11.398 8.20414V8.20414ZM12.2876 9.09941C12.2445 9.1449 12.1925 9.18113 12.1349 9.20589C12.0773 9.23065 12.0153 9.24341 11.9526 9.24341C11.8899 9.24341 11.8279 9.23065 11.7703 9.20589C11.7127 9.18113 11.6607 9.1449 11.6176 9.09941C11.5282 9.0097 11.478 8.88822 11.478 8.76157C11.478 8.63492 11.5282 8.51344 11.6176 8.42373C11.6615 8.37964 11.7137 8.34465 11.7712 8.32078C11.8287 8.29691 11.8904 8.28462 11.9526 8.28462C12.0149 8.28462 12.0765 8.29691 12.134 8.32078C12.1915 8.34465 12.2437 8.37964 12.2876 8.42373C12.377 8.51344 12.4272 8.63492 12.4272 8.76157C12.4272 8.88822 12.377 9.0097 12.2876 9.09941V9.09941Z" fill="url(#paint34_linear_49_4097)"/>
<path d="M11.398 8.2041C11.0935 8.51908 10.9233 8.94002 10.9233 9.37809C10.9233 9.81616 11.0935 10.2371 11.398 10.5521C11.6213 10.7771 11.905 10.9324 12.2148 10.9994C12.5246 11.0664 12.8472 11.042 13.1435 10.9293L13.5376 11.3235C13.5376 11.3235 15.8575 13.6827 16.3135 14.1388" stroke="url(#paint35_linear_49_4097)" stroke-width="0.0337839" stroke-miterlimit="10"/>
<path d="M17.3327 14.0996C17.303 13.84 17.2578 13.5824 17.1976 13.3282L16.7528 12.8721L16.4375 12.8158C16.4375 12.8158 16.4093 12.5568 16.4093 12.5286L16.139 12.264C16.0434 12.2701 15.9475 12.2701 15.8519 12.264C15.8519 12.264 15.8519 11.9824 15.8181 11.9768L14.5287 10.6367L14.219 10.952L17.3327 14.0996Z" fill="#C2C5C7"/>
<path d="M16.6456 14.1501L13.8528 11.3235L14.0386 11.1377L16.9891 14.1219L16.6456 14.1501Z" fill="#C2C5C7"/>
<g style="mix-blend-mode:multiply" opacity="0.4">
<path d="M16.6456 14.1501L13.8528 11.3235L13.9316 11.2447L14.0386 11.1377V11.3517L16.7976 14.1388L16.6456 14.1501Z" fill="black"/>
</g>
<g style="mix-blend-mode:multiply" opacity="0.4">
<path d="M17.3327 14.0995L14.219 10.952L14.2978 10.8675L14.5118 10.6592L14.4048 10.9745L17.3102 13.9081L17.3327 14.0995Z" fill="black"/>
</g>
<g style="mix-blend-mode:multiply" opacity="0.2">
<g style="mix-blend-mode:multiply" opacity="0.2">
<path d="M12.5577 7.37608C12.8144 7.37347 13.069 7.4219 13.3068 7.51857C13.5446 7.61523 13.7608 7.75819 13.9428 7.93914C14.2213 8.21714 14.4115 8.57113 14.4896 8.95676C14.5677 9.34238 14.5303 9.74249 14.382 10.1069L14.4214 10.1464L14.5566 10.2815C14.6298 10.3547 14.6073 10.4504 14.4946 10.5855C14.8156 10.9121 15.2886 11.402 15.7841 11.8919C15.7841 11.8919 15.7841 12.0608 15.7841 12.1227C15.7841 12.1847 15.7841 12.1621 15.7841 12.1734C15.7841 12.1734 15.7841 12.1734 16.0037 12.2128H16.0769C16.1153 12.2456 16.1511 12.2814 16.1838 12.3198L16.3415 12.4718C16.3365 12.5637 16.3365 12.6558 16.3415 12.7477V12.7477C16.4461 12.7792 16.5536 12.7999 16.6624 12.8097C16.9102 13.0574 17.051 13.2038 17.096 13.2545C17.1203 13.4344 17.1542 13.613 17.1974 13.7894C17.2153 13.8521 17.2285 13.9161 17.2368 13.9808V13.9808V14.0202H17.203H16.9215H16.882L16.6343 14.1329H16.364C16.0937 13.8738 15.1872 12.9673 14.4721 12.2466L13.5487 11.3175L13.4136 11.1824C13.0405 11.3458 12.6267 11.3924 12.2267 11.316C11.8267 11.2396 11.4591 11.0438 11.1726 10.7545C10.8012 10.3801 10.5928 9.87412 10.5928 9.3468C10.5928 8.81948 10.8012 8.31353 11.1726 7.93914C11.355 7.7587 11.5713 7.61606 11.809 7.51944C12.0467 7.42281 12.3011 7.37409 12.5577 7.37608V7.37608ZM12.5577 7.37608C12.2994 7.37353 12.043 7.42195 11.8034 7.51857C11.5638 7.61518 11.3456 7.7581 11.1613 7.93914C10.794 8.31564 10.5884 8.82081 10.5884 9.3468C10.5884 9.8728 10.794 10.378 11.1613 10.7545C11.3478 10.9373 11.5688 11.0812 11.8114 11.1779C12.054 11.2745 12.3135 11.322 12.5746 11.3175C12.8602 11.3169 13.1423 11.2555 13.4023 11.1374L13.5374 11.3175L14.4721 12.2747C15.1928 13.0011 16.105 13.9189 16.3696 14.1666L16.6343 14.1329H16.9778H17.2593H17.31C17.289 13.8624 17.2514 13.5935 17.1974 13.3277L16.7525 12.8716L16.4372 12.8153C16.4372 12.8153 16.4091 12.5563 16.4091 12.5281L16.1388 12.2635C16.0432 12.2693 15.9473 12.2693 15.8516 12.2635C15.8456 12.1672 15.8343 12.0714 15.8178 11.9763L14.5341 10.6362C14.6298 10.5236 14.6805 10.4054 14.5904 10.3096L14.4609 10.1914L14.382 10.1126C14.5314 9.74861 14.571 9.34889 14.496 8.96269C14.421 8.57648 14.2345 8.22068 13.9597 7.93914C13.5851 7.5737 13.0811 7.37129 12.5577 7.37608V7.37608Z" fill="black"/>
</g>
</g>
<g style="mix-blend-mode:multiply" opacity="0.3">
<path d="M14.1401 9.85352L14.3766 10.0956C14.4255 10.0237 14.4547 9.94023 14.4611 9.85352H14.1401Z" fill="#808080"/>
</g>
<g opacity="0.5">
<path opacity="0.5" d="M11.9499 8.22032C12.091 8.22374 12.2256 8.28001 12.3271 8.37798C12.4237 8.48209 12.4774 8.61885 12.4774 8.76086C12.4774 8.90286 12.4237 9.03962 12.3271 9.14374C12.2782 9.19537 12.2193 9.23649 12.1539 9.26459C12.0886 9.29268 12.0182 9.30718 11.9471 9.30718C11.8759 9.30718 11.8056 9.29268 11.7402 9.26459C11.6749 9.23649 11.6159 9.19537 11.567 9.14374C11.4704 9.03962 11.4168 8.90286 11.4168 8.76086C11.4168 8.61885 11.4704 8.48209 11.567 8.37798C11.6652 8.27839 11.7988 8.22171 11.9386 8.22032H11.9499ZM11.9386 8.18653C11.8641 8.18684 11.7904 8.20193 11.7218 8.23093C11.6532 8.25992 11.591 8.30225 11.5389 8.35545C11.4861 8.40985 11.4449 8.47432 11.4177 8.54501C11.3905 8.61569 11.3778 8.69115 11.3805 8.76685C11.3831 8.84255 11.401 8.91694 11.433 8.98557C11.4651 9.0542 11.5106 9.11566 11.567 9.16627C11.6194 9.2199 11.6821 9.26251 11.7512 9.2916C11.8203 9.32069 11.8946 9.33568 11.9696 9.33568C12.0446 9.33568 12.1189 9.32069 12.188 9.2916C12.2571 9.26251 12.3197 9.2199 12.3722 9.16627C12.4267 9.11374 12.47 9.05077 12.4996 8.98111C12.5292 8.91146 12.5445 8.83655 12.5445 8.76086C12.5445 8.68517 12.5292 8.61026 12.4996 8.54061C12.47 8.47095 12.4267 8.40798 12.3722 8.35545C12.3194 8.30157 12.2563 8.25885 12.1866 8.22984C12.117 8.20082 12.0422 8.18609 11.9668 8.18653H11.9386Z" fill="url(#paint36_linear_49_4097)"/>
</g>
<g style="mix-blend-mode:multiply" opacity="0.3">
<path d="M8.84172 9.8203C8.88113 9.9498 9.90591 9.42615 10.0354 9.38674C10.0261 9.5751 10.0374 9.76391 10.0692 9.9498L10.362 9.76399L10.6717 9.65701V9.57255L11.0039 9.38674L11.9048 9.06579L12.13 8.9757C12.023 9.00948 11.9273 9.01512 11.8879 8.89124L12.1751 8.72232C12.13 8.59282 12.13 8.50273 11.978 8.5534L8.99374 9.51624C8.93354 9.53679 8.88384 9.58021 8.8554 9.6371C8.82695 9.694 8.82203 9.75981 8.84172 9.8203V9.8203Z" fill="black"/>
</g>
<path style="mix-blend-mode:multiply" d="M11.5218 8.33359C11.408 8.45032 11.3442 8.60691 11.3442 8.76996C11.3442 8.93301 11.408 9.08961 11.5218 9.20634C11.6366 9.31947 11.7913 9.38289 11.9525 9.38289C12.1137 9.38289 12.2685 9.31947 12.3833 9.20634C12.4971 9.08961 12.5608 8.93301 12.5608 8.76996C12.5608 8.60691 12.4971 8.45032 12.3833 8.33359C12.3272 8.27621 12.2602 8.23062 12.1862 8.1995C12.1122 8.16838 12.0328 8.15234 11.9525 8.15234C11.8723 8.15234 11.7929 8.16838 11.7189 8.1995C11.6449 8.23062 11.5779 8.27621 11.5218 8.33359V8.33359ZM12.265 9.06557C12.2242 9.10694 12.1755 9.13979 12.1219 9.1622C12.0682 9.18462 12.0107 9.19617 11.9525 9.19617C11.8944 9.19617 11.8368 9.18462 11.7832 9.1622C11.7296 9.13979 11.6809 9.10694 11.64 9.06557C11.5985 9.02424 11.5655 8.9751 11.543 8.92099C11.5206 8.86688 11.509 8.80886 11.509 8.75025C11.509 8.69165 11.5206 8.63363 11.543 8.57952C11.5655 8.52541 11.5985 8.47627 11.64 8.43494C11.6809 8.39357 11.7296 8.36072 11.7832 8.33831C11.8368 8.31589 11.8944 8.30434 11.9525 8.30434C12.0107 8.30434 12.0682 8.31589 12.1219 8.33831C12.1755 8.36072 12.2242 8.39357 12.265 8.43494C12.3066 8.47627 12.3395 8.52541 12.362 8.57952C12.3845 8.63363 12.3961 8.69165 12.3961 8.75025C12.3961 8.80886 12.3845 8.86688 12.362 8.92099C12.3395 8.9751 12.3066 9.02424 12.265 9.06557Z" fill="url(#paint37_linear_49_4097)"/>
<path d="M8.75152 9.78612C8.76105 9.81637 8.77656 9.84439 8.79714 9.86853C8.81773 9.89266 8.84295 9.9124 8.87132 9.92659C8.89969 9.94077 8.93062 9.9491 8.96227 9.95109C8.99393 9.95307 9.02566 9.94867 9.05557 9.93815L12.0398 8.98094C12.1004 8.9592 12.1502 8.91471 12.1786 8.8569C12.207 8.79909 12.2117 8.7325 12.1918 8.67125C12.1846 8.64158 12.1716 8.61365 12.1534 8.58906C12.1353 8.56448 12.1125 8.54373 12.0863 8.52802C12.0602 8.51231 12.0311 8.50195 12.0009 8.49754C11.9707 8.49313 11.9399 8.49476 11.9103 8.50233L8.92044 9.47643C8.88889 9.48548 8.85945 9.5007 8.83383 9.52122C8.80822 9.54174 8.78693 9.56714 8.77122 9.59595C8.7555 9.62476 8.74567 9.65641 8.74229 9.68906C8.7389 9.7217 8.74204 9.7547 8.75152 9.78612V9.78612Z" fill="url(#paint38_linear_49_4097)"/>
<g style="mix-blend-mode:multiply" opacity="0.85">
<g style="mix-blend-mode:multiply" opacity="0.85">
<path d="M8.75158 9.78604C8.7611 9.81629 8.77662 9.84432 8.7972 9.86845C8.81778 9.89258 8.84301 9.91232 8.87138 9.92651C8.89974 9.94069 8.93067 9.94902 8.96233 9.95101C8.99398 9.953 9.02571 9.94859 9.05563 9.93807L12.0286 8.98086C12.0589 8.97125 12.0871 8.95577 12.1114 8.93529C12.1357 8.9148 12.1558 8.88973 12.1704 8.86149C12.1851 8.83326 12.194 8.80241 12.1967 8.77072C12.1994 8.73903 12.1959 8.70712 12.1863 8.6768C12.1703 8.61498 12.1306 8.56196 12.0758 8.52927C12.021 8.49658 11.9554 8.48687 11.8935 8.50225L8.91486 9.48198C8.88404 9.491 8.85531 9.50606 8.83036 9.52629C8.80541 9.54652 8.78473 9.57151 8.76954 9.59981C8.75434 9.62811 8.74492 9.65915 8.74184 9.69112C8.73876 9.72309 8.74207 9.75536 8.75158 9.78604V9.78604Z" fill="white"/>
</g>
<g style="mix-blend-mode:multiply" opacity="0.85">
<g style="mix-blend-mode:multiply" opacity="0.4">
<g style="mix-blend-mode:multiply" opacity="0.4">
<path d="M8.75158 9.78604C8.7611 9.81629 8.77662 9.84432 8.7972 9.86845C8.81778 9.89258 8.84301 9.91232 8.87138 9.92651C8.89974 9.94069 8.93067 9.94902 8.96233 9.95101C8.99398 9.953 9.02571 9.94859 9.05563 9.93807L12.0286 8.98086C12.0589 8.97125 12.0871 8.95577 12.1114 8.93529C12.1357 8.9148 12.1558 8.88973 12.1704 8.86149C12.1851 8.83326 12.194 8.80241 12.1967 8.77072C12.1994 8.73903 12.1959 8.70712 12.1863 8.6768C12.1703 8.61498 12.1306 8.56196 12.0758 8.52927C12.021 8.49658 11.9554 8.48687 11.8935 8.50225L8.91486 9.48198C8.88404 9.491 8.85531 9.50606 8.83036 9.52629C8.80541 9.54652 8.78473 9.57151 8.76954 9.59981C8.75434 9.62811 8.74492 9.65915 8.74184 9.69112C8.73876 9.72309 8.74207 9.75536 8.75158 9.78604V9.78604Z" fill="black"/>
</g>
</g>
</g>
</g>
<g style="mix-blend-mode:multiply" opacity="0.4">
<g style="mix-blend-mode:multiply" opacity="0.4">
<path d="M12.2087 8.70508C12.2284 8.76557 12.2235 8.83138 12.195 8.88827C12.1666 8.94517 12.1169 8.98859 12.0567 9.00913L9.07804 9.96634C9.04679 9.97968 9.01308 9.98628 8.97911 9.98573C8.94514 9.98518 8.91166 9.97748 8.88086 9.96314C8.85005 9.9488 8.82261 9.92814 8.80032 9.9025C8.77803 9.87686 8.76138 9.84681 8.75146 9.81432V9.81432C8.78755 9.84474 8.83112 9.86496 8.87765 9.87289C8.92418 9.88081 8.97199 9.87614 9.01611 9.85936C9.21881 9.80869 12.0623 8.89652 12.0623 8.89652C12.0623 8.89652 12.2143 8.82895 12.2087 8.70508Z" fill="black"/>
</g>
</g>
</g>
<defs>
<linearGradient id="paint0_linear_49_4097" x1="13.9892" y1="4.95508" x2="14.6969" y2="4.35094" gradientUnits="userSpaceOnUse">
<stop stop-color="white" stop-opacity="0"/>
<stop offset="0.2836" stop-color="#DCDCDC" stop-opacity="0.1418"/>
<stop offset="0.9093" stop-color="#838383" stop-opacity="0.4546"/>
<stop offset="1" stop-color="#767676" stop-opacity="0.5"/>
</linearGradient>
<linearGradient id="paint1_linear_49_4097" x1="6.00862" y1="4.95507" x2="5.30105" y2="4.35125" gradientUnits="userSpaceOnUse">
<stop stop-color="white" stop-opacity="0"/>
<stop offset="0.2836" stop-color="#DCDCDC" stop-opacity="0.1418"/>
<stop offset="0.9093" stop-color="#838383" stop-opacity="0.4546"/>
<stop offset="1" stop-color="#767676" stop-opacity="0.5"/>
</linearGradient>
<linearGradient id="paint2_linear_49_4097" x1="10.0039" y1="14.9968" x2="10.0039" y2="8.9946" gradientUnits="userSpaceOnUse">
<stop stop-color="#ABABAB"/>
<stop offset="0.1971" stop-color="#A7A7A7"/>
<stop offset="0.3984" stop-color="#9B9B9B"/>
<stop offset="0.6016" stop-color="#868686"/>
<stop offset="0.8047" stop-color="#6A6A6A"/>
<stop offset="1" stop-color="#474747"/>
</linearGradient>
<linearGradient id="paint3_linear_49_4097" x1="7.39469" y1="9.18753" x2="6.70448" y2="8.54622" gradientUnits="userSpaceOnUse">
<stop stop-color="white" stop-opacity="0"/>
<stop offset="0.4506" stop-color="#BBBBBB" stop-opacity="0.2253"/>
<stop offset="0.8188" stop-color="#898989" stop-opacity="0.4094"/>
<stop offset="1" stop-color="#767676" stop-opacity="0.5"/>
</linearGradient>
<linearGradient id="paint4_linear_49_4097" x1="12.6133" y1="9.18753" x2="13.3035" y2="8.54621" gradientUnits="userSpaceOnUse">
<stop stop-color="white" stop-opacity="0"/>
<stop offset="0.4506" stop-color="#BBBBBB" stop-opacity="0.2253"/>
<stop offset="0.8188" stop-color="#898989" stop-opacity="0.4094"/>
<stop offset="1" stop-color="#767676" stop-opacity="0.5"/>
</linearGradient>
<linearGradient id="paint5_linear_49_4097" x1="10" y1="14" x2="10" y2="8.99894" gradientUnits="userSpaceOnUse">
<stop stop-color="#666666"/>
<stop offset="0.109" stop-color="#5E5E5E"/>
<stop offset="0.6917" stop-color="#393939"/>
<stop offset="1" stop-color="#2B2B2B"/>
</linearGradient>
<linearGradient id="paint6_linear_49_4097" x1="10" y1="15" x2="10" y2="9.00003" gradientUnits="userSpaceOnUse">
<stop stop-color="#C9C9C9"/>
<stop offset="0.3698" stop-color="#CDCDCD"/>
<stop offset="0.7464" stop-color="#D9D9D9"/>
<stop offset="1" stop-color="#E6E6E6"/>
</linearGradient>
<radialGradient id="paint7_radial_49_4097" cx="0" cy="0" r="1" gradientUnits="userSpaceOnUse" gradientTransform="translate(4.33069 11.589) rotate(-117.661) scale(0.94236 0.847944)">
<stop stop-color="#BDFFBD"/>
<stop offset="1" stop-color="#00FF00"/>
</radialGradient>
<linearGradient id="paint8_linear_49_4097" x1="10.5098" y1="8.51832" x2="8.00438" y2="8.51832" gradientUnits="userSpaceOnUse">
<stop stop-color="white" stop-opacity="0"/>
<stop offset="1"/>
</linearGradient>
<linearGradient id="paint9_linear_49_4097" x1="16.0215" y1="8.51832" x2="8.00424" y2="8.51832" gradientUnits="userSpaceOnUse">
<stop/>
<stop offset="1" stop-color="white" stop-opacity="0"/>
</linearGradient>
<linearGradient id="paint10_linear_49_4097" x1="13.634" y1="10.9009" x2="10.8243" y2="8.08559" gradientUnits="userSpaceOnUse">
<stop stop-color="#D68731"/>
<stop offset="1" stop-color="#FECA54"/>
</linearGradient>
<linearGradient id="paint11_linear_49_4097" x1="12.2264" y1="10.884" x2="12.2264" y2="6.88626" gradientUnits="userSpaceOnUse">
<stop stop-color="#E6B035"/>
<stop offset="1" stop-color="#F0DA86"/>
</linearGradient>
<linearGradient id="paint12_linear_49_4097" x1="13.6058" y1="13.1016" x2="9.03371" y2="8.52948" gradientUnits="userSpaceOnUse">
<stop offset="0.18" stop-color="#FFBC35"/>
<stop offset="1" stop-color="#F7F1AF"/>
</linearGradient>
<linearGradient id="paint13_linear_49_4097" x1="10.5652" y1="11.677" x2="12.2263" y2="11.677" gradientUnits="userSpaceOnUse">
<stop stop-color="white" stop-opacity="0.5"/>
<stop offset="0.78" stop-color="white" stop-opacity="0"/>
</linearGradient>
<linearGradient id="paint14_linear_49_4097" x1="11.9108" y1="15.895" x2="11.9108" y2="11.7959" gradientUnits="userSpaceOnUse">
<stop stop-color="#CF8D3A"/>
<stop offset="0.46" stop-color="#C68234"/>
<stop offset="1" stop-color="#BF7B30"/>
</linearGradient>
<linearGradient id="paint15_linear_49_4097" x1="-11.1357" y1="-38.7998" x2="-11.1357" y2="-74.0297" gradientUnits="userSpaceOnUse">
<stop stop-color="#CF8D3A"/>
<stop offset="0.46" stop-color="#C68234"/>
<stop offset="1" stop-color="#BF7B30"/>
</linearGradient>
<linearGradient id="paint16_linear_49_4097" x1="86.575" y1="-179.494" x2="86.6658" y2="-179.403" gradientUnits="userSpaceOnUse">
<stop stop-color="#CF8D3A"/>
<stop offset="0.46" stop-color="#C68234"/>
<stop offset="1" stop-color="#BF7B30"/>
</linearGradient>
<linearGradient id="paint17_linear_49_4097" x1="12.2263" y1="8.09628" x2="12.2263" y2="9.32939" gradientUnits="userSpaceOnUse">
<stop offset="0.21" stop-color="#D47C1D" stop-opacity="0.6"/>
<stop offset="0.32" stop-color="#D47C1D" stop-opacity="0.39"/>
<stop offset="0.44" stop-color="#D47C1D" stop-opacity="0.22"/>
<stop offset="0.54" stop-color="#D47C1D" stop-opacity="0.1"/>
<stop offset="0.64" stop-color="#D47C1D" stop-opacity="0.03"/>
<stop offset="0.71" stop-color="#D47C1D" stop-opacity="0"/>
</linearGradient>
<linearGradient id="paint18_linear_49_4097" x1="12.6262" y1="9.02534" x2="11.8322" y2="8.23142" gradientUnits="userSpaceOnUse">
<stop stop-color="white" stop-opacity="0"/>
<stop offset="1" stop-color="white" stop-opacity="0.7"/>
</linearGradient>
<linearGradient id="paint19_linear_49_4097" x1="13.0564" y1="10.9009" x2="10.2467" y2="8.08559" gradientUnits="userSpaceOnUse">
<stop stop-color="#D68731"/>
<stop offset="1" stop-color="#FECA54"/>
</linearGradient>
<linearGradient id="paint20_linear_49_4097" x1="11.6487" y1="10.884" x2="11.6487" y2="6.88626" gradientUnits="userSpaceOnUse">
<stop stop-color="#E6B035"/>
<stop offset="1" stop-color="#F0DA86"/>
</linearGradient>
<linearGradient id="paint21_linear_49_4097" x1="13.0282" y1="13.1016" x2="8.45607" y2="8.52948" gradientUnits="userSpaceOnUse">
<stop offset="0.18" stop-color="#FFBC35"/>
<stop offset="1" stop-color="#F7F1AF"/>
</linearGradient>
<linearGradient id="paint22_linear_49_4097" x1="9.98761" y1="11.677" x2="11.6486" y2="11.677" gradientUnits="userSpaceOnUse">
<stop stop-color="white" stop-opacity="0.5"/>
<stop offset="0.78" stop-color="white" stop-opacity="0"/>
</linearGradient>
<linearGradient id="paint23_linear_49_4097" x1="11.3331" y1="15.895" x2="11.3331" y2="11.7959" gradientUnits="userSpaceOnUse">
<stop stop-color="#CF8D3A"/>
<stop offset="0.46" stop-color="#C68234"/>
<stop offset="1" stop-color="#BF7B30"/>
</linearGradient>
<linearGradient id="paint24_linear_49_4097" x1="-11.7133" y1="-38.7998" x2="-11.7133" y2="-74.0297" gradientUnits="userSpaceOnUse">
<stop stop-color="#CF8D3A"/>
<stop offset="0.46" stop-color="#C68234"/>
<stop offset="1" stop-color="#BF7B30"/>
</linearGradient>
<linearGradient id="paint25_linear_49_4097" x1="85.9973" y1="-179.494" x2="86.0881" y2="-179.403" gradientUnits="userSpaceOnUse">
<stop stop-color="#CF8D3A"/>
<stop offset="0.46" stop-color="#C68234"/>
<stop offset="1" stop-color="#BF7B30"/>
</linearGradient>
<linearGradient id="paint26_linear_49_4097" x1="11.6487" y1="8.09628" x2="11.6487" y2="9.32939" gradientUnits="userSpaceOnUse">
<stop offset="0.21" stop-color="#D47C1D" stop-opacity="0.6"/>
<stop offset="0.32" stop-color="#D47C1D" stop-opacity="0.39"/>
<stop offset="0.44" stop-color="#D47C1D" stop-opacity="0.22"/>
<stop offset="0.54" stop-color="#D47C1D" stop-opacity="0.1"/>
<stop offset="0.64" stop-color="#D47C1D" stop-opacity="0.03"/>
<stop offset="0.71" stop-color="#D47C1D" stop-opacity="0"/>
</linearGradient>
<linearGradient id="paint27_linear_49_4097" x1="12.0485" y1="9.02534" x2="11.2546" y2="8.23142" gradientUnits="userSpaceOnUse">
<stop stop-color="white" stop-opacity="0"/>
<stop offset="1" stop-color="white" stop-opacity="0.7"/>
</linearGradient>
<linearGradient id="paint28_linear_49_4097" x1="13.5572" y1="11.019" x2="10.7462" y2="8.20806" gradientUnits="userSpaceOnUse">
<stop offset="0.12" stop-color="#909899"/>
<stop offset="1" stop-color="#C1CACC"/>
</linearGradient>
<linearGradient id="paint29_linear_49_4097" x1="15.7352" y1="13.1971" x2="11.1804" y2="8.64226" gradientUnits="userSpaceOnUse">
<stop offset="0.16" stop-color="#B1B4B5"/>
<stop offset="1" stop-color="#D0D6D9"/>
</linearGradient>
<linearGradient id="paint30_linear_49_4097" x1="-1726.64" y1="-4955.06" x2="-1715.29" y2="-4966.42" gradientUnits="userSpaceOnUse">
<stop stop-color="white" stop-opacity="0.5"/>
<stop offset="0.78" stop-color="white" stop-opacity="0"/>
</linearGradient>
<linearGradient id="paint31_linear_49_4097" x1="19.1814" y1="11.6619" x2="16.8178" y2="11.6619" gradientUnits="userSpaceOnUse">
<stop stop-color="white" stop-opacity="0"/>
<stop offset="1" stop-color="white" stop-opacity="0.7"/>
</linearGradient>
<linearGradient id="paint32_linear_49_4097" x1="11.5771" y1="9.04428" x2="12.4411" y2="9.90826" gradientUnits="userSpaceOnUse">
<stop offset="0.22" stop-opacity="0.5"/>
<stop offset="0.71" stop-opacity="0"/>
</linearGradient>
<linearGradient id="paint33_linear_49_4097" x1="13.5572" y1="10.3705" x2="10.7462" y2="7.55963" gradientUnits="userSpaceOnUse">
<stop offset="0.12" stop-color="#909899"/>
<stop offset="1" stop-color="#C1CACC"/>
</linearGradient>
<linearGradient id="paint34_linear_49_4097" x1="15.7352" y1="12.5486" x2="11.1804" y2="7.99382" gradientUnits="userSpaceOnUse">
<stop offset="0.16" stop-color="#B1B4B5"/>
<stop offset="1" stop-color="#D0D6D9"/>
</linearGradient>
<linearGradient id="paint35_linear_49_4097" x1="-1726.64" y1="-4955.71" x2="-1715.29" y2="-4967.06" gradientUnits="userSpaceOnUse">
<stop stop-color="white" stop-opacity="0.5"/>
<stop offset="0.78" stop-color="white" stop-opacity="0"/>
</linearGradient>
<linearGradient id="paint36_linear_49_4097" x1="19.1814" y1="11.0134" x2="16.8178" y2="11.0134" gradientUnits="userSpaceOnUse">
<stop stop-color="white" stop-opacity="0"/>
<stop offset="1" stop-color="white" stop-opacity="0.7"/>
</linearGradient>
<linearGradient id="paint37_linear_49_4097" x1="11.5771" y1="8.39585" x2="12.4411" y2="9.25983" gradientUnits="userSpaceOnUse">
<stop offset="0.22" stop-opacity="0.5"/>
<stop offset="0.71" stop-opacity="0"/>
</linearGradient>
<linearGradient id="paint38_linear_49_4097" x1="11.0103" y1="7.47412" x2="11.1593" y2="7.93076" gradientUnits="userSpaceOnUse">
<stop stop-color="#E1ECF0"/>
<stop offset="0.25" stop-color="#EEFAFF"/>
<stop offset="0.48" stop-color="#D8E3E8"/>
<stop offset="0.57" stop-color="#D4DFE4"/>
<stop offset="0.66" stop-color="#C9D3D7"/>
<stop offset="0.76" stop-color="#B5BEC2"/>
<stop offset="0.85" stop-color="#9AA2A4"/>
<stop offset="0.95" stop-color="#787D7F"/>
<stop offset="1" stop-color="#646869"/>
</linearGradient>
<clipPath id="clip0_49_4097">
<rect width="20" height="20" fill="white"/>
</clipPath>
<clipPath id="clip1_49_4097">
<rect width="20" height="20" fill="white"/>
</clipPath>
</defs>
</svg>
