<svg width="256" height="256" viewBox="0 0 256 256" fill="none" xmlns="http://www.w3.org/2000/svg">
<g clip-path="url(#clip0_48_840)">
<path d="M238 124.124L193.1 78.2242C191.7 76.8088 189.9 76 187.9 76H68C66.1 76 64.2 76.8088 62.8 78.2242L18 124.124H238Z" fill="#E1E3E6"/>
<path opacity="0.5" d="M238 124.124L193.1 78.2242C191.7 76.8088 189.9 76 187.9 76H68C66.1 76 64.2 76.8088 62.8 78.2242L18 124.124H238Z" fill="url(#paint0_linear_48_840)"/>
<path opacity="0.5" d="M18 124.124L62.9 78.2242C64.3 76.8088 66.1 76 68.1 76H188C189.9 76 191.8 76.8088 193.2 78.2242L238.1 124.124H18Z" fill="url(#paint1_linear_48_840)"/>
<path d="M233.07 191H23.0282C19.1125 191 16 187.904 16 184.01V128.99C16 125.096 19.1125 122 23.0282 122H232.97C236.885 122 239.998 125.096 239.998 128.99V184.01C240.098 187.805 236.885 191 233.07 191Z" fill="url(#paint2_linear_48_840)"/>
<path opacity="0.6" d="M233.07 191H23.0282C19.1125 191 16 187.904 16 184.01V128.99C16 125.096 19.1125 122 23.0282 122H232.97C236.885 122 239.998 125.096 239.998 128.99V184.01C240.098 187.805 236.885 191 233.07 191Z" fill="url(#paint3_linear_48_840)"/>
<path opacity="0.6" d="M23.0282 191H232.972C236.887 191 240 187.904 240 184.01V128.99C240 125.096 236.887 122 232.972 122H23.0282C19.1125 122 16 125.096 16 128.99V184.01C16 187.805 19.2129 191 23.0282 191Z" fill="url(#paint4_linear_48_840)"/>
<path d="M226 185H30C26.1 185 23 181.875 23 177.944V122H233V177.944C233 181.875 229.9 185 226 185Z" fill="url(#paint5_linear_48_840)"/>
<path d="M233 122.9C236.4 122.9 239.1 125.6 239.1 129V185C239.1 188.4 236.4 191.1 233 191.1H23C19.6 191.1 16.9 188.4 16.9 185V129C16.9 125.6 19.6 122.9 23 122.9H233ZM233 122H23C19.1 122 16 125.1 16 129V185C16 188.9 19.1 192 23 192H233C236.9 192 240 188.9 240 185V129C240 125.1 236.9 122 233 122Z" fill="url(#paint6_linear_48_840)"/>
<path opacity="0.15" d="M65.2468 160.253C68.4242 157.079 68.4271 151.931 65.2533 148.753C62.0794 145.576 56.9307 145.573 53.7533 148.747C50.5758 151.92 50.5729 157.069 53.7468 160.247C56.9206 163.424 62.0693 163.427 65.2468 160.253Z" stroke="#00FF00" stroke-width="6.6933" stroke-miterlimit="10"/>
<path opacity="0.3" d="M65.2468 160.253C68.4242 157.079 68.4271 151.931 65.2533 148.753C62.0794 145.576 56.9307 145.573 53.7533 148.747C50.5758 151.92 50.5729 157.069 53.7468 160.247C56.9206 163.424 62.0693 163.427 65.2468 160.253Z" stroke="#00FF00" stroke-width="3.3467" stroke-miterlimit="10"/>
<path d="M65.2468 160.253C68.4242 157.079 68.4271 151.931 65.2533 148.753C62.0794 145.576 56.9307 145.573 53.7533 148.747C50.5758 151.92 50.5729 157.069 53.7468 160.247C56.9206 163.424 62.0693 163.427 65.2468 160.253Z" fill="#00B300"/>
<path d="M58.2471 159.812C62.6733 159.091 65.6584 154.974 64.9378 150.548C64.732 149.621 64.4232 148.695 64.0114 147.871C62.3645 146.739 60.3058 146.224 58.1442 146.533C53.718 147.254 50.7329 151.371 51.4534 155.797C51.6593 156.724 51.9681 157.65 52.3799 158.473C54.0268 159.606 56.0855 160.12 58.2471 159.812Z" fill="url(#paint7_radial_48_840)"/>
<path d="M65.2468 160.253C68.4242 157.079 68.4271 151.931 65.2533 148.753C62.0794 145.576 56.9307 145.573 53.7533 148.747C50.5758 151.92 50.5729 157.069 53.7468 160.247C56.9206 163.424 62.0693 163.427 65.2468 160.253Z" stroke="#00FF00" stroke-width="1.1452" stroke-miterlimit="10"/>
<g clip-path="url(#clip1_48_840)">
<rect x="101" y="62" width="105" height="91" rx="7" fill="#FFC225"/>
<g style="mix-blend-mode:overlay" opacity="0.25">
<path fill-rule="evenodd" clip-rule="evenodd" d="M101 142.5V146C101 149.866 104.134 153 108 153H199C202.866 153 206 149.866 206 146V142.5C206 146.366 202.866 149.5 199 149.5H108C104.134 149.5 101 146.366 101 142.5Z" fill="black"/>
</g>
<g style="mix-blend-mode:overlay" opacity="0.25">
<path fill-rule="evenodd" clip-rule="evenodd" d="M108 62C104.134 62 101 65.134 101 69V72.5C101 68.634 104.134 65.5 108 65.5H199C202.866 65.5 206 68.634 206 72.5V69C206 65.134 202.866 62 199 62H108Z" fill="white"/>
</g>
<g style="mix-blend-mode:overlay" opacity="0.5">
<path d="M136 62H108C104.134 62 101 65.134 101 69V146C101 149.866 104.134 153 108 153H136V62Z" fill="url(#paint8_linear_48_840)" fill-opacity="0.5"/>
</g>
<g style="mix-blend-mode:overlay" opacity="0.5">
<path d="M206 69C206 65.134 202.866 62 199 62H108C104.134 62 101 65.134 101 69V146C101 149.866 104.134 153 108 153H199C202.866 153 206 149.866 206 146V69Z" fill="url(#paint9_linear_48_840)" fill-opacity="0.5"/>
</g>
<path d="M125 62V41C125 25.536 137.536 13 153 13V13C168.464 13 181 25.536 181 41V62" stroke="#FFD400" stroke-width="14"/>
<g style="mix-blend-mode:overlay">
<path d="M125 62L125 41.0001C125 25.5361 137.536 13 153 13V13C168.464 13 181 25.5359 181 40.9999L181 62" stroke="url(#paint10_linear_48_840)" stroke-opacity="0.25" stroke-width="14"/>
</g>
<g style="mix-blend-mode:overlay" opacity="0.25">
<path d="M125 62V41C125 25.536 137.536 13 153 13V13C168.464 13 181 25.536 181 41V62" stroke="url(#paint11_linear_48_840)" stroke-width="14"/>
</g>
<g style="mix-blend-mode:overlay" opacity="0.25">
<path fill-rule="evenodd" clip-rule="evenodd" d="M153 17C141.701 17 132.542 26.1595 132.542 37.4583V40.2915C132.542 28.9927 141.701 19.8332 153 19.8332C164.299 19.8332 173.458 28.9927 173.458 40.2915V37.4583C173.458 26.1595 164.299 17 153 17ZM173.458 62.25V65.0832H193.458V62.25H173.458ZM112.542 62.25V65.0832H132.542V62.25H112.542Z" fill="url(#paint12_linear_48_840)"/>
</g>
<path opacity="0.25" d="M101 139H206V146C206 149.866 202.866 153 199 153H108C104.134 153 101 149.866 101 146V139Z" fill="#DC9F06"/>
<path opacity="0.25" d="M101 71.345C101 66.1839 105.184 62 110.345 62H196.655C201.816 62 206 66.1839 206 71.345V75.9999H101V71.345Z" fill="#FFB900"/>
<g style="mix-blend-mode:overlay" opacity="0.25">
<path d="M101 75.9999H206V139H101V75.9999Z" fill="white"/>
</g>
<g style="mix-blend-mode:overlay" opacity="0.25">
<rect x="101" y="138" width="105" height="1" fill="white"/>
</g>
<g style="mix-blend-mode:overlay" opacity="0.25">
<rect x="101" y="139" width="105" height="1" fill="black"/>
</g>
<g style="mix-blend-mode:overlay" opacity="0.25">
<rect x="101" y="75.9999" width="105" height="1" fill="white"/>
</g>
<g style="mix-blend-mode:overlay" opacity="0.25">
<rect x="101" y="75" width="105" height="1" fill="black"/>
</g>
</g>
</g>
<path d="M151.02 90.5054C147.435 90.5054 143.884 91.2118 140.571 92.5842C137.258 93.9566 134.248 95.9682 131.713 98.5041C129.177 101.04 127.166 104.05 125.794 107.364C124.423 110.677 123.717 114.228 123.718 117.814C123.718 129.441 131.501 139.635 141.744 143.567L161.841 142.886C167.609 140.397 172.343 135.994 175.244 130.42C178.144 124.846 179.034 118.443 177.763 112.289C176.492 106.136 173.138 100.609 168.266 96.6408C163.395 92.6725 157.304 90.5056 151.02 90.5054V90.5054ZM151.02 112.404C149.746 112.404 148.501 112.026 147.441 111.318C146.382 110.61 145.556 109.604 145.068 108.426C144.581 107.249 144.453 105.954 144.702 104.704C144.95 103.454 145.564 102.306 146.465 101.405C147.366 100.504 148.514 99.8908 149.764 99.6422C151.013 99.3936 152.309 99.5212 153.486 100.009C154.663 100.496 155.669 101.322 156.377 102.382C157.085 103.441 157.463 104.687 157.463 105.961C157.463 107.67 156.784 109.308 155.576 110.517C154.368 111.725 152.729 112.404 151.02 112.404V112.404Z" fill="url(#paint13_linear_48_840)"/>
<path d="M151.02 90.5054C147.435 90.5054 143.884 91.2118 140.571 92.5842C137.258 93.9566 134.248 95.9682 131.713 98.5041C129.177 101.04 127.166 104.05 125.794 107.364C124.423 110.677 123.717 114.228 123.718 117.814C123.718 129.441 131.501 139.635 141.744 143.567L161.841 142.886C167.609 140.397 172.343 135.994 175.244 130.42C178.144 124.846 179.034 118.443 177.763 112.289C176.492 106.136 173.138 100.609 168.266 96.6408C163.395 92.6725 157.304 90.5056 151.02 90.5054V90.5054ZM151.02 112.025C147.676 112.025 139.805 109.311 139.805 105.983C139.805 102.655 147.676 99.9413 151.02 99.9413C151.817 99.9413 152.605 100.098 153.341 100.403C154.077 100.708 154.745 101.154 155.308 101.717C155.871 102.28 156.318 102.949 156.623 103.684C156.927 104.42 157.084 105.209 157.084 106.005C157.084 106.801 156.927 107.59 156.623 108.325C156.318 109.061 155.871 109.729 155.308 110.293C154.745 110.856 154.077 111.302 153.341 111.607C152.605 111.912 151.817 112.069 151.02 112.069V112.025Z" fill="url(#paint14_linear_48_840)"/>
<path d="M151.02 95.1458C145.831 95.1445 140.799 96.9235 136.764 100.186C132.729 103.448 129.935 107.996 128.849 113.07C127.764 118.144 128.452 123.437 130.798 128.064C133.145 132.692 137.009 136.375 141.744 138.497C141.744 140.255 141.744 143.567 141.744 146.143C141.744 146.143 141.431 192.652 141.744 201.264C143.688 203.22 149.62 207.614 151.844 210.025C153.063 209.19 152.75 207.449 154.64 201.264C154.722 200.122 153.096 197.738 153.096 194.569C153.096 194.053 152.064 190.175 152.064 189.934C152.064 189.868 153.118 187.275 153.096 185.864C153.096 184.167 154.14 182.425 154.129 180.662C154.129 180.596 153.481 177.636 153.613 177.57C153.514 177.664 153.096 174.61 153.096 174.478C153.058 164.592 153.052 154.854 153.096 149.213C156.156 149.213 161.884 149.965 161.884 146.637V137.734C166.315 135.329 169.817 131.515 171.837 126.896C173.857 122.278 174.28 117.117 173.039 112.231C171.797 107.345 168.963 103.013 164.983 99.9182C161.003 96.8239 156.105 95.1445 151.064 95.1458H151.02ZM151.02 112.403C149.746 112.403 148.5 112.025 147.441 111.317C146.381 110.609 145.556 109.603 145.068 108.426C144.58 107.249 144.453 105.953 144.701 104.703C144.95 103.454 145.564 102.306 146.465 101.405C147.366 100.504 148.514 99.8901 149.763 99.6415C151.013 99.3929 152.309 99.5205 153.486 100.008C154.663 100.496 155.669 101.322 156.377 102.381C157.085 103.44 157.463 104.686 157.463 105.96C157.463 107.669 156.784 109.308 155.576 110.516C154.368 111.724 152.729 112.403 151.02 112.403Z" fill="url(#paint15_linear_48_840)"/>
<path d="M151.02 95.1458C145.831 95.1445 140.799 96.9235 136.764 100.186C132.729 103.448 129.935 107.996 128.849 113.07C127.764 118.144 128.452 123.437 130.798 128.064C133.145 132.692 137.009 136.375 141.744 138.497C141.744 140.255 141.744 143.567 141.744 146.143C141.744 146.143 141.431 191.625 141.744 200.237" stroke="url(#paint16_linear_48_840)" stroke-width="0.351514" stroke-miterlimit="10"/>
<path d="M152.031 210.025C153.256 209.19 154.003 206.807 158.122 201.265C158.205 200.122 158.216 195.679 158.216 192.51C157.408 191.516 155.601 188.94 155.64 188.901C155.678 188.863 157.837 186.155 158.122 185.864C158.122 184.167 158.078 182.426 158.062 180.663C158.062 180.597 155.42 177.637 155.546 177.571C155.453 177.664 158.023 174.61 158.023 174.478C157.985 164.592 158.023 154.854 158.089 149.213H152.031V210.025Z" fill="#EBB850"/>
<path d="M144.836 203.846V149.235H148.444V206.933L144.836 203.846Z" fill="#EBB850"/>
<path d="M144.836 203.846V149.235H146.385H148.444L146.385 151.295V205.17L144.836 203.846Z" fill="url(#paint17_linear_48_840)"/>
<path d="M152.047 210.025V149.235H153.596H157.716L153.596 151.295V207.966L152.047 210.025Z" fill="url(#paint18_linear_48_840)"/>
<g style="mix-blend-mode:multiply" opacity="0.2">
<g style="mix-blend-mode:multiply" opacity="0.2">
<path d="M151.02 90.6921C157.26 90.6955 163.308 92.8498 168.144 96.7919C172.981 100.734 176.31 106.223 177.572 112.334C178.834 118.444 177.95 124.803 175.071 130.338C172.191 135.874 167.492 140.247 161.764 142.722L161.654 142.766V146.66C161.654 148.093 160.522 148.857 158.089 149.065H157.924V149.236C157.875 155.475 157.82 164.872 157.859 174.429C157.688 174.693 156.42 176.231 155.865 176.901C155.634 177.175 155.508 177.335 155.436 177.45C155.316 177.609 155.299 177.637 157.205 179.861C157.513 180.218 157.826 180.581 157.919 180.702C157.919 181.394 157.919 182.08 157.919 182.761C157.919 183.799 157.952 184.782 157.952 185.771C157.738 186.007 157.166 186.699 156.65 187.331C155.859 188.292 155.601 188.627 155.513 188.77C155.425 188.913 155.409 188.935 156.474 190.418C157.101 191.302 157.683 192.065 158.045 192.538C158.045 197.415 158.012 200.227 157.957 201.161C155.898 203.907 154.706 205.873 153.833 207.296C153.386 208.122 152.848 208.896 152.229 209.603V209.383L151.921 209.674L151.839 209.74C151.152 209.009 150.103 208.043 148.543 206.714L148.241 206.45V206.499L145.001 203.72L144.935 203.665C144.435 203.242 143.941 202.847 143.457 202.468C142.815 201.957 142.255 201.518 141.887 201.155C141.771 197.86 141.804 189.072 141.843 179.735C141.843 174.61 141.887 169.299 141.887 164.439V146.143C141.887 145.748 141.887 145.336 141.887 144.913C141.887 144.49 141.887 144.023 141.887 143.567V143.441L141.766 143.397C136.639 141.391 132.203 137.942 128.996 133.467C125.678 128.92 123.879 123.442 123.855 117.814C123.862 110.623 126.722 103.729 131.807 98.6438C136.891 93.5591 143.786 90.6994 150.977 90.6921H151.02ZM150.977 90.5054C143.742 90.517 136.808 93.3994 131.697 98.5196C126.586 103.64 123.716 110.579 123.718 117.814C123.718 129.441 131.501 139.635 141.744 143.567C141.744 144.452 141.744 145.336 141.744 146.143V164.482C141.744 178.51 141.563 196.267 141.744 201.282C142.386 201.93 143.655 202.836 144.853 203.852L148.461 206.944V206.9C149.812 208.065 151.048 209.18 151.844 210.036C151.922 209.982 151.996 209.921 152.064 209.855V210.025C153.289 209.191 154.036 206.807 158.155 201.265C158.237 200.123 158.248 195.679 158.248 192.51C157.441 191.516 155.634 188.94 155.673 188.902C155.711 188.863 157.87 186.155 158.155 185.864C158.155 184.167 158.111 182.426 158.095 180.663C158.095 180.597 155.497 177.686 155.579 177.571C155.579 177.571 158.056 174.605 158.056 174.479C158.018 164.62 158.056 154.865 158.122 149.247C160.16 149.076 161.857 148.472 161.857 146.66V142.886C167.626 140.397 172.36 135.994 175.26 130.42C178.161 124.846 179.051 118.443 177.78 112.289C176.509 106.136 173.154 100.609 168.283 96.6408C163.411 92.6725 157.32 90.5056 151.037 90.5054H150.977Z" fill="black"/>
</g>
</g>
<path d="M161.84 137.904V142.6C162.907 142.139 163.938 141.601 164.927 140.991L161.84 137.904Z" fill="url(#paint19_linear_48_840)"/>
<path d="M151.02 97.5518C149.356 97.5507 147.728 98.0434 146.343 98.9676C144.959 99.8918 143.879 101.206 143.242 102.744C142.604 104.281 142.437 105.974 142.762 107.606C143.086 109.239 143.888 110.739 145.065 111.916C146.242 113.093 147.742 113.895 149.374 114.219C151.007 114.544 152.7 114.377 154.237 113.739C155.775 113.101 157.089 112.022 158.013 110.638C158.937 109.253 159.43 107.625 159.429 105.961C159.429 103.731 158.543 101.592 156.966 100.015C155.389 98.4378 153.25 97.5518 151.02 97.5518V97.5518ZM151.02 112.041C149.815 112.036 148.639 111.675 147.639 111.003C146.639 110.33 145.861 109.376 145.403 108.262C144.945 107.148 144.828 105.923 145.065 104.741C145.303 103.56 145.886 102.476 146.739 101.626C147.592 100.775 148.679 100.197 149.861 99.9632C151.043 99.7298 152.268 99.8518 153.38 100.314C154.493 100.776 155.444 101.557 156.113 102.559C156.782 103.562 157.139 104.739 157.139 105.944C157.139 106.745 156.981 107.538 156.674 108.279C156.367 109.019 155.918 109.691 155.351 110.257C154.784 110.823 154.112 111.272 153.371 111.578C152.631 111.884 151.838 112.041 151.037 112.041H151.02Z" fill="url(#paint20_linear_48_840)"/>
<g opacity="0.5">
<path opacity="0.5" d="M151.02 98.7434C152.449 98.7445 153.845 99.1692 155.032 99.9637C156.219 100.758 157.144 101.887 157.69 103.207C158.235 104.527 158.377 105.98 158.097 107.38C157.818 108.781 157.129 110.068 156.118 111.077C155.107 112.086 153.82 112.773 152.418 113.051C151.017 113.328 149.565 113.184 148.246 112.637C146.926 112.089 145.799 111.162 145.006 109.974C144.214 108.786 143.791 107.389 143.792 105.96C143.792 105.012 143.979 104.073 144.342 103.197C144.705 102.321 145.237 101.526 145.908 100.855C146.579 100.185 147.375 99.6536 148.251 99.2912C149.128 98.9288 150.067 98.7427 151.015 98.7434H151.02ZM151.015 98.3699C149.513 98.3721 148.045 98.8196 146.797 99.6558C145.549 100.492 144.577 101.679 144.004 103.068C143.431 104.456 143.283 105.984 143.578 107.457C143.872 108.929 144.597 110.282 145.66 111.343C146.724 112.404 148.078 113.126 149.551 113.417C151.025 113.709 152.552 113.557 153.939 112.981C155.326 112.405 156.512 111.431 157.345 110.181C158.179 108.931 158.623 107.463 158.622 105.96C158.619 103.948 157.818 102.019 156.395 100.596C154.973 99.1735 153.044 98.3728 151.031 98.3699H151.015Z" fill="url(#paint21_linear_48_840)"/>
</g>
<g style="mix-blend-mode:multiply" opacity="0.36">
<g style="mix-blend-mode:multiply" opacity="0.36">
<path d="M131.709 117.038C131.826 124.12 134.699 130.878 139.717 135.877C140.228 136.388 140.761 136.877 141.31 137.344C141.7 137.673 142.101 137.986 142.507 138.288C143.122 138.75 143.754 139.184 144.402 139.59C145.122 140.035 145.858 140.452 146.599 140.826L146.709 140.875C147.049 141.045 147.39 141.205 147.736 141.359C150.727 142.666 153.921 143.449 157.177 143.671C157.397 143.671 161.22 143.786 162.351 143.704C162.351 143.556 161.368 142.798 161.368 142.649C161.555 142.567 164.85 140.59 165.372 140.244C165.372 140.244 166.147 139.865 166.169 139.843C166.619 139.546 166.438 140.266 166.866 139.942L167.141 139.733C167.443 139.502 167.739 139.255 168.03 139.008C168.734 138.416 169.406 137.789 170.046 137.129L170.227 136.937C170.612 136.531 170.985 136.108 171.326 135.679L131.709 117.038Z" fill="black"/>
</g>
</g>
<path d="M139.717 94.9922C134.597 100.112 131.72 107.057 131.72 114.298C131.72 121.539 134.597 128.484 139.717 133.604C147.956 141.842 160.654 143.529 170.683 139.096L184.414 124.409C186.75 118.566 186.997 112.096 185.112 106.092C183.228 100.088 179.327 94.9196 174.071 91.46C168.814 88.0005 162.524 86.4625 156.265 87.1061C150.005 87.7497 144.16 90.5355 139.717 94.9922V94.9922ZM154.777 110.03C153.963 110.84 152.928 111.391 151.802 111.613C150.675 111.834 149.508 111.718 148.448 111.277C147.388 110.836 146.482 110.091 145.845 109.136C145.208 108.181 144.868 107.059 144.868 105.911C144.868 104.763 145.208 103.641 145.845 102.686C146.482 101.731 147.388 100.986 148.448 100.545C149.508 100.105 150.675 99.9878 151.802 100.21C152.928 100.431 153.963 100.982 154.777 101.792C155.32 102.332 155.751 102.974 156.044 103.681C156.338 104.387 156.49 105.146 156.49 105.911C156.49 106.677 156.338 107.435 156.044 108.142C155.751 108.849 155.32 109.49 154.777 110.03Z" fill="#C6C6C6"/>
<path d="M139.717 94.9922C134.597 100.112 131.72 107.057 131.72 114.298C131.72 121.539 134.597 128.484 139.717 133.604C147.956 141.842 160.654 143.529 170.683 139.096L184.414 124.409C186.75 118.566 186.997 112.096 185.112 106.092C183.228 100.088 179.327 94.9196 174.071 91.46C168.814 88.0005 162.524 86.4625 156.265 87.1061C150.005 87.7497 144.16 90.5355 139.717 94.9922V94.9922ZM155.052 111.162C154.179 112.035 153.068 112.629 151.857 112.871C150.647 113.112 149.392 112.988 148.252 112.516C147.111 112.044 146.137 111.244 145.451 110.218C144.765 109.192 144.399 107.986 144.399 106.751C144.399 105.517 144.765 104.311 145.451 103.285C146.137 102.258 147.111 101.459 148.252 100.987C149.392 100.514 150.647 100.391 151.857 100.632C153.068 100.873 154.179 101.468 155.052 102.341C155.631 102.92 156.091 103.607 156.405 104.364C156.719 105.121 156.88 105.932 156.88 106.751C156.88 107.571 156.719 108.382 156.405 109.139C156.091 109.895 155.631 110.583 155.052 111.162V111.162Z" fill="url(#paint22_linear_48_840)"/>
<path d="M142.996 98.2714C139.329 101.941 137.031 106.758 136.487 111.917C135.942 117.076 137.183 122.267 140.003 126.621C142.823 130.976 147.052 134.232 151.982 135.845C156.913 137.459 162.248 137.333 167.097 135.488L172.501 140.892C172.501 140.892 205.307 173.847 211.624 179.729C214.37 179.729 221.51 178.801 224.805 178.933C225.08 177.477 223.63 176.467 220.593 170.76C219.84 169.892 217.006 169.36 214.765 167.119C214.403 166.756 210.921 164.751 210.756 164.57C210.712 164.526 209.624 161.945 208.608 160.962C207.394 159.781 206.917 157.793 205.659 156.568C205.615 156.518 203.061 154.882 203.11 154.744C203.11 154.882 200.65 153.014 200.556 152.926C193.554 145.978 186.65 139.074 182.712 135.076C184.87 132.912 189.429 129.413 187.106 127.063L185.288 125.245L180.795 120.746C182.227 115.913 182.007 110.739 180.17 106.045C178.333 101.35 174.983 97.4017 170.65 94.8244C166.317 92.2471 161.248 91.1878 156.246 91.8141C151.244 92.4404 146.593 94.7165 143.029 98.2824L142.996 98.2714ZM155.277 110.552C154.361 111.468 153.195 112.091 151.925 112.344C150.655 112.596 149.339 112.466 148.143 111.971C146.946 111.475 145.924 110.636 145.205 109.559C144.485 108.483 144.101 107.217 144.101 105.922C144.101 104.628 144.485 103.362 145.205 102.285C145.924 101.209 146.946 100.369 148.143 99.8739C149.339 99.3783 150.655 99.2486 151.925 99.501C153.195 99.7535 154.361 100.377 155.277 101.292C156.504 102.521 157.193 104.186 157.193 105.922C157.193 107.659 156.504 109.324 155.277 110.552V110.552Z" fill="url(#paint23_linear_48_840)"/>
<path d="M142.996 98.2709C139.329 101.941 137.031 106.757 136.487 111.917C135.942 117.076 137.183 122.266 140.003 126.621C142.823 130.975 147.051 134.231 151.982 135.845C156.913 137.458 162.248 137.332 167.097 135.487L172.501 140.892C172.501 140.892 204.582 173.132 210.893 178.998" stroke="url(#paint24_linear_48_840)" stroke-width="0.351514" stroke-miterlimit="10"/>
<path d="M224.959 178.773C225.234 177.317 224.075 175.11 223.075 168.277C222.323 167.409 219.187 164.262 216.946 162.021C215.672 161.889 212.552 161.34 212.552 161.291C212.552 161.241 212.156 157.77 212.156 157.386C210.959 156.188 209.696 154.985 208.438 153.75C208.389 153.706 204.429 153.48 204.473 153.343C204.473 153.48 204.127 149.498 204.039 149.405C197.069 142.468 190.198 135.509 186.26 131.483L181.976 135.767L224.959 178.773Z" fill="#C2C5C7"/>
<path d="M215.49 179.504L176.873 140.892L179.427 138.338L220.225 179.141L215.49 179.504Z" fill="#C2C5C7"/>
<g style="mix-blend-mode:multiply" opacity="0.4">
<path d="M215.49 179.504L176.873 140.892L177.966 139.799L179.427 138.338V141.255L217.517 179.35L215.49 179.504Z" fill="black"/>
</g>
<g style="mix-blend-mode:multiply" opacity="0.4">
<path d="M224.959 178.774L181.976 135.79L183.069 134.697L185.98 131.786L184.524 136.158L224.597 176.225L224.959 178.774Z" fill="black"/>
</g>
<g style="mix-blend-mode:multiply" opacity="0.2">
<g style="mix-blend-mode:multiply" opacity="0.2">
<path d="M159.023 87.1765C163.454 87.1753 167.817 88.2593 171.732 90.3336C175.647 92.4079 178.995 95.4095 181.483 99.076C183.97 102.743 185.522 106.963 186.002 111.367C186.483 115.772 185.877 120.227 184.238 124.344L184.194 124.453L184.277 124.536L184.727 124.986L185.128 125.387L186.946 127.205C187.957 128.221 187.699 129.561 186.128 131.423L186.018 131.555L186.133 131.67C190.527 136.119 197.118 142.803 203.901 149.532C203.973 149.839 204.159 151.827 204.242 152.69C204.275 153.047 204.297 153.239 204.319 153.371C204.352 153.574 204.352 153.607 207.279 153.827C207.746 153.865 208.229 153.898 208.378 153.92C208.866 154.403 209.361 154.881 209.849 155.354C210.596 156.079 211.305 156.765 212.008 157.463C212.046 157.968 212.255 160.654 212.403 161.307C212.403 161.5 212.403 161.505 214.26 161.824C215.331 162.005 216.303 162.148 216.874 162.208C220.323 165.663 222.301 167.701 222.916 168.376C223.416 171.781 223.948 174 224.338 175.626C224.602 176.521 224.768 177.442 224.833 178.372L224.679 178.218V178.641C224.682 178.676 224.682 178.711 224.679 178.746H224.13C223.163 178.746 221.933 178.806 220.203 178.932L219.802 178.96L219.835 178.993L215.578 179.322H215.49C214.095 179.438 212.673 179.548 211.717 179.553C207.988 176.076 195.476 163.625 185.606 153.739C178.537 146.665 172.715 140.815 172.655 140.755L172.249 140.354L170.831 138.937L170.744 138.843L170.628 138.898C167.035 140.477 163.151 141.291 159.226 141.288C155.641 141.349 152.08 140.698 148.749 139.372C145.418 138.045 142.384 136.07 139.823 133.561C137.262 131.052 135.225 128.059 133.831 124.756C132.436 121.453 131.712 117.906 131.7 114.321C131.688 110.736 132.388 107.184 133.761 103.872C135.133 100.56 137.15 97.5533 139.694 95.0272C142.238 92.5011 145.259 90.5058 148.581 89.1571C151.903 87.8085 155.46 87.1333 159.045 87.171L159.023 87.1765ZM159.045 86.9897C155.436 86.9519 151.855 87.6316 148.511 88.9893C145.167 90.347 142.126 92.3556 139.565 94.8986C137.004 97.4415 134.974 100.468 133.592 103.802C132.211 107.136 131.505 110.712 131.517 114.321C131.529 117.93 132.258 121.501 133.662 124.826C135.066 128.151 137.116 131.164 139.694 133.69C142.272 136.216 145.326 138.204 148.679 139.539C152.032 140.875 155.617 141.531 159.226 141.469C163.178 141.477 167.089 140.658 170.705 139.063L172.523 140.887C172.523 140.887 178.323 146.714 185.48 153.865C195.366 163.784 207.999 176.318 211.645 179.723C212.557 179.723 213.936 179.625 215.49 179.493L220.225 179.13L220.192 179.097C221.642 178.987 223.015 178.911 224.108 178.911H224.8C224.816 178.816 224.827 178.721 224.833 178.625L224.959 178.751C225.234 177.296 224.075 175.088 223.075 168.255C222.323 167.387 219.187 164.24 216.946 161.999C215.671 161.868 212.552 161.318 212.552 161.269C212.552 161.219 212.156 157.748 212.156 157.364C210.959 156.166 209.696 154.964 208.438 153.728C208.394 153.684 204.494 153.459 204.472 153.321C204.472 153.321 204.126 149.477 204.039 149.383C197.069 142.468 190.209 135.515 186.265 131.517C187.583 129.951 188.358 128.331 187.073 127.051L185.255 125.233L184.436 124.382C186.082 120.237 186.688 115.752 186.2 111.319C185.713 106.886 184.148 102.64 181.64 98.9517C179.133 95.2634 175.761 92.2453 171.818 90.161C167.876 88.0767 163.483 86.9898 159.023 86.9952L159.045 86.9897Z" fill="black"/>
</g>
</g>
<g style="mix-blend-mode:multiply" opacity="0.3">
<path d="M180.882 120.856L184.178 124.151C184.178 124.151 185.491 122.141 185.276 120.856H180.882Z" fill="#808080"/>
</g>
<g opacity="0.5">
<path opacity="0.5" d="M150.647 98.5564C152.351 98.5533 154.003 99.141 155.322 100.219C156.641 101.298 157.546 102.8 157.881 104.471C158.217 106.141 157.963 107.876 157.163 109.38C156.363 110.885 155.066 112.065 153.493 112.72C151.921 113.376 150.169 113.466 148.538 112.974C146.906 112.483 145.495 111.442 144.546 110.027C143.596 108.613 143.166 106.913 143.329 105.217C143.492 103.521 144.238 101.934 145.44 100.726C146.123 100.041 146.935 99.4972 147.828 99.1267C148.722 98.7563 149.68 98.5662 150.647 98.5674V98.5564ZM150.647 98.1884C148.856 98.1921 147.122 98.8165 145.739 99.9553C144.357 101.094 143.412 102.677 143.065 104.434C142.719 106.191 142.992 108.014 143.838 109.592C144.684 111.171 146.052 112.407 147.707 113.091C149.362 113.774 151.204 113.863 152.917 113.342C154.63 112.821 156.11 111.722 157.105 110.232C158.099 108.742 158.546 106.954 158.37 105.172C158.194 103.389 157.406 101.723 156.139 100.457C155.42 99.7332 154.564 99.16 153.621 98.7706C152.678 98.3811 151.667 98.1832 150.647 98.1884V98.1884Z" fill="url(#paint25_linear_48_840)"/>
</g>
<g style="mix-blend-mode:multiply" opacity="0.3">
<path d="M107.674 120.356C108.223 122.103 122.399 114.968 124.151 114.408C124.151 114.408 123.921 120.01 124.668 122.257C124.668 122.317 128.71 119.719 128.71 119.719L132.972 118.302L132.857 117.033L137.124 114.457L149.993 110.36L152.888 108.877C151.388 109.284 150.103 109.426 149.543 107.663L153.525 105.357C152.976 103.615 152.767 102.517 151.026 103.077L109.833 116.204C109.417 116.333 109.032 116.544 108.698 116.823C108.364 117.102 108.089 117.444 107.888 117.83C107.688 118.216 107.566 118.638 107.529 119.072C107.492 119.505 107.541 119.942 107.674 120.356V120.356Z" fill="black"/>
</g>
<path style="mix-blend-mode:multiply" d="M144.699 100.057C143.521 101.233 142.72 102.732 142.395 104.365C142.07 105.997 142.236 107.689 142.873 109.227C143.509 110.765 144.588 112.079 145.972 113.004C147.356 113.929 148.983 114.422 150.647 114.422C152.311 114.422 153.938 113.929 155.322 113.004C156.706 112.079 157.784 110.765 158.421 109.227C159.058 107.689 159.224 105.997 158.899 104.365C158.574 102.732 157.772 101.233 156.595 100.057C155.017 98.4795 152.878 97.5936 150.647 97.5936C148.416 97.5936 146.277 98.4795 144.699 100.057V100.057ZM154.958 110.289C154.106 111.141 153.019 111.722 151.837 111.957C150.654 112.192 149.429 112.071 148.315 111.61C147.201 111.148 146.249 110.367 145.579 109.364C144.909 108.362 144.552 107.183 144.552 105.977C144.552 104.772 144.909 103.593 145.579 102.59C146.249 101.588 147.201 100.807 148.315 100.345C149.429 99.8836 150.654 99.7627 151.837 99.9978C153.019 100.233 154.106 100.813 154.958 101.666C156.101 102.81 156.742 104.361 156.742 105.977C156.742 107.594 156.101 109.145 154.958 110.289V110.289Z" fill="url(#paint26_linear_48_840)"/>
<path d="M106.675 119.868C106.806 120.283 107.018 120.668 107.298 121.001C107.579 121.333 107.923 121.607 108.31 121.807C108.697 122.006 109.12 122.126 109.553 122.161C109.987 122.196 110.424 122.144 110.838 122.01L152.031 108.883C152.447 108.752 152.832 108.54 153.166 108.259C153.499 107.978 153.773 107.633 153.972 107.246C154.171 106.858 154.292 106.435 154.326 106C154.361 105.565 154.309 105.128 154.173 104.714V104.714C154.041 104.299 153.829 103.914 153.548 103.581C153.266 103.248 152.922 102.975 152.534 102.776C152.147 102.578 151.723 102.458 151.289 102.424C150.855 102.389 150.418 102.442 150.004 102.578L108.811 115.699C108.396 115.83 108.011 116.043 107.678 116.324C107.345 116.605 107.072 116.95 106.873 117.338C106.675 117.725 106.555 118.148 106.521 118.583C106.487 119.017 106.539 119.454 106.675 119.868Z" fill="url(#paint27_linear_48_840)"/>
<g style="mix-blend-mode:multiply" opacity="0.85">
<g style="mix-blend-mode:multiply" opacity="0.85">
<path d="M106.603 119.872C106.735 120.286 106.947 120.67 107.228 121.002C107.508 121.334 107.851 121.607 108.238 121.805C108.624 122.004 109.046 122.124 109.479 122.159C109.912 122.194 110.348 122.143 110.761 122.009L151.877 108.915C152.291 108.783 152.674 108.57 153.005 108.289C153.336 108.009 153.609 107.665 153.807 107.279C154.005 106.892 154.125 106.471 154.159 106.038C154.194 105.605 154.142 105.17 154.008 104.757V104.757C153.876 104.342 153.663 103.957 153.381 103.624C153.099 103.292 152.754 103.018 152.366 102.82C151.978 102.622 151.554 102.503 151.119 102.469C150.685 102.436 150.248 102.489 149.834 102.626L108.734 115.714C108.321 115.847 107.937 116.059 107.606 116.34C107.275 116.621 107.003 116.964 106.805 117.35C106.607 117.737 106.487 118.158 106.452 118.591C106.418 119.024 106.469 119.459 106.603 119.872V119.872Z" fill="white"/>
</g>
<g style="mix-blend-mode:multiply" opacity="0.85">
<g style="mix-blend-mode:multiply" opacity="0.4">
<g style="mix-blend-mode:multiply" opacity="0.4">
<path d="M106.603 119.872C106.735 120.286 106.947 120.67 107.228 121.002C107.508 121.334 107.851 121.607 108.238 121.805C108.624 122.004 109.046 122.124 109.479 122.159C109.912 122.194 110.348 122.143 110.761 122.009L151.877 108.915C152.291 108.783 152.674 108.57 153.005 108.289C153.336 108.009 153.609 107.665 153.807 107.279C154.005 106.892 154.125 106.471 154.159 106.038C154.194 105.605 154.142 105.17 154.008 104.757V104.757C153.876 104.342 153.663 103.957 153.381 103.624C153.099 103.292 152.754 103.018 152.366 102.82C151.978 102.622 151.554 102.503 151.119 102.469C150.685 102.436 150.248 102.489 149.834 102.626L108.734 115.714C108.321 115.847 107.937 116.059 107.606 116.34C107.275 116.621 107.003 116.964 106.805 117.35C106.607 117.737 106.487 118.158 106.452 118.591C106.418 119.024 106.469 119.459 106.603 119.872V119.872Z" fill="black"/>
</g>
</g>
</g>
</g>
<path d="M154.19 105.153C154.324 105.566 154.375 106.001 154.34 106.434C154.306 106.867 154.186 107.289 153.988 107.675C153.79 108.061 153.518 108.405 153.187 108.686C152.855 108.966 152.472 109.179 152.059 109.311L110.942 122.399C110.53 122.534 110.094 122.585 109.661 122.55C109.229 122.516 108.807 122.396 108.421 122.198C108.034 122 107.691 121.728 107.41 121.396C107.129 121.065 106.917 120.682 106.785 120.268V120.268C106.785 120.268 108.015 121.619 110.443 120.916C112.87 120.213 152.185 107.735 152.185 107.735C152.185 107.735 154.266 106.872 154.19 105.153Z" fill="url(#paint28_linear_48_840)"/>
<g style="mix-blend-mode:multiply" opacity="0.4">
<g style="mix-blend-mode:multiply" opacity="0.4">
<path d="M154.19 105.153C154.324 105.566 154.375 106.001 154.34 106.434C154.306 106.867 154.186 107.289 153.988 107.675C153.79 108.061 153.518 108.405 153.187 108.686C152.855 108.966 152.472 109.179 152.059 109.311L110.942 122.399C110.53 122.534 110.094 122.585 109.661 122.55C109.229 122.516 108.807 122.396 108.421 122.198C108.034 122 107.691 121.728 107.41 121.396C107.129 121.065 106.917 120.682 106.785 120.268V120.268C106.785 120.268 108.015 121.619 110.443 120.916C112.87 120.213 152.185 107.735 152.185 107.735C152.185 107.735 154.266 106.872 154.19 105.153Z" fill="black"/>
</g>
</g>
<defs>
<linearGradient id="paint0_linear_48_840" x1="177.64" y1="75.4819" x2="185.866" y2="67.8948" gradientUnits="userSpaceOnUse">
<stop stop-color="white" stop-opacity="0"/>
<stop offset="0.2836" stop-color="#DCDCDC" stop-opacity="0.1418"/>
<stop offset="0.9093" stop-color="#838383" stop-opacity="0.4546"/>
<stop offset="1" stop-color="#767676" stop-opacity="0.5"/>
</linearGradient>
<linearGradient id="paint1_linear_48_840" x1="78.3599" y1="75.4819" x2="70.1344" y2="67.8948" gradientUnits="userSpaceOnUse">
<stop stop-color="white" stop-opacity="0"/>
<stop offset="0.2836" stop-color="#DCDCDC" stop-opacity="0.1418"/>
<stop offset="0.9093" stop-color="#838383" stop-opacity="0.4546"/>
<stop offset="1" stop-color="#767676" stop-opacity="0.5"/>
</linearGradient>
<linearGradient id="paint2_linear_48_840" x1="128.049" y1="190.963" x2="128.049" y2="121.938" gradientUnits="userSpaceOnUse">
<stop stop-color="#ABABAB"/>
<stop offset="0.1971" stop-color="#A7A7A7"/>
<stop offset="0.3984" stop-color="#9B9B9B"/>
<stop offset="0.6016" stop-color="#868686"/>
<stop offset="0.8047" stop-color="#6A6A6A"/>
<stop offset="1" stop-color="#474747"/>
</linearGradient>
<linearGradient id="paint3_linear_48_840" x1="95.5783" y1="124.156" x2="87.6197" y2="116.154" gradientUnits="userSpaceOnUse">
<stop stop-color="white" stop-opacity="0"/>
<stop offset="0.4506" stop-color="#BBBBBB" stop-opacity="0.2253"/>
<stop offset="0.8188" stop-color="#898989" stop-opacity="0.4094"/>
<stop offset="1" stop-color="#767676" stop-opacity="0.5"/>
</linearGradient>
<linearGradient id="paint4_linear_48_840" x1="160.521" y1="124.156" x2="168.48" y2="116.154" gradientUnits="userSpaceOnUse">
<stop stop-color="white" stop-opacity="0"/>
<stop offset="0.4506" stop-color="#BBBBBB" stop-opacity="0.2253"/>
<stop offset="0.8188" stop-color="#898989" stop-opacity="0.4094"/>
<stop offset="1" stop-color="#767676" stop-opacity="0.5"/>
</linearGradient>
<linearGradient id="paint5_linear_48_840" x1="128" y1="185" x2="128" y2="121.986" gradientUnits="userSpaceOnUse">
<stop stop-color="#666666"/>
<stop offset="0.109" stop-color="#5E5E5E"/>
<stop offset="0.6917" stop-color="#393939"/>
<stop offset="1" stop-color="#2B2B2B"/>
</linearGradient>
<linearGradient id="paint6_linear_48_840" x1="128" y1="192" x2="128" y2="122" gradientUnits="userSpaceOnUse">
<stop stop-color="#C9C9C9"/>
<stop offset="0.3698" stop-color="#CDCDCD"/>
<stop offset="0.7464" stop-color="#D9D9D9"/>
<stop offset="1" stop-color="#E6E6E6"/>
</linearGradient>
<radialGradient id="paint7_radial_48_840" cx="0" cy="0" r="1" gradientUnits="userSpaceOnUse" gradientTransform="translate(57.5524 155.526) rotate(-117.661) scale(10.8371 9.75135)">
<stop stop-color="#BDFFBD"/>
<stop offset="1" stop-color="#00FF00"/>
</radialGradient>
<linearGradient id="paint8_linear_48_840" x1="136" y1="107.5" x2="101" y2="107.5" gradientUnits="userSpaceOnUse">
<stop stop-color="white" stop-opacity="0"/>
<stop offset="1"/>
</linearGradient>
<linearGradient id="paint9_linear_48_840" x1="206" y1="107.5" x2="101" y2="107.5" gradientUnits="userSpaceOnUse">
<stop/>
<stop offset="1" stop-color="white" stop-opacity="0"/>
</linearGradient>
<linearGradient id="paint10_linear_48_840" x1="153" y1="13" x2="153" y2="28.8693" gradientUnits="userSpaceOnUse">
<stop stop-color="white"/>
<stop offset="1"/>
</linearGradient>
<linearGradient id="paint11_linear_48_840" x1="153" y1="4.25" x2="153" y2="62" gradientUnits="userSpaceOnUse">
<stop offset="0.563214" stop-color="white"/>
<stop offset="1"/>
</linearGradient>
<linearGradient id="paint12_linear_48_840" x1="153" y1="18.3356" x2="153" y2="65.0832" gradientUnits="userSpaceOnUse">
<stop/>
<stop offset="1" stop-opacity="0"/>
</linearGradient>
<linearGradient id="paint13_linear_48_840" x1="170.37" y1="137.07" x2="131.759" y2="98.4584" gradientUnits="userSpaceOnUse">
<stop stop-color="#D68731"/>
<stop offset="1" stop-color="#FECA54"/>
</linearGradient>
<linearGradient id="paint14_linear_48_840" x1="151.015" y1="136.762" x2="151.015" y2="82.1569" gradientUnits="userSpaceOnUse">
<stop stop-color="#E6B035"/>
<stop offset="1" stop-color="#F0DA86"/>
</linearGradient>
<linearGradient id="paint15_linear_48_840" x1="169.892" y1="167.03" x2="107.334" y2="104.472" gradientUnits="userSpaceOnUse">
<stop offset="0.18" stop-color="#FFBC35"/>
<stop offset="1" stop-color="#F7F1AF"/>
</linearGradient>
<linearGradient id="paint16_linear_48_840" x1="128.172" y1="147.604" x2="151.015" y2="147.604" gradientUnits="userSpaceOnUse">
<stop stop-color="white" stop-opacity="0.5"/>
<stop offset="0.78" stop-color="white" stop-opacity="0"/>
</linearGradient>
<linearGradient id="paint17_linear_48_840" x1="146.637" y1="205.17" x2="146.637" y2="149.235" gradientUnits="userSpaceOnUse">
<stop stop-color="#CF8D3A"/>
<stop offset="0.46" stop-color="#C68234"/>
<stop offset="1" stop-color="#BF7B30"/>
</linearGradient>
<linearGradient id="paint18_linear_48_840" x1="402.24" y1="13075.6" x2="402.24" y2="6347.37" gradientUnits="userSpaceOnUse">
<stop stop-color="#CF8D3A"/>
<stop offset="0.46" stop-color="#C68234"/>
<stop offset="1" stop-color="#BF7B30"/>
</linearGradient>
<linearGradient id="paint19_linear_48_840" x1="-625.886" y1="1806.58" x2="-608.512" y2="1823.96" gradientUnits="userSpaceOnUse">
<stop stop-color="#CF8D3A"/>
<stop offset="0.46" stop-color="#C68234"/>
<stop offset="1" stop-color="#BF7B30"/>
</linearGradient>
<linearGradient id="paint20_linear_48_840" x1="151.015" y1="98.6887" x2="151.015" y2="115.512" gradientUnits="userSpaceOnUse">
<stop offset="0.21" stop-color="#D47C1D" stop-opacity="0.6"/>
<stop offset="0.32" stop-color="#D47C1D" stop-opacity="0.39"/>
<stop offset="0.44" stop-color="#D47C1D" stop-opacity="0.22"/>
<stop offset="0.54" stop-color="#D47C1D" stop-opacity="0.1"/>
<stop offset="0.64" stop-color="#D47C1D" stop-opacity="0.03"/>
<stop offset="0.71" stop-color="#D47C1D" stop-opacity="0"/>
</linearGradient>
<linearGradient id="paint21_linear_48_840" x1="156.386" y1="111.327" x2="145.654" y2="100.594" gradientUnits="userSpaceOnUse">
<stop stop-color="white" stop-opacity="0"/>
<stop offset="1" stop-color="white" stop-opacity="0.7"/>
</linearGradient>
<linearGradient id="paint22_linear_48_840" x1="172.645" y1="127.918" x2="134.103" y2="89.3762" gradientUnits="userSpaceOnUse">
<stop offset="0.12" stop-color="#909899"/>
<stop offset="1" stop-color="#C1CACC"/>
</linearGradient>
<linearGradient id="paint23_linear_48_840" x1="202.62" y1="157.893" x2="140.061" y2="95.334" gradientUnits="userSpaceOnUse">
<stop offset="0.16" stop-color="#B1B4B5"/>
<stop offset="1" stop-color="#D0D6D9"/>
</linearGradient>
<linearGradient id="paint24_linear_48_840" x1="332.724" y1="-28730.7" x2="2525.12" y2="-30923.1" gradientUnits="userSpaceOnUse">
<stop stop-color="white" stop-opacity="0.5"/>
<stop offset="0.78" stop-color="white" stop-opacity="0"/>
</linearGradient>
<linearGradient id="paint25_linear_48_840" x1="1917.45" y1="879.745" x2="1480.98" y2="879.745" gradientUnits="userSpaceOnUse">
<stop stop-color="white" stop-opacity="0"/>
<stop offset="1" stop-color="white" stop-opacity="0.7"/>
</linearGradient>
<linearGradient id="paint26_linear_48_840" x1="145.506" y1="100.859" x2="157.402" y2="112.755" gradientUnits="userSpaceOnUse">
<stop offset="0.22" stop-opacity="0.5"/>
<stop offset="0.71" stop-opacity="0"/>
</linearGradient>
<linearGradient id="paint27_linear_48_840" x1="128.637" y1="107.9" x2="130.708" y2="114.245" gradientUnits="userSpaceOnUse">
<stop stop-color="#E1ECF0"/>
<stop offset="0.25" stop-color="#EEFAFF"/>
<stop offset="0.48" stop-color="#D8E3E8"/>
<stop offset="0.57" stop-color="#D4DFE4"/>
<stop offset="0.66" stop-color="#C9D3D7"/>
<stop offset="0.76" stop-color="#B5BEC2"/>
<stop offset="0.85" stop-color="#9AA2A4"/>
<stop offset="0.95" stop-color="#787D7F"/>
<stop offset="1" stop-color="#646869"/>
</linearGradient>
<linearGradient id="paint28_linear_48_840" x1="131.588" y1="115.968" x2="116.352" y2="70.9081" gradientUnits="userSpaceOnUse">
<stop offset="0.01" stop-color="#989C9C"/>
<stop offset="0.02" stop-color="#C6CACD"/>
<stop offset="0.03" stop-color="#D6DADE"/>
<stop offset="0.04" stop-color="#E1E6E9"/>
<stop offset="0.06" stop-color="#E7ECF0"/>
<stop offset="0.09" stop-color="#E9EEF2"/>
</linearGradient>
<clipPath id="clip0_48_840">
<rect width="256" height="255.8" fill="white"/>
</clipPath>
<clipPath id="clip1_48_840">
<rect width="168" height="168" fill="white" transform="translate(69 -5)"/>
</clipPath>
</defs>
</svg>
