<svg width="20" height="20" viewBox="0 0 20 20" fill="none" xmlns="http://www.w3.org/2000/svg">
<g clip-path="url(#clip0_49_4004)">
<g clip-path="url(#clip1_49_4004)">
<path d="M18.8399 9.1783L15.2316 5.19317C15.1191 5.07028 14.9745 5.00006 14.8137 5.00006H5.17828C5.02559 5.00006 4.8729 5.07028 4.76039 5.19317L1.16016 9.1783H18.8399Z" fill="#E1E3E6"/>
<path opacity="0.5" d="M18.8399 9.1783L15.2316 5.19317C15.1191 5.07028 14.9745 5.00006 14.8137 5.00006H5.17828C5.02559 5.00006 4.8729 5.07028 4.76039 5.19317L1.16016 9.1783H18.8399Z" fill="url(#paint0_linear_49_4004)"/>
<path opacity="0.5" d="M1.16016 9.1783L4.76679 5.19317C4.87925 5.07028 5.02383 5.00006 5.18448 5.00006H14.8156C14.9682 5.00006 15.1208 5.07028 15.2333 5.19317L18.8399 9.1783H1.16016Z" fill="url(#paint1_linear_49_4004)"/>
<path d="M18.4431 15H1.56476C1.25011 15 1 14.7309 1 14.3922V9.60785C1 9.26921 1.25011 9.00003 1.56476 9.00003H18.4351C18.7497 9.00003 18.9998 9.26921 18.9998 9.60785V14.3922C19.0079 14.7222 18.7497 15 18.4431 15Z" fill="url(#paint2_linear_49_4004)"/>
<path opacity="0.6" d="M18.4431 15H1.56476C1.25011 15 1 14.7309 1 14.3922V9.60785C1 9.26921 1.25011 9.00003 1.56476 9.00003H18.4351C18.7497 9.00003 18.9998 9.26921 18.9998 9.60785V14.3922C19.0079 14.7222 18.7497 15 18.4431 15Z" fill="url(#paint3_linear_49_4004)"/>
<path opacity="0.6" d="M1.56477 15H18.4352C18.7499 15 19 14.7309 19 14.3922V9.60785C19 9.26921 18.7499 9.00003 18.4352 9.00003H1.56477C1.25011 9.00003 1 9.26921 1 9.60785V14.3922C1 14.7222 1.25818 15 1.56477 15Z" fill="url(#paint4_linear_49_4004)"/>
<path d="M17.4667 14H2.53333C2.23619 14 2 13.752 2 13.44V9.00003H18V13.44C18 13.752 17.7638 14 17.4667 14Z" fill="url(#paint5_linear_49_4004)"/>
<path d="M18.4375 9.07717C18.7107 9.07717 18.9277 9.3086 18.9277 9.60003V14.4C18.9277 14.6915 18.7107 14.9229 18.4375 14.9229H1.5625C1.28929 14.9229 1.07232 14.6915 1.07232 14.4V9.60003C1.07232 9.3086 1.28929 9.07717 1.5625 9.07717H18.4375ZM18.4375 9.00003H1.5625C1.24911 9.00003 1 9.26574 1 9.60003V14.4C1 14.7343 1.24911 15 1.5625 15H18.4375C18.7509 15 19 14.7343 19 14.4V9.60003C19 9.26574 18.7509 9.00003 18.4375 9.00003Z" fill="url(#paint6_linear_49_4004)"/>
<path opacity="0.15" d="M4.99972 12.0003C5.27602 11.7244 5.27627 11.2766 5.00028 11.0003C4.7243 10.724 4.27658 10.7238 4.00028 10.9998C3.72398 11.2758 3.72373 11.7235 3.99972 11.9998C4.2757 12.2761 4.72342 12.2763 4.99972 12.0003Z" stroke="#00FF00" stroke-width="0.522914" stroke-miterlimit="10"/>
<path opacity="0.3" d="M4.99972 12.0003C5.27602 11.7244 5.27627 11.2766 5.00028 11.0003C4.7243 10.724 4.27658 10.7238 4.00028 10.9998C3.72398 11.2758 3.72373 11.7235 3.99972 11.9998C4.2757 12.2761 4.72342 12.2763 4.99972 12.0003Z" stroke="#00FF00" stroke-width="0.261461" stroke-miterlimit="10"/>
<path d="M4.99972 12.0003C5.27602 11.7244 5.27627 11.2766 5.00028 11.0003C4.7243 10.724 4.27658 10.7238 4.00028 10.9998C3.72398 11.2758 3.72373 11.7235 3.99972 11.9998C4.2757 12.2761 4.72342 12.2763 4.99972 12.0003Z" fill="#00B300"/>
<path d="M4.3911 11.9616C4.77598 11.899 5.03555 11.5409 4.9729 11.1561C4.955 11.0755 4.92814 10.9949 4.89234 10.9233C4.74913 10.8249 4.57011 10.7801 4.38214 10.807C3.99726 10.8696 3.73769 11.2277 3.80034 11.6125C3.81824 11.6931 3.8451 11.7737 3.8809 11.8453C4.02411 11.9437 4.20313 11.9885 4.3911 11.9616Z" fill="url(#paint7_radial_49_4004)"/>
<path d="M4.99972 12.0003C5.27602 11.7244 5.27627 11.2766 5.00028 11.0003C4.7243 10.724 4.27658 10.7238 4.00028 10.9998C3.72398 11.2758 3.72373 11.7235 3.99972 11.9998C4.2757 12.2761 4.72342 12.2763 4.99972 12.0003Z" stroke="#00FF00" stroke-width="0.0894687" stroke-miterlimit="10"/>
</g>
<mask id="path-14-inside-1_49_4004" fill="white">
<path fill-rule="evenodd" clip-rule="evenodd" d="M16 16C17.3807 16 18.5 14.8807 18.5 13.5C18.5 12.1193 17.3807 11 16 11C14.6193 11 13.5 12.1193 13.5 13.5C13.5 14.8807 14.6193 16 16 16ZM16.0004 15.5C16.2075 15.5 16.3754 15.3321 16.3754 15.125C16.3754 14.9179 16.2075 14.75 16.0004 14.75C15.7933 14.75 15.6254 14.9179 15.6254 15.125C15.6254 15.3321 15.7933 15.5 16.0004 15.5Z"/>
</mask>
<path fill-rule="evenodd" clip-rule="evenodd" d="M16 16C17.3807 16 18.5 14.8807 18.5 13.5C18.5 12.1193 17.3807 11 16 11C14.6193 11 13.5 12.1193 13.5 13.5C13.5 14.8807 14.6193 16 16 16ZM16.0004 15.5C16.2075 15.5 16.3754 15.3321 16.3754 15.125C16.3754 14.9179 16.2075 14.75 16.0004 14.75C15.7933 14.75 15.6254 14.9179 15.6254 15.125C15.6254 15.3321 15.7933 15.5 16.0004 15.5Z" fill="url(#paint8_linear_49_4004)"/>
<path d="M18.3747 13.5C18.3747 14.8115 17.3115 15.8747 16 15.8747V16.1253C17.4499 16.1253 18.6253 14.9499 18.6253 13.5H18.3747ZM16 11.1253C17.3115 11.1253 18.3747 12.1885 18.3747 13.5H18.6253C18.6253 12.0501 17.4499 10.8747 16 10.8747V11.1253ZM13.6253 13.5C13.6253 12.1885 14.6885 11.1253 16 11.1253V10.8747C14.5501 10.8747 13.3747 12.0501 13.3747 13.5H13.6253ZM16 15.8747C14.6885 15.8747 13.6253 14.8115 13.6253 13.5H13.3747C13.3747 14.9499 14.5501 16.1253 16 16.1253V15.8747ZM16.25 15.125C16.25 15.2629 16.1382 15.3747 16.0004 15.3747V15.6254C16.2767 15.6254 16.5007 15.4014 16.5007 15.125H16.25ZM16.0004 14.8754C16.1382 14.8754 16.25 14.9871 16.25 15.125H16.5007C16.5007 14.8487 16.2767 14.6247 16.0004 14.6247V14.8754ZM15.7507 15.125C15.7507 14.9871 15.8625 14.8754 16.0004 14.8754V14.6247C15.724 14.6247 15.5 14.8487 15.5 15.125H15.7507ZM16.0004 15.3747C15.8625 15.3747 15.7507 15.2629 15.7507 15.125H15.5C15.5 15.4014 15.724 15.6254 16.0004 15.6254V15.3747Z" fill="#8A9299" mask="url(#path-14-inside-1_49_4004)"/>
<path d="M12.0044 6C12.0044 5.44772 12.4521 5 13.0044 5H19.0044C19.5567 5 20.0044 5.44772 20.0044 6V11C20.0044 11.5523 19.5567 12 19.0044 12H13.0044C12.4521 12 12.0044 11.5523 12.0044 11V6Z" fill="#A1AAB3"/>
<mask id="mask0_49_4004" style="mask-type:alpha" maskUnits="userSpaceOnUse" x="12" y="5" width="9" height="7">
<path d="M12.0044 6C12.0044 5.44772 12.4521 5 13.0044 5H19.0044C19.5567 5 20.0044 5.44772 20.0044 6V11C20.0044 11.5523 19.5567 12 19.0044 12H13.0044C12.4521 12 12.0044 11.5523 12.0044 11V6Z" fill="#FFC225"/>
</mask>
<g mask="url(#mask0_49_4004)">
<g style="mix-blend-mode:overlay" opacity="0.5">
<path d="M14.5098 5.01074H12.5011C12.2243 5.01074 12 5.23508 12 5.51182V11.5248C12 11.8015 12.2243 12.0258 12.5011 12.0258H14.5098V5.01074Z" fill="url(#paint9_linear_49_4004)" fill-opacity="0.5"/>
</g>
</g>
<mask id="mask1_49_4004" style="mask-type:alpha" maskUnits="userSpaceOnUse" x="12" y="5" width="9" height="7">
<path d="M12.0044 6C12.0044 5.44772 12.4521 5 13.0044 5H19.0044C19.5567 5 20.0044 5.44772 20.0044 6V11C20.0044 11.5523 19.5567 12 19.0044 12H13.0044C12.4521 12 12.0044 11.5523 12.0044 11V6Z" fill="#FFC225"/>
</mask>
<g mask="url(#mask1_49_4004)">
<g style="mix-blend-mode:overlay" opacity="0.5">
<path d="M20.0217 5.51182C20.0217 5.23508 19.7974 5.01074 19.5207 5.01074H12.5056C12.2288 5.01074 12.0045 5.23508 12.0045 5.51182V11.5248C12.0045 11.8015 12.2288 12.0258 12.5056 12.0258H19.5207C19.7974 12.0258 20.0217 11.8015 20.0217 11.5248V5.51182Z" fill="url(#paint10_linear_49_4004)" fill-opacity="0.5"/>
</g>
</g>
<path d="M14.0085 5.01077L14.0085 3.00646C14.0085 1.89951 14.9059 1.00215 16.0129 1.00215V1.00215C17.1198 1.00215 18.0172 1.89951 18.0172 3.00646V3.04842" stroke="#B8C2CC" stroke-width="1.5"/>
<g style="mix-blend-mode:overlay" opacity="0.25">
<path d="M12 5.99997H20V11H12V5.99997Z" fill="white"/>
</g>
<g style="mix-blend-mode:overlay">
<rect x="12" y="11" width="8" height="1" fill="#0078D4"/>
</g>
<g style="mix-blend-mode:overlay" opacity="0.25">
<rect x="12" y="9.99997" width="8" height="1" fill="white"/>
</g>
<g style="mix-blend-mode:overlay">
<path d="M12 4.99997H20V5.99997H12V4.99997Z" fill="#0078D4"/>
</g>
<g style="mix-blend-mode:overlay" opacity="0.25">
<rect x="12" y="5.99997" width="8" height="1" fill="white"/>
</g>
</g>
<defs>
<linearGradient id="paint0_linear_49_4004" x1="13.9892" y1="4.95508" x2="14.6969" y2="4.35094" gradientUnits="userSpaceOnUse">
<stop stop-color="white" stop-opacity="0"/>
<stop offset="0.2836" stop-color="#DCDCDC" stop-opacity="0.1418"/>
<stop offset="0.9093" stop-color="#838383" stop-opacity="0.4546"/>
<stop offset="1" stop-color="#767676" stop-opacity="0.5"/>
</linearGradient>
<linearGradient id="paint1_linear_49_4004" x1="6.00862" y1="4.95507" x2="5.30105" y2="4.35125" gradientUnits="userSpaceOnUse">
<stop stop-color="white" stop-opacity="0"/>
<stop offset="0.2836" stop-color="#DCDCDC" stop-opacity="0.1418"/>
<stop offset="0.9093" stop-color="#838383" stop-opacity="0.4546"/>
<stop offset="1" stop-color="#767676" stop-opacity="0.5"/>
</linearGradient>
<linearGradient id="paint2_linear_49_4004" x1="10.0039" y1="14.9968" x2="10.0039" y2="8.9946" gradientUnits="userSpaceOnUse">
<stop stop-color="#ABABAB"/>
<stop offset="0.1971" stop-color="#A7A7A7"/>
<stop offset="0.3984" stop-color="#9B9B9B"/>
<stop offset="0.6016" stop-color="#868686"/>
<stop offset="0.8047" stop-color="#6A6A6A"/>
<stop offset="1" stop-color="#474747"/>
</linearGradient>
<linearGradient id="paint3_linear_49_4004" x1="7.39469" y1="9.18753" x2="6.70448" y2="8.54622" gradientUnits="userSpaceOnUse">
<stop stop-color="white" stop-opacity="0"/>
<stop offset="0.4506" stop-color="#BBBBBB" stop-opacity="0.2253"/>
<stop offset="0.8188" stop-color="#898989" stop-opacity="0.4094"/>
<stop offset="1" stop-color="#767676" stop-opacity="0.5"/>
</linearGradient>
<linearGradient id="paint4_linear_49_4004" x1="12.6133" y1="9.18753" x2="13.3035" y2="8.54621" gradientUnits="userSpaceOnUse">
<stop stop-color="white" stop-opacity="0"/>
<stop offset="0.4506" stop-color="#BBBBBB" stop-opacity="0.2253"/>
<stop offset="0.8188" stop-color="#898989" stop-opacity="0.4094"/>
<stop offset="1" stop-color="#767676" stop-opacity="0.5"/>
</linearGradient>
<linearGradient id="paint5_linear_49_4004" x1="10" y1="14" x2="10" y2="8.99894" gradientUnits="userSpaceOnUse">
<stop stop-color="#666666"/>
<stop offset="0.109" stop-color="#5E5E5E"/>
<stop offset="0.6917" stop-color="#393939"/>
<stop offset="1" stop-color="#2B2B2B"/>
</linearGradient>
<linearGradient id="paint6_linear_49_4004" x1="10" y1="15" x2="10" y2="9.00003" gradientUnits="userSpaceOnUse">
<stop stop-color="#C9C9C9"/>
<stop offset="0.3698" stop-color="#CDCDCD"/>
<stop offset="0.7464" stop-color="#D9D9D9"/>
<stop offset="1" stop-color="#E6E6E6"/>
</linearGradient>
<radialGradient id="paint7_radial_49_4004" cx="0" cy="0" r="1" gradientUnits="userSpaceOnUse" gradientTransform="translate(4.33069 11.589) rotate(-117.661) scale(0.94236 0.847944)">
<stop stop-color="#BDFFBD"/>
<stop offset="1" stop-color="#00FF00"/>
</radialGradient>
<linearGradient id="paint8_linear_49_4004" x1="15.4676" y1="11" x2="16.3629" y2="16.0117" gradientUnits="userSpaceOnUse">
<stop stop-color="#CAD2D9"/>
<stop offset="1" stop-color="#A1AAB3"/>
</linearGradient>
<linearGradient id="paint9_linear_49_4004" x1="14.5098" y1="8.51829" x2="12" y2="8.51829" gradientUnits="userSpaceOnUse">
<stop stop-color="white" stop-opacity="0"/>
<stop offset="1"/>
</linearGradient>
<linearGradient id="paint10_linear_49_4004" x1="20.0217" y1="8.51829" x2="12.0045" y2="8.51829" gradientUnits="userSpaceOnUse">
<stop/>
<stop offset="1" stop-color="white" stop-opacity="0"/>
</linearGradient>
<clipPath id="clip0_49_4004">
<rect width="20" height="20" fill="white"/>
</clipPath>
<clipPath id="clip1_49_4004">
<rect width="20" height="20" fill="white"/>
</clipPath>
</defs>
</svg>
