<svg width="9" height="16" viewBox="0 0 9 16" fill="none" xmlns="http://www.w3.org/2000/svg">
<path fill-rule="evenodd" clip-rule="evenodd" d="M8.39062 4.07812C8.27083 4.02604 8.14062 4 8 4V0H0.999999V4C0.859374 4 0.729166 4.02604 0.609375 4.07812C0.489583 4.13021 0.384114 4.20182 0.292968 4.29297C0.201822 4.38411 0.130208 4.48958 0.0781248 4.60937C0.0260416 4.72916 0 4.85937 0 5V15C0 15.1406 0.0260416 15.2708 0.0781248 15.3906C0.130208 15.5104 0.201822 15.6159 0.292968 15.707C0.384114 15.7982 0.489583 15.8698 0.609375 15.9219C0.729166 15.9739 0.859374 16 0.999999 16H8C8.14062 16 8.27083 15.9739 8.39062 15.9219C8.51041 15.8698 8.61588 15.7982 8.70703 15.707C8.79817 15.6159 8.86979 15.5104 8.92187 15.3906C8.97395 15.2708 8.99999 15.1406 8.99999 15V5C8.99999 4.85937 8.97395 4.72916 8.92187 4.60937C8.86979 4.48958 8.79817 4.38411 8.70703 4.29297C8.61588 4.20182 8.51041 4.13021 8.39062 4.07812ZM3 2H4V3H3V2ZM6 2V3H5V2H6ZM2 4H7V0.999999H2V4ZM0.999999 5H8V15H0.999999V5Z" fill="#0078D4"/>
</svg>