<svg width="20" height="20" viewBox="0 0 20 20" fill="none" xmlns="http://www.w3.org/2000/svg">
<path d="M1.81653 0.5H18.1835C18.9098 0.5 19.5 1.09024 19.5 1.81653V18.1835C19.5 18.9098 18.9098 19.5 18.1835 19.5H1.81653C1.09024 19.5 0.5 18.9098 0.5 18.1835V1.81653C0.5 1.09024 1.09024 0.5 1.81653 0.5Z" fill="#464646" stroke="#C4C4C4"/>
<path d="M10 4.33337C10.5508 4.33337 11.082 4.40564 11.5937 4.55017C12.1055 4.6908 12.584 4.89197 13.0293 5.15369C13.4746 5.4115 13.8789 5.724 14.2422 6.09119C14.6094 6.45447 14.9219 6.85876 15.1797 7.30408C15.4414 7.74939 15.6426 8.22791 15.7832 8.73962C15.9277 9.25134 16 9.78259 16 10.3334C16 10.8842 15.9277 11.4154 15.7832 11.9271C15.6426 12.4388 15.4414 12.9174 15.1797 13.3627C14.9219 13.808 14.6094 14.2142 14.2422 14.5814C13.8789 14.9447 13.4746 15.2572 13.0293 15.5189C12.584 15.7767 12.1055 15.9779 11.5937 16.1224C11.082 16.2631 10.5508 16.3334 10 16.3334C9.44922 16.3334 8.91797 16.2631 8.40625 16.1224C7.89453 15.9779 7.41601 15.7767 6.9707 15.5189C6.52539 15.2572 6.11914 14.9447 5.75195 14.5814C5.38867 14.2142 5.07617 13.808 4.81445 13.3627C4.55664 12.9174 4.35547 12.4408 4.21094 11.933C4.07031 11.4213 4 10.8881 4 10.3334C4 9.78259 4.07031 9.25134 4.21094 8.73962C4.35547 8.22791 4.55664 7.74939 4.81445 7.30408C5.07617 6.85876 5.38867 6.45447 5.75195 6.09119C6.11914 5.724 6.52539 5.4115 6.9707 5.15369C7.41601 4.89197 7.89258 4.6908 8.40039 4.55017C8.91211 4.40564 9.44531 4.33337 10 4.33337ZM14.7402 8.08337C14.5918 7.76697 14.4121 7.47009 14.2012 7.19275C13.9902 6.9115 13.7559 6.65564 13.498 6.42517C13.2402 6.1947 12.9609 5.98962 12.6602 5.80994C12.3594 5.63025 12.0449 5.48376 11.7168 5.37048C11.8574 5.5658 11.9844 5.77283 12.0977 5.99158C12.2109 6.21033 12.3105 6.43689 12.3965 6.67126C12.4863 6.90173 12.5625 7.13611 12.625 7.37439C12.6875 7.61267 12.7422 7.849 12.7891 8.08337H14.7402ZM15.25 10.3334C15.25 9.81384 15.1777 9.31384 15.0332 8.83337H12.9062C12.9375 9.08337 12.9609 9.33337 12.9766 9.58337C12.9922 9.82947 13 10.0795 13 10.3334C13 10.5873 12.9922 10.8392 12.9766 11.0892C12.9609 11.3353 12.9375 11.5834 12.9062 11.8334H15.0332C15.1777 11.3529 15.25 10.8529 15.25 10.3334ZM10 15.5834C10.1914 15.5834 10.3691 15.5306 10.5332 15.4252C10.7012 15.3197 10.8555 15.181 10.9961 15.0092C11.1367 14.8373 11.2617 14.6439 11.3711 14.4291C11.4844 14.2103 11.584 13.9896 11.6699 13.767C11.7559 13.5443 11.8281 13.3295 11.8867 13.1224C11.9453 12.9154 11.9902 12.7357 12.0215 12.5834H7.97851C8.00976 12.7357 8.05469 12.9154 8.11328 13.1224C8.17187 13.3295 8.24414 13.5443 8.33008 13.767C8.41601 13.9896 8.51367 14.2103 8.62305 14.4291C8.73633 14.6439 8.86328 14.8373 9.0039 15.0092C9.14453 15.181 9.29687 15.3197 9.46094 15.4252C9.6289 15.5306 9.80859 15.5834 10 15.5834ZM12.1504 11.8334C12.1816 11.5834 12.2051 11.3353 12.2207 11.0892C12.2402 10.8392 12.25 10.5873 12.25 10.3334C12.25 10.0795 12.2402 9.82947 12.2207 9.58337C12.2051 9.33337 12.1816 9.08337 12.1504 8.83337H7.84961C7.81836 9.08337 7.79297 9.33337 7.77344 9.58337C7.75781 9.82947 7.75 10.0795 7.75 10.3334C7.75 10.5873 7.75781 10.8392 7.77344 11.0892C7.79297 11.3353 7.81836 11.5834 7.84961 11.8334H12.1504ZM4.75 10.3334C4.75 10.8529 4.82226 11.3529 4.9668 11.8334H7.09375C7.0625 11.5834 7.03906 11.3353 7.02344 11.0892C7.00781 10.8392 7 10.5873 7 10.3334C7 10.0795 7.00781 9.82947 7.02344 9.58337C7.03906 9.33337 7.0625 9.08337 7.09375 8.83337H4.9668C4.82226 9.31384 4.75 9.81384 4.75 10.3334ZM10 5.08337C9.80859 5.08337 9.6289 5.13611 9.46094 5.24158C9.29687 5.34705 9.14453 5.48572 9.0039 5.65759C8.86328 5.82947 8.73633 6.02478 8.62305 6.24353C8.51367 6.45837 8.41601 6.67712 8.33008 6.89978C8.24414 7.12244 8.17187 7.33728 8.11328 7.54431C8.05469 7.75134 8.00976 7.93103 7.97851 8.08337H12.0215C11.9902 7.93103 11.9453 7.75134 11.8867 7.54431C11.8281 7.33728 11.7559 7.12244 11.6699 6.89978C11.584 6.67712 11.4844 6.45837 11.3711 6.24353C11.2617 6.02478 11.1367 5.82947 10.9961 5.65759C10.8555 5.48572 10.7012 5.34705 10.5332 5.24158C10.3691 5.13611 10.1914 5.08337 10 5.08337ZM8.2832 5.37048C7.95508 5.48376 7.64062 5.63025 7.33984 5.80994C7.03906 5.98962 6.75976 6.1947 6.50195 6.42517C6.24414 6.65564 6.00976 6.9115 5.79883 7.19275C5.58789 7.47009 5.4082 7.76697 5.25976 8.08337H7.21094C7.25781 7.849 7.3125 7.61267 7.375 7.37439C7.4375 7.13611 7.51172 6.90173 7.59765 6.67126C7.6875 6.43689 7.78906 6.21033 7.90234 5.99158C8.01562 5.77283 8.14258 5.5658 8.2832 5.37048ZM5.25976 12.5834C5.4082 12.8998 5.58789 13.1986 5.79883 13.4799C6.00976 13.7572 6.24414 14.0111 6.50195 14.2416C6.75976 14.472 7.03906 14.6771 7.33984 14.8568C7.64062 15.0365 7.95508 15.183 8.2832 15.2963C8.14258 15.101 8.01562 14.8939 7.90234 14.6752C7.78906 14.4564 7.6875 14.2318 7.59765 14.0013C7.51172 13.767 7.4375 13.5306 7.375 13.2924C7.3125 13.0541 7.25781 12.8177 7.21094 12.5834H5.25976ZM11.7168 15.2963C12.0449 15.183 12.3594 15.0365 12.6602 14.8568C12.9609 14.6771 13.2402 14.472 13.498 14.2416C13.7559 14.0111 13.9902 13.7572 14.2012 13.4799C14.4121 13.1986 14.5918 12.8998 14.7402 12.5834H12.7891C12.7422 12.8177 12.6875 13.0541 12.625 13.2924C12.5625 13.5306 12.4863 13.767 12.3965 14.0013C12.3105 14.2318 12.2109 14.4564 12.0977 14.6752C11.9844 14.8939 11.8574 15.101 11.7168 15.2963Z" fill="white"/>
</svg>
