<svg width="48" height="48" viewBox="0 0 48 48" fill="none" xmlns="http://www.w3.org/2000/svg">
<path d="M4.35966 0.5H43.6403C45.77 0.5 47.5 2.22997 47.5 4.35966V43.6403C47.5 45.77 45.77 47.5 43.6403 47.5H4.35966C2.22997 47.5 0.5 45.77 0.5 43.6403V4.35966C0.5 2.22997 2.22997 0.5 4.35966 0.5Z" fill="#464646" stroke="#C4C4C4"/>
<path d="M24 8C25.4688 8 26.8854 8.19271 28.25 8.57812C29.6146 8.95312 30.8906 9.48958 32.0781 10.1875C33.2656 10.875 34.3438 11.7083 35.3125 12.6875C36.2917 13.6562 37.125 14.7344 37.8125 15.9219C38.5104 17.1094 39.0469 18.3854 39.4219 19.75C39.8073 21.1146 40 22.5312 40 24C40 25.4688 39.8073 26.8854 39.4219 28.25C39.0469 29.6146 38.5104 30.8906 37.8125 32.0781C37.125 33.2656 36.2917 34.349 35.3125 35.3281C34.3438 36.2969 33.2656 37.1302 32.0781 37.8281C30.8906 38.5156 29.6146 39.0521 28.25 39.4375C26.8854 39.8125 25.4688 40 24 40C22.5312 40 21.1146 39.8125 19.75 39.4375C18.3854 39.0521 17.1094 38.5156 15.9219 37.8281C14.7344 37.1302 13.651 36.2969 12.6719 35.3281C11.7031 34.349 10.8698 33.2656 10.1719 32.0781C9.48438 30.8906 8.94792 29.6198 8.5625 28.2656C8.1875 26.901 8 25.4792 8 24C8 22.5312 8.1875 21.1146 8.5625 19.75C8.94792 18.3854 9.48438 17.1094 10.1719 15.9219C10.8698 14.7344 11.7031 13.6562 12.6719 12.6875C13.651 11.7083 14.7344 10.875 15.9219 10.1875C17.1094 9.48958 18.3802 8.95312 19.7344 8.57812C21.099 8.19271 22.5208 8 24 8ZM36.6406 18C36.2448 17.1562 35.7656 16.3646 35.2031 15.625C34.6406 14.875 34.0156 14.1927 33.3281 13.5781C32.6406 12.9635 31.8958 12.4167 31.0938 11.9375C30.2917 11.4583 29.4531 11.0677 28.5781 10.7656C28.9531 11.2865 29.2917 11.8385 29.5938 12.4219C29.8958 13.0052 30.1615 13.6094 30.3906 14.2344C30.6302 14.849 30.8333 15.474 31 16.1094C31.1667 16.7448 31.3125 17.375 31.4375 18H36.6406ZM38 24C38 22.6146 37.8073 21.2812 37.4219 20H31.75C31.8333 20.6667 31.8958 21.3333 31.9375 22C31.9792 22.6562 32 23.3229 32 24C32 24.6771 31.9792 25.349 31.9375 26.0156C31.8958 26.6719 31.8333 27.3333 31.75 28H37.4219C37.8073 26.7188 38 25.3854 38 24ZM24 38C24.5104 38 24.9844 37.8594 25.4219 37.5781C25.8698 37.2969 26.2812 36.9271 26.6562 36.4688C27.0312 36.0104 27.3646 35.4948 27.6562 34.9219C27.9583 34.3385 28.224 33.75 28.4531 33.1562C28.6823 32.5625 28.875 31.9896 29.0312 31.4375C29.1875 30.8854 29.3073 30.4062 29.3906 30H18.6094C18.6927 30.4062 18.8125 30.8854 18.9688 31.4375C19.125 31.9896 19.3177 32.5625 19.5469 33.1562C19.776 33.75 20.0365 34.3385 20.3281 34.9219C20.6302 35.4948 20.9688 36.0104 21.3438 36.4688C21.7188 36.9271 22.125 37.2969 22.5625 37.5781C23.0104 37.8594 23.4896 38 24 38ZM29.7344 28C29.8177 27.3333 29.8802 26.6719 29.9219 26.0156C29.974 25.349 30 24.6771 30 24C30 23.3229 29.974 22.6562 29.9219 22C29.8802 21.3333 29.8177 20.6667 29.7344 20H18.2656C18.1823 20.6667 18.1146 21.3333 18.0625 22C18.0208 22.6562 18 23.3229 18 24C18 24.6771 18.0208 25.349 18.0625 26.0156C18.1146 26.6719 18.1823 27.3333 18.2656 28H29.7344ZM10 24C10 25.3854 10.1927 26.7188 10.5781 28H16.25C16.1667 27.3333 16.1042 26.6719 16.0625 26.0156C16.0208 25.349 16 24.6771 16 24C16 23.3229 16.0208 22.6562 16.0625 22C16.1042 21.3333 16.1667 20.6667 16.25 20H10.5781C10.1927 21.2812 10 22.6146 10 24ZM24 10C23.4896 10 23.0104 10.1406 22.5625 10.4219C22.125 10.7031 21.7188 11.0729 21.3438 11.5312C20.9688 11.9896 20.6302 12.5104 20.3281 13.0938C20.0365 13.6667 19.776 14.25 19.5469 14.8438C19.3177 15.4375 19.125 16.0104 18.9688 16.5625C18.8125 17.1146 18.6927 17.5938 18.6094 18H29.3906C29.3073 17.5938 29.1875 17.1146 29.0312 16.5625C28.875 16.0104 28.6823 15.4375 28.4531 14.8438C28.224 14.25 27.9583 13.6667 27.6562 13.0938C27.3646 12.5104 27.0312 11.9896 26.6562 11.5312C26.2812 11.0729 25.8698 10.7031 25.4219 10.4219C24.9844 10.1406 24.5104 10 24 10ZM19.4219 10.7656C18.5469 11.0677 17.7083 11.4583 16.9062 11.9375C16.1042 12.4167 15.3594 12.9635 14.6719 13.5781C13.9844 14.1927 13.3594 14.875 12.7969 15.625C12.2344 16.3646 11.7552 17.1562 11.3594 18H16.5625C16.6875 17.375 16.8333 16.7448 17 16.1094C17.1667 15.474 17.3646 14.849 17.5938 14.2344C17.8333 13.6094 18.1042 13.0052 18.4062 12.4219C18.7083 11.8385 19.0469 11.2865 19.4219 10.7656ZM11.3594 30C11.7552 30.8438 12.2344 31.6406 12.7969 32.3906C13.3594 33.1302 13.9844 33.8073 14.6719 34.4219C15.3594 35.0365 16.1042 35.5833 16.9062 36.0625C17.7083 36.5417 18.5469 36.9323 19.4219 37.2344C19.0469 36.7135 18.7083 36.1615 18.4062 35.5781C18.1042 34.9948 17.8333 34.3958 17.5938 33.7812C17.3646 33.1562 17.1667 32.526 17 31.8906C16.8333 31.2552 16.6875 30.625 16.5625 30H11.3594ZM28.5781 37.2344C29.4531 36.9323 30.2917 36.5417 31.0938 36.0625C31.8958 35.5833 32.6406 35.0365 33.3281 34.4219C34.0156 33.8073 34.6406 33.1302 35.2031 32.3906C35.7656 31.6406 36.2448 30.8438 36.6406 30H31.4375C31.3125 30.625 31.1667 31.2552 31 31.8906C30.8333 32.526 30.6302 33.1562 30.3906 33.7812C30.1615 34.3958 29.8958 34.9948 29.5938 35.5781C29.2917 36.1615 28.9531 36.7135 28.5781 37.2344Z" fill="white"/>
</svg>
