<svg xmlns="https://www.w3.org/2000/svg" width="60" height="60" viewBox="0 0 60 60"><defs><style>.cls-1{opacity:0.5;}.cls-2{fill:none;stroke:#0070c0;stroke-miterlimit:10;stroke-width:3px;}</style></defs><title>Configuration</title><g id="Icons"><path class="cls-2" d="M50.63,30c0-.64,0-1.28-.1-1.91l7.25-4.52-3.59-8.66-8.32,1.92a20.87,20.87,0,0,0-2.7-2.7l1.92-8.32L36.43,2.22,31.91,9.47c-.63-.06-1.27-.09-1.91-.09s-1.28,0-1.91.09L23.57,2.22,14.91,5.81l1.92,8.32a20.87,20.87,0,0,0-2.7,2.7L5.81,14.91,2.22,23.57l7.25,4.52c-.06.63-.09,1.27-.09,1.91s0,1.28.09,1.91L2.22,36.43l3.59,8.66,8.32-1.92a20.87,20.87,0,0,0,2.7,2.7l-1.92,8.32,8.66,3.59,4.52-7.25c.63.06,1.27.1,1.91.1s1.28,0,1.91-.1l4.52,7.25,8.66-3.59-1.92-8.32a20.87,20.87,0,0,0,2.7-2.7l8.32,1.92,3.59-8.66-7.25-4.52C50.59,31.28,50.63,30.64,50.63,30ZM20.5,30A9.5,9.5,0,1,1,30,39.5,9.5,9.5,0,0,1,20.5,30Z"/></g></svg>