<svg xmlns="https://www.w3.org/2000/svg" xmlns:xlink="https://www.w3.org/1999/xlink" width="60" height="60" viewBox="0 0 60 60"><defs><style>.cls-1{opacity:0.5;}.cls-2,.cls-3{fill:none;stroke:#0070c0;stroke-miterlimit:10;stroke-width:3px;}.cls-3{stroke-dasharray:2.4 2.4;}.cls-4{mask:url(#mask);}.cls-5{filter:url(#luminosity-noclip);}</style><filter id="luminosity-noclip" x="-3" y="3" width="66" height="54" filterUnits="userSpaceOnUse" color-interpolation-filters="sRGB"><feFlood flood-color="#fff" result="bg"/><feBlend in="SourceGraphic" in2="bg"/></filter><mask id="mask" x="-3" y="3" width="66" height="54" maskUnits="userSpaceOnUse"><g class="cls-5"><rect x="-3" y="18" width="24" height="24"/><rect x="39" y="3" width="24" height="24"/><rect x="39" y="33" width="24" height="24"/></g></mask></defs><title>Deployment</title><g id="Icons"><rect class="cls-2" x="1.5" y="22.5" width="15" height="15"/><polyline class="cls-2" points="58.5 21 58.5 22.5 57 22.5"/><line class="cls-3" x1="54.6" y1="22.5" x2="46.2" y2="22.5"/><polyline class="cls-2" points="45 22.5 43.5 22.5 43.5 21"/><line class="cls-3" x1="43.5" y1="18.6" x2="43.5" y2="10.2"/><polyline class="cls-2" points="43.5 9 43.5 7.5 45 7.5"/><line class="cls-3" x1="47.4" y1="7.5" x2="55.8" y2="7.5"/><polyline class="cls-2" points="57 7.5 58.5 7.5 58.5 9"/><line class="cls-3" x1="58.5" y1="11.4" x2="58.5" y2="19.8"/><polyline class="cls-2" points="58.5 51 58.5 52.5 57 52.5"/><line class="cls-3" x1="54.6" y1="52.5" x2="46.2" y2="52.5"/><polyline class="cls-2" points="45 52.5 43.5 52.5 43.5 51"/><line class="cls-3" x1="43.5" y1="48.6" x2="43.5" y2="40.2"/><polyline class="cls-2" points="43.5 39 43.5 37.5 45 37.5"/><line class="cls-3" x1="47.4" y1="37.5" x2="55.8" y2="37.5"/><polyline class="cls-2" points="57 37.5 58.5 37.5 58.5 39"/><line class="cls-3" x1="58.5" y1="41.4" x2="58.5" y2="49.8"/><g class="cls-4"><line class="cls-2" x1="16.5" y1="22.5" x2="43.5" y2="14.5"/><line class="cls-2" x1="16.5" y1="37.5" x2="43.5" y2="45.5"/></g></g></svg>