<svg xmlns="https://www.w3.org/2000/svg" width="60" height="60" viewBox="0 0 60 60"><defs><style>.cls-1{opacity:0.5;}.cls-2{fill:#0070c0;}.cls-3{fill:none;stroke:#0070c0;stroke-miterlimit:10;stroke-width:3px;}</style></defs><title>DeviceSecurity</title><g id="Icons"><path class="cls-2" d="M29.89,49H3.5a.62.62,0,0,1-.5-.5,3.88,3.88,0,0,1,.47-2L9.18,40H28V37H10V11H50V26.7a11.62,11.62,0,0,1,3,1.42h0V8H7V37.93l-5.82,6.6A6.62,6.62,0,0,0,0,48.5,3.6,3.6,0,0,0,3.5,52H31.64A22.74,22.74,0,0,1,29.89,49Z"/><path class="cls-3" d="M58.5,33.5V41c0,6.25-4.65,12.38-12.14,16.31l-.86.45-.86-.45C37.15,53.38,32.5,47.25,32.5,41V33.5h2a11.13,11.13,0,0,0,6-1.66,9.85,9.85,0,0,1,10,0,11.17,11.17,0,0,0,6,1.62Z"/></g></svg>