<svg id="Layer_1" data-name="Layer 1" xmlns="https://www.w3.org/2000/svg" viewBox="0 0 50 50"><defs><style>.cls-1{fill:#2f2f2f;}.cls-2{fill:#c2c2c2;}.cls-3{fill:#0078d4;}.cls-4{fill:#fff;}</style></defs><title>EDU-Device-Mgmt-50px</title><g id="SYMBOLS"><g id="tablet_generic" data-name="tablet generic"><path class="cls-1" d="M39.76,13.05H12.25a1,1,0,0,0-1,1h0V33.27a1,1,0,0,0,1,1H39.76a1,1,0,0,0,1-.92h0V14.06a1,1,0,0,0-1-1Zm-11,18.46H24.16V29.67h4.61Z"/></g></g><g id="SYMBOLS-2" data-name="SYMBOLS"><g id="cell_phone_generic" data-name="cell phone generic"><path class="cls-2" d="M35.16,29.67H46.48a.74.74,0,0,0,.76-.74V8.25a.74.74,0,0,0-.76-.74H35.16a.91.91,0,0,0-.85.74h0V28.84a.84.84,0,0,0,.85.83Zm4.69-2.77h2.77v1.84H39.85Z"/></g></g><path class="cls-2" d="M19.79,29.91a9.54,9.54,0,0,0-3.33-3.32,10.92,10.92,0,0,0-2.21-.92,8.87,8.87,0,0,0-4.9,0,11.16,11.16,0,0,0-2.21.92,9.51,9.51,0,0,0-3.32,3.32,11.66,11.66,0,0,0-.93,2.22,8.84,8.84,0,0,0,0,4.89,11.66,11.66,0,0,0,.93,2.22,9.51,9.51,0,0,0,3.32,3.32,11.85,11.85,0,0,0,2.21.93,8.87,8.87,0,0,0,4.9,0,11.58,11.58,0,0,0,2.21-.93,9.54,9.54,0,0,0,3.33-3.32A11,11,0,0,0,20.71,37a8.84,8.84,0,0,0,0-4.89A12.67,12.67,0,0,0,19.79,29.91Zm-9.7,8.31L6.77,34.9l.83-.83,2.49,2.49L16,30.65l.83.83Z"/><polygon class="cls-3" points="10.09 36.65 7.6 34.16 6.77 34.99 10.09 38.22 16.83 31.48 16 30.65 10.09 36.65"/><g id="SYMBOLS-3" data-name="SYMBOLS"><g id="settings_office_365" data-name="settings office 365"><path class="cls-3" d="M48.16,33.82v-.27l1.39-.84-.84-2.12L47.05,31l-.27-.28.37-1.57L45,28.28l-.92,1.39h-.37l-.83-1.39-2.12.83.36,1.57-.27.28-1.57-.37-.83,2,1.38.93v.36l-1.38.93L39.3,37l1.57-.37.28.28-.37,1.66,2.12.83L43.73,38h.37L45,39.36l2.13-.83-.37-1.66.27-.28,1.57.37.83-2.12-1.38-.93ZM45.55,34.9A1.93,1.93,0,0,1,44.44,36a2.82,2.82,0,0,1-.83.18,2.69,2.69,0,0,1-.83-.18,1.87,1.87,0,0,1-1.11-1.11,2.77,2.77,0,0,1-.19-.83,2.7,2.7,0,0,1,.19-.83,1.85,1.85,0,0,1,1.11-1.11,2.7,2.7,0,0,1,.83-.19,2.84,2.84,0,0,1,.83.19,1.87,1.87,0,0,1,1.11,1.11,2.69,2.69,0,0,1,.18.83c0,.37,0,.64-.18.83Z"/></g></g><rect class="cls-4" x="38.93" y="26.9" width="3.69" height="1.85"/></svg>