<?xml version="1.0" encoding="utf-8"?>
<!-- Generator: Adobe Illustrator 23.1.0, SVG Export Plug-In . SVG Version: 6.00 Build 0)  -->
<svg version="1.1" id="Layer_1" xmlns="http://www.w3.org/2000/svg" xmlns:xlink="http://www.w3.org/1999/xlink" x="0px" y="0px"
	 viewBox="0 0 50 50" style="enable-background:new 0 0 50 50;" xml:space="preserve">
<style type="text/css">
	.st0{fill:#E6E6E6;}
	.st1{fill:#C2C2C2;}
	.st2{fill:#0078D4;}
</style>
<title>EDUAdmins-50px</title>
<path class="st0" d="M25.2,47.2c-12.3,0-22.3-10-22.3-22.3s10-22.3,22.3-22.3s22.3,10,22.3,22.3l0,0C47.6,37.2,37.6,47.2,25.2,47.2
	C25.3,47.2,25.2,47.2,25.2,47.2z"/>
<path class="st1" d="M25.2,3.7c11.7,0,21.1,9.5,21.1,21.1S36.9,46,25.2,46S4.1,36.5,4.1,24.9l0,0C4.1,13.2,13.6,3.7,25.2,3.7
	L25.2,3.7 M25.2,1.4c-13,0-23.5,10.5-23.5,23.5s10.5,23.5,23.5,23.5s23.5-10.5,23.5-23.5l0,0C48.7,11.9,38.2,1.4,25.2,1.4L25.2,1.4z
	"/>
<g>
	<title>toolbox</title>
	<g>
		<g id="SYMBOLS_1_">
			<g id="toolbox_1_">
				<g id="_Utility_-_Maintain_1_">
					<path class="st2" d="M32.7,24.7c0.8,0,1.6-0.2,2.3-0.5c1.4-0.6,2.6-1.8,3.2-3.2c0.3-0.7,0.5-1.5,0.5-2.3c0-0.6-0.1-1.3-0.3-1.9
						l-4.8,4.8l-3.8-3.8l4.8-4.8c-0.6-0.2-1.2-0.3-1.9-0.3c-0.8,0-1.6,0.2-2.3,0.5c-0.7,0.3-1.4,0.7-1.9,1.3c-0.5,0.5-1,1.2-1.3,1.9
						s-0.5,1.5-0.5,2.3c0,0.3,0,0.6,0.1,0.9s0.1,0.6,0.2,0.9L15.5,31.9c-0.3,0.3-0.5,0.6-0.6,0.9c-0.3,0.7-0.3,1.5,0,2.1
						c0.1,0.3,0.3,0.6,0.6,0.9c0.3,0.3,0.6,0.5,0.9,0.6s0.7,0.2,1.1,0.2s0.7-0.1,1.1-0.2c0.3-0.1,0.6-0.3,0.9-0.6L31,24.4
						c0.3,0.1,0.6,0.1,0.9,0.2C32,24.6,32.4,24.7,32.7,24.7"/>
				</g>
			</g>
		</g>
	</g>
</g>
</svg>
