<?xml version="1.0" encoding="utf-8"?>
<!-- Generator: Adobe Illustrator 23.1.0, SVG Export Plug-In . SVG Version: 6.00 Build 0)  -->
<svg version="1.1" id="Layer_1" xmlns="https://www.w3.org/2000/svg" xmlns:xlink="https://www.w3.org/1999/xlink" x="0px" y="0px"
	 viewBox="0 0 50 50" style="enable-background:new 0 0 50 50;" xml:space="preserve">
<style type="text/css">
	.st0{fill:#E6E6E6;}
	.st1{fill:#C2C2C2;}
	.st2{fill:#939393;}
	.st3{fill:#0078D4;}
</style>
<title>EDUAdmins-50px</title>
<path class="st0" d="M25.2,47.2c-12.3,0-22.3-10-22.3-22.3s10-22.3,22.3-22.3s22.3,10,22.3,22.3v0C47.6,37.2,37.6,47.2,25.2,47.2
	C25.3,47.2,25.2,47.2,25.2,47.2z"/>
<path class="st1" d="M25.2,3.7c11.7,0,21.1,9.5,21.1,21.1S36.9,46,25.2,46S4.1,36.5,4.1,24.9l0,0C4.1,13.2,13.6,3.7,25.2,3.7
	L25.2,3.7 M25.2,1.4c-13,0-23.5,10.5-23.5,23.5s10.5,23.5,23.5,23.5s23.5-10.5,23.5-23.5l0,0C48.7,11.9,38.2,1.4,25.2,1.4
	C25.2,1.4,25.2,1.4,25.2,1.4z"/>
<g>
	<title>PresenterPresentationChart-blue</title>
	<path class="st2" d="M27.4,28.3C27.1,27.7,27,27,27,26.4c0-0.7,0.1-1.3,0.4-1.9c0.3-0.6,0.6-1.1,1-1.6c0.4-0.4,1-0.8,1.5-1
		c1.2-0.5,2.6-0.5,3.9,0c0.5,0.2,1,0.5,1.4,0.9V15h-3.1l-9-0.1L13,14.7v7l-0.1,4.1v3.8h15.4C27.9,29.2,27.6,28.8,27.4,28.3z"/>
	<path class="st3" d="M30.6,29.4c0.2,0.1,0.4,0.1,0.5,0.2h1.5c0.2,0,0.4-0.1,0.5-0.2c0.8-0.3,1.4-1,1.8-1.7c0.4-0.8,0.4-1.7,0-2.6
		c-0.2-0.4-0.4-0.7-0.7-1c-0.3-0.3-0.7-0.5-1.1-0.7c-0.8-0.3-1.7-0.3-2.6,0c-0.4,0.2-0.7,0.4-1,0.7c-0.3,0.3-0.5,0.7-0.7,1
		c-0.4,0.8-0.4,1.7,0,2.6c0.2,0.4,0.4,0.7,0.7,1C29.9,29,30.3,29.2,30.6,29.4z"/>
	<path class="st3" d="M33.9,31.7c-0.6-0.3-1.3-0.4-2-0.4c-0.7,0-1.3,0.1-2,0.4c-1.2,0.5-2.1,1.4-2.6,2.6C27.1,34.9,27,35.4,27,36
		h9.9c0-0.6-0.1-1.2-0.4-1.7C36,33.1,35.1,32.2,33.9,31.7z"/>
</g>
</svg>
