<svg id="Layer_1" data-name="Layer 1" xmlns="https://www.w3.org/2000/svg" viewBox="0 0 50 50"><defs><style>.cls-1{fill:#939393;}.cls-2{fill:#c2c2c2;}.cls-3{fill:#f2f2f2;}.cls-4{fill:#0078d4;}.cls-5{fill:#2f2f2f;}.cls-6{fill:#fff;}</style></defs><title>EDU-Education-50px</title><path class="cls-1" d="M13.31,19.7a11.6,11.6,0,0,1,1.76.14,8.84,8.84,0,0,1,1.68.44,11.8,11.8,0,0,1,1.83-2.44A14.7,14.7,0,0,1,21,15.91a13.26,13.26,0,0,1,5.71-2.11,7.54,7.54,0,0,0-.92-2.43,7.3,7.3,0,0,0-1.65-1.94,7.77,7.77,0,0,0-2.22-1.26,7.24,7.24,0,0,0-2.56-.46,7,7,0,0,0-2.75.53,7.26,7.26,0,0,0-2.3,1.44,7.64,7.64,0,0,0-1.63,2.16,7.27,7.27,0,0,0-.72,2.7,7,7,0,0,0-1.44-.62,5.44,5.44,0,0,0-1.6-.24,6,6,0,0,0-2.39.47,6.08,6.08,0,0,0-3.2,8,6.09,6.09,0,0,0,1.44,2,10.08,10.08,0,0,1,3.74-3.24,10.34,10.34,0,0,1,4.81-1.16"/><path class="cls-2" d="M44.31,29.36A5.6,5.6,0,0,0,43,27.45a5.86,5.86,0,0,0-2-1.25,6.38,6.38,0,0,0-2.4-.44,10.45,10.45,0,0,0-1.19-3.61,10.63,10.63,0,0,0-2.29-2.88,10.26,10.26,0,0,0-6.84-2.57,10.37,10.37,0,0,0-3.44.59,10.8,10.8,0,0,0-3,1.62,10.57,10.57,0,0,0-2.34,2.52,10.33,10.33,0,0,0-1.44,3.17,7.7,7.7,0,0,0-2.28-1.37,7.23,7.23,0,0,0-2.6-.49,7.31,7.31,0,0,0-2.88.59A7.72,7.72,0,0,0,8,25a7.49,7.49,0,0,0,2.39,12.22,7.31,7.31,0,0,0,2.88.59H38.8a5.86,5.86,0,0,0,2.33-.48,6,6,0,0,0,3.67-5.52,5.87,5.87,0,0,0-.49-2.41"/><path class="cls-3" d="M35.8,47.74a12,12,0,1,1,12-12h0a12,12,0,0,1-12,12"/><path class="cls-4" d="M46.46,35.7A10.67,10.67,0,1,1,35.8,25,10.67,10.67,0,0,1,46.46,35.7"/><path class="cls-5" d="M40.14,37.46a4.18,4.18,0,0,0-.21-1.31h0L36.14,38l-.4.2-.4-.2-3.81-1.89a3.53,3.53,0,0,0-.14.56,5.65,5.65,0,0,0-.05.71v.77l4.4,2.19,4.4-2.19Z"/><path class="cls-6" d="M29.63,38.39a1,1,0,0,0-.2.16.93.93,0,0,0-.29.65V42H30.9V39.2a.88.88,0,0,0-.26-.65.69.69,0,0,0-.18-.16.7.7,0,0,0-.42-.11A.69.69,0,0,0,29.63,38.39Z"/><path class="cls-2" d="M29.58,34.17v4.18a1,1,0,0,1,.44-.11.93.93,0,0,1,.44.11V34.61h0l1.45.72,3.83,1.91,3.83-1.91,3.2-1.6-7-3.52-7,3.52Z"/></svg>