<svg id="Layer_1" data-name="Layer 1" xmlns="http://www.w3.org/2000/svg" viewBox="0 0 50 50"><defs><style>.cls-1{fill:#939393;}.cls-2{fill:#c2c2c2;}.cls-3{fill:#f2f2f2;}.cls-4{fill:#0078d4;}.cls-5{fill:#fff;}</style></defs><title>EDU-Lockbox-50px</title><path class="cls-1" d="M14.51,22a10.36,10.36,0,0,1,1.76.14,9.14,9.14,0,0,1,1.69.44,11.45,11.45,0,0,1,1.83-2.44,13.85,13.85,0,0,1,5.1-3.32,12.71,12.71,0,0,1,3-.72,7.7,7.7,0,0,0-.93-2.44,7.42,7.42,0,0,0-1.65-1.93,7.76,7.76,0,0,0-2.22-1.27A7.42,7.42,0,0,0,20.51,10a7,7,0,0,0-2.75.53,7.26,7.26,0,0,0-2.3,1.44,7.83,7.83,0,0,0-1.63,2.16,7.47,7.47,0,0,0-.72,2.7,6.8,6.8,0,0,0-1.44-.62,5.33,5.33,0,0,0-1.59-.24,6,6,0,0,0-4.3,1.76,6.1,6.1,0,0,0-1.29,6.66,5.81,5.81,0,0,0,1.44,2,10.13,10.13,0,0,1,3.73-3.24A10.36,10.36,0,0,1,14.48,22"/><path class="cls-2" d="M45.52,31.62a5.89,5.89,0,0,0-1.32-1.91,6,6,0,0,0-2-1.25A6.29,6.29,0,0,0,39.84,28a10.46,10.46,0,0,0-1.2-3.61,10.63,10.63,0,0,0-2.28-2.88,10.37,10.37,0,0,0-10.28-2,10.6,10.6,0,0,0-5.31,4.14,10.57,10.57,0,0,0-1.44,3.17,7.53,7.53,0,0,0-2.27-1.37,7.26,7.26,0,0,0-5.49.1,7.74,7.74,0,0,0-3.93,4,7.56,7.56,0,0,0,0,5.83,7.72,7.72,0,0,0,1.6,2.39,7.48,7.48,0,0,0,2.4,1.6,7.31,7.31,0,0,0,2.88.59H40a5.82,5.82,0,0,0,2.33-.48,6,6,0,0,0,3.2-3.2A5.94,5.94,0,0,0,46,34a5.86,5.86,0,0,0-.48-2.41"/><path class="cls-3" d="M36,48A12,12,0,1,1,48,36h0A12,12,0,0,1,36,48"/><path class="cls-4" d="M46.67,36A10.67,10.67,0,1,1,36,25.29,10.67,10.67,0,0,1,46.67,36"/><g id="Artwork_68" data-name="Artwork 68"><path class="cls-2" d="M31.71,35h1.55V32.74a3.12,3.12,0,0,1,5.29-2.31s0,0,.05.05a3.19,3.19,0,0,1,.89,2.26V35H41m-7,0h4.67V32.74A2.4,2.4,0,0,0,38,31a2.29,2.29,0,0,0-.73-.51,2.34,2.34,0,0,0-1.87,0,2.23,2.23,0,0,0-.74.51,2.44,2.44,0,0,0-.66,1.7Z"/></g><path class="cls-2" d="M31.71,35v7H41V35Zm4.82,5.16a1.56,1.56,0,1,1,1.56-1.56A1.56,1.56,0,0,1,36.53,40.19Z"/><circle class="cls-5" cx="36.53" cy="38.62" r="0.78"/></svg>