<svg id="Layer_1" data-name="Layer 1" xmlns="https://www.w3.org/2000/svg" viewBox="0 0 50 50"><defs><style>.cls-1{fill:#939393;}.cls-2{fill:#c2c2c2;}.cls-3{fill:#f2f2f2;}.cls-4{fill:#0078d4;}.cls-5{fill:#fff;}</style></defs><title>EDU-Tasks-50px</title><path class="cls-1" d="M13.39,19.93a11.5,11.5,0,0,1,1.76.14,8.94,8.94,0,0,1,1.69.44,11.45,11.45,0,0,1,1.83-2.44A14.62,14.62,0,0,1,21,16.14a13.58,13.58,0,0,1,2.74-1.39,13.23,13.23,0,0,1,3-.72,7.56,7.56,0,0,0-.93-2.43,7.3,7.3,0,0,0-1.65-1.94A7.51,7.51,0,0,0,22,8.4a7.15,7.15,0,0,0-2.55-.46,7.51,7.51,0,0,0-5.06,2,7.83,7.83,0,0,0-1.63,2.16,7.52,7.52,0,0,0-.72,2.7,6.8,6.8,0,0,0-1.44-.62A5.33,5.33,0,0,0,9,13.91a5.93,5.93,0,0,0-2.39.47,5.81,5.81,0,0,0-1.91,1.29,6.1,6.1,0,0,0-1.29,6.66,5.81,5.81,0,0,0,1.44,2,10.13,10.13,0,0,1,3.73-3.24,10.36,10.36,0,0,1,4.82-1.16"/><path class="cls-2" d="M44.4,29.59a5.89,5.89,0,0,0-1.32-1.91,6,6,0,0,0-2-1.25A6.29,6.29,0,0,0,38.72,26a10.26,10.26,0,0,0-1.2-3.61,10.78,10.78,0,0,0-2.28-2.88,10.37,10.37,0,0,0-10.28-2,10.86,10.86,0,0,0-3,1.62,10.53,10.53,0,0,0-2.33,2.52,10.36,10.36,0,0,0-1.45,3.17,7.53,7.53,0,0,0-2.27-1.37,7.26,7.26,0,0,0-5.49.1,7.74,7.74,0,0,0-3.93,4,7.56,7.56,0,0,0,0,5.83,7.72,7.72,0,0,0,1.6,2.39,7.48,7.48,0,0,0,2.4,1.6A7.31,7.31,0,0,0,13.4,38H38.88a5.79,5.79,0,0,0,2.33-.48A6,6,0,0,0,44.88,32a5.86,5.86,0,0,0-.48-2.41"/><path class="cls-3" d="M37.55,47.91a12,12,0,1,1,12-12h0a12,12,0,0,1-12,12"/><path class="cls-4" d="M48.22,35.87A10.67,10.67,0,1,1,37.55,25.2,10.67,10.67,0,0,1,48.22,35.87"/><rect class="cls-2" x="31.28" y="31.23" width="8.31" height="2.49"/><rect class="cls-2" x="31.28" y="35.38" width="8.31" height="2.49"/><rect class="cls-2" x="31.28" y="39.54" width="8.31" height="2.49"/><polygon class="cls-5" points="44.27 34.7 42.13 36.84 41.3 36.02 40.79 36.52 42.13 37.86 44.77 35.21 44.27 34.7"/><polygon class="cls-5" points="41.3 40.29 40.79 40.8 42.13 42.13 44.77 39.49 44.27 38.98 42.13 41.12 41.3 40.29"/><polygon class="cls-5" points="44.27 30.43 42.13 32.56 41.3 31.74 40.79 32.25 42.13 33.58 44.77 30.93 44.27 30.43"/></svg>