<svg id="Layer_1" data-name="Layer 1" xmlns="https://www.w3.org/2000/svg" viewBox="0 0 50 50"><defs><style>.cls-1{fill:#c2c2c2;}.cls-2{fill:#0078d4;}.cls-3{fill:#2f2f2f;}</style></defs><title>EDU-Apps-Mgmt-50px</title><polygon class="cls-1" points="48.5 38.43 48.5 4.86 1.5 4.86 1.5 38.14 5.34 35.14 5.34 8.69 44.66 8.69 44.66 33.63 5.2 33.63 1.5 38.14 22.5 38.14 22.6 41.31 14.93 41.31 14.93 45.14 34.11 45.14 34.11 41.31 26.44 41.31 26.44 38.43 48.5 38.43"/><rect class="cls-2" x="21.29" y="24.98" width="6.67" height="6.67"/><polygon class="cls-3" points="22.63 17.86 22.63 11.64 25.29 11.64 25.29 17.86 27.51 15.6 28.98 16.93 24.18 21.73 19.38 16.93 20.85 15.6 22.63 17.86"/></svg>