<svg id="Layer_1" data-name="Layer 1" xmlns="https://www.w3.org/2000/svg" viewBox="0 0 50 50"><defs><style>.cls-1{fill:#c2c2c2;}.cls-2{fill:#939393;}.cls-3{fill:#0078d4;}.cls-4{fill:#f2f2f2;}.cls-5{fill:#2f2f2f;}.cls-6{fill:none;stroke:#0078d4;stroke-miterlimit:10;stroke-width:3px;}</style></defs><title>EDU-Deploy-50px</title><path class="cls-1" d="M45.59,31a5.78,5.78,0,0,0-1.29-1.94,5.6,5.6,0,0,0-1.95-1.23A7.07,7.07,0,0,0,40,27.42a8.85,8.85,0,0,0-1.22-3.6A10.14,10.14,0,0,0,36.46,21a10.36,10.36,0,0,0-6.84-2.59,11.54,11.54,0,0,0-3.45.57,9.14,9.14,0,0,0-3,1.66,9.48,9.48,0,0,0-2.31,2.52,9.66,9.66,0,0,0-1.43,3.16,6.88,6.88,0,0,0-2.31-1.37,8.43,8.43,0,0,0-2.59-.5A8,8,0,0,0,11.7,25a6.51,6.51,0,0,0-2.3,1.65A8.54,8.54,0,0,0,7.82,29a7.47,7.47,0,0,0,0,5.83A7.56,7.56,0,0,0,9.4,37.21a8.66,8.66,0,0,0,2.38,1.58,7.86,7.86,0,0,0,2.87.58H40.12a5.13,5.13,0,0,0,2.31-.51,5.64,5.64,0,0,0,3.16-3.16,6.27,6.27,0,0,0,.51-2.31A9.58,9.58,0,0,0,45.59,31"/><path class="cls-2" d="M14.58,21.11a14.43,14.43,0,0,1,1.73.15,5.89,5.89,0,0,1,1.65.43,12.27,12.27,0,0,1,1.8-2.45,15.5,15.5,0,0,1,2.38-1.94,14.24,14.24,0,0,1,2.73-1.37,14,14,0,0,1,2.95-.72,7.74,7.74,0,0,0-.93-2.44,8.5,8.5,0,0,0-1.66-1.94A8.57,8.57,0,0,0,23,9.53a7.33,7.33,0,0,0-2.52-.43,7.07,7.07,0,0,0-2.73.5A6.84,6.84,0,0,0,15.45,11a9.57,9.57,0,0,0-1.66,2.16,7,7,0,0,0-.72,2.66,5.21,5.21,0,0,0-1.44-.65c-.36,0-.93-.07-1.44-.07a5.41,5.41,0,0,0-2.37.51,5.63,5.63,0,0,0-1.94,1.29,5.76,5.76,0,0,0-1.3,1.94,6,6,0,0,0,0,4.75,5.8,5.8,0,0,0,1.44,2,10.21,10.21,0,0,1,3.74-3.24,9.75,9.75,0,0,1,4.82-1.3"/><path class="cls-3" d="M47.73,35.06a12,12,0,1,1-12-12,12,12,0,0,1,12,12h0"/><path class="cls-4" d="M35.85,45.76a10.7,10.7,0,1,1,10.69-10.7h0a10.73,10.73,0,0,1-10.69,10.7"/><g id="SYMBOLS"><g id="deploy"><polygon class="cls-5" points="43 42 36 42 36 35 29 35 29 28 43 28 43 42"/><line class="cls-6" x1="29.63" y1="41.6" x2="33.25" y2="37.97"/><polygon class="cls-3" points="31.31 36.31 34.69 39.69 34.69 36.31 31.31 36.31"/><rect class="cls-3" x="38.63" y="28" width="4.38" height="4.38"/></g></g></svg>