<svg id="Layer_1" data-name="Layer 1" xmlns="http://www.w3.org/2000/svg" viewBox="0 0 50 50"><defs><style>.cls-1{fill:#0078d4;}.cls-2{fill:#c2c2c2;}.cls-3{fill:#fff;}</style></defs><title>EDUAdmins-50px</title><path class="cls-1" d="M25.23,47.17A22.32,22.32,0,1,1,47.55,24.85,22.3,22.3,0,0,1,25.23,47.17Z"/><path class="cls-2" d="M25.23,3.71A21.14,21.14,0,1,1,4.09,24.85h0A21.2,21.2,0,0,1,25.23,3.71h0m0-2.36a23.5,23.5,0,1,0,23.5,23.5h0A23.5,23.5,0,0,0,25.23,1.35Z"/><g id="administrator"><g id="_Utility_-_Maintain" data-name=" Utility - Maintain"><path class="cls-3" d="M38.09,29.06a3.81,3.81,0,0,0,1.56-.33,3.85,3.85,0,0,0,1.28-.86,3.69,3.69,0,0,0,.85-1.27A4.22,4.22,0,0,0,42.11,25a3.86,3.86,0,0,0-.24-1.28l-3.21,3.17-2.51-2.51,3.17-3.21a3.57,3.57,0,0,0-2.79.09,4.25,4.25,0,0,0-2.13,2.13A4.36,4.36,0,0,0,34.07,25a2.47,2.47,0,0,0,0,.61l.14.57L26.7,33.78a1.74,1.74,0,0,0-.43.62,1.87,1.87,0,0,0,0,1.42,2,2,0,0,0,.95,1,1.82,1.82,0,0,0,1.41,0,2.58,2.58,0,0,0,.62-.38l7.61-7.56.57.14a3.36,3.36,0,0,0,.66,0"/></g><path class="cls-3" d="M25,25a7.15,7.15,0,0,0,7.42-6.9,6.93,6.93,0,0,0-4.35-6.29,7.71,7.71,0,0,0-6.14,0,6.87,6.87,0,0,0-4.35,6.29A7.15,7.15,0,0,0,25,25Z"/><path class="cls-3" d="M25,26.64c-6.15,0-11.16,4.64-11.16,10.36H25.23S23,35.11,25,33.12l5.25-5.29A17.65,17.65,0,0,0,25,26.64Z"/></g></svg>