<svg id="ICONS" xmlns="https://www.w3.org/2000/svg" viewBox="0 0 400 140">
  <defs>
    <style>
      .cls-1 {
        fill: #5c2d91;
      }

      .cls-2, .cls-20 {
        fill: none;
        stroke-miterlimit: 10;
        stroke-width: 2px;
      }

      .cls-2 {
        stroke: #808285;
      }

      .cls-3 {
        fill: #2a6dcf;
      }

      .cls-4 {
        fill: #6d6e71;
      }

      .cls-5 {
        fill: #414042;
      }

      .cls-6 {
        fill: #fff;
      }

      .cls-7 {
        fill: #808285;
      }

      .cls-8 {
        fill: #bad80a;
      }

      .cls-9 {
        fill: #556a8a;
      }

      .cls-10 {
        fill: gray;
      }

      .cls-11 {
        fill: #2e2e2e;
      }

      .cls-12 {
        fill: #1a1a1a;
      }

      .cls-13 {
        fill: #221f1f;
      }

      .cls-14 {
        fill: #80bceb;
      }

      .cls-15 {
        fill: #b62a2a;
      }

      .cls-16 {
        fill: #f0d4d4;
      }

      .cls-17 {
        fill: #d1d3d4;
      }

      .cls-18 {
        fill: #e6e7e8;
      }

      .cls-19 {
        fill: #939598;
      }

      .cls-20 {
        stroke: #414042;
      }

      .cls-21 {
        fill: #f1f2f2;
      }

      .cls-22 {
        fill: #2b978a;
      }

      .cls-23 {
        fill: #008272;
      }

      .cls-24 {
        fill: #558ad8;
      }

      .cls-25 {
        fill: #aad2f2;
      }
    </style>
  </defs>
  <title>education-pro-usb copy</title>
  <g>
    <ellipse class="cls-1" cx="66.48" cy="32.04" rx="11.52" ry="12.96"/>
    <line class="cls-2" x1="81" y1="57" x2="165" y2="57"/>
    <path class="cls-1" d="M89.7,65.67A3.44,3.44,0,0,1,86.24,69H46.76a3.44,3.44,0,0,1-3.47-3.33c-.38-7.33-1.22-16.17,3.87-21.1a12.82,12.82,0,0,1,6.11-3.2,16.51,16.51,0,0,0,12.89,6.32,13.08,13.08,0,0,0,1.52-.08,16.55,16.55,0,0,0,11.47-6.38C91.5,43.83,90.2,56.06,89.7,65.67Z"/>
  </g>
  <polyline class="cls-2" points="102 113 142 113 142 88"/>
  <line class="cls-2" x1="267.21" y1="64" x2="351.21" y2="64"/>
  <g>
    <ellipse class="cls-3" cx="338.69" cy="38.34" rx="12.67" ry="14.26"/>
    <path class="cls-3" d="M364.24,75.33A3.78,3.78,0,0,1,360.42,79H317a3.78,3.78,0,0,1-3.81-3.67c-.41-8.06-1.34-17.79,4.25-23.21a14.1,14.1,0,0,1,6.72-3.52,18.16,18.16,0,0,0,14.18,7,14.39,14.39,0,0,0,1.67-.09,18.2,18.2,0,0,0,12.61-7C366.21,51.31,364.78,64.77,364.24,75.33Z"/>
  </g>
  <g>
    <path class="cls-4" d="M328.21,61.12V89.88a.63.63,0,0,1-.64.62H304.85a.63.63,0,0,1-.64-.62V61.12a.63.63,0,0,1,.64-.62h22.72A.63.63,0,0,1,328.21,61.12Z"/>
    <g>
      <rect class="cls-5" x="302.21" y="63.5" width="2" height="2"/>
      <rect class="cls-6" x="304.21" y="63.5" width="2" height="2"/>
    </g>
    <g>
      <rect class="cls-5" x="302.21" y="70.5" width="2" height="2"/>
      <rect class="cls-6" x="304.21" y="70.5" width="2" height="2"/>
    </g>
    <g>
      <rect class="cls-5" x="302.21" y="77.5" width="2" height="2"/>
      <rect class="cls-6" x="304.21" y="77.5" width="2" height="2"/>
    </g>
    <g>
      <rect class="cls-5" x="302.21" y="84.5" width="2" height="2"/>
      <rect class="cls-6" x="304.21" y="84.5" width="2" height="2"/>
    </g>
    <path class="cls-7" d="M328.21,61.12V76.5l-16-16h15.36A.63.63,0,0,1,328.21,61.12Z"/>
    <rect class="cls-6" x="309.21" y="64.5" width="14" height="4"/>
  </g>
  <g>
    <ellipse class="cls-8" cx="90.48" cy="89.04" rx="11.52" ry="12.96"/>
    <path class="cls-8" d="M113.7,122.67a3.44,3.44,0,0,1-3.47,3.33H70.76a3.44,3.44,0,0,1-3.47-3.33c-.38-7.33-1.22-16.17,3.87-21.1a12.82,12.82,0,0,1,6.11-3.2,16.51,16.51,0,0,0,12.89,6.32,13.08,13.08,0,0,0,1.52-.08,16.55,16.55,0,0,0,11.47-6.38C115.5,100.83,114.2,113.06,113.7,122.67Z"/>
  </g>
  <g>
    <rect class="cls-3" x="89.97" y="110.03" width="30" height="8" transform="translate(-49.89 107.62) rotate(-45)"/>
    <polygon class="cls-9" points="90.12 123.22 88 131 95.78 128.88 90.12 123.22"/>
    <path class="cls-9" d="M119.11,105.54l1.41-1.41a3,3,0,0,0,0-4.24l-1.41-1.41a3,3,0,0,0-4.24,0l-1.41,1.41Z"/>
    <rect class="cls-6" x="113.31" y="101.19" width="1" height="8" transform="translate(-41.05 111.29) rotate(-45)"/>
  </g>
  <g>
    <g>
      <polygon class="cls-10" points="265 126 148 126 155.32 118 258.15 118 265 126"/>
      <polygon class="cls-11" points="254 124 159 124 162.34 119 250.76 119 254 124"/>
      <path class="cls-12" d="M260.37,129H153.3c-4.95,0-5-2.91-5-2.91H265S265.58,129,260.37,129Z"/>
    </g>
    <polygon class="cls-12" points="216 112 196 112 198 98 214 98 214.14 99 216 112"/>
    <polygon class="cls-11" points="216 112 206 112 206 99 214.14 99 216 112"/>
    <rect class="cls-13" x="130" y="16" width="153" height="84" rx="4" ry="4"/>
    <rect class="cls-14" x="134" y="20" width="145" height="76"/>
    <path class="cls-11" d="M235.79,116H177.21a2.12,2.12,0,0,1-2.21-2s3.74-3,3.92-3h54.16c2.25,0,4.92,3,4.92,3A2.12,2.12,0,0,1,235.79,116Z"/>
  </g>
  <g>
    <polygon class="cls-5" points="244.11 36 176.62 36 151.67 50 268.17 50 244.11 36"/>
    <rect class="cls-4" x="152" y="50" width="116" height="34"/>
    <polygon class="cls-15" points="210.25 31 209.75 31 184 49.69 184 84 236 84 236 49.69 210.25 31"/>
    <g>
      <rect class="cls-16" x="227" y="59" width="4" height="4"/>
      <rect class="cls-16" x="227" y="54" width="4" height="4"/>
      <rect class="cls-16" x="222" y="59" width="4" height="4"/>
      <rect class="cls-16" x="222" y="54" width="4" height="4"/>
      <rect class="cls-16" x="194" y="59" width="4" height="4"/>
      <rect class="cls-16" x="194" y="54" width="4" height="4"/>
      <rect class="cls-16" x="189" y="59" width="4" height="4"/>
      <rect class="cls-16" x="189" y="54" width="4" height="4"/>
      <rect class="cls-16" x="194" y="72" width="4" height="4"/>
      <rect class="cls-16" x="194" y="67" width="4" height="4"/>
      <rect class="cls-16" x="189" y="72" width="4" height="4"/>
      <rect class="cls-16" x="189" y="67" width="4" height="4"/>
      <rect class="cls-16" x="227" y="72" width="4" height="4"/>
      <rect class="cls-16" x="227" y="67" width="4" height="4"/>
      <rect class="cls-16" x="222" y="72" width="4" height="4"/>
      <rect class="cls-16" x="222" y="67" width="4" height="4"/>
      <rect class="cls-16" x="210" y="59" width="4" height="4"/>
      <rect class="cls-16" x="210" y="54" width="4" height="4"/>
      <rect class="cls-16" x="205" y="59" width="4" height="4"/>
      <rect class="cls-16" x="205" y="54" width="4" height="4"/>
    </g>
    <rect class="cls-5" x="204" y="70" width="12" height="14"/>
    <rect class="cls-17" x="205" y="71" width="10" height="13"/>
    <g>
      <rect class="cls-18" x="162" y="59" width="3" height="4"/>
      <rect class="cls-18" x="162" y="54" width="3" height="4"/>
      <rect class="cls-18" x="158" y="54" width="3" height="4"/>
      <rect class="cls-18" x="158" y="59" width="3" height="4"/>
    </g>
    <g>
      <rect class="cls-18" x="162" y="72" width="3" height="4"/>
      <rect class="cls-18" x="162" y="67" width="3" height="4"/>
      <rect class="cls-18" x="158" y="67" width="3" height="4"/>
      <rect class="cls-18" x="158" y="72" width="3" height="4"/>
    </g>
    <g>
      <rect class="cls-18" x="175" y="59" width="3" height="4"/>
      <rect class="cls-18" x="175" y="54" width="3" height="4"/>
      <rect class="cls-18" x="171" y="59" width="3" height="4"/>
      <rect class="cls-18" x="171" y="54" width="3" height="4"/>
    </g>
    <g>
      <rect class="cls-18" x="175" y="72" width="3" height="4"/>
      <rect class="cls-18" x="175" y="67" width="3" height="4"/>
      <rect class="cls-18" x="171" y="72" width="3" height="4"/>
      <rect class="cls-18" x="171" y="67" width="3" height="4"/>
    </g>
    <g>
      <rect class="cls-18" x="246" y="59" width="3" height="4"/>
      <rect class="cls-18" x="246" y="54" width="3" height="4"/>
      <rect class="cls-18" x="242" y="59" width="3" height="4"/>
      <rect class="cls-18" x="242" y="54" width="3" height="4"/>
      <g>
        <rect class="cls-18" x="259" y="59" width="3" height="4"/>
        <rect class="cls-18" x="259" y="54" width="3" height="4"/>
        <rect class="cls-18" x="255" y="59" width="3" height="4"/>
        <rect class="cls-18" x="255" y="54" width="3" height="4"/>
      </g>
    </g>
    <g>
      <rect class="cls-18" x="246" y="72" width="3" height="4"/>
      <rect class="cls-18" x="246" y="67" width="3" height="4"/>
      <rect class="cls-18" x="242" y="72" width="3" height="4"/>
      <rect class="cls-18" x="242" y="67" width="3" height="4"/>
      <g>
        <rect class="cls-18" x="259" y="72" width="3" height="4"/>
        <rect class="cls-18" x="259" y="67" width="3" height="4"/>
        <rect class="cls-18" x="255" y="72" width="3" height="4"/>
        <rect class="cls-18" x="255" y="67" width="3" height="4"/>
      </g>
    </g>
    <path class="cls-19" d="M214.24,37.76a6,6,0,1,1-8.49,0A6,6,0,0,1,214.24,37.76Z"/>
    <polyline class="cls-20" points="214.5 43 210 43 210 38"/>
    <polygon class="cls-21" points="215 71 215 77 209 71 215 71"/>
    <path class="cls-22" d="M162.67,80.42a3.3,3.3,0,0,1-.8,2.2,5,5,0,0,1-2.14,1.4l-.27.1a9.78,9.78,0,0,1-1.29.3c-1.33.22-6.55,0-8.25,0-3.73,0-6.75-2.12-6.75-4.75a4.46,4.46,0,0,1,2.65-3.77,2.75,2.75,0,0,1-1.15-2.23,1.79,1.79,0,0,1,0-.24,2.67,2.67,0,0,1,.67-1.58,2.72,2.72,0,0,1,2.06-.93,2.9,2.9,0,0,1,.76.1,9,9,0,0,1,.23-1.87,7.58,7.58,0,0,1,.6-1.7,4,4,0,0,1,3.42-2.53c1.81,0,3.35,1.66,4,4,2.11.09,3.79,1.51,3.79,3.24a2.81,2.81,0,0,1-.65,1.77,3.42,3.42,0,0,1,2.15,3,2.79,2.79,0,0,1-.29,1.21A2.94,2.94,0,0,1,162.67,80.42Z"/>
    <path class="cls-23" d="M159.73,84l-.27.1a9.78,9.78,0,0,1-1.29.3h-8.25c-3.73,0-6.75-2.12-6.75-4.75a4.46,4.46,0,0,1,2.65-3.77,2.75,2.75,0,0,1-1.15-2.23,1.79,1.79,0,0,1,0-.24,2.65,2.65,0,0,1,.49.09,9,9,0,0,1,.18-1.67,2.72,2.72,0,0,1,2.06-.93,2.9,2.9,0,0,1,.76.1,9,9,0,0,1,.23-1.87,7.58,7.58,0,0,1,.6-1.7,2.84,2.84,0,0,1,.42,0c1.81,0,3.75,1,3.75,4,2.79-1,4.5.76,4.5,2.5a3.38,3.38,0,0,1-1.15,2.52c1.65,0,2.65.72,2.65,2a3.14,3.14,0,0,1-.79,2.21,2.94,2.94,0,0,1,1.29,2.29C159.67,83.21,159.74,83.65,159.73,84Z"/>
  </g>
  <g>
    <g>
      <polygon class="cls-3" points="93 36 93 50 109.5 33.5 93 36"/>
      <rect class="cls-3" x="87" y="15" width="34" height="27" rx="3" ry="3"/>
    </g>
    <path class="cls-24" d="M121,18V31L105,15h13A3,3,0,0,1,121,18Z"/>
    <rect class="cls-25" x="96" y="24" width="16" height="1"/>
    <rect class="cls-25" x="96" y="28" width="16" height="1"/>
    <rect class="cls-25" x="96" y="32" width="9" height="1"/>
  </g>
</svg>
