<svg id="ICONS" xmlns="https://www.w3.org/2000/svg" viewBox="0 0 400 140">
  <defs>
    <style>
      .cls-1 {
        fill: #2b6dcf;
      }

      .cls-2 {
        fill: #9273b6;
        fill-rule: evenodd;
      }

      .cls-3 {
        fill: #221f1f;
      }

      .cls-4 {
        fill: #80bceb;
      }

      .cls-5 {
        fill: #939598;
      }

      .cls-6 {
        fill: #414042;
      }

      .cls-7 {
        fill: #6d6e71;
      }

      .cls-8 {
        fill: #bcbec0;
      }

      .cls-9 {
        fill: #bad80a;
      }

      .cls-10 {
        fill: #aad2f2;
      }

      .cls-11, .cls-12 {
        fill: none;
        stroke-miterlimit: 10;
        stroke-width: 2px;
      }

      .cls-11 {
        stroke: #414042;
        stroke-linecap: round;
      }

      .cls-12 {
        stroke: #808285;
      }

      .cls-13 {
        fill: #808285;
      }

      .cls-14 {
        fill: #2b8fde;
      }
    </style>
  </defs>
  <title>education-pro-usb</title>
  <path class="cls-1" d="M99.47,73.06A1.4,1.4,0,0,0,98,71.65l-5.79-.72A22.51,22.51,0,0,0,91.5,67l4.69-3.19A1.51,1.51,0,0,0,97,61.75l-1.51-3.49a1.3,1.3,0,0,0-1.87-.58L87.85,59,85.93,56l3.22-4.62a1.56,1.56,0,0,0-.05-2.06l-2.94-2.84a1.86,1.86,0,0,0-2.07.05L79.6,49.89c-1-.6-2.29-1.4-3.33-2l1.13-5.81a1.41,1.41,0,0,0-.85-1.64L73,39.07a1.32,1.32,0,0,0-1.86.65l-3,5.23a11.81,11.81,0,0,0-3.73-.76l-.93-5.76A1.42,1.42,0,0,0,62,37l-3.92.29c-.63-.19-1.24.44-1.43,1.06l-.92,6a12.34,12.34,0,0,0-3.7.89l-3.2-5.09A2.09,2.09,0,0,0,47,39.57L43.29,41.3a1.42,1.42,0,0,0-.8,1.66L44,48.51c-1,.64-2,1.69-3.05,2.34l-4.82-3.42a1.26,1.26,0,0,0-1.66.08,1,1,0,0,0-.19.16l-1.69,1.75-.94,1,0,0a1.33,1.33,0,0,0-.15,1.83l3.6,4.68a17.53,17.53,0,0,0-2.21,3.56L27.09,59A1.82,1.82,0,0,0,25.25,60l-1.38,3.54a1.78,1.78,0,0,0,.87,2.05l5,2.79c-.4,1.25-.37,2.49-.77,3.74l-5.76.94A1.81,1.81,0,0,0,22,74.77l.07,3.71a1.8,1.8,0,0,0,1.27,1.64l6,.51a23.64,23.64,0,0,0,.89,4.11l-5.11,3.19a1.32,1.32,0,0,0-.58,1.88l1.51,3.48a1.94,1.94,0,0,0,1.89,1l5.75-1.76c.64,1,1.28,2,1.92,3.06l-3.43,4.82a2,2,0,0,0,.24,1.85l3,2.83a1.55,1.55,0,0,0,1.85.18l4.7-3.61c1,.61,2.29,1.41,3.33,2l-1.12,5.82a1.39,1.39,0,0,0,.86,1.63l3.74,1.58A1.75,1.75,0,0,0,50.6,112l2.79-5c1.25,0,2.5.36,3.73.34l.73,6a1.81,1.81,0,0,0,1.68,1.2l3.93.14a2.52,2.52,0,0,0,1.41-1.47l.73-5.81c1.44-.23,2.67-.67,4.11-.9l3,4.9a1.42,1.42,0,0,0,1.88.58L78,110.47a1.69,1.69,0,0,0,1-1.88L77.5,103a14.87,14.87,0,0,0,3.06-2.33l4.81,3.42a1.39,1.39,0,0,0,2.07,0l1.79-1.86.63-.66.22-.22a1.44,1.44,0,0,0,.43-1.08,1.39,1.39,0,0,0-.48-1l-3.6-4.7A10.18,10.18,0,0,0,88.64,91l5.82,1.55a1.41,1.41,0,0,0,1.63-.86L97.68,88A2.1,2.1,0,0,0,97,86.13l-5.22-3a10.36,10.36,0,0,0,.55-3.53l6-1.15c.61-.22,1.22-.85,1.22-1.27Zm-31.8,7.61a9,9,0,1,1,1.79-6A9,9,0,0,1,67.67,80.67Z"/>
  <path class="cls-2" d="M130.63,34.53l-3-.43c-.22-.65-.22-1.3-.43-1.95l2.6-1.51a.79.79,0,0,0,.43-1.08l-.87-1.73c0-.43-.43-.65-.87-.65l-3,.87a4.71,4.71,0,0,0-1.08-1.73l1.73-2.6a.66.66,0,0,0,0-.87l-1.52-1.51a.66.66,0,0,0-.87,0l-2.6,1.73c-.43-.43-1.08-.65-1.52-1.08l.65-3c.22-.22,0-.65-.43-.87l-1.73-.65a1,1,0,0,0-1.08.22l-1.52,2.6c-.65-.22-1.3-.22-2.17-.43l-.43-3a.69.69,0,0,0-.65-.65h-2.17a.69.69,0,0,0-.65.65l-.43,3c-.65.22-1.3.22-1.95.43l-1.52-2.6c-.22-.43-.65-.43-1.08-.43l-1.95.87c-.22,0-.43.43-.43.87l.87,3a4.72,4.72,0,0,0-1.73,1.08l-2.6-1.73a.66.66,0,0,0-.87,0L96.2,22.85a.66.66,0,0,0,0,.87l1.73,2.6c-.43.43-.65,1.08-1.08,1.51l-3-.65c-.22-.22-.65,0-.87.43l-.87,1.73c0,.43,0,.87.43,1.08l2.6,1.51c-.22.65-.22,1.51-.43,2.16l-3,.43a.69.69,0,0,0-.65.65v2.16a.57.57,0,0,0,.65.65l3,.43a6.31,6.31,0,0,0,.43,1.95l-2.6,1.51A.79.79,0,0,0,92.08,43l.87,1.95c0,.22.43.43.87.43l3-.87a4.71,4.71,0,0,0,1.08,1.73l-1.73,2.6a1,1,0,0,0,0,1.08l1.52,1.3c.22.22.65.43.87.22l2.6-1.95a3.88,3.88,0,0,0,1.52,1.08l-.65,3c-.22.22,0,.65.43.87l1.73.87c.43,0,.87,0,1.08-.43l1.52-2.6a6.41,6.41,0,0,0,2.17.43l.43,3a.69.69,0,0,0,.65.65h2.17a.69.69,0,0,0,.65-.65l.43-3a6.33,6.33,0,0,0,1.95-.43l1.52,2.6a.79.79,0,0,0,1.08.43l1.95-.87c.22,0,.43-.43.43-.87l-.87-3a4.72,4.72,0,0,0,1.73-1.08l2.6,1.95c.22.22.65,0,.87-.22l1.52-1.3a1,1,0,0,0,0-1.08l-1.73-2.6a9.16,9.16,0,0,0,1.08-1.51l3,.87a1.16,1.16,0,0,0,.87-.65l.87-1.73c0-.43,0-.87-.43-1.08l-2.6-1.51c.22-.65.22-1.3.43-2.16l3-.43a.57.57,0,0,0,.65-.65V35.18a.69.69,0,0,0-.65-.65Zm-7.15,5a1,1,0,0,1-1.52.65l-5-3.24c-.65-.22-.65-.87,0-1.3l5-3.24a1.12,1.12,0,0,1,1.52.65,15.77,15.77,0,0,1,.43,3.24,13.25,13.25,0,0,1-.43,3.24Zm-1.3-9.73a1,1,0,0,1-.65,1.51l-5.85,1.3c-.65.22-1.08-.22-.87-.87l1.3-5.84c.22-.87.87-1.08,1.52-.65a14.3,14.3,0,0,1,2.6,1.95,14.29,14.29,0,0,1,1.95,2.6Zm-14.29-6.06a12.41,12.41,0,0,1,6.5,0,1,1,0,0,1,.65,1.51l-3.25,5.19c-.43.65-1.08.65-1.3,0l-3.25-5.19a1,1,0,0,1,.65-1.51Zm6.5,12.55a3.25,3.25,0,0,1-6.5,0,3.26,3.26,0,0,1,6.5,0ZM104.64,25a1,1,0,0,1,1.52.65l1.3,5.84c.22.65-.22,1.08-1.08,1.08l-5.63-1.51c-.87-.22-1.08-.87-.65-1.51A7.81,7.81,0,0,1,102,27a14.3,14.3,0,0,1,2.6-1.95ZM98.58,39.29A13.25,13.25,0,0,1,98.15,36a15.77,15.77,0,0,1,.43-3.24.93.93,0,0,1,1.52-.43l5.2,3a.83.83,0,0,1,0,1.51l-5.2,3c-.65.43-1.3.22-1.52-.65Zm1.3,3.46a1,1,0,0,1,.65-1.51l5.85-1.51c.65-.22,1.08.22,1.08,1.08l-1.52,5.84a1.12,1.12,0,0,1-1.52.65,14.3,14.3,0,0,1-2.6-1.95c-1.08-1.3-1.95-2.6-1.95-2.6Zm14.29,5.84a13.29,13.29,0,0,1-3.25.43,15.82,15.82,0,0,1-3.25-.43,1.12,1.12,0,0,1-.65-1.51l3.25-5c.43-.65,1.08-.65,1.3,0l3.25,5c.43.65.22,1.3-.65,1.51Zm3.25-1.3c-.65.43-1.3.22-1.52-.65l-1.3-5.84c-.22-.65.22-1.08,1.08-.87l5.85,1.3a1.12,1.12,0,0,1,.65,1.51,14.29,14.29,0,0,1-1.95,2.6,22.45,22.45,0,0,1-2.82,1.95Z"/>
  <g>
    <path class="cls-3" d="M380,125H236.81c-4.71,0-5.81-3-5.81-3H385A5.43,5.43,0,0,1,380,125Z"/>
    <g>
      <path class="cls-3" d="M367,120H249a3,3,0,0,1-3-3V19a3,3,0,0,1,3-3H367a3,3,0,0,1,3,3v98A3,3,0,0,1,367,120Z"/>
      <rect class="cls-4" x="250" y="20" width="116" height="96"/>
    </g>
    <polygon class="cls-5" points="385 122 370 107 245.94 107 231 122 385 122"/>
  </g>
  <polygon class="cls-3" points="323 119 293 119 294 116 322 116 323 119"/>
  <g>
    <polygon class="cls-6" points="217.1 60.08 199.2 42.82 180.82 61.2 200.62 81 217.13 64.49 217.1 60.08"/>
    <g>
      <path class="cls-7" d="M197.32,79.89,176.11,58.68l19.8-19.8L217.12,60.1Z"/>
      <rect class="cls-8" x="184.61" y="46.39" width="24" height="26" transform="translate(15.59 156.42) rotate(-45)"/>
    </g>
    <rect class="cls-6" x="193.2" y="48.32" width="4" height="8" transform="translate(94.17 -122.7) rotate(45)"/>
    <rect class="cls-6" x="201.68" y="56.8" width="4" height="8" transform="translate(102.65 -126.22) rotate(45)"/>
    <path class="cls-6" d="M209,75,180.35,51.37,140.75,91a6,6,0,0,0,0,8.49l19.8,19.8a6,6,0,0,0,8.49,0L209,80Z"/>
    <path class="cls-7" d="M181,47,140.75,87a6,6,0,0,0,0,8.49l19.8,19.8a6,6,0,0,0,8.49,0L209,75Z"/>
    <rect class="cls-9" x="144.07" y="96.43" width="28" height="3" transform="translate(115.54 -83.09) rotate(45)"/>
    <rect class="cls-9" x="149.73" y="90.77" width="28" height="3" transform="translate(113.2 -88.75) rotate(45)"/>
  </g>
  <polygon class="cls-10" points="366 20 366 62 324 20 366 20"/>
  <rect class="cls-3" x="246" y="104" width="124" height="3"/>
  <g>
    <line class="cls-11" x1="220" y1="76" x2="275.66" y2="76"/>
    <polygon class="cls-6" points="270.02 82.95 268.86 81.71 275 76 268.86 70.29 270.02 69.05 277.5 76 270.02 82.95"/>
  </g>
  <g>
    <path class="cls-12" d="M12,101.14c23.68,36.51,76.75,33.09,105.28-2.29"/>
    <polygon class="cls-13" points="118.93 107.61 117.23 107.69 116.82 99.32 108.5 100.34 108.29 98.66 118.42 97.41 118.93 107.61"/>
  </g>
  <g>
    <rect class="cls-10" x="280" y="36" width="56" height="2"/>
    <rect class="cls-10" x="280" y="46" width="56" height="2"/>
    <rect class="cls-10" x="280" y="56" width="56" height="2"/>
    <rect class="cls-10" x="280" y="66" width="33" height="2"/>
  </g>
  <path class="cls-14" d="M99.47,73.06A1.4,1.4,0,0,0,98,71.65l-5.79-.72A22.51,22.51,0,0,0,91.5,67l4.69-3.19A1.51,1.51,0,0,0,97,61.75l-1.51-3.49a1.3,1.3,0,0,0-1.87-.58L87.85,59,85.93,56l3.22-4.62a1.56,1.56,0,0,0-.05-2.06l-2.94-2.84a1.86,1.86,0,0,0-2.07.05L79.6,49.89c-1-.6-2.29-1.4-3.33-2l1.13-5.81a1.41,1.41,0,0,0-.85-1.64L73,39.07a1.32,1.32,0,0,0-1.86.65l-3,5.23a11.81,11.81,0,0,0-3.73-.76l-.93-5.76A1.42,1.42,0,0,0,62,37l-3.92.29c-.63-.19-1.24.44-1.43,1.06l-.92,6a12.34,12.34,0,0,0-3.7.89l-3.2-5.09A2.09,2.09,0,0,0,47,39.57L43.29,41.3a1.42,1.42,0,0,0-.8,1.66L44,48.51c-1,.64-2,1.69-3.05,2.34l-4.82-3.42a1.26,1.26,0,0,0-1.66.08L55.07,68.07a9,9,0,0,1,12.6,12.6h0l21.56,21.56.63-.66.22-.22a1.44,1.44,0,0,0,.43-1.08,1.39,1.39,0,0,0-.48-1l-3.6-4.7A10.18,10.18,0,0,0,88.64,91l5.82,1.55a1.41,1.41,0,0,0,1.63-.86L97.68,88A2.1,2.1,0,0,0,97,86.13l-5.22-3a10.36,10.36,0,0,0,.55-3.53l6-1.15c.61-.22,1.22-.85,1.22-1.27Z"/>
</svg>
