<svg id="ICONS" xmlns="https://www.w3.org/2000/svg" viewBox="0 0 400 140">
  <defs>
    <style>
      .cls-1 {
        fill: #55a5e4;
        opacity: 0.2;
      }

      .cls-2 {
        fill: #fff;
        stroke: #55a5e4;
        stroke-miterlimit: 10;
        stroke-width: 2px;
      }

      .cls-3 {
        fill: #7750a3;
      }

      .cls-4 {
        fill: #4d4e4e;
      }

      .cls-5 {
        fill: #0078d7;
      }

      .cls-6 {
        fill: #2b8fde;
      }

      .cls-7 {
        fill: #0050c5;
      }

      .cls-8 {
        fill: #b4a0ff;
        opacity: 0.5;
      }

      .cls-9 {
        fill: #bad80a;
      }

      .cls-10 {
        fill: #ddec85;
      }

      .cls-11 {
        fill: #80bceb;
      }
    </style>
  </defs>
  <title>education-partner-aep-2</title>
  <g>
    <path class="cls-1" d="M119.51,50.32a35.43,35.43,0,0,1,69.94-1.11,24.11,24.11,0,0,1,38.72,12.26,21.07,21.07,0,1,1,5,41.54H114.58c-12-2.44-21.08-13.6-21.08-26.35A26.34,26.34,0,0,1,119.51,50.32Z"/>
    <g>
      <path class="cls-2" d="M124.38,65.52a37.39,37.39,0,0,1,74-1.19,25.21,25.21,0,0,1,16.34-6,25.57,25.57,0,0,1,24.62,19.14,22,22,0,0,1,5.29-.67,22.61,22.61,0,0,1,0,45.21H119.17c-12.72-2.62-22.3-14.59-22.3-28.25A28.06,28.06,0,0,1,124.38,65.52Z"/>
      <g>
        <ellipse class="cls-3" cx="163" cy="69.36" rx="14.5" ry="16.5"/>
        <path class="cls-3" d="M192.13,111.64a4.49,4.49,0,0,1-3.68,4.31,3.81,3.81,0,0,1-.59,0H139.14a4.46,4.46,0,0,1-4.28-4.36c-.46-9.16-1.5-20.22,4.78-26.38a15.69,15.69,0,0,1,7.53-4,20.35,20.35,0,0,0,14.42,7.84,14.71,14.71,0,0,0,1.49.07,16.36,16.36,0,0,0,1.87-.1,20.39,20.39,0,0,0,14.15-8C194.35,84.33,192.74,99.63,192.13,111.64Z"/>
      </g>
      <g>
        <rect class="cls-4" x="142.5" y="49" width="3" height="18.75" rx="1.5" ry="1.5"/>
        <path class="cls-5" d="M185.87,50l-8.37,3V63c0,4.17-6.83,8-14.62,8s-14.38-3.83-14.38-8V53l-8.63-3,23-8Z"/>
        <path class="cls-6" d="M177.5,54v9c0,4.17-6.83,8-14.62,8s-14.38-3.83-14.38-8V54l14,7Z"/>
        <polygon class="cls-7" points="163.5 63 177.5 58.05 177.5 53 163.5 58 148.5 53 148.5 58.05 163.5 63"/>
        <path class="cls-4" d="M141.5,72V67.5c0-1.65.9-3,2-3h1c1.1,0,2,1.35,2,3V72Z"/>
      </g>
      <path class="cls-8" d="M192.13,111.64a4.49,4.49,0,0,1-3.68,4.31L161.59,89.09a14.71,14.71,0,0,0,1.49.07,16.36,16.36,0,0,0,1.87-.1,20.39,20.39,0,0,0,14.15-8C194.35,84.33,192.74,99.63,192.13,111.64Z"/>
      <circle class="cls-9" cx="253.5" cy="78" r="53" transform="translate(19.09 202.1) rotate(-45)"/>
      <path class="cls-10" d="M291,40.52a53,53,0,0,1,0,75l-75-75A53,53,0,0,1,291,40.52Z"/>
      <polygon class="cls-5" points="118.5 81 121.16 87.85 128.5 88.27 122.81 92.92 124.68 100.02 118.5 96.05 112.32 100.02 114.19 92.92 108.5 88.27 115.84 87.85 118.5 81"/>
      <g>
        <polygon class="cls-5" points="258.49 70.32 256.48 78.17 247.28 114 241.48 104.19 237.54 106.53 231.68 109.99 242.88 66.31 258.49 70.32"/>
        <polygon class="cls-6" points="256.48 78.17 247.28 114 241.48 104.19 237.54 106.53 245.54 75.35 256.48 78.17"/>
        <polygon class="cls-5" points="276.04 106.88 268.44 104.11 265.33 102.98 261.44 113.68 242.92 73.93 242.38 72.8 256.98 66.01 276.04 106.88"/>
        <polygon class="cls-6" points="268.44 104.11 265.33 102.98 261.44 113.68 242.92 73.93 252.32 69.55 268.44 104.11"/>
        <polygon class="cls-7" points="252.05 47.01 258.09 43.14 261.38 49.51 268.55 49.18 268.22 56.35 274.6 59.64 270.72 65.69 274.6 71.73 268.22 75.02 268.55 82.19 261.38 81.86 258.09 88.23 252.05 84.36 246.01 88.23 242.71 81.86 235.54 82.19 235.88 75.02 229.5 71.73 233.37 65.69 229.5 59.64 235.88 56.35 235.54 49.18 242.71 49.51 246.01 43.14 252.05 47.01"/>
        <path class="cls-11" d="M261,65.68a9,9,0,1,1-9-9A8.93,8.93,0,0,1,261,65.68Z"/>
      </g>
    </g>
  </g>
</svg>
