<svg id="ICONS" xmlns="https://www.w3.org/2000/svg" viewBox="0 0 400 140">
  <defs>
    <style>
      .cls-1 {
        fill: #0078d7;
        isolation: isolate;
      }

      .cls-2 {
        fill: #2dbceb;
        opacity: 0.41;
      }

      .cls-3 {
        fill: #556a8a;
      }

      .cls-4 {
        fill: #bad80a;
      }

      .cls-14, .cls-5 {
        fill: none;
      }

      .cls-5 {
        stroke: #556a8a;
      }

      .cls-5, .cls-8 {
        stroke-miterlimit: 10;
        stroke-width: 2px;
      }

      .cls-6, .cls-8 {
        fill: #fff;
      }

      .cls-7 {
        fill: #e5e5e5;
      }

      .cls-8 {
        stroke: #55a5e4;
      }

      .cls-9 {
        fill: #55a5e4;
        opacity: 0.3;
      }

      .cls-10 {
        fill: #2b6dcf;
      }

      .cls-11 {
        fill: #558ad8;
      }

      .cls-12 {
        fill: #939598;
      }

      .cls-13 {
        fill: #4d4d4d;
      }
    </style>
  </defs>
  <title>education-partner-mepn-1</title>
  <g>
    <ellipse class="cls-1" cx="104.5" cy="29.46" rx="10" ry="12.46"/>
    <path class="cls-1" d="M87.5,101.43V140H98.58c1.54-13.16,3.6-30.57,3.94-32.83.43-2.76,4.7-2.76,5.12,0,.35,2.26,2.74,19.67,4.45,32.83h10.4V99h6l-.33-12.33-.67-25.2,8.42,2.19a4.54,4.54,0,0,0,1.93.25,4.49,4.49,0,0,0,1.48-.38l19-9.45a4.54,4.54,0,1,0-3.75-8.27L138,52.64,122.08,48c-.93-.28-1.91-.57-2.94-.86l0,0c-2.06-.58-4.18-1.16-5.79-1.59l-2.7-.72-6,12.48h-.1l-6-12.48s-5.77,1.3-9.89,2.39L87,47.6A8.84,8.84,0,0,0,81.48,52,11.43,11.43,0,0,0,80.2,56.4c-.61,6.36-.6,20.59-1.12,26.31-.19,2-.2,8.56,2.07,11.48A88.76,88.76,0,0,0,87.5,101.43Z"/>
    <path class="cls-2" d="M158.36,54.08l-19,9.45a4.49,4.49,0,0,1-1.48.38,4.54,4.54,0,0,1-1.93-.25l-8.42-2.19.67,25.2L128.5,99l-47-47A8.84,8.84,0,0,1,87,47.6l1.63-.44c4.12-1.09,9.89-2.39,9.89-2.39l6,12.48h.1l6-12.48,2.7.72c1.61.43,3.73,1,5.79,1.59l0,0c1,.29,2,.58,2.94.86L138,52.64l16.63-6.83a4.54,4.54,0,1,1,3.75,8.27Z"/>
  </g>
  <g>
    <path class="cls-3" d="M136.66,40.43h3.41l-.09-18h-3.32c-2.2,0-4.65,4.35-4.62,9S134.46,40.45,136.66,40.43Z"/>
    <path class="cls-4" d="M134.62,31.53c0-5,1.74-9,3.94-9a14,14,0,0,1,1.76,0c1.91.67,2.25,4.46,2.27,8.93s.22,8.36-1.72,9c-.17.05-2,0-2.22,0C136.45,40.5,134.65,36.49,134.62,31.53Z"/>
    <path class="cls-5" d="M158.39,35.18h-2.7a7.65,7.65,0,1,0,0,15.3h2.7a7.65,7.65,0,1,0,0-15.3Z"/>
    <path class="cls-6" d="M179.06,31.52v-.08c0-8.74,1-15.81,3-19-3.7,1.91-12.29,4.88-22.83,7.61-5,1.3-19.12,3.36-19.17,3.39-1.53,1.53-1.9,5.59-2,7.37,0,.27,0,.48,0,.63,0,1.13.24,6.24,2,8,0,0,14.21,2.09,19.17,3.39,10.54,2.73,19.13,5.7,22.83,7.61-1.6-2.54-2.56-7.62-2.87-14.07C179.1,34.85,179.06,33.22,179.06,31.52Z"/>
    <path class="cls-7" d="M182,50.48c-3.7-1.91-12.29-4.88-22.83-7.61-5-1.3-19.12-3.36-19.17-3.39-1.76-1.76-2-8.36-1.65-7.8,0,0,12,1.55,18.65,2.8s22,6,22,6C179,46.1,180.44,47.94,182,50.48Z"/>
    <path class="cls-5" d="M179.06,31.48v0c0-8,.83-14.61,2.5-18.08.15-.32-.38,0-.21-.3-.47.24.81-.56.19-.28a168.81,168.81,0,0,1-22.33,7.31c-5,1.3-19.12,3.36-19.17,3.39-1.76,1.76-2,6.87-2,8s.24,6.24,2,8c.05,0,14.21,2.09,19.17,3.39,10.54,2.73,17.5,5.11,21.2,7-.25-.39,1,.61.75.09-1.52-3.58-2.1-10.83-2.1-18.47Z"/>
    <path class="cls-4" d="M190.57,31.5c0,8.33-2.32,15.48-4.24,18.7-.68,1.15-1.45,1.8-2.25,1.8a2.59,2.59,0,0,1-2-1.36c-1.58-2.27-2.81-7.18-3.29-13.28-.15-1.86-.23-3.82-.23-5.86s.08-4,.23-5.9c.49-6.08,1.71-11,3.29-13.23a2.58,2.58,0,0,1,2-1.37c.8,0,1.57.64,2.25,1.81C188.25,16,190.57,23.19,190.57,31.5Z"/>
    <path class="cls-3" d="M186,31.48a6,6,0,0,1-6,6,6.09,6.09,0,0,1-1.22-.12c-.15-1.86-.23-3.82-.23-5.86s.08-4,.23-5.9a6.08,6.08,0,0,1,1.22-.12A6,6,0,0,1,186,31.48Z"/>
    <path class="cls-5" d="M190.57,31.5c0,8.33-2.32,15.48-4.24,18.7-.68,1.15-1.45,1.8-2.25,1.8a2.57,2.57,0,0,1-2-1.36c-2.06-3-3.52-10.4-3.52-19.14s1.46-16.17,3.52-19.13a2.59,2.59,0,0,1,2-1.37c.8,0,1.57.65,2.25,1.81C188.25,16,190.57,23.19,190.57,31.5Z"/>
  </g>
  <line class="cls-5" x1="194" y1="31" x2="215" y2="31"/>
  <line class="cls-5" x1="194" y1="27" x2="206.5" y2="14.5"/>
  <line class="cls-5" x1="206" y1="48" x2="194" y2="36"/>
  <path class="cls-8" d="M205,119.49a25.36,25.36,0,0,1-.21-49.42c1.86-11.89,12-21,23.91-21A24,24,0,0,1,249.1,60.55,24.2,24.2,0,0,1,259.85,58c10.36,0,33.33-3.63,30.34,8.46,1.56-.33-4,7.57-2.39,7.57a22.89,22.89,0,0,1,9.69,43.64l-.35.15a21.08,21.08,0,0,1-6.77,1.85l-.57.06c-3,.26-7,.31-13.37.31H209.83A20.74,20.74,0,0,1,205,119.49Z"/>
  <path class="cls-9" d="M174.53,84.54a28.34,28.34,0,0,1,56-.89,19.29,19.29,0,0,1,31,9.8,16.86,16.86,0,1,1,4,33.23H170.59a21.56,21.56,0,0,1-16.87-21.08A21.08,21.08,0,0,1,174.53,84.54Z"/>
  <g>
    <path class="cls-10" d="M314.4,68.17A45.49,45.49,0,1,1,301.08,36,45.41,45.41,0,0,1,314.4,68.17Z"/>
    <path class="cls-11" d="M314.4,68.17a45.41,45.41,0,0,1-12.61,31.47L237.44,35.28a45.51,45.51,0,0,1,77,32.89Z"/>
    <polygon class="cls-12" points="242.76 42.03 260.86 76.21 295.04 94.31 273.17 62.48 242.76 42.03"/>
    <rect class="cls-6" x="267.48" y="26.94" width="2.84" height="12.8"/>
    <rect class="cls-6" x="267.48" y="96.61" width="2.84" height="12.8"/>
    <rect class="cls-6" x="232.65" y="61.77" width="2.84" height="12.8" transform="translate(165.9 302.24) rotate(-90)"/>
    <rect class="cls-6" x="302.32" y="61.77" width="2.84" height="12.8" transform="translate(235.57 371.91) rotate(-90)"/>
    <polygon class="cls-13" points="242.76 42.03 295.04 94.31 276.95 60.13 242.76 42.03"/>
    <circle class="cls-6" cx="268.9" cy="68.17" r="4.27" transform="translate(30.56 210.11) rotate(-45)"/>
    <rect class="cls-14" x="223.4" y="22.67" width="91" height="91"/>
  </g>
</svg>
