<svg id="ICONS" xmlns="https://www.w3.org/2000/svg" viewBox="0 0 400 140">
  <defs>
    <style>
      .cls-1 {
        fill: #55a5e4;
      }

      .cls-11, .cls-2, .cls-3 {
        fill: #fff;
      }

      .cls-2, .cls-5, .cls-9 {
        stroke: #556a8a;
        stroke-width: 2px;
      }

      .cls-2, .cls-5 {
        stroke-linecap: round;
        stroke-linejoin: round;
      }

      .cls-4 {
        fill: #556a8a;
      }

      .cls-10, .cls-5, .cls-7, .cls-9 {
        fill: none;
      }

      .cls-6 {
        fill: #e5e5e5;
      }

      .cls-7 {
        stroke: #a7a9ac;
      }

      .cls-7, .cls-9 {
        stroke-miterlimit: 10;
      }

      .cls-8 {
        fill: #d4e2f5;
      }

      .cls-11 {
        opacity: 0.1;
      }

      .cls-12 {
        fill: #e4edf1;
        opacity: 0.34;
      }
    </style>
  </defs>
  <title>education-partner-directory-3</title>
  <g>
    <path class="cls-1" d="M117,66.32a35.43,35.43,0,0,1,69.94-1.11,24.11,24.11,0,0,1,38.72,12.26,21.07,21.07,0,1,1,5,41.54H112.08c-12-2.44-21.08-13.6-21.08-26.35A26.34,26.34,0,0,1,117,66.32Z"/>
    <rect class="cls-2" x="185" y="29" width="124" height="97"/>
    <path class="cls-3" d="M247,124a13.75,13.75,0,0,0-9-4H196V23h43c7,0,8,10,8,10s1-10,8-10h43v97H256a13.75,13.75,0,0,0-9,4"/>
    <rect class="cls-4" x="246" y="30" width="2" height="93.32"/>
    <path class="cls-5" d="M247,124a13.75,13.75,0,0,0-9-4H196V23h43c7,0,8,10,8,10s1-10,8-10h43v97H256a13.75,13.75,0,0,0-9,4"/>
    <rect class="cls-6" x="197" y="24" width="15" height="95"/>
    <rect class="cls-6" x="282" y="24" width="15" height="95"/>
    <g>
      <line class="cls-7" x1="216" y1="42" x2="240" y2="42"/>
      <line class="cls-7" x1="216" y1="53" x2="240" y2="53"/>
      <line class="cls-7" x1="216" y1="64" x2="240" y2="64"/>
      <line class="cls-7" x1="216" y1="75" x2="240" y2="75"/>
      <line class="cls-7" x1="216" y1="86" x2="240" y2="86"/>
      <line class="cls-7" x1="216" y1="97" x2="240" y2="97"/>
    </g>
    <g>
      <circle class="cls-3" cx="192" cy="42" r="32"/>
      <path class="cls-3" d="M222.5,41.75a2.09,2.09,0,0,1,0,.25A30.24,30.24,0,0,1,162,42a2.09,2.09,0,0,1,0-.25,30.25,30.25,0,0,1,60.5,0Z"/>
      <path class="cls-8" d="M192.25,72.5A30.82,30.82,0,0,1,161.51,42v-.5H223V42A30.82,30.82,0,0,1,192.25,72.5Z"/>
      <path class="cls-4" d="M192,12a30,30,0,1,1-30,30,30,30,0,0,1,30-30m0-2a32,32,0,1,0,32,32,32,32,0,0,0-32-32Z"/>
      <path class="cls-4" d="M192,12c5.71,0,12.08,12.32,12.08,30S197.71,72,192,72s-12.08-12.32-12.08-30S186.29,12,192,12m0-2c-7.78,0-14.08,14.33-14.08,32s6.3,32,14.08,32,14.08-14.33,14.08-32S199.78,10,192,10Z"/>
      <path class="cls-9" d="M217.88,25c-4.63,1.39-14.57,2.36-26.09,2.36s-21.67-1-26.23-2.4"/>
      <path class="cls-9" d="M165.55,58.32c4.34-1.41,14.49-2.4,26.33-2.4,11.54,0,21.49.94,26,2.3"/>
      <line class="cls-9" x1="160.94" y1="42" x2="223.33" y2="42"/>
      <rect class="cls-10" x="160" y="10" width="64" height="64"/>
    </g>
    <g>
      <line class="cls-7" x1="254" y1="42" x2="278" y2="42"/>
      <line class="cls-7" x1="254" y1="53" x2="278" y2="53"/>
      <line class="cls-7" x1="254" y1="64" x2="278" y2="64"/>
      <line class="cls-7" x1="254" y1="75" x2="278" y2="75"/>
      <line class="cls-7" x1="254" y1="86" x2="278" y2="86"/>
      <line class="cls-7" x1="254" y1="97" x2="278" y2="97"/>
    </g>
    <path class="cls-11" d="M124.22,73a31.49,31.49,0,0,1,62.17-1,21.43,21.43,0,0,1,34.42,10.89,18.73,18.73,0,1,1,4.45,36.93H119.84c-10.69-2.17-18.74-12.09-18.74-23.43A23.42,23.42,0,0,1,124.22,73Z"/>
    <path class="cls-12" d="M161.43,74.55a15.53,15.53,0,1,0-5.55,7.23v5.07h4.92v5.67h6.48V99H177V89.56Zm-18.61-7.11a4,4,0,1,1,4-4A4,4,0,0,1,142.82,67.44Z"/>
  </g>
</svg>
