<svg id="ICONS" xmlns="https://www.w3.org/2000/svg" viewBox="0 0 400 140">
  <defs>
    <style>
      .cls-1 {
        fill: #0072c6;
      }
    </style>
  </defs>
  <title>education-partner-yammer</title>
  <g>
    <path class="cls-1" d="M350,57.16a2.71,2.71,0,0,1-2.7,2.7c-1.49,0-16-1-16-2.54s14.53-2.87,16-2.87A2.7,2.7,0,0,1,350,57.16Zm-6.5-16.23a2.7,2.7,0,0,1-1,3.68c-1.3.73-14.48,6.95-15.21,5.64s11.26-9.63,12.56-10.36A2.7,2.7,0,0,1,343.5,40.94ZM339.82,74.8c-1.3-.73-13.29-9.06-12.56-10.36s13.91,4.91,15.21,5.64a2.7,2.7,0,0,1-2.65,4.71Z"/>
    <path class="cls-1" d="M182.3,91.73a3.38,3.38,0,0,0,6.73.36V70.9C189,60.46,187.13,54,175.56,54c-6.13,0-9.84,2.93-12.77,7.68C161.5,58.91,158.74,54,150,54c-6.65,0-9.76,3.71-11.57,7.68h-.17c0-1.26,0-2.52-.1-3.77a3.21,3.21,0,0,0-6.34.55c.1,1.86.22,3.9.22,6.15V91.8a3.38,3.38,0,0,0,6.74.34V75.73c0-9.23,1.91-15.54,10.62-15.54,5.52,0,7.76,3.45,7.76,12.34V91.81a3.38,3.38,0,0,0,6.73.33v-20c0-7.25,4.75-11.91,10.44-11.91,7.85,0,7.94,5.44,7.94,11Z"/>
    <path class="cls-1" d="M245,91.73a3.38,3.38,0,0,0,6.73.36V70.9c0-10.44-1.91-16.91-13.47-16.91-6.13,0-9.84,2.93-12.77,7.68C224.2,58.91,221.44,54,212.73,54c-6.65,0-9.76,3.71-11.58,7.68H201c0-1.26,0-2.52-.1-3.77a3.21,3.21,0,0,0-6.34.55c.1,1.86.22,3.9.22,6.15V91.8a3.38,3.38,0,0,0,6.74.34V75.73c0-9.23,1.91-15.54,10.62-15.54,5.52,0,7.76,3.45,7.76,12.34V91.81a3.38,3.38,0,0,0,6.73.33v-20c0-7.25,4.75-11.91,10.44-11.91,7.85,0,7.94,5.44,7.94,11Z"/>
    <path class="cls-1" d="M70.05,86.22c-2.07,5.84-4,8.57-8.38,8.57-.43,0-1.9-.09-2-.1a3.07,3.07,0,0,0-1,6,20.2,20.2,0,0,0,3.44.28c8.1,0,10.78-4.67,13.46-11.48L91.38,50.08A3.39,3.39,0,0,0,85,47.88L73.85,77.24h-.17L62,47.66a3.59,3.59,0,0,0-6.66,2.65Z"/>
    <path class="cls-1" d="M126.07,91.54c-.08-1-.14-2.15-.14-3.12V71.07c0-11.39-5-17.08-16.91-17.08A23.52,23.52,0,0,0,95.5,58.07a3.13,3.13,0,0,0,4,4.79,19.12,19.12,0,0,1,9.69-2.66c6.3,0,10,3,10,8.89V70.3h-2.59c-9.92,0-25.46.77-25.46,14.15,0,7.85,6.82,12,15,12a15.26,15.26,0,0,0,13.29-7.07h.18c0,.91,0,2,.08,3.18a3.22,3.22,0,0,0,6.35-1Zm-6.87-13c-.17,6.56-4.14,12.17-11.91,12.17-5.09,0-8.89-1.9-8.89-7,0-5.44,5.52-7.77,14.07-7.77h6.73Z"/>
    <path class="cls-1" d="M308.24,58a3.24,3.24,0,0,0-6.37-.12c.1,2,.25,4.27.25,6.75V92.08a3.37,3.37,0,0,0,6.73-.36v-16c0-9.23,3.62-15,11.82-15,.39,0,.93,0,1.33.07a3.4,3.4,0,0,0,.09-6.81h0c-6.9.08-11.8,3.77-13.58,7.69h-.17c0-1.24,0-2.48-.1-3.7"/>
    <path class="cls-1" d="M296.91,72.48c-.91-11.84-8.4-18.65-19.06-18.65-11.91,0-20.71,8.71-20.71,21.23,0,11.73,7.76,21.23,20.45,21.23,6.06,0,10.93-1.49,15.09-5.29a3.14,3.14,0,0,0-3.94-4.83,15.27,15.27,0,0,1-10.82,4c-8.54,0-13.71-5.19-14-13l29.76,0a3.6,3.6,0,0,0,1.68-.3,2.72,2.72,0,0,0,1.52-2A21.05,21.05,0,0,0,296.91,72.48Zm-32.94-1c1-7.08,5.81-11.79,13.59-11.79s12.56,4.72,13,11.79Z"/>
  </g>
</svg>
