<svg id="Layer_1" data-name="Layer 1" xmlns="https://www.w3.org/2000/svg" viewBox="0 0 50 50"><defs><style>.cls-1{fill:#0078d4;}.cls-2{fill:#c2c2c2;}.cls-3{fill:#fff;}</style></defs><title>EDUPartners-50px</title><path class="cls-1" d="M25.23,47.39A22.32,22.32,0,1,1,47.55,25.07,22.3,22.3,0,0,1,25.23,47.39Z"/><path class="cls-2" d="M25.23,3.93A21.14,21.14,0,1,1,4.09,25.07h0A21.2,21.2,0,0,1,25.23,3.93h0m0-2.36a23.5,23.5,0,1,0,23.5,23.5h0A23.5,23.5,0,0,0,25.23,1.57Z"/><g id="SYMBOLS"><g id="users_people" data-name="users people"><path class="cls-2" d="M31.14,24.69a7.07,7.07,0,1,0-7.09-7.09,7.08,7.08,0,0,0,7.09,7.09Z"/><path class="cls-2" d="M31.14,26.39A10.58,10.58,0,0,0,20.55,37H41.73A10.58,10.58,0,0,0,31.14,26.39Z"/><path class="cls-3" d="M9.06,37.08h8.27a13.9,13.9,0,0,1,1.56-6.43,7,7,0,0,0-9.26,3.69A6.73,6.73,0,0,0,9.06,37.08Z"/><path class="cls-3" d="M16.1,17.65a5.3,5.3,0,0,0-.28,10.59h.61a5.3,5.3,0,0,0,5-5.58A5.38,5.38,0,0,0,16.1,17.65Z"/></g></g></svg>