<svg id="ICONS" xmlns="http://www.w3.org/2000/svg" viewBox="0 0 400 140">
  <defs>
    <style>
      .cls-1 {
        fill: #80def9;
      }

      .cls-14, .cls-2 {
        fill: none;
      }

      .cls-3 {
        fill: #556a8a;
      }

      .cls-4 {
        fill: #868787;
      }

      .cls-5 {
        fill: #e5e5e5;
      }

      .cls-6 {
        fill: #b72b2b;
      }

      .cls-7 {
        fill: #a80000;
      }

      .cls-15, .cls-8, .cls-9 {
        fill: #fff;
      }

      .cls-9 {
        stroke: #5b7484;
      }

      .cls-14, .cls-15, .cls-9 {
        stroke-miterlimit: 10;
        stroke-width: 2px;
      }

      .cls-10 {
        fill: #e6e6e6;
      }

      .cls-11 {
        fill: #b8c1ce;
      }

      .cls-12 {
        fill: #ccc;
      }

      .cls-13 {
        fill: #5b7484;
      }

      .cls-14 {
        stroke: #556a8a;
      }

      .cls-15 {
        stroke: #00bcf2;
      }

      .cls-16 {
        fill: #008272;
      }

      .cls-17 {
        fill: #bad80a;
      }
    </style>
  </defs>
  <title>M365-education</title>
  <g>
    <g>
      <g>
        <path class="cls-1" d="M113.2,39.53v-.35a13.84,13.84,0,0,0-.29-3.47,12.49,12.49,0,0,0-20.56-8.94A14.53,14.53,0,0,0,80.18,21C71,21,64,29,63.88,38.09c0,.62.16,1.09.16,1.72-4.84,2.34-7.64,6.4-7.64,11.55,0,7.36,5.79,13.26,13.46,13.69.71,5.11,5.29,9.86,13.14,9.86,6.62,0,10.57.54,15.4-4.9a16.27,16.27,0,0,0,7.7,2.1c9.28,0,16.64-8.22,16.64-17.5A16.19,16.19,0,0,0,113.2,39.53Z"/>
        <path class="cls-1" d="M293,56.2a15.9,15.9,0,0,1,8.13,2.24A21,21,0,0,1,340,56.25c.34,0,.68-.05,1-.05a17.91,17.91,0,0,1,18,17.9C359,84,350.94,91,341,91H297c-8.84,0-20-3.9-20-18.9A15.91,15.91,0,0,1,293,56.2Z"/>
        <rect class="cls-2" x="64.2" y="3" width="271" height="148"/>
        <g>
          <polygon class="cls-3" points="264.39 25 129.4 25 79 53 313 53 264.39 25"/>
          <polygon class="cls-4" points="86.72 52 129.92 27 263.85 27 305.52 52 86.72 52"/>
          <rect class="cls-3" x="79" y="53" width="234" height="68"/>
          <rect class="cls-5" x="163.5" y="-28.5" width="65" height="230" transform="translate(282.5 -109.5) rotate(90)"/>
          <polygon class="cls-3" points="196.5 16.5 195.5 16.5 145 53 145 121 247 121 247 53 196.5 16.5"/>
          <polygon class="cls-6" points="147 121 147 54.03 196 18.6 245 53 245 121 147 121"/>
          <rect class="cls-7" x="185.2" y="91" width="22" height="30"/>
          <rect class="cls-8" x="187" y="93" width="18" height="28"/>
          <circle class="cls-9" cx="195.9" cy="35" r="11"/>
        </g>
        <rect class="cls-3" x="89" y="61" width="19" height="22"/>
        <rect class="cls-10" x="89.5" y="64.5" width="18" height="15" transform="translate(170.5 -26.5) rotate(90)"/>
        <rect class="cls-11" x="91" y="63" width="15" height="4"/>
        <rect class="cls-11" x="91" y="72" width="15" height="4"/>
        <rect class="cls-7" x="154" y="61" width="22" height="32"/>
        <rect class="cls-12" x="151" y="68" width="28" height="18" transform="translate(242 -88) rotate(90)"/>
        <rect class="cls-3" x="91" y="71" width="15" height="2"/>
        <g>
          <rect class="cls-3" x="118" y="61" width="19" height="22"/>
          <rect class="cls-10" x="118.5" y="64.5" width="18" height="15" transform="translate(199.5 -55.5) rotate(90)"/>
          <rect class="cls-11" x="120" y="63" width="15" height="4"/>
          <rect class="cls-11" x="120" y="72" width="15" height="4"/>
          <rect class="cls-3" x="120" y="71" width="15" height="2"/>
        </g>
        <rect class="cls-3" x="89" y="88" width="19" height="22"/>
        <rect class="cls-10" x="89.5" y="91.5" width="18" height="15" transform="translate(197.5 0.5) rotate(90)"/>
        <rect class="cls-11" x="91" y="90" width="15" height="4"/>
        <rect class="cls-11" x="91" y="99" width="15" height="4"/>
        <rect class="cls-3" x="91" y="98" width="15" height="2"/>
        <g>
          <rect class="cls-3" x="118" y="88" width="19" height="22"/>
          <rect class="cls-10" x="118.5" y="91.5" width="18" height="15" transform="translate(226.5 -28.5) rotate(90)"/>
          <rect class="cls-11" x="120" y="90" width="15" height="4"/>
          <rect class="cls-11" x="120" y="99" width="15" height="4"/>
          <rect class="cls-3" x="120" y="98" width="15" height="2"/>
        </g>
        <rect class="cls-13" x="255" y="61" width="19" height="22"/>
        <rect class="cls-10" x="255.5" y="64.5" width="18" height="15" transform="translate(336.5 -192.5) rotate(90)"/>
        <rect class="cls-11" x="257" y="63" width="15" height="4"/>
        <rect class="cls-11" x="257" y="72" width="15" height="4"/>
        <rect class="cls-13" x="257" y="71" width="15" height="2"/>
        <g>
          <rect class="cls-13" x="284" y="61" width="19" height="22"/>
          <rect class="cls-10" x="284.5" y="64.5" width="18" height="15" transform="translate(365.5 -221.5) rotate(90)"/>
          <rect class="cls-11" x="286" y="63" width="15" height="4"/>
          <rect class="cls-11" x="286" y="73" width="15" height="4"/>
          <rect class="cls-13" x="286" y="71" width="15" height="2"/>
        </g>
        <rect class="cls-13" x="255" y="88" width="19" height="22"/>
        <rect class="cls-10" x="255.5" y="91.5" width="18" height="15" transform="translate(363.5 -165.5) rotate(90)"/>
        <rect class="cls-11" x="257" y="90" width="15" height="4"/>
        <rect class="cls-11" x="257" y="99" width="15" height="4"/>
        <rect class="cls-13" x="257" y="98" width="15" height="2"/>
        <g>
          <rect class="cls-13" x="284" y="88" width="19" height="22"/>
          <rect class="cls-10" x="284.5" y="91.5" width="18" height="15" transform="translate(392.5 -194.5) rotate(90)"/>
          <rect class="cls-11" x="286" y="90" width="15" height="4"/>
          <rect class="cls-11" x="286" y="99" width="15" height="4"/>
          <rect class="cls-13" x="286" y="98" width="15" height="2"/>
        </g>
        <rect class="cls-7" x="156" y="66" width="18" height="2"/>
        <rect class="cls-7" x="156.2" y="86" width="18" height="2"/>
        <rect class="cls-7" x="164" y="68" width="2" height="19"/>
        <rect class="cls-8" x="156" y="88" width="18" height="3"/>
        <rect class="cls-8" x="156" y="63" width="18" height="3"/>
        <rect class="cls-7" x="185" y="61" width="22" height="26"/>
        <rect class="cls-12" x="185" y="65" width="22" height="18" transform="translate(270 -122) rotate(90)"/>
        <rect class="cls-7" x="187" y="66" width="18" height="2"/>
        <rect class="cls-7" x="195" y="67" width="2" height="19"/>
        <rect class="cls-8" x="187" y="63" width="18" height="3"/>
        <rect class="cls-7" x="217" y="61" width="22" height="32"/>
        <rect class="cls-12" x="214" y="68" width="28" height="18" transform="translate(305 -151) rotate(90)"/>
        <rect class="cls-7" x="219" y="66" width="18" height="2"/>
        <rect class="cls-7" x="219" y="86" width="18" height="2"/>
        <rect class="cls-7" x="227" y="68" width="2" height="19"/>
        <rect class="cls-8" x="219" y="88" width="18" height="3"/>
        <rect class="cls-8" x="219" y="63" width="18" height="3"/>
        <rect class="cls-11" x="187" y="93" width="18" height="5"/>
        <polyline class="cls-14" points="203 35 196 35 196 28"/>
      </g>
      <path class="cls-15" d="M342.2,80.16v-.22a9,9,0,0,0-.4-2.19,8,8,0,0,0-13.15-5.64,9.23,9.23,0,0,0-7.71-3.64c-5.82,0-10.21,5.07-10.31,10.79,0,.39.1.69.1,1.08a7.89,7.89,0,0,0-4.83,7.29,8.74,8.74,0,0,0,8.5,8.65c.45,3.23,3.34,6.23,8.3,6.23,4.18,0,6.68.34,9.73-3.09a10.28,10.28,0,0,0,4.86,1.33c5.86,0,10.72-5.19,10.72-11.05A11.52,11.52,0,0,0,342.2,80.16Z"/>
    </g>
    <path class="cls-16" d="M102.69,111.2a7.84,7.84,0,0,0,1.31-4.37,7.4,7.4,0,0,0-5.64-7.37A9.1,9.1,0,0,0,99,96.1c0-4.74-3.58-8.59-8-8.59a7.5,7.5,0,0,0-3.27.76A10.17,10.17,0,0,0,78,80c-5.52,0-10,4.8-10,10.73,0,.39,0,.77.06,1.15A7.35,7.35,0,0,0,62,99.32a7.87,7.87,0,0,0,1.09,4c-4.74,1.6-8.09,5.44-8.09,9.93C55,119.2,60.82,124,68,124H99c3,0,6.85-4.3,6.85-7.51A5.86,5.86,0,0,0,102.69,111.2Z"/>
    <path class="cls-17" d="M83.64,107A6,6,0,0,0,76,99.36a6,6,0,0,0-11.83-.61,7,7,0,0,0-9.81,8.36A8.94,8.94,0,0,0,44,116c0,5,4,8,9,8H82c4.42,0,9-4.58,9-9A8,8,0,0,0,83.64,107Z"/>
  </g>
</svg>
