<svg xmlns="http://www.w3.org/2000/svg" viewBox="0 0 400 140"><defs><style>.cls-1{fill:#939393;}.cls-2{fill:#d8d8d8;}.cls-3{fill:#2f2f2f;}</style></defs><title>Surface-Devices-400x140</title><g id="Layer_2" data-name="Layer 2"><rect class="cls-1" x="75.66" y="15.04" width="128" height="88" rx="5"/><rect class="cls-1" x="116.66" y="119.14" width="50" height="4.81"/><path class="cls-1" d="M167.66,101l-.8,13.08a3.69,3.69,0,0,1-3.3,2.92h-45.2a2.8,2.8,0,0,1-2.8-2.8h0l-.9-13.2h-3v19h59V101Z"/><rect class="cls-2" x="79.66" y="19.04" width="120" height="80"/><path class="cls-1" d="M315.66,122V62.5A2.46,2.46,0,0,0,313.2,60H226.12a2.46,2.46,0,0,0-2.46,2.46h0V122Z"/><rect class="cls-2" x="226.66" y="63.04" width="86" height="53"/><path class="cls-1" d="M322.56,124H216.78c-3.53,0-4.1-5-4.1-5h114S325.29,124,322.56,124Z"/><rect class="cls-3" x="268.66" y="62.04" width="1" height="1"/></g></svg>