<?xml version="1.0" encoding="utf-8"?>
<!-- Generator: Adobe Illustrator 23.0.3, SVG Export Plug-In . SVG Version: 6.00 Build 0)  -->
<svg version="1.1" id="Layer_1" xmlns="http://www.w3.org/2000/svg" xmlns:xlink="http://www.w3.org/1999/xlink" x="0px" y="0px"
	 viewBox="0 0 400 140" style="enable-background:new 0 0 400 140;" xml:space="preserve">
<style type="text/css">
	.st0{fill:#2F2F2F;}
	.st1{fill:#939393;}
	.st2{fill:#C2C2C2;}
</style>
<title>SharePoint_Doc_3_400x140</title>
<g>
	<title>users_group</title>
	<g>
		<g id="SYMBOLS_1_">
			<g id="users_group_1_">
				<path class="st0" d="M108.6,127.9h36.2l0,0c0-9.8,2.4-19.5,6.9-28.2c-15.7-6.7-33.9,0.5-40.6,16.2
					C109.5,119.6,108.6,123.7,108.6,127.9z"/>
				<path class="st1" d="M173.1,95.8c-1.8,1.9-3.5,4-5,6.2c-1.5,2.3-2.8,4.7-4,7.2c-2.4,5.8-3.7,12-3.6,18.3h67.2
					c0-11.9,4.6-23.3,12.8-31.9c-17.5-18.6-46.8-19.5-65.4-2c-0.7,0.6-1.3,1.3-2,2V95.8z"/>
				<path class="st2" d="M274.2,96.6c-6.9,0-13.6,2.3-19,6.7c-2.2,1.7-4.1,3.7-5.8,5.9c-4,5.3-6.2,11.8-6.2,18.4h61.9
					C305.2,110.5,291.3,96.6,274.2,96.6L274.2,96.6z"/>
				<path class="st2" d="M272.9,89c0.4,0,0.9,0,1.3,0c0.5,0,0.9,0,1.3,0c10.1-0.7,17.9-9.1,17.9-19.2c0.1-10.7-8.5-19.5-19.3-19.5
					c-10.7-0.1-19.5,8.5-19.5,19.3c-0.1,10.3,7.9,18.8,18.1,19.5L272.9,89z"/>
				<path class="st1" d="M189.4,68.3c4.6,3.1,9.9,4.9,15.3,5.2c0.8,0,1.5,0.2,2.2,0.2c0.7,0,1.4,0,2.2-0.2c17-1.2,29.8-16,28.5-33
					c-0.8-11.2-7.7-21.1-17.9-25.8l0,0c-8.1-3.8-17.5-3.8-25.6,0l0,0c-15.5,7-22.4,25.3-15.4,40.9C181.1,60.7,184.7,65.1,189.4,68.3
					z"/>
				<path class="st0" d="M139.5,42.9c-12.8-0.1-23.2,10.3-23.2,23c0,6.9,3,13.5,8.4,17.9c3.8,3.2,8.6,5.1,13.5,5.4
					c0.4,0,0.9,0,1.3,0s0.9,0,1.3,0c12.2-0.8,21.7-10.9,21.7-23.1C162.6,53.3,152.3,42.9,139.5,42.9z"/>
			</g>
		</g>
	</g>
</g>
</svg>
