<svg id="ICONS" xmlns="http://www.w3.org/2000/svg" viewBox="0 0 400 140">
  <defs>
    <style>
      .cls-1, .cls-2, .cls-6, .cls-9 {
        fill: #fff;
      }

      .cls-1 {
        stroke: #00bcf2;
      }

      .cls-1, .cls-4, .cls-9 {
        stroke-miterlimit: 10;
        stroke-width: 2px;
      }

      .cls-3 {
        fill: #e5e5e5;
      }

      .cls-4 {
        fill: none;
      }

      .cls-4, .cls-9 {
        stroke: #556a8a;
      }

      .cls-5 {
        fill: #556a8a;
      }

      .cls-6 {
        opacity: 0.16;
      }

      .cls-7 {
        fill: #55d2f6;
      }

      .cls-8 {
        fill: #2bc7f4;
      }
    </style>
  </defs>
  <title>bcs-partner-advanced-management-learn-about-1</title>
  <path class="cls-1" d="M163.26,40.11v-.55a22,22,0,0,0-.71-5.46,19.77,19.77,0,0,0-32.5-14C125.24,14,119.11,11,110.9,11,96.43,11,85.52,23.63,85.27,37.85c0,1,.25,1.72.25,2.7-7.6,3.68-12,10.05-12,18.15,0,11.57,9.1,20.84,21.16,21.51,1.11,8,8.31,15.49,20.64,15.49,10.4,0,16.61.84,24.2-7.7a25.57,25.57,0,0,0,12.1,3.3c14.58,0,26.4-12.92,26.4-27.5A26.4,26.4,0,0,0,163.26,40.11Z"/>
  <path class="cls-2" d="M280,28v76a2,2,0,0,1-2,2H160a2,2,0,0,1-2-2V28a2,2,0,0,1,2-2H278A2,2,0,0,1,280,28Z"/>
  <path class="cls-3" d="M173,27v79H160a2,2,0,0,1-1-.29V27Z"/>
  <path class="cls-3" d="M266,27v79h13a2,2,0,0,0,1-.29V27Z"/>
  <rect class="cls-4" x="158.04" y="26" width="122" height="80" rx="2" ry="2"/>
  <g>
    <ellipse class="cls-5" cx="109.5" cy="29.46" rx="10" ry="12.46"/>
    <path class="cls-5" d="M92.5,101.43V140h11.09c1.54-13.16,3.6-30.57,3.94-32.83.43-2.76,4.7-2.76,5.12,0,.35,2.26,2.74,19.67,4.45,32.83h10.4V99h6l-.33-12.33-.67-25.2,8.42,2.19a4.54,4.54,0,0,0,1.93.25,4.49,4.49,0,0,0,1.48-.38l19-9.45a4.54,4.54,0,1,0-3.75-8.27L143,52.64,127.08,48c-.93-.28-1.91-.57-2.94-.86l0,0c-2.06-.58-4.18-1.16-5.79-1.59l-2.7-.72-6,12.48h-.1l-6-12.48s-5.77,1.3-9.89,2.39L92,47.6A8.84,8.84,0,0,0,86.48,52,11.43,11.43,0,0,0,85.2,56.4c-.61,6.36-.6,20.59-1.12,26.31-.19,2-.2,8.56,2.07,11.48A88.76,88.76,0,0,0,92.5,101.43Z"/>
    <path class="cls-6" d="M163.36,54.08l-19,9.45a4.49,4.49,0,0,1-1.48.38,4.54,4.54,0,0,1-1.93-.25l-8.42-2.19.67,25.2L133.5,99l-47-47A8.84,8.84,0,0,1,92,47.6l1.63-.44c4.12-1.09,9.89-2.39,9.89-2.39l6,12.48h.1l6-12.48,2.7.72c1.61.43,3.73,1,5.79,1.59l0,0c1,.29,2,.58,2.94.86L143,52.64l16.63-6.83a4.54,4.54,0,1,1,3.75,8.27Z"/>
  </g>
  <rect class="cls-5" x="152" y="23" width="135" height="5"/>
  <g>
    <path class="cls-2" d="M219.36,121a43.94,43.94,0,1,1,31-12.86,43.62,43.62,0,0,1-31,12.86Z"/>
    <path class="cls-3" d="M188.19,45.86a43.56,43.56,0,0,1,61.6,61.6Z"/>
    <path class="cls-5" d="M219.36,35a42.66,42.66,0,1,1-30.14,12.49A42.35,42.35,0,0,1,219.36,35m0-2a44.66,44.66,0,1,0,31.56,13.08A44.49,44.49,0,0,0,219.36,33Z"/>
    <polygon class="cls-7" points="192.89 51.16 211.21 85.78 245.83 104.11 223.68 71.87 192.89 51.16"/>
    <polygon class="cls-8" points="192.89 51.16 245.83 104.11 227.51 69.48 192.89 51.16"/>
    <line class="cls-9" x1="219.72" y1="40.19" x2="219.72" y2="50.27"/>
    <line class="cls-9" x1="219.72" y1="104.99" x2="219.72" y2="115.07"/>
    <line class="cls-9" x1="181.92" y1="77" x2="192" y2="77"/>
    <line class="cls-9" x1="246.72" y1="77" x2="256.8" y2="77"/>
    <circle class="cls-2" cx="219.36" cy="77.63" r="4.32"/>
  </g>
</svg>
