<svg xmlns="http://www.w3.org/2000/svg" viewBox="0 0 400 140">
  <defs>
    <style>
      .cls-1 {
        fill: #e6e7e8;
      }

      .cls-1, .cls-2 {
        stroke: #fff;
        stroke-linecap: round;
        stroke-linejoin: round;
        stroke-width: 0.08px;
      }

      .cls-2, .cls-6 {
        fill: #80def9;
      }

      .cls-3 {
        fill: #f2f2f2;
      }

      .cls-10, .cls-11, .cls-12, .cls-3, .cls-4, .cls-9 {
        fill-rule: evenodd;
      }

      .cls-4 {
        fill: #c6df33;
      }

      .cls-15, .cls-5 {
        fill: #fff;
      }

      .cls-5, .cls-8 {
        stroke: #556a8a;
        stroke-miterlimit: 10;
        stroke-width: 2px;
      }

      .cls-7 {
        fill: #e5e5e5;
      }

      .cls-8 {
        fill: none;
      }

      .cls-9 {
        fill: #bad80a;
      }

      .cls-10, .cls-17 {
        fill: #7750a3;
      }

      .cls-11 {
        fill: #00bcf2;
      }

      .cls-12 {
        fill: #9273b6;
      }

      .cls-13 {
        fill: #556a8a;
      }

      .cls-14 {
        fill: #e4edf1;
      }

      .cls-16 {
        fill: #2bc7f4;
      }
    </style>
  </defs>
  <title>bcs-partner-advanced-management- billing-7</title>
  <g id="ICONS">
    <circle class="cls-1" cx="100" cy="54" r="31"/>
    <circle class="cls-2" cx="165" cy="73" r="56.5"/>
    <circle class="cls-1" cx="283" cy="72" r="31"/>
    <path class="cls-3" d="M147.5,81.5a6,6,0,1,1-6-6A6,6,0,0,1,147.5,81.5Z"/>
    <path class="cls-4" d="M286,107a12,12,0,1,1-12-12A11.94,11.94,0,0,1,286,107Z"/>
    <rect class="cls-5" x="154" y="33" width="117" height="73"/>
    <rect class="cls-6" x="163" y="42" width="94.4" height="16"/>
    <rect class="cls-7" x="155" y="34" width="14" height="71"/>
    <rect class="cls-7" x="256" y="34" width="14" height="71"/>
    <line class="cls-8" x1="176" y1="77" x2="214" y2="77"/>
    <line class="cls-8" x1="176" y1="85" x2="214" y2="85"/>
    <line class="cls-8" x1="176" y1="93" x2="214" y2="93"/>
    <g>
      <path class="cls-9" d="M169,35.83A27.82,27.82,0,1,1,141.17,8,27.69,27.69,0,0,1,169,35.83Z"/>
      <path class="cls-4" d="M169,35.83a27.69,27.69,0,0,1-8.29,19.8L121.36,16.29A27.82,27.82,0,0,1,169,35.83Z"/>
    </g>
    <g>
      <path class="cls-10" d="M129.68,99.5A21.17,21.17,0,1,1,108.5,78.32,21.07,21.07,0,0,1,129.68,99.5Z"/>
      <path class="cls-11" d="M105,54A12,12,0,1,1,93,42,11.94,11.94,0,0,1,105,54Z"/>
      <path class="cls-11" d="M306,102a6,6,0,1,1-6-6A6,6,0,0,1,306,102Z"/>
      <path class="cls-12" d="M82,32a6,6,0,1,1-6-6A6,6,0,0,1,82,32Z"/>
      <path class="cls-12" d="M129.68,99.5a21.07,21.07,0,0,1-6.31,15.06L93.43,84.63A21.17,21.17,0,0,1,129.68,99.5Z"/>
    </g>
    <path class="cls-13" d="M141.56,52.81v5.13H139.1V53a14.83,14.83,0,0,1-8.18-2V46.86a11.08,11.08,0,0,0,3.75,2,13.69,13.69,0,0,0,4.43.82V37.59q-5.2-2.5-6.74-4.62a8.27,8.27,0,0,1-1.54-5,8.36,8.36,0,0,1,2.34-5.92,9.69,9.69,0,0,1,5.93-3V14.81h2.46V19q4.63.14,6.4,1.32v4a10.74,10.74,0,0,0-6.4-2V34.76q4.92,2.34,6.72,4.53a7.59,7.59,0,0,1,1.81,5,7.7,7.7,0,0,1-2.26,5.64A11,11,0,0,1,141.56,52.81ZM139.1,33.43v-11A5.39,5.39,0,0,0,136,24.18a4.91,4.91,0,0,0-1.16,3.3,5.52,5.52,0,0,0,.95,3.33A10.17,10.17,0,0,0,139.1,33.43Zm2.46,5.39V49.5q4.56-1,4.56-4.92Q146.12,41.32,141.56,38.82Z"/>
    <path class="cls-14" d="M108.84,112.07v3.59h-2v-3.46a11.2,11.2,0,0,1-6-1.42v-3.69a8.23,8.23,0,0,0,2.74,1.47,10,10,0,0,0,3.23.6V101.8q-3.9-1.8-5.05-3.33a5.81,5.81,0,0,1-1.15-3.61,5.89,5.89,0,0,1,1.75-4.26,7.41,7.41,0,0,1,4.45-2.16v-3h2v2.91a10.35,10.35,0,0,1,4.8.93v3.54a8.42,8.42,0,0,0-4.8-1.42v7.63a14.79,14.79,0,0,1,5,3.28,5.64,5.64,0,0,1-.33,7.66A8.16,8.16,0,0,1,108.84,112.07Zm-2-14v-6.6a3.47,3.47,0,0,0-2,1.06,2.84,2.84,0,0,0-.73,2,3.2,3.2,0,0,0,.6,2A6.41,6.41,0,0,0,106.8,98.11Zm2,4.58v6.37q2.81-.59,2.81-2.93Q111.65,104.18,108.84,102.69Z"/>
    <g>
      <rect class="cls-7" x="244.38" y="71.99" width="43.92" height="3.99" transform="translate(25.69 210) rotate(-45)"/>
      <path class="cls-15" d="M286.45,53.49l-.94-.94a5.34,5.34,0,0,0-7.53,0l-31,31-4.24,12.71L255.45,92l31-31A5.34,5.34,0,0,0,286.45,53.49Z"/>
      <polygon class="cls-16" points="255.3 91.25 255.1 91.44 243.8 95.2 247.56 83.9 247.76 83.72 255.3 91.25"/>
      <path class="cls-16" d="M287.33,57.26a4.63,4.63,0,0,1-1.36,3.3l-3.1,3.1-7.53-7.53,3.1-3.1A4.68,4.68,0,0,1,285,53L286,54A4.6,4.6,0,0,1,287.33,57.26Z"/>
      <path class="cls-8" d="M286.45,53.49l-.94-.94a5.34,5.34,0,0,0-7.53,0l-31,31-4.24,12.71L255.45,92l31-31A5.34,5.34,0,0,0,286.45,53.49Z"/>
      <line class="cls-8" x1="247.7" y1="83.14" x2="255.55" y2="91"/>
    </g>
    <path class="cls-17" d="M296.51,88.75a.9.9,0,0,0,.86.54l1.82-.19a.9.9,0,0,0,.68-1l-.06-2.25c-.11-.6,0-1.15,1.72-2.15a1.57,1.57,0,0,1,1.55.09L305.24,85a1.06,1.06,0,0,0,1-.18l1.25-1.58a.94.94,0,0,0-.31-1.12l-1.7-1.63a1.14,1.14,0,0,1-.33-1.4s.49-2.27,1.44-2.44l2.09-.49a1.12,1.12,0,0,0,.68-1l-.34-2a.69.69,0,0,0-.81-.55h-.05l-2.26.07c-.6.09-1.88-1.49-2.15-1.76a2.25,2.25,0,0,1,0-1.69l1.21-1.86a1,1,0,0,0-.18-1.26l-1.58-.94a.9.9,0,0,0-1.13,0l-1.48,1.86c-.37.45-1.08.88-2.68.23,0,0-1.18-.69-1.32-1.25l-.46-2.36a.9.9,0,0,0-.86-.54l-2,.34a.69.69,0,0,0-.51.84v0l-.07,2.39c0,.84-1.36,1.73-1.64,2a1.48,1.48,0,0,1-1.69,0l-2-1.34a1.1,1.1,0,0,0-1.12.31L285,69.37a1.24,1.24,0,0,0,.31,1.12L287,72.13c1,.76.41,1.87.21,2.67-.09.43-.26.86-1.24,1l-2.24.63a.9.9,0,0,0-.54.86l.34,2a.9.9,0,0,0,.72.68l2.39-.2c.84,0,1.14.24,1.29.67a12.6,12.6,0,0,1,.73,1.25,1.26,1.26,0,0,1,.18,1.51l-1.34,2a1.09,1.09,0,0,0,.31,1.11l1.44,1.09a.9.9,0,0,0,1.13,0l1.5-1.87a1.43,1.43,0,0,1,1.53-.45l1.28.38c.56,0,.86.26,1.15,1.09l.62,2.23m4.57-13.22A5,5,0,0,1,297,81a4.6,4.6,0,0,1-5.4-3.63q0-.22-.06-.44a4.72,4.72,0,0,1,3.93-5.32,4.79,4.79,0,0,1,5.6,3.8l0,.12"/>
  </g>
</svg>
