<svg xmlns="http://www.w3.org/2000/svg" viewBox="0 0 400 140">
  <defs>
    <style>
      .cls-1, .cls-2, .cls-6 {
        fill: #fff;
      }

      .cls-1 {
        stroke: #00bcf2;
      }

      .cls-1, .cls-4 {
        stroke-miterlimit: 10;
        stroke-width: 2px;
      }

      .cls-3 {
        fill: #e5e5e5;
      }

      .cls-4 {
        fill: none;
        stroke: #556a8a;
      }

      .cls-5 {
        fill: #556a8a;
      }

      .cls-6 {
        opacity: 0.16;
      }

      .cls-7 {
        fill: #0078d7;
      }
    </style>
  </defs>
  <title>bcs-partner-advanced-management-windows10-2</title>
  <g id="ICONS">
    <path class="cls-1" d="M175.26,40.11v-.55a22,22,0,0,0-.71-5.46,19.77,19.77,0,0,0-32.5-14C137.24,14,131.11,11,122.9,11c-14.47,0-25.38,12.63-25.63,26.85,0,1,.25,1.72.25,2.7-7.6,3.68-12,10.05-12,18.15,0,11.57,9.1,20.84,21.16,21.51,1.11,8,8.31,15.49,20.64,15.49,10.4,0,16.61.84,24.2-7.7a25.57,25.57,0,0,0,12.1,3.3c14.58,0,26.4-12.92,26.4-27.5A26.4,26.4,0,0,0,175.26,40.11Z"/>
    <path class="cls-2" d="M295,36v76a2,2,0,0,1-2,2H175a2,2,0,0,1-2-2V36a2,2,0,0,1,2-2H293A2,2,0,0,1,295,36Z"/>
    <path class="cls-3" d="M188,35v79H175a2,2,0,0,1-1-.29V35Z"/>
    <path class="cls-3" d="M281,35v79h13a2,2,0,0,0,1-.29V35Z"/>
    <rect class="cls-4" x="173.04" y="34" width="122" height="80" rx="2" ry="2"/>
    <g>
      <ellipse class="cls-5" cx="124.5" cy="29.46" rx="10" ry="12.46"/>
      <path class="cls-5" d="M107.5,101.43V140h11.09c1.54-13.16,3.6-30.57,3.94-32.83.43-2.76,4.7-2.76,5.12,0,.35,2.26,2.74,19.67,4.45,32.83h10.4V99h6l-.33-12.33-.67-25.2,8.42,2.19a4.54,4.54,0,0,0,1.93.25,4.49,4.49,0,0,0,1.48-.38l19-9.45a4.54,4.54,0,1,0-3.75-8.27L158,52.64,142.08,48c-.93-.28-1.91-.57-2.94-.86l0,0c-2.06-.58-4.18-1.16-5.79-1.59l-2.7-.72-6,12.48h-.1l-6-12.48s-5.77,1.3-9.89,2.39L107,47.6A8.84,8.84,0,0,0,101.48,52a11.43,11.43,0,0,0-1.28,4.42c-.61,6.36-.6,20.59-1.12,26.31-.19,2-.2,8.56,2.07,11.48A88.76,88.76,0,0,0,107.5,101.43Z"/>
      <path class="cls-6" d="M178.36,54.08l-19,9.45a4.49,4.49,0,0,1-1.48.38,4.54,4.54,0,0,1-1.93-.25l-8.42-2.19.67,25.2L148.5,99l-47-47A8.84,8.84,0,0,1,107,47.6l1.63-.44c4.12-1.09,9.89-2.39,9.89-2.39l6,12.48h.1l6-12.48,2.7.72c1.61.43,3.73,1,5.79,1.59l0,0c1,.29,2,.58,2.94.86L158,52.64l16.63-6.83a4.54,4.54,0,1,1,3.75,8.27Z"/>
    </g>
    <rect class="cls-5" x="167" y="31" width="135" height="5"/>
    <g>
      <polygon class="cls-7" points="229 73 229 54.3 209 56.79 209 73 229 73"/>
      <polygon class="cls-7" points="231 73 256 73 256 50.74 231 54.01 231 73"/>
      <polygon class="cls-7" points="231 75 231 93.68 256 97.11 256 75 231 75"/>
      <polygon class="cls-7" points="229 75 209 75 209 90.67 229 93.38 229 75"/>
    </g>
  </g>
</svg>
