<svg xmlns="http://www.w3.org/2000/svg" viewBox="0 0 400 140">
  <defs>
    <style>
      .cls-1 {
        fill: #80def9;
      }

      .cls-10, .cls-2, .cls-4, .cls-9 {
        fill: #fff;
      }

      .cls-2 {
        stroke: #bad80a;
      }

      .cls-10, .cls-2, .cls-3, .cls-6, .cls-9 {
        stroke-miterlimit: 10;
        stroke-width: 2px;
      }

      .cls-3, .cls-6, .cls-7 {
        fill: none;
      }

      .cls-3, .cls-6, .cls-9 {
        stroke: #556a8a;
      }

      .cls-3 {
        stroke-dasharray: 3 3;
      }

      .cls-5 {
        fill: #e5e5e5;
      }

      .cls-8 {
        fill: #556a8a;
      }

      .cls-10 {
        stroke: #7750a3;
      }

      .cls-11 {
        fill: #008272;
      }
    </style>
  </defs>
  <title>bcs-partner-advanced-management-add-domain-</title>
  <g id="ICONS">
    <path class="cls-1" d="M275.1,62.53C272.35,41.87,256,26,236.15,26c-19.39,0-35.49,15.19-38.75,35.19a25.49,25.49,0,0,0-17.16-6.74c-12.39,0-22.79,9.12-25.86,21.5a21.69,21.69,0,0,0-5.56-.75c-12.94,0-23.43,11.37-23.43,25.4S135.87,126,148.81,126H280.57C293.94,123.06,304,109.61,304,94.25,304,76.86,291.1,62.76,275.1,62.53Z"/>
    <path class="cls-2" d="M157.6,42.44v-.5a20,20,0,0,0-.65-5,18,18,0,0,0-29.54-12.77C123,18.71,117.46,16,110,16,96.85,16,86.92,27.46,86.7,40.39c0,.89.22,1.56.22,2.45C80,46.18,76,52,76,59.34c0,10.52,8.27,18.94,19.23,19.56C96.24,86.2,102.79,93,114,93c9.46,0,15.1.76,22-7a23.25,23.25,0,0,0,11,3c13.25,0,24-11.75,24-25A24,24,0,0,0,157.6,42.44Z"/>
    <line class="cls-3" x1="219" y1="44" x2="263" y2="29"/>
    <line class="cls-3" x1="219" y1="96" x2="263" y2="111"/>
    <g>
      <g>
        <circle class="cls-4" cx="184.79" cy="70" r="49.64"/>
        <path class="cls-5" d="M184.36,120c-27,0-49.14-21.51-49.35-47.94V70.63h98.72v1.43C233.5,98.49,211.36,120,184.36,120Z"/>
        <circle class="cls-6" cx="184.79" cy="70" r="49.64"/>
        <ellipse class="cls-6" cx="184.79" cy="70" rx="21.84" ry="49.64"/>
        <line class="cls-6" x1="135" y1="71" x2="235" y2="71"/>
        <rect class="cls-7" x="135.72" y="20.36" width="99.28" height="99.28"/>
      </g>
      <path class="cls-6" d="M226.18,41.78c-9.36,4.12-24.25,6.78-41,6.78s-31.67-2.66-41-6.78"/>
      <path class="cls-6" d="M226.18,98.56c-9.36-4.12-24.25-6.78-41-6.78s-31.67,2.66-41,6.78"/>
    </g>
    <path class="cls-8" d="M116.32,61.92a11.79,11.79,0,0,1-.45-1.88,13.67,13.67,0,0,1-.2-2.3,7.14,7.14,0,0,1,.71-3.21,13.29,13.29,0,0,1,1.77-2.69,26.79,26.79,0,0,1,2.31-2.41q1.25-1.16,2.31-2.34a13.35,13.35,0,0,0,1.77-2.48,5.83,5.83,0,0,0,.71-2.85,5.23,5.23,0,0,0-.51-2.37,5,5,0,0,0-1.41-1.73,6.19,6.19,0,0,0-2.06-1,8.64,8.64,0,0,0-2.48-.35,10.79,10.79,0,0,0-8.15,3.7v-4.9a16.37,16.37,0,0,1,8.82-2.67,13.86,13.86,0,0,1,4,.56,9.81,9.81,0,0,1,3.27,1.66,7.8,7.8,0,0,1,2.21,2.74,8.54,8.54,0,0,1,.81,3.81,8.9,8.9,0,0,1-.72,3.67,13.32,13.32,0,0,1-1.82,3,23.56,23.56,0,0,1-2.38,2.52q-1.28,1.17-2.38,2.32a12.74,12.74,0,0,0-1.82,2.41,5.41,5.41,0,0,0-.72,2.76,8.24,8.24,0,0,0,.31,2.32,16.57,16.57,0,0,0,.61,1.77Zm2.5,11.58a3.07,3.07,0,0,1-2.17-.89,2.91,2.91,0,0,1-.92-2.17,2.85,2.85,0,0,1,.92-2.17,3,3,0,0,1,4.34,0,2.86,2.86,0,0,1,.92,2.17,2.91,2.91,0,0,1-.92,2.17A3.08,3.08,0,0,1,118.83,73.5Z"/>
    <rect class="cls-9" x="285" y="54" width="28" height="28"/>
    <rect class="cls-10" x="255" y="18" width="28" height="28"/>
    <rect class="cls-10" x="255" y="90" width="28" height="28"/>
    <line class="cls-3" x1="238" y1="70" x2="282" y2="70"/>
    <polygon class="cls-11" points="308 66 301 66 301 59 297 59 297 66 290 66 290 70 297 70 297 77 301 77 301 70 308 70 308 66"/>
  </g>
</svg>
