<svg id="ICONS" xmlns="http://www.w3.org/2000/svg" viewBox="0 0 400 140">
  <defs>
    <style>
      .cls-1 {
        fill: #80def9;
        opacity: 0.7;
      }

      .cls-2 {
        fill: #5b7484;
      }

      .cls-3 {
        fill: #adbdca;
      }

      .cls-10, .cls-11, .cls-4 {
        fill: #fff;
      }

      .cls-5 {
        fill: #e5e5e5;
      }

      .cls-6, .cls-8 {
        fill: none;
      }

      .cls-6 {
        stroke: #51636b;
      }

      .cls-10, .cls-11, .cls-6, .cls-8, .cls-9 {
        stroke-miterlimit: 10;
        stroke-width: 2px;
      }

      .cls-7 {
        fill: #556a8a;
      }

      .cls-10, .cls-8, .cls-9 {
        stroke: #556a8a;
      }

      .cls-9 {
        fill: #55d2f6;
      }

      .cls-11 {
        stroke: #2bc7f4;
      }

      .cls-12 {
        fill: #2bc7f4;
      }
    </style>
  </defs>
  <title>bcs-partner-policies-set-device-config-1</title>
  <path class="cls-1" d="M288.1,67c-2.75-17.56-19.14-31-39-31-19.39,0-35.49,12.91-38.75,29.91a28.11,28.11,0,0,0-17.16-5.73c-12.39,0-22.79,7.75-25.86,18.28a25.29,25.29,0,0,0-5.56-.64c-12.94,0-23.43,9.66-23.43,21.59S148.87,121,161.81,121H293.57C306.94,118.5,317,107.07,317,94,317,79.23,304.1,67.24,288.1,67Z"/>
  <polygon class="cls-2" points="228.38 110 133.62 110 139.54 103 222.84 103 228.38 110"/>
  <polygon class="cls-3" points="219.47 108 142.53 108 145.23 105 216.85 105 219.47 108"/>
  <polygon class="cls-2" points="201.31 95 159.88 95 155.09 100 206.09 100 201.31 95"/>
  <polygon class="cls-2" points="183.43 98.5 177.76 98.5 178.89 87.16 182.3 87.16 183.43 98.5"/>
  <rect class="cls-4" x="120" y="22" width="122" height="66" rx="4" ry="4"/>
  <path class="cls-5" d="M242,26V38H120V26a4,4,0,0,1,4-4H238A4,4,0,0,1,242,26Z"/>
  <rect class="cls-6" x="120" y="22" width="122" height="66" rx="4" ry="4" transform="translate(362 110) rotate(180)"/>
  <g>
    <polygon class="cls-7" points="177 58 177 42.62 161 44.68 161 58 177 58"/>
    <polygon class="cls-7" points="179 58 200 58 200 40 179 42.7 179 58"/>
    <polygon class="cls-7" points="179 60 179 75.17 200 78 200 60 179 60"/>
    <polygon class="cls-7" points="177 60 161 60 161 72.68 177 74.92 177 60"/>
  </g>
  <g>
    <path class="cls-4" d="M315,57.75a7.51,7.51,0,0,1-.61,3,7.76,7.76,0,0,1-4.13,4.12,7.43,7.43,0,0,1-3,.61L303,65v40.11c0,3-1.88,6.89-6,6.89H261V57.08A10.57,10.57,0,0,1,261,56a4.38,4.38,0,0,1,.31-1.22,7.15,7.15,0,0,1,.64-1.19,7.28,7.28,0,0,1,1-1.27,2.25,2.25,0,0,1,.24-.21,7.39,7.39,0,0,1,2.23-1.45,7.88,7.88,0,0,1,3-.61h38.75a7.6,7.6,0,0,1,3,.61,7.76,7.76,0,0,1,4.13,4.12A7.51,7.51,0,0,1,315,57.75Z"/>
    <path class="cls-5" d="M315,57.75a7.51,7.51,0,0,1-.61,3,7.76,7.76,0,0,1-4.13,4.12,7.43,7.43,0,0,1-3,.61L303,65v1H261V57.08A10.57,10.57,0,0,1,261,56a4.38,4.38,0,0,1,.31-1.22,7.15,7.15,0,0,1,.64-1.19,7.28,7.28,0,0,1,1-1.27,2.25,2.25,0,0,1,.24-.21,7.39,7.39,0,0,1,2.23-1.45,7.88,7.88,0,0,1,3-.61h38.75a7.6,7.6,0,0,1,3,.61,7.76,7.76,0,0,1,4.13,4.12A7.51,7.51,0,0,1,315,57.75Z"/>
    <path class="cls-8" d="M315,57.75a7.48,7.48,0,0,1-.61,3,7.62,7.62,0,0,1-1.66,2.46,7.82,7.82,0,0,1-2.47,1.66,7.38,7.38,0,0,1-3,.61L303,65v40.11c0,3-1.88,6.89-6,6.89h-7.88L261,104V57.75a15.22,15.22,0,0,1,.05-1.8,4.3,4.3,0,0,1,.31-1.22A7.73,7.73,0,0,1,263,52.27a7.82,7.82,0,0,1,2.47-1.66,7.54,7.54,0,0,1,3-.61h38.75a7.54,7.54,0,0,1,3,.61,7.82,7.82,0,0,1,2.47,1.66,7.73,7.73,0,0,1,1.66,2.46A7.49,7.49,0,0,1,315,57.75Z"/>
    <path class="cls-7" d="M307.13,61.63a3.75,3.75,0,0,0,1.51-.3,3.94,3.94,0,0,0,2.06-2.06,3.94,3.94,0,0,0,0-3,3.94,3.94,0,0,0-2.06-2.06,3.94,3.94,0,0,0-3,0,3.94,3.94,0,0,0-2.06,2.06,3.75,3.75,0,0,0-.3,1.51L302.88,62Z"/>
    <path class="cls-9" d="M294,112c-3-1-5-2.89-5-8,0-6,6-8,5.43-8H262a8,8,0,0,0,0,16h31.27"/>
  </g>
  <path class="cls-10" d="M82.45,77.45l4.47.67a17.31,17.31,0,0,0,.46,3l-3.69,2.38A1.17,1.17,0,0,0,83,85.13l1.11,2.73a1,1,0,0,0,1.43.49l4.49-.94,1.42,2.42-2.58,3.5a1.19,1.19,0,0,0,0,1.6l2.22,2.26a1.44,1.44,0,0,0,1.6,0l3.53-2.53c.8.48,1.76,1.12,2.55,1.61l-1,4.47a1.1,1.1,0,0,0,.62,1.29l2.72,1.13a1,1,0,0,0,1.45-.46l2.43-4a9.35,9.35,0,0,0,2.87.67l.61,4.48a1.1,1.1,0,0,0,1.11,1.13l3-.15c.48.16,1-.32,1.12-.79l.84-4.64a9.64,9.64,0,0,0,2.88-.61l2.38,4a1.59,1.59,0,0,0,1.43.49L124.2,102a1.09,1.09,0,0,0,.65-1.27l-1.1-4.34a5.66,5.66,0,0,0,.62-.42c.13-.09.27-.19.4-.3.47-.35.94-.74,1.4-1l3.66,2.74a1,1,0,0,0,1.44-.15l1.34-1.32.75-.75,0,0a1,1,0,0,0,.14-1.41l-2.69-3.7a13.13,13.13,0,0,0,1.78-2.71l4.46,1.3a1.42,1.42,0,0,0,1.46-.78l1.13-2.72a1.39,1.39,0,0,0-.62-1.6l-3.83-2.27c.33-1,.33-1.92.66-2.87l4.48-.61a1.42,1.42,0,0,0,1-1.28V73.65a1.36,1.36,0,0,0-.93-1.29l-4.65-.51a18.27,18.27,0,0,0-.61-3.21l4-2.37a1,1,0,0,0,.5-1.44l-1.11-2.72a1.49,1.49,0,0,0-1.43-.81l-4.5,1.25c-.47-.8-.94-1.61-1.42-2.41L134,56.48a1.48,1.48,0,0,0-.16-1.44l-2.22-2.26a1.2,1.2,0,0,0-1.43-.17l-3.7,2.71c-.8-.5-1.75-1.14-2.55-1.62l1-4.48a1.07,1.07,0,0,0-.62-1.28l-2.87-1.3a1.38,1.38,0,0,0-1.45.47l-2.26,3.84c-1,0-1.92-.33-2.88-.35L114.35,46a1.4,1.4,0,0,0-1.28-1l-3-.18a1.87,1.87,0,0,0-1.12,1.1l-.68,4.49c-1.12.15-2.08.47-3.2.61l-2.21-3.85a1.11,1.11,0,0,0-1.44-.49l-2.72,1.11a1.3,1.3,0,0,0-.82,1.43l1.1,4.33a10.34,10.34,0,0,0-2.41,1.75l-3.67-2.75a1.07,1.07,0,0,0-1.61,0l-1.92,1.9-.17.16a1.09,1.09,0,0,0,0,1.6l2.69,3.7a7.16,7.16,0,0,0-1.37,1.85l-.12.22c-.1.2-.2.41-.29.63l-4.47-1.3a1.09,1.09,0,0,0-1.28.62L83,64.81a1.63,1.63,0,0,0,.47,1.45l4,2.42A7.93,7.93,0,0,0,87,71.4l-4.65.76c-.47.17-1,.64-1,1l0,3.2A1.08,1.08,0,0,0,82.45,77.45Z"/>
  <path class="cls-11" d="M97.5,69.12A15,15,0,1,1,96.34,75,14.82,14.82,0,0,1,97.5,69.12Z"/>
  <path class="cls-7" d="M120.53,68.27l-2.83,2.83-2.4.42.28-2.55,2.83-2.83a5.11,5.11,0,0,0-5.09.85,4.24,4.24,0,0,0-.57,4.81l-9.69,9.69a1.44,1.44,0,0,0,.21,2.05,1.26,1.26,0,0,0,1.91.07l9.69-9.69a4.24,4.24,0,0,0,4.81-.57A5.11,5.11,0,0,0,120.53,68.27Z"/>
  <path class="cls-12" d="M110.73,74.73,107,71l-.71-2.12-3.54-2.12-1.41,1.41,2.12,3.54,2.12.71,3.73,3.73a2,2,0,0,0,.51,1.92l6.36,6.36A2,2,0,0,0,119,81.61l-6.36-6.36A2,2,0,0,0,110.73,74.73Z"/>
</svg>
