<svg xmlns="http://www.w3.org/2000/svg" viewBox="0 0 400 140">
  <defs>
    <style>
      .cls-1 {
        fill: #556a8a;
      }

      .cls-2 {
        fill: #adbdca;
      }

      .cls-3, .cls-6 {
        fill: #fff;
      }

      .cls-10, .cls-4 {
        fill: #e5e5e5;
      }

      .cls-12, .cls-5 {
        fill: none;
      }

      .cls-10, .cls-5, .cls-6 {
        stroke: #556a8a;
      }

      .cls-10, .cls-12, .cls-5, .cls-6 {
        stroke-miterlimit: 10;
        stroke-width: 2px;
      }

      .cls-7 {
        fill: #0078d7;
      }

      .cls-8 {
        fill: #ffb900;
      }

      .cls-9 {
        fill: #ffc52b;
      }

      .cls-11 {
        fill: #2bc7f4;
      }

      .cls-12 {
        stroke: #fff;
        fill-rule: evenodd;
      }
    </style>
  </defs>
  <title>bcs-partner-advanced-management-auto-pilot-3</title>
  <g id="ICONS">
    <g>
      <polygon class="cls-1" points="257.5 129 140.5 129 147.82 121 250.65 121 257.5 129"/>
      <polygon class="cls-2" points="246.5 127 151.5 127 154.84 123 243.26 123 246.5 127"/>
      <polygon class="cls-1" points="224.5 110 172.5 110 166.5 115 230.5 115 224.5 110"/>
      <polygon class="cls-1" points="202 114 195 114 196.4 100 200.6 100 202 114"/>
      <rect class="cls-3" x="123.5" y="20" width="151" height="82" rx="4" ry="4"/>
      <path class="cls-4" d="M274,24V36H123V24a4,4,0,0,1,4-4H270A4,4,0,0,1,274,24Z"/>
      <rect class="cls-5" x="123" y="20" width="151" height="82" rx="4" ry="4" transform="translate(397 122) rotate(180)"/>
    </g>
    <g>
      <rect class="cls-6" x="100" y="51" width="36" height="68" rx="4" ry="4"/>
      <rect class="cls-4" x="103" y="60" width="30" height="49"/>
      <path class="cls-1" d="M122.19,57h-8.38a1,1,0,0,1,0-2h8.38a1,1,0,0,1,0,2Z"/>
      <circle class="cls-1" cx="106.5" cy="113.5" r="1.5"/>
      <circle class="cls-1" cx="130.5" cy="113.5" r="1.5"/>
      <rect class="cls-1" x="113" y="113" width="10" height="2" rx="1" ry="1"/>
    </g>
    <g>
      <polygon class="cls-7" points="117 82 117 74.47 108 75.55 108 82 117 82"/>
      <polygon class="cls-7" points="118 82 128 82 128 72.94 118 74.35 118 82"/>
      <polygon class="cls-7" points="118 83 118 91.43 128 92.91 128 83 118 83"/>
      <polygon class="cls-7" points="117 83 108 83 108 90.14 117 91.3 117 83"/>
    </g>
    <g>
      <path class="cls-8" d="M278.2,39l15.4-26h-19l-25,38h17.6L251,80.65l11.65-10.31L298,39Z"/>
      <path class="cls-9" d="M298,39H278.2l15.4-26h-13l-25,38h17.6L262.62,70.34Z"/>
    </g>
    <path class="cls-10" d="M171.11,66.47l4.47.67a17.31,17.31,0,0,0,.46,3l-3.69,2.38a1.17,1.17,0,0,0-.66,1.59l1.11,2.73a1,1,0,0,0,1.43.49l4.49-.94,1.42,2.42-2.58,3.5a1.19,1.19,0,0,0,0,1.6l2.22,2.26a1.44,1.44,0,0,0,1.6,0l3.53-2.53c.8.48,1.76,1.12,2.55,1.61l-1,4.47a1.1,1.1,0,0,0,.62,1.29l2.72,1.13a1,1,0,0,0,1.45-.46l2.43-4a9.35,9.35,0,0,0,2.87.67l.61,4.48A1.1,1.1,0,0,0,198.28,94l3-.15c.48.16,1-.32,1.12-.79l.84-4.64a9.64,9.64,0,0,0,2.88-.61l2.38,4a1.59,1.59,0,0,0,1.43.49L212.86,91a1.09,1.09,0,0,0,.65-1.27l-1.1-4.34A5.66,5.66,0,0,0,213,85c.13-.09.27-.19.4-.3.47-.35.94-.74,1.4-1l3.66,2.74a1,1,0,0,0,1.44-.15L221.27,85l.75-.75,0,0a1,1,0,0,0,.14-1.41l-2.69-3.7a13.13,13.13,0,0,0,1.78-2.71l4.46,1.3a1.42,1.42,0,0,0,1.46-.78l1.13-2.72a1.39,1.39,0,0,0-.62-1.6l-3.83-2.27c.33-1,.33-1.92.66-2.87l4.48-.61a1.42,1.42,0,0,0,1-1.28V62.67a1.36,1.36,0,0,0-.93-1.29l-4.65-.51a18.27,18.27,0,0,0-.61-3.21l4-2.37a1,1,0,0,0,.5-1.44l-1.11-2.72a1.49,1.49,0,0,0-1.43-.81l-4.5,1.25c-.47-.8-.94-1.61-1.42-2.41l2.75-3.66a1.48,1.48,0,0,0-.16-1.44l-2.22-2.26a1.2,1.2,0,0,0-1.43-.17l-3.7,2.71c-.8-.5-1.75-1.14-2.55-1.62l1-4.48a1.07,1.07,0,0,0-.62-1.28L210,35.66a1.38,1.38,0,0,0-1.45.47L206.33,40c-1,0-1.92-.33-2.88-.35L203,35a1.4,1.4,0,0,0-1.28-1l-3-.18a1.87,1.87,0,0,0-1.12,1.1l-.68,4.49c-1.12.15-2.08.47-3.2.61l-2.21-3.85A1.11,1.11,0,0,0,190,35.7l-2.72,1.11a1.3,1.3,0,0,0-.82,1.43l1.1,4.33a10.34,10.34,0,0,0-2.41,1.75l-3.67-2.75a1.07,1.07,0,0,0-1.61,0L178,43.47l-.17.16a1.09,1.09,0,0,0,0,1.6l2.69,3.7a7.16,7.16,0,0,0-1.37,1.85L179,51c-.1.2-.2.41-.29.63l-4.47-1.3A1.09,1.09,0,0,0,173,51l-1.3,2.88a1.63,1.63,0,0,0,.47,1.45l4,2.42a7.93,7.93,0,0,0-.51,2.72l-4.65.76c-.47.17-1,.64-1,1l0,3.2A1.08,1.08,0,0,0,171.11,66.47Z"/>
    <path class="cls-11" d="M186.16,58.14A15,15,0,1,1,185,64,14.82,14.82,0,0,1,186.16,58.14Z"/>
    <polyline class="cls-12" points="189.24 64.1 196.99 71.85 211.24 57.6"/>
  </g>
</svg>
