<svg xmlns="http://www.w3.org/2000/svg" viewBox="0 0 400 140">
  <defs>
    <style>
      .cls-1 {
        fill: #556a8a;
      }

      .cls-2, .cls-5 {
        fill: #fcfcfc;
      }

      .cls-3 {
        fill: #e5e5e5;
      }

      .cls-4 {
        fill: none;
      }

      .cls-4, .cls-5 {
        stroke: #556a8a;
        stroke-miterlimit: 10;
        stroke-width: 2px;
      }

      .cls-6 {
        fill: #999;
      }

      .cls-7 {
        fill: #2bc7f4;
      }

      .cls-8 {
        fill: #414042;
      }

      .cls-9 {
        fill: #e4edf1;
      }

      .cls-10 {
        fill: #fff;
      }

      .cls-11 {
        fill: #ffb900;
      }

      .cls-12 {
        fill: #ffc52b;
      }
    </style>
  </defs>
  <title>bcs-partner-install-2</title>
  <g id="ICONS">
    <g>
      <g>
        <polygon class="cls-1" points="219.53 111.62 213.84 111.62 214.79 98.33 218.58 98.33 219.53 111.62"/>
        <polygon class="cls-1" points="240.49 109 192.56 109 187.03 112 246.03 112 240.49 109"/>
      </g>
      <path class="cls-2" d="M280.6,30.92V97.4H153V30.92A4,4,0,0,1,157,27H276.64A4,4,0,0,1,280.6,30.92Z"/>
      <path class="cls-3" d="M280.6,30.92V46.8H153V30.92A4,4,0,0,1,157,27H276.64A4,4,0,0,1,280.6,30.92Z"/>
      <path class="cls-4" d="M280,98V31.89A3.93,3.93,0,0,0,276.06,28H156.94A3.93,3.93,0,0,0,153,31.89V98Z"/>
    </g>
    <g>
      <rect class="cls-5" x="269" y="67" width="30" height="55" rx="4" ry="4"/>
      <rect class="cls-3" x="272" y="74.99" width="23" height="40"/>
      <path class="cls-6" d="M288.27,73h-7.54c-.4,0-.73-.45-.73-1s.33-1,.73-1h7.54c.4,0,.73.45.73,1S288.67,73,288.27,73Z"/>
    </g>
    <rect class="cls-1" x="197" y="83" width="36" height="2"/>
    <polygon class="cls-1" points="232.44 56.59 216 73.04 216 35 214 35 214 73.04 197.86 56.59 196.53 58.02 215.26 76.9 233.91 58.02 232.44 56.59"/>
    <path class="cls-7" d="M314.49,68.58a1.2,1.2,0,0,0,1.27.46l2.32-.75a1.2,1.2,0,0,0,.6-1.5l-.7-2.91c-.31-.74-.31-1.51,1.65-3.28a2.1,2.1,0,0,1,2-.31l3.13,1a1.41,1.41,0,0,0,1.2-.5l1.19-2.4a1.25,1.25,0,0,0-.71-1.37l-2.67-1.65a1.52,1.52,0,0,1-.81-1.73s0-3.09,1.2-3.58l2.59-1.21a1.49,1.49,0,0,0,.6-1.49l-1-2.46a.92.92,0,0,0-1.21-.49l-.06,0-2.92.71c-.76.29-2.86-1.42-3.29-1.7a3,3,0,0,1-.47-2.2l1.06-2.76a1.35,1.35,0,0,0-.58-1.59l-2.32-.79a1.2,1.2,0,0,0-1.46.36l-1.41,2.83c-.36.69-1.16,1.45-3.42,1,0,0-1.73-.57-2.07-1.26l-1.25-3a1.2,1.2,0,0,0-1.27-.46l-2.46,1a.92.92,0,0,0-.43,1.23v0l.57,3.14c.27,1.09-1.29,2.63-1.58,3.06a2,2,0,0,1-2.19.53l-3-1.18a1.46,1.46,0,0,0-1.37.71l-1.19,2.4a1.65,1.65,0,0,0,.71,1.37l2.72,1.65c1.54.71,1.05,2.32,1,3.42,0,.59-.1,1.2-1.33,1.67L294.5,56.1a1.2,1.2,0,0,0-.46,1.27l1,2.46a1.2,1.2,0,0,0,1.13.69l3-.93c1.09-.27,1.55,0,1.86.52a16.77,16.77,0,0,1,1.3,1.42,1.68,1.68,0,0,1,.64,1.91l-1.18,3a1.45,1.45,0,0,0,.71,1.36l2.17,1a1.2,1.2,0,0,0,1.46-.36l1.43-2.85a1.9,1.9,0,0,1,1.86-1l1.77.15c.73-.17,1.2.1,1.8,1.1l1.43,2.74m2.3-18.47A6.59,6.59,0,0,1,313,58.36a6.12,6.12,0,0,1-8-3.23q-.12-.27-.21-.56a6.29,6.29,0,0,1,3.65-8,6.37,6.37,0,0,1,8.34,3.4l.06.15"/>
    <g>
      <rect class="cls-5" x="75" y="44" width="92" height="68" rx="4" ry="4"/>
      <path class="cls-8" d="M171,118H70.18A4,4,0,0,1,66,115H175S173.79,118,171,118Z"/>
      <polygon class="cls-1" points="66.1 115 74.02 110 168 110 175 115 66.1 115"/>
      <polygon class="cls-9" points="70 115 74.6 112 167.36 112 171 115 70 115"/>
      <rect class="cls-7" x="81" y="51" width="80" height="53"/>
      <polygon class="cls-10" points="116 75.9 116 62 101 64.61 101 75.9 116 75.9"/>
      <polygon class="cls-10" points="118 76 136 76 136 59.64 118 62.03 118 76"/>
      <polygon class="cls-10" points="118 78 118 91.85 136 94.35 136 78 118 78"/>
      <polygon class="cls-10" points="116 78 101 78 101 89.45 116 91.48 116 78"/>
    </g>
    <g>
      <path class="cls-11" d="M281.74,32.9,295.16,12H279.95L259.88,41.7H274L261,66.14,278.17,50.8l20.51-17.9Z"/>
      <path class="cls-12" d="M281.74,32.9,295.16,12h-6.44L268.67,41.7H274L261,66.14,278.17,50.8l20.51-17.9Z"/>
    </g>
  </g>
</svg>
