<svg id="ICONS" xmlns="http://www.w3.org/2000/svg" viewBox="0 0 400 140">
  <defs>
    <style>
      .cls-1, .cls-2 {
        fill: #fff;
      }

      .cls-1, .cls-4 {
        stroke: #556a8a;
        stroke-linecap: round;
        stroke-linejoin: round;
      }

      .cls-1, .cls-10, .cls-4, .cls-6, .cls-7 {
        stroke-width: 2px;
      }

      .cls-3 {
        fill: #556a8a;
      }

      .cls-10, .cls-4, .cls-6 {
        fill: none;
      }

      .cls-5 {
        fill: #e5e5e5;
      }

      .cls-6 {
        stroke: #bcbec0;
      }

      .cls-10, .cls-6, .cls-7 {
        stroke-miterlimit: 10;
      }

      .cls-7 {
        fill: #2bc7f4;
        stroke: #00bcf2;
      }

      .cls-8 {
        fill: #d1e55c;
      }

      .cls-9 {
        fill: #ddec85;
      }

      .cls-10 {
        stroke: #bad80a;
      }
    </style>
  </defs>
  <title>bcs-partner-advanced-management-faq-2</title>
  <g>
    <g>
      <rect class="cls-1" x="126" y="26" width="124" height="97"/>
      <path class="cls-2" d="M188,121a13.75,13.75,0,0,0-9-4H137V20h43c7,0,8,10,8,10s1-10,8-10h43v97H197a13.75,13.75,0,0,0-9,4"/>
      <rect class="cls-3" x="187" y="27" width="2" height="93.32"/>
      <path class="cls-4" d="M188,121a13.75,13.75,0,0,0-9-4H137V20h43c7,0,8,10,8,10s1-10,8-10h43v97H197a13.75,13.75,0,0,0-9,4"/>
      <rect class="cls-5" x="138" y="21" width="15" height="95"/>
    </g>
    <rect class="cls-5" x="223" y="21" width="15" height="95"/>
  </g>
  <g>
    <line class="cls-6" x1="158" y1="38" x2="180" y2="38"/>
    <line class="cls-6" x1="158" y1="53" x2="180" y2="53"/>
    <line class="cls-6" x1="158" y1="68" x2="180" y2="68"/>
    <line class="cls-6" x1="158" y1="83" x2="180" y2="83"/>
    <line class="cls-6" x1="158" y1="99" x2="180" y2="99"/>
  </g>
  <circle class="cls-7" cx="250.88" cy="67" r="33"/>
  <path class="cls-2" d="M248.77,75.8a12.58,12.58,0,0,1-.46-1.94,14.23,14.23,0,0,1-.2-2.38,7.4,7.4,0,0,1,.73-3.33,13.76,13.76,0,0,1,1.83-2.78,27.64,27.64,0,0,1,2.39-2.49q1.3-1.2,2.39-2.42a13.8,13.8,0,0,0,1.83-2.56,6,6,0,0,0,.73-3,5.4,5.4,0,0,0-.53-2.45A5.17,5.17,0,0,0,256,50.71a6.39,6.39,0,0,0-2.13-1.08,9,9,0,0,0-2.56-.36,11.18,11.18,0,0,0-8.44,3.83V48A17,17,0,0,1,252,45.26a14.35,14.35,0,0,1,4.12.58,10.16,10.16,0,0,1,3.39,1.71,8.07,8.07,0,0,1,2.29,2.84,8.85,8.85,0,0,1,.84,3.95,9.2,9.2,0,0,1-.75,3.8A13.7,13.7,0,0,1,260,61.21a24.4,24.4,0,0,1-2.46,2.61q-1.33,1.21-2.46,2.41a13.13,13.13,0,0,0-1.89,2.49,5.59,5.59,0,0,0-.75,2.85,8.51,8.51,0,0,0,.32,2.41,17.19,17.19,0,0,0,.63,1.83Zm2.59,12a3.19,3.19,0,0,1-2.25-.92,3,3,0,0,1-1-2.25,3,3,0,0,1,1-2.25,3.13,3.13,0,0,1,4.49,0,3,3,0,0,1,1,2.25,3,3,0,0,1-1,2.25A3.19,3.19,0,0,1,251.37,87.79Z"/>
  <g>
    <circle class="cls-1" cx="286" cy="87.27" r="17"/>
    <path class="cls-3" d="M284.58,91.83a5.88,5.88,0,0,1-.22-.92,6.7,6.7,0,0,1-.1-1.13,3.51,3.51,0,0,1,.35-1.58,6.51,6.51,0,0,1,.87-1.32,13,13,0,0,1,1.13-1.18q.62-.57,1.13-1.15a6.6,6.6,0,0,0,.87-1.22,2.87,2.87,0,0,0,.35-1.4,2.56,2.56,0,0,0-.25-1.16,2.46,2.46,0,0,0-.69-.85,3,3,0,0,0-1-.51,4.24,4.24,0,0,0-1.22-.17,5.3,5.3,0,0,0-4,1.82V78.65a8,8,0,0,1,4.33-1.31,6.8,6.8,0,0,1,2,.27,4.81,4.81,0,0,1,1.61.81,3.84,3.84,0,0,1,1.09,1.35,4.21,4.21,0,0,1,.4,1.87,4.38,4.38,0,0,1-.36,1.8,6.53,6.53,0,0,1-.9,1.46,11.58,11.58,0,0,1-1.17,1.24q-.63.57-1.17,1.14a6.22,6.22,0,0,0-.9,1.18,2.65,2.65,0,0,0-.36,1.35,4,4,0,0,0,.15,1.14,8,8,0,0,0,.3.87Zm1.23,5.69a1.51,1.51,0,0,1-1.07-.44,1.43,1.43,0,0,1-.45-1.07,1.4,1.4,0,0,1,.45-1.07,1.49,1.49,0,0,1,2.13,0,1.4,1.4,0,0,1,.45,1.07,1.43,1.43,0,0,1-.45,1.07A1.51,1.51,0,0,1,285.81,97.51Z"/>
  </g>
  <g>
    <path class="cls-8" d="M130.93,81.12H93.44c-2.78,0-4.44-2.41-4.44-5V39.22c0-2.6,1.7-4.22,4.44-4.22h51c2.73,0,5.55,1.58,5.55,4.22v36.9c0,2.61-2.8,5-5.55,5H141V92Z"/>
    <g>
      <path class="cls-9" d="M89,38.94V71l36-36H92.94A3.61,3.61,0,0,0,89,38.94Z"/>
      <path class="cls-10" d="M130.93,81.12H93.44c-2.78,0-4.44-2.41-4.44-5V39.22c0-2.6,1.7-4.22,4.44-4.22h51c2.73,0,5.55,1.58,5.55,4.22v36.9c0,2.61-2.8,5-5.55,5H141V92Z"/>
    </g>
    <path class="cls-3" d="M116.2,64.45a9.18,9.18,0,0,1-.34-1.45,10.6,10.6,0,0,1-.15-1.77,5.52,5.52,0,0,1,.55-2.48,10.25,10.25,0,0,1,1.36-2.07,20.67,20.67,0,0,1,1.78-1.86q1-.89,1.78-1.8a10.31,10.31,0,0,0,1.36-1.91,4.5,4.5,0,0,0,.55-2.2,4,4,0,0,0-.4-1.83,3.87,3.87,0,0,0-1.08-1.33,4.77,4.77,0,0,0-1.59-.81,6.68,6.68,0,0,0-1.91-.27,8.33,8.33,0,0,0-6.29,2.86V43.74a12.64,12.64,0,0,1,6.81-2.06,10.71,10.71,0,0,1,3.07.43,7.58,7.58,0,0,1,2.52,1.28,6,6,0,0,1,1.71,2.12,6.6,6.6,0,0,1,.62,2.94,6.87,6.87,0,0,1-.56,2.84,10.26,10.26,0,0,1-1.41,2.29,18.26,18.26,0,0,1-1.84,1.94q-1,.9-1.84,1.79a9.82,9.82,0,0,0-1.41,1.86,4.17,4.17,0,0,0-.56,2.13,6.34,6.34,0,0,0,.24,1.79,12.57,12.57,0,0,0,.47,1.36Zm1.93,8.94a2.37,2.37,0,0,1-1.68-.69,2.24,2.24,0,0,1-.71-1.68,2.2,2.2,0,0,1,.71-1.68,2.33,2.33,0,0,1,3.35,0,2.2,2.2,0,0,1,.71,1.68,2.24,2.24,0,0,1-.71,1.68A2.38,2.38,0,0,1,118.13,73.39Z"/>
  </g>
</svg>
