<svg xmlns="http://www.w3.org/2000/svg" viewBox="0 0 400 140">
  <defs>
    <style>
      .cls-1, .cls-4, .cls-8 {
        fill: #fff;
      }

      .cls-1 {
        stroke: #bad80a;
      }

      .cls-1, .cls-6 {
        stroke-miterlimit: 10;
        stroke-width: 2px;
      }

      .cls-2 {
        fill: #556a8a;
      }

      .cls-3 {
        fill: #adbdca;
      }

      .cls-5 {
        fill: #c8edfb;
      }

      .cls-6 {
        fill: none;
        stroke: #556a8a;
      }

      .cls-7 {
        fill: #2bc7f4;
      }

      .cls-7, .cls-8 {
        fill-rule: evenodd;
      }

      .cls-9 {
        fill: #9273b6;
      }

      .cls-10 {
        fill: #e5e5e5;
      }
    </style>
  </defs>
  <title>bcs-partner-reset-windows-4</title>
  <g id="ICONS">
    <path class="cls-1" d="M283.19,39.54h-3.32c-2,.64-4,1.18-5.89,1.64a31,31,0,0,0-54.26-19.64,35.06,35.06,0,0,0-20.34-6.63c-15.29,0-29,11.23-30.59,24.84A28,28,0,0,0,131,66c0,13.38,9.39,27.56,21.93,30.33a16.66,16.66,0,0,0,5.78.67H283.19C299.79,97,311,82.06,311,67.14,311,51.48,299.79,39.54,283.19,39.54Z"/>
    <g>
      <polygon class="cls-2" points="213.92 129 111.99 129 118.36 122 207.96 122 213.92 129"/>
      <polygon class="cls-3" points="204.34 127 121.57 127 124.48 124 201.52 124 204.34 127"/>
      <polygon class="cls-2" points="185.51 115 140.28 115 135.06 119 190.72 119 185.51 115"/>
      <polygon class="cls-2" points="165.57 115.94 159.47 115.94 160.69 103.75 164.35 103.75 165.57 115.94"/>
      <rect class="cls-4" x="98" y="34" width="132" height="72" rx="4" ry="4" transform="translate(328 140) rotate(180)"/>
      <path class="cls-5" d="M229.45,50V38.57A4.71,4.71,0,0,0,224.61,34H102.4a4.71,4.71,0,0,0-4.84,4.57V50Z"/>
      <rect class="cls-6" x="98" y="34" width="132" height="72" rx="4" ry="4" transform="translate(328 140) rotate(180)"/>
    </g>
    <g>
      <path class="cls-6" d="M137.51,83.4a26.51,26.51,0,1,0-1.34-23.87"/>
      <polygon class="cls-2" points="136.31 58.52 136.31 44 134 44 134 60.94 150.84 60.94 150.84 58.52 136.31 58.52"/>
    </g>
    <path class="cls-7" d="M260.54,44.69l-3.79-.54c-.27-.81-.27-1.62-.54-2.43l3.25-1.89a1,1,0,0,0,.54-1.35l-1.08-2.16c0-.54-.54-.81-1.08-.81L254,36.58a5.89,5.89,0,0,0-1.35-2.16l2.17-3.24a.82.82,0,0,0,0-1.08L253,28.2a.82.82,0,0,0-1.08,0l-3.25,2.16c-.54-.54-1.35-.81-1.89-1.35l.81-3.79c.27-.27,0-.81-.54-1.08l-2.17-.81a1.19,1.19,0,0,0-1.35.27l-1.89,3.24c-.81-.27-1.62-.27-2.71-.54l-.54-3.79a.86.86,0,0,0-.81-.81h-2.71a.86.86,0,0,0-.81.81l-.54,3.79c-.81.27-1.62.27-2.44.54l-1.89-3.24c-.27-.54-.81-.54-1.35-.54l-2.44,1.08c-.27,0-.54.54-.54,1.08L225.89,29a5.89,5.89,0,0,0-2.17,1.35l-3.25-2.16a.82.82,0,0,0-1.08,0l-1.89,1.89a.82.82,0,0,0,0,1.08l2.17,3.24c-.54.54-.81,1.35-1.35,1.89l-3.79-.81c-.27-.27-.81,0-1.08.54l-1.08,2.16c0,.54,0,1.08.54,1.35l3.25,1.89c-.27.81-.27,1.89-.54,2.7l-3.79.54a.86.86,0,0,0-.81.81v2.7a.72.72,0,0,0,.81.81l3.79.54a7.89,7.89,0,0,0,.54,2.43l-3.25,1.89a1,1,0,0,0-.54,1.35l1.08,2.43c0,.27.54.54,1.08.54l3.79-1.08a5.89,5.89,0,0,0,1.35,2.16l-2.17,3.24a1.21,1.21,0,0,0,0,1.35l1.89,1.62c.27.27.81.54,1.08.27l3.25-2.43a4.86,4.86,0,0,0,1.89,1.35l-.81,3.79c-.27.27,0,.81.54,1.08l2.17,1.08c.54,0,1.08,0,1.35-.54l1.89-3.24a8,8,0,0,0,2.71.54l.54,3.79a.86.86,0,0,0,.81.81h2.71a.86.86,0,0,0,.81-.81l.54-3.79a7.91,7.91,0,0,0,2.44-.54l1.89,3.24a1,1,0,0,0,1.35.54L247,69.57c.27,0,.54-.54.54-1.08l-1.08-3.79a5.89,5.89,0,0,0,2.17-1.35l3.25,2.43c.27.27.81,0,1.08-.27l1.89-1.62a1.21,1.21,0,0,0,0-1.35l-2.17-3.24A11.45,11.45,0,0,0,254,57.4l3.79,1.08a1.45,1.45,0,0,0,1.08-.81L260,55.51c0-.54,0-1.08-.54-1.35l-3.25-1.89c.27-.81.27-1.62.54-2.7l3.79-.54a.72.72,0,0,0,.81-.81V45.5a.86.86,0,0,0-.81-.81Z"/>
    <path class="cls-8" d="M251.6,50.91a1.25,1.25,0,0,1-1.89.81l-6.23-4.06c-.81-.27-.81-1.08,0-1.62L249.71,42a1.4,1.4,0,0,1,1.89.81,19.71,19.71,0,0,1,.54,4.06,16.56,16.56,0,0,1-.54,4.06Z"/>
    <path class="cls-8" d="M250,38.74a1.24,1.24,0,0,1-.81,1.89l-7.31,1.62c-.81.27-1.35-.27-1.08-1.08l1.62-7.3c.27-1.08,1.08-1.35,1.89-.81a17.88,17.88,0,0,1,3.25,2.43A17.86,17.86,0,0,1,250,38.74Z"/>
    <path class="cls-8" d="M232.11,31.17a15.51,15.51,0,0,1,8.12,0,1.24,1.24,0,0,1,.81,1.89L237,39.55c-.54.81-1.35.81-1.62,0l-4.06-6.49a1.24,1.24,0,0,1,.81-1.89Z"/>
    <path class="cls-8" d="M240.23,46.85a4.06,4.06,0,0,1-8.12,0,4.07,4.07,0,0,1,8.12,0Z"/>
    <path class="cls-8" d="M228.05,32.79a1.25,1.25,0,0,1,1.89.81l1.62,7.3c.27.81-.27,1.35-1.35,1.35l-7-1.89c-1.08-.27-1.35-1.08-.81-1.89a9.76,9.76,0,0,1,2.44-3.24,17.88,17.88,0,0,1,3.25-2.43Z"/>
    <path class="cls-8" d="M220.47,50.64a16.56,16.56,0,0,1-.54-4.06,19.71,19.71,0,0,1,.54-4.06,1.16,1.16,0,0,1,1.89-.54l6.5,3.79a1,1,0,0,1,0,1.89l-6.5,3.79c-.81.54-1.62.27-1.89-.81Z"/>
    <path class="cls-8" d="M222.1,55a1.19,1.19,0,0,1,.81-1.89l7.31-1.89c.81-.27,1.35.27,1.35,1.35l-1.89,7.3a1.4,1.4,0,0,1-1.89.81,17.88,17.88,0,0,1-3.25-2.43C223.18,56.59,222.1,55,222.1,55Z"/>
    <path class="cls-8" d="M240,62.27a16.61,16.61,0,0,1-4.06.54,19.77,19.77,0,0,1-4.06-.54,1.4,1.4,0,0,1-.81-1.89l4.06-6.22c.54-.81,1.35-.81,1.62,0l4.06,6.22c.54.81.27,1.62-.81,1.89Z"/>
    <path class="cls-8" d="M244,60.64c-.81.54-1.62.27-1.89-.81l-1.62-7.3c-.27-.81.27-1.35,1.35-1.08l7.31,1.62A1.4,1.4,0,0,1,250,55a17.86,17.86,0,0,1-2.44,3.24A28.06,28.06,0,0,1,244,60.64Z"/>
    <path class="cls-9" d="M249.73,101.58l.62-2.23c.29-.83.59-1.11,1.15-1.09l1.28-.38a1.43,1.43,0,0,1,1.53.45l1.5,1.87a.9.9,0,0,0,1.13,0l1.44-1.09a1.09,1.09,0,0,0,.31-1.11l-1.34-2a1.26,1.26,0,0,1,.18-1.51,12.6,12.6,0,0,1,.73-1.25c.15-.44.44-.7,1.29-.67l2.39.2a.9.9,0,0,0,.72-.68l.34-2a.9.9,0,0,0-.54-.86l-2.24-.63c-1-.16-1.15-.59-1.24-1-.2-.8-.81-1.91.21-2.67l1.74-1.64a1.24,1.24,0,0,0,.31-1.12L260,80.62a1.1,1.1,0,0,0-1.12-.31l-2,1.34a1.48,1.48,0,0,1-1.69,0c-.28-.27-1.67-1.16-1.64-2l-.07-2.39v0a.69.69,0,0,0-.51-.84L251,76a.9.9,0,0,0-.86.54l-.46,2.36c-.14.56-1.32,1.25-1.32,1.25-1.6.65-2.3.23-2.68-.23l-1.48-1.86a.9.9,0,0,0-1.13,0L241.5,79a1,1,0,0,0-.18,1.26l1.21,1.86a2.25,2.25,0,0,1,0,1.69c-.28.27-1.55,1.85-2.15,1.76l-2.26-.07h-.05a.69.69,0,0,0-.81.55l-.34,2a1.12,1.12,0,0,0,.68,1l2.09.49c1,.17,1.44,2.44,1.44,2.44a1.14,1.14,0,0,1-.33,1.4l-1.7,1.63a.94.94,0,0,0-.31,1.12L240,97.63a1.06,1.06,0,0,0,1,.18l2.15-1.21a1.57,1.57,0,0,1,1.55-.09c1.71,1,1.83,1.56,1.72,2.15l-.06,2.25a.9.9,0,0,0,.68,1l1.82.19a.9.9,0,0,0,.86-.54m-4.58-13.21,0-.12a4.79,4.79,0,0,1,5.6-3.8,4.72,4.72,0,0,1,3.93,5.32q0,.22-.06.44a4.6,4.6,0,0,1-5.4,3.63,5,5,0,0,1-4.07-5.46"/>
    <g>
      <path class="cls-4" d="M263.87,60l3.2,2.63a2.3,2.3,0,0,1,1.08,2.38c-.56,1.54-1.33,3.82-2.32,4l-3.55,1.27A1.52,1.52,0,0,0,261.11,72l.8,3c.21.58.33.76,1,.79l2.25-.06,2-.07c1.83-.13,4.49,4.73,4,5.58l-2,3.49a1.5,1.5,0,0,0,.63,1.79l2.58,1.59a1.83,1.83,0,0,0,1.93-.2l2.35-3.3A2.1,2.1,0,0,1,279.1,84c.81.08,3.77.67,4.23,2l1.14,3.87a1.5,1.5,0,0,0,1.5.72l3.29-.66a1.54,1.54,0,0,0,1-1.38l-.36-3.89c-.36-1.62.22-2.15.84-2.56,2.12-2,3.11-1.87,4.32-1.29l3.62,1.74a2.07,2.07,0,0,0,1.94-.2l1.71-2.91a1.84,1.84,0,0,0-.18-1.94l-3.32-2.35a2.47,2.47,0,0,1-1-2.67c.27-.6.21-3.22,2.15-3.78l3.7-1.57h0a1.17,1.17,0,0,0,1-1.31l-.59-2.92-.08-.36a1.48,1.48,0,0,0-1.36-1l-4,.72c-1,.12-2.75-1.32-2.75-1.32-2.42-1.92-1.75-3.47-1.27-4.34l2-3.44a1.5,1.5,0,0,0-.63-1.79l-2.44-1.9a1.7,1.7,0,0,0-2.08.47l-2.18,3a3.78,3.78,0,0,1-2.66,1c-.58-.27-1.32-.26-1.93-.55a2.26,2.26,0,0,1-2.13-1.75L281.46,48s0-.06,0-.09A1.17,1.17,0,0,0,280.1,47l-3.28.67a1.85,1.85,0,0,0-1.16,1.66l.5,3.58c.32,1.6-2.94,3.75-2.94,3.75a1.91,1.91,0,0,1-2.39.33l-3.59-1.66a1.57,1.57,0,0,0-1.95.19S262.73,58.81,263.87,60Zm11.85,12.18a7.64,7.64,0,0,1-.55-1.76,8.09,8.09,0,0,1,6-9.53v0l.2,0a8.12,8.12,0,0,1,9.36,6.44.42.42,0,0,1,0,.1,7.72,7.72,0,0,1-5.87,9.13l-.73.16A7.82,7.82,0,0,1,275.72,72.22Z"/>
      <path class="cls-10" d="M263.87,60l3.2,2.63a2.3,2.3,0,0,1,1.08,2.38c-.56,1.54-1.33,3.82-2.32,4l-3.55,1.27A1.52,1.52,0,0,0,261.11,72l.8,3c.21.58.33.76,1,.79l2.25-.06,10.6-3.49a7.64,7.64,0,0,1-.55-1.76,8.09,8.09,0,0,1,6-9.53v0l.2,0a8.12,8.12,0,0,1,9.36,6.44.42.42,0,0,1,0,.1l13.48-4.55-.08-.36a1.48,1.48,0,0,0-1.36-1l-4,.72c-1,.12-2.75-1.32-2.75-1.32-2.42-1.92-1.75-3.47-1.27-4.34l2-3.44a1.5,1.5,0,0,0-.63-1.79l-2.44-1.9a1.7,1.7,0,0,0-2.08.47l-2.18,3a3.78,3.78,0,0,1-2.66,1c-.58-.27-1.32-.26-1.93-.55a2.26,2.26,0,0,1-2.13-1.75L281.46,48s0-.06,0-.09A1.17,1.17,0,0,0,280.1,47l-3.28.67a1.85,1.85,0,0,0-1.16,1.66l.5,3.58c.32,1.6-2.94,3.75-2.94,3.75a1.91,1.91,0,0,1-2.39.33l-3.59-1.66a1.57,1.57,0,0,0-1.95.19S262.73,58.81,263.87,60Z"/>
      <path class="cls-6" d="M262.86,75.77c-.62,0-.75-.2-1-.79l-.81-3a1.51,1.51,0,0,1,1.17-1.67l3.55-1.27c1-.19,1.77-2.47,2.33-4a2.29,2.29,0,0,0-1.09-2.38L263.88,60c-1.14-1.22,1.42-4.52,1.42-4.52a1.58,1.58,0,0,1,1.95-.19L270.83,57c.78.47,5.65-2.48,5.34-4.08l-.51-3.58a1.88,1.88,0,0,1,1.16-1.67L280.1,47a1.16,1.16,0,0,1,1.35.94V48l1.27,3.58c.23,1,6,2,6.72,1.28l2.18-3a1.71,1.71,0,0,1,2.08-.48l2.44,1.9a1.51,1.51,0,0,1,.63,1.79l-2,3.45c-.48.86-1.14,2.4,1.27,4.33,0,0,1.8,1.43,2.76,1.31l4-.72a1.51,1.51,0,0,1,1.37,1l.66,3.28a1.16,1.16,0,0,1-1,1.3h0L300,68.63c-1.94.56-1.89,3.18-2.15,3.78a2.48,2.48,0,0,0,1,2.68l3.31,2.34a1.85,1.85,0,0,1,.19,1.95l-1.72,2.91a2.09,2.09,0,0,1-1.95.19l-3.62-1.73c-1.2-.58-2.2-.72-4.31,1.29-.62.4-1.2.94-.85,2.56l.37,3.89a1.51,1.51,0,0,1-1,1.37l-3.28.66a1.51,1.51,0,0,1-1.51-.72l-1.13-3.86c-.47-1.34-6.11-2.1-6.7-1.36L274.3,87.9a1.83,1.83,0,0,1-1.93.19l-2.58-1.59a1.51,1.51,0,0,1-.63-1.79l2-3.48c.47-.85-2.19-5.71-4-5.58Z"/>
      <circle class="cls-6" cx="282.92" cy="68.88" r="8" transform="translate(86.98 284.28) rotate(-61.39)"/>
    </g>
  </g>
</svg>
