<svg xmlns="http://www.w3.org/2000/svg" viewBox="0 0 400 140">
  <defs>
    <style>
      .cls-1, .cls-5 {
        fill: #fff;
      }

      .cls-1 {
        stroke: #bad80a;
      }

      .cls-1, .cls-3 {
        stroke-miterlimit: 10;
        stroke-width: 2px;
      }

      .cls-2 {
        fill: #80def9;
      }

      .cls-3 {
        fill: #fcfcfc;
        stroke: #556a8a;
      }

      .cls-4 {
        fill: #556a8a;
      }

      .cls-6 {
        fill: #e5e5e5;
      }

      .cls-7 {
        fill: #aae9fb;
      }

      .cls-8 {
        fill: #999;
      }

      .cls-9 {
        fill: #acacac;
      }
    </style>
  </defs>
  <title>bcs-partner-advanced-management-intune-1</title>
  <g id="ICONS">
    <path class="cls-1" d="M178,50.13v-.58a23.51,23.51,0,0,0-.76-5.84,21.14,21.14,0,0,0-34.74-15C137.32,22.22,130.77,19,122,19c-15.47,0-27.14,13.5-27.4,28.71,0,1,.26,1.84.26,2.88C86.72,54.53,82,61.34,82,70c0,12.37,9.73,22.28,22.62,23,1.19,8.59,8.88,16.56,22.07,16.56,11.12,0,17.76.9,25.87-8.23a27.34,27.34,0,0,0,12.94,3.53c15.59,0,28.23-13.81,28.23-29.4A28.22,28.22,0,0,0,178,50.13Z"/>
    <g>
      <path class="cls-2" d="M299.79,74.62a.06.06,0,0,1-.06-.05,32.53,32.53,0,0,0-64.2-1.07.06.06,0,0,1-.1,0A22.14,22.14,0,0,0,200,84.79a.06.06,0,0,1-.07,0A19.3,19.3,0,0,0,176,104.52C176.48,115,185.51,123,196,123h108.3c11-2.25,19.35-12.49,19.35-24.2A24.19,24.19,0,0,0,299.79,74.62Z"/>
      <g>
        <rect class="cls-3" x="152" y="33" width="103" height="76" rx="4" ry="4"/>
        <path class="cls-4" d="M259.86,114H147.38c-3.77,0-4.38-2-4.38-2H264A4.86,4.86,0,0,1,259.86,114Z"/>
        <polygon class="cls-4" points="142.9 112 151.7 106 254 106 263.9 112 142.9 112"/>
        <polygon class="cls-5" points="147 112 152.32 108 253.44 108 259 112 147 112"/>
        <rect class="cls-6" x="157" y="39" width="93" height="59"/>
      </g>
    </g>
    <g>
      <rect class="cls-3" x="128" y="60" width="33" height="61" rx="4" ry="4"/>
      <rect class="cls-7" x="132" y="68" width="25" height="44"/>
      <path class="cls-8" d="M149.19,66h-8.38a1,1,0,0,1,0-2h8.38a1,1,0,0,1,0,2Z"/>
      <path class="cls-8" d="M146.68,117h-3.35c-.18,0-.32-.45-.32-1s.15-1,.32-1h3.35c.18,0,.32.45.32,1S146.85,117,146.68,117Z"/>
    </g>
    <polygon class="cls-9" points="204.5 104.05 201.2 103.59 201.2 101.42 204.5 100.75 204.5 104.05"/>
    <g id="Layer_80" data-name="Layer 80">
      <g>
        <polygon class="cls-4" points="219.91 80.22 227.25 74.87 219.91 69.53 219.91 80.22"/>
        <polygon class="cls-4" points="219.91 80.58 227.25 74.87 219.91 69.17 219.91 80.58"/>
        <path class="cls-4" d="M222,77V73H175V47h42V57h3V46a2.26,2.26,0,0,0-2.23-2H173.58c-1.07,0-2.58.94-2.58,2V74.52A3.11,3.11,0,0,0,173.58,77H191c.07,5,0,6.43-11,6.43V86h31V83.43c-11,0-10.76-1.43-10.69-6.43Z"/>
        <path class="cls-4" d="M231.32,59H199.88a4.35,4.35,0,0,0-4.21-3,4.46,4.46,0,1,0,0,8.91c1.92,0,3.56-1.87,4.21-2.87H230V89H217V78h-4V91.27A1.85,1.85,0,0,0,214.92,93h16.39A1.64,1.64,0,0,0,233,91.27v-31C233,59.26,232.32,59,231.32,59ZM225,91h-4V90h4Z"/>
      </g>
    </g>
  </g>
</svg>
