<svg id="ICONS" xmlns="http://www.w3.org/2000/svg" viewBox="0 0 400 140">
  <defs>
    <style>
      .cls-1, .cls-3 {
        fill: #fff;
      }

      .cls-1, .cls-11, .cls-6 {
        stroke: #556a8a;
      }

      .cls-1 {
        stroke-linecap: round;
        stroke-linejoin: round;
      }

      .cls-1, .cls-11, .cls-5 {
        stroke-width: 2px;
      }

      .cls-10, .cls-2 {
        fill: #aae9fb;
      }

      .cls-4 {
        fill: #e5e5e5;
      }

      .cls-11, .cls-5, .cls-6 {
        fill: none;
      }

      .cls-5 {
        stroke: #2bc7f4;
      }

      .cls-11, .cls-5, .cls-6, .cls-9 {
        stroke-miterlimit: 10;
      }

      .cls-6 {
        stroke-width: 3px;
      }

      .cls-7 {
        fill: #556a8a;
      }

      .cls-8 {
        fill: #3a96dd;
      }

      .cls-10, .cls-8, .cls-9 {
        fill-rule: evenodd;
      }

      .cls-9 {
        fill: #80def9;
        stroke: #aae9fb;
      }
    </style>
  </defs>
  <title>bcs-partner-advanced-management-technical-support-4</title>
  <path class="cls-1" d="M170.6,47.47V47a20,20,0,0,0-.65-5,18,18,0,0,0-29.54-12.77C136,23.73,130.46,21,123,21c-13.15,0-23.08,11.48-23.3,24.41,0,.89.22,1.56.22,2.45C93,51.21,89,57,89,64.36c0,10.52,8.27,18.94,19.23,19.56,1,7.3,7.55,14.08,18.77,14.08,9.46,0,15.1.76,22-7a23.25,23.25,0,0,0,11,3c13.25,0,24-11.75,24-25A24,24,0,0,0,170.6,47.47Z"/>
  <path class="cls-2" d="M260,62.7a40,40,0,0,0-79.18-1.27A27,27,0,0,0,163.35,55,27.36,27.36,0,0,0,137,75.46a23.6,23.6,0,0,0-5.67-.71,24.13,24.13,0,0,0,0,48.25H265.59c13.62-2.79,23.87-15.57,23.87-30.16A30,30,0,0,0,260,62.7Z"/>
  <circle class="cls-3" cx="218.34" cy="70.2" r="43.2"/>
  <path class="cls-4" d="M262,70.2c0,23.86-19.7,43.2-44,43.2V27C242.3,27,262,46.34,262,70.2Z"/>
  <circle class="cls-5" cx="218.34" cy="70.2" r="43.2"/>
  <g>
    <path class="cls-6" d="M196.41,65.45V63.11a21.11,21.11,0,1,1,42.21,0v2.35"/>
    <path class="cls-7" d="M229,63.28V82h8.1c2.27-.78,4.86-4,4.86-6.41V63.28Z"/>
    <path class="cls-7" d="M206,64V82.72h-8.1c-2.27-.78-4.86-4-4.86-6.41V64Z"/>
    <path class="cls-6" d="M200.32,81.09s-1.56,17.2,12.51,15.63"/>
    <rect class="cls-7" x="212" y="91" width="16" height="10" rx="3" ry="3"/>
  </g>
  <g>
    <g>
      <polygon class="cls-8" points="148.23 105.66 168.58 86 159 86 159 37 138 37 138 86 128 86 148.23 105.66 148.23 105.66 148.23 105.66"/>
      <polygon class="cls-9" points="141.5 87.38 141.5 87.38 141.5 37 141.5 56.38 141.5 87.38 141.5 87.38"/>
      <polygon class="cls-9" points="148.5 98.14 148.5 98.14 148.5 37 148.5 67.14 148.5 98.14 148.5 98.14"/>
      <polygon class="cls-9" points="155.5 89.38 155.5 89.38 155.5 37 155.5 56.38 155.5 89.38 155.5 89.38"/>
      <polygon class="cls-10" points="141.5 90 145 86 138 86 141.5 90"/>
      <polygon class="cls-10" points="155.5 93 160 87 151 87 155.5 93"/>
    </g>
    <polygon class="cls-10" points="148.5 102 153 97 144 97 148.5 102"/>
  </g>
  <path class="cls-11" d="M174,94v16a1.9,1.9,0,0,1-1.77,2H123.77a1.9,1.9,0,0,1-1.77-2V94"/>
</svg>
