<svg id="ICONS" xmlns="http://www.w3.org/2000/svg" viewBox="0 0 400 140">
  <defs>
    <style>
      .cls-1, .cls-6, .cls-7 {
        fill: none;
      }

      .cls-1, .cls-10, .cls-11, .cls-2, .cls-7 {
        stroke: #556a8a;
      }

      .cls-1, .cls-10, .cls-11, .cls-2, .cls-6, .cls-7 {
        stroke-miterlimit: 10;
        stroke-width: 2px;
      }

      .cls-1 {
        stroke-dasharray: 3 3;
      }

      .cls-2, .cls-8 {
        fill: #fff;
      }

      .cls-3 {
        fill: #80def9;
      }

      .cls-4 {
        fill: #2bc7f4;
      }

      .cls-5 {
        fill: #9273b6;
      }

      .cls-6 {
        stroke: #fff;
        fill-rule: evenodd;
      }

      .cls-9 {
        fill: #e5e5e5;
      }

      .cls-10 {
        fill: #e6e7e8;
      }

      .cls-11 {
        fill: #aae9fb;
      }
    </style>
  </defs>
  <title>bcs-partner-advanced-management-setup-1</title>
  <g>
    <line class="cls-1" x1="76" y1="70" x2="337" y2="70"/>
    <rect class="cls-2" x="39" y="20" width="53" height="100" rx="4" ry="4"/>
    <rect class="cls-3" x="44" y="32" width="43" height="72"/>
    <path class="cls-4" d="M72.64,29H60.07a1.53,1.53,0,0,1,0-3H72.64a1.53,1.53,0,0,1,0,3Z"/>
    <circle class="cls-4" cx="84.5" cy="111.5" r="2.5"/>
    <circle class="cls-4" cx="46.5" cy="111.5" r="2.5"/>
    <rect class="cls-4" x="58" y="111" width="15" height="3" rx="1" ry="1"/>
  </g>
  <g>
    <path class="cls-2" d="M118.11,72.63l4.47.67a17.31,17.31,0,0,0,.46,3l-3.69,2.38a1.17,1.17,0,0,0-.66,1.59L119.8,83a1,1,0,0,0,1.43.49l4.49-.94L127.14,85l-2.58,3.5a1.19,1.19,0,0,0,0,1.6l2.22,2.26a1.44,1.44,0,0,0,1.6,0l3.53-2.53c.8.48,1.76,1.12,2.55,1.61l-1,4.47a1.1,1.1,0,0,0,.62,1.29l2.72,1.13a1,1,0,0,0,1.45-.46l2.43-4a9.35,9.35,0,0,0,2.87.67l.61,4.48a1.1,1.1,0,0,0,1.11,1.13l3-.15c.48.16,1-.32,1.12-.79l.84-4.64a9.64,9.64,0,0,0,2.88-.61l2.38,4a1.59,1.59,0,0,0,1.43.49l2.89-1.26a1.09,1.09,0,0,0,.65-1.27l-1.1-4.34a5.66,5.66,0,0,0,.62-.42c.13-.09.27-.19.4-.3.47-.35.94-.74,1.4-1l3.66,2.74a1,1,0,0,0,1.44-.15l1.34-1.32.75-.75,0,0a1,1,0,0,0,.14-1.41l-2.69-3.7a13.13,13.13,0,0,0,1.78-2.71l4.46,1.3A1.42,1.42,0,0,0,174.2,83l1.13-2.72a1.39,1.39,0,0,0-.62-1.6l-3.83-2.27c.33-1,.33-1.92.66-2.87L176,73a1.42,1.42,0,0,0,1-1.28V68.83a1.36,1.36,0,0,0-.93-1.29L171.42,67a18.27,18.27,0,0,0-.61-3.21l4-2.37a1,1,0,0,0,.5-1.44l-1.11-2.72a1.49,1.49,0,0,0-1.43-.81l-4.5,1.25c-.47-.8-.94-1.61-1.42-2.41l2.75-3.66a1.48,1.48,0,0,0-.16-1.44L167.23,48a1.2,1.2,0,0,0-1.43-.17l-3.7,2.71c-.8-.5-1.75-1.14-2.55-1.62l1-4.48a1.07,1.07,0,0,0-.62-1.28L157,41.82a1.38,1.38,0,0,0-1.45.47l-2.26,3.84c-1,0-1.92-.33-2.88-.35L150,41.14a1.4,1.4,0,0,0-1.28-1l-3-.18a1.87,1.87,0,0,0-1.12,1.1l-.68,4.49c-1.12.15-2.08.47-3.2.61l-2.21-3.85a1.11,1.11,0,0,0-1.44-.49L134.32,43a1.3,1.3,0,0,0-.82,1.43l1.1,4.33a10.34,10.34,0,0,0-2.41,1.75l-3.67-2.75a1.07,1.07,0,0,0-1.61,0L125,49.63l-.17.16a1.09,1.09,0,0,0,0,1.6l2.69,3.7a7.16,7.16,0,0,0-1.37,1.85l-.12.22c-.1.2-.2.41-.29.63l-4.47-1.3a1.09,1.09,0,0,0-1.28.62L118.68,60a1.63,1.63,0,0,0,.47,1.45l4,2.42a7.93,7.93,0,0,0-.51,2.72l-4.65.76c-.47.17-1,.64-1,1l0,3.2A1.08,1.08,0,0,0,118.11,72.63Z"/>
    <path class="cls-5" d="M133.16,64.3A15,15,0,1,1,132,70.15,14.82,14.82,0,0,1,133.16,64.3Z"/>
    <polyline class="cls-6" points="136.24 70.26 143.99 78.01 158.24 63.76"/>
  </g>
  <g>
    <rect class="cls-7" x="221" y="36" width="27" height="36" rx="12" ry="12"/>
    <path class="cls-8" d="M257,60V92a2,2,0,0,1-2,2H215a2,2,0,0,1-2-2V60a2,2,0,0,1,2-2H255A2,2,0,0,1,257,60Z"/>
    <path class="cls-9" d="M257,60V91L224,58h31A2,2,0,0,1,257,60Z"/>
    <path class="cls-7" d="M257,92a2,2,0,0,1-2,2H215a2,2,0,0,1-2-2V60a2,2,0,0,1,2-2H255a2,2,0,0,1,2,2Z"/>
  </g>
  <circle class="cls-2" cx="329.38" cy="71" r="32"/>
  <g>
    <g>
      <circle class="cls-10" cx="316.63" cy="59.5" r="7.5"/>
      <path class="cls-10" d="M305.13,78a11.51,11.51,0,0,1,23,0"/>
    </g>
    <g>
      <circle class="cls-10" cx="342.13" cy="59.5" r="7.5"/>
      <path class="cls-10" d="M330.63,78a11.51,11.51,0,0,1,23,0"/>
    </g>
    <g>
      <circle class="cls-11" cx="328.63" cy="73.5" r="7.5"/>
      <path class="cls-11" d="M317.13,92a11.51,11.51,0,0,1,23,0"/>
    </g>
  </g>
</svg>
