<svg xmlns="http://www.w3.org/2000/svg" viewBox="0 0 400 140">
  <defs>
    <style>
      .cls-1 {
        fill: #80def9;
        opacity: 0.7;
      }

      .cls-10, .cls-2, .cls-6 {
        fill: none;
      }

      .cls-2, .cls-6, .cls-7, .cls-8 {
        stroke: #556a8a;
      }

      .cls-12, .cls-2, .cls-6, .cls-7, .cls-8 {
        stroke-miterlimit: 10;
      }

      .cls-10, .cls-12, .cls-2, .cls-6, .cls-7, .cls-8 {
        stroke-width: 2px;
      }

      .cls-2 {
        stroke-dasharray: 3 3;
      }

      .cls-3 {
        fill: #556a8a;
      }

      .cls-12, .cls-4, .cls-8 {
        fill: #fff;
      }

      .cls-5 {
        fill: #bad80a;
      }

      .cls-15, .cls-7 {
        fill: #e5e5e5;
      }

      .cls-9 {
        fill: #ffc52b;
      }

      .cls-10 {
        stroke: #fff;
        stroke-linecap: round;
        stroke-linejoin: round;
        fill-rule: evenodd;
      }

      .cls-11 {
        fill: #2bc7f4;
      }

      .cls-12 {
        stroke: #00bcf2;
      }

      .cls-13 {
        fill: #ff9f2b;
      }

      .cls-14 {
        fill: #ff8c00;
      }
    </style>
  </defs>
  <title>bcs-partner-get-started-1</title>
  <g id="ICONS">
    <path class="cls-1" d="M264.1,55.27A39.37,39.37,0,0,0,186.39,54a26.79,26.79,0,0,0-43,13.62,23.42,23.42,0,1,0-5.56,46.16H269.57C282.94,111.1,293,98.7,293,84.54A29.27,29.27,0,0,0,264.1,55.27Z"/>
    <g>
      <polyline class="cls-2" points="136 96.22 220.03 96 220 51.82 269 51.82 269 95 337.83 95"/>
      <polygon class="cls-3" points="331.2 103.18 329.84 101.72 337.06 95 329.84 88.29 331.2 86.82 340 95 331.2 103.18"/>
    </g>
    <g>
      <polygon class="cls-4" points="198.2 77 235 77 228.6 97 203.18 97 198.2 77"/>
      <polygon class="cls-5" points="198.2 77 235 77 232.6 84 199.8 84 198.2 77"/>
      <polyline class="cls-6" points="198.2 77 235 77 228.92 97 203.07 97 195.46 69 188 69"/>
      <polyline class="cls-6" points="201.63 91.73 204.98 103 231 103"/>
      <circle class="cls-7" cx="210" cy="107" r="4"/>
      <circle class="cls-7" cx="224" cy="107" r="4"/>
    </g>
    <g>
      <path class="cls-8" d="M239.89,51.39l3.58.54a13.85,13.85,0,0,0,.37,2.43l-3,1.9a.94.94,0,0,0-.53,1.27l.89,2.18a.81.81,0,0,0,1.14.39l3.59-.75,1.14,1.94L245,64.09a1,1,0,0,0,0,1.28l1.78,1.81a1.16,1.16,0,0,0,1.28,0l2.82-2c.64.38,1.41.9,2,1.29L252.18,70a.88.88,0,0,0,.5,1l2.18.9a.82.82,0,0,0,1.16-.37l1.94-3.2a7.48,7.48,0,0,0,2.3.54l.49,3.58a.88.88,0,0,0,.89.9l2.43-.12c.38.13.78-.26.9-.63l.67-3.71a7.72,7.72,0,0,0,2.3-.49l1.9,3.2a1.27,1.27,0,0,0,1.14.39l2.31-1a.87.87,0,0,0,.52-1l-.88-3.47a4.53,4.53,0,0,0,.5-.34l.32-.24c.38-.28.75-.59,1.12-.82l2.93,2.19a.82.82,0,0,0,1.15-.12L280,66.18l.6-.6,0,0a.83.83,0,0,0,.11-1.13l-2.15-3A10.5,10.5,0,0,0,280,59.31l3.57,1a1.13,1.13,0,0,0,1.17-.62l.9-2.18a1.11,1.11,0,0,0-.5-1.28l-3.06-1.82c.26-.76.26-1.54.53-2.3l3.58-.49a1.13,1.13,0,0,0,.78-1v-2.3a1.09,1.09,0,0,0-.74-1l-3.72-.41a14.61,14.61,0,0,0-.49-2.57l3.21-1.9a.81.81,0,0,0,.4-1.15l-.89-2.18a1.19,1.19,0,0,0-1.14-.65l-3.6,1c-.38-.64-.75-1.29-1.14-1.93l2.2-2.93a1.18,1.18,0,0,0-.13-1.15l-1.78-1.81a1,1,0,0,0-1.14-.14l-3,2.17c-.64-.4-1.4-.91-2-1.3l.78-3.58a.86.86,0,0,0-.5-1l-2.3-1a1.1,1.1,0,0,0-1.16.38l-1.81,3.07c-.77,0-1.54-.26-2.3-.28l-.35-3.71a1.12,1.12,0,0,0-1-.77L262,25.29a1.5,1.5,0,0,0-.9.88l-.54,3.59c-.9.12-1.66.38-2.56.49l-1.77-3.08a.89.89,0,0,0-1.15-.39l-2.18.89a1,1,0,0,0-.66,1.14l.88,3.46a8.27,8.27,0,0,0-1.93,1.4l-2.94-2.2a.86.86,0,0,0-1.29,0L245.39,33l-.14.13a.87.87,0,0,0,0,1.28l2.15,3a5.73,5.73,0,0,0-1.1,1.48l-.1.18c-.08.16-.16.33-.23.5l-3.58-1a.87.87,0,0,0-1,.5l-1,2.3a1.3,1.3,0,0,0,.38,1.16l3.19,1.94a6.34,6.34,0,0,0-.41,2.18l-3.72.61c-.38.14-.77.51-.77.78l0,2.56A.86.86,0,0,0,239.89,51.39Z"/>
      <circle class="cls-9" cx="263" cy="49.35" r="12"/>
      <polyline class="cls-10" points="254.5 49.82 260.5 55.82 270.5 44.82"/>
    </g>
    <circle class="cls-11" cx="310" cy="95" r="6"/>
    <circle class="cls-11" cx="182" cy="95" r="6"/>
    <circle class="cls-11" cx="220" cy="53" r="6"/>
    <path class="cls-12" d="M150.51,60.83v-.6a24.19,24.19,0,0,0-.78-6A21.75,21.75,0,0,0,114,38.78c-5.29-6.66-12-10-21.06-10C77,28.8,65,42.69,64.72,58.34c0,1.08.27,1.89.27,3-8.36,4-13.22,11.06-13.22,20,0,12.73,10,22.92,23.27,23.67,1.22,8.83,9.14,17,22.71,17,11.45,0,18.27.93,26.62-8.47a28.13,28.13,0,0,0,13.31,3.63c16,0,29-14.21,29-30.25A29,29,0,0,0,150.51,60.83Z"/>
    <g>
      <g>
        <g>
          <path class="cls-13" d="M96.73,96.37c-.89.29-1.84.56-2.83.83C99.84,72.54,111.55,77,111.55,77l1.91,1.81.07.23C113.94,80.68,115.53,90.41,96.73,96.37Z"/>
          <path class="cls-14" d="M96.73,96.37c5.81-20.31,15.79-17.66,16.8-17.33C113.94,80.68,115.53,90.41,96.73,96.37Z"/>
          <polygon class="cls-3" points="114.46 83.7 106.16 75.4 112.8 73.74 115.91 76.87 114.46 83.7"/>
        </g>
        <polygon class="cls-3" points="116.11 65.31 93.7 64.48 90.38 61.16 109.47 52.03 117.45 55.03 116.11 65.31"/>
        <polygon class="cls-3" points="125.6 72.08 126.43 94.5 129.75 97.82 138.88 78.72 135.89 70.74 125.6 72.08"/>
        <g>
          <path class="cls-4" d="M121.13,82h-.25l-.2-.18L108.85,69.45l0-.29a49,49,0,0,1,13.44-23.81C133.08,34.67,158.12,30.17,159.18,30l.82-.14-.14.82s-.44,2.61-1.33,6.4c-2.44,10.26-6.81,24-13.77,31C133.91,78.93,122.12,82,121.13,82Z"/>
          <path class="cls-15" d="M157.89,38.52c-2,8.35-6.29,22.81-13.62,30.17-10.82,10.9-22.6,13.16-23.21,13.28l-6.6-6.6s2.1-12.12,13.29-23.25C135.1,44.81,149.53,40.5,157.89,38.52Z"/>
          <path class="cls-11" d="M138,36.37l1.07-.39a122.11,122.11,0,0,1,19.75-5.32l1-.17-.17,1a122.35,122.35,0,0,1-5.32,19.75l-.39,1.07Z"/>
          <path class="cls-6" d="M121.13,82h-.25l-.2-.18L108.85,69.45l0-.29a49,49,0,0,1,13.44-23.81C133.08,34.67,158.12,30.17,159.18,30l.82-.14-.14.82s-.44,2.61-1.33,6.4c-2.44,10.26-6.81,24-13.77,31C133.91,78.93,122.12,82,121.13,82Z"/>
        </g>
      </g>
      <circle class="cls-8" cx="132.81" cy="56.56" r="6"/>
    </g>
  </g>
</svg>
