<svg xmlns="http://www.w3.org/2000/svg" viewBox="0 0 400 140">
  <defs>
    <style>
      .cls-1 {
        fill: #80def9;
        opacity: 0.7;
      }

      .cls-10, .cls-2 {
        fill: none;
      }

      .cls-10, .cls-11, .cls-2 {
        stroke: #556a8a;
      }

      .cls-10, .cls-11, .cls-2, .cls-4 {
        stroke-miterlimit: 10;
        stroke-width: 2px;
      }

      .cls-2 {
        stroke-dasharray: 3 3;
      }

      .cls-3 {
        fill: #556a8a;
      }

      .cls-11, .cls-4, .cls-7 {
        fill: #fff;
      }

      .cls-4 {
        stroke: #00bcf2;
      }

      .cls-5 {
        fill: #ff9f2b;
      }

      .cls-6 {
        fill: #ff8c00;
      }

      .cls-8 {
        fill: #e5e5e5;
      }

      .cls-9 {
        fill: #2bc7f4;
      }

      .cls-12 {
        fill: #008272;
      }
    </style>
  </defs>
  <title>bcs-user-management-add-customer-1</title>
  <g id="ICONS">
    <path class="cls-1" d="M142.81,117.84a27.43,27.43,0,0,1,0-54.85,26.16,26.16,0,0,1,2.87.16A30.78,30.78,0,0,1,188.9,47.57a43.37,43.37,0,0,1,83.57,3.94A33.42,33.42,0,0,1,302,84.56c0,16.11-11.2,30.07-26.63,33.2l-.39.08Z"/>
    <g>
      <polyline class="cls-2" points="158.67 87.27 198.08 87.05 237.72 44.49 316.18 44.13"/>
      <polygon class="cls-3" points="309.59 52.34 308.22 50.88 315.41 44.13 308.16 37.45 309.51 35.98 318.35 44.12 309.59 52.34"/>
    </g>
    <path class="cls-4" d="M155.51,63.83v-.6a24.19,24.19,0,0,0-.78-6A21.75,21.75,0,0,0,119,41.78c-5.29-6.66-12-10-21.06-10C82,31.8,70,45.69,69.72,61.34c0,1.08.27,1.89.27,3-8.36,4-13.22,11.06-13.22,20,0,12.73,10,22.92,23.27,23.67,1.22,8.83,9.14,17,22.71,17,11.45,0,18.27.93,26.62-8.47a28.13,28.13,0,0,0,13.31,3.63c16,0,29-14.21,29-30.25A29,29,0,0,0,155.51,63.83Z"/>
    <g>
      <g>
        <g>
          <path class="cls-5" d="M101.73,99.37c-.89.29-1.84.56-2.83.83C104.84,75.54,116.55,80,116.55,80l1.91,1.81.07.23C118.94,83.68,120.53,93.41,101.73,99.37Z"/>
          <path class="cls-6" d="M101.73,99.37c5.81-20.31,15.79-17.66,16.8-17.33C118.94,83.68,120.53,93.41,101.73,99.37Z"/>
          <polygon class="cls-3" points="119.46 86.7 111.16 78.4 117.8 76.74 120.91 79.87 119.46 86.7"/>
        </g>
        <polygon class="cls-3" points="121.11 68.31 98.7 67.48 95.38 64.16 114.47 55.03 122.45 58.03 121.11 68.31"/>
        <polygon class="cls-3" points="130.6 75.08 131.43 97.5 134.75 100.82 143.88 81.72 140.89 73.74 130.6 75.08"/>
        <g>
          <path class="cls-7" d="M126.13,85h-.25l-.2-.18L113.85,72.45l0-.29a49,49,0,0,1,13.44-23.81C138.08,37.67,163.12,33.17,164.18,33l.82-.14-.14.82s-.44,2.61-1.33,6.4c-2.44,10.26-6.81,24-13.77,31C138.91,81.93,127.12,85,126.13,85Z"/>
          <path class="cls-8" d="M162.89,41.52c-2,8.35-6.29,22.81-13.62,30.17-10.82,10.9-22.6,13.16-23.21,13.28l-6.6-6.6s2.1-12.12,13.29-23.25C140.1,47.81,154.53,43.5,162.89,41.52Z"/>
          <path class="cls-9" d="M143,39.37l1.07-.39a122.11,122.11,0,0,1,19.75-5.32l1-.17-.17,1a122.35,122.35,0,0,1-5.32,19.75l-.39,1.07Z"/>
          <path class="cls-10" d="M126.13,85h-.25l-.2-.18L113.85,72.45l0-.29a49,49,0,0,1,13.44-23.81C138.08,37.67,163.12,33.17,164.18,33l.82-.14-.14.82s-.44,2.61-1.33,6.4c-2.44,10.26-6.81,24-13.77,31C138.91,81.93,127.12,85,126.13,85Z"/>
        </g>
      </g>
      <circle class="cls-11" cx="137.81" cy="59.56" r="6"/>
    </g>
    <g>
      <circle class="cls-11" cx="231.39" cy="48.89" r="25"/>
      <g>
        <circle class="cls-4" cx="231.75" cy="40.41" r="8.44"/>
        <path class="cls-4" d="M218.25,62.34a13.5,13.5,0,1,1,27,0"/>
      </g>
    </g>
    <g>
      <circle class="cls-4" cx="198.08" cy="87.37" r="13"/>
      <rect class="cls-12" x="196.13" y="78.27" width="3.9" height="18.2"/>
      <rect class="cls-12" x="196.13" y="78.27" width="3.9" height="18.2" transform="translate(110.71 285.45) rotate(-90)"/>
    </g>
    <path class="cls-4" d="M302.43,79.92v-.31a12.41,12.41,0,0,0-.4-3.08,11.16,11.16,0,0,0-18.35-7.93,12.92,12.92,0,0,0-10.81-5.12c-8.17,0-14.33,7.13-14.47,15.16,0,.55.14,1,.14,1.52-4.29,2.08-6.78,5.68-6.78,10.25a12.27,12.27,0,0,0,11.95,12.15c.63,4.53,4.69,8.75,11.65,8.75,5.87,0,9.38.47,13.66-4.35a14.44,14.44,0,0,0,6.83,1.86c8.23,0,14.91-7.29,14.91-15.53A14.9,14.9,0,0,0,302.43,79.92Z"/>
  </g>
</svg>
