<svg id="ICONS" xmlns="http://www.w3.org/2000/svg" viewBox="0 0 400 140">
  <defs>
    <style>
      .cls-1, .cls-8 {
        fill: none;
        stroke-miterlimit: 10;
        stroke-width: 2px;
      }

      .cls-1 {
        stroke: #d1d3d4;
        stroke-dasharray: 3 3;
      }

      .cls-2 {
        fill: #80def9;
      }

      .cls-3 {
        fill: #aae9fb;
      }

      .cls-4 {
        fill: #556a8a;
      }

      .cls-5 {
        fill: #bad80a;
      }

      .cls-6 {
        fill: #c6df33;
      }

      .cls-7 {
        fill: #00bcf2;
      }

      .cls-8 {
        stroke: #556a8a;
      }
    </style>
  </defs>
  <title>bcs-information-product-help-office</title>
  <g>
    <ellipse class="cls-1" cx="200" cy="71" rx="133" ry="39"/>
    <g>
      <circle class="cls-2" cx="201" cy="29" r="16" transform="translate(38.37 150.62) rotate(-45)"/>
      <path class="cls-3" d="M212.31,17.69a16,16,0,0,1,0,22.62L189.69,17.69A16,16,0,0,1,212.31,17.69Z"/>
    </g>
    <g>
      <circle class="cls-2" cx="131" cy="39" r="16" transform="translate(10.79 104.05) rotate(-45)"/>
      <path class="cls-3" d="M142.31,27.69a16,16,0,0,1,0,22.62L119.69,27.69A16,16,0,0,1,142.31,27.69Z"/>
    </g>
    <g>
      <circle class="cls-2" cx="274" cy="39" r="16" transform="translate(52.68 205.17) rotate(-45)"/>
      <path class="cls-3" d="M285.31,27.69a16,16,0,0,1,0,22.62L262.69,27.69A16,16,0,0,1,285.31,27.69Z"/>
    </g>
    <g>
      <circle class="cls-2" cx="68" cy="67" r="16" transform="translate(-27.46 67.71) rotate(-45)"/>
      <path class="cls-3" d="M79.31,55.69a16,16,0,0,1,0,22.62L56.69,55.69A16,16,0,0,1,79.31,55.69Z"/>
    </g>
    <g>
      <circle class="cls-2" cx="332" cy="67" r="16" transform="translate(49.86 254.38) rotate(-45)"/>
      <path class="cls-3" d="M343.31,55.69a16,16,0,0,1,0,22.62L320.69,55.69A16,16,0,0,1,343.31,55.69Z"/>
    </g>
  </g>
  <path class="cls-4" d="M68.12,75.89v2.86H66.75V76a8.27,8.27,0,0,1-4.56-1.13V72.57a6.17,6.17,0,0,0,2.09,1.13,7.63,7.63,0,0,0,2.47.46V67.4A10.34,10.34,0,0,1,63,64.83a4.89,4.89,0,0,1,.45-6.09,5.41,5.41,0,0,1,3.31-1.67V54.7h1.37V57a7.3,7.3,0,0,1,3.57.74V60a6,6,0,0,0-3.57-1.13v7a11.22,11.22,0,0,1,3.75,2.52,4.24,4.24,0,0,1,1,2.78,4.3,4.3,0,0,1-1.26,3.14A6.12,6.12,0,0,1,68.12,75.89ZM66.75,65.08V58.94a3,3,0,0,0-1.75,1,2.74,2.74,0,0,0-.65,1.84,3.08,3.08,0,0,0,.53,1.86A5.68,5.68,0,0,0,66.75,65.08Zm1.37,3v6q2.54-.55,2.54-2.74Q70.67,69.49,68.12,68.09Z"/>
  <path class="cls-4" d="M199.23,33.78a6.71,6.71,0,0,1-.25-1.05,7.7,7.7,0,0,1-.11-1.29,4,4,0,0,1,.4-1.8,7.47,7.47,0,0,1,1-1.51,15,15,0,0,1,1.3-1.35q.7-.65,1.3-1.31a7.5,7.5,0,0,0,1-1.39,3.28,3.28,0,0,0,.4-1.6,2.94,2.94,0,0,0-.29-1.33,2.81,2.81,0,0,0-.79-1,3.47,3.47,0,0,0-1.16-.59,4.86,4.86,0,0,0-1.39-.2A6.06,6.06,0,0,0,196,21.47V18.72a9.19,9.19,0,0,1,5-1.5,7.79,7.79,0,0,1,2.23.31,5.51,5.51,0,0,1,1.84.93A4.38,4.38,0,0,1,206.31,20a4.8,4.8,0,0,1,.45,2.14,5,5,0,0,1-.41,2.06,7.45,7.45,0,0,1-1,1.66A13.21,13.21,0,0,1,204,27.28q-.72.66-1.34,1.3a7.15,7.15,0,0,0-1,1.35,3,3,0,0,0-.41,1.55,4.62,4.62,0,0,0,.17,1.3,9.19,9.19,0,0,0,.34,1Zm1.41,6.5a1.73,1.73,0,0,1-1.22-.5,1.63,1.63,0,0,1-.52-1.22,1.6,1.6,0,0,1,.52-1.22,1.7,1.7,0,0,1,2.44,0,1.6,1.6,0,0,1,.52,1.22,1.63,1.63,0,0,1-.52,1.22A1.73,1.73,0,0,1,200.64,40.28Z"/>
  <g>
    <g id="desk">
      <polygon class="cls-5" points="272.42 113 127.58 113 155.8 88 235.86 88 272.42 113"/>
      <rect class="cls-4" x="127" y="113" width="145" height="8"/>
    </g>
    <polygon class="cls-6" points="272.42 113 270.53 113 171.34 88 235.86 88 272.42 113"/>
    <path class="cls-7" d="M212.59,76.16a17.69,17.69,0,0,1-1,5.92c-2.09,5.86-7.19,10-13.15,10-7.81,0-14.15-7.13-14.15-15.92a16.31,16.31,0,0,1,7.39-14,12.8,12.8,0,0,1,6.76-1.94C206.25,60.23,212.59,67.36,212.59,76.16Z"/>
    <path class="cls-7" d="M224.18,100.42c-1.65-2.34-2.77-4-6.54-4.49-1.73-.23-5.93-.92-6.06-.91l-12-.86v0l-.28,0-.28,0v0L187,95c-.13,0-4.33.68-6.06.91-3.77.51-4.88,2.15-6.54,4.49C172.46,103.1,170.5,130,170.5,130h8l.88-12.47-1-.92,5.31-13.43-2.07,25.41c0,1.2.66,1.41,1.86,1.41h31c1.2,0,2.39-.22,2.39-1.41l-2.07-25.41,5.31,13.43-1,.92,1.1,12.41,8.25.06S226.07,103.1,224.18,100.42Z"/>
    <path id="chair" class="cls-4" d="M177,130V103.49c0-2.74,2.13-5.49,4.74-5.49h34.52c2.61,0,4.74,2.74,4.74,5.49V130Z"/>
  </g>
  <g>
    <path class="cls-8" d="M264.84,37.09v-1a9.08,9.08,0,0,1,18.16,0v1"/>
    <path class="cls-4" d="M280,36v8h3.75A3.54,3.54,0,0,0,286,41.26V36Z"/>
    <path class="cls-4" d="M268,36v8h-3.75A3.54,3.54,0,0,1,262,41.26V36Z"/>
    <path class="cls-8" d="M265.62,42.23s-.67,7.4,5.38,6.73"/>
    <rect class="cls-4" x="271" y="46" width="7" height="6" rx="1.79" ry="1.79"/>
  </g>
  <polygon class="cls-4" points="137.79 34.79 132 40.59 132 26 130 26 130 40.59 124.21 34.79 122.79 36.21 131 44.41 139.21 36.21 137.79 34.79"/>
  <rect class="cls-4" x="123" y="47" width="16" height="2"/>
  <g>
    <polygon class="cls-8" points="342.5 75 321.5 75 332 55 342.5 75"/>
    <polygon class="cls-4" points="331.5 70 332.5 70 333 62 331 62 331.5 70"/>
    <circle class="cls-4" cx="332.02" cy="72.02" r="1"/>
  </g>
</svg>
