<svg id="ICONS" xmlns="http://www.w3.org/2000/svg" viewBox="0 0 400 140">
  <defs>
    <style>
      .cls-1 {
        fill: #556a8a;
      }

      .cls-2 {
        fill: #adbdca;
      }

      .cls-3 {
        fill: #fff;
      }

      .cls-4 {
        fill: #e5e5e5;
      }

      .cls-5, .cls-9 {
        fill: none;
      }

      .cls-5 {
        stroke: #556a8a;
      }

      .cls-5, .cls-8 {
        stroke-miterlimit: 10;
      }

      .cls-5, .cls-8, .cls-9 {
        stroke-width: 2px;
      }

      .cls-6 {
        fill: #ffb900;
      }

      .cls-7 {
        fill: #ffd055;
      }

      .cls-8 {
        fill: #2bc7f4;
        stroke: #00bcf2;
      }

      .cls-9 {
        stroke: #fff;
        stroke-linecap: round;
        stroke-linejoin: round;
      }
    </style>
  </defs>
  <title>bcs-partner-advanced-management-troubleshooting-3</title>
  <g>
    <polygon class="cls-1" points="235.5 128 118.5 128 125.82 120 228.65 120 235.5 128"/>
    <polygon class="cls-2" points="224.5 126 129.5 126 132.84 122 221.26 122 224.5 126"/>
    <polygon class="cls-1" points="203 108 151 108 145 115 209 115 203 108"/>
    <polygon class="cls-1" points="180.5 112.5 173.5 112.5 174.9 98.5 179.1 98.5 180.5 112.5"/>
    <rect class="cls-3" x="101" y="19" width="151" height="82" rx="4" ry="4"/>
    <path class="cls-4" d="M252,23V35H101V23a4,4,0,0,1,4-4H248A4,4,0,0,1,252,23Z"/>
    <rect class="cls-5" x="101" y="19" width="151" height="82" rx="4" ry="4" transform="translate(353 120) rotate(180)"/>
  </g>
  <g>
    <polygon class="cls-6" points="206 88 146 88 176 34 206 88"/>
    <polygon class="cls-7" points="206 88 176 88 176 34 206 88"/>
    <polygon class="cls-1" points="175.13 75 178.23 75 179.26 48 174.1 48 175.13 75"/>
    <circle class="cls-1" cx="176.68" cy="79.6" r="3.5"/>
  </g>
  <path class="cls-1" d="M290.48,73.74,257.26,107l-7.78,7.78-5.06,5a4,4,0,0,1-5.66,0l-4.36-4.36a4,4,0,0,1,0-5.66l5.06-5,7.78-7.78,33.22-33.23a4,4,0,0,1,5.66,0l4.36,4.36A4,4,0,0,1,290.48,73.74Z"/>
  <path class="cls-3" d="M266.43,51.25c0,.66,0,1.31.05,1.95a37,37,0,0,0,74,0c0-.64.05-1.29.05-1.93a37,37,0,0,0-74.07,0Z"/>
  <path class="cls-4" d="M266.43,51.25c0,.66,0,1.31.05,1.95h74c0-.64.05-1.29.05-1.93a37,37,0,0,0-74.07,0Z"/>
  <path class="cls-5" d="M303.48,14.23a37,37,0,1,0,37,37A37.08,37.08,0,0,0,303.48,14.23Z"/>
  <circle class="cls-8" cx="303.3" cy="51.63" r="26.93"/>
  <polyline class="cls-9" points="284.87 53.05 299.05 67.22 323.85 42.42"/>
</svg>
