<svg xmlns="http://www.w3.org/2000/svg" viewBox="0 0 400 140">
  <defs>
    <style>
      .cls-1 {
        fill: #80def9;
      }

      .cls-2 {
        fill: #556a8a;
      }

      .cls-3, .cls-4 {
        fill: #fff;
      }

      .cls-3 {
        stroke: #bad80a;
      }

      .cls-3, .cls-6, .cls-8 {
        stroke-miterlimit: 10;
        stroke-width: 2px;
      }

      .cls-5 {
        fill: #e5e5e5;
      }

      .cls-6, .cls-8 {
        fill: none;
        stroke: #556a8a;
      }

      .cls-7 {
        fill: #d83b01;
      }

      .cls-8 {
        stroke-linecap: round;
      }
    </style>
  </defs>
  <title>bcs-partner-prepare-office-1</title>
  <g id="ICONS">
    <path class="cls-1" d="M328.07,65.17l-8.31-1.58a33.25,33.25,0,0,0-.64-5.72l7.08-4.18a2.18,2.18,0,0,0,1.34-2.93l-1.87-5.18a1.88,1.88,0,0,0-2.65-1L314.58,46l-2.49-4.61L317.18,35a2.25,2.25,0,0,0,.13-3l-4-4.38c-.57-.62-1.77-.67-3-.13L303.51,32c-1.45-1-3.19-2.23-4.64-3.2l2.18-8.29A2.06,2.06,0,0,0,300,18l-5-2.31a1.9,1.9,0,0,0-2.74.77l-4.83,7.29a17.23,17.23,0,0,0-5.33-1.45l-.81-8.42a2.05,2.05,0,0,0-2-2.2l-5.69,0c-.89-.33-1.83.53-2.17,1.4l-1.9,8.61a17.72,17.72,0,0,0-5.44.94L259.94,15a3,3,0,0,0-2.65-1l-5.5,2.15a2,2,0,0,0-1.31,2.33l1.72,8.18c-1.53.83-3.09,2.25-4.64,3.09l-6.65-5.4a1.94,1.94,0,0,0-2.69.18l-2.61,2.38-1.45,1.34,0,0a1.93,1.93,0,0,0-.38,2.63L238.49,38c-1.28,1.74-2.84,3.17-3.52,4.94l-8.26-2.77a2.65,2.65,0,0,0-2.77,1.37l-2.33,5a2.6,2.6,0,0,0,1.07,3l7,4.51c-.69,1.77-.77,3.57-1.45,5.34l-8.42.81a2.63,2.63,0,0,0-1.91,2.31L217.64,68a2.61,2.61,0,0,0,1.67,2.49L228,71.74a34.62,34.62,0,0,0,.91,6l-7.69,4.15a1.9,1.9,0,0,0-1,2.66L222,89.76a2.8,2.8,0,0,0,2.63,1.61l8.48-2L235.62,94l-5.41,6.65a2.83,2.83,0,0,0,.18,2.71l4,4.37a2.26,2.26,0,0,0,2.66.43l7.13-4.78c1.45,1,3.19,2.25,4.64,3.2l-2.17,8.31a2,2,0,0,0,1.08,2.44l5.26,2.65a2.58,2.58,0,0,0,2.74-.78l4.51-7c1.8.08,3.57.77,5.36.85l.49,8.72a2.61,2.61,0,0,0,2.31,1.9l5.68.56a3.6,3.6,0,0,0,2.18-2l1.59-8.32c2.1-.21,3.92-.73,6-.92l3.86,7.37a2.06,2.06,0,0,0,2.66,1l5.17-1.87a2.44,2.44,0,0,0,1.63-2.63l-1.72-8.16a21,21,0,0,0,4.64-3.09l6.65,5.41a2,2,0,0,0,3,.13l3.73-3.41.33-.3a2.11,2.11,0,0,0,.73-1.51,2.06,2.06,0,0,0-.61-1.47l-4.77-7.13a14.75,14.75,0,0,0,3.52-4.93L321,95.13A2,2,0,0,0,323.44,94l2.65-5.28a3,3,0,0,0-.78-2.74L318,81.21a15.06,15.06,0,0,0,1.13-5.05l8.75-1.1c.91-.26,1.85-1.12,1.88-1.72l.27-6A2,2,0,0,0,328.07,65.17Zm-54.62,16a14.35,14.35,0,1,1,14.35-14.35A14.35,14.35,0,0,1,273.44,81.13Z"/>
    <g>
      <polygon class="cls-2" points="205.51 115 160.28 115 155.06 119 210.72 119 205.51 115"/>
      <polygon class="cls-2" points="185.57 115.94 179.47 115.94 180.69 99.75 184.35 99.75 185.57 115.94"/>
      <path class="cls-3" d="M144,61.52v-.59a23.88,23.88,0,0,0-.87-5.9A21.41,21.41,0,0,0,108,39.87c-5.19-6.54-11.83-9.79-20.69-9.79-15.63,0-27.42,13.64-27.69,29,0,1.06.26,1.85.26,2.91-8.21,4-13,10.86-13,19.6,0,12.49,9.83,22.5,22.85,23.24,1.2,8.67,9,16.73,22.29,16.73,11.24,0,17.94.91,26.14-8.32a27.62,27.62,0,0,0,13.07,3.56c15.75,0,28.61-14,28.61-29.7A29.21,29.21,0,0,0,144,61.52Z"/>
      <rect class="cls-4" x="118" y="30" width="132" height="72" rx="4" ry="4" transform="translate(368 132) rotate(180)"/>
      <path class="cls-5" d="M249,46V34.57a4.34,4.34,0,0,0-4.4-4.57H122.4A4.34,4.34,0,0,0,118,34.57V46Z"/>
      <rect class="cls-6" x="118" y="30" width="132" height="72" rx="4" ry="4" transform="translate(368 132) rotate(180)"/>
    </g>
    <polygon class="cls-7" points="200 86 200 86 200 52.83 186.76 49 164.02 57.47 163.9 81.91 172 78.74 172 58.74 188 55.68 188 85.08 164.83 81.91 187 89.91 187 89.91 200.12 86.14 200 86 200 86"/>
    <g>
      <line class="cls-8" x1="90" y1="68" x2="135" y2="68"/>
      <polygon class="cls-2" points="128.7 76.18 127.34 74.72 134.56 68 127.34 61.29 128.7 59.82 137.5 68 128.7 76.18"/>
    </g>
    <g>
      <path class="cls-4" d="M293.7,70.4,298,73.9a3.06,3.06,0,0,1,1.44,3.17c-.74,2.05-1.77,5.08-3.09,5.33l-4.73,1.7A2,2,0,0,0,290,86.32l1.07,4c.28.77.43,1,1.28,1l3-.08,2.7-.09c2.43-.18,6,6.29,5.35,7.42l-2.69,4.65a2,2,0,0,0,.84,2.38l3.44,2.12a2.44,2.44,0,0,0,2.57-.27l3.12-4.39a2.8,2.8,0,0,1,3.27-.85c1.08.1,5,.89,5.63,2.66l1.51,5.15a2,2,0,0,0,2,1l4.37-.87a2,2,0,0,0,1.36-1.83l-.48-5.18c-.48-2.16.29-2.86,1.12-3.41,2.82-2.67,4.14-2.48,5.74-1.72l4.82,2.31a2.76,2.76,0,0,0,2.59-.27l2.28-3.87a2.45,2.45,0,0,0-.24-2.59l-4.42-3.12A3.29,3.29,0,0,1,339,86.87c.36-.8.28-4.29,2.87-5l4.93-2.09a.07.07,0,0,1,.06,0A1.56,1.56,0,0,0,348.16,78l-.78-3.88-.1-.48a2,2,0,0,0-1.8-1.36l-5.31,1c-1.27.16-3.67-1.76-3.67-1.76-3.21-2.56-2.33-4.62-1.69-5.77l2.68-4.57a2,2,0,0,0-.84-2.38l-3.25-2.53a2.27,2.27,0,0,0-2.77.63l-2.9,4a5,5,0,0,1-3.54,1.37c-.77-.36-1.75-.35-2.57-.73a3,3,0,0,1-2.84-2.33l-1.68-4.77s0-.08,0-.11a1.56,1.56,0,0,0-1.8-1.26l-4.37.89a2.46,2.46,0,0,0-1.54,2.21l.66,4.76c.43,2.13-3.92,5-3.92,5a2.54,2.54,0,0,1-3.18.43l-4.78-2.21a2.09,2.09,0,0,0-2.59.25S292.18,68.76,293.7,70.4ZM309.47,86.6a10.17,10.17,0,0,1-.74-2.34,10.77,10.77,0,0,1,8-12.69v0l.26,0a10.81,10.81,0,0,1,12.46,8.57.56.56,0,0,1,0,.13,10.27,10.27,0,0,1-7.81,12.16c-.32.08-.64.15-1,.22A10.41,10.41,0,0,1,309.47,86.6Z"/>
      <path class="cls-5" d="M293.7,70.4,298,73.9a3.06,3.06,0,0,1,1.44,3.17c-.74,2.05-1.77,5.08-3.09,5.33l-4.73,1.7A2,2,0,0,0,290,86.32l1.07,4c.28.77.43,1,1.28,1l3-.08,14.1-4.65a10.17,10.17,0,0,1-.74-2.34,10.77,10.77,0,0,1,8-12.69v0l.26,0a10.81,10.81,0,0,1,12.46,8.57.56.56,0,0,1,0,.13l17.94-6.06-.1-.48a2,2,0,0,0-1.8-1.36l-5.31,1c-1.27.16-3.67-1.76-3.67-1.76-3.21-2.56-2.33-4.62-1.69-5.77l2.68-4.57a2,2,0,0,0-.84-2.38l-3.25-2.53a2.27,2.27,0,0,0-2.77.63l-2.9,4a5,5,0,0,1-3.54,1.37c-.77-.36-1.75-.35-2.57-.73a3,3,0,0,1-2.84-2.33l-1.68-4.77s0-.08,0-.11a1.56,1.56,0,0,0-1.8-1.26l-4.37.89a2.46,2.46,0,0,0-1.54,2.21l.66,4.76c.43,2.13-3.92,5-3.92,5a2.54,2.54,0,0,1-3.18.43l-4.78-2.21a2.09,2.09,0,0,0-2.59.25S292.18,68.76,293.7,70.4Z"/>
      <path class="cls-6" d="M292.36,91.33c-.83,0-1-.27-1.27-1.05l-1.07-4a2,2,0,0,1,1.56-2.23l4.73-1.69c1.33-.25,2.36-3.29,3.1-5.33A3,3,0,0,0,298,73.9L293.7,70.4c-1.52-1.63,1.89-6,1.89-6a2.1,2.1,0,0,1,2.59-.26L303,66.36c1,.62,7.52-3.3,7.11-5.43l-.68-4.76a2.5,2.5,0,0,1,1.54-2.22l4.37-.88a1.55,1.55,0,0,1,1.8,1.25s0,.08,0,.12l1.69,4.76c.3,1.33,8,2.6,8.94,1.7l2.91-4a2.27,2.27,0,0,1,2.77-.64l3.24,2.53a2,2,0,0,1,.84,2.38l-2.69,4.59c-.64,1.14-1.52,3.19,1.69,5.76,0,0,2.4,1.91,3.67,1.75l5.3-1a2,2,0,0,1,1.82,1.37l.88,4.37a1.55,1.55,0,0,1-1.34,1.73h-.05l-4.93,2.09c-2.59.75-2.51,4.24-2.86,5a3.3,3.3,0,0,0,1.27,3.56l4.41,3.12a2.46,2.46,0,0,1,.26,2.59L342.64,100a2.78,2.78,0,0,1-2.59.26L335.23,98c-1.6-.77-2.92-1-5.74,1.72-.83.54-1.59,1.24-1.13,3.41l.49,5.17a2,2,0,0,1-1.37,1.82l-4.37.88a2,2,0,0,1-2-1l-1.5-5.14c-.62-1.78-8.13-2.8-8.91-1.81l-3.12,4.41a2.44,2.44,0,0,1-2.57.25l-3.43-2.12a2,2,0,0,1-.84-2.38l2.68-4.64c.63-1.13-2.92-7.61-5.35-7.42Z"/>
      <circle class="cls-6" cx="319.05" cy="82.16" r="10.65" transform="translate(94.15 322.92) rotate(-61.39)"/>
    </g>
  </g>
</svg>
