<svg id="ICONS" xmlns="http://www.w3.org/2000/svg" viewBox="0 0 400 140">
  <defs>
    <style>
      .cls-1, .cls-3, .cls-5, .cls-6 {
        fill: #fff;
      }

      .cls-1 {
        stroke: #00bcf2;
      }

      .cls-1, .cls-10, .cls-3, .cls-8, .cls-9 {
        stroke-miterlimit: 10;
        stroke-width: 2px;
      }

      .cls-2 {
        fill: #55d2f6;
      }

      .cls-3 {
        stroke: #bad80a;
      }

      .cls-4 {
        fill: #556a8a;
      }

      .cls-5 {
        opacity: 0.12;
      }

      .cls-7 {
        fill: #aae9fb;
      }

      .cls-10, .cls-8 {
        fill: none;
      }

      .cls-10, .cls-8, .cls-9 {
        stroke: #556a8a;
      }

      .cls-9 {
        fill: #e5e5e5;
      }

      .cls-10 {
        stroke-dasharray: 3 3;
      }
    </style>
  </defs>
  <title>bcs-partner-advanced-management-find-partner-2</title>
  <path class="cls-1" d="M116,61.69a39.37,39.37,0,0,1,77.71-1.23,26.79,26.79,0,0,1,43,13.62c1.79-.44,3.07,3.92,5,3.92,12.94,0,21,5.88,21,18.81,0,16.19-17.06,23.43-30,23.43H110.55C97.19,117.52,87.12,105.12,87.12,91A29.27,29.27,0,0,1,116,61.69Z"/>
  <path class="cls-2" d="M156.16,87.43A14.65,14.65,0,0,0,153.52,83a20.36,20.36,0,0,0-5.6-5v-.49a16.44,16.44,0,0,0-16.42-16.21,16.14,16.14,0,0,0-8.71,2.43,22,22,0,0,0-17.63-8.92A21.63,21.63,0,0,0,83.47,76.16c0,.81.2,1.42.2,2.23-6.28,3-9.93,8.31-9.93,15,0,9.56,7.52,17.22,17.49,17.78.92,6.64,9.28,11.84,19.48,11.84,8.69,0,16-3.78,18.6-9a20.28,20.28,0,0,0,26.86-26.57Z"/>
  <path class="cls-3" d="M326.67,46.55A11.72,11.72,0,0,0,324.57,43a16.29,16.29,0,0,0-4.48-4v-.39a13.15,13.15,0,0,0-13.13-13,12.91,12.91,0,0,0-7,1.95,17.58,17.58,0,0,0-14.11-7.13,17.3,17.3,0,0,0-17.35,17c0,.65.16,1.13.16,1.78-5,2.43-7.94,6.65-7.94,12,0,7.65,6,13.78,14,14.22.73,5.31,7.43,9.47,15.58,9.47,6.95,0,12.83-3,14.88-7.2a16.23,16.23,0,0,0,21.48-21.26Z"/>
  <g>
    <path class="cls-4" d="M276.58,106.62l-1.11,1.11-3,3a4,4,0,0,1-5.66,0L222,65.94a4,4,0,0,1,0-5.66l4.11-4.11a4,4,0,0,1,5.66,0L276.58,101A4,4,0,0,1,276.58,106.62Z"/>
    <path class="cls-5" d="M276.58,106.62l-1.11,1.11a4,4,0,0,1-5.66,0L225,62.94a4,4,0,0,1,0-5.66l1.11-1.11a4,4,0,0,1,5.66,0L276.58,101A4,4,0,0,1,276.58,106.62Z"/>
    <path class="cls-6" d="M215.86,12a36.17,36.17,0,0,0-36.12,36.13c0,.62,0,1.26.05,1.88a36.12,36.12,0,0,0,72.14,0c0-.62.05-1.26.05-1.9A36.18,36.18,0,0,0,215.86,12Z"/>
    <path class="cls-7" d="M252.78,48c0,.64,0,1.28-.05,1.9H180.59c0-.62-.05-1.26-.05-1.88a36.12,36.12,0,0,1,72.25,0Z"/>
    <path class="cls-8" d="M180.14,48.1A36.12,36.12,0,1,0,216.25,12,36.16,36.16,0,0,0,180.14,48.1Z"/>
  </g>
  <g>
    <circle class="cls-9" cx="216.75" cy="37.68" r="11.98"/>
    <path class="cls-9" d="M198.11,68.3a18.63,18.63,0,1,1,37.27,0"/>
  </g>
  <g>
    <path class="cls-10" d="M89.75,91V54c.05-5.36,4-13,13-13s13,6.85,13,13V78c0,8.55,6.82,15,13,15s12.91-7.89,12.91-17c0-7.82-2.09-18,12.75-18h17.16"/>
    <polygon class="cls-4" points="164.95 66.18 163.59 64.72 170.81 58 163.59 51.29 164.95 49.82 173.75 58 164.95 66.18"/>
  </g>
</svg>
