<svg id="ICONS" xmlns="http://www.w3.org/2000/svg" viewBox="0 0 400 140">
  <defs>
    <style>
      .cls-1 {
        fill: #80def9;
      }

      .cls-2 {
        fill: #556a8a;
      }

      .cls-3 {
        fill: #adbdca;
      }

      .cls-4 {
        fill: #fff;
      }

      .cls-5 {
        fill: #e5e5e5;
      }

      .cls-6 {
        fill: none;
        stroke: #556a8a;
        stroke-miterlimit: 10;
        stroke-width: 2px;
      }

      .cls-7 {
        fill: #0078d7;
      }

      .cls-8 {
        fill: #2bc7f4;
      }
    </style>
  </defs>
  <title>bcs-partner-advanced-management- install-4</title>
  <g>
    <path class="cls-1" d="M325.08,70.39a36.68,36.68,0,0,0-72.4-1.15,25,25,0,0,0-40.09,12.69,21.82,21.82,0,1,0-5.18,43H330.17C342.63,122.41,352,110.85,352,97.66A27.27,27.27,0,0,0,325.08,70.39Z"/>
    <polygon class="cls-2" points="209.75 129 92.75 129 100.07 121 202.9 121 209.75 129"/>
    <polygon class="cls-3" points="198.75 127 103.75 127 107.09 123 195.51 123 198.75 127"/>
    <polygon class="cls-2" points="174 109 122 109 116 115 180 115 174 109"/>
    <polygon class="cls-2" points="153.25 114 146.25 114 147.65 100 151.85 100 153.25 114"/>
    <rect class="cls-4" x="74" y="20" width="151" height="82" rx="4" ry="4"/>
    <path class="cls-5" d="M226.25,24V36h-151V24a4,4,0,0,1,4-4h143A4,4,0,0,1,226.25,24Z"/>
    <rect class="cls-6" x="74" y="20" width="151" height="82" rx="4" ry="4" transform="translate(299 122) rotate(180)"/>
  </g>
  <g>
    <rect class="cls-2" x="129" y="89" width="40" height="2"/>
    <polygon class="cls-2" points="167.6 63.38 149.99 81.17 149.99 37 148.01 37 148.01 81.17 130.4 63.38 129 64.79 149 85 169 64.79 167.6 63.38"/>
  </g>
  <g>
    <polygon class="cls-7" points="283 88 314 88 314 61.16 283 65.5 283 88"/>
    <polygon class="cls-7" points="281 88 281 65.85 256 69.14 256 88 281 88"/>
    <polygon class="cls-7" points="281 90 256 90 256 109.42 281 112.7 281 90"/>
    <polygon class="cls-7" points="283 90 283 113.2 314 117.55 314 90 283 90"/>
  </g>
  <path class="cls-8" d="M93.29,69.07a2.13,2.13,0,0,0,2.31.85l4.25-1.36A2.28,2.28,0,0,0,101,65.84l-1.28-5.3a3.16,3.16,0,0,1,1.21-3.74c.51-.82,1.43-1.39,1.94-2.21a3.83,3.83,0,0,1,3.74-.54l5.7,1.82a2.58,2.58,0,0,0,2.24-.88l2.13-4.37c.26-.41,0-1.7-1.29-2.5l-4.93-3A2.79,2.79,0,0,1,109,41.91l-.39-.41a3.71,3.71,0,0,0,.46-2.57c-.32-1.33,0-2.82,2.28-3.71L116.07,33a2.7,2.7,0,0,0,1.11-2.72l-1.7-4.51a1.7,1.7,0,0,0-2.24-.89l-.08,0-5.3,1.34a3.26,3.26,0,0,1-3.79-1.21c-.82-.51-1.39-1.43-2.21-1.94a5.47,5.47,0,0,1-1-4l2-5.1a2.47,2.47,0,0,0-1-2.92L97.63,9.69a2.07,2.07,0,0,0-2.67.63L92.32,15.5a3.49,3.49,0,0,1-3.4,1.87,10.58,10.58,0,0,0-2.82,0l-.41-.26a3.6,3.6,0,0,1-3.33-2L80,9.72a2.13,2.13,0,0,0-2.31-.85l-4.51,1.7a1.7,1.7,0,0,0-.89,2.24l0,.08,1,5.73c.48,2,0,2.82-1,3.4-.51.82-1.43,1.39-1.94,2.21a3.59,3.59,0,0,1-4,.94L61,22.93a2.65,2.65,0,0,0-2.43,1.36l-2.21,4.37a3,3,0,0,0,1.29,2.5l4.93,3c1.7,1,2.21,1.94,1.45,3.18a23.31,23.31,0,0,0,.37,3.08c-.09,1-.19,2.14-2.43,3l-5,2.58a2.13,2.13,0,0,0-.87,2.31l1.7,4.51a2.18,2.18,0,0,0,2.06,1.28l5.58-1.7c2-.48,2.82,0,3.4,1A30.6,30.6,0,0,1,71.17,56a3.06,3.06,0,0,1,1.19,3.59L70.13,65a2.65,2.65,0,0,0,1.29,2.5l4,1.87a2.07,2.07,0,0,0,2.67-.63l2.7-5.19a3.4,3.4,0,0,1,3.4-1.87l3.23.29c1.33-.31,2.16.19,3.28,2l2.58,5m4.4-33.65a12,12,0,0,1-7,15,11.17,11.17,0,0,1-15.11-7,11.48,11.48,0,0,1,6.8-14.59,11.63,11.63,0,0,1,15.19,6.29l.11.27"/>
</svg>
