<svg id="ICONS" xmlns="http://www.w3.org/2000/svg" viewBox="0 0 400 140">
  <defs>
    <style>
      .cls-1 {
        fill: #bad80a;
      }

      .cls-2 {
        fill: #d1e55c;
      }

      .cls-3 {
        fill: #556a8a;
      }

      .cls-4 {
        fill: #d1d3d4;
      }

      .cls-5 {
        fill: #2bc7f4;
      }

      .cls-6 {
        fill: #aae9fb;
      }

      .cls-7, .cls-9 {
        fill: none;
        stroke-linecap: round;
      }

      .cls-7 {
        stroke: #fff;
        stroke-linejoin: round;
        stroke-width: 0.06px;
      }

      .cls-8 {
        fill: #414042;
      }

      .cls-11, .cls-12, .cls-9 {
        stroke: #556a8a;
        stroke-miterlimit: 10;
        stroke-width: 2px;
      }

      .cls-10 {
        fill: #008272;
      }

      .cls-11 {
        fill: #55a5e4;
      }

      .cls-12 {
        fill: #55d2f6;
      }
    </style>
  </defs>
  <title>bcs-partner-advanced-management-fid-oartner-1</title>
  <polygon class="cls-1" points="81.17 114.79 97.37 67 116 114.79 81.17 114.79"/>
  <polygon class="cls-2" points="121 113.36 131.63 82 143.85 113.36 121 113.36"/>
  <path class="cls-1" d="M295.6,130c-12.66-10.93-56.88-22-109.5-22S89.26,119.07,76.6,130Z"/>
  <g>
    <polygon class="cls-3" points="140.72 57.6 137.38 58.66 137.38 58.67 134.63 59.54 130.25 60.94 128.41 55.09 132.54 53.73 135.59 52.72 138.78 51.66 140.72 57.6"/>
    <polygon class="cls-4" points="134.75 54.64 134.75 55.31 129.16 57.43 128.78 56.27 134.56 54.34 134.75 54.64"/>
    <polygon class="cls-5" points="138.41 58.34 138.4 58.35 135.66 59.22 133.57 53.41 136.61 52.4 138.41 58.34"/>
    <polygon class="cls-3" points="168.53 52.77 137.78 60.48 136 54.86 135.45 53.11 134.75 50.92 164.13 38.95 168.53 52.77"/>
    <path class="cls-6" d="M262.57,41v-.58a23.41,23.41,0,0,0-.76-5.81,21.05,21.05,0,0,0-34.6-15C222.09,13.2,215.57,10,206.82,10c-15.41,0-27,13.44-27.29,28.59,0,1,.26,1.83.26,2.87C171.7,45.38,167,52.17,167,60.79c0,12.32,9.69,22.19,22.53,22.91,1.18,8.55,8.85,16.49,22,16.49,11.08,0,17.69.9,25.77-8.2a27.23,27.23,0,0,0,12.88,3.51c15.53,0,28.11-13.76,28.11-29.28A28.11,28.11,0,0,0,262.57,41Z"/>
    <polygon class="cls-3" points="212.41 43.87 212.4 43.87 209.27 44.66 159.66 57.06 159.37 57.13 156.64 57.82 151.54 41.83 154.53 40.62 154.55 40.61 201.93 21.41 204.87 20.22 204.89 20.21 212.41 43.87"/>
    <polygon class="cls-4" points="155.03 48.02 136 54.86 135.45 53.11 154.48 46.35 155.03 48.02"/>
    <polygon class="cls-3" points="218.93 43.68 212.87 45.63 204.24 18.53 210.3 16.59 218.93 43.68 218.93 43.68"/>
    <polygon class="cls-7" points="218.93 43.68 212.87 45.63 204.24 18.53 210.3 16.59 218.93 43.68 218.93 43.68"/>
    <polygon class="cls-4" points="204.66 25.92 155.41 43.49 155.59 44.14 156.14 45.91 205.85 28.54 204.66 25.92"/>
    <polygon class="cls-4" points="213.47 26.57 207.5 28.82 206.18 29.32 204.88 25.42 206.26 24.92 212.25 22.76 213.47 26.57"/>
  </g>
  <polygon class="cls-5" points="159.37 57.13 156.64 57.82 151.54 41.83 154.53 40.62 159.37 57.13"/>
  <polygon class="cls-5" points="212.5 43.96 209.37 44.75 202.03 21.5 204.97 20.31 212.5 43.96"/>
  <g>
    <path class="cls-8" d="M175.58,118.7v0S175.61,118.73,175.58,118.7Z"/>
    <path class="cls-3" d="M177,54.81v39h3v-39a4.08,4.08,0,0,0,3-4.08,4.33,4.33,0,0,0-4.35-4.45,4.45,4.45,0,0,0-4.43,4.45C174.27,52.59,176,54.26,177,54.81Z"/>
    <path class="cls-3" d="M189.94,124.25l-5.87-16.15c.55-.19.44-.19.44-.19-4.41-12-4.51-12-4.51-12V91h-3v4.95c-4,12-4.18,12-4.18,12a3.87,3.87,0,0,0,.62.19c-5.87,16.15-5.84,16.15-5.84,16.15a1,1,0,0,0,.57,1.21,1,1,0,0,0,1.2-.56c5.87-16.15,5.88-16.15,5.88-16.15a1.37,1.37,0,0,1,.33.16,38.14,38.14,0,0,0,1.42-4.29V124c0,.46,0,2,1.5,2s1.5-1.54,1.5-2V110h0v-5.42c2,4.36,1.76,4.36,1.76,4.36a2.93,2.93,0,0,1,.51-.19c5.87,16.15,5.9,16.15,5.9,16.15a.94.94,0,0,0,1.77-.65Z"/>
  </g>
  <g>
    <polyline class="cls-9" points="232 63.95 232 77 254.05 77"/>
    <polygon class="cls-3" points="224.64 69.92 225.96 71.14 232 64.64 238.04 71.14 239.36 69.92 232 62 224.64 69.92"/>
    <polygon class="cls-3" points="248.08 84.36 246.86 83.04 253.36 77 246.86 70.96 248.08 69.64 256 77 248.08 84.36"/>
  </g>
  <g>
    <polyline class="cls-9" points="280 37.05 280 24 257.95 24"/>
    <polygon class="cls-3" points="287.36 31.08 286.04 29.86 280 36.36 273.96 29.86 272.64 31.08 280 39 287.36 31.08"/>
    <polygon class="cls-3" points="263.92 16.64 265.14 17.96 258.64 24 265.14 30.04 263.92 31.36 256 24 263.92 16.64"/>
  </g>
  <polygon class="cls-10" points="97 125.79 113.2 78 131.83 125.79 97 125.79"/>
  <g>
    <circle class="cls-11" cx="241" cy="31" r="10"/>
    <path class="cls-11" d="M226.77,55.17c0-7.73,6.54-14,14.61-14S256,47.44,256,55.17"/>
  </g>
  <g>
    <circle class="cls-12" cx="272" cy="66" r="10"/>
    <path class="cls-12" d="M257.77,91c0-7.73,6.54-14,14.61-14S287,83.27,287,91"/>
  </g>
</svg>
