<svg id="ICONS" xmlns="http://www.w3.org/2000/svg" viewBox="0 0 400 140">
  <defs>
    <style>
      .cls-1 {
        fill: #c6df33;
      }

      .cls-2, .cls-3 {
        fill: #fff;
      }

      .cls-2 {
        stroke: #00bcf2;
      }

      .cls-2, .cls-5, .cls-7 {
        stroke-miterlimit: 10;
        stroke-width: 2px;
      }

      .cls-4 {
        fill: #e5e5e5;
      }

      .cls-5 {
        fill: none;
      }

      .cls-5, .cls-7 {
        stroke: #556a8a;
      }

      .cls-6 {
        fill: #556a8a;
      }

      .cls-7 {
        fill: #55d2f6;
      }

      .cls-8 {
        fill: #bad80a;
      }

      .cls-8, .cls-9 {
        fill-rule: evenodd;
      }

      .cls-9 {
        fill: #d1e55c;
      }

      .cls-10 {
        fill: #2bc7f4;
      }
    </style>
  </defs>
  <title>bcs-partner-policies-view-policies-2</title>
  <path class="cls-1" d="M192.94,46.5v-.45a18,18,0,0,0-.58-4.47A16.18,16.18,0,0,0,165.77,30.1c-3.94-5-8.95-7.42-15.67-7.42-11.84,0-20.77,10.33-21,22,0,.8.2,1.4.2,2.21-6.22,3-9.83,8.23-9.83,14.85,0,9.47,7.45,17,17.31,17.6.91,6.57,6.8,12.67,16.89,12.67,8.51,0,13.59.69,19.8-6.3a20.92,20.92,0,0,0,9.9,2.7c11.93,0,21.6-10.57,21.6-22.5A21.6,21.6,0,0,0,192.94,46.5Z"/>
  <path class="cls-2" d="M254.1,62c-2.75-17.56-19.14-31-39-31-19.39,0-35.49,12.91-38.75,29.91a28.11,28.11,0,0,0-17.16-5.73c-12.39,0-22.79,7.75-25.86,18.28a25.29,25.29,0,0,0-5.56-.64c-12.94,0-23.43,9.66-23.43,21.59S114.87,116,127.81,116H259.57C272.94,113.5,283,102.07,283,89,283,74.23,270.1,62.24,254.1,62Z"/>
  <g>
    <path class="cls-3" d="M268.38,32.38a9.09,9.09,0,0,1-.73,3.64,9.22,9.22,0,0,1-2,3,9.41,9.41,0,0,1-3,2,8.84,8.84,0,0,1-3.62.74l-5.12-.61a1.15,1.15,0,0,0-.56.9V89.67c0,3.57-1.71,8.33-6.67,8.33h-9.48l-33.85-9.68V32.38a18.5,18.5,0,0,1,.06-2.18,5.23,5.23,0,0,1,.37-1.48,9.39,9.39,0,0,1,5-5,9,9,0,0,1,3.62-.74h46.64a9,9,0,0,1,3.62.74,9.39,9.39,0,0,1,5,5A9.1,9.1,0,0,1,268.38,32.38Z"/>
    <path class="cls-4" d="M268.78,32.87a9.09,9.09,0,0,1-.74,3.65,9.39,9.39,0,0,1-5,5,9,9,0,0,1-3.64.74s-5.14-.29-5.14.3v.3H203.44V32.06a12.79,12.79,0,0,1,.06-1.37,5.3,5.3,0,0,1,.38-1.48,8.65,8.65,0,0,1,.77-1.44,8.81,8.81,0,0,1,1.23-1.54,2.72,2.72,0,0,1,.29-.25,9,9,0,0,1,2.7-1.75,9.54,9.54,0,0,1,3.64-.74h46.89a9.2,9.2,0,0,1,3.64.74,9.39,9.39,0,0,1,5,5A9.09,9.09,0,0,1,268.78,32.87Z"/>
    <path class="cls-5" d="M268.38,32.38a9.09,9.09,0,0,1-.73,3.64,9.22,9.22,0,0,1-2,3,9.41,9.41,0,0,1-3,2,8.84,8.84,0,0,1-3.62.74l-5.12-.61a1.15,1.15,0,0,0-.56.9V89.67c0,3.57-1.71,8.33-6.67,8.33h-9.48l-33.85-9.68V32.38a18.5,18.5,0,0,1,.06-2.18,5.23,5.23,0,0,1,.37-1.48,9.39,9.39,0,0,1,5-5,9,9,0,0,1,3.62-.74h46.64a9,9,0,0,1,3.62.74,9.39,9.39,0,0,1,5,5A9.1,9.1,0,0,1,268.38,32.38Z"/>
    <path class="cls-6" d="M259.26,36.55a4.54,4.54,0,0,0,1.83-.37,4.76,4.76,0,0,0,2.49-2.49,4.76,4.76,0,0,0,0-3.66,4.76,4.76,0,0,0-2.49-2.49,4.76,4.76,0,0,0-3.66,0A4.76,4.76,0,0,0,254.93,30a4.54,4.54,0,0,0-.37,1.83L254.11,37Z"/>
    <path class="cls-7" d="M242.9,98c-3.56-1.19-5.93-3.43-5.93-9.5,0-7.12,7.17-9.5,6.44-9.5H204.95a9.5,9.5,0,0,0,0,19H242"/>
  </g>
  <g>
    <path class="cls-8" d="M184.34,86.36a23,23,0,1,1-23-23A22.88,22.88,0,0,1,184.34,86.36Z"/>
    <path class="cls-9" d="M184.24,86.36a22.88,22.88,0,0,1-6.85,16.36L144.87,70.21a23,23,0,0,1,39.37,16.15Z"/>
  </g>
  <g>
    <path class="cls-6" d="M179.58,86.38c0,3.76-8.17,13-18.24,13s-18.24-9.22-18.24-13c0-4.12,8.17-12,18.24-12S179.58,82.62,179.58,86.38Z"/>
    <circle class="cls-3" cx="161.34" cy="86.88" r="8.64"/>
    <circle class="cls-10" cx="161.34" cy="86.88" r="5.76"/>
    <circle class="cls-3" cx="163.26" cy="84" r="2.88"/>
  </g>
</svg>
