<svg xmlns="http://www.w3.org/2000/svg" viewBox="0 0 400 140">
  <defs>
    <style>
      .cls-1 {
        fill: #80def9;
        opacity: 0.7;
      }

      .cls-2 {
        fill: #556a8a;
      }

      .cls-3 {
        fill: #adbdca;
      }

      .cls-4, .cls-7 {
        fill: #fff;
      }

      .cls-5 {
        fill: #e5e5e5;
      }

      .cls-6 {
        fill: none;
        stroke: #556a8a;
      }

      .cls-6, .cls-7 {
        stroke-miterlimit: 10;
        stroke-width: 2px;
      }

      .cls-7 {
        stroke: #00bcf2;
      }

      .cls-8 {
        fill: #bad80a;
      }
    </style>
  </defs>
  <title>bcs-partner-upgrade-2</title>
  <g id="ICONS">
    <path class="cls-1" d="M300.29,67.13a39.37,39.37,0,0,0-77.71-1.23,26.79,26.79,0,0,0-43,13.62A23.42,23.42,0,1,0,174,125.67H305.76c13.37-2.71,23.43-15.12,23.43-29.28A29.27,29.27,0,0,0,300.29,67.13Z"/>
    <g>
      <polygon class="cls-2" points="252 130 135 130 142.32 122 245.15 122 252 130"/>
      <polygon class="cls-3" points="241 128 146 128 149.34 124 237.76 124 241 128"/>
      <polygon class="cls-2" points="216 110 164 110 158 116 222 116 216 110"/>
      <polygon class="cls-2" points="195.25 115.25 188.25 115.25 189.65 101.25 193.85 101.25 195.25 115.25"/>
      <rect class="cls-4" x="116" y="21" width="151" height="82" rx="4" ry="4"/>
      <path class="cls-5" d="M267,26V38H116V26a4,4,0,0,1,4-4H263A4,4,0,0,1,267,26Z"/>
      <rect class="cls-6" x="116" y="22" width="151" height="82" rx="4" ry="4" transform="translate(383 126) rotate(180)"/>
    </g>
    <polygon class="cls-2" points="208.64 63.12 191 45.33 191 89 189 89 189 45.33 171.43 63.12 170.06 61.71 190.06 41.5 210.05 61.71 208.64 63.12"/>
    <path class="cls-7" d="M134.21,35.37v-.42a16.83,16.83,0,0,0-.55-4.18A15.14,15.14,0,0,0,108.79,20a17.52,17.52,0,0,0-14.66-6.94c-11.08,0-19.43,9.67-19.62,20.55,0,.75.19,1.31.19,2.07-5.82,2.82-9.2,7.7-9.2,13.89,0,8.86,7,16,16.2,16.47.85,6.15,6.36,11.86,15.8,11.86,8,0,12.72.64,18.53-5.89a19.58,19.58,0,0,0,9.26,2.53c11.16,0,20.21-9.89,20.21-21.05A20.21,20.21,0,0,0,134.21,35.37Z"/>
    <path class="cls-8" d="M109,65.3a1.32,1.32,0,0,0,1.44.53l2.64-.84a1.41,1.41,0,0,0,.7-1.69L113,60a2,2,0,0,1,.75-2.32c.32-.51.89-.87,1.2-1.37a2.37,2.37,0,0,1,2.32-.34l3.54,1.13a1.6,1.6,0,0,0,1.39-.55l1.32-2.71c.16-.25,0-1.06-.8-1.55l-3.06-1.89a1.73,1.73,0,0,1-.91-2l-.24-.25a2.3,2.3,0,0,0,.28-1.59c-.2-.82,0-1.75,1.41-2.3l3-1.35a1.68,1.68,0,0,0,.69-1.69l-1.06-2.8a1.06,1.06,0,0,0-1.39-.55l0,0-3.29.83a2,2,0,0,1-2.35-.75c-.51-.32-.87-.89-1.37-1.2a3.4,3.4,0,0,1-.59-2.48L115,31.16a1.53,1.53,0,0,0-.64-1.82l-2.62-.91a1.29,1.29,0,0,0-1.66.39L108.42,32a2.16,2.16,0,0,1-2.11,1.16,6.56,6.56,0,0,0-1.75,0L104.3,33a2.24,2.24,0,0,1-2.07-1.23l-1.48-3.36a1.32,1.32,0,0,0-1.44-.53L96.53,29A1.06,1.06,0,0,0,96,30.37l0,0L96.62,34c.3,1.23,0,1.75-.59,2.11-.32.51-.89.87-1.2,1.37a2.23,2.23,0,0,1-2.48.58L89,36.66a1.65,1.65,0,0,0-1.51.84l-1.37,2.71a1.88,1.88,0,0,0,.8,1.55L90,43.65c1.06.63,1.37,1.2.9,2a14.46,14.46,0,0,0,.23,1.91c-.05.64-.12,1.33-1.51,1.88L86.46,51a1.32,1.32,0,0,0-.54,1.44L87,55.25a1.35,1.35,0,0,0,1.28.79L91.72,55c1.23-.3,1.75,0,2.11.59a19,19,0,0,1,1.47,1.61A1.9,1.9,0,0,1,96,59.42L94.65,62.8a1.65,1.65,0,0,0,.8,1.55l2.46,1.16a1.29,1.29,0,0,0,1.66-.39l1.68-3.22a2.11,2.11,0,0,1,2.11-1.16l2,.18c.82-.19,1.34.12,2,1.26l1.6,3.1m2.73-20.88a7.46,7.46,0,0,1-4.34,9.32A6.93,6.93,0,0,1,98,49.36a7.12,7.12,0,0,1,4.22-9.05,7.22,7.22,0,0,1,9.43,3.91l.07.17"/>
  </g>
</svg>
