<svg id="ICONS" xmlns="http://www.w3.org/2000/svg" viewBox="0 0 400 140">
  <defs>
    <style>
      .cls-1 {
        fill: #fff;
      }

      .cls-2, .cls-6 {
        fill: none;
      }

      .cls-2 {
        stroke: #556a8a;
      }

      .cls-2, .cls-4, .cls-6 {
        stroke-miterlimit: 10;
      }

      .cls-2, .cls-4 {
        stroke-width: 2px;
      }

      .cls-3, .cls-7 {
        fill: #80def9;
      }

      .cls-4 {
        fill: #2bc7f4;
        stroke: #0078d7;
      }

      .cls-5 {
        fill: #00bcf2;
      }

      .cls-5, .cls-6, .cls-7 {
        fill-rule: evenodd;
      }

      .cls-6 {
        stroke: #80def9;
      }
    </style>
  </defs>
  <title>bcs-partner-advanced-management-move-files-2</title>
  <g>
    <g>
      <path class="cls-1" d="M106.32,24.07h-33A1.27,1.27,0,0,0,72,25.36v79.43a1.27,1.27,0,0,0,1.27,1.28h58.45a1.27,1.27,0,0,0,1.27-1.28V49.69Z"/>
      <path class="cls-2" d="M106.32,24.07h-33A1.27,1.27,0,0,0,72,25.36v79.43a1.27,1.27,0,0,0,1.27,1.28h58.45a1.27,1.27,0,0,0,1.27-1.28V49.69Z"/>
      <polyline class="cls-2" points="106 24.44 106 50.07 132.21 50.07"/>
    </g>
    <g>
      <path class="cls-1" d="M97.32,33h-33A1.27,1.27,0,0,0,63,34.28v79.43A1.27,1.27,0,0,0,64.27,115h58.45a1.27,1.27,0,0,0,1.27-1.28V58.62Z"/>
      <polygon class="cls-3" points="124 59.07 97.05 59.07 97 33.07 124 59.07"/>
      <path class="cls-2" d="M97.32,33h-33A1.27,1.27,0,0,0,63,34.28v79.43A1.27,1.27,0,0,0,64.27,115h58.45a1.27,1.27,0,0,0,1.27-1.28V58.62Z"/>
      <polyline class="cls-2" points="97 33.07 97 59 123.26 59"/>
    </g>
  </g>
  <circle class="cls-4" cx="292" cy="70" r="53.5"/>
  <g>
    <path class="cls-1" d="M325.81,71.18a9.12,9.12,0,0,1,7.88,9.46c0,4.13-2.31,9-7.88,9H280.73c-8.65,0-11.77-5.92-11.77-12,0-10.21,11.37-10.57,11.37-10.57s.93-11.17,10.86-13.43c8.86-2,13.84,2.63,16.25,6.21a13.59,13.59,0,0,1,11.5-.4,11.6,11.6,0,0,1,6.88,11.71"/>
    <path class="cls-1" d="M266.09,78c0-11.38,12-13.07,12-13.07s1.54-10.91,12.44-13.71c8.44-2.17,14.85,1.63,17.58,5.86,0,0,1.83-1.3,5.9-1.19A18.45,18.45,0,0,0,302.46,41c-9.66-3.75-18.12.93-22.07,8a13.73,13.73,0,0,0-13.1-.22,14.58,14.58,0,0,0-7.48,14.32s-10.13.74-10.13,11.63a11.64,11.64,0,0,0,11.16,11.27h7.54a14.48,14.48,0,0,1-2.3-8"/>
  </g>
  <g>
    <g>
      <polygon class="cls-5" points="224.66 74.13 205 94.48 205 85 148 85 148 64 205 64 205 53.9 224.66 74.13 224.66 74.13 224.66 74.13"/>
      <polygon class="cls-6" points="207.36 67.5 207.36 67.5 148 67.5 176.5 67.5 207.36 67.5 207.36 67.5"/>
      <polygon class="cls-6" points="217.34 74.5 217.34 74.5 148 74.5 186.47 74.5 217.34 74.5 217.34 74.5"/>
      <polygon class="cls-6" points="209.38 81.5 209.38 81.5 148 81.5 176.5 81.5 209.38 81.5 209.38 81.5"/>
      <polygon class="cls-7" points="209 67.4 205 70.9 205 63.9 209 67.4"/>
      <polygon class="cls-7" points="212 81.4 206 85.9 206 76.9 212 81.4"/>
    </g>
    <polygon class="cls-7" points="222 74.4 217 78.9 217 69.9 222 74.4"/>
  </g>
</svg>
