<svg xmlns="http://www.w3.org/2000/svg" viewBox="0 0 400 140">
  <defs>
    <style>
      .cls-1, .cls-3, .cls-4 {
        fill: #fff;
      }

      .cls-1 {
        stroke: #505c6d;
      }

      .cls-1, .cls-4 {
        stroke-miterlimit: 10;
        stroke-width: 2px;
      }

      .cls-2 {
        fill: #00bcf2;
      }

      .cls-4 {
        stroke: #556a8a;
      }

      .cls-5 {
        fill: #e5e5e5;
      }
    </style>
  </defs>
  <title>bcs-partner-advanced-management- management-4</title>
  <g id="ICONS">
    <path class="cls-1" d="M225.61,52.71v-.66a26.61,26.61,0,0,0-.86-6.61,23.92,23.92,0,0,0-39.32-17c-5.82-7.33-13.24-11-23.17-11-17.51,0-30.71,15.28-31,32.49,0,1.19.3,2.08.3,3.26C122.34,57.69,117,65.4,117,75.2c0,14,11,25.21,25.6,26,1.34,9.72,10.05,18.74,25,18.74,12.59,0,20.1,1,29.28-9.32a30.94,30.94,0,0,0,14.64,4c17.64,0,31.94-15.63,31.94-33.27A31.94,31.94,0,0,0,225.61,52.71Z"/>
    <path class="cls-2" d="M205,72.06h-7V45.44l4-5.16-4-12.14h-5.32l-4,12L193,45.44V72.06h-7v6.66h4c0,2.49-2.66,5.51-4,5.61V99.81c0,4.11,2.6,8.19,5.32,8.19h8c2.72,0,5.69-4.7,5.69-8.81v-15c-1.33,0-4.36-3-4.36-5.51H205Z"/>
    <rect class="cls-3" x="192" y="82" width="2" height="23"/>
    <rect class="cls-3" x="197" y="82" width="2" height="23"/>
    <path class="cls-4" d="M178.48,42.77c0-6.45-4.48-12-9.48-14.52V38.78l-6.5,5.32L156,38.78V28.25c-6,2.52-9.32,8.08-9.32,14.52s3.32,12,9.32,14.51V104a4.74,4.74,0,0,0,4.92,5h1.33c2.93,0,5.75-2.07,5.75-5V57.82A16.09,16.09,0,0,0,178.48,42.77Z"/>
    <rect class="cls-5" x="157" y="96" width="10" height="7"/>
  </g>
</svg>
