<svg xmlns="http://www.w3.org/2000/svg" viewBox="0 0 400 140">
  <defs>
    <style>
      .cls-1, .cls-2 {
        fill: #fff;
      }

      .cls-1, .cls-4 {
        stroke: #556a8a;
        stroke-linecap: round;
        stroke-linejoin: round;
        stroke-width: 2px;
      }

      .cls-3 {
        fill: #2bc7f4;
      }

      .cls-4 {
        fill: none;
      }

      .cls-5 {
        fill: #e5e5e5;
      }
    </style>
  </defs>
  <title>bcs-partner-advanced-management-resources-6</title>
  <g id="ICONS">
    <rect class="cls-1" x="130" y="25" width="124" height="97"/>
    <path class="cls-2" d="M192,120a13.75,13.75,0,0,0-9-4H141V19h43c7,0,8,10,8,10s1-10,8-10h43v97H201a13.75,13.75,0,0,0-9,4"/>
    <rect class="cls-3" x="191" y="26" width="2" height="93.32"/>
    <path class="cls-4" d="M192,120a13.75,13.75,0,0,0-9-4H141V19h43c7,0,8,10,8,10s1-10,8-10h43v97H201a13.75,13.75,0,0,0-9,4"/>
    <rect class="cls-5" x="142" y="20" width="15" height="95"/>
    <rect class="cls-5" x="227" y="20" width="15" height="95"/>
  </g>
</svg>
