<svg xmlns="http://www.w3.org/2000/svg" viewBox="0 0 400 140">
  <defs>
    <style>
      .cls-1, .cls-10, .cls-11, .cls-3 {
        fill: #fff;
      }

      .cls-1 {
        stroke: #d1d3d4;
      }

      .cls-1, .cls-10, .cls-11, .cls-2, .cls-5, .cls-9 {
        stroke-miterlimit: 10;
        stroke-width: 2px;
      }

      .cls-2, .cls-5, .cls-9 {
        fill: none;
      }

      .cls-2 {
        stroke: #2ac7f4;
      }

      .cls-4 {
        fill: #e5e5e5;
      }

      .cls-5 {
        stroke: #556a8a;
      }

      .cls-6 {
        fill: #414042;
      }

      .cls-7 {
        fill: #2bc7f4;
      }

      .cls-8 {
        fill: #55d2f6;
      }

      .cls-9 {
        stroke: #c0b0ff;
      }

      .cls-10 {
        stroke: #00bcf2;
      }

      .cls-11 {
        stroke: #b4a0ff;
      }
    </style>
  </defs>
  <title>bcs-partner-advanced-management- reports-9</title>
  <g id="ICONS">
    <g>
      <line class="cls-1" x1="154" y1="122" x2="154" y2="27"/>
      <line class="cls-1" x1="172" y1="122" x2="172" y2="27"/>
      <line class="cls-1" x1="190" y1="122" x2="190" y2="27"/>
      <line class="cls-1" x1="208" y1="122" x2="208" y2="27"/>
      <line class="cls-1" x1="226" y1="122" x2="226" y2="27"/>
      <line class="cls-1" x1="244" y1="122" x2="244" y2="27"/>
      <line class="cls-1" x1="262" y1="122" x2="262" y2="27"/>
      <line class="cls-1" x1="280" y1="122" x2="280" y2="27"/>
      <line class="cls-1" x1="298" y1="122" x2="298" y2="27"/>
      <line class="cls-1" x1="316" y1="122" x2="316" y2="27"/>
      <line class="cls-1" x1="334" y1="122" x2="334" y2="27"/>
    </g>
    <polyline class="cls-2" points="244 88 244 121 222 121 207 40 194 121 172 121 172 69"/>
    <rect class="cls-3" x="71" y="27" width="76" height="95" rx="2" ry="2"/>
    <rect class="cls-4" x="71" y="28" width="13" height="93"/>
    <rect class="cls-5" x="71" y="27" width="76" height="95" rx="2" ry="2"/>
    <g>
      <rect class="cls-6" x="65" y="39" width="10" height="4"/>
      <rect class="cls-7" x="70" y="39" width="5" height="4"/>
    </g>
    <g>
      <rect class="cls-6" x="65" y="55" width="10" height="4"/>
      <rect class="cls-7" x="70" y="55" width="5" height="4"/>
    </g>
    <g>
      <rect class="cls-6" x="65" y="71" width="10" height="4"/>
      <rect class="cls-7" x="70" y="71" width="5" height="4"/>
    </g>
    <g>
      <rect class="cls-6" x="65" y="87" width="10" height="4"/>
      <rect class="cls-7" x="70" y="87" width="5" height="4"/>
    </g>
    <g>
      <rect class="cls-6" x="65" y="103" width="10" height="4"/>
      <rect class="cls-7" x="70" y="103" width="5" height="4"/>
    </g>
    <rect class="cls-8" x="92" y="39" width="42" height="13"/>
    <polyline class="cls-9" points="245 121 262 121 280 57 298 121 335 121"/>
    <circle class="cls-10" cx="244" cy="87" r="6"/>
    <circle class="cls-11" cx="280" cy="58" r="6"/>
    <circle class="cls-10" cx="207" cy="40" r="6"/>
    <circle class="cls-10" cx="172" cy="63" r="6"/>
    <line class="cls-2" x1="148" y1="121" x2="240" y2="121"/>
    <line class="cls-9" x1="260" y1="121" x2="317" y2="121"/>
  </g>
</svg>
