<svg xmlns="http://www.w3.org/2000/svg" viewBox="0 0 400 140">
  <defs>
    <style>
      .cls-1 {
        fill: #55d2f6;
      }

      .cls-2, .cls-4, .cls-7 {
        fill: #fff;
      }

      .cls-2 {
        stroke: #bad80a;
      }

      .cls-2, .cls-3, .cls-7 {
        stroke-miterlimit: 10;
        stroke-width: 2px;
      }

      .cls-3 {
        fill: none;
      }

      .cls-3, .cls-7 {
        stroke: #556a8a;
      }

      .cls-5 {
        fill: #e5e5e5;
      }

      .cls-6 {
        fill: #aae9fb;
      }
    </style>
  </defs>
  <title>bcs-partner-advanced-management-password-3</title>
  <g id="ICONS">
    <g>
      <path class="cls-1" d="M169.26,62.46l-5.21-1a20.86,20.86,0,0,0-.4-3.59l4.44-2.62a1.37,1.37,0,0,0,.84-1.84l-1.17-3.25a1.18,1.18,0,0,0-1.66-.64l-5.3.89-1.56-2.89,3.19-4a1.41,1.41,0,0,0,.08-1.87L160,38.91a1.69,1.69,0,0,0-1.88-.08l-4.27,2.81c-.91-.6-2-1.4-2.91-2l1.37-5.2a1.29,1.29,0,0,0-.68-1.54l-3.13-1.45a1.19,1.19,0,0,0-1.72.48l-3,4.57a10.81,10.81,0,0,0-3.34-.91l-.51-5.28a1.29,1.29,0,0,0-1.25-1.38l-3.57,0c-.56-.21-1.15.33-1.36.88l-1.19,5.4a11.12,11.12,0,0,0-3.41.59L126.53,31a1.9,1.9,0,0,0-1.66-.64l-3.45,1.35a1.27,1.27,0,0,0-.82,1.46l1.08,5.13c-1,.52-1.94,1.41-2.91,1.94l-4.17-3.39a1.22,1.22,0,0,0-1.69.11l-1.64,1.49-.91.84,0,0a1.21,1.21,0,0,0-.24,1.65l3,4.46a15.48,15.48,0,0,0-2.21,3.1l-5.18-1.74a1.67,1.67,0,0,0-1.74.86l-1.46,3.13a1.63,1.63,0,0,0,.67,1.91l4.38,2.83c-.43,1.11-.48,2.24-.91,3.35l-5.28.51a1.65,1.65,0,0,0-1.2,1.45L100,64.21a1.64,1.64,0,0,0,1,1.56l5.42.81a21.72,21.72,0,0,0,.57,3.78L102.22,73a1.19,1.19,0,0,0-.64,1.67l1.17,3.25a1.76,1.76,0,0,0,1.65,1l5.32-1.26,1.56,2.89-3.39,4.17a1.77,1.77,0,0,0,.11,1.7l2.51,2.74a1.42,1.42,0,0,0,1.67.27l4.47-3c.91.61,2,1.41,2.91,2l-1.36,5.21a1.26,1.26,0,0,0,.68,1.53l3.3,1.66a1.62,1.62,0,0,0,1.72-.49l2.83-4.39c1.13.05,2.24.48,3.36.53l.31,5.47a1.64,1.64,0,0,0,1.45,1.19l3.56.35a2.26,2.26,0,0,0,1.37-1.25l1-5.22c1.32-.13,2.46-.46,3.78-.58L144,97a1.29,1.29,0,0,0,1.67.64l3.24-1.17a1.53,1.53,0,0,0,1-1.65l-1.08-5.12a13.15,13.15,0,0,0,2.91-1.94l4.17,3.39a1.26,1.26,0,0,0,1.88.08l2.34-2.14.21-.19a1.33,1.33,0,0,0,.46-1,1.29,1.29,0,0,0-.38-.92l-3-4.47a9.25,9.25,0,0,0,2.21-3.09l5.19,1.74a1.28,1.28,0,0,0,1.53-.68L168,77.26a1.9,1.9,0,0,0-.49-1.72l-4.56-3a9.44,9.44,0,0,0,.71-3.17l5.49-.69c.57-.16,1.16-.7,1.18-1.08l.17-3.75A1.28,1.28,0,0,0,169.26,62.46ZM135,72.47a9,9,0,1,1,9-9A9,9,0,0,1,135,72.47Z"/>
      <path class="cls-2" d="M260.25,53.36a39.37,39.37,0,0,0-77.71-1.23,26.79,26.79,0,0,0-43,13.62,23.42,23.42,0,1,0-5.56,46.16H265.72c13.37-2.71,23.43-15.12,23.43-29.28A29.27,29.27,0,0,0,260.25,53.36Z"/>
      <g>
        <rect class="cls-3" x="196.52" y="36.9" width="39" height="51" rx="12" ry="12"/>
        <path class="cls-4" d="M248.52,116.17a2.84,2.84,0,0,1-2.84,2.83H187.37a2.84,2.84,0,0,1-2.84-2.83V70.83A2.84,2.84,0,0,1,187.37,68h58.31a2.84,2.84,0,0,1,2.84,2.83Z"/>
        <path class="cls-5" d="M247.41,71v44.64L199.89,68.16h44.64A2.89,2.89,0,0,1,247.41,71Z"/>
        <path class="cls-3" d="M247.52,116.17a2.84,2.84,0,0,1-2.84,2.83H186.37a2.84,2.84,0,0,1-2.84-2.83V70.83A2.84,2.84,0,0,1,186.37,68h58.31a2.84,2.84,0,0,1,2.84,2.83Z"/>
      </g>
      <g>
        <path class="cls-6" d="M272.3,86.71a19.17,19.17,0,1,0-6.85,8.93v6.26h6.07v7h8v8h12V105.24Z"/>
        <path class="cls-3" d="M272.3,86.71a19.17,19.17,0,1,0-6.85,8.93v6.26h6.07v7h8v8h12V105.24Z"/>
        <circle class="cls-7" cx="249.33" cy="72.99" r="4.05"/>
      </g>
    </g>
  </g>
</svg>
