<svg xmlns="http://www.w3.org/2000/svg" viewBox="0 0 400 140">
  <defs>
    <style>
      .cls-1 {
        fill: #80def9;
      }

      .cls-2, .cls-8 {
        fill: #e5e5e5;
      }

      .cls-2, .cls-3, .cls-9 {
        stroke: #556a8a;
      }

      .cls-2, .cls-3, .cls-4, .cls-5, .cls-9 {
        stroke-miterlimit: 10;
        stroke-width: 2px;
      }

      .cls-3, .cls-4, .cls-5, .cls-7 {
        fill: #fff;
      }

      .cls-4 {
        stroke: #00bcf2;
      }

      .cls-5 {
        stroke: #7750a3;
      }

      .cls-6 {
        fill: #9273b6;
      }

      .cls-9 {
        fill: none;
      }

      .cls-10 {
        fill: #008272;
      }
    </style>
  </defs>
  <title>bcs-partner-advanced-management- add-group-5</title>
  <g id="ICONS">
    <path class="cls-1" d="M258.77,52.72a43.25,43.25,0,0,0-85.48-1.37A29.37,29.37,0,0,0,126,66.46a25.54,25.54,0,0,0-6.12-.77,26,26,0,0,0,0,52H264.78c14.7-3,25.77-16.76,25.77-32.48A32.34,32.34,0,0,0,258.77,52.72Z"/>
    <g>
      <circle class="cls-2" cx="217.62" cy="46.5" r="16.5"/>
      <path class="cls-2" d="M242.62,87c0-13.25-11.19-24-25-24s-25,10.75-25,24"/>
    </g>
    <g>
      <circle class="cls-3" cx="186.62" cy="66.5" r="16.5"/>
      <path class="cls-3" d="M211.62,107c0-13.25-11.19-24-25-24s-25,10.75-25,24"/>
    </g>
    <path class="cls-4" d="M295,34.32V34a11.57,11.57,0,0,0-.37-2.87,10.41,10.41,0,0,0-17.1-7.39A12,12,0,0,0,267.43,19c-7.62,0-13.36,6.65-13.49,14.13,0,.52.13.9.13,1.42-4,1.94-6.32,5.29-6.32,9.55a11.44,11.44,0,0,0,11.14,11.32c.44,5.27,13.18,11.64,23.6,4.1a13.46,13.46,0,0,0,6.37,1.74c7.67,0,13.89-6.8,13.89-14.47A13.89,13.89,0,0,0,295,34.32Z"/>
    <circle class="cls-5" cx="252.62" cy="85" r="20"/>
    <path class="cls-6" d="M149.28,73.46a.9.9,0,0,0,.86.54l1.82-.19a.9.9,0,0,0,.68-1l-.06-2.25c-.11-.6,0-1.15,1.72-2.15a1.57,1.57,0,0,1,1.55.09L158,69.7a1.06,1.06,0,0,0,1-.18l1.25-1.58a.94.94,0,0,0-.31-1.12l-1.7-1.63a1.14,1.14,0,0,1-.33-1.4s.49-2.27,1.44-2.44l2.09-.49a1.12,1.12,0,0,0,.68-1l-.34-2a.69.69,0,0,0-.81-.55h-.05l-2.26.07c-.6.09-1.88-1.49-2.15-1.76a2.25,2.25,0,0,1,0-1.69l1.21-1.86a1,1,0,0,0-.18-1.26l-1.58-.94a.9.9,0,0,0-1.13,0l-1.48,1.86c-.37.45-1.08.88-2.68.23,0,0-1.18-.69-1.32-1.25l-.46-2.36a.9.9,0,0,0-.86-.54l-2,.34a.69.69,0,0,0-.51.84v0l-.07,2.39c0,.84-1.36,1.73-1.64,2a1.48,1.48,0,0,1-1.69,0l-2-1.34a1.1,1.1,0,0,0-1.12.31l-1.25,1.58a1.24,1.24,0,0,0,.31,1.12l1.74,1.64c1,.76.41,1.87.21,2.67-.09.43-.26.86-1.24,1l-2.24.63A.9.9,0,0,0,136,62l.34,2a.9.9,0,0,0,.72.68l2.39-.2c.84,0,1.14.24,1.29.67a12.6,12.6,0,0,1,.73,1.25,1.26,1.26,0,0,1,.18,1.51l-1.34,2a1.09,1.09,0,0,0,.31,1.11l1.44,1.09a.9.9,0,0,0,1.13,0l1.5-1.87a1.43,1.43,0,0,1,1.53-.45l1.28.38c.56,0,.86.26,1.15,1.09l.62,2.23m4.57-13.22a5,5,0,0,1-4.07,5.46,4.6,4.6,0,0,1-5.4-3.63q0-.22-.06-.44a4.72,4.72,0,0,1,3.93-5.32,4.79,4.79,0,0,1,5.6,3.8l0,.12"/>
    <g>
      <path class="cls-7" d="M149.86,90.8c0-.35-.58-1.06-1.62-1.1l-4-.26A1.91,1.91,0,0,1,142.35,88s-1.84-3.45-.79-4.7l2.15-2.9a1.85,1.85,0,0,0-.22-2l-2.56-2.16a1.17,1.17,0,0,0-1.64.18s0,0,0,.07L136.42,79a2.26,2.26,0,0,1-2.71.52c-.68,0-1.32-.4-2-.44a3.78,3.78,0,0,1-1.84-2.18l-.46-3.71a1.7,1.7,0,0,0-1.6-1.41l-3,.5a1.5,1.5,0,0,0-1.41,1.27l.12,4c0,1-.15,2.67-3.19,3.2,0,0-2.27.4-3-.16l-3.16-2.54a1.48,1.48,0,0,0-1.68.25l-.24.28-1.91,2.28a1.17,1.17,0,0,0,.25,1.63l0,0,2.5,3.15c1.44,1.42.13,3.69.08,4.35A2.47,2.47,0,0,1,111,91.91l-4,.47A1.84,1.84,0,0,0,105.9,94l.11,3.37a2.07,2.07,0,0,0,1.61,1.11l4,.21c1.33.07,2.27.42,3.17,3.2.35.66.6,1.4-.49,2.65l-2.18,3.24a1.54,1.54,0,0,0,.24,1.7l2.57,2.15a1.5,1.5,0,0,0,1.66.09l2.85-2.85c1-1,3.92,0,4.67.27a2.1,2.1,0,0,1,1.85,1.74l.48,4A1.83,1.83,0,0,0,128,116l3-.16a1.5,1.5,0,0,0,1.41-1.27l-.1-4c0-1,4.66-4,6.2-3l1.75,1,2,1.13c.57.28.76.18,1.22-.23l2.13-2.23a1.52,1.52,0,0,0-.23-2l-2.51-2.82c-.78-.64-.37-3-.12-4.63a2.3,2.3,0,0,1,2.09-1.57l4.07-.78C150.53,94.91,149.86,90.8,149.86,90.8Zm-26.68,9.56c-.19-.16-.38-.32-.56-.49A7.72,7.72,0,0,1,121.84,89s0,0,.06-.08a8.12,8.12,0,0,1,11.3-1.17l.16.12,0,0a8.09,8.09,0,0,1,.7,11.24,7.64,7.64,0,0,1-1.33,1.28A7.82,7.82,0,0,1,123.18,100.36Z"/>
      <path class="cls-8" d="M148.94,95.44l-4.07.78a2.3,2.3,0,0,0-2.09,1.57c-.25,1.62-.66,4,.12,4.63l2.51,2.82a1.52,1.52,0,0,1,.23,2l-2.13,2.23c-.46.41-.65.51-1.22.23l-2-1.13-7.63-8.14A7.64,7.64,0,0,0,134,99.18a8.09,8.09,0,0,0-.7-11.24l0,0-.16-.12A8.12,8.12,0,0,0,121.9,89s0,.05-.06.08l-9.65-10.45.24-.28a1.48,1.48,0,0,1,1.68-.25l3.16,2.54c.78.56,3,.16,3,.16,3-.53,3.2-2.21,3.19-3.2l-.12-4a1.5,1.5,0,0,1,1.41-1.27l3-.5a1.7,1.7,0,0,1,1.6,1.41l.46,3.71a3.78,3.78,0,0,0,1.84,2.18c.64,0,1.28.4,2,.44a2.26,2.26,0,0,0,2.71-.52l2.82-2.54s0,0,0-.07a1.17,1.17,0,0,1,1.64-.18l2.56,2.16a1.85,1.85,0,0,1,.22,2l-2.15,2.9c-1.05,1.25.79,4.7.79,4.7a1.91,1.91,0,0,0,1.94,1.43l4,.26c1,0,1.64.75,1.62,1.1C149.86,90.8,150.53,94.91,148.94,95.44Z"/>
      <path class="cls-9" d="M142.29,109.73c.56.27.76.18,1.21-.24l2.13-2.22a1.51,1.51,0,0,0-.22-2l-2.51-2.82c-.79-.64-.37-3-.12-4.63a2.29,2.29,0,0,1,2.09-1.57l4.07-.78c1.59-.53.92-4.65.92-4.65,0-.34-.58-1.06-1.61-1.1l-4-.24c-.91,0-3.77-4.89-2.73-6.14l2.16-2.9a1.88,1.88,0,0,0-.22-2l-2.56-2.15a1.16,1.16,0,0,0-1.64.18l-.05.07L136.42,79c-.68.77-6.2-1.16-6.51-2.09l-.46-3.71a1.71,1.71,0,0,0-1.6-1.42l-3,.5a1.51,1.51,0,0,0-1.41,1.27l.12,4c0,1-.15,2.65-3.19,3.19,0,0-2.27.4-3.05-.17l-3.15-2.54a1.51,1.51,0,0,0-1.69.25l-2.15,2.56a1.16,1.16,0,0,0,.26,1.63l0,0,2.5,3.15c1.44,1.42.13,3.7.07,4.35A2.48,2.48,0,0,1,111,91.91l-4,.47a1.85,1.85,0,0,0-1.1,1.61l.12,3.38a2.09,2.09,0,0,0,1.61,1.1l4,.22c1.33.07,2.27.42,3.17,3.2.35.65.6,1.39-.48,2.66l-2.18,3.24a1.51,1.51,0,0,0,.25,1.69l2.56,2.15a1.51,1.51,0,0,0,1.67.09l2.84-2.85c1.05-.95,6.37,1.08,6.53,2l.47,4a1.83,1.83,0,0,0,1.61,1.09l3-.16a1.51,1.51,0,0,0,1.41-1.27l-.1-4c0-1,4.66-4,6.2-3Z"/>
      <circle class="cls-9" cx="127.99" cy="94.09" r="8"/>
    </g>
    <rect class="cls-10" x="249" y="71" width="6" height="28"/>
    <rect class="cls-10" x="249" y="71" width="6" height="28" transform="translate(167 337) rotate(-90)"/>
  </g>
</svg>
