<svg id="ICONS" xmlns="http://www.w3.org/2000/svg" viewBox="0 0 400 140">
  <defs>
    <style>
      .cls-1 {
        fill: #aae9fb;
      }

      .cls-2 {
        fill: #556a8a;
      }

      .cls-3 {
        fill: #adbdca;
      }

      .cls-10, .cls-11, .cls-4, .cls-8 {
        fill: #fff;
      }

      .cls-5 {
        fill: #e5e5e5;
      }

      .cls-13, .cls-6 {
        fill: none;
      }

      .cls-11, .cls-6 {
        stroke: #556a8a;
        stroke-miterlimit: 10;
      }

      .cls-11, .cls-13, .cls-6 {
        stroke-width: 2px;
      }

      .cls-7 {
        fill: #59b4d9;
      }

      .cls-8 {
        opacity: 0.5;
      }

      .cls-10, .cls-8 {
        isolation: isolate;
      }

      .cls-9 {
        fill: #b8d432;
      }

      .cls-10 {
        opacity: 0.1;
      }

      .cls-12 {
        fill: #9273b6;
      }

      .cls-13 {
        stroke: #fff;
        stroke-linecap: round;
        stroke-linejoin: round;
        fill-rule: evenodd;
      }
    </style>
  </defs>
  <title>bcs-partner-advanced-management-windows10pc-3</title>
  <rect class="cls-1" x="27.5" y="26" width="345" height="14"/>
  <rect class="cls-1" x="27.5" y="53" width="345" height="14"/>
  <rect class="cls-1" x="27.5" y="80" width="345" height="14"/>
  <polygon class="cls-2" points="244.75 127 127.75 127 135.07 119 237.9 119 244.75 127"/>
  <polygon class="cls-3" points="233.75 125 138.75 125 142.09 121 230.51 121 233.75 125"/>
  <polygon class="cls-2" points="211.75 108.5 159.75 108.5 153.75 114.5 217.75 114.5 211.75 108.5"/>
  <polygon class="cls-2" points="189.25 112 182.25 112 183.65 98 187.85 98 189.25 112"/>
  <rect class="cls-4" x="110.75" y="18" width="151" height="82" rx="4" ry="4"/>
  <path class="cls-5" d="M261.25,22V34h-151V22a4,4,0,0,1,4-4h143A4,4,0,0,1,261.25,22Z"/>
  <rect class="cls-6" x="110" y="18" width="151" height="82" rx="4" ry="4" transform="translate(371 118) rotate(180)"/>
  <g>
    <path class="cls-7" d="M184,92a5.49,5.49,0,0,1-3.91-1.62L155.62,65.91a5.53,5.53,0,0,1,0-7.83l24.47-24.47a5.53,5.53,0,0,1,7.83,0l24.46,24.47a5.53,5.53,0,0,1,0,7.83L187.91,90.38A5.49,5.49,0,0,1,184,92"/>
    <path class="cls-4" d="M200.34,57.31a4.68,4.68,0,0,0-3.92,7.26l-9.29,9.29a5.46,5.46,0,0,0-.79-.45V49.71a4.69,4.69,0,1,0-4.68,0V73.42a5.38,5.38,0,0,0-.76.42l-9.3-9.3a4.82,4.82,0,1,0-2.41,1.88L179,76.2a5.46,5.46,0,1,0,10.06,0l9.81-9.81a4.64,4.64,0,0,0,1.49.26,4.69,4.69,0,0,0,0-9.38Z"/>
    <rect class="cls-8" x="191.21" y="41.87" width="3.03" height="24.81" transform="translate(18.08 152.2) rotate(-45.01)"/>
    <rect class="cls-8" x="162.89" y="52.78" width="24.81" height="3.03" transform="translate(12.95 139.86) rotate(-45)"/>
    <path class="cls-9" d="M187.2,78.34a3.25,3.25,0,1,1-3.25-3.25,3.25,3.25,0,0,1,3.25,3.25"/>
    <path class="cls-9" d="M186.61,45.67A2.61,2.61,0,1,1,184,43.06a2.61,2.61,0,0,1,2.61,2.61"/>
    <path class="cls-9" d="M170.28,62a2.61,2.61,0,1,1-2.61-2.61A2.61,2.61,0,0,1,170.28,62"/>
    <path class="cls-9" d="M202.95,62a2.61,2.61,0,1,1-2.61-2.61A2.61,2.61,0,0,1,202.95,62"/>
    <path class="cls-10" d="M187.91,33.62a5.53,5.53,0,0,0-7.83,0L155.62,58.09a5.53,5.53,0,0,0,0,7.83l13.85,13.85,26.06-38.53Z"/>
  </g>
  <g>
    <path class="cls-11" d="M232.11,91.63l4.47.67a17.31,17.31,0,0,0,.46,3l-3.69,2.38a1.17,1.17,0,0,0-.66,1.59L233.8,102a1,1,0,0,0,1.43.49l4.49-.94,1.42,2.42-2.58,3.5a1.19,1.19,0,0,0,0,1.6l2.22,2.26a1.44,1.44,0,0,0,1.6,0l3.53-2.53c.8.48,1.76,1.12,2.55,1.61l-1,4.47a1.1,1.1,0,0,0,.62,1.29l2.72,1.13a1,1,0,0,0,1.45-.46l2.43-4a9.35,9.35,0,0,0,2.87.67l.61,4.48a1.1,1.1,0,0,0,1.11,1.13l3-.15c.48.16,1-.32,1.12-.79l.84-4.64a9.64,9.64,0,0,0,2.88-.61l2.38,4a1.59,1.59,0,0,0,1.43.49l2.89-1.26a1.09,1.09,0,0,0,.65-1.27l-1.1-4.34a5.66,5.66,0,0,0,.62-.42c.13-.09.27-.19.4-.3.47-.35.94-.74,1.4-1l3.66,2.74a1,1,0,0,0,1.44-.15l1.34-1.32.75-.75,0,0a1,1,0,0,0,.14-1.41l-2.69-3.7a13.13,13.13,0,0,0,1.78-2.71l4.46,1.3a1.42,1.42,0,0,0,1.46-.78l1.13-2.72a1.39,1.39,0,0,0-.62-1.6l-3.83-2.27c.33-1,.33-1.92.66-2.87L290,92a1.42,1.42,0,0,0,1-1.28V87.83a1.36,1.36,0,0,0-.93-1.29L285.42,86a18.27,18.27,0,0,0-.61-3.21l4-2.37a1,1,0,0,0,.5-1.44l-1.11-2.72a1.49,1.49,0,0,0-1.43-.81l-4.5,1.25c-.47-.8-.94-1.61-1.42-2.41l2.75-3.66a1.48,1.48,0,0,0-.16-1.44L281.23,67a1.2,1.2,0,0,0-1.43-.17l-3.7,2.71c-.8-.5-1.75-1.14-2.55-1.62l1-4.48a1.07,1.07,0,0,0-.62-1.28L271,60.82a1.38,1.38,0,0,0-1.45.47l-2.26,3.84c-1,0-1.92-.33-2.88-.35L264,60.14a1.4,1.4,0,0,0-1.28-1l-3-.18a1.87,1.87,0,0,0-1.12,1.1l-.68,4.49c-1.12.15-2.08.47-3.2.61l-2.21-3.85a1.11,1.11,0,0,0-1.44-.49L248.32,62a1.3,1.3,0,0,0-.82,1.43l1.1,4.33a10.34,10.34,0,0,0-2.41,1.75l-3.67-2.75a1.07,1.07,0,0,0-1.61,0L239,68.63l-.17.16a1.09,1.09,0,0,0,0,1.6l2.69,3.7a7.16,7.16,0,0,0-1.37,1.85l-.12.22c-.1.2-.2.41-.29.63l-4.47-1.3a1.09,1.09,0,0,0-1.28.62L232.68,79a1.63,1.63,0,0,0,.47,1.45l4,2.42a7.93,7.93,0,0,0-.51,2.72l-4.65.76c-.47.17-1,.64-1,1l0,3.2A1.08,1.08,0,0,0,232.11,91.63Z"/>
    <path class="cls-12" d="M247.16,83.3A15,15,0,1,1,246,89.15,14.82,14.82,0,0,1,247.16,83.3Z"/>
    <polyline class="cls-13" points="250.24 89.26 257.99 97.01 272.24 82.76"/>
  </g>
</svg>
