<svg id="Illustrations" xmlns="http://www.w3.org/2000/svg" viewBox="0 0 400 140">
  <defs>
    <style>
      .cls-1, .cls-14, .cls-5 {
        fill: #fff;
      }

      .cls-1, .cls-6 {
        stroke: #556a8a;
      }

      .cls-1, .cls-12, .cls-14, .cls-6 {
        stroke-miterlimit: 10;
        stroke-width: 2px;
      }

      .cls-2 {
        fill: #80def9;
        opacity: 0.7;
      }

      .cls-3 {
        fill: #556a8a;
      }

      .cls-4 {
        fill: #e5e5e5;
      }

      .cls-5 {
        opacity: 0.8;
      }

      .cls-12, .cls-6, .cls-7 {
        fill: none;
      }

      .cls-8 {
        fill: #7750a3;
      }

      .cls-9 {
        fill: #9273b6;
      }

      .cls-10 {
        fill: #2bc7f4;
      }

      .cls-11 {
        fill: #ababab;
      }

      .cls-12 {
        stroke: #ababab;
      }

      .cls-13 {
        fill: #55d2f6;
      }

      .cls-14 {
        stroke: #00bcf2;
      }

      .cls-15 {
        fill: #3a96dd;
      }

      .cls-16 {
        fill: #e6e6e6;
      }

      .cls-17 {
        fill: #f2f2f2;
      }

      .cls-18 {
        fill: #bad80a;
      }
    </style>
  </defs>
  <title>ms365enterprise-partner-news-2</title>
  <g>
    <path class="cls-1" d="M116.21,115h0Z"/>
    <path class="cls-2" d="M185.9,67.69a39.37,39.37,0,0,1,77.71-1.23,26.79,26.79,0,0,1,43,13.62,23.42,23.42,0,1,1,5.56,46.16H180.43C167.06,123.52,157,111.12,157,97A29.27,29.27,0,0,1,185.9,67.69Z"/>
    <path class="cls-2" d="M80.75,41.86a33.72,33.72,0,0,1,66.56-1.06,22.95,22.95,0,0,1,36.86,11.66A20.06,20.06,0,1,1,188.93,92H76.07C64.62,89.68,56,79.06,56,66.93A25.07,25.07,0,0,1,80.75,41.86Z"/>
    <g>
      <g>
        <path class="cls-3" d="M126,21.43H112.21c-1.36,0-3.21,1.11-3.21,2.47v84c0,5.06,1.35,7.07,5.16,7.07,5.42,0,11.84-9.35,11.84-19.83Z"/>
        <path class="cls-4" d="M230,17v88.6c0,6.5-2,9.39-9.19,9.39H113c1.21,0,8-.71,8-7.1,0-6.72-.06-75.29,0-90.89Z"/>
        <polygon class="cls-5" points="230 17 230 86 158.48 17 230 17"/>
        <path class="cls-6" d="M121,17c-.06,15.6,0,84.17,0,90.89,0,6.39-6.79,7.05-8,7.1H220.81c7.23,0,9.19-2.89,9.19-9.39V17Z"/>
        <rect class="cls-7" x="108" y="-1" width="128" height="128" transform="translate(344 126) rotate(-180)"/>
      </g>
      <rect class="cls-8" x="135" y="32" width="78" height="8"/>
      <rect class="cls-9" x="135" y="74" width="48" height="8"/>
      <rect class="cls-10" x="135" y="47" width="29" height="20"/>
      <rect class="cls-11" x="190" y="74" width="23" height="27"/>
      <line class="cls-12" x1="170" y1="48" x2="212" y2="48"/>
      <line class="cls-12" x1="171" y1="66" x2="213" y2="66"/>
      <line class="cls-12" x1="136" y1="90" x2="183" y2="90"/>
      <line class="cls-12" x1="136" y1="99" x2="183" y2="99"/>
      <line class="cls-12" x1="170" y1="57" x2="212" y2="57"/>
      <polygon class="cls-13" points="164 47 164 64 147 47 164 47"/>
    </g>
  </g>
  <path class="cls-14" d="M310.65,59.88a16.11,16.11,0,0,0-2.9-4.86,22.4,22.4,0,0,0-6.16-5.45V49A18.08,18.08,0,0,0,283.54,31.2,17.75,17.75,0,0,0,274,33.87a24.17,24.17,0,0,0-19.4-9.81A23.79,23.79,0,0,0,230.7,47.47c0,.89.22,1.56.22,2.45C224,53.27,220,59.06,220,66.42c0,10.52,8.27,18.94,19.23,19.56,1,7.3,10.21,13,21.42,13,9.55,0,17.64-4.15,20.45-9.9a22.31,22.31,0,0,0,29.54-29.23Z"/>
  <path class="cls-3" d="M239.3,72.9h3.41l-.09-18H239.3c-2.2,0-4.65,4.35-4.62,9S237.1,72.92,239.3,72.9Z"/>
  <path class="cls-15" d="M237.26,64c0-5,1.74-9,3.94-9A14,14,0,0,1,243,55c1.91.67,2.25,4.46,2.27,8.93s.22,8.36-1.72,9c-.17.05-2,0-2.22,0C239.09,73,237.28,69,237.26,64Z"/>
  <path class="cls-6" d="M261,67.65h-2.7a7.65,7.65,0,1,0,0,15.3H261a7.65,7.65,0,1,0,0-15.3Z"/>
  <path class="cls-16" d="M281.69,64v-.08c0-8.74,1-15.81,3-19-3.7,1.91-12.29,4.88-22.83,7.61-5,1.3-19.12,3.36-19.17,3.39-1.53,1.53-1.9,5.59-2,7.37,0,.27,0,.48,0,.63,0,1.13.24,6.24,2,8,0,0,14.21,2.09,19.17,3.39,10.54,2.73,19.13,5.7,22.83,7.61-1.6-2.54-2.56-7.62-2.87-14.07C281.73,67.32,281.69,65.69,281.69,64Z"/>
  <g>
    <path class="cls-17" d="M284.67,82.95c-3.7-1.91-12.29-4.88-22.83-7.61-5-1.3-19.12-3.36-19.17-3.39-1.76-1.76-2-8.36-1.65-7.8,0,0,12,1.55,18.65,2.8s22,6,22,6C281.65,78.57,283.07,80.41,284.67,82.95Z"/>
    <path class="cls-6" d="M281.69,63.95v0c0-8,.83-14.61,2.5-18.08.15-.32-.38,0-.21-.3-.47.24.81-.56.19-.28a168.81,168.81,0,0,1-22.33,7.31c-5,1.3-19.12,3.36-19.17,3.39-1.76,1.76-2,6.87-2,8s.24,6.24,2,8c.05,0,14.21,2.09,19.17,3.39,10.54,2.73,17.5,5.11,21.2,7-.25-.39,1,.61.75.09-1.52-3.58-2.1-10.83-2.1-18.47Z"/>
    <path class="cls-18" d="M293.2,64c0,8.33-2.32,15.48-4.24,18.7-.68,1.15-1.45,1.8-2.25,1.8a2.59,2.59,0,0,1-2-1.36c-1.58-2.27-2.81-7.18-3.29-13.28-.15-1.86-.23-3.82-.23-5.86s.08-4,.23-5.9c.49-6.08,1.71-11,3.29-13.23a2.58,2.58,0,0,1,2-1.37c.8,0,1.57.64,2.25,1.81C290.88,48.5,293.2,55.66,293.2,64Z"/>
    <path class="cls-3" d="M288.67,63.95a6,6,0,0,1-6,6,6.09,6.09,0,0,1-1.22-.12c-.15-1.86-.23-3.82-.23-5.86s.08-4,.23-5.9a6.08,6.08,0,0,1,1.22-.12A6,6,0,0,1,288.67,63.95Z"/>
    <path class="cls-6" d="M293.2,64c0,8.33-2.32,15.48-4.24,18.7-.68,1.15-1.45,1.8-2.25,1.8a2.57,2.57,0,0,1-2-1.36c-2.06-3-3.52-10.4-3.52-19.14s1.46-16.17,3.52-19.13a2.59,2.59,0,0,1,2-1.37c.8,0,1.57.65,2.25,1.81C290.88,48.49,293.2,55.66,293.2,64Z"/>
  </g>
  <line class="cls-6" x1="297.2" y1="63.47" x2="320.2" y2="63.47"/>
  <line class="cls-6" x1="297.42" y1="56.47" x2="317.2" y2="44.73"/>
  <line class="cls-6" x1="317.2" y1="82.21" x2="297.42" y2="70.47"/>
</svg>
