<svg id="Illustrations" xmlns="http://www.w3.org/2000/svg" viewBox="0 0 400 140">
  <defs>
    <style>
      .cls-1, .cls-5 {
        fill: #fff;
      }

      .cls-2 {
        fill: #80def9;
        opacity: 0.7;
      }

      .cls-3, .cls-6 {
        fill: none;
        stroke-miterlimit: 10;
        stroke-width: 2px;
      }

      .cls-3 {
        stroke: #556a8a;
      }

      .cls-4 {
        fill: #556a8a;
      }

      .cls-5 {
        opacity: 0.2;
      }

      .cls-6 {
        stroke: #868787;
      }

      .cls-7 {
        fill: #e5e5e5;
      }

      .cls-8 {
        fill: #bad80a;
      }
    </style>
  </defs>
  <title>ms365enterprise-partner-resource-training-1</title>
  <g>
    <path class="cls-1" d="M287,26v76a2,2,0,0,1-2,2H167a2,2,0,0,1-2-2V26a2,2,0,0,1,2-2H285A2,2,0,0,1,287,26Z"/>
    <path class="cls-2" d="M180,25v79H167a2,2,0,0,1-1-.29V25Z"/>
    <path class="cls-2" d="M273,25v79h13a2,2,0,0,0,1-.29V25Z"/>
    <rect class="cls-3" x="165.04" y="24" width="122" height="80" rx="2" ry="2"/>
    <rect class="cls-4" x="159" y="21" width="135" height="5"/>
    <path class="cls-4" d="M101,92.93V131.5h11.09c1.54-13.16,3.6-30.57,3.94-32.83.43-2.76,4.7-2.76,5.12,0,.35,2.26,2.74,19.67,4.45,32.83H136v-41h6l-.33-12.33L141,53l8.42,2.19a4.54,4.54,0,0,0,1.93.25,4.49,4.49,0,0,0,1.48-.38l19-9.45a4.54,4.54,0,1,0-3.75-8.27l-16.63,6.83-15.9-4.68c-.93-.28-1.91-.57-2.94-.86l0,0c-2.06-.58-4.18-1.16-5.79-1.59l-2.7-.72-6,12.48H118l-6-12.48s-5.77,1.3-9.89,2.39l-1.63.44A8.84,8.84,0,0,0,95,43.48a11.43,11.43,0,0,0-1.28,4.42c-.61,6.36-.6,20.59-1.12,26.31-.19,2-.2,8.56,2.07,11.48A88.76,88.76,0,0,0,101,92.93Z"/>
    <path class="cls-5" d="M171.84,45.58l-19,9.45a4.49,4.49,0,0,1-1.48.38,4.54,4.54,0,0,1-1.93-.25L141,53l.67,25.2L142,90.5l-47-47a8.84,8.84,0,0,1,5.55-4.38l1.63-.44c4.12-1.09,9.89-2.39,9.89-2.39l6,12.48h.1l6-12.48,2.7.72c1.61.43,3.73,1,5.79,1.59l0,0c1,.29,2,.58,2.94.86l15.9,4.68,16.63-6.83a4.54,4.54,0,1,1,3.75,8.27Z"/>
    <ellipse class="cls-4" cx="117.98" cy="20.96" rx="10" ry="12.46"/>
    <g>
      <path class="cls-4" d="M200.36,50h-1.44V39.11a3.34,3.34,0,0,1-.49.38,8,8,0,0,1-.72.43q-.4.21-.84.4a6.13,6.13,0,0,1-.87.29V39.15a8.37,8.37,0,0,0,1-.36q.53-.22,1-.5t1-.58a7.71,7.71,0,0,0,.79-.59h.54Z"/>
      <path class="cls-4" d="M201.88,58.7a2.62,2.62,0,0,0-.18-1,2,2,0,0,0-1.23-1.14,2.87,2.87,0,0,0-.91-.14,3,3,0,0,0-.83.11,4,4,0,0,0-.79.32,4.94,4.94,0,0,0-.74.48,5.4,5.4,0,0,0-.66.62V56.4a4.3,4.3,0,0,1,1.36-.9,4.78,4.78,0,0,1,1.83-.31,4.42,4.42,0,0,1,1.43.22,3.28,3.28,0,0,1,1.14.65,3,3,0,0,1,.76,1.06,3.6,3.6,0,0,1,.28,1.45,5,5,0,0,1-.17,1.35,4.22,4.22,0,0,1-.52,1.14,5.51,5.51,0,0,1-.87,1,12.39,12.39,0,0,1-1.24,1q-.89.63-1.46,1.08a6.36,6.36,0,0,0-.91.84,2.4,2.4,0,0,0-.47.78,2.71,2.71,0,0,0-.14.9h6.28V68h-7.78v-.62a5.2,5.2,0,0,1,.18-1.42,3.7,3.7,0,0,1,.58-1.17,6.45,6.45,0,0,1,1.06-1.11q.65-.55,1.6-1.25a10,10,0,0,0,1.15-.94,4.85,4.85,0,0,0,.74-.9,3.19,3.19,0,0,0,.4-.91A3.88,3.88,0,0,0,201.88,58.7Z"/>
      <path class="cls-4" d="M203.47,83.43a3.67,3.67,0,0,1-.32,1.55,3.43,3.43,0,0,1-.9,1.2,4.19,4.19,0,0,1-1.4.77,5.67,5.67,0,0,1-1.8.27,5.24,5.24,0,0,1-2.87-.69V85a4.59,4.59,0,0,0,2.92,1,4,4,0,0,0,1.19-.17,2.66,2.66,0,0,0,.91-.48,2.15,2.15,0,0,0,.59-.76,2.4,2.4,0,0,0,.21-1q0-2.47-3.52-2.47h-1V79.87h1q3.11,0,3.11-2.32,0-2.14-2.37-2.14a4,4,0,0,0-2.5.9v-1.4a5.48,5.48,0,0,1,2.87-.72,4.4,4.4,0,0,1,1.43.22,3.28,3.28,0,0,1,1.1.62,2.71,2.71,0,0,1,.71.95,2.91,2.91,0,0,1,.25,1.22,3.08,3.08,0,0,1-2.51,3.2v0a4,4,0,0,1,1.19.31,3.17,3.17,0,0,1,.94.63,2.82,2.82,0,0,1,.62.91A2.92,2.92,0,0,1,203.47,83.43Z"/>
      <line class="cls-6" x1="212" y1="45" x2="245" y2="45"/>
      <line class="cls-6" x1="212" y1="62" x2="245" y2="62"/>
      <line class="cls-6" x1="212" y1="79" x2="245" y2="79"/>
    </g>
    <g>
      <rect class="cls-4" x="252" y="83.57" width="2" height="25" rx="0.5" ry="0.5"/>
      <path class="cls-1" d="M307,84.5,278,73.57,249,84.5l9,4v15.74c0,5.56,9.16,10.26,20,10.26s20-4.7,20-10.26V88.5Z"/>
      <polygon class="cls-7" points="249.52 84.5 278.52 73.57 306.52 84.5 278.52 96.5 249.52 84.5"/>
      <polygon class="cls-8" points="299.09 88.18 278.52 96.94 259.09 88.73 258.82 93.27 278.52 101.6 299.09 92.91 299.09 88.18"/>
      <path class="cls-3" d="M308,84.5,279,73.57,250,84.5l9,4v15.74c0,5.56,9.16,10.26,20,10.26s20-4.7,20-10.26V88.5Z"/>
      <path class="cls-4" d="M251,109v-4c0-2.2.72-4,1.6-4h.8c.88,0,1.6,1.8,1.6,4v4Z"/>
      <polyline class="cls-3" points="257.73 87.91 278.52 96.5 301.27 87.45"/>
    </g>
  </g>
</svg>
