<svg id="b9b1f1bd-1131-4ac5-b607-ad500ee51398" data-name="fluent_icons" xmlns="http://www.w3.org/2000/svg" xmlns:xlink="http://www.w3.org/1999/xlink" width="18" height="18" viewBox="0 0 18 18">
  <defs>
    <linearGradient id="b0b22e7a-bfc7-4dec-91e9-5f981ed97407" x1="8.55" y1="0.41" x2="8.48" y2="18.62" gradientUnits="userSpaceOnUse">
      <stop offset="0" stop-color="#76bc2d" />
      <stop offset="0.32" stop-color="#73b82c" />
      <stop offset="0.65" stop-color="#6cab29" />
      <stop offset="0.99" stop-color="#5e9724" />
      <stop offset="1" stop-color="#5e9624" />
    </linearGradient>
    <linearGradient id="e827adc5-7c19-488a-9b2c-abb70d46ae5e" x1="14.75" y1="5.9" x2="14.75" y2="1.1" gradientTransform="translate(18.1 -11.21) rotate(90)" gradientUnits="userSpaceOnUse">
      <stop offset="0" stop-color="#0078d4" />
      <stop offset="0.17" stop-color="#1c84dc" />
      <stop offset="0.38" stop-color="#3990e4" />
      <stop offset="0.59" stop-color="#4d99ea" />
      <stop offset="0.8" stop-color="#5a9eee" />
      <stop offset="1" stop-color="#5ea0ef" />
    </linearGradient>
  </defs>
  <title>Icon-general-18</title>
  <path d="M6.27,13.29h4.49v4.49H6.27ZM1,3.43V7.3h4.5V2.81H1.65A.63.63,0,0,0,1,3.43ZM1,17.16a.63.63,0,0,0,.63.62H5.52V13.29H1Zm0-4.62h4.5V8.05H1Zm10.49,5.24h3.87a.62.62,0,0,0,.62-.62V13.29H11.51ZM6.27,12.54h4.49V8.05H6.27Zm5.24-4.49v4.49H16V8.05ZM6.27,7.3h4.49V2.81H6.27Z" fill="url(#b0b22e7a-bfc7-4dec-91e9-5f981ed97407)" />
  <rect x="12.2" y="1.14" width="4.8" height="4.8" rx="0.25" transform="translate(5.14 15.21) rotate(-64.59)" fill="url(#e827adc5-7c19-488a-9b2c-abb70d46ae5e)" />
</svg>