<svg width="16" height="18" viewBox="0 0 16 18" fill="none" xmlns="http://www.w3.org/2000/svg">
<path d="M15.875 4.50879C15.875 4.70801 15.8428 4.9043 15.7783 5.09766C15.7197 5.28516 15.6348 5.46094 15.5234 5.625C15.4121 5.7832 15.2773 5.92383 15.1191 6.04688C14.9668 6.16992 14.7969 6.2666 14.6094 6.33691L11.375 7.56738V10.2656C11.375 10.2832 11.416 10.4062 11.498 10.6348C11.5801 10.8633 11.6826 11.1504 11.8057 11.4961C11.9346 11.8359 12.0723 12.2109 12.2188 12.6211C12.3711 13.0254 12.5146 13.415 12.6494 13.79C12.79 14.1592 12.9102 14.4873 13.0098 14.7744C13.1152 15.0615 13.1855 15.2549 13.2207 15.3545C13.2559 15.4658 13.2852 15.5771 13.3086 15.6885C13.332 15.7998 13.3438 15.9141 13.3438 16.0312C13.3438 16.3066 13.291 16.5645 13.1855 16.8047C13.0859 17.0391 12.9453 17.2471 12.7637 17.4287C12.582 17.6045 12.3711 17.7451 12.1309 17.8506C11.8906 17.9502 11.6357 18 11.3662 18C11.1611 18 10.9619 17.9707 10.7686 17.9121C10.5811 17.8477 10.4053 17.7598 10.2412 17.6484C10.0771 17.5312 9.93359 17.3936 9.81055 17.2354C9.6875 17.0713 9.59082 16.8926 9.52051 16.6992L8 12.5068L6.4707 16.6992C6.40039 16.8984 6.30371 17.0771 6.18066 17.2354C6.05762 17.3936 5.91406 17.5312 5.75 17.6484C5.5918 17.7598 5.41602 17.8477 5.22266 17.9121C5.03516 17.9707 4.83594 18 4.625 18C4.35547 18 4.10059 17.9502 3.86035 17.8506C3.62012 17.7451 3.40918 17.6045 3.22754 17.4287C3.05176 17.2471 2.91113 17.0361 2.80566 16.7959C2.70605 16.5557 2.65625 16.3008 2.65625 16.0312C2.65625 15.9141 2.66797 15.7998 2.69141 15.6885C2.71484 15.5771 2.74414 15.4658 2.7793 15.3545C2.80273 15.2783 2.84668 15.1494 2.91113 14.9678C2.98145 14.7861 3.06055 14.5723 3.14844 14.3262C3.24219 14.0742 3.3418 13.8018 3.44727 13.5088C3.55859 13.2158 3.66699 12.9229 3.77246 12.6299C3.88379 12.3311 3.98926 12.0439 4.08887 11.7686C4.19434 11.4873 4.28516 11.2383 4.36133 11.0215C4.44336 10.8047 4.50781 10.6289 4.55469 10.4941C4.60156 10.3594 4.625 10.2861 4.625 10.2744V7.56738L1.39062 6.33691C1.19727 6.2666 1.02148 6.16992 0.863281 6.04688C0.710938 5.91797 0.579102 5.77441 0.467773 5.61621C0.362305 5.45801 0.277344 5.28516 0.212891 5.09766C0.154297 4.9043 0.125 4.70508 0.125 4.5C0.125 4.23047 0.174805 3.97559 0.274414 3.73535C0.379883 3.49512 0.520508 3.28711 0.696289 3.11133C0.87793 2.92969 1.08594 2.78906 1.32031 2.68945C1.56055 2.58398 1.81836 2.53125 2.09375 2.53125C2.33398 2.53125 2.56836 2.5752 2.79688 2.66309L5.30176 3.62109C5.26074 3.48047 5.23145 3.33691 5.21387 3.19043C5.19629 3.04395 5.1875 2.89746 5.1875 2.75098C5.1875 2.37012 5.26367 2.0127 5.41602 1.67871C5.56836 1.34473 5.77344 1.05469 6.03125 0.808594C6.28906 0.556641 6.58789 0.360352 6.92773 0.219727C7.26758 0.0732422 7.625 0 8 0C8.375 0 8.73242 0.0732422 9.07227 0.219727C9.41211 0.360352 9.71094 0.556641 9.96875 0.808594C10.2266 1.05469 10.4316 1.34473 10.584 1.67871C10.7363 2.0127 10.8125 2.37012 10.8125 2.75098C10.8125 2.89746 10.8037 3.04395 10.7861 3.19043C10.7686 3.33691 10.7363 3.48047 10.6895 3.62109L13.2031 2.66309C13.4316 2.5752 13.666 2.53125 13.9062 2.53125C14.1758 2.53125 14.4307 2.58398 14.6709 2.68945C14.9111 2.78906 15.1191 2.92969 15.2949 3.11133C15.4766 3.29297 15.6172 3.50391 15.7168 3.74414C15.8223 3.98437 15.875 4.23926 15.875 4.50879ZM6.3125 2.8125C6.3125 3.04102 6.35645 3.25781 6.44434 3.46289C6.53223 3.66797 6.65234 3.84961 6.80469 4.00781C6.96289 4.16016 7.14453 4.28027 7.34961 4.36816C7.55469 4.45605 7.77148 4.5 8 4.5C8.22852 4.5 8.44531 4.45605 8.65039 4.36816C8.85547 4.28027 9.03418 4.16016 9.18652 4.00781C9.34473 3.84961 9.46777 3.66797 9.55566 3.46289C9.64355 3.25781 9.6875 3.04102 9.6875 2.8125C9.6875 2.58398 9.64355 2.36719 9.55566 2.16211C9.46777 1.95703 9.34473 1.77832 9.18652 1.62598C9.03418 1.46777 8.85547 1.34473 8.65039 1.25684C8.44531 1.16895 8.22852 1.125 8 1.125C7.77148 1.125 7.55469 1.16895 7.34961 1.25684C7.14453 1.34473 6.96289 1.46777 6.80469 1.62598C6.65234 1.77832 6.53223 1.95703 6.44434 2.16211C6.35645 2.36719 6.3125 2.58398 6.3125 2.8125ZM14.75 4.49121C14.75 4.37988 14.7266 4.27441 14.6797 4.1748C14.6387 4.06934 14.5771 3.97852 14.4951 3.90234C14.4189 3.82617 14.3281 3.76758 14.2227 3.72656C14.123 3.67969 14.0176 3.65625 13.9062 3.65625C13.8008 3.65625 13.7012 3.67383 13.6074 3.70898L8.89648 5.50195C8.75586 5.55469 8.60938 5.5957 8.45703 5.625C8.30469 5.6543 8.15234 5.66895 8 5.66895C7.70117 5.66895 7.39941 5.61328 7.09473 5.50195L2.39258 3.70898C2.29297 3.67383 2.19336 3.65625 2.09375 3.65625C1.85352 3.65625 1.65137 3.73828 1.4873 3.90234C1.3291 4.06055 1.25 4.25977 1.25 4.5C1.25 4.67578 1.29688 4.83691 1.39062 4.9834C1.49023 5.12402 1.625 5.22656 1.79492 5.29102L5.38965 6.65332C5.50098 6.69434 5.58887 6.76465 5.65332 6.86426C5.71777 6.95801 5.75 7.06348 5.75 7.18066V10.3711C5.75 10.4473 5.73828 10.5117 5.71484 10.5645L3.83398 15.7412C3.79883 15.8408 3.78125 15.9375 3.78125 16.0312C3.78125 16.2656 3.86328 16.4648 4.02734 16.6289C4.19141 16.793 4.39062 16.875 4.625 16.875C4.80078 16.875 4.95898 16.8252 5.09961 16.7256C5.24609 16.626 5.35156 16.4912 5.41602 16.3213L6.94531 12.1289C7.02734 11.8945 7.15918 11.7129 7.34082 11.584C7.52832 11.4492 7.74805 11.3818 8 11.3818C8.25195 11.3818 8.46875 11.4492 8.65039 11.584C8.83789 11.7129 8.97266 11.8945 9.05469 12.1289L10.584 16.3213C10.6484 16.4912 10.751 16.626 10.8916 16.7256C11.0322 16.8252 11.1934 16.875 11.375 16.875C11.6094 16.875 11.8086 16.793 11.9727 16.6289C12.1367 16.4648 12.2188 16.2656 12.2188 16.0312C12.2188 15.9375 12.2012 15.8408 12.166 15.7412L10.2852 10.5645C10.2617 10.5117 10.25 10.4473 10.25 10.3711V7.18066C10.25 7.06348 10.2822 6.95801 10.3467 6.86426C10.4111 6.76465 10.499 6.69434 10.6104 6.65332L14.2051 5.29102C14.375 5.22656 14.5068 5.12402 14.6006 4.9834C14.7002 4.83691 14.75 4.67285 14.75 4.49121Z" fill="#0883D9"/>
</svg>
