<svg width="18" height="18" viewBox="0 0 18 18" fill="none" xmlns="http://www.w3.org/2000/svg">
<path d="M3.30469 14.5C2.86523 14.5 2.44629 14.4121 2.04785 14.2363C1.64941 14.0605 1.29785 13.8203 0.993164 13.5156C0.688477 13.2109 0.448242 12.8594 0.272461 12.4609C0.0966797 12.0625 0.00585938 11.6406 0 11.1953V4.30469C0 3.86523 0.0878906 3.44629 0.263672 3.04785C0.439453 2.64941 0.679687 2.29785 0.984375 1.99316C1.28906 1.68848 1.64063 1.44824 2.03906 1.27246C2.4375 1.09668 2.85937 1.00586 3.30469 1H14.6953C15.1348 1 15.5537 1.08789 15.9521 1.26367C16.3506 1.43945 16.7021 1.67969 17.0068 1.98438C17.3115 2.28906 17.5518 2.64063 17.7275 3.03906C17.9033 3.4375 17.9941 3.85937 18 4.30469V4.7002C17.6309 4.30176 17.2236 3.9707 16.7783 3.70703C16.7021 3.47266 16.5938 3.25879 16.4531 3.06543C16.3125 2.87207 16.1484 2.70508 15.9609 2.56445C15.7734 2.42383 15.5654 2.31543 15.3369 2.23926C15.1084 2.16309 14.8711 2.125 14.625 2.125H3.33105C3.03809 2.125 2.75977 2.18359 2.49609 2.30078C2.23242 2.41797 1.99805 2.5791 1.79297 2.78418C1.58789 2.98926 1.42676 3.22363 1.30957 3.4873C1.19238 3.75098 1.13086 4.03223 1.125 4.33105V11.1689C1.125 11.4736 1.18652 11.7578 1.30957 12.0215C1.43262 12.2852 1.59668 12.5195 1.80176 12.7246C2.00684 12.9297 2.24414 13.0879 2.51367 13.1992C2.7832 13.3105 3.07031 13.3691 3.375 13.375H10.125V14.5H3.30469ZM3.9375 5.5C3.78516 5.5 3.65332 5.44434 3.54199 5.33301C3.43066 5.22168 3.375 5.08984 3.375 4.9375C3.375 4.78516 3.43066 4.65332 3.54199 4.54199C3.65332 4.43066 3.78516 4.375 3.9375 4.375H9.5625C9.71484 4.375 9.84668 4.43066 9.95801 4.54199C10.0693 4.65332 10.125 4.78516 10.125 4.9375C10.125 5.08984 10.0693 5.22168 9.95801 5.33301C9.84668 5.44434 9.71484 5.5 9.5625 5.5H3.9375ZM10.125 8.24219C10.125 7.71484 10.2305 7.2168 10.4414 6.74805C10.6523 6.2793 10.9395 5.86914 11.3027 5.51758C11.666 5.16602 12.085 4.8877 12.5596 4.68262C13.0342 4.47754 13.5352 4.375 14.0625 4.375C14.6016 4.375 15.1084 4.47754 15.583 4.68262C16.0576 4.8877 16.4766 5.17188 16.8398 5.53516C17.2031 5.89844 17.4844 6.31445 17.6836 6.7832C17.8828 7.25195 17.9883 7.76172 18 8.3125C18 8.85156 17.8975 9.3584 17.6924 9.83301C17.4873 10.3076 17.2031 10.7266 16.8398 11.0898C16.4766 11.4531 16.0605 11.7344 15.5918 11.9336C15.123 12.1328 14.6133 12.2383 14.0625 12.25C13.5059 12.25 12.9873 12.1445 12.5068 11.9336C12.0264 11.7227 11.6104 11.4355 11.2588 11.0723C10.9072 10.709 10.6318 10.2842 10.4326 9.79785C10.2334 9.31152 10.1309 8.79297 10.125 8.24219ZM3.9375 11.125C3.78516 11.125 3.65332 11.0693 3.54199 10.958C3.43066 10.8467 3.375 10.7148 3.375 10.5625C3.375 10.4102 3.43066 10.2783 3.54199 10.167C3.65332 10.0557 3.78516 10 3.9375 10H8.4375C8.58984 10 8.72168 10.0557 8.83301 10.167C8.94434 10.2783 9 10.4102 9 10.5625C9 10.7148 8.94434 10.8467 8.83301 10.958C8.72168 11.0693 8.58984 11.125 8.4375 11.125H3.9375ZM11.8125 16.7061C11.6543 16.7061 11.5225 16.6533 11.417 16.5479C11.3115 16.4424 11.2559 16.3076 11.25 16.1436V12.8564C11.6719 13.1201 12.1201 13.3193 12.5947 13.4541C13.0693 13.5889 13.5586 13.6562 14.0625 13.6562C14.5605 13.6562 15.0469 13.5889 15.5215 13.4541C15.9961 13.3193 16.4473 13.1201 16.875 12.8564V16.1436C16.875 16.3018 16.8223 16.4336 16.7168 16.5391C16.6113 16.6445 16.4766 16.7002 16.3125 16.7061C16.1777 16.7061 16.0605 16.665 15.9609 16.583L14.4141 15.3438C14.3145 15.2617 14.1973 15.2207 14.0625 15.2207C13.9277 15.2207 13.8105 15.2617 13.7109 15.3438L12.1641 16.583C12.0645 16.665 11.9473 16.7061 11.8125 16.7061Z" fill="#0078D4"/>
</svg>
