<svg width="42" height="40" viewBox="0 0 42 40" fill="none" xmlns="http://www.w3.org/2000/svg">
<path d="M27.27 21C27.03 21 26.78 20.96 26.54 20.88C25.6 20.57 25 19.73 25 18.75V15.94C22.74 15.58 21 13.61 21 11.25V4.75C21 2.13 23.13 0 25.75 0H37.25C39.87 0 42 2.13 42 4.75V11.25C42 13.87 39.87 16 37.25 16H32.13L29.05 20.1C28.61 20.68 27.96 21 27.27 21ZM13 23.5C8.86 23.5 5.5 20.14 5.5 16C5.5 11.86 8.86 8.5 13 8.5C17.14 8.5 20.5 11.86 20.5 16C20.5 20.14 17.14 23.5 13 23.5ZM0 30.79C0 30.88 0.15 40 13 40C25.85 40 26 30.88 26 30.79V29.75C26 27.68 24.32 26 22.25 26H3.75C1.68 26 0 27.68 0 29.75V30.79Z" fill="#0078D4"/>
</svg>
