<svg width="18" height="18" viewBox="0 0 18 18" fill="none" xmlns="http://www.w3.org/2000/svg">
<g clip-path="url(#clip0_2_14)">
<path d="M5.28223 14.3877C5.07715 14.3877 4.875 14.4258 4.67578 14.502C4.47656 14.5781 4.28027 14.6602 4.08691 14.748C3.89355 14.8359 3.69434 14.918 3.48926 14.9941C3.28418 15.0703 3.08203 15.1084 2.88281 15.1084C2.70703 15.1084 2.5459 15.0732 2.39941 15.0029C2.25293 14.9326 2.12109 14.8271 2.00391 14.6865C1.92773 14.5986 1.83984 14.4814 1.74023 14.335C1.64063 14.1885 1.53223 14.0273 1.41504 13.8516C1.29785 13.6758 1.18652 13.4912 1.08105 13.2979C0.975586 13.1045 0.878906 12.9141 0.791016 12.7266C0.703125 12.5391 0.632812 12.3633 0.580078 12.1992C0.527344 12.0352 0.500977 11.8975 0.500977 11.7861C0.500977 11.5752 0.553711 11.3877 0.65918 11.2236C0.764648 11.0596 0.893555 10.9072 1.0459 10.7666C1.19824 10.626 1.36816 10.4941 1.55566 10.3711C1.74316 10.248 1.91309 10.1191 2.06543 9.98438C2.21777 9.84961 2.34961 9.70312 2.46094 9.54492C2.57227 9.38672 2.625 9.20508 2.61914 9C2.61914 8.80078 2.56641 8.62207 2.46094 8.46387C2.35547 8.30566 2.22363 8.15918 2.06543 8.02441C1.90723 7.88965 1.7373 7.75488 1.55566 7.62012C1.37402 7.48535 1.2041 7.35059 1.0459 7.21582C0.887695 7.08105 0.755859 6.92578 0.650391 6.75C0.544922 6.57422 0.492188 6.38672 0.492188 6.1875C0.492188 6.08203 0.518555 5.94727 0.571289 5.7832C0.624023 5.61914 0.697266 5.44336 0.791016 5.25586C0.884766 5.06836 0.984375 4.87793 1.08984 4.68457C1.19531 4.49121 1.30957 4.30371 1.43262 4.12207C1.55566 3.94043 1.66699 3.77637 1.7666 3.62988C1.86621 3.4834 1.95703 3.36914 2.03906 3.28711C2.15625 3.1582 2.28809 3.05859 2.43457 2.98828C2.58105 2.91797 2.74219 2.88281 2.91797 2.88281C3.12305 2.88281 3.32227 2.9209 3.51562 2.99707C3.70898 3.07324 3.90234 3.15527 4.0957 3.24316C4.28906 3.33105 4.48242 3.41602 4.67578 3.49805C4.86914 3.58008 5.07129 3.61816 5.28223 3.6123C5.5459 3.6123 5.77148 3.5332 5.95898 3.375C6.14648 3.2168 6.2666 3.00586 6.31934 2.74219L6.47754 1.88086L6.63574 1.01953C6.68262 0.773438 6.78809 0.571289 6.95215 0.413086C7.11621 0.254883 7.32422 0.152344 7.57617 0.105469C7.81055 0.0644531 8.04785 0.0380859 8.28809 0.0263672C8.52832 0.0146484 8.76563 0.00585938 9 0C9.24609 0 9.49219 0.00878906 9.73828 0.0263672C9.98438 0.0439453 10.2275 0.0761719 10.4678 0.123047C10.7139 0.169922 10.916 0.272461 11.0742 0.430664C11.2324 0.588867 11.335 0.791016 11.3818 1.03711C11.4346 1.32422 11.4844 1.6084 11.5312 1.88965C11.5781 2.1709 11.6279 2.45508 11.6807 2.74219C11.7275 2.99414 11.8477 3.20215 12.041 3.36621C12.2344 3.53027 12.46 3.6123 12.7178 3.6123C12.9229 3.6123 13.125 3.57422 13.3242 3.49805C13.5234 3.42187 13.7197 3.33984 13.9131 3.25195C14.1064 3.16406 14.3057 3.08203 14.5107 3.00586C14.7158 2.92969 14.918 2.8916 15.1172 2.8916C15.2988 2.8916 15.46 2.92676 15.6006 2.99707C15.7412 3.06738 15.873 3.17285 15.9961 3.31348C16.0723 3.40137 16.1602 3.51855 16.2598 3.66504C16.3594 3.81152 16.4678 3.97266 16.585 4.14844C16.7021 4.32422 16.8135 4.50879 16.9189 4.70215C17.0244 4.89551 17.1211 5.08594 17.209 5.27344C17.2969 5.46094 17.3672 5.63672 17.4199 5.80078C17.4727 5.96484 17.499 6.10254 17.499 6.21387C17.499 6.43066 17.4463 6.62109 17.3408 6.78516C17.2354 6.94922 17.1064 7.09863 16.9541 7.2334C16.8018 7.36816 16.6318 7.5 16.4443 7.62891C16.2568 7.75781 16.0869 7.88672 15.9346 8.01562C15.7822 8.14453 15.6504 8.29102 15.5391 8.45508C15.4277 8.61914 15.375 8.80078 15.3809 9C15.3809 9.19922 15.4336 9.37793 15.5391 9.53613C15.6445 9.69434 15.7764 9.84082 15.9346 9.97559C16.0928 10.1104 16.2627 10.2451 16.4443 10.3799C16.626 10.5146 16.7959 10.6494 16.9541 10.7842C17.1123 10.9189 17.2441 11.0742 17.3496 11.25C17.4551 11.4258 17.5078 11.6133 17.5078 11.8125C17.5078 11.9297 17.4814 12.0674 17.4287 12.2256C17.376 12.3838 17.3027 12.5596 17.209 12.7529C17.1152 12.9463 17.0156 13.1367 16.9102 13.3242C16.8047 13.5117 16.6904 13.6963 16.5674 13.8779C16.4443 14.0596 16.333 14.2207 16.2334 14.3613C16.1338 14.502 16.04 14.6191 15.9521 14.7129C15.835 14.8418 15.7061 14.9414 15.5654 15.0117C15.4248 15.082 15.2666 15.1172 15.0908 15.1172C14.8975 15.1172 14.7012 15.0791 14.502 15.0029C14.3027 14.9268 14.1006 14.8447 13.8955 14.7568C13.6904 14.6689 13.4912 14.584 13.2979 14.502C13.1045 14.4199 12.9111 14.3818 12.7178 14.3877C12.46 14.3877 12.2607 14.4404 12.1201 14.5459C11.9795 14.6514 11.8711 14.7861 11.7949 14.9502C11.7187 15.1143 11.666 15.2988 11.6367 15.5039C11.6074 15.709 11.5723 15.9053 11.5312 16.0928C11.502 16.2451 11.4756 16.3916 11.4521 16.5322C11.4287 16.6729 11.3994 16.8223 11.3643 16.9805C11.3174 17.2324 11.2119 17.4346 11.0479 17.5869C10.8838 17.7393 10.6758 17.8418 10.4238 17.8945C10.1895 17.9355 9.95508 17.9619 9.7207 17.9736C9.48633 17.9854 9.24609 17.9941 9 18C8.75391 18 8.50781 17.9912 8.26172 17.9736C8.01562 17.9561 7.77246 17.9238 7.53223 17.877C7.28613 17.8301 7.08398 17.7275 6.92578 17.5693C6.76758 17.4111 6.66504 17.2061 6.61816 16.9541C6.56543 16.6729 6.51563 16.3916 6.46875 16.1104C6.42187 15.8291 6.37207 15.5449 6.31934 15.2578C6.27246 15.0059 6.15234 14.7979 5.95898 14.6338C5.76562 14.4697 5.54004 14.3877 5.28223 14.3877ZM10.2568 16.7871C10.2803 16.6582 10.3066 16.5 10.3359 16.3125C10.3652 16.125 10.3975 15.9287 10.4326 15.7236C10.4678 15.5186 10.5059 15.3281 10.5469 15.1523C10.5879 14.9766 10.6289 14.8301 10.6699 14.7129C10.834 14.2734 11.0977 13.9219 11.4609 13.6582C11.8242 13.3945 12.2432 13.2627 12.7178 13.2627C12.876 13.2627 13.0576 13.2891 13.2627 13.3418C13.4678 13.3945 13.6816 13.4619 13.9043 13.5439C14.127 13.626 14.3408 13.7051 14.5459 13.7812C14.751 13.8574 14.9326 13.9277 15.0908 13.9922C15.3662 13.6641 15.6094 13.3184 15.8203 12.9551C16.0312 12.5918 16.2158 12.2109 16.374 11.8125V11.8037L15.0293 10.6611C14.7832 10.4561 14.5928 10.21 14.458 9.92285C14.3232 9.63574 14.2559 9.32812 14.2559 9C14.2559 8.67773 14.3232 8.37012 14.458 8.07715C14.5928 7.78418 14.7861 7.53516 15.0381 7.33008L16.3652 6.22266V6.21387C16.3652 6.20801 16.3535 6.17578 16.3301 6.11719C16.3066 6.05859 16.292 6.02344 16.2861 6.01172C16.1455 5.64844 15.9785 5.30273 15.7852 4.97461C15.5918 4.64648 15.3691 4.32715 15.1172 4.0166H15.1084L13.4561 4.61426C13.2217 4.69629 12.9814 4.7373 12.7354 4.7373C12.3369 4.7373 11.9707 4.64062 11.6367 4.44727C11.3555 4.28906 11.124 4.07812 10.9424 3.81445C10.7607 3.55078 10.6377 3.26074 10.5732 2.94434L10.2744 1.23047C9.85254 1.16016 9.42773 1.125 9 1.125C8.78906 1.125 8.57812 1.13086 8.36719 1.14258C8.15625 1.1543 7.94824 1.17773 7.74316 1.21289C7.69043 1.50586 7.64063 1.7959 7.59375 2.08301C7.54687 2.37012 7.49121 2.65723 7.42676 2.94434C7.37402 3.20215 7.2832 3.43945 7.1543 3.65625C7.02539 3.87305 6.86719 4.06348 6.67969 4.22754C6.49219 4.3916 6.28125 4.51465 6.04688 4.59668C5.8125 4.67871 5.56055 4.72559 5.29102 4.7373C5.02734 4.7373 4.77832 4.69336 4.54395 4.60547H4.53516L2.91797 4.00781H2.90918C2.63965 4.3418 2.39648 4.6875 2.17969 5.04492C1.96289 5.40234 1.77832 5.7832 1.62598 6.1875V6.19629L2.9707 7.33887C3.2168 7.54395 3.40723 7.79004 3.54199 8.07715C3.67676 8.36426 3.74414 8.67188 3.74414 9C3.74414 9.32227 3.67676 9.62988 3.54199 9.92285C3.40723 10.2158 3.21387 10.4648 2.96191 10.6699L1.63477 11.7773V11.7861C1.63477 11.792 1.64648 11.8242 1.66992 11.8828C1.69336 11.9414 1.70801 11.9766 1.71387 11.9883C1.85449 12.3516 2.02148 12.6973 2.21484 13.0254C2.4082 13.3535 2.63086 13.6729 2.88281 13.9834H2.8916L4.54395 13.3857C4.77832 13.3037 5.01855 13.2627 5.26465 13.2627C5.66309 13.2627 6.0293 13.3594 6.36328 13.5527C6.64453 13.7109 6.87598 13.9219 7.05762 14.1855C7.23926 14.4492 7.3623 14.7393 7.42676 15.0557L7.72559 16.7695C8.14746 16.8398 8.57227 16.875 9 16.875C9.21094 16.875 9.42188 16.8691 9.63281 16.8574C9.84375 16.8457 10.0518 16.8223 10.2568 16.7871ZM5.625 9C5.625 8.53125 5.71289 8.0918 5.88867 7.68164C6.06445 7.27148 6.30469 6.91406 6.60938 6.60938C6.91406 6.30469 7.27148 6.06445 7.68164 5.88867C8.0918 5.71289 8.53125 5.625 9 5.625C9.46875 5.625 9.9082 5.71289 10.3184 5.88867C10.7285 6.06445 11.0859 6.30469 11.3906 6.60938C11.6953 6.91406 11.9355 7.27148 12.1113 7.68164C12.2871 8.0918 12.375 8.53125 12.375 9C12.375 9.46875 12.2871 9.9082 12.1113 10.3184C11.9355 10.7285 11.6953 11.0859 11.3906 11.3906C11.0859 11.6953 10.7285 11.9355 10.3184 12.1113C9.9082 12.2871 9.46875 12.375 9 12.375C8.53125 12.375 8.0918 12.2871 7.68164 12.1113C7.27148 11.9355 6.91406 11.6953 6.60938 11.3906C6.30469 11.0859 6.06445 10.7285 5.88867 10.3184C5.71289 9.9082 5.625 9.46875 5.625 9ZM11.25 9C11.25 8.68945 11.1914 8.39941 11.0742 8.12988C10.957 7.86035 10.7959 7.62012 10.5908 7.40918C10.3857 7.19824 10.1484 7.03711 9.87891 6.92578C9.60938 6.81445 9.31641 6.75586 9 6.75C8.68945 6.75 8.39941 6.80859 8.12988 6.92578C7.86035 7.04297 7.62012 7.2041 7.40918 7.40918C7.19824 7.61426 7.03711 7.85156 6.92578 8.12109C6.81445 8.39062 6.75586 8.68359 6.75 9C6.75 9.31055 6.80859 9.60059 6.92578 9.87012C7.04297 10.1396 7.2041 10.3799 7.40918 10.5908C7.61426 10.8018 7.85156 10.9629 8.12109 11.0742C8.39062 11.1855 8.68359 11.2441 9 11.25C9.31055 11.25 9.60059 11.1914 9.87012 11.0742C10.1396 10.957 10.3799 10.7959 10.5908 10.5908C10.8018 10.3857 10.9629 10.1484 11.0742 9.87891C11.1855 9.60938 11.2441 9.31641 11.25 9Z" fill="#0078D4"/>
</g>
<defs>
<clipPath id="clip0_2_14">
<rect width="18" height="18" fill="white"/>
</clipPath>
</defs>
</svg>
