<svg width="18" height="18" viewBox="0 0 18 18" fill="none" xmlns="http://www.w3.org/2000/svg">
<path d="M1.6875 18C1.45898 18 1.24219 17.9561 1.03711 17.8682C0.832031 17.7803 0.650391 17.6602 0.492188 17.5078C0.339844 17.3496 0.219727 17.168 0.131836 16.9629C0.0439453 16.7578 0 16.541 0 16.3125V14.5283C0 14.3057 0.0410156 14.0918 0.123047 13.8867C0.210938 13.6758 0.333984 13.4912 0.492188 13.333L5.44922 8.38477C5.55469 8.2793 5.63379 8.15625 5.68652 8.01562C5.73926 7.86914 5.76562 7.72266 5.76562 7.57617C5.76562 7.49414 5.75684 7.40918 5.73926 7.32129C5.70996 7.13379 5.68359 6.94629 5.66016 6.75879C5.63672 6.57129 5.625 6.38379 5.625 6.19629C5.625 5.65137 5.70117 5.12109 5.85352 4.60547C6.00586 4.08398 6.21973 3.59473 6.49512 3.1377C6.77637 2.68066 7.10742 2.25879 7.48828 1.87207C7.86914 1.48535 8.28809 1.1543 8.74512 0.878906C9.20801 0.603516 9.69727 0.389648 10.2129 0.237305C10.7285 0.0791016 11.2588 0 11.8037 0C12.3721 0 12.9199 0.0732422 13.4473 0.219727C13.9805 0.366211 14.4756 0.574219 14.9326 0.84375C15.3896 1.11328 15.8057 1.43848 16.1807 1.81934C16.5615 2.19434 16.8867 2.61035 17.1562 3.06738C17.4258 3.52441 17.6338 4.01953 17.7803 4.55273C17.9268 5.08008 18 5.62793 18 6.19629C18 6.76465 17.9268 7.3125 17.7803 7.83984C17.6338 8.36719 17.4258 8.85938 17.1562 9.31641C16.8867 9.77344 16.5615 10.1895 16.1807 10.5645C15.8057 10.9395 15.3896 11.2617 14.9326 11.5312C14.4756 11.8008 13.9834 12.0088 13.4561 12.1553C12.9287 12.3018 12.3809 12.375 11.8125 12.375C11.2324 12.375 10.6699 12.2959 10.125 12.1377V12.1553C10.125 12.46 10.084 12.7031 10.002 12.8848C9.91992 13.0605 9.80859 13.1953 9.66797 13.2891C9.52734 13.3828 9.36328 13.4443 9.17578 13.4736C8.98828 13.4971 8.78613 13.5088 8.56934 13.5088C8.45801 13.5088 8.34375 13.5088 8.22656 13.5088C8.10938 13.5029 7.99219 13.5 7.875 13.5V14.625C7.875 14.9355 7.76367 15.2021 7.54102 15.4248C7.32422 15.6416 7.06055 15.75 6.75 15.75H5.625V16.3125C5.625 16.541 5.58105 16.7578 5.49316 16.9629C5.40527 17.168 5.28223 17.3496 5.12402 17.5078C4.97168 17.6602 4.79297 17.7803 4.58789 17.8682C4.38281 17.9561 4.16602 18 3.9375 18H1.6875ZM3.9375 16.875C4.06641 16.875 4.16895 16.8516 4.24512 16.8047C4.32129 16.752 4.37695 16.6875 4.41211 16.6113C4.44727 16.5352 4.46777 16.4502 4.47363 16.3564C4.48535 16.2568 4.49121 16.1572 4.49121 16.0576V15.917C4.49121 15.7412 4.51465 15.5771 4.56152 15.4248C4.6084 15.2666 4.67871 15.1289 4.77246 15.0117C4.86621 14.8945 4.9834 14.8008 5.12402 14.7305C5.26465 14.6602 5.43164 14.625 5.625 14.625H6.75V13.5C6.75 13.1895 6.8584 12.9258 7.0752 12.709C7.29785 12.4863 7.56445 12.375 7.875 12.375H9V11.3379C9 11.1797 9.05273 11.0479 9.1582 10.9424C9.26953 10.8311 9.4043 10.7754 9.5625 10.7754C9.63867 10.7754 9.71484 10.79 9.79102 10.8193C9.97266 10.8838 10.1426 10.9424 10.3008 10.9951C10.4648 11.0479 10.623 11.0947 10.7754 11.1357C10.9336 11.1709 11.0947 11.2002 11.2588 11.2236C11.4287 11.2412 11.6133 11.25 11.8125 11.25C12.2754 11.25 12.7207 11.1914 13.1484 11.0742C13.582 10.9512 13.9863 10.7812 14.3613 10.5645C14.7363 10.3418 15.0791 10.0781 15.3896 9.77344C15.7002 9.46289 15.9639 9.12012 16.1807 8.74512C16.4033 8.37012 16.5732 7.96875 16.6904 7.54102C16.8135 7.10742 16.875 6.65918 16.875 6.19629C16.875 5.72754 16.8135 5.2793 16.6904 4.85156C16.5732 4.41797 16.4033 4.01367 16.1807 3.63867C15.9639 3.26367 15.7002 2.9209 15.3896 2.61035C15.085 2.2998 14.7451 2.03613 14.3701 1.81934C13.9951 1.59668 13.5908 1.42676 13.1572 1.30957C12.7295 1.18652 12.2812 1.125 11.8125 1.125H11.6279C11.458 1.125 11.2881 1.13965 11.1182 1.16895C10.9482 1.19824 10.7783 1.23633 10.6084 1.2832C10.0811 1.42969 9.58301 1.66406 9.11426 1.98633C8.64551 2.30273 8.23535 2.68066 7.88379 3.12012C7.53809 3.55957 7.2627 4.04297 7.05762 4.57031C6.85254 5.0918 6.75 5.63086 6.75 6.1875C6.75 6.42188 6.77344 6.65332 6.82031 6.88184C6.86719 7.11035 6.89062 7.3418 6.89062 7.57617C6.89062 7.875 6.83496 8.16504 6.72363 8.44629C6.6123 8.72168 6.45117 8.96484 6.24023 9.17578L1.29199 14.1328C1.18066 14.2441 1.125 14.376 1.125 14.5283V16.3125C1.125 16.4648 1.18066 16.5967 1.29199 16.708C1.40332 16.8193 1.53516 16.875 1.6875 16.875H3.9375ZM12.375 4.5C12.375 4.3418 12.4043 4.19531 12.4629 4.06055C12.5215 3.92578 12.6006 3.80859 12.7002 3.70898C12.8057 3.60352 12.9258 3.52148 13.0605 3.46289C13.1953 3.4043 13.3418 3.375 13.5 3.375C13.6523 3.375 13.7959 3.4043 13.9307 3.46289C14.0713 3.52148 14.1914 3.60352 14.291 3.70898C14.3965 3.80859 14.4785 3.92871 14.5371 4.06934C14.5957 4.2041 14.625 4.34766 14.625 4.5C14.625 4.6582 14.5957 4.80469 14.5371 4.93945C14.4785 5.07422 14.3965 5.19434 14.291 5.2998C14.1914 5.39941 14.0742 5.47852 13.9395 5.53711C13.8047 5.5957 13.6582 5.625 13.5 5.625C13.3418 5.625 13.1924 5.5957 13.0518 5.53711C12.917 5.47852 12.7998 5.39941 12.7002 5.2998C12.6006 5.2002 12.5215 5.08301 12.4629 4.94824C12.4043 4.80762 12.375 4.6582 12.375 4.5Z" fill="#0883D9"/>
</svg>
