<svg width="14" height="18" viewBox="0 0 14 18" fill="none" xmlns="http://www.w3.org/2000/svg">
<path d="M11.5615 -0.00878906C11.8545 -0.00878906 12.1328 0.0527344 12.3965 0.175781C12.666 0.292969 12.9004 0.454102 13.0996 0.65918C13.3047 0.858398 13.4658 1.09277 13.583 1.3623C13.7061 1.62598 13.7676 1.9043 13.7676 2.19727V7.91016C13.7676 8.21484 13.7061 8.50195 13.583 8.77148C13.46 9.03516 13.2959 9.2666 13.0908 9.46582C12.8857 9.66504 12.6455 9.82324 12.3701 9.94043C12.1006 10.0576 11.8164 10.1162 11.5176 10.1162H9.26758V16.8662H10.9551C11.1133 16.8662 11.2451 16.9219 11.3506 17.0332C11.4619 17.1387 11.5176 17.2705 11.5176 17.4287C11.5176 17.5811 11.4619 17.7129 11.3506 17.8242C11.2393 17.9355 11.1074 17.9912 10.9551 17.9912H3.08008C2.92773 17.9912 2.7959 17.9355 2.68457 17.8242C2.57324 17.7129 2.51758 17.5811 2.51758 17.4287C2.51758 17.2764 2.57324 17.1445 2.68457 17.0332C2.7959 16.9219 2.92773 16.8662 3.08008 16.8662H4.76758V10.1162H2.47363C2.18066 10.1162 1.89941 10.0576 1.62988 9.94043C1.36621 9.81738 1.13184 9.65625 0.926758 9.45703C0.727539 9.25195 0.566406 9.01758 0.443359 8.75391C0.326172 8.48438 0.267578 8.20312 0.267578 7.91016V2.19727C0.267578 1.9043 0.326172 1.62598 0.443359 1.3623C0.566406 1.09277 0.727539 0.858398 0.926758 0.65918C1.13184 0.454102 1.36621 0.292969 1.62988 0.175781C1.89941 0.0527344 2.18066 -0.00878906 2.47363 -0.00878906H11.5615ZM12.6426 2.24121C12.6426 2.08887 12.6133 1.94531 12.5547 1.81055C12.4961 1.66992 12.4141 1.5498 12.3086 1.4502C12.209 1.34473 12.0889 1.2627 11.9482 1.2041C11.8135 1.14551 11.6699 1.11621 11.5176 1.11621H2.51758C2.36523 1.11621 2.21875 1.14551 2.07812 1.2041C1.94336 1.2627 1.82324 1.34473 1.71777 1.4502C1.61816 1.5498 1.53906 1.66992 1.48047 1.81055C1.42188 1.94531 1.39258 2.08887 1.39258 2.24121V7.86621C1.39258 8.01855 1.42188 8.16211 1.48047 8.29688C1.54492 8.43164 1.62695 8.55176 1.72656 8.65723C1.83203 8.75684 1.95215 8.83887 2.08691 8.90332C2.22168 8.96191 2.36523 8.99121 2.51758 8.99121H11.5176C11.6699 8.99121 11.8135 8.96191 11.9482 8.90332C12.0889 8.84473 12.209 8.76562 12.3086 8.66602C12.4141 8.56055 12.4961 8.44043 12.5547 8.30566C12.6133 8.16504 12.6426 8.01855 12.6426 7.86621V2.24121ZM5.89258 16.8662H8.14258V10.1162H5.89258V16.8662Z" fill="#0883D9"/>
</svg>
