<svg width="18" height="13" viewBox="0 0 18 13" fill="none" xmlns="http://www.w3.org/2000/svg">
<path d="M3.33105 10.5C3.03809 10.5 2.75684 10.4414 2.4873 10.3242C2.22363 10.2012 1.98926 10.04 1.78418 9.84082C1.58496 9.63574 1.42383 9.40137 1.30078 9.1377C1.18359 8.86816 1.125 8.58691 1.125 8.29395V2.58105C1.125 2.28809 1.18359 2.00977 1.30078 1.74609C1.42383 1.47656 1.58496 1.24219 1.78418 1.04297C1.98926 0.837891 2.22363 0.676758 2.4873 0.55957C2.75684 0.436523 3.03809 0.375 3.33105 0.375H14.6689C14.9619 0.375 15.2402 0.436523 15.5039 0.55957C15.7734 0.676758 16.0078 0.837891 16.207 1.04297C16.4121 1.24219 16.5732 1.47656 16.6904 1.74609C16.8135 2.00977 16.875 2.28809 16.875 2.58105V8.29395C16.875 8.58691 16.8135 8.86816 16.6904 9.1377C16.5732 9.40137 16.4121 9.63574 16.207 9.84082C16.0078 10.04 15.7734 10.2012 15.5039 10.3242C15.2402 10.4414 14.9619 10.5 14.6689 10.5H3.33105ZM14.625 9.375C14.7832 9.375 14.9297 9.3457 15.0645 9.28711C15.1992 9.22852 15.3164 9.14941 15.416 9.0498C15.5215 8.94434 15.6035 8.82422 15.6621 8.68945C15.7207 8.55469 15.75 8.4082 15.75 8.25V2.625C15.75 2.47266 15.7207 2.3291 15.6621 2.19434C15.6035 2.05371 15.5215 1.93359 15.416 1.83398C15.3164 1.72852 15.1963 1.64648 15.0557 1.58789C14.9209 1.5293 14.7773 1.5 14.625 1.5H3.375C3.2168 1.5 3.07031 1.5293 2.93555 1.58789C2.80078 1.64648 2.68066 1.72852 2.5752 1.83398C2.47559 1.93359 2.39648 2.05078 2.33789 2.18555C2.2793 2.32031 2.25 2.4668 2.25 2.625V8.25C2.25 8.4082 2.2793 8.55762 2.33789 8.69824C2.39648 8.83301 2.47559 8.9502 2.5752 9.0498C2.6748 9.14941 2.79199 9.22852 2.92676 9.28711C3.06738 9.3457 3.2168 9.375 3.375 9.375H14.625ZM0.5625 12.75C0.410156 12.75 0.27832 12.6943 0.166992 12.583C0.0556641 12.4717 0 12.3398 0 12.1875C0 12.0352 0.0556641 11.9033 0.166992 11.792C0.27832 11.6807 0.410156 11.625 0.5625 11.625H17.4375C17.5898 11.625 17.7217 11.6807 17.833 11.792C17.9443 11.9033 18 12.0352 18 12.1875C18 12.3398 17.9443 12.4717 17.833 12.583C17.7217 12.6943 17.5898 12.75 17.4375 12.75H0.5625Z" fill="#0883D9"/>
</svg>
