<svg width="14" height="18" viewBox="0 0 14 18" fill="none" xmlns="http://www.w3.org/2000/svg">
<path d="M13.75 9V15.75C13.75 16.0605 13.6914 16.3535 13.5742 16.6289C13.457 16.8984 13.2959 17.1357 13.0908 17.3408C12.8857 17.5459 12.6455 17.707 12.3701 17.8242C12.1006 17.9414 11.8105 18 11.5 18H2.5C2.18945 18 1.89648 17.9414 1.62109 17.8242C1.35156 17.707 1.11426 17.5459 0.90918 17.3408C0.704102 17.1357 0.542969 16.8984 0.425781 16.6289C0.308594 16.3535 0.25 16.0605 0.25 15.75V9C0.25 8.68945 0.308594 8.39941 0.425781 8.12988C0.542969 7.85449 0.704102 7.61426 0.90918 7.40918C1.11426 7.2041 1.35156 7.04297 1.62109 6.92578C1.89648 6.80859 2.18945 6.75 2.5 6.75V4.5C2.5 3.87891 2.61719 3.2959 2.85156 2.75098C3.08594 2.2002 3.40527 1.72266 3.80957 1.31836C4.21973 0.908203 4.69727 0.585938 5.24219 0.351562C5.79297 0.117187 6.37891 0 7 0C7.62109 0 8.2041 0.117187 8.74902 0.351562C9.2998 0.585938 9.77734 0.908203 10.1816 1.31836C10.5918 1.72266 10.9141 2.2002 11.1484 2.75098C11.3828 3.2959 11.5 3.87891 11.5 4.5V6.75C11.8105 6.75 12.1006 6.80859 12.3701 6.92578C12.6455 7.04297 12.8857 7.2041 13.0908 7.40918C13.2959 7.61426 13.457 7.85449 13.5742 8.12988C13.6914 8.39941 13.75 8.68945 13.75 9ZM3.625 6.75H10.375V4.5C10.375 4.03125 10.2871 3.5918 10.1113 3.18164C9.93555 2.77148 9.69531 2.41406 9.39062 2.10938C9.08594 1.80469 8.72852 1.56445 8.31836 1.38867C7.9082 1.21289 7.46875 1.125 7 1.125C6.53125 1.125 6.0918 1.21289 5.68164 1.38867C5.27148 1.56445 4.91406 1.80469 4.60938 2.10938C4.30469 2.41406 4.06445 2.77148 3.88867 3.18164C3.71289 3.5918 3.625 4.03125 3.625 4.5V6.75ZM12.625 9C12.625 8.84766 12.5957 8.7041 12.5371 8.56934C12.4785 8.42871 12.3965 8.30859 12.291 8.20898C12.1914 8.10352 12.0713 8.02148 11.9307 7.96289C11.7959 7.9043 11.6523 7.875 11.5 7.875H2.5C2.3418 7.875 2.19531 7.9043 2.06055 7.96289C1.92578 8.02148 1.80566 8.10352 1.7002 8.20898C1.60059 8.30859 1.52148 8.42578 1.46289 8.56055C1.4043 8.69531 1.375 8.8418 1.375 9V15.75C1.375 15.9082 1.4043 16.0576 1.46289 16.1982C1.52148 16.333 1.60059 16.4502 1.7002 16.5498C1.7998 16.6494 1.91699 16.7285 2.05176 16.7871C2.19238 16.8457 2.3418 16.875 2.5 16.875H11.5C11.6582 16.875 11.8047 16.8457 11.9395 16.7871C12.0742 16.7285 12.1914 16.6494 12.291 16.5498C12.3965 16.4443 12.4785 16.3242 12.5371 16.1895C12.5957 16.0547 12.625 15.9082 12.625 15.75V9ZM8.125 12.375C8.125 12.5332 8.0957 12.6797 8.03711 12.8145C7.97852 12.9492 7.89648 13.0693 7.79102 13.1748C7.69141 13.2744 7.57422 13.3535 7.43945 13.4121C7.30469 13.4707 7.1582 13.5 7 13.5C6.8418 13.5 6.69238 13.4707 6.55176 13.4121C6.41699 13.3535 6.2998 13.2744 6.2002 13.1748C6.10059 13.0752 6.02148 12.958 5.96289 12.8232C5.9043 12.6826 5.875 12.5332 5.875 12.375C5.875 12.2168 5.9043 12.0703 5.96289 11.9355C6.02148 11.8008 6.10059 11.6836 6.2002 11.584C6.30566 11.4785 6.42578 11.3965 6.56055 11.3379C6.69531 11.2793 6.8418 11.25 7 11.25C7.15234 11.25 7.2959 11.2793 7.43066 11.3379C7.57129 11.3965 7.69141 11.4785 7.79102 11.584C7.89648 11.6836 7.97852 11.8037 8.03711 11.9443C8.0957 12.0791 8.125 12.2227 8.125 12.375Z" fill="#0883D9"/>
</svg>
