<svg width="12" height="18" viewBox="0 0 12 18" fill="none" xmlns="http://www.w3.org/2000/svg">
<path d="M2.58105 18C2.28809 18 2.00684 17.9414 1.7373 17.8242C1.47363 17.7012 1.23926 17.54 1.03418 17.3408C0.834961 17.1357 0.673828 16.9014 0.550781 16.6377C0.433594 16.3682 0.375 16.0869 0.375 15.7939V2.20605C0.375 1.91309 0.433594 1.63477 0.550781 1.37109C0.673828 1.10156 0.834961 0.867188 1.03418 0.667969C1.23926 0.462891 1.47363 0.301758 1.7373 0.18457C2.00684 0.0615234 2.28809 0 2.58105 0H9.41895C9.71191 0 9.99023 0.0615234 10.2539 0.18457C10.5234 0.301758 10.7578 0.462891 10.957 0.667969C11.1621 0.867188 11.3232 1.10156 11.4404 1.37109C11.5635 1.63477 11.625 1.91309 11.625 2.20605V15.7939C11.625 16.0869 11.5635 16.3682 11.4404 16.6377C11.3232 16.9014 11.1621 17.1357 10.957 17.3408C10.7578 17.54 10.5234 17.7012 10.2539 17.8242C9.99023 17.9414 9.71191 18 9.41895 18H2.58105ZM9.375 16.875C9.5332 16.875 9.67969 16.8457 9.81445 16.7871C9.94922 16.7285 10.0664 16.6494 10.166 16.5498C10.2715 16.4443 10.3535 16.3242 10.4121 16.1895C10.4707 16.0547 10.5 15.9082 10.5 15.75V2.25C10.5 2.09766 10.4707 1.9541 10.4121 1.81934C10.3535 1.67871 10.2715 1.55859 10.166 1.45898C10.0664 1.35352 9.94629 1.27148 9.80566 1.21289C9.6709 1.1543 9.52734 1.125 9.375 1.125H2.625C2.4668 1.125 2.32031 1.1543 2.18555 1.21289C2.05078 1.27148 1.93066 1.35352 1.8252 1.45898C1.72559 1.55859 1.64648 1.67578 1.58789 1.81055C1.5293 1.94531 1.5 2.0918 1.5 2.25V15.75C1.5 15.9082 1.5293 16.0576 1.58789 16.1982C1.64648 16.333 1.72559 16.4502 1.8252 16.5498C1.9248 16.6494 2.04199 16.7285 2.17676 16.7871C2.31738 16.8457 2.4668 16.875 2.625 16.875H9.375ZM4.875 14.625C4.72266 14.625 4.59082 14.5693 4.47949 14.458C4.36816 14.3467 4.3125 14.2148 4.3125 14.0625C4.3125 13.9102 4.36816 13.7783 4.47949 13.667C4.59082 13.5557 4.72266 13.5 4.875 13.5H7.125C7.27734 13.5 7.40918 13.5557 7.52051 13.667C7.63184 13.7783 7.6875 13.9102 7.6875 14.0625C7.6875 14.2148 7.63184 14.3467 7.52051 14.458C7.40918 14.5693 7.27734 14.625 7.125 14.625H4.875Z" fill="#0883D9"/>
</svg>
