<svg width="18" height="18" viewBox="0 0 18 18" fill="none" xmlns="http://www.w3.org/2000/svg">
<path d="M17.7012 7.49707C17.7012 7.83691 17.6074 8.14746 17.4199 8.42871C17.2324 8.70996 16.9805 8.91504 16.6641 9.04395L11.9619 11.0039C11.8857 11.0332 11.8184 11.0801 11.7598 11.1445C11.7012 11.2031 11.6602 11.2734 11.6367 11.3555L10.0986 16.4707C10.0635 16.5879 9.99609 16.6846 9.89648 16.7607C9.80273 16.8369 9.69141 16.875 9.5625 16.875C9.41016 16.875 9.27832 16.8193 9.16699 16.708L5.625 13.166L0.791016 18H0V17.2002L4.83398 12.375L1.29199 8.83301C1.18066 8.72168 1.125 8.58691 1.125 8.42871C1.125 8.31738 1.15723 8.21484 1.22168 8.12109C1.28613 8.02734 1.37109 7.95996 1.47656 7.91895L6.68848 5.83594C6.82324 5.7832 6.92285 5.68652 6.9873 5.5459L8.93848 1.24805C9.07324 0.943359 9.28125 0.703125 9.5625 0.527344C9.84375 0.345703 10.1514 0.254883 10.4854 0.254883C10.708 0.254883 10.9219 0.298828 11.127 0.386719C11.3379 0.474609 11.5195 0.594727 11.6719 0.74707L17.209 6.29297C17.3672 6.45117 17.4873 6.63574 17.5693 6.84668C17.6572 7.05762 17.7012 7.27441 17.7012 7.49707ZM10.4854 1.37988C10.3682 1.37988 10.2627 1.40918 10.1689 1.46777C10.0811 1.52637 10.0137 1.6084 9.9668 1.71387L8.01562 6.01172C7.92773 6.21094 7.80469 6.38672 7.64648 6.53906C7.48828 6.68555 7.30664 6.7998 7.10156 6.88184L2.68945 8.63965L9.29004 15.249L10.5557 11.0391C10.626 10.7988 10.7461 10.585 10.916 10.3975C11.0918 10.21 11.2939 10.0664 11.5225 9.9668L16.2334 7.99805C16.3389 7.95117 16.4209 7.88379 16.4795 7.7959C16.5439 7.70215 16.5762 7.59668 16.5762 7.47949C16.5762 7.32129 16.5234 7.18945 16.418 7.08398L10.8721 1.54688C10.7607 1.43555 10.6318 1.37988 10.4854 1.37988Z" fill="#0883D9"/>
</svg>
