<svg width="18" height="18" viewBox="0 0 18 18" fill="none" xmlns="http://www.w3.org/2000/svg">
<path d="M8.4375 7.3125V0.5625C8.4375 0.410156 8.49316 0.27832 8.60449 0.166992C8.71582 0.0556641 8.84766 0 9 0C9.15234 0 9.28418 0.0556641 9.39551 0.166992C9.50684 0.27832 9.5625 0.410156 9.5625 0.5625V7.3125C9.5625 7.46484 9.50684 7.59668 9.39551 7.70801C9.28418 7.81934 9.15234 7.875 9 7.875C8.84766 7.875 8.71582 7.81934 8.60449 7.70801C8.49316 7.59668 8.4375 7.46484 8.4375 7.3125ZM0.5625 9.5625C0.5625 8.83008 0.65918 8.10938 0.852539 7.40039C1.0459 6.68555 1.32129 6.01172 1.67871 5.37891C2.04199 4.74023 2.47852 4.15723 2.98828 3.62988C3.50391 3.09668 4.08105 2.64844 4.71973 2.28516C4.80762 2.23242 4.9043 2.20605 5.00977 2.20605C5.16211 2.20605 5.29395 2.26172 5.40527 2.37305C5.5166 2.48438 5.57227 2.61621 5.57227 2.76855C5.57227 2.88574 5.5459 2.97949 5.49316 3.0498C5.44629 3.12012 5.37891 3.1875 5.29102 3.25195C5.08594 3.39258 4.88379 3.53027 4.68457 3.66504C4.49121 3.79395 4.30078 3.94336 4.11328 4.11328C3.73828 4.45313 3.40137 4.83105 3.10254 5.24707C2.80371 5.66309 2.54883 6.10254 2.33789 6.56543C2.12695 7.02832 1.96582 7.50879 1.85449 8.00684C1.74316 8.50488 1.6875 9.00879 1.6875 9.51855C1.6875 10.1982 1.77246 10.8516 1.94238 11.4785C2.11816 12.0996 2.36133 12.6826 2.67188 13.2275C2.98828 13.7725 3.36914 14.2705 3.81445 14.7217C4.25977 15.167 4.75195 15.5508 5.29102 15.873C5.83594 16.1895 6.41895 16.4355 7.04004 16.6113C7.66699 16.7871 8.32031 16.875 9 16.875C9.67969 16.875 10.3301 16.7871 10.9512 16.6113C11.5781 16.4355 12.1611 16.1895 12.7002 15.873C13.2451 15.5508 13.7402 15.167 14.1855 14.7217C14.6309 14.2705 15.0088 13.7725 15.3193 13.2275C15.6357 12.6826 15.8789 12.0967 16.0488 11.4697C16.2246 10.8428 16.3125 10.1924 16.3125 9.51855C16.3125 9.00879 16.2568 8.50488 16.1455 8.00684C16.0342 7.50879 15.873 7.02832 15.6621 6.56543C15.4512 6.10254 15.1963 5.66309 14.8975 5.24707C14.5986 4.83105 14.2617 4.45313 13.8867 4.11328C13.6992 3.94336 13.5059 3.79395 13.3066 3.66504C13.1133 3.53027 12.9141 3.39258 12.709 3.25195C12.6211 3.1875 12.5508 3.12012 12.498 3.0498C12.4512 2.97949 12.4277 2.88574 12.4277 2.76855C12.4277 2.61621 12.4834 2.48438 12.5947 2.37305C12.7061 2.26172 12.8379 2.20605 12.9902 2.20605C13.0957 2.20605 13.1924 2.23242 13.2803 2.28516C13.9189 2.64844 14.4932 3.09668 15.0029 3.62988C15.5186 4.15723 15.9551 4.74023 16.3125 5.37891C16.6758 6.01172 16.9541 6.68555 17.1475 7.40039C17.3408 8.10938 17.4375 8.83008 17.4375 9.5625C17.4375 10.3359 17.335 11.083 17.1299 11.8037C16.9307 12.5186 16.6465 13.1895 16.2773 13.8164C15.9141 14.4434 15.4746 15.0146 14.959 15.5303C14.4492 16.04 13.8809 16.4795 13.2539 16.8486C12.627 17.2119 11.9531 17.4961 11.2324 17.7012C10.5176 17.9004 9.77344 18 9 18C8.2207 18 7.4707 17.9004 6.75 17.7012C6.03516 17.4961 5.36426 17.2119 4.7373 16.8486C4.11621 16.4795 3.54785 16.04 3.03223 15.5303C2.52246 15.0146 2.08301 14.4463 1.71387 13.8252C1.35059 13.1982 1.06641 12.5244 0.861328 11.8037C0.662109 11.083 0.5625 10.3359 0.5625 9.5625Z" fill="#0883D9"/>
</svg>
