<svg width="16" height="18" viewBox="0 0 16 18" fill="none" xmlns="http://www.w3.org/2000/svg">
<path d="M12.5703 1.125C13.0098 1.125 13.4287 1.21582 13.8271 1.39746C14.2314 1.57324 14.583 1.81348 14.8818 2.11816C15.1865 2.41699 15.4268 2.76855 15.6025 3.17285C15.7842 3.57129 15.875 3.99023 15.875 4.42969V7.3125C15.875 7.46484 15.8193 7.59668 15.708 7.70801C15.5967 7.81934 15.4648 7.875 15.3125 7.875C15.1602 7.875 15.0283 7.81934 14.917 7.70801C14.8057 7.59668 14.75 7.46484 14.75 7.3125V4.45605C14.75 4.16309 14.6885 3.88477 14.5654 3.62109C14.4482 3.35156 14.2871 3.11719 14.082 2.91797C13.8828 2.71289 13.6484 2.55176 13.3789 2.43457C13.1152 2.31152 12.8369 2.25 12.5439 2.25H2.04102C2.13477 2.33789 2.21387 2.41992 2.27832 2.49609C2.34277 2.57227 2.375 2.67773 2.375 2.8125C2.375 2.96484 2.31934 3.09668 2.20801 3.20801C2.09668 3.31934 1.96484 3.375 1.8125 3.375C1.66016 3.375 1.52832 3.31934 1.41699 3.20801L0.291992 2.08301C0.180664 1.97168 0.125 1.83984 0.125 1.6875C0.125 1.53516 0.180664 1.40332 0.291992 1.29199L1.41699 0.166992C1.52832 0.0556641 1.66016 0 1.8125 0C1.96484 0 2.09668 0.0556641 2.20801 0.166992C2.31934 0.27832 2.375 0.410156 2.375 0.5625C2.375 0.697266 2.33984 0.802734 2.26953 0.878906C2.20508 0.955078 2.12891 1.03711 2.04102 1.125H12.5703ZM12.0693 9C12.0693 9.14062 12.1338 9.2666 12.2627 9.37793C12.3975 9.48926 12.5439 9.60645 12.7021 9.72949C12.8662 9.84668 13.0127 9.98145 13.1416 10.1338C13.2764 10.2803 13.3438 10.4619 13.3438 10.6787C13.3438 10.8018 13.3057 10.9541 13.2295 11.1357C13.1592 11.3115 13.0713 11.4902 12.9658 11.6719C12.8662 11.8477 12.7607 12.0176 12.6494 12.1816C12.5381 12.3457 12.4414 12.4746 12.3594 12.5684C12.1777 12.7852 11.9463 12.8936 11.665 12.8936C11.5479 12.8936 11.4219 12.8701 11.2871 12.8232C11.1582 12.7764 11.0293 12.7266 10.9004 12.6738C10.7773 12.6211 10.6572 12.5713 10.54 12.5244C10.4287 12.4775 10.3291 12.4541 10.2412 12.4541C10.1533 12.4541 10.083 12.4717 10.0303 12.5068C9.97754 12.542 9.93359 12.5859 9.89844 12.6387C9.86914 12.6914 9.8457 12.7529 9.82812 12.8232C9.81641 12.8877 9.80469 12.9551 9.79297 13.0254L9.64355 13.8252C9.6084 14.0244 9.53516 14.1797 9.42383 14.291C9.3125 14.3965 9.18066 14.4756 9.02832 14.5283C8.87598 14.5752 8.71191 14.6045 8.53613 14.6162C8.36621 14.6221 8.20215 14.625 8.04395 14.625H8C7.8418 14.625 7.67188 14.6221 7.49023 14.6162C7.30859 14.6045 7.13867 14.5723 6.98047 14.5195C6.82227 14.4668 6.68457 14.3848 6.56738 14.2734C6.4502 14.1621 6.37402 14.0068 6.33887 13.8076L6.16309 12.7881C6.15137 12.7061 6.10742 12.6299 6.03125 12.5596C5.96094 12.4893 5.88184 12.4541 5.79395 12.4541C5.67676 12.4541 5.55664 12.4775 5.43359 12.5244C5.31641 12.5654 5.19629 12.6152 5.07324 12.6738C4.9502 12.7266 4.82422 12.7764 4.69531 12.8232C4.56641 12.8643 4.44043 12.8848 4.31738 12.8848C4.02441 12.8848 3.79004 12.7764 3.61426 12.5596C3.53223 12.4658 3.43555 12.3398 3.32422 12.1816C3.21875 12.0176 3.11621 11.8447 3.0166 11.6631C2.92285 11.4814 2.84082 11.3027 2.77051 11.127C2.7002 10.9512 2.66504 10.7988 2.66504 10.6699C2.66504 10.4414 2.72949 10.2539 2.8584 10.1074C2.99316 9.95508 3.13965 9.82324 3.29785 9.71191C3.45605 9.59473 3.59961 9.4834 3.72852 9.37793C3.86328 9.27246 3.93066 9.14648 3.93066 9C3.93066 8.85352 3.86328 8.72754 3.72852 8.62207C3.59961 8.51074 3.45312 8.39648 3.28906 8.2793C3.13086 8.16211 2.98438 8.03027 2.84961 7.88379C2.7207 7.73145 2.65625 7.54395 2.65625 7.32129C2.65625 7.19238 2.69141 7.04004 2.76172 6.86426C2.83789 6.68848 2.92578 6.5127 3.02539 6.33691C3.13086 6.15527 3.23926 5.98535 3.35059 5.82715C3.46191 5.66309 3.55859 5.53125 3.64062 5.43164C3.82227 5.21484 4.05371 5.10645 4.33496 5.10645C4.45215 5.10645 4.5752 5.12988 4.7041 5.17676C4.83301 5.21777 4.95898 5.26758 5.08203 5.32617C5.20508 5.37891 5.32227 5.42871 5.43359 5.47559C5.55078 5.5166 5.65625 5.53711 5.75 5.53711C5.87305 5.53711 5.9668 5.50488 6.03125 5.44043C6.0957 5.37012 6.14258 5.28223 6.17188 5.17676C6.20703 5.07129 6.23047 4.95117 6.24219 4.81641C6.25977 4.68164 6.28027 4.54687 6.30371 4.41211C6.32715 4.27148 6.35938 4.13965 6.40039 4.0166C6.44727 3.8877 6.51758 3.77637 6.61133 3.68262C6.68164 3.6123 6.7666 3.55664 6.86621 3.51562C6.97168 3.47461 7.08008 3.44531 7.19141 3.42773C7.30859 3.4043 7.42578 3.38965 7.54297 3.38379C7.66602 3.37793 7.78027 3.375 7.88574 3.375H8.01758C8.17578 3.375 8.34277 3.38086 8.51855 3.39258C8.7002 3.39844 8.87012 3.42773 9.02832 3.48047C9.18652 3.5332 9.32129 3.61523 9.43262 3.72656C9.5498 3.83789 9.62598 3.99316 9.66113 4.19238L9.83691 5.21191C9.85449 5.31738 9.90137 5.39941 9.97754 5.45801C10.0596 5.51074 10.1504 5.53711 10.25 5.53711C10.3496 5.53711 10.458 5.5166 10.5752 5.47559C10.6924 5.42871 10.8125 5.37891 10.9355 5.32617C11.0586 5.26758 11.1816 5.21777 11.3047 5.17676C11.4336 5.12988 11.5566 5.10645 11.6738 5.10645C11.8086 5.10645 11.9375 5.13574 12.0605 5.19434C12.1895 5.25293 12.2949 5.33496 12.377 5.44043C12.459 5.54004 12.5527 5.67187 12.6582 5.83594C12.7695 5.99414 12.875 6.16406 12.9746 6.3457C13.0742 6.52148 13.1592 6.69727 13.2295 6.87305C13.2998 7.04883 13.335 7.20117 13.335 7.33008C13.335 7.55859 13.2676 7.74902 13.1328 7.90137C13.0039 8.04785 12.8604 8.17969 12.7021 8.29688C12.5439 8.4082 12.3975 8.5166 12.2627 8.62207C12.1338 8.72754 12.0693 8.85352 12.0693 9ZM10.9443 9C10.9443 8.7832 10.9795 8.5957 11.0498 8.4375C11.1201 8.27344 11.2109 8.12695 11.3223 7.99805C11.4395 7.86328 11.5713 7.74023 11.7178 7.62891C11.8701 7.51172 12.0225 7.38867 12.1748 7.25977C12.0986 7.08398 12.0137 6.91406 11.9199 6.75C11.8262 6.58594 11.7207 6.42773 11.6035 6.27539C11.3926 6.35156 11.1699 6.43652 10.9355 6.53027C10.7012 6.62402 10.4668 6.6709 10.2324 6.6709C10.0918 6.6709 9.95996 6.65332 9.83691 6.61816C9.71973 6.58301 9.59961 6.53027 9.47656 6.45996C9.2832 6.34863 9.13379 6.22559 9.02832 6.09082C8.92285 5.9502 8.84375 5.80078 8.79102 5.64258C8.73828 5.47852 8.69727 5.30566 8.66797 5.12402C8.64453 4.93652 8.61523 4.74023 8.58008 4.53516C8.48633 4.52344 8.39258 4.51465 8.29883 4.50879C8.20508 4.50293 8.1084 4.5 8.00879 4.5C7.90918 4.5 7.8125 4.50293 7.71875 4.50879C7.625 4.51465 7.53125 4.52344 7.4375 4.53516C7.39648 4.74023 7.36133 4.93359 7.33203 5.11523C7.30859 5.29688 7.26758 5.46973 7.20898 5.63379C7.15625 5.79199 7.07715 5.94141 6.97168 6.08203C6.86621 6.22266 6.7168 6.34863 6.52344 6.45996C6.40039 6.53613 6.28027 6.5918 6.16309 6.62695C6.0459 6.65625 5.91406 6.6709 5.76758 6.6709C5.5332 6.6709 5.29883 6.62402 5.06445 6.53027C4.83594 6.43652 4.61621 6.34863 4.40527 6.2666C4.18262 6.56543 3.98926 6.89355 3.8252 7.25098C3.97754 7.37988 4.12695 7.50293 4.27344 7.62012C4.42578 7.7373 4.55762 7.86328 4.66895 7.99805C4.78613 8.12695 4.87988 8.27344 4.9502 8.4375C5.02051 8.5957 5.05566 8.7832 5.05566 9C5.05566 9.2168 5.02051 9.40723 4.9502 9.57129C4.87988 9.72949 4.78613 9.87598 4.66895 10.0107C4.55762 10.1396 4.42578 10.2627 4.27344 10.3799C4.12695 10.4912 3.97754 10.6113 3.8252 10.7402C3.90137 10.916 3.98633 11.0859 4.08008 11.25C4.17383 11.4141 4.2793 11.5723 4.39648 11.7246C4.60156 11.6484 4.81836 11.5635 5.04688 11.4697C5.28125 11.376 5.5127 11.3291 5.74121 11.3291C5.92871 11.3291 6.10742 11.3613 6.27734 11.4258C6.44727 11.4844 6.59961 11.5723 6.73438 11.6895C6.86914 11.8008 6.9834 11.9355 7.07715 12.0938C7.1709 12.2461 7.23535 12.4131 7.27051 12.5947L7.41992 13.4648C7.51953 13.4766 7.61328 13.4854 7.70117 13.4912C7.79492 13.4971 7.8916 13.5 7.99121 13.5C8.09082 13.5 8.1875 13.4971 8.28125 13.4912C8.375 13.4854 8.47168 13.4766 8.57129 13.4648C8.60059 13.2891 8.62695 13.1162 8.65039 12.9463C8.67969 12.7705 8.71777 12.6035 8.76465 12.4453C8.81738 12.2812 8.8877 12.1289 8.97559 11.9883C9.06934 11.8418 9.19531 11.7158 9.35352 11.6104C9.48828 11.5225 9.62891 11.4551 9.77539 11.4082C9.92773 11.3555 10.083 11.3291 10.2412 11.3291C10.3467 11.3291 10.458 11.3438 10.5752 11.373C10.6924 11.4023 10.8096 11.4375 10.9268 11.4785C11.0439 11.5195 11.1582 11.5635 11.2695 11.6104C11.3867 11.6572 11.4951 11.6982 11.5947 11.7334C11.8174 11.4346 12.0107 11.1064 12.1748 10.749C12.0225 10.6201 11.8701 10.4971 11.7178 10.3799C11.5713 10.2627 11.4395 10.1396 11.3223 10.0107C11.2109 9.87598 11.1201 9.72949 11.0498 9.57129C10.9795 9.41309 10.9443 9.22266 10.9443 9ZM9.125 9C9.125 9.1582 9.0957 9.30469 9.03711 9.43945C8.97852 9.57422 8.89648 9.69434 8.79102 9.7998C8.69141 9.89941 8.57422 9.97852 8.43945 10.0371C8.30469 10.0957 8.1582 10.125 8 10.125C7.8418 10.125 7.69238 10.0957 7.55176 10.0371C7.41699 9.97852 7.2998 9.89941 7.2002 9.7998C7.10059 9.7002 7.02148 9.58301 6.96289 9.44824C6.9043 9.30762 6.875 9.1582 6.875 9C6.875 8.8418 6.9043 8.69531 6.96289 8.56055C7.02148 8.42578 7.10059 8.30859 7.2002 8.20898C7.30566 8.10352 7.42578 8.02148 7.56055 7.96289C7.69531 7.9043 7.8418 7.875 8 7.875C8.15234 7.875 8.2959 7.9043 8.43066 7.96289C8.57129 8.02148 8.69141 8.10352 8.79102 8.20898C8.89648 8.30859 8.97852 8.42871 9.03711 8.56934C9.0957 8.7041 9.125 8.84766 9.125 9ZM15.875 16.3125C15.875 16.4648 15.8193 16.5967 15.708 16.708L14.583 17.833C14.4717 17.9443 14.3398 18 14.1875 18C14.0352 18 13.9033 17.9443 13.792 17.833C13.6807 17.7217 13.625 17.5898 13.625 17.4375C13.625 17.3027 13.6572 17.1973 13.7217 17.1211C13.792 17.0449 13.8711 16.9629 13.959 16.875H3.42969C2.99023 16.875 2.56836 16.7871 2.16406 16.6113C1.76562 16.4297 1.41406 16.1895 1.10938 15.8906C0.810547 15.5859 0.570312 15.2344 0.388672 14.8359C0.212891 14.4316 0.125 14.0098 0.125 13.5703V10.6875C0.125 10.5352 0.180664 10.4033 0.291992 10.292C0.40332 10.1807 0.535156 10.125 0.6875 10.125C0.839844 10.125 0.97168 10.1807 1.08301 10.292C1.19434 10.4033 1.25 10.5352 1.25 10.6875V13.5439C1.25 13.8369 1.30859 14.1182 1.42578 14.3877C1.54883 14.6514 1.70996 14.8857 1.90918 15.0908C2.11426 15.29 2.34863 15.4512 2.6123 15.5742C2.88184 15.6914 3.16309 15.75 3.45605 15.75H13.959C13.877 15.668 13.8008 15.5859 13.7305 15.5039C13.6602 15.4219 13.625 15.3164 13.625 15.1875C13.625 15.0352 13.6807 14.9033 13.792 14.792C13.9033 14.6807 14.0352 14.625 14.1875 14.625C14.3398 14.625 14.4717 14.6807 14.583 14.792L15.708 15.917C15.8193 16.0283 15.875 16.1602 15.875 16.3125Z" fill="#0883D9"/>
</svg>
