<svg width="16" height="16" viewBox="0 0 16 16" fill="none" xmlns="http://www.w3.org/2000/svg">
<path d="M2.33105 6.875C2.03809 6.875 1.75684 6.81641 1.4873 6.69922C1.22363 6.57617 0.989258 6.41504 0.78418 6.21582C0.584961 6.01074 0.423828 5.77637 0.300781 5.5127C0.183594 5.24316 0.125 4.96191 0.125 4.66895V2.33105C0.125 2.03809 0.183594 1.75977 0.300781 1.49609C0.423828 1.22656 0.584961 0.992188 0.78418 0.792969C0.989258 0.587891 1.22363 0.426758 1.4873 0.30957C1.75684 0.186523 2.03809 0.125 2.33105 0.125H4.66895C4.96191 0.125 5.24023 0.186523 5.50391 0.30957C5.77344 0.426758 6.00781 0.587891 6.20703 0.792969C6.41211 0.992188 6.57324 1.22656 6.69043 1.49609C6.81348 1.75977 6.875 2.03809 6.875 2.33105V4.66895C6.875 4.96191 6.81348 5.24316 6.69043 5.5127C6.57324 5.77637 6.41211 6.01074 6.20703 6.21582C6.00781 6.41504 5.77344 6.57617 5.50391 6.69922C5.24023 6.81641 4.96191 6.875 4.66895 6.875H2.33105ZM11.3311 6.875C11.0381 6.875 10.7568 6.81641 10.4873 6.69922C10.2236 6.57617 9.98926 6.41504 9.78418 6.21582C9.58496 6.01074 9.42383 5.77637 9.30078 5.5127C9.18359 5.24316 9.125 4.96191 9.125 4.66895V2.33105C9.125 2.03809 9.18359 1.75977 9.30078 1.49609C9.42383 1.22656 9.58496 0.992188 9.78418 0.792969C9.98926 0.587891 10.2236 0.426758 10.4873 0.30957C10.7568 0.186523 11.0381 0.125 11.3311 0.125H13.6689C13.9619 0.125 14.2402 0.186523 14.5039 0.30957C14.7734 0.426758 15.0078 0.587891 15.207 0.792969C15.4121 0.992188 15.5732 1.22656 15.6904 1.49609C15.8135 1.75977 15.875 2.03809 15.875 2.33105V4.66895C15.875 4.96191 15.8135 5.24316 15.6904 5.5127C15.5732 5.77637 15.4121 6.01074 15.207 6.21582C15.0078 6.41504 14.7734 6.57617 14.5039 6.69922C14.2402 6.81641 13.9619 6.875 13.6689 6.875H11.3311ZM4.625 5.75C4.7832 5.75 4.92969 5.7207 5.06445 5.66211C5.19922 5.60352 5.31641 5.52441 5.41602 5.4248C5.52148 5.31934 5.60352 5.19922 5.66211 5.06445C5.7207 4.92969 5.75 4.7832 5.75 4.625V2.375C5.75 2.22266 5.7207 2.0791 5.66211 1.94434C5.60352 1.80371 5.52148 1.68359 5.41602 1.58398C5.31641 1.47852 5.19629 1.39648 5.05566 1.33789C4.9209 1.2793 4.77734 1.25 4.625 1.25H2.375C2.2168 1.25 2.07031 1.2793 1.93555 1.33789C1.80078 1.39648 1.68066 1.47852 1.5752 1.58398C1.47559 1.68359 1.39648 1.80078 1.33789 1.93555C1.2793 2.07031 1.25 2.2168 1.25 2.375V4.625C1.25 4.7832 1.2793 4.93262 1.33789 5.07324C1.39648 5.20801 1.47559 5.3252 1.5752 5.4248C1.6748 5.52441 1.79199 5.60352 1.92676 5.66211C2.06738 5.7207 2.2168 5.75 2.375 5.75H4.625ZM13.625 5.75C13.7832 5.75 13.9297 5.7207 14.0645 5.66211C14.1992 5.60352 14.3164 5.52441 14.416 5.4248C14.5215 5.31934 14.6035 5.19922 14.6621 5.06445C14.7207 4.92969 14.75 4.7832 14.75 4.625V2.375C14.75 2.22266 14.7207 2.0791 14.6621 1.94434C14.6035 1.80371 14.5215 1.68359 14.416 1.58398C14.3164 1.47852 14.1963 1.39648 14.0557 1.33789C13.9209 1.2793 13.7773 1.25 13.625 1.25H11.375C11.2168 1.25 11.0703 1.2793 10.9355 1.33789C10.8008 1.39648 10.6807 1.47852 10.5752 1.58398C10.4756 1.68359 10.3965 1.80078 10.3379 1.93555C10.2793 2.07031 10.25 2.2168 10.25 2.375V4.625C10.25 4.7832 10.2793 4.93262 10.3379 5.07324C10.3965 5.20801 10.4756 5.3252 10.5752 5.4248C10.6748 5.52441 10.792 5.60352 10.9268 5.66211C11.0674 5.7207 11.2168 5.75 11.375 5.75H13.625ZM4.625 4.625H2.375V2.375H4.625V4.625ZM13.625 4.625H11.375V2.375H13.625V4.625ZM2.33105 15.875C2.03809 15.875 1.75684 15.8164 1.4873 15.6992C1.22363 15.5762 0.989258 15.415 0.78418 15.2158C0.584961 15.0107 0.423828 14.7764 0.300781 14.5127C0.183594 14.2432 0.125 13.9619 0.125 13.6689V11.3311C0.125 11.0381 0.183594 10.7598 0.300781 10.4961C0.423828 10.2266 0.584961 9.99219 0.78418 9.79297C0.989258 9.58789 1.22363 9.42676 1.4873 9.30957C1.75684 9.18652 2.03809 9.125 2.33105 9.125H4.66895C4.96191 9.125 5.24023 9.18652 5.50391 9.30957C5.77344 9.42676 6.00781 9.58789 6.20703 9.79297C6.41211 9.99219 6.57324 10.2266 6.69043 10.4961C6.81348 10.7598 6.875 11.0381 6.875 11.3311V13.6689C6.875 13.9619 6.81348 14.2432 6.69043 14.5127C6.57324 14.7764 6.41211 15.0107 6.20703 15.2158C6.00781 15.415 5.77344 15.5762 5.50391 15.6992C5.24023 15.8164 4.96191 15.875 4.66895 15.875H2.33105ZM11.375 11.375H9.125V9.125H11.375V11.375ZM15.875 11.375H13.625V9.125H15.875V11.375ZM4.625 14.75C4.7832 14.75 4.92969 14.7207 5.06445 14.6621C5.19922 14.6035 5.31641 14.5244 5.41602 14.4248C5.52148 14.3193 5.60352 14.1992 5.66211 14.0645C5.7207 13.9297 5.75 13.7832 5.75 13.625V11.375C5.75 11.2227 5.7207 11.0791 5.66211 10.9443C5.60352 10.8037 5.52148 10.6836 5.41602 10.584C5.31641 10.4785 5.19629 10.3965 5.05566 10.3379C4.9209 10.2793 4.77734 10.25 4.625 10.25H2.375C2.2168 10.25 2.07031 10.2793 1.93555 10.3379C1.80078 10.3965 1.68066 10.4785 1.5752 10.584C1.47559 10.6836 1.39648 10.8008 1.33789 10.9355C1.2793 11.0703 1.25 11.2168 1.25 11.375V13.625C1.25 13.7832 1.2793 13.9326 1.33789 14.0732C1.39648 14.208 1.47559 14.3252 1.5752 14.4248C1.6748 14.5244 1.79199 14.6035 1.92676 14.6621C2.06738 14.7207 2.2168 14.75 2.375 14.75H4.625ZM4.625 13.625H2.375V11.375H4.625V13.625ZM13.625 13.625H11.375V11.375H13.625V13.625ZM11.375 15.875H9.125V13.625H11.375V15.875ZM15.875 15.875H13.625V13.625H15.875V15.875Z" fill="#0883D9"/>
</svg>
