<svg width="17" height="17" viewBox="0 0 17 17" fill="none" xmlns="http://www.w3.org/2000/svg">
<path d="M2.87598 14.75C2.50684 14.75 2.15527 14.6768 1.82129 14.5303C1.4873 14.3779 1.19434 14.1787 0.942383 13.9326C0.696289 13.6807 0.49707 13.3877 0.344727 13.0537C0.198242 12.7197 0.125 12.3682 0.125 11.999V2.87598C0.125 2.50684 0.198242 2.15527 0.344727 1.82129C0.49707 1.4873 0.696289 1.19727 0.942383 0.951172C1.19434 0.699219 1.4873 0.5 1.82129 0.353516C2.15527 0.201172 2.50684 0.125 2.87598 0.125H11.999C12.3682 0.125 12.7197 0.201172 13.0537 0.353516C13.3877 0.5 13.6777 0.699219 13.9238 0.951172C14.1758 1.19727 14.375 1.4873 14.5215 1.82129C14.6738 2.15527 14.75 2.50684 14.75 2.87598V6.11035C14.3926 5.93457 14.0176 5.79395 13.625 5.68848V2.9375C13.625 2.70898 13.5811 2.49219 13.4932 2.28711C13.4053 2.08203 13.2822 1.90332 13.124 1.75098C12.9717 1.59277 12.793 1.46973 12.5879 1.38184C12.3828 1.29395 12.166 1.25 11.9375 1.25H2.9375C2.70898 1.25 2.49219 1.29395 2.28711 1.38184C2.08203 1.46973 1.90039 1.59277 1.74219 1.75098C1.58984 1.90332 1.46973 2.08203 1.38184 2.28711C1.29395 2.49219 1.25 2.70898 1.25 2.9375V11.9375C1.25 12.166 1.29395 12.3828 1.38184 12.5879C1.46973 12.793 1.58984 12.9746 1.74219 13.1328C1.90039 13.2852 2.08203 13.4053 2.28711 13.4932C2.49219 13.5811 2.70898 13.625 2.9375 13.625H5.68848C5.79395 14.0176 5.93457 14.3926 6.11035 14.75H2.87598ZM4.0625 4.625C3.91016 4.625 3.77832 4.56934 3.66699 4.45801C3.55566 4.34668 3.5 4.21484 3.5 4.0625C3.5 3.91016 3.55566 3.77832 3.66699 3.66699C3.77832 3.55566 3.91016 3.5 4.0625 3.5H10.8125C10.9648 3.5 11.0967 3.55566 11.208 3.66699C11.3193 3.77832 11.375 3.91016 11.375 4.0625C11.375 4.21484 11.3193 4.34668 11.208 4.45801C11.0967 4.56934 10.9648 4.625 10.8125 4.625H4.0625ZM4.0625 8C3.91016 8 3.77832 7.94434 3.66699 7.83301C3.55566 7.72168 3.5 7.58984 3.5 7.4375C3.5 7.28516 3.55566 7.15332 3.66699 7.04199C3.77832 6.93066 3.91016 6.875 4.0625 6.875H7.91211C7.70703 7.03906 7.51074 7.21484 7.32324 7.40234C7.13574 7.58984 6.96289 7.78906 6.80469 8H4.0625ZM6.875 11.9375C6.875 11.2402 7.00684 10.584 7.27051 9.96875C7.54004 9.35352 7.90332 8.81738 8.36035 8.36035C8.81738 7.90332 9.35352 7.54297 9.96875 7.2793C10.584 7.00977 11.2402 6.875 11.9375 6.875C12.4004 6.875 12.8457 6.93652 13.2734 7.05957C13.707 7.17676 14.1113 7.34668 14.4863 7.56934C14.8613 7.78613 15.2041 8.0498 15.5146 8.36035C15.8252 8.6709 16.0889 9.01367 16.3057 9.38867C16.5283 9.76367 16.6982 10.168 16.8154 10.6016C16.9385 11.0293 17 11.4746 17 11.9375C17 12.6348 16.8652 13.291 16.5957 13.9062C16.332 14.5215 15.9717 15.0576 15.5146 15.5146C15.0576 15.9717 14.5215 16.335 13.9062 16.6045C13.291 16.8682 12.6348 17 11.9375 17C11.2344 17 10.5752 16.8682 9.95996 16.6045C9.34473 16.3408 8.80859 15.9805 8.35156 15.5234C7.89453 15.0664 7.53418 14.5303 7.27051 13.915C7.00684 13.2998 6.875 12.6406 6.875 11.9375ZM12.5 12.5H14.1875C14.3398 12.5 14.4717 12.4443 14.583 12.333C14.6943 12.2217 14.75 12.0898 14.75 11.9375C14.75 11.7852 14.6943 11.6533 14.583 11.542C14.4717 11.4307 14.3398 11.375 14.1875 11.375H12.5V9.6875C12.5 9.53516 12.4443 9.40332 12.333 9.29199C12.2217 9.18066 12.0898 9.125 11.9375 9.125C11.7852 9.125 11.6533 9.18066 11.542 9.29199C11.4307 9.40332 11.375 9.53516 11.375 9.6875V11.375H9.6875C9.53516 11.375 9.40332 11.4307 9.29199 11.542C9.18066 11.6533 9.125 11.7852 9.125 11.9375C9.125 12.0898 9.18066 12.2217 9.29199 12.333C9.40332 12.4443 9.53516 12.5 9.6875 12.5H11.375V14.1875C11.375 14.3398 11.4307 14.4717 11.542 14.583C11.6533 14.6943 11.7852 14.75 11.9375 14.75C12.0898 14.75 12.2217 14.6943 12.333 14.583C12.4443 14.4717 12.5 14.3398 12.5 14.1875V12.5Z" fill="#0883D9"/>
</svg>
