<svg width="18" height="18" viewBox="0 0 18 18" fill="none" xmlns="http://www.w3.org/2000/svg">
<path d="M16.875 15.1875C16.875 15.3398 16.8193 15.4717 16.708 15.583L14.458 17.833C14.3467 17.9443 14.2148 18 14.0625 18C13.9102 18 13.7783 17.9443 13.667 17.833C13.5557 17.7217 13.5 17.5898 13.5 17.4375C13.5 17.2852 13.5557 17.1533 13.667 17.042L14.959 15.75H3.87598C3.50684 15.75 3.15527 15.6768 2.82129 15.5303C2.4873 15.3838 2.19727 15.1846 1.95117 14.9326C1.70508 14.6807 1.50586 14.3877 1.35352 14.0537C1.20117 13.7197 1.125 13.3682 1.125 12.999V3.87598C1.125 3.50684 1.19824 3.15527 1.34473 2.82129C1.49121 2.4873 1.69043 2.19727 1.94238 1.95117C2.19434 1.70508 2.4873 1.50586 2.82129 1.35352C3.15527 1.20117 3.50684 1.125 3.87598 1.125H12.999C13.3682 1.125 13.7197 1.19824 14.0537 1.34473C14.3877 1.49121 14.6777 1.69043 14.9238 1.94238C15.1699 2.19434 15.3691 2.4873 15.5215 2.82129C15.6738 3.15527 15.75 3.50684 15.75 3.87598V10.6875C15.75 10.8398 15.6943 10.9717 15.583 11.083C15.4717 11.1943 15.3398 11.25 15.1875 11.25C15.0352 11.25 14.9033 11.1943 14.792 11.083C14.6807 10.9717 14.625 10.8398 14.625 10.6875V3.9375C14.625 3.70898 14.5811 3.49219 14.4932 3.28711C14.4053 3.08203 14.2852 2.90332 14.1328 2.75098C13.9805 2.59863 13.7988 2.47559 13.5879 2.38184C13.377 2.28809 13.1602 2.24414 12.9375 2.25H3.9375C3.70898 2.25 3.49219 2.29395 3.28711 2.38184C3.08203 2.46973 2.90332 2.58984 2.75098 2.74219C2.59863 2.89453 2.47559 3.07617 2.38184 3.28711C2.28809 3.49805 2.24414 3.71484 2.25 3.9375V12.9375C2.25 13.166 2.29395 13.3828 2.38184 13.5879C2.46973 13.793 2.58984 13.9717 2.74219 14.124C2.89453 14.2764 3.07617 14.3994 3.28711 14.4932C3.49805 14.5869 3.71484 14.6309 3.9375 14.625H14.959L13.667 13.333C13.5557 13.2217 13.5 13.0898 13.5 12.9375C13.5 12.7852 13.5557 12.6533 13.667 12.542C13.7783 12.4307 13.9102 12.375 14.0625 12.375C14.2148 12.375 14.3467 12.4307 14.458 12.542L16.708 14.792C16.8193 14.9033 16.875 15.0352 16.875 15.1875ZM11.8125 4.5C11.9648 4.5 12.0967 4.55566 12.208 4.66699C12.3193 4.77832 12.375 4.91016 12.375 5.0625C12.375 5.21484 12.3193 5.34668 12.208 5.45801C12.0967 5.56934 11.9648 5.625 11.8125 5.625H5.0625C4.91016 5.625 4.77832 5.56934 4.66699 5.45801C4.55566 5.34668 4.5 5.21484 4.5 5.0625C4.5 4.91016 4.55566 4.77832 4.66699 4.66699C4.77832 4.55566 4.91016 4.5 5.0625 4.5H11.8125ZM11.8125 7.875C11.9648 7.875 12.0967 7.93066 12.208 8.04199C12.3193 8.15332 12.375 8.28516 12.375 8.4375C12.375 8.58984 12.3193 8.72168 12.208 8.83301C12.0967 8.94434 11.9648 9 11.8125 9H5.0625C4.91016 9 4.77832 8.94434 4.66699 8.83301C4.55566 8.72168 4.5 8.58984 4.5 8.4375C4.5 8.28516 4.55566 8.15332 4.66699 8.04199C4.77832 7.93066 4.91016 7.875 5.0625 7.875H11.8125Z" fill="#0883D9"/>
</svg>
