<svg width="18" height="18" viewBox="0 0 18 18" fill="none" xmlns="http://www.w3.org/2000/svg">
<path d="M17.8 15C17.8 15.1625 17.7406 15.3031 17.6219 15.4219L15.2219 17.8219C15.1031 17.9406 14.9625 18 14.8 18C14.6375 18 14.4969 17.9406 14.3781 17.8219C14.2594 17.7031 14.2 17.5625 14.2 17.4C14.2 17.2375 14.2594 17.0969 14.3781 16.9781L15.7562 15.6H3.93437C3.54062 15.6 3.16562 15.5219 2.80937 15.3656C2.45312 15.2094 2.14375 14.9969 1.88125 14.7281C1.61875 14.4594 1.40625 14.1469 1.24375 13.7906C1.08125 13.4344 1 13.0594 1 12.6656V2.93438C1 2.54063 1.07813 2.16563 1.23437 1.80938C1.39062 1.45313 1.60312 1.14375 1.87187 0.88125C2.14062 0.61875 2.45312 0.40625 2.80937 0.24375C3.16562 0.08125 3.54062 0 3.93437 0H13.6656C14.0594 0 14.4344 0.078125 14.7906 0.234375C15.1469 0.390625 15.4562 0.603125 15.7187 0.871875C15.9812 1.14063 16.1937 1.45313 16.3562 1.80938C16.5187 2.16563 16.6 2.54063 16.6 2.93438V10.2C16.6 10.3625 16.5406 10.5031 16.4219 10.6219C16.3031 10.7406 16.1625 10.8 16 10.8C15.8375 10.8 15.6969 10.7406 15.5781 10.6219C15.4594 10.5031 15.4 10.3625 15.4 10.2V3C15.4 2.75625 15.3531 2.525 15.2594 2.30625C15.1656 2.0875 15.0375 1.89688 14.875 1.73438C14.7125 1.57188 14.5187 1.44063 14.2937 1.34063C14.0687 1.24063 13.8375 1.19375 13.6 1.2H4C3.75625 1.2 3.525 1.24688 3.30625 1.34063C3.0875 1.43438 2.89687 1.5625 2.73437 1.725C2.57187 1.8875 2.44062 2.08125 2.34062 2.30625C2.24062 2.53125 2.19375 2.7625 2.2 3V12.6C2.2 12.8438 2.24687 13.075 2.34062 13.2938C2.43437 13.5125 2.5625 13.7031 2.725 13.8656C2.8875 14.0281 3.08125 14.1594 3.30625 14.2594C3.53125 14.3594 3.7625 14.4063 4 14.4H15.7562L14.3781 13.0219C14.2594 12.9031 14.2 12.7625 14.2 12.6C14.2 12.4375 14.2594 12.2969 14.3781 12.1781C14.4969 12.0594 14.6375 12 14.8 12C14.9625 12 15.1031 12.0594 15.2219 12.1781L17.6219 14.5781C17.7406 14.6969 17.8 14.8375 17.8 15ZM12.4 3.6C12.5625 3.6 12.7031 3.65938 12.8219 3.77813C12.9406 3.89688 13 4.0375 13 4.2C13 4.3625 12.9406 4.50313 12.8219 4.62188C12.7031 4.74063 12.5625 4.8 12.4 4.8H5.2C5.0375 4.8 4.89687 4.74063 4.77812 4.62188C4.65937 4.50313 4.6 4.3625 4.6 4.2C4.6 4.0375 4.65937 3.89688 4.77812 3.77813C4.89687 3.65938 5.0375 3.6 5.2 3.6H12.4ZM12.4 7.2C12.5625 7.2 12.7031 7.25938 12.8219 7.37813C12.9406 7.49688 13 7.6375 13 7.8C13 7.9625 12.9406 8.10313 12.8219 8.22188C12.7031 8.34063 12.5625 8.4 12.4 8.4H5.2C5.0375 8.4 4.89687 8.34063 4.77812 8.22188C4.65937 8.10313 4.6 7.9625 4.6 7.8C4.6 7.6375 4.65937 7.49688 4.77812 7.37813C4.89687 7.25938 5.0375 7.2 5.2 7.2H12.4Z" fill="#0078D4"/>
</svg>
