<svg width="12" height="18" viewBox="0 0 12 18" fill="none" xmlns="http://www.w3.org/2000/svg">
<path d="M2.58105 18C2.28809 18 2.00684 17.9414 1.7373 17.8242C1.47363 17.7012 1.23926 17.54 1.03418 17.3408C0.834961 17.1357 0.673828 16.9014 0.550781 16.6377C0.433594 16.3682 0.375 16.0869 0.375 15.7939V6.70605C0.375 6.41895 0.433594 6.14355 0.550781 5.87988C0.667969 5.61621 0.826172 5.38184 1.02539 5.17676C1.23047 4.97168 1.46191 4.80762 1.71973 4.68457C1.9834 4.56152 2.26172 4.5 2.55469 4.5H2.625V0.5625C2.625 0.410156 2.68066 0.27832 2.79199 0.166992C2.90332 0.0556641 3.03516 0 3.1875 0H8.8125C8.96484 0 9.09668 0.0556641 9.20801 0.166992C9.31934 0.27832 9.375 0.410156 9.375 0.5625V4.5H9.41895C9.71191 4.5 9.99023 4.56152 10.2539 4.68457C10.5234 4.80176 10.7578 4.96289 10.957 5.16797C11.1621 5.36719 11.3232 5.60156 11.4404 5.87109C11.5635 6.13477 11.625 6.41309 11.625 6.70605V15.7939C11.625 16.0869 11.5635 16.3682 11.4404 16.6377C11.3232 16.9014 11.1621 17.1357 10.957 17.3408C10.7578 17.54 10.5234 17.7012 10.2539 17.8242C9.99023 17.9414 9.71191 18 9.41895 18H2.58105ZM3.75 1.125V4.5H8.25V1.125H3.75ZM9.375 16.875C9.5332 16.875 9.67969 16.8457 9.81445 16.7871C9.94922 16.7285 10.0664 16.6494 10.166 16.5498C10.2715 16.4443 10.3535 16.3242 10.4121 16.1895C10.4707 16.0547 10.5 15.9082 10.5 15.75V6.75C10.5 6.59766 10.4707 6.4541 10.4121 6.31934C10.3535 6.17871 10.2715 6.05859 10.166 5.95898C10.0664 5.85352 9.94629 5.77148 9.80566 5.71289C9.6709 5.6543 9.52734 5.625 9.375 5.625H2.625C2.4668 5.625 2.32031 5.6543 2.18555 5.71289C2.05078 5.77148 1.93066 5.85352 1.8252 5.95898C1.72559 6.05859 1.64648 6.17578 1.58789 6.31055C1.5293 6.44531 1.5 6.5918 1.5 6.75V15.75C1.5 15.9082 1.5293 16.0576 1.58789 16.1982C1.64648 16.333 1.72559 16.4502 1.8252 16.5498C1.9248 16.6494 2.04199 16.7285 2.17676 16.7871C2.31738 16.8457 2.4668 16.875 2.625 16.875H9.375Z" fill="#0883D9"/>
</svg>
