<svg width="16" height="16" viewBox="0 0 16 16" fill="none" xmlns="http://www.w3.org/2000/svg">
<path d="M1.25 4.625C1.0918 4.625 0.942383 4.5957 0.801758 4.53711C0.666992 4.47852 0.549805 4.39941 0.450195 4.2998C0.350586 4.2002 0.271484 4.08301 0.212891 3.94824C0.154297 3.80762 0.125 3.6582 0.125 3.5V1.25C0.125 1.0918 0.154297 0.945312 0.212891 0.810547C0.271484 0.675781 0.350586 0.558594 0.450195 0.458984C0.555664 0.353516 0.675781 0.271484 0.810547 0.212891C0.945312 0.154297 1.0918 0.125 1.25 0.125H3.5C3.65234 0.125 3.7959 0.154297 3.93066 0.212891C4.07129 0.271484 4.19141 0.353516 4.29102 0.458984C4.39648 0.558594 4.47852 0.678711 4.53711 0.819336C4.5957 0.954102 4.625 1.09766 4.625 1.25V3.5C4.625 3.6582 4.5957 3.80469 4.53711 3.93945C4.47852 4.07422 4.39648 4.19434 4.29102 4.2998C4.19141 4.39941 4.07422 4.47852 3.93945 4.53711C3.80469 4.5957 3.6582 4.625 3.5 4.625H1.25ZM1.25 1.25V3.5H3.5V1.25H1.25ZM6.3125 2.375C6.16016 2.375 6.02832 2.31934 5.91699 2.20801C5.80566 2.09668 5.75 1.96484 5.75 1.8125C5.75 1.66016 5.80566 1.52832 5.91699 1.41699C6.02832 1.30566 6.16016 1.25 6.3125 1.25H15.3125C15.4648 1.25 15.5967 1.30566 15.708 1.41699C15.8193 1.52832 15.875 1.66016 15.875 1.8125C15.875 1.96484 15.8193 2.09668 15.708 2.20801C15.5967 2.31934 15.4648 2.375 15.3125 2.375H6.3125ZM1.25 10.25C1.0918 10.25 0.942383 10.2207 0.801758 10.1621C0.666992 10.1035 0.549805 10.0244 0.450195 9.9248C0.350586 9.8252 0.271484 9.70801 0.212891 9.57324C0.154297 9.43262 0.125 9.2832 0.125 9.125V6.875C0.125 6.7168 0.154297 6.57031 0.212891 6.43555C0.271484 6.30078 0.350586 6.18359 0.450195 6.08398C0.555664 5.97852 0.675781 5.89648 0.810547 5.83789C0.945312 5.7793 1.0918 5.75 1.25 5.75H3.5C3.65234 5.75 3.7959 5.7793 3.93066 5.83789C4.07129 5.89648 4.19141 5.97852 4.29102 6.08398C4.39648 6.18359 4.47852 6.30371 4.53711 6.44434C4.5957 6.5791 4.625 6.72266 4.625 6.875V9.125C4.625 9.2832 4.5957 9.42969 4.53711 9.56445C4.47852 9.69922 4.39648 9.81934 4.29102 9.9248C4.19141 10.0244 4.07422 10.1035 3.93945 10.1621C3.80469 10.2207 3.6582 10.25 3.5 10.25H1.25ZM1.25 6.875V9.125H3.5V6.875H1.25ZM6.3125 8C6.16016 8 6.02832 7.94434 5.91699 7.83301C5.80566 7.72168 5.75 7.58984 5.75 7.4375C5.75 7.28516 5.80566 7.15332 5.91699 7.04199C6.02832 6.93066 6.16016 6.875 6.3125 6.875H15.3125C15.4648 6.875 15.5967 6.93066 15.708 7.04199C15.8193 7.15332 15.875 7.28516 15.875 7.4375C15.875 7.58984 15.8193 7.72168 15.708 7.83301C15.5967 7.94434 15.4648 8 15.3125 8H6.3125ZM1.25 15.875C1.0918 15.875 0.942383 15.8457 0.801758 15.7871C0.666992 15.7285 0.549805 15.6494 0.450195 15.5498C0.350586 15.4502 0.271484 15.333 0.212891 15.1982C0.154297 15.0576 0.125 14.9082 0.125 14.75V12.5C0.125 12.3418 0.154297 12.1953 0.212891 12.0605C0.271484 11.9258 0.350586 11.8086 0.450195 11.709C0.555664 11.6035 0.675781 11.5215 0.810547 11.4629C0.945312 11.4043 1.0918 11.375 1.25 11.375H3.5C3.65234 11.375 3.7959 11.4043 3.93066 11.4629C4.07129 11.5215 4.19141 11.6035 4.29102 11.709C4.39648 11.8086 4.47852 11.9287 4.53711 12.0693C4.5957 12.2041 4.625 12.3477 4.625 12.5V14.75C4.625 14.9082 4.5957 15.0547 4.53711 15.1895C4.47852 15.3242 4.39648 15.4443 4.29102 15.5498C4.19141 15.6494 4.07422 15.7285 3.93945 15.7871C3.80469 15.8457 3.6582 15.875 3.5 15.875H1.25ZM1.25 12.5V14.75H3.5V12.5H1.25ZM6.3125 13.625C6.16016 13.625 6.02832 13.5693 5.91699 13.458C5.80566 13.3467 5.75 13.2148 5.75 13.0625C5.75 12.9102 5.80566 12.7783 5.91699 12.667C6.02832 12.5557 6.16016 12.5 6.3125 12.5H15.3125C15.4648 12.5 15.5967 12.5557 15.708 12.667C15.8193 12.7783 15.875 12.9102 15.875 13.0625C15.875 13.2148 15.8193 13.3467 15.708 13.458C15.5967 13.5693 15.4648 13.625 15.3125 13.625H6.3125Z" fill="#0883D9"/>
</svg>
