<svg width="18" height="16" viewBox="0 0 18 16" fill="none" xmlns="http://www.w3.org/2000/svg">
<path d="M3.30469 13.75C2.86523 13.75 2.44336 13.6621 2.03906 13.4863C1.64062 13.3047 1.28906 13.0645 0.984375 12.7656C0.685547 12.4609 0.445312 12.1094 0.263672 11.7109C0.0878906 11.3066 0 10.8848 0 10.4453V3.55469C0 3.11523 0.0878906 2.69629 0.263672 2.29785C0.445312 1.89355 0.685547 1.54199 0.984375 1.24316C1.28906 0.938477 1.64062 0.698242 2.03906 0.522461C2.44336 0.34082 2.86523 0.25 3.30469 0.25H14.6953C15.1348 0.25 15.5537 0.34082 15.9521 0.522461C16.3564 0.698242 16.708 0.938477 17.0068 1.24316C17.3115 1.54199 17.5518 1.89355 17.7275 2.29785C17.9092 2.69629 18 3.11523 18 3.55469V3.9502C17.6309 3.55176 17.2236 3.2207 16.7783 2.95703C16.7021 2.72266 16.5938 2.50879 16.4531 2.31543C16.3125 2.12207 16.1455 1.95508 15.9521 1.81445C15.7646 1.67383 15.5566 1.56543 15.3281 1.48926C15.1055 1.41309 14.8711 1.375 14.625 1.375H3.33105C3.03809 1.375 2.75684 1.43652 2.4873 1.55957C2.22363 1.67676 1.98926 1.83789 1.78418 2.04297C1.58496 2.24219 1.42383 2.47656 1.30078 2.74609C1.18359 3.00977 1.125 3.28809 1.125 3.58105V10.4189C1.125 10.7236 1.18652 11.0107 1.30957 11.2803C1.43262 11.5439 1.59668 11.7754 1.80176 11.9746C2.00684 12.1738 2.24414 12.332 2.51367 12.4492C2.78906 12.5664 3.07617 12.625 3.375 12.625H10.125V13.75H3.30469ZM3.9375 4.75C3.78516 4.75 3.65332 4.69434 3.54199 4.58301C3.43066 4.47168 3.375 4.33984 3.375 4.1875C3.375 4.03516 3.43066 3.90332 3.54199 3.79199C3.65332 3.68066 3.78516 3.625 3.9375 3.625H9.5625C9.71484 3.625 9.84668 3.68066 9.95801 3.79199C10.0693 3.90332 10.125 4.03516 10.125 4.1875C10.125 4.33984 10.0693 4.47168 9.95801 4.58301C9.84668 4.69434 9.71484 4.75 9.5625 4.75H3.9375ZM10.125 7.49219C10.125 6.96484 10.2305 6.4668 10.4414 5.99805C10.6582 5.5293 10.9453 5.11914 11.3027 4.76758C11.666 4.41602 12.085 4.1377 12.5596 3.93262C13.0342 3.72754 13.5352 3.625 14.0625 3.625C14.6016 3.625 15.1084 3.73047 15.583 3.94141C16.0635 4.14648 16.4824 4.42773 16.8398 4.78516C17.1973 5.14258 17.4785 5.56152 17.6836 6.04199C17.8945 6.5166 18 7.02344 18 7.5625C18 8.10156 17.8945 8.61133 17.6836 9.0918C17.4785 9.56641 17.1973 9.98242 16.8398 10.3398C16.4824 10.6973 16.0635 10.9814 15.583 11.1924C15.1084 11.3975 14.6016 11.5 14.0625 11.5C13.5059 11.5 12.9873 11.3945 12.5068 11.1836C12.0264 10.9727 11.6104 10.6855 11.2588 10.3223C10.9072 9.95898 10.6289 9.53418 10.4238 9.04785C10.2246 8.56152 10.125 8.04297 10.125 7.49219ZM3.9375 10.375C3.78516 10.375 3.65332 10.3193 3.54199 10.208C3.43066 10.0967 3.375 9.96484 3.375 9.8125C3.375 9.66016 3.43066 9.52832 3.54199 9.41699C3.65332 9.30566 3.78516 9.25 3.9375 9.25H8.4375C8.58984 9.25 8.72168 9.30566 8.83301 9.41699C8.94434 9.52832 9 9.66016 9 9.8125C9 9.96484 8.94434 10.0967 8.83301 10.208C8.72168 10.3193 8.58984 10.375 8.4375 10.375H3.9375ZM11.8125 15.9561C11.6543 15.9561 11.5195 15.9033 11.4082 15.7979C11.3027 15.6865 11.25 15.5518 11.25 15.3936V12.1064C11.6719 12.3701 12.1201 12.5693 12.5947 12.7041C13.0752 12.8389 13.5645 12.9062 14.0625 12.9062C14.5605 12.9062 15.0469 12.8389 15.5215 12.7041C16.002 12.5693 16.4531 12.3701 16.875 12.1064V15.3936C16.875 15.5518 16.8193 15.6865 16.708 15.7979C16.6025 15.9033 16.4707 15.9561 16.3125 15.9561C16.1777 15.9561 16.0605 15.915 15.9609 15.833L14.4141 14.5938C14.3145 14.5117 14.1973 14.4707 14.0625 14.4707C13.9277 14.4707 13.8105 14.5117 13.7109 14.5938L12.1641 15.833C12.0645 15.915 11.9473 15.9561 11.8125 15.9561Z" fill="#0883D9"/>
</svg>
