<svg width="18" height="18" viewBox="0 0 18 18" fill="none" xmlns="http://www.w3.org/2000/svg">
<rect x="0.818176" y="3.7" width="16.3636" height="12.75" fill="black"/>
<path d="M3.76093 7.60039C3.64764 7.64596 3.53762 7.67981 3.43085 7.70195C3.32538 7.72409 3.21535 7.73515 3.10077 7.73515C2.91718 7.73515 2.75441 7.70846 2.61249 7.65508C2.47186 7.60039 2.35272 7.51966 2.25507 7.41289C2.15871 7.30612 2.08514 7.17396 2.03436 7.0164C1.98488 6.85755 1.96014 6.6733 1.96014 6.46367C1.96014 6.24883 1.98749 6.05807 2.04218 5.8914C2.09686 5.72343 2.17499 5.58216 2.27655 5.46758C2.37811 5.35169 2.50116 5.2638 2.64569 5.2039C2.79152 5.14271 2.95494 5.11211 3.13593 5.11211C3.19452 5.11211 3.24921 5.11341 3.29999 5.11601C3.35207 5.11862 3.40285 5.12383 3.45233 5.13164C3.50181 5.13815 3.55194 5.14726 3.60272 5.15898C3.6535 5.1707 3.70624 5.18567 3.76093 5.2039V5.68047C3.65025 5.62838 3.54478 5.59127 3.44452 5.56914C3.34426 5.547 3.25311 5.53593 3.17108 5.53593C3.04999 5.53593 2.94647 5.55807 2.86053 5.60234C2.7746 5.64531 2.70363 5.70651 2.64764 5.78593C2.59296 5.86406 2.55259 5.95781 2.52655 6.06718C2.50051 6.17526 2.48749 6.2944 2.48749 6.42461C2.48749 6.56263 2.50051 6.68633 2.52655 6.7957C2.55389 6.90377 2.59556 6.99557 2.65155 7.07109C2.70754 7.14661 2.77915 7.20455 2.86639 7.24492C2.95363 7.28398 3.05715 7.30351 3.17694 7.30351C3.21991 7.30351 3.26613 7.29961 3.31561 7.29179C3.36639 7.28268 3.41718 7.27161 3.46796 7.25859C3.52004 7.24427 3.57082 7.22799 3.6203 7.20976C3.67108 7.19023 3.71796 7.1707 3.76093 7.15117V7.60039ZM5.09882 5.69609C5.1483 5.69609 5.19452 5.70521 5.23749 5.72343C5.28046 5.74166 5.31757 5.76705 5.34882 5.79961C5.38007 5.83086 5.40481 5.86797 5.42303 5.91093C5.44126 5.9539 5.45038 5.99948 5.45038 6.04765C5.45038 6.09713 5.44126 6.14336 5.42303 6.18633C5.40481 6.22929 5.38007 6.2664 5.34882 6.29765C5.31757 6.3289 5.28046 6.35364 5.23749 6.37187C5.19452 6.3901 5.1483 6.39922 5.09882 6.39922C5.04934 6.39922 5.00311 6.3901 4.96014 6.37187C4.91848 6.35364 4.88137 6.3289 4.84882 6.29765C4.81757 6.2664 4.79283 6.22929 4.7746 6.18633C4.75637 6.14336 4.74725 6.09713 4.74725 6.04765C4.74725 5.99948 4.75637 5.9539 4.7746 5.91093C4.79283 5.86797 4.81757 5.83086 4.84882 5.79961C4.88137 5.76705 4.91848 5.74166 4.96014 5.72343C5.00311 5.70521 5.04934 5.69609 5.09882 5.69609ZM5.09882 7.04179C5.1483 7.04179 5.19452 7.05091 5.23749 7.06914C5.28046 7.08737 5.31757 7.11211 5.34882 7.14336C5.38007 7.17461 5.40481 7.21172 5.42303 7.25468C5.44126 7.29765 5.45038 7.34323 5.45038 7.3914C5.45038 7.44088 5.44126 7.48711 5.42303 7.53008C5.40481 7.57304 5.38007 7.6108 5.34882 7.64336C5.31757 7.67461 5.28046 7.69935 5.23749 7.71758C5.19452 7.7358 5.1483 7.74492 5.09882 7.74492C5.04934 7.74492 5.00311 7.7358 4.96014 7.71758C4.91848 7.69935 4.88137 7.67461 4.84882 7.64336C4.81757 7.6108 4.79283 7.57304 4.7746 7.53008C4.75637 7.48711 4.74725 7.44088 4.74725 7.3914C4.74725 7.34323 4.75637 7.29765 4.7746 7.25468C4.79283 7.21172 4.81757 7.17461 4.84882 7.14336C4.88137 7.11211 4.91848 7.08737 4.96014 7.06914C5.00311 7.05091 5.04934 7.04179 5.09882 7.04179ZM6.89374 4.94023L8.25897 8.11992H7.79413L6.43085 4.94023H6.89374ZM8.39764 8.50078V8.12383H10.5969V8.50078H8.39764ZM10.5969 8.50078V8.12383H12.7961V8.50078H10.5969Z" fill="white"/>
<rect x="0.818176" y="2.85001" width="16.3636" height="1.7" fill="#D9D9D9"/>
<rect x="15.5455" y="2.85001" width="0.818182" height="0.85" fill="#605E5C"/>
<rect x="13.9091" y="2.85001" width="0.818182" height="0.85" fill="#605E5C"/>
<rect x="12.2727" y="2.85001" width="0.818182" height="0.85" fill="#605E5C"/>
<rect x="0.5" y="2.5" width="17" height="14.3" stroke="#CDCDCD"/>
</svg>
