<svg width="20" height="20" viewBox="0 0 20 20" fill="none" xmlns="http://www.w3.org/2000/svg">
<rect x="0.909088" y="3.88889" width="18.1818" height="14.1667" fill="black"/>
<path d="M4.45117 8.87549C4.30957 8.93245 4.17204 8.97477 4.03857 9.00244C3.90674 9.03011 3.76921 9.04395 3.62598 9.04395C3.39648 9.04395 3.19303 9.01058 3.01562 8.94385C2.83984 8.87549 2.69092 8.77458 2.56885 8.64111C2.4484 8.50765 2.35645 8.34245 2.29297 8.14551C2.23112 7.94694 2.2002 7.71663 2.2002 7.45459C2.2002 7.18604 2.23438 6.94759 2.30273 6.73926C2.37109 6.5293 2.46875 6.3527 2.5957 6.20947C2.72266 6.06462 2.87646 5.95475 3.05713 5.87988C3.23942 5.80339 3.44368 5.76514 3.66992 5.76514C3.74316 5.76514 3.81152 5.76676 3.875 5.77002C3.9401 5.77327 4.00358 5.77979 4.06543 5.78955C4.12728 5.79769 4.18994 5.80908 4.25342 5.82373C4.31689 5.83838 4.38281 5.8571 4.45117 5.87988V6.47559C4.31283 6.41048 4.18099 6.3641 4.05566 6.33643C3.93034 6.30876 3.81641 6.29492 3.71387 6.29492C3.5625 6.29492 3.43311 6.32259 3.32568 6.37793C3.21826 6.43164 3.12956 6.50814 3.05957 6.60742C2.99121 6.70508 2.94076 6.82227 2.9082 6.95898C2.87565 7.09408 2.85938 7.243 2.85938 7.40576C2.85938 7.57829 2.87565 7.73291 2.9082 7.86963C2.94238 8.00472 2.99447 8.11947 3.06445 8.21387C3.13444 8.30827 3.22396 8.3807 3.33301 8.43115C3.44206 8.47998 3.57145 8.50439 3.72119 8.50439C3.7749 8.50439 3.83268 8.49951 3.89453 8.48975C3.95801 8.47835 4.02148 8.46452 4.08496 8.44824C4.15007 8.43034 4.21354 8.40999 4.27539 8.38721C4.33887 8.36279 4.39746 8.33838 4.45117 8.31396V8.87549ZM6.12354 6.49512C6.18538 6.49512 6.24316 6.50651 6.29688 6.5293C6.35059 6.55208 6.39697 6.58382 6.43604 6.62451C6.4751 6.66357 6.50602 6.70996 6.52881 6.76367C6.5516 6.81738 6.56299 6.87435 6.56299 6.93457C6.56299 6.99642 6.5516 7.0542 6.52881 7.10791C6.50602 7.16162 6.4751 7.20801 6.43604 7.24707C6.39697 7.28613 6.35059 7.31706 6.29688 7.33984C6.24316 7.36263 6.18538 7.37402 6.12354 7.37402C6.06169 7.37402 6.00391 7.36263 5.9502 7.33984C5.89811 7.31706 5.85173 7.28613 5.81104 7.24707C5.77197 7.20801 5.74105 7.16162 5.71826 7.10791C5.69548 7.0542 5.68408 6.99642 5.68408 6.93457C5.68408 6.87435 5.69548 6.81738 5.71826 6.76367C5.74105 6.70996 5.77197 6.66357 5.81104 6.62451C5.85173 6.58382 5.89811 6.55208 5.9502 6.5293C6.00391 6.50651 6.06169 6.49512 6.12354 6.49512ZM6.12354 8.17725C6.18538 8.17725 6.24316 8.18864 6.29688 8.21143C6.35059 8.23421 6.39697 8.26514 6.43604 8.3042C6.4751 8.34326 6.50602 8.38965 6.52881 8.44336C6.5516 8.49707 6.56299 8.55404 6.56299 8.61426C6.56299 8.67611 6.5516 8.73389 6.52881 8.7876C6.50602 8.84131 6.4751 8.88851 6.43604 8.9292C6.39697 8.96826 6.35059 8.99919 6.29688 9.02197C6.24316 9.04476 6.18538 9.05615 6.12354 9.05615C6.06169 9.05615 6.00391 9.04476 5.9502 9.02197C5.89811 8.99919 5.85173 8.96826 5.81104 8.9292C5.77197 8.88851 5.74105 8.84131 5.71826 8.7876C5.69548 8.73389 5.68408 8.67611 5.68408 8.61426C5.68408 8.55404 5.69548 8.49707 5.71826 8.44336C5.74105 8.38965 5.77197 8.34326 5.81104 8.3042C5.85173 8.26514 5.89811 8.23421 5.9502 8.21143C6.00391 8.18864 6.06169 8.17725 6.12354 8.17725ZM8.36719 5.55029L10.0737 9.5249H9.49268L7.78857 5.55029H8.36719ZM10.2471 10.001V9.52979H12.9961V10.001H10.2471ZM12.9961 10.001V9.52979H15.7451V10.001H12.9961Z" fill="white"/>
<rect x="0.909088" y="2.94444" width="18.1818" height="1.88889" fill="#D9D9D9"/>
<rect x="17.2727" y="2.94444" width="0.909091" height="0.944444" fill="#605E5C"/>
<rect x="15.4546" y="2.94444" width="0.909091" height="0.944444" fill="#605E5C"/>
<rect x="13.6364" y="2.94444" width="0.909091" height="0.944444" fill="#605E5C"/>
<rect x="0.5" y="2.5" width="19" height="16" stroke="#CDCDCD"/>
</svg>
