<svg width="18" height="18" viewBox="0 0 18 18" fill="none" xmlns="http://www.w3.org/2000/svg">
<g clip-path="url(#clip0_37_2817)">
<path d="M17.116 3H7.14404L6.4748 2.16348C6.30918 1.95645 6.09912 1.78933 5.86016 1.67448C5.62121 1.55963 5.35948 1.5 5.09436 1.5H0.89175C0.657331 1.50001 0.432516 1.59314 0.266759 1.7589C0.101002 1.92466 0.00787898 2.14948 0.007875 2.3839V3H0V15.6272C0.00147129 15.8601 0.0954272 16.083 0.261198 16.2466C0.42697 16.4103 0.650977 16.5015 0.883943 16.5H17.116C17.349 16.5015 17.573 16.4103 17.7388 16.2466C17.9046 16.0829 17.9985 15.8601 18 15.6272V3.87282C17.9985 3.63986 17.9045 3.41704 17.7388 3.25335C17.573 3.08967 17.349 2.99854 17.116 3Z" fill="url(#paint0_linear_37_2817)"/>
<mask id="mask0_37_2817" style="mask-type:alpha" maskUnits="userSpaceOnUse" x="0" y="1" width="18" height="16">
<path d="M17.116 3H7.14404L6.4748 2.16348C6.30918 1.95645 6.09912 1.78933 5.86016 1.67448C5.62121 1.55963 5.35948 1.5 5.09436 1.5H0.89175C0.657331 1.50001 0.432516 1.59314 0.266759 1.7589C0.101002 1.92466 0.00787898 2.14948 0.007875 2.3839V3H0V15.6272C0.00147129 15.8601 0.0954272 16.083 0.261198 16.2466C0.42697 16.4103 0.650977 16.5015 0.883943 16.5H17.116C17.349 16.5015 17.573 16.4103 17.7388 16.2466C17.9046 16.0829 17.9985 15.8601 18 15.6272V3.87282C17.9985 3.63986 17.9045 3.41704 17.7388 3.25335C17.573 3.08967 17.349 2.99854 17.116 3Z" fill="url(#paint1_linear_37_2817)"/>
</mask>
<g mask="url(#mask0_37_2817)">
<g filter="url(#filter0_dd_37_2817)">
<path d="M15.375 4.5H1.125C0.50368 4.5 0 5.00368 0 5.625V8.625C0 9.24632 0.50368 9.75 1.125 9.75H15.375C15.9963 9.75 16.5 9.24632 16.5 8.625V5.625C16.5 5.00368 15.9963 4.5 15.375 4.5Z" fill="#C4C4C4"/>
</g>
</g>
<path d="M7.72545 3.75004C7.43133 3.74413 7.1429 3.83149 6.9015 3.99961C6.45374 4.32633 5.91378 4.50239 5.3595 4.50238H0.883928C0.649495 4.50238 0.424665 4.59551 0.258896 4.76128C0.0931278 4.92705 0 5.15188 0 5.38631L0 16.3662C1.98897e-05 16.6006 0.0931558 16.8254 0.258922 16.9912C0.424687 17.1569 0.649506 17.25 0.883928 17.25H17.116C17.3505 17.25 17.5753 17.1569 17.7411 16.9912C17.9068 16.8254 18 16.6006 18 16.3662V4.63396C18 4.51788 17.9771 4.40294 17.9327 4.2957C17.8883 4.18845 17.8232 4.09101 17.7411 4.00893C17.659 3.92684 17.5616 3.86174 17.4543 3.81732C17.3471 3.7729 17.2321 3.75003 17.116 3.75004H7.72545Z" fill="url(#paint2_linear_37_2817)"/>
<path opacity="0.3" d="M17.1161 3.75076H7.72883C7.44177 3.74115 7.15906 3.82284 6.92137 3.98408C6.43763 4.34022 5.84803 4.52305 5.24767 4.50308H0.883943C0.767861 4.50308 0.652915 4.52594 0.54567 4.57037C0.438425 4.61479 0.340979 4.6799 0.258898 4.76199C0.176816 4.84407 0.111706 4.94152 0.0672838 5.04876C0.0228621 5.15601 -9.84791e-07 5.27095 1.27287e-10 5.38703L1.27287e-10 6.13703C-1.96976e-06 6.02095 0.0228605 5.90601 0.0672821 5.79876C0.111704 5.69152 0.176814 5.59407 0.258896 5.51199C0.340978 5.42991 0.438424 5.3648 0.54567 5.32037C0.652916 5.27595 0.767861 5.25309 0.883943 5.25309H5.37891C6.01545 5.25927 6.63978 5.07825 7.17428 4.73251C7.4098 4.57627 7.6873 4.49544 7.96988 4.50076H17.116C17.2321 4.50075 17.3471 4.5236 17.4543 4.56802C17.5616 4.61243 17.659 4.67754 17.7411 4.75962C17.8232 4.8417 17.8883 4.93914 17.9327 5.04639C17.9771 5.15363 18 5.26858 18 5.38466V4.63466C18 4.51858 17.9771 4.40364 17.9327 4.2964C17.8883 4.18916 17.8232 4.09172 17.7411 4.00964C17.6591 3.92756 17.5616 3.86246 17.4544 3.81804C17.3471 3.77362 17.2322 3.75076 17.1161 3.75076V3.75076Z" fill="url(#paint3_linear_37_2817)"/>
<mask id="mask1_37_2817" style="mask-type:alpha" maskUnits="userSpaceOnUse" x="0" y="3" width="18" height="15">
<path d="M7.72545 3.75004C7.43133 3.74413 7.1429 3.83149 6.9015 3.99961C6.45374 4.32633 5.91378 4.50239 5.3595 4.50238H0.883928C0.649495 4.50238 0.424665 4.59551 0.258896 4.76128C0.0931278 4.92705 0 5.15188 0 5.38631L0 16.3662C1.98897e-05 16.6006 0.0931558 16.8254 0.258922 16.9912C0.424687 17.1569 0.649506 17.25 0.883928 17.25H17.116C17.3505 17.25 17.5753 17.1569 17.7411 16.9912C17.9068 16.8254 18 16.6006 18 16.3662V4.63396C18 4.51788 17.9771 4.40294 17.9327 4.2957C17.8883 4.18845 17.8232 4.09101 17.7411 4.00893C17.659 3.92684 17.5616 3.86174 17.4543 3.81732C17.3471 3.7729 17.2321 3.75003 17.116 3.75004H7.72545Z" fill="url(#paint4_linear_37_2817)"/>
</mask>
<g mask="url(#mask1_37_2817)">
<g filter="url(#filter1_dd_37_2817)">
<path d="M5.25 12H12.75C13.3467 12 13.919 12.2371 14.341 12.659C14.7629 13.081 15 13.6533 15 14.25V17.25H3V14.25C3 13.6533 3.23705 13.081 3.65901 12.659C4.08097 12.2371 4.65326 12 5.25 12V12Z" fill="url(#paint5_linear_37_2817)"/>
</g>
</g>
<path d="M5.25 12H12.75C13.3467 12 13.919 12.2371 14.341 12.659C14.7629 13.081 15 13.6533 15 14.25V17.25H3V14.25C3 13.6533 3.23705 13.081 3.65901 12.659C4.08097 12.2371 4.65326 12 5.25 12V12Z" fill="url(#paint6_linear_37_2817)"/>
<path d="M12.375 14.25H5.625C5.41789 14.25 5.25 14.4179 5.25 14.625C5.25 14.8321 5.41789 15 5.625 15H12.375C12.5821 15 12.75 14.8321 12.75 14.625C12.75 14.4179 12.5821 14.25 12.375 14.25Z" fill="#114A8B"/>
</g>
<defs>
<filter id="filter0_dd_37_2817" x="-1.5" y="3" width="19.5" height="8.25" filterUnits="userSpaceOnUse" color-interpolation-filters="sRGB">
<feFlood flood-opacity="0" result="BackgroundImageFix"/>
<feColorMatrix in="SourceAlpha" type="matrix" values="0 0 0 0 0 0 0 0 0 0 0 0 0 0 0 0 0 0 127 0" result="hardAlpha"/>
<feOffset/>
<feGaussianBlur stdDeviation="0.25"/>
<feColorMatrix type="matrix" values="0 0 0 0 0 0 0 0 0 0 0 0 0 0 0 0 0 0 0.1 0"/>
<feBlend mode="normal" in2="BackgroundImageFix" result="effect1_dropShadow_37_2817"/>
<feColorMatrix in="SourceAlpha" type="matrix" values="0 0 0 0 0 0 0 0 0 0 0 0 0 0 0 0 0 0 127 0" result="hardAlpha"/>
<feOffset/>
<feGaussianBlur stdDeviation="0.75"/>
<feColorMatrix type="matrix" values="0 0 0 0 0 0 0 0 0 0 0 0 0 0 0 0 0 0 0.2 0"/>
<feBlend mode="normal" in2="effect1_dropShadow_37_2817" result="effect2_dropShadow_37_2817"/>
<feBlend mode="normal" in="SourceGraphic" in2="effect2_dropShadow_37_2817" result="shape"/>
</filter>
<filter id="filter1_dd_37_2817" x="1.5" y="10.5" width="15" height="8.25" filterUnits="userSpaceOnUse" color-interpolation-filters="sRGB">
<feFlood flood-opacity="0" result="BackgroundImageFix"/>
<feColorMatrix in="SourceAlpha" type="matrix" values="0 0 0 0 0 0 0 0 0 0 0 0 0 0 0 0 0 0 127 0" result="hardAlpha"/>
<feOffset/>
<feGaussianBlur stdDeviation="0.25"/>
<feColorMatrix type="matrix" values="0 0 0 0 0 0 0 0 0 0 0 0 0 0 0 0 0 0 0.1 0"/>
<feBlend mode="normal" in2="BackgroundImageFix" result="effect1_dropShadow_37_2817"/>
<feColorMatrix in="SourceAlpha" type="matrix" values="0 0 0 0 0 0 0 0 0 0 0 0 0 0 0 0 0 0 127 0" result="hardAlpha"/>
<feOffset/>
<feGaussianBlur stdDeviation="0.75"/>
<feColorMatrix type="matrix" values="0 0 0 0 0 0 0 0 0 0 0 0 0 0 0 0 0 0 0.2 0"/>
<feBlend mode="normal" in2="effect1_dropShadow_37_2817" result="effect2_dropShadow_37_2817"/>
<feBlend mode="normal" in="SourceGraphic" in2="effect2_dropShadow_37_2817" result="shape"/>
</filter>
<linearGradient id="paint0_linear_37_2817" x1="13.1828" y1="16.9947" x2="4.5833" y2="2.10007" gradientUnits="userSpaceOnUse">
<stop offset="0.1135" stop-color="#D18B00"/>
<stop offset="0.6162" stop-color="#E09F00"/>
</linearGradient>
<linearGradient id="paint1_linear_37_2817" x1="13.1828" y1="16.9947" x2="4.5833" y2="2.10007" gradientUnits="userSpaceOnUse">
<stop offset="0.1135" stop-color="#D18B00"/>
<stop offset="0.6162" stop-color="#E09F00"/>
</linearGradient>
<linearGradient id="paint2_linear_37_2817" x1="13.9722" y1="19.1122" x2="4.62611" y2="2.92425" gradientUnits="userSpaceOnUse">
<stop stop-color="#F5B300"/>
<stop offset="0.5" stop-color="#FFCB3C"/>
<stop offset="1" stop-color="#FFD762"/>
</linearGradient>
<linearGradient id="paint3_linear_37_2817" x1="1.27287e-10" y1="4.94352" x2="18" y2="4.94352" gradientUnits="userSpaceOnUse">
<stop stop-color="white"/>
<stop offset="1" stop-color="white" stop-opacity="0"/>
</linearGradient>
<linearGradient id="paint4_linear_37_2817" x1="13.9722" y1="19.1122" x2="4.62611" y2="2.92425" gradientUnits="userSpaceOnUse">
<stop stop-color="#F5B300"/>
<stop offset="0.5" stop-color="#FFCB3C"/>
<stop offset="1" stop-color="#FFD762"/>
</linearGradient>
<linearGradient id="paint5_linear_37_2817" x1="10.7628" y1="18.5014" x2="6.59164" y2="11.2768" gradientUnits="userSpaceOnUse">
<stop stop-color="#0062B4"/>
<stop offset="1" stop-color="#1493DF"/>
</linearGradient>
<linearGradient id="paint6_linear_37_2817" x1="10.7628" y1="18.5014" x2="6.59164" y2="11.2768" gradientUnits="userSpaceOnUse">
<stop stop-color="#0062B4"/>
<stop offset="1" stop-color="#1493DF"/>
</linearGradient>
<clipPath id="clip0_37_2817">
<rect width="18" height="18" fill="white"/>
</clipPath>
</defs>
</svg>
