<svg width="14" height="11" viewBox="0 0 14 11" fill="none" xmlns="http://www.w3.org/2000/svg">
<path d="M6.95605 10.8428C6.37598 10.8428 5.7959 10.7666 5.21582 10.6143C4.63574 10.4619 4.08203 10.2451 3.55469 9.96387C3.02734 9.67676 2.54395 9.33105 2.10449 8.92676C1.66504 8.52246 1.29883 8.06543 1.00586 7.55566C0.958984 7.47363 0.920898 7.39746 0.891602 7.32715C0.868164 7.25098 0.856445 7.16309 0.856445 7.06348C0.856445 6.94043 0.879883 6.82617 0.926758 6.7207C0.973633 6.60938 1.03809 6.5127 1.12012 6.43066C1.20801 6.34277 1.30469 6.27539 1.41016 6.22852C1.52148 6.18164 1.63867 6.1582 1.76172 6.1582C1.9375 6.1582 2.08398 6.19629 2.20117 6.27246C2.32422 6.34863 2.43555 6.4541 2.53516 6.58887C2.64648 6.73535 2.75488 6.87891 2.86035 7.01953C2.97168 7.16016 3.08887 7.29785 3.21191 7.43262C3.74512 7.9834 4.33105 8.3877 4.96973 8.64551C5.6084 8.90332 6.30859 9.03223 7.07031 9.03223C7.5625 9.03223 8.01367 8.97656 8.42383 8.86523C8.83984 8.75391 9.22656 8.59277 9.58398 8.38184C9.94141 8.1709 10.2754 7.91602 10.5859 7.61719C10.8965 7.3125 11.1953 6.96973 11.4824 6.58887C11.582 6.45996 11.6875 6.35742 11.7988 6.28125C11.9102 6.19922 12.0508 6.1582 12.2207 6.1582C12.4902 6.1582 12.7129 6.24023 12.8887 6.4043C13.0703 6.56836 13.1611 6.78809 13.1611 7.06348C13.1611 7.16309 13.1494 7.24512 13.126 7.30957C13.1025 7.37402 13.0674 7.44727 13.0205 7.5293C12.874 7.79297 12.7041 8.03613 12.5107 8.25879C12.3174 8.47559 12.1152 8.68652 11.9043 8.8916C11.2305 9.53027 10.4688 10.0166 9.61914 10.3506C8.76953 10.6787 7.88184 10.8428 6.95605 10.8428ZM5.16309 2.08887C5.16309 2.28223 5.125 2.4668 5.04883 2.64258C4.97266 2.81836 4.87012 2.97363 4.74121 3.1084C4.6123 3.2373 4.45996 3.33984 4.28418 3.41602C4.11426 3.49219 3.92969 3.53027 3.73047 3.53027C3.53125 3.53027 3.34375 3.49219 3.16797 3.41602C2.99805 3.33984 2.84863 3.2373 2.71973 3.1084C2.59082 2.97949 2.48828 2.83008 2.41211 2.66016C2.33594 2.48438 2.29785 2.29688 2.29785 2.09766C2.29785 1.89844 2.33301 1.71094 2.40332 1.53516C2.47949 1.35938 2.58203 1.20703 2.71094 1.07812C2.83984 0.943359 2.98926 0.837891 3.15918 0.761719C3.33496 0.685547 3.52246 0.647461 3.72168 0.647461C3.9209 0.647461 4.10547 0.685547 4.27539 0.761719C4.45117 0.837891 4.60352 0.943359 4.73242 1.07812C4.86719 1.20703 4.97266 1.35938 5.04883 1.53516C5.125 1.70508 5.16309 1.88965 5.16309 2.08887ZM8.85449 2.08887C8.85449 1.88965 8.89258 1.70215 8.96875 1.52637C9.04492 1.35059 9.14746 1.19824 9.27637 1.06934C9.40527 0.94043 9.55762 0.837891 9.7334 0.761719C9.90918 0.685547 10.0967 0.647461 10.2959 0.647461C10.4951 0.647461 10.6797 0.685547 10.8496 0.761719C11.0254 0.837891 11.1777 0.943359 11.3066 1.07812C11.4355 1.20703 11.5352 1.35938 11.6055 1.53516C11.6816 1.70508 11.7197 1.88965 11.7197 2.08887C11.7197 2.28809 11.6816 2.47559 11.6055 2.65137C11.5293 2.82129 11.4268 2.97363 11.2979 3.1084C11.1689 3.2373 11.0166 3.33984 10.8408 3.41602C10.6709 3.49219 10.4863 3.53027 10.2871 3.53027C10.0879 3.53027 9.90039 3.49219 9.72461 3.41602C9.55469 3.33984 9.40527 3.2373 9.27637 3.1084C9.14746 2.97363 9.04492 2.82129 8.96875 2.65137C8.89258 2.47559 8.85449 2.28809 8.85449 2.08887Z" fill="#0883D9"/>
</svg>
