<svg width="20" height="20" viewBox="0 0 20 20" fill="none" xmlns="http://www.w3.org/2000/svg">
<path d="M10 1.25C9.60286 1.25 9.20898 1.2793 8.81836 1.33789C8.42773 1.39648 8.03711 1.47135 7.64648 1.5625C7.22982 1.66667 6.82943 1.79362 6.44531 1.94336C6.0612 2.08659 5.67383 2.24935 5.2832 2.43164C5.23112 2.45768 5.18555 2.47721 5.14648 2.49023C5.10742 2.49674 5.05859 2.5 5 2.5C4.83073 2.5 4.68424 2.43815 4.56055 2.31445C4.43685 2.19076 4.375 2.04427 4.375 1.875C4.375 1.7513 4.4043 1.64388 4.46289 1.55273C4.52799 1.45508 4.61263 1.37695 4.7168 1.31836C5.06185 1.12305 5.44271 0.953776 5.85938 0.810547C6.27604 0.660807 6.67318 0.530599 7.05078 0.419922C7.53255 0.270182 8.01758 0.16276 8.50586 0.0976562C9.00065 0.0325521 9.4987 0 10 0C11.0938 0 12.1517 0.16276 13.1738 0.488281C14.2025 0.807292 15.1432 1.31185 15.9961 2.00195C16.0807 2.07357 16.1426 2.14844 16.1816 2.22656C16.2272 2.29818 16.25 2.38932 16.25 2.5C16.25 2.66927 16.1882 2.81576 16.0645 2.93945C15.9408 3.06315 15.7943 3.125 15.625 3.125C15.5404 3.125 15.472 3.11523 15.4199 3.0957C15.3743 3.07617 15.319 3.04362 15.2539 2.99805C14.8568 2.72461 14.4596 2.47396 14.0625 2.24609C13.6654 2.01172 13.2357 1.81641 12.7734 1.66016C12.3242 1.51042 11.8652 1.40625 11.3965 1.34766C10.9342 1.28255 10.4688 1.25 10 1.25ZM0.546875 5.60547C0.546875 5.5013 0.585938 5.37109 0.664062 5.21484C0.748698 5.05859 0.852865 4.89583 0.976562 4.72656C1.10677 4.55078 1.25 4.37174 1.40625 4.18945C1.5625 4.00716 1.71875 3.83464 1.875 3.67188C2.03125 3.50911 2.17773 3.36263 2.31445 3.23242C2.45768 3.10221 2.57161 3.0013 2.65625 2.92969C2.78646 2.83203 2.91992 2.7832 3.05664 2.7832C3.23242 2.7832 3.37891 2.84505 3.49609 2.96875C3.61979 3.09245 3.68164 3.24219 3.68164 3.41797C3.68164 3.60026 3.61003 3.75651 3.4668 3.88672C3.11523 4.20573 2.79622 4.52799 2.50977 4.85352C2.22331 5.17253 1.95312 5.53385 1.69922 5.9375C1.56901 6.13281 1.38997 6.23047 1.16211 6.23047C0.986328 6.23047 0.839844 6.16862 0.722656 6.04492C0.605469 5.92122 0.546875 5.77474 0.546875 5.60547ZM9.95117 3.75C9.95117 3.58073 10.013 3.4375 10.1367 3.32031C10.2669 3.19661 10.4167 3.13477 10.5859 3.13477C10.8594 3.13477 11.1589 3.17057 11.4844 3.24219C11.8099 3.3138 12.1354 3.40495 12.4609 3.51562C12.793 3.6263 13.112 3.75 13.418 3.88672C13.7305 4.01693 14.0072 4.14388 14.248 4.26758C14.9577 4.62565 15.5957 5.06836 16.1621 5.5957C16.735 6.12305 17.2559 6.70573 17.7246 7.34375C18.2975 8.125 18.724 8.96484 19.0039 9.86328C19.2904 10.7552 19.4824 11.6797 19.5801 12.6367V12.6953C19.5801 12.8646 19.5182 13.0111 19.3945 13.1348C19.2773 13.2585 19.1309 13.3203 18.9551 13.3203C18.7858 13.3203 18.6458 13.265 18.5352 13.1543C18.431 13.0436 18.3626 12.9102 18.3301 12.7539C18.2975 12.5651 18.2715 12.3763 18.252 12.1875C18.2324 11.9987 18.2064 11.8099 18.1738 11.6211C18.0501 10.9766 17.8711 10.3581 17.6367 9.76562C17.4089 9.17318 17.0996 8.61328 16.709 8.08594C16.2988 7.52604 15.8464 7.01497 15.3516 6.55273C14.8568 6.09049 14.3001 5.69987 13.6816 5.38086C13.278 5.17253 12.8678 4.99023 12.4512 4.83398C12.0345 4.67773 11.6016 4.55729 11.1523 4.47266C11.0482 4.45312 10.944 4.4401 10.8398 4.43359C10.7357 4.42057 10.6315 4.4043 10.5273 4.38477C10.3646 4.35221 10.2279 4.28385 10.1172 4.17969C10.0065 4.06901 9.95117 3.92578 9.95117 3.75ZM0.859375 12.9785C0.859375 11.9043 1.00586 10.8887 1.29883 9.93164C1.5918 8.97461 2.01497 8.09245 2.56836 7.28516C3.12174 6.47786 3.78906 5.76172 4.57031 5.13672C5.35807 4.50521 6.24674 3.98438 7.23633 3.57422C7.31445 3.53516 7.39909 3.51562 7.49023 3.51562C7.65951 3.51562 7.80599 3.57747 7.92969 3.70117C8.05339 3.82487 8.11523 3.97135 8.11523 4.14062C8.11523 4.27083 8.07943 4.38802 8.00781 4.49219C7.94271 4.58984 7.85156 4.66471 7.73438 4.7168C7.10286 5.01628 6.50716 5.3418 5.94727 5.69336C5.38737 6.04492 4.87305 6.48112 4.4043 7.00195C2.88086 8.70117 2.11914 10.6934 2.11914 12.9785C2.11914 13.3105 2.13542 13.6328 2.16797 13.9453C2.20703 14.2513 2.25911 14.5671 2.32422 14.8926C2.33724 14.9447 2.34375 14.9935 2.34375 15.0391C2.34375 15.2083 2.2819 15.3548 2.1582 15.4785C2.03451 15.5957 1.88802 15.6543 1.71875 15.6543C1.56901 15.6543 1.4388 15.612 1.32812 15.5273C1.22396 15.4362 1.14909 15.319 1.10352 15.1758C0.999349 14.8372 0.93099 14.4759 0.898438 14.0918C0.872396 13.7012 0.859375 13.3301 0.859375 12.9785ZM3.75977 13.8574C3.75977 13.6491 3.76628 13.4408 3.7793 13.2324C3.79883 13.0176 3.82487 12.806 3.85742 12.5977C3.98112 11.8359 4.14714 11.1263 4.35547 10.4688C4.5638 9.8112 4.84701 9.21875 5.20508 8.69141C5.56315 8.16406 6.01562 7.71159 6.5625 7.33398C7.11589 6.94987 7.79622 6.65365 8.60352 6.44531C8.85091 6.38021 9.09831 6.33464 9.3457 6.30859C9.59961 6.27604 9.85352 6.25977 10.1074 6.25977C10.6022 6.25977 11.1003 6.33464 11.6016 6.48438C12.1094 6.6276 12.5944 6.82617 13.0566 7.08008C13.5254 7.33398 13.9583 7.63346 14.3555 7.97852C14.7526 8.32357 15.0944 8.69466 15.3809 9.0918C15.4264 9.1569 15.459 9.21875 15.4785 9.27734C15.498 9.33594 15.5078 9.4043 15.5078 9.48242C15.5078 9.65169 15.446 9.79818 15.3223 9.92188C15.1986 10.0391 15.0521 10.0977 14.8828 10.0977C14.7786 10.0977 14.6875 10.0749 14.6094 10.0293C14.5312 9.98372 14.4564 9.92513 14.3848 9.85352C14.2155 9.66471 14.0625 9.4987 13.9258 9.35547C13.7956 9.20573 13.6621 9.06901 13.5254 8.94531C13.3887 8.8151 13.2389 8.69141 13.0762 8.57422C12.9199 8.45703 12.7279 8.33008 12.5 8.19336C11.7383 7.73763 10.9245 7.50977 10.0586 7.50977C9.66797 7.50977 9.28711 7.55859 8.91602 7.65625C8.23893 7.83854 7.67904 8.08919 7.23633 8.4082C6.79362 8.7207 6.43229 9.09505 6.15234 9.53125C5.8724 9.96745 5.65104 10.459 5.48828 11.0059C5.33203 11.5527 5.20182 12.1484 5.09766 12.793C5.03906 13.1445 5.00977 13.5026 5.00977 13.8672C5.00977 14.6094 5.11068 15.3385 5.3125 16.0547C5.52083 16.7643 5.80404 17.4447 6.16211 18.0957C6.19466 18.1543 6.21745 18.2064 6.23047 18.252C6.25 18.2975 6.25977 18.3561 6.25977 18.4277C6.25977 18.597 6.19792 18.7435 6.07422 18.8672C5.95052 18.9909 5.80404 19.0527 5.63477 19.0527C5.51758 19.0527 5.41667 19.0299 5.33203 18.9844C5.25391 18.9323 5.17904 18.8607 5.10742 18.7695C5.02279 18.6589 4.94466 18.5384 4.87305 18.4082C4.80794 18.2715 4.74935 18.138 4.69727 18.0078C4.39779 17.3763 4.16667 16.7025 4.00391 15.9863C3.84115 15.2702 3.75977 14.5605 3.75977 13.8574ZM6.86523 14.1309C6.86523 13.8835 6.86849 13.6328 6.875 13.3789C6.88151 13.125 6.89453 12.8743 6.91406 12.627C6.95312 12.1322 7.04753 11.6829 7.19727 11.2793C7.35352 10.8757 7.5651 10.5339 7.83203 10.2539C8.10547 9.96745 8.4375 9.74609 8.82812 9.58984C9.21875 9.43359 9.67448 9.35547 10.1953 9.35547C10.6445 9.35547 11.0352 9.4043 11.3672 9.50195C11.7057 9.5931 11.9954 9.72656 12.2363 9.90234C12.4772 10.0781 12.679 10.2897 12.8418 10.5371C13.0111 10.778 13.1543 11.0482 13.2715 11.3477C13.3952 11.6471 13.4993 11.9694 13.584 12.3145C13.6751 12.653 13.763 13.0078 13.8477 13.3789C13.8802 13.5221 13.916 13.6882 13.9551 13.877C14.0007 14.0658 14.0495 14.2578 14.1016 14.4531C14.1536 14.6419 14.2122 14.8275 14.2773 15.0098C14.349 15.1855 14.4271 15.332 14.5117 15.4492C14.5703 15.5273 14.6549 15.6413 14.7656 15.791C14.8828 15.9408 15.0065 16.097 15.1367 16.2598C15.2669 16.416 15.3906 16.5625 15.5078 16.6992C15.6315 16.8294 15.7259 16.9173 15.791 16.9629C15.8757 17.015 15.9408 17.0638 15.9863 17.1094C16.0384 17.1484 16.084 17.2168 16.123 17.3145C16.1491 17.373 16.1621 17.4479 16.1621 17.5391C16.1621 17.7083 16.097 17.8581 15.9668 17.9883C15.8431 18.112 15.6966 18.1738 15.5273 18.1738C15.4036 18.1738 15.2734 18.125 15.1367 18.0273C15.0065 17.9297 14.8958 17.8418 14.8047 17.7637C14.5573 17.5358 14.3262 17.2819 14.1113 17.002C13.903 16.722 13.7012 16.4486 13.5059 16.1816C13.3952 16.0319 13.3008 15.8789 13.2227 15.7227C13.1445 15.5599 13.0794 15.3906 13.0273 15.2148C12.9362 14.9154 12.8516 14.5801 12.7734 14.209C12.6953 13.8379 12.6107 13.4668 12.5195 13.0957C12.4284 12.7246 12.321 12.3698 12.1973 12.0312C12.0736 11.6862 11.9206 11.39 11.7383 11.1426C11.6536 11.0254 11.5495 10.9342 11.4258 10.8691C11.3021 10.7975 11.1719 10.7422 11.0352 10.7031C10.8984 10.6641 10.7552 10.638 10.6055 10.625C10.4622 10.612 10.3255 10.6055 10.1953 10.6055C9.70052 10.6055 9.31315 10.6999 9.0332 10.8887C8.75326 11.0775 8.54492 11.3249 8.4082 11.6309C8.27148 11.9303 8.18685 12.2689 8.1543 12.6465C8.12826 13.0241 8.11523 13.4017 8.11523 13.7793V14.2969C8.11523 14.5312 8.14779 14.7949 8.21289 15.0879C8.27799 15.3809 8.35612 15.6803 8.44727 15.9863C8.54492 16.2858 8.64909 16.582 8.75977 16.875C8.87044 17.1615 8.97135 17.4121 9.0625 17.627C9.16667 17.8743 9.27734 18.1152 9.39453 18.3496C9.51172 18.5775 9.63542 18.8053 9.76562 19.0332C9.83073 19.1374 9.86328 19.248 9.86328 19.3652C9.86328 19.5345 9.80143 19.681 9.67773 19.8047C9.55404 19.9284 9.40755 19.9902 9.23828 19.9902C9.01042 19.9902 8.83138 19.8893 8.70117 19.6875C8.54492 19.4531 8.39193 19.1862 8.24219 18.8867C8.09896 18.5807 7.95898 18.265 7.82227 17.9395C7.69206 17.6139 7.57161 17.2917 7.46094 16.9727C7.35026 16.6471 7.25586 16.3477 7.17773 16.0742C7.08659 15.7487 7.01172 15.4297 6.95312 15.1172C6.89453 14.7982 6.86523 14.4694 6.86523 14.1309ZM15.2246 12.3926C15.2246 12.1973 15.2897 12.0475 15.4199 11.9434C15.5566 11.8327 15.7161 11.7773 15.8984 11.7773C16.0742 11.7773 16.2077 11.8392 16.2988 11.9629C16.3965 12.0801 16.4551 12.2168 16.4746 12.373C16.5007 12.6139 16.543 12.8646 16.6016 13.125C16.6602 13.3789 16.7415 13.623 16.8457 13.8574C16.9564 14.0918 17.0964 14.3034 17.2656 14.4922C17.4349 14.681 17.6432 14.8275 17.8906 14.9316C18.1576 15.0423 18.291 15.2376 18.291 15.5176C18.291 15.6934 18.2292 15.8431 18.1055 15.9668C17.9883 16.084 17.8418 16.1426 17.666 16.1426C17.5879 16.1426 17.5098 16.1263 17.4316 16.0938C17.0931 15.9701 16.7871 15.7715 16.5137 15.498C16.2402 15.2246 16.0091 14.9154 15.8203 14.5703C15.6315 14.2253 15.485 13.8639 15.3809 13.4863C15.2767 13.1022 15.2246 12.7376 15.2246 12.3926ZM9.63867 13.1543C9.63867 12.9785 9.69727 12.8288 9.81445 12.7051C9.93815 12.5814 10.0879 12.5195 10.2637 12.5195C10.446 12.5195 10.5924 12.5781 10.7031 12.6953C10.8138 12.806 10.8757 12.9492 10.8887 13.125C10.9147 13.6068 10.9733 14.0885 11.0645 14.5703C11.1621 15.0456 11.2956 15.5111 11.4648 15.9668C11.6341 16.416 11.8424 16.849 12.0898 17.2656C12.3438 17.6758 12.64 18.0566 12.9785 18.4082C13.0436 18.4733 13.0924 18.5417 13.125 18.6133C13.1576 18.6784 13.1738 18.7565 13.1738 18.8477C13.1738 19.0169 13.112 19.1667 12.9883 19.2969C12.8711 19.4206 12.7246 19.4824 12.5488 19.4824C12.3861 19.4824 12.2428 19.4238 12.1191 19.3066C11.7546 18.9811 11.4193 18.5677 11.1133 18.0664C10.8073 17.5651 10.5436 17.0312 10.3223 16.4648C10.1074 15.8984 9.93815 15.3255 9.81445 14.7461C9.69727 14.1667 9.63867 13.6361 9.63867 13.1543Z" fill="#0883D9"/>
</svg>
