<svg width="18" height="18" viewBox="0 0 18 18" fill="none" xmlns="http://www.w3.org/2000/svg">
<path d="M9 1.125C8.64258 1.125 8.28809 1.15137 7.93652 1.2041C7.58496 1.25684 7.2334 1.32422 6.88184 1.40625C6.50684 1.5 6.14648 1.61426 5.80078 1.74902C5.45508 1.87793 5.10645 2.02441 4.75488 2.18848C4.70801 2.21191 4.66699 2.22949 4.63184 2.24121C4.59668 2.24707 4.55273 2.25 4.5 2.25C4.34766 2.25 4.21582 2.19434 4.10449 2.08301C3.99316 1.97168 3.9375 1.83984 3.9375 1.6875C3.9375 1.57617 3.96387 1.47949 4.0166 1.39746C4.0752 1.30957 4.15137 1.23926 4.24512 1.18652C4.55566 1.01074 4.89844 0.858398 5.27344 0.729492C5.64844 0.594727 6.00586 0.477539 6.3457 0.37793C6.7793 0.243164 7.21582 0.146484 7.65527 0.0878906C8.10059 0.0292969 8.54883 0 9 0C9.98438 0 10.9365 0.146484 11.8564 0.439453C12.7822 0.726563 13.6289 1.18066 14.3965 1.80176C14.4727 1.86621 14.5283 1.93359 14.5635 2.00391C14.6045 2.06836 14.625 2.15039 14.625 2.25C14.625 2.40234 14.5693 2.53418 14.458 2.64551C14.3467 2.75684 14.2148 2.8125 14.0625 2.8125C13.9863 2.8125 13.9248 2.80371 13.8779 2.78613C13.8369 2.76855 13.7871 2.73926 13.7285 2.69824C13.3711 2.45215 13.0137 2.22656 12.6562 2.02148C12.2988 1.81055 11.9121 1.63477 11.4961 1.49414C11.0918 1.35938 10.6787 1.26562 10.2568 1.21289C9.84082 1.1543 9.42188 1.125 9 1.125ZM0.492188 5.04492C0.492188 4.95117 0.527344 4.83398 0.597656 4.69336C0.673828 4.55273 0.767578 4.40625 0.878906 4.25391C0.996094 4.0957 1.125 3.93457 1.26562 3.77051C1.40625 3.60645 1.54688 3.45117 1.6875 3.30469C1.82812 3.1582 1.95996 3.02637 2.08301 2.90918C2.21191 2.79199 2.31445 2.70117 2.39062 2.63672C2.50781 2.54883 2.62793 2.50488 2.75098 2.50488C2.90918 2.50488 3.04102 2.56055 3.14648 2.67188C3.25781 2.7832 3.31348 2.91797 3.31348 3.07617C3.31348 3.24023 3.24902 3.38086 3.12012 3.49805C2.80371 3.78516 2.5166 4.0752 2.25879 4.36816C2.00098 4.65527 1.75781 4.98047 1.5293 5.34375C1.41211 5.51953 1.25098 5.60742 1.0459 5.60742C0.887695 5.60742 0.755859 5.55176 0.650391 5.44043C0.544922 5.3291 0.492188 5.19727 0.492188 5.04492ZM8.95605 3.375C8.95605 3.22266 9.01172 3.09375 9.12305 2.98828C9.24023 2.87695 9.375 2.82129 9.52734 2.82129C9.77344 2.82129 10.043 2.85352 10.3359 2.91797C10.6289 2.98242 10.9219 3.06445 11.2148 3.16406C11.5137 3.26367 11.8008 3.375 12.0762 3.49805C12.3574 3.61523 12.6064 3.72949 12.8232 3.84082C13.4619 4.16309 14.0361 4.56152 14.5459 5.03613C15.0615 5.51074 15.5303 6.03516 15.9521 6.60938C16.4678 7.3125 16.8516 8.06836 17.1035 8.87695C17.3613 9.67969 17.5342 10.5117 17.6221 11.373V11.4258C17.6221 11.5781 17.5664 11.71 17.4551 11.8213C17.3496 11.9326 17.2178 11.9883 17.0596 11.9883C16.9072 11.9883 16.7812 11.9385 16.6816 11.8389C16.5879 11.7393 16.5264 11.6191 16.4971 11.4785C16.4678 11.3086 16.4443 11.1387 16.4268 10.9688C16.4092 10.7988 16.3857 10.6289 16.3564 10.459C16.2451 9.87891 16.084 9.32227 15.873 8.78906C15.668 8.25586 15.3896 7.75195 15.0381 7.27734C14.6689 6.77344 14.2617 6.31348 13.8164 5.89746C13.3711 5.48145 12.8701 5.12988 12.3135 4.84277C11.9502 4.65527 11.5811 4.49121 11.2061 4.35059C10.8311 4.20996 10.4414 4.10156 10.0371 4.02539C9.94336 4.00781 9.84961 3.99609 9.75586 3.99023C9.66211 3.97852 9.56836 3.96387 9.47461 3.94629C9.32812 3.91699 9.20508 3.85547 9.10547 3.76172C9.00586 3.66211 8.95605 3.5332 8.95605 3.375ZM0.773438 11.6807C0.773438 10.7139 0.905273 9.7998 1.16895 8.93848C1.43262 8.07715 1.81348 7.2832 2.31152 6.55664C2.80957 5.83008 3.41016 5.18555 4.11328 4.62305C4.82227 4.05469 5.62207 3.58594 6.5127 3.2168C6.58301 3.18164 6.65918 3.16406 6.74121 3.16406C6.89355 3.16406 7.02539 3.21973 7.13672 3.33105C7.24805 3.44238 7.30371 3.57422 7.30371 3.72656C7.30371 3.84375 7.27148 3.94922 7.20703 4.04297C7.14844 4.13086 7.06641 4.19824 6.96094 4.24512C6.39258 4.51465 5.85645 4.80762 5.35254 5.12402C4.84863 5.44043 4.38574 5.83301 3.96387 6.30176C2.59277 7.83105 1.90723 9.62402 1.90723 11.6807C1.90723 11.9795 1.92188 12.2695 1.95117 12.5508C1.98633 12.8262 2.0332 13.1104 2.0918 13.4033C2.10352 13.4502 2.10938 13.4941 2.10938 13.5352C2.10938 13.6875 2.05371 13.8193 1.94238 13.9307C1.83105 14.0361 1.69922 14.0889 1.54688 14.0889C1.41211 14.0889 1.29492 14.0508 1.19531 13.9746C1.10156 13.8926 1.03418 13.7871 0.993164 13.6582C0.899414 13.3535 0.837891 13.0283 0.808594 12.6826C0.785156 12.3311 0.773438 11.9971 0.773438 11.6807ZM3.38379 12.4717C3.38379 12.2842 3.38965 12.0967 3.40137 11.9092C3.41895 11.7158 3.44238 11.5254 3.47168 11.3379C3.58301 10.6523 3.73242 10.0137 3.91992 9.42188C4.10742 8.83008 4.3623 8.29688 4.68457 7.82227C5.00684 7.34766 5.41406 6.94043 5.90625 6.60059C6.4043 6.25488 7.0166 5.98828 7.74316 5.80078C7.96582 5.74219 8.18848 5.70117 8.41113 5.67773C8.63965 5.64844 8.86816 5.63379 9.09668 5.63379C9.54199 5.63379 9.99023 5.70117 10.4414 5.83594C10.8984 5.96484 11.335 6.14355 11.751 6.37207C12.1729 6.60059 12.5625 6.87012 12.9199 7.18066C13.2773 7.49121 13.585 7.8252 13.8428 8.18262C13.8838 8.24121 13.9131 8.29688 13.9307 8.34961C13.9482 8.40234 13.957 8.46387 13.957 8.53418C13.957 8.68652 13.9014 8.81836 13.79 8.92969C13.6787 9.03516 13.5469 9.08789 13.3945 9.08789C13.3008 9.08789 13.2188 9.06738 13.1484 9.02637C13.0781 8.98535 13.0107 8.93262 12.9463 8.86816C12.7939 8.69824 12.6562 8.54883 12.5332 8.41992C12.416 8.28516 12.2959 8.16211 12.1729 8.05078C12.0498 7.93359 11.915 7.82227 11.7686 7.7168C11.6279 7.61133 11.4551 7.49707 11.25 7.37402C10.5645 6.96387 9.83203 6.75879 9.05273 6.75879C8.70117 6.75879 8.3584 6.80273 8.02441 6.89062C7.41504 7.05469 6.91113 7.28027 6.5127 7.56738C6.11426 7.84863 5.78906 8.18555 5.53711 8.57812C5.28516 8.9707 5.08594 9.41309 4.93945 9.90527C4.79883 10.3975 4.68164 10.9336 4.58789 11.5137C4.53516 11.8301 4.50879 12.1523 4.50879 12.4805C4.50879 13.1484 4.59961 13.8047 4.78125 14.4492C4.96875 15.0879 5.22363 15.7002 5.5459 16.2861C5.5752 16.3389 5.5957 16.3857 5.60742 16.4268C5.625 16.4678 5.63379 16.5205 5.63379 16.585C5.63379 16.7373 5.57812 16.8691 5.4668 16.9805C5.35547 17.0918 5.22363 17.1475 5.07129 17.1475C4.96582 17.1475 4.875 17.127 4.79883 17.0859C4.72852 17.0391 4.66113 16.9746 4.59668 16.8926C4.52051 16.793 4.4502 16.6846 4.38574 16.5674C4.32715 16.4443 4.27441 16.3242 4.22754 16.207C3.95801 15.6387 3.75 15.0322 3.60352 14.3877C3.45703 13.7432 3.38379 13.1045 3.38379 12.4717ZM6.17871 12.7178C6.17871 12.4951 6.18164 12.2695 6.1875 12.041C6.19336 11.8125 6.20508 11.5869 6.22266 11.3643C6.25781 10.9189 6.34277 10.5146 6.47754 10.1514C6.61816 9.78809 6.80859 9.48047 7.04883 9.22852C7.29492 8.9707 7.59375 8.77148 7.94531 8.63086C8.29688 8.49023 8.70703 8.41992 9.17578 8.41992C9.58008 8.41992 9.93164 8.46387 10.2305 8.55176C10.5352 8.63379 10.7959 8.75391 11.0127 8.91211C11.2295 9.07031 11.4111 9.26074 11.5576 9.4834C11.71 9.7002 11.8389 9.94336 11.9443 10.2129C12.0557 10.4824 12.1494 10.7725 12.2256 11.083C12.3076 11.3877 12.3867 11.707 12.4629 12.041C12.4922 12.1699 12.5244 12.3193 12.5596 12.4893C12.6006 12.6592 12.6445 12.832 12.6914 13.0078C12.7383 13.1777 12.791 13.3447 12.8496 13.5088C12.9141 13.667 12.9844 13.7988 13.0605 13.9043C13.1133 13.9746 13.1895 14.0771 13.2891 14.2119C13.3945 14.3467 13.5059 14.4873 13.623 14.6338C13.7402 14.7744 13.8516 14.9062 13.957 15.0293C14.0684 15.1465 14.1533 15.2256 14.2119 15.2666C14.2881 15.3135 14.3467 15.3574 14.3877 15.3984C14.4346 15.4336 14.4756 15.4951 14.5107 15.583C14.5342 15.6357 14.5459 15.7031 14.5459 15.7852C14.5459 15.9375 14.4873 16.0723 14.3701 16.1895C14.2588 16.3008 14.127 16.3564 13.9746 16.3564C13.8633 16.3564 13.7461 16.3125 13.623 16.2246C13.5059 16.1367 13.4062 16.0576 13.3242 15.9873C13.1016 15.7822 12.8936 15.5537 12.7002 15.3018C12.5127 15.0498 12.3311 14.8037 12.1553 14.5635C12.0557 14.4287 11.9707 14.291 11.9004 14.1504C11.8301 14.0039 11.7715 13.8516 11.7246 13.6934C11.6426 13.4238 11.5664 13.1221 11.4961 12.7881C11.4258 12.4541 11.3496 12.1201 11.2676 11.7861C11.1855 11.4521 11.0889 11.1328 10.9775 10.8281C10.8662 10.5176 10.7285 10.251 10.5645 10.0283C10.4883 9.92285 10.3945 9.84082 10.2832 9.78223C10.1719 9.71777 10.0547 9.66797 9.93164 9.63281C9.80859 9.59766 9.67969 9.57422 9.54492 9.5625C9.41602 9.55078 9.29297 9.54492 9.17578 9.54492C8.73047 9.54492 8.38184 9.62988 8.12988 9.7998C7.87793 9.96973 7.69043 10.1924 7.56738 10.4678C7.44434 10.7373 7.36816 11.042 7.33887 11.3818C7.31543 11.7217 7.30371 12.0615 7.30371 12.4014V12.8672C7.30371 13.0781 7.33301 13.3154 7.3916 13.5791C7.4502 13.8428 7.52051 14.1123 7.60254 14.3877C7.69043 14.6572 7.78418 14.9238 7.88379 15.1875C7.9834 15.4453 8.07422 15.6709 8.15625 15.8643C8.25 16.0869 8.34961 16.3037 8.45508 16.5146C8.56055 16.7197 8.67188 16.9248 8.78906 17.1299C8.84766 17.2236 8.87695 17.3232 8.87695 17.4287C8.87695 17.5811 8.82129 17.7129 8.70996 17.8242C8.59863 17.9355 8.4668 17.9912 8.31445 17.9912C8.10938 17.9912 7.94824 17.9004 7.83105 17.7188C7.69043 17.5078 7.55273 17.2676 7.41797 16.998C7.28906 16.7227 7.16309 16.4385 7.04004 16.1455C6.92285 15.8525 6.81445 15.5625 6.71484 15.2754C6.61523 14.9824 6.53027 14.7129 6.45996 14.4668C6.37793 14.1738 6.31055 13.8867 6.25781 13.6055C6.20508 13.3184 6.17871 13.0225 6.17871 12.7178ZM13.7021 11.1533C13.7021 10.9775 13.7607 10.8428 13.8779 10.749C14.001 10.6494 14.1445 10.5996 14.3086 10.5996C14.4668 10.5996 14.5869 10.6553 14.6689 10.7666C14.7568 10.8721 14.8096 10.9951 14.8271 11.1357C14.8506 11.3525 14.8887 11.5781 14.9414 11.8125C14.9941 12.041 15.0674 12.2607 15.1611 12.4717C15.2607 12.6826 15.3867 12.873 15.5391 13.043C15.6914 13.2129 15.8789 13.3447 16.1016 13.4385C16.3418 13.5381 16.4619 13.7139 16.4619 13.9658C16.4619 14.124 16.4062 14.2588 16.2949 14.3701C16.1895 14.4756 16.0576 14.5283 15.8994 14.5283C15.8291 14.5283 15.7588 14.5137 15.6885 14.4844C15.3838 14.373 15.1084 14.1943 14.8623 13.9482C14.6162 13.7021 14.4082 13.4238 14.2383 13.1133C14.0684 12.8027 13.9365 12.4775 13.8428 12.1377C13.749 11.792 13.7021 11.4639 13.7021 11.1533ZM8.6748 11.8389C8.6748 11.6807 8.72754 11.5459 8.83301 11.4346C8.94434 11.3232 9.0791 11.2676 9.2373 11.2676C9.40137 11.2676 9.5332 11.3203 9.63281 11.4258C9.73242 11.5254 9.78809 11.6543 9.7998 11.8125C9.82324 12.2461 9.87598 12.6797 9.95801 13.1133C10.0459 13.541 10.166 13.96 10.3184 14.3701C10.4707 14.7744 10.6582 15.1641 10.8809 15.5391C11.1094 15.9082 11.376 16.251 11.6807 16.5674C11.7393 16.626 11.7832 16.6875 11.8125 16.752C11.8418 16.8105 11.8564 16.8809 11.8564 16.9629C11.8564 17.1152 11.8008 17.25 11.6895 17.3672C11.584 17.4785 11.4521 17.5342 11.2939 17.5342C11.1475 17.5342 11.0186 17.4814 10.9072 17.376C10.5791 17.083 10.2773 16.7109 10.002 16.2598C9.72656 15.8086 9.48926 15.3281 9.29004 14.8184C9.09668 14.3086 8.94434 13.793 8.83301 13.2715C8.72754 12.75 8.6748 12.2725 8.6748 11.8389Z" fill="#0883D9"/>
</svg>
