<svg width="18" height="16" viewBox="0 0 18 16" fill="none" xmlns="http://www.w3.org/2000/svg">
<path d="M2.75098 15.875C2.38184 15.875 2.03027 15.8018 1.69629 15.6553C1.3623 15.5029 1.06934 15.3037 0.817383 15.0576C0.571289 14.8057 0.37207 14.5127 0.219727 14.1787C0.0732422 13.8447 0 13.4932 0 13.124V2.87598C0 2.50684 0.0732422 2.15527 0.219727 1.82129C0.37207 1.4873 0.571289 1.19727 0.817383 0.951172C1.06934 0.699219 1.3623 0.5 1.69629 0.353516C2.03027 0.201172 2.38184 0.125 2.75098 0.125H6.1875C6.5918 0.125 6.9375 0.189453 7.22461 0.318359C7.51758 0.441406 7.78125 0.608398 8.01562 0.819336C8.25 1.03027 8.4668 1.27051 8.66602 1.54004C8.86523 1.80957 9.07031 2.08789 9.28125 2.375H14.1064C14.4697 2.375 14.8184 2.44824 15.1523 2.59473C15.4863 2.74121 15.7793 2.94043 16.0312 3.19238C16.2832 3.43848 16.4854 3.72559 16.6377 4.05371C16.79 4.38184 16.8691 4.72754 16.875 5.09082C17.1504 5.30762 17.3643 5.57129 17.5166 5.88184C17.6689 6.19238 17.7451 6.52344 17.7451 6.875C17.7451 6.92773 17.7451 6.98047 17.7451 7.0332C17.7451 7.08008 17.7393 7.12988 17.7275 7.18262L16.8574 13.4492C16.8105 13.7832 16.7051 14.0996 16.541 14.3984C16.377 14.6914 16.1719 14.9492 15.9258 15.1719C15.6797 15.3887 15.4014 15.5615 15.0908 15.6904C14.7803 15.8135 14.4551 15.875 14.1152 15.875H2.75098ZM15.6533 4.63379C15.5947 4.46387 15.5127 4.31152 15.4072 4.17676C15.3018 4.03613 15.1787 3.91602 15.0381 3.81641C14.8975 3.7168 14.7451 3.64062 14.5811 3.58789C14.417 3.5293 14.2441 3.5 14.0625 3.5H8.71875L7.54102 1.92676C7.38281 1.71582 7.18359 1.55176 6.94336 1.43457C6.70312 1.31152 6.45117 1.25 6.1875 1.25H2.8125C2.58398 1.25 2.36719 1.29395 2.16211 1.38184C1.95703 1.46973 1.77539 1.59277 1.61719 1.75098C1.46484 1.90332 1.34473 2.08203 1.25684 2.28711C1.16895 2.49219 1.125 2.70898 1.125 2.9375V13.0625C1.125 13.0977 1.125 13.1328 1.125 13.168C1.13086 13.1973 1.13379 13.2295 1.13379 13.2646L2.54883 6.41797C2.60156 6.16016 2.69531 5.92285 2.83008 5.70605C2.9707 5.4834 3.1377 5.29297 3.33105 5.13477C3.53027 4.97656 3.75 4.85352 3.99023 4.76562C4.23633 4.67187 4.49121 4.625 4.75488 4.625H15.5039C15.5332 4.625 15.5566 4.625 15.5742 4.625C15.5977 4.625 15.624 4.62793 15.6533 4.63379ZM14.0713 14.75C14.2822 14.75 14.4814 14.7148 14.6689 14.6445C14.8623 14.5684 15.0322 14.4658 15.1787 14.3369C15.3311 14.2021 15.4541 14.0469 15.5479 13.8711C15.6475 13.6953 15.7119 13.502 15.7412 13.291L16.6113 7.0332C16.6172 7.00391 16.6201 6.97754 16.6201 6.9541C16.6201 6.93066 16.6201 6.9043 16.6201 6.875C16.6201 6.72266 16.5908 6.5791 16.5322 6.44434C16.4736 6.30371 16.3945 6.18359 16.2949 6.08398C16.1953 5.97852 16.0781 5.89648 15.9434 5.83789C15.8086 5.7793 15.6621 5.75 15.5039 5.75H4.75488C4.62012 5.75 4.49121 5.77344 4.36816 5.82031C4.25098 5.86133 4.14258 5.92285 4.04297 6.00488C3.94336 6.08105 3.8584 6.1748 3.78809 6.28613C3.71777 6.39746 3.6709 6.51758 3.64746 6.64648L2.02148 14.5479C2.27344 14.6826 2.53711 14.75 2.8125 14.75H14.0713Z" fill="#0883D9"/>
</svg>
