<svg width="18" height="16" viewBox="0 0 18 16" fill="none" xmlns="http://www.w3.org/2000/svg">
<path d="M2.75098 15.875C2.38184 15.875 2.03027 15.8018 1.69629 15.6553C1.3623 15.5029 1.06934 15.3037 0.817383 15.0576C0.571289 14.8057 0.37207 14.5127 0.219727 14.1787C0.0732422 13.8447 0 13.4932 0 13.124V2.87598C0 2.50684 0.0732422 2.15527 0.219727 1.82129C0.37207 1.4873 0.571289 1.19727 0.817383 0.951172C1.06934 0.699219 1.3623 0.5 1.69629 0.353516C2.03027 0.201172 2.38184 0.125 2.75098 0.125H6.1875C6.5918 0.125 6.9375 0.189453 7.22461 0.318359C7.51758 0.441406 7.78125 0.608398 8.01562 0.819336C8.25 1.03027 8.4668 1.27051 8.66602 1.54004C8.86523 1.80957 9.07031 2.08789 9.28125 2.375H15.249C15.6182 2.375 15.9697 2.45117 16.3037 2.60352C16.6377 2.75 16.9277 2.94922 17.1738 3.20117C17.4258 3.44727 17.625 3.7373 17.7715 4.07129C17.9238 4.40527 18 4.75684 18 5.12598V13.124C18 13.4932 17.9238 13.8447 17.7715 14.1787C17.625 14.5127 17.4258 14.8057 17.1738 15.0576C16.9277 15.3037 16.6377 15.5029 16.3037 15.6553C15.9697 15.8018 15.6182 15.875 15.249 15.875H2.75098ZM6.62695 3.5C6.78516 3.5 6.93164 3.47949 7.06641 3.43848C7.20117 3.39746 7.33301 3.34473 7.46191 3.28027C7.59082 3.20996 7.71387 3.13379 7.83105 3.05176C7.94824 2.96973 8.06836 2.88477 8.19141 2.79688C8.05664 2.61523 7.9248 2.43359 7.7959 2.25195C7.66699 2.06445 7.52637 1.89746 7.37402 1.75098C7.22168 1.60449 7.04883 1.48438 6.85547 1.39062C6.66797 1.29687 6.44531 1.25 6.1875 1.25H2.8125C2.58398 1.25 2.36719 1.29395 2.16211 1.38184C1.95703 1.46973 1.77539 1.59277 1.61719 1.75098C1.46484 1.90332 1.34473 2.08203 1.25684 2.28711C1.16895 2.49219 1.125 2.70898 1.125 2.9375V3.5H6.62695ZM15.1875 14.75C15.416 14.75 15.6328 14.7061 15.8379 14.6182C16.043 14.5303 16.2217 14.4102 16.374 14.2578C16.5322 14.0996 16.6553 13.918 16.7432 13.7129C16.8311 13.5078 16.875 13.291 16.875 13.0625V5.1875C16.875 4.95898 16.8311 4.74219 16.7432 4.53711C16.6553 4.33203 16.5322 4.15332 16.374 4.00098C16.2217 3.84277 16.043 3.71973 15.8379 3.63184C15.6328 3.54395 15.416 3.5 15.1875 3.5H9.16699C8.96191 3.64062 8.7627 3.77832 8.56934 3.91309C8.38184 4.04785 8.18555 4.16797 7.98047 4.27344C7.78125 4.37891 7.57031 4.46387 7.34766 4.52832C7.125 4.59277 6.88477 4.625 6.62695 4.625H1.125V13.0625C1.125 13.291 1.16895 13.5078 1.25684 13.7129C1.34473 13.918 1.46484 14.0996 1.61719 14.2578C1.77539 14.4102 1.95703 14.5303 2.16211 14.6182C2.36719 14.7061 2.58398 14.75 2.8125 14.75H15.1875Z" fill="#0883D9"/>
</svg>
