<svg width="17" height="17" viewBox="0 0 17 17" fill="none" xmlns="http://www.w3.org/2000/svg">
<path d="M0 8.4375C0 7.6582 0.0996094 6.91113 0.298828 6.19629C0.498047 5.47559 0.779297 4.80176 1.14258 4.1748C1.51172 3.54785 1.95117 2.97949 2.46094 2.46973C2.97656 1.9541 3.54785 1.51465 4.1748 1.15137C4.80176 0.782227 5.47266 0.498047 6.1875 0.298828C6.9082 0.0996094 7.6582 0 8.4375 0C9.2168 0 9.96387 0.0996094 10.6787 0.298828C11.3994 0.498047 12.0732 0.782227 12.7002 1.15137C13.3271 1.51465 13.8955 1.9541 14.4053 2.46973C14.9209 2.97949 15.3604 3.54785 15.7236 4.1748C16.0928 4.80176 16.377 5.47559 16.5762 6.19629C16.7754 6.91113 16.875 7.6582 16.875 8.4375C16.875 9.2168 16.7725 9.9668 16.5674 10.6875C16.3682 11.4023 16.084 12.0732 15.7148 12.7002C15.3516 13.3213 14.9121 13.8896 14.3965 14.4053C13.8867 14.915 13.3184 15.3545 12.6914 15.7236C12.0703 16.0869 11.3994 16.3711 10.6787 16.5762C9.95801 16.7754 9.21094 16.875 8.4375 16.875C7.6582 16.875 6.9082 16.7754 6.1875 16.5762C5.4668 16.377 4.79297 16.0957 4.16602 15.7324C3.54492 15.3633 2.97656 14.9238 2.46094 14.4141C1.95117 13.8984 1.51172 13.3301 1.14258 12.709C0.779297 12.082 0.498047 11.4082 0.298828 10.6875C0.0996094 9.9668 0 9.2168 0 8.4375ZM15.75 8.4375C15.75 7.76367 15.6621 7.11621 15.4863 6.49512C15.3164 5.86816 15.0703 5.28516 14.748 4.74609C14.4316 4.20117 14.0508 3.70898 13.6055 3.26953C13.166 2.82422 12.6738 2.44336 12.1289 2.12695C11.5898 1.80469 11.0068 1.55859 10.3799 1.38867C9.75879 1.21289 9.11133 1.125 8.4375 1.125C7.76367 1.125 7.11328 1.21289 6.48633 1.38867C5.86523 1.55859 5.28223 1.80469 4.7373 2.12695C4.19824 2.44336 3.70605 2.82422 3.26074 3.26953C2.82129 3.70898 2.44043 4.20117 2.11816 4.74609C1.80176 5.28516 1.55566 5.86816 1.37988 6.49512C1.20996 7.11621 1.125 7.76367 1.125 8.4375C1.125 9.11133 1.20996 9.76172 1.37988 10.3887C1.55566 11.0098 1.80176 11.5928 2.11816 12.1377C2.43457 12.6768 2.81543 13.1689 3.26074 13.6143C3.70605 14.0596 4.19824 14.4404 4.7373 14.7568C5.28223 15.0732 5.86523 15.3193 6.48633 15.4951C7.11328 15.665 7.76367 15.75 8.4375 15.75C9.11133 15.75 9.75879 15.665 10.3799 15.4951C11.0068 15.3193 11.5898 15.0732 12.1289 14.7568C12.6738 14.4404 13.1689 14.0596 13.6143 13.6143C14.0596 13.1689 14.4404 12.6768 14.7568 12.1377C15.0732 11.5928 15.3164 11.0098 15.4863 10.3887C15.6621 9.76172 15.75 9.11133 15.75 8.4375ZM7.59375 5.0625C7.59375 4.82812 7.67578 4.62891 7.83984 4.46484C8.00391 4.30078 8.20312 4.21875 8.4375 4.21875C8.67188 4.21875 8.87109 4.30078 9.03516 4.46484C9.19922 4.62891 9.28125 4.82812 9.28125 5.0625C9.28125 5.29688 9.19922 5.49609 9.03516 5.66016C8.87109 5.82422 8.67188 5.90625 8.4375 5.90625C8.20312 5.90625 8.00391 5.82422 7.83984 5.66016C7.67578 5.49609 7.59375 5.29688 7.59375 5.0625ZM7.875 11.8125V7.3125C7.875 7.16016 7.93066 7.02832 8.04199 6.91699C8.15332 6.80566 8.28516 6.75 8.4375 6.75C8.58984 6.75 8.72168 6.80566 8.83301 6.91699C8.94434 7.02832 9 7.16016 9 7.3125V11.8125C9 11.9648 8.94434 12.0967 8.83301 12.208C8.72168 12.3193 8.58984 12.375 8.4375 12.375C8.28516 12.375 8.15332 12.3193 8.04199 12.208C7.93066 12.0967 7.875 11.9648 7.875 11.8125Z" fill="#0883D9"/>
</svg>
