<svg width="18" height="18" viewBox="0 0 18 18" fill="none" xmlns="http://www.w3.org/2000/svg">
<path d="M6.37207 2.58398C6.37207 2.23242 6.44238 1.90137 6.58301 1.59082C6.72949 1.27441 6.92285 0.999023 7.16309 0.764648C7.40332 0.530273 7.68164 0.345703 7.99805 0.210938C8.31445 0.0703125 8.64844 0 9 0C9.35742 0 9.69434 0.0703125 10.0107 0.210938C10.333 0.351562 10.6113 0.541992 10.8457 0.782227C11.0859 1.0166 11.2764 1.29492 11.417 1.61719C11.5576 1.93359 11.6279 2.27051 11.6279 2.62793C11.6279 2.99121 11.5576 3.33105 11.417 3.64746C11.2822 3.96387 11.0947 4.24219 10.8545 4.48242C10.6201 4.7168 10.3418 4.9043 10.0195 5.04492C9.70312 5.17969 9.36328 5.24707 9 5.24707C8.64844 5.24707 8.31445 5.17969 7.99805 5.04492C7.68164 4.91016 7.40332 4.72852 7.16309 4.5C6.92285 4.26562 6.72949 3.99316 6.58301 3.68262C6.44238 3.37207 6.37207 3.04102 6.37207 2.68945V2.58398ZM1.125 3.375V3.33105C1.125 3.02637 1.18652 2.74219 1.30957 2.47852C1.43262 2.20898 1.59668 1.97461 1.80176 1.77539C2.00684 1.57617 2.24414 1.41797 2.51367 1.30078C2.78906 1.18359 3.07617 1.125 3.375 1.125C3.67969 1.125 3.96973 1.18652 4.24512 1.30957C4.52051 1.42676 4.75781 1.58789 4.95703 1.79297C5.16211 1.99219 5.32324 2.22949 5.44043 2.50488C5.56348 2.78027 5.625 3.07031 5.625 3.375C5.625 3.68555 5.56348 3.97852 5.44043 4.25391C5.32324 4.52344 5.16211 4.76074 4.95703 4.96582C4.75781 5.16504 4.52051 5.32617 4.24512 5.44922C3.96973 5.56641 3.67969 5.625 3.375 5.625C3.06445 5.625 2.77148 5.56641 2.49609 5.44922C2.22656 5.32617 1.98926 5.16504 1.78418 4.96582C1.58496 4.76074 1.42383 4.52344 1.30078 4.25391C1.18359 3.97852 1.125 3.68555 1.125 3.375ZM10.5029 2.62793C10.5029 2.42285 10.4619 2.22949 10.3799 2.04785C10.3037 1.86621 10.1953 1.70801 10.0547 1.57324C9.91992 1.43262 9.76172 1.32422 9.58008 1.24805C9.39844 1.16602 9.20508 1.125 9 1.125C8.79492 1.125 8.60156 1.16602 8.41992 1.24805C8.23828 1.32422 8.07715 1.43262 7.93652 1.57324C7.80176 1.70801 7.69336 1.86621 7.61133 2.04785C7.53516 2.22949 7.49707 2.42285 7.49707 2.62793C7.49707 2.83301 7.53516 3.02637 7.61133 3.20801C7.69336 3.38965 7.80176 3.54785 7.93652 3.68262C8.07715 3.81738 8.23828 3.92578 8.41992 4.00781C8.60156 4.08398 8.79492 4.12207 9 4.12207C9.20508 4.12207 9.39844 4.08398 9.58008 4.00781C9.76172 3.92578 9.91992 3.81738 10.0547 3.68262C10.1953 3.54785 10.3037 3.38965 10.3799 3.20801C10.4619 3.02637 10.5029 2.83301 10.5029 2.62793ZM12.375 3.375V3.33105C12.375 3.02637 12.4365 2.74219 12.5596 2.47852C12.6826 2.20898 12.8467 1.97461 13.0518 1.77539C13.2568 1.57617 13.4941 1.41797 13.7637 1.30078C14.0391 1.18359 14.3262 1.125 14.625 1.125C14.9297 1.125 15.2197 1.18652 15.4951 1.30957C15.7705 1.42676 16.0078 1.58789 16.207 1.79297C16.4121 1.99219 16.5732 2.22949 16.6904 2.50488C16.8135 2.78027 16.875 3.07031 16.875 3.375C16.875 3.68555 16.8135 3.97852 16.6904 4.25391C16.5732 4.52344 16.4121 4.76074 16.207 4.96582C16.0078 5.16504 15.7705 5.32617 15.4951 5.44922C15.2197 5.56641 14.9297 5.625 14.625 5.625C14.3145 5.625 14.0215 5.56641 13.7461 5.44922C13.4766 5.32617 13.2393 5.16504 13.0342 4.96582C12.835 4.76074 12.6738 4.52344 12.5508 4.25391C12.4336 3.97852 12.375 3.68555 12.375 3.375ZM4.5 3.375C4.5 3.22266 4.4707 3.0791 4.41211 2.94434C4.35352 2.80371 4.27148 2.68359 4.16602 2.58398C4.06641 2.47852 3.94629 2.39648 3.80566 2.33789C3.6709 2.2793 3.52734 2.25 3.375 2.25C3.2168 2.25 3.07031 2.2793 2.93555 2.33789C2.80078 2.39648 2.68066 2.47852 2.5752 2.58398C2.47559 2.68359 2.39648 2.80078 2.33789 2.93555C2.2793 3.07031 2.25 3.2168 2.25 3.375C2.25 3.5332 2.2793 3.68262 2.33789 3.82324C2.39648 3.95801 2.47559 4.0752 2.5752 4.1748C2.6748 4.27441 2.79199 4.35352 2.92676 4.41211C3.06738 4.4707 3.2168 4.5 3.375 4.5C3.5332 4.5 3.67969 4.4707 3.81445 4.41211C3.94922 4.35352 4.06641 4.27441 4.16602 4.1748C4.27148 4.06934 4.35352 3.94922 4.41211 3.81445C4.4707 3.67969 4.5 3.5332 4.5 3.375ZM15.75 3.375C15.75 3.22266 15.7207 3.0791 15.6621 2.94434C15.6035 2.80371 15.5215 2.68359 15.416 2.58398C15.3164 2.47852 15.1963 2.39648 15.0557 2.33789C14.9209 2.2793 14.7773 2.25 14.625 2.25C14.4668 2.25 14.3203 2.2793 14.1855 2.33789C14.0508 2.39648 13.9307 2.47852 13.8252 2.58398C13.7256 2.68359 13.6465 2.80078 13.5879 2.93555C13.5293 3.07031 13.5 3.2168 13.5 3.375C13.5 3.5332 13.5293 3.68262 13.5879 3.82324C13.6465 3.95801 13.7256 4.0752 13.8252 4.1748C13.9248 4.27441 14.042 4.35352 14.1768 4.41211C14.3174 4.4707 14.4668 4.5 14.625 4.5C14.7832 4.5 14.9297 4.4707 15.0645 4.41211C15.1992 4.35352 15.3164 4.27441 15.416 4.1748C15.5215 4.06934 15.6035 3.94922 15.6621 3.81445C15.7207 3.67969 15.75 3.5332 15.75 3.375ZM0 10.2832C0 9.82031 0.0908203 9.375 0.272461 8.94727C0.459961 8.51953 0.708984 8.14453 1.01953 7.82227C1.33594 7.49414 1.70215 7.2334 2.11816 7.04004C2.54004 6.84668 2.98535 6.75 3.4541 6.75C3.99902 6.75 4.51758 6.86426 5.00977 7.09277C5.50781 7.31543 5.92383 7.64648 6.25781 8.08594C6.60352 7.66406 7.01074 7.33594 7.47949 7.10156C7.94824 6.86719 8.45508 6.75 9 6.75C9.55078 6.75 10.0576 6.86719 10.5205 7.10156C10.9893 7.33594 11.3965 7.66406 11.7422 8.08594C12.082 7.64648 12.4951 7.31543 12.9814 7.09277C13.4736 6.86426 13.9951 6.75 14.5459 6.75C15.0146 6.75 15.457 6.84668 15.873 7.04004C16.2949 7.2334 16.6611 7.49414 16.9717 7.82227C17.2881 8.14453 17.5371 8.51953 17.7188 8.94727C17.9062 9.375 18 9.82031 18 10.2832C18 10.834 17.9062 11.3262 17.7188 11.7598C17.5371 12.1934 17.2529 12.6035 16.8662 12.9902L12.0938 17.8506C12.0059 17.9502 11.8887 18 11.7422 18C11.6777 18 11.6133 17.9883 11.5488 17.9648C11.4844 17.9355 11.4287 17.8975 11.3818 17.8506L9 15.416L6.61816 17.8506C6.51855 17.9502 6.39844 18 6.25781 18C6.11133 18 5.99414 17.9502 5.90625 17.8506L1.13379 12.9814C0.74707 12.5889 0.459961 12.1787 0.272461 11.751C0.0908203 11.3232 0 10.834 0 10.2832ZM6.25781 16.6025L8.20898 14.6162L6.61816 12.9814C6.24902 12.6064 5.96777 12.208 5.77441 11.7861C5.58105 11.3584 5.48438 10.8779 5.48438 10.3447C5.48438 10.1396 5.49902 9.9375 5.52832 9.73828C5.55762 9.53906 5.60742 9.3457 5.67773 9.1582C5.52539 8.96484 5.37305 8.78906 5.2207 8.63086C5.07422 8.47266 4.91602 8.33789 4.74609 8.22656C4.57617 8.11523 4.38867 8.03027 4.18359 7.97168C3.97852 7.90723 3.74414 7.875 3.48047 7.875C3.1582 7.875 2.85352 7.94238 2.56641 8.07715C2.2793 8.20605 2.02734 8.38477 1.81055 8.61328C1.59961 8.83594 1.43262 9.09375 1.30957 9.38672C1.18652 9.67969 1.125 9.98438 1.125 10.3008C1.125 10.6934 1.18945 11.0361 1.31836 11.3291C1.45312 11.6162 1.65527 11.9004 1.9248 12.1816L6.25781 16.6025ZM9 13.8076L10.5996 12.1816C10.8691 11.9062 11.0684 11.6221 11.1973 11.3291C11.332 11.0303 11.3994 10.6875 11.3994 10.3008C11.3994 9.97266 11.335 9.66211 11.2061 9.36914C11.083 9.07617 10.9102 8.81836 10.6875 8.5957C10.4707 8.37305 10.2158 8.19727 9.92285 8.06836C9.63574 7.93945 9.32812 7.875 9 7.875C8.67188 7.875 8.36133 7.93945 8.06836 8.06836C7.78125 8.19727 7.5293 8.37305 7.3125 8.5957C7.0957 8.81836 6.92285 9.07617 6.79395 9.36914C6.6709 9.66211 6.60938 9.97266 6.60938 10.3008C6.60938 10.6875 6.67383 11.0303 6.80273 11.3291C6.9375 11.6279 7.13672 11.9121 7.40039 12.1816L9 13.8076ZM11.7422 16.6025L16.0752 12.1816C16.3447 11.9004 16.5439 11.6162 16.6729 11.3291C16.8076 11.0361 16.875 10.6934 16.875 10.3008C16.875 9.98438 16.8135 9.67969 16.6904 9.38672C16.5674 9.09375 16.3975 8.83594 16.1807 8.61328C15.9697 8.38477 15.7207 8.20605 15.4336 8.07715C15.1465 7.94238 14.8418 7.875 14.5195 7.875C14.2559 7.875 14.0215 7.90723 13.8164 7.97168C13.6113 8.03027 13.4238 8.11523 13.2539 8.22656C13.084 8.33789 12.9229 8.47266 12.7705 8.63086C12.624 8.78906 12.4746 8.96484 12.3223 9.1582C12.457 9.54492 12.5244 9.94043 12.5244 10.3447C12.5244 10.8779 12.4248 11.3584 12.2256 11.7861C12.0322 12.208 11.751 12.6064 11.3818 12.9814L9.79102 14.6162L11.7422 16.6025Z" fill="#0883D9"/>
</svg>
