<svg width="18" height="18" viewBox="0 0 18 18" fill="none" xmlns="http://www.w3.org/2000/svg">
<path d="M15.1 1.25999H1C0.723858 1.25999 0.5 1.48385 0.5 1.75999V10.82C0.5 11.0961 0.723858 11.32 1 11.32H15.1C15.3761 11.32 15.6 11.0961 15.6 10.82V1.75999C15.6 1.48385 15.3761 1.25999 15.1 1.25999Z" fill="url(#paint0_linear_116_431)"/>
<path d="M14.48 2.10001H1.62C1.46536 2.10001 1.34 2.22537 1.34 2.38001V10.21C1.34 10.3646 1.46536 10.49 1.62 10.49H14.48C14.6346 10.49 14.76 10.3646 14.76 10.21V2.38001C14.76 2.22537 14.6346 2.10001 14.48 2.10001Z" fill="white"/>
<path d="M11.08 14.37C9.57999 14.14 9.51999 13.06 9.52999 11.37H6.52999C6.52999 13.11 6.46999 14.19 4.97999 14.37C4.77751 14.4005 4.5923 14.5015 4.45694 14.6552C4.32158 14.8088 4.24476 15.0053 4.23999 15.21H11.78C11.7752 15.0116 11.7034 14.8206 11.5763 14.6681C11.4492 14.5156 11.2743 14.4105 11.08 14.37Z" fill="url(#paint1_linear_116_431)"/>
<path d="M17.17 5.91H10.29C10.176 5.34884 9.85759 4.85004 9.3966 4.51035C8.9356 4.17065 8.36487 4.0143 7.79512 4.0716C7.22536 4.1289 6.6972 4.39578 6.31308 4.82047C5.92897 5.24515 5.71628 5.79737 5.71628 6.37C5.71628 6.94263 5.92897 7.49485 6.31308 7.91954C6.6972 8.34422 7.22536 8.6111 7.79512 8.66841C8.36487 8.72571 8.9356 8.56935 9.3966 8.22966C9.85759 7.88997 10.176 7.39116 10.29 6.83H11V16.41C11 16.4975 11.0348 16.5815 11.0967 16.6433C11.1586 16.7052 11.2425 16.74 11.33 16.74H17.16C17.2475 16.74 17.3315 16.7052 17.3934 16.6433C17.4552 16.5815 17.49 16.4975 17.49 16.41V6.24C17.4901 6.15419 17.4567 6.07173 17.3969 6.01012C17.3372 5.94852 17.2558 5.9126 17.17 5.91Z" fill="#32BEDD"/>
<path d="M16.77 6.82001H11.74C11.6737 6.82001 11.62 6.87373 11.62 6.94001V15.4C11.62 15.4663 11.6737 15.52 11.74 15.52H16.77C16.8363 15.52 16.89 15.4663 16.89 15.4V6.94001C16.89 6.87373 16.8363 6.82001 16.77 6.82001Z" fill="white"/>
<path opacity="0.9" d="M8.05 7.87C8.85633 7.87 9.51 7.21633 9.51 6.41C9.51 5.60366 8.85633 4.95 8.05 4.95C7.24366 4.95 6.59 5.60366 6.59 6.41C6.59 7.21633 7.24366 7.87 8.05 7.87Z" fill="url(#paint2_linear_116_431)"/>
<path d="M14.88 10.82L13.76 9.7C13.751 9.6919 13.7398 9.68668 13.7279 9.68505C13.7159 9.68341 13.7037 9.68543 13.6929 9.69083C13.6821 9.69623 13.6732 9.70477 13.6673 9.71533C13.6614 9.72589 13.6589 9.73797 13.66 9.75V10.43C13.66 10.4459 13.6537 10.4612 13.6424 10.4724C13.6312 10.4837 13.6159 10.49 13.6 10.49H11V11.32H13.6C13.6159 11.32 13.6312 11.3263 13.6424 11.3376C13.6537 11.3488 13.66 11.3641 13.66 11.38V12.07C13.6655 12.0783 13.6729 12.085 13.6816 12.0897C13.6904 12.0944 13.7001 12.0968 13.71 12.0968C13.7199 12.0968 13.7296 12.0944 13.7384 12.0897C13.7471 12.085 13.7545 12.0783 13.76 12.07L14.88 11C14.8928 10.9887 14.903 10.9749 14.91 10.9594C14.917 10.9439 14.9206 10.927 14.9206 10.91C14.9206 10.893 14.917 10.8761 14.91 10.8606C14.903 10.8451 14.8928 10.8313 14.88 10.82Z" fill="#0078D4"/>
<defs>
<linearGradient id="paint0_linear_116_431" x1="8.05" y1="11.32" x2="8.05" y2="1.25999" gradientUnits="userSpaceOnUse">
<stop stop-color="#0078D4"/>
<stop offset="0.82" stop-color="#5EA0EF"/>
</linearGradient>
<linearGradient id="paint1_linear_116_431" x1="8.04999" y1="15.21" x2="8.04999" y2="11.32" gradientUnits="userSpaceOnUse">
<stop stop-color="#1490DF"/>
<stop offset="0.98" stop-color="#1F56A3"/>
</linearGradient>
<linearGradient id="paint2_linear_116_431" x1="8.05" y1="7.87" x2="8.05" y2="4.94" gradientUnits="userSpaceOnUse">
<stop stop-color="#D2EBFF"/>
<stop offset="1" stop-color="#F0FFFD"/>
</linearGradient>
</defs>
</svg>
