<svg width="20" height="20" viewBox="0 0 20 20" fill="none" xmlns="http://www.w3.org/2000/svg">
<path d="M16.7778 1.39999H1.1111C0.804273 1.39999 0.555542 1.64872 0.555542 1.95555V12.0222C0.555542 12.329 0.804273 12.5778 1.1111 12.5778H16.7778C17.0846 12.5778 17.3333 12.329 17.3333 12.0222V1.95555C17.3333 1.64872 17.0846 1.39999 16.7778 1.39999Z" fill="url(#paint0_linear_116_431)"/>
<path d="M16.0889 2.33333H1.8C1.62818 2.33333 1.48889 2.47262 1.48889 2.64444V11.3444C1.48889 11.5163 1.62818 11.6556 1.8 11.6556H16.0889C16.2607 11.6556 16.4 11.5163 16.4 11.3444V2.64444C16.4 2.47262 16.2607 2.33333 16.0889 2.33333Z" fill="white"/>
<path d="M12.3111 15.9667C10.6445 15.7111 10.5778 14.5111 10.5889 12.6333H7.25557C7.25557 14.5667 7.1889 15.7667 5.53334 15.9667C5.30837 16.0006 5.10258 16.1128 4.95218 16.2835C4.80178 16.4542 4.71642 16.6725 4.71112 16.9H13.0889C13.0835 16.6795 13.0038 16.4673 12.8626 16.2979C12.7214 16.1284 12.527 16.0117 12.3111 15.9667Z" fill="url(#paint1_linear_116_431)"/>
<path d="M19.0778 6.56667H11.4333C11.3066 5.94316 10.9529 5.38893 10.4407 5.01149C9.92844 4.63406 9.29429 4.46033 8.66123 4.524C8.02817 4.58767 7.44132 4.8842 7.01453 5.35607C6.58773 5.82795 6.35141 6.44153 6.35141 7.07778C6.35141 7.71404 6.58773 8.32761 7.01453 8.79949C7.44132 9.27136 8.02817 9.56789 8.66123 9.63156C9.29429 9.69523 9.92844 9.5215 10.4407 9.14407C10.9529 8.76663 11.3066 8.2124 11.4333 7.58889H12.2222V18.2333C12.2222 18.3306 12.2609 18.4238 12.3296 18.4926C12.3984 18.5614 12.4916 18.6 12.5889 18.6H19.0667C19.1639 18.6 19.2572 18.5614 19.3259 18.4926C19.3947 18.4238 19.4333 18.3306 19.4333 18.2333V6.93334C19.4334 6.83798 19.3963 6.74637 19.3299 6.67791C19.2635 6.60946 19.1731 6.56956 19.0778 6.56667Z" fill="#32BEDD"/>
<path d="M18.6333 7.57777H13.0444C12.9708 7.57777 12.9111 7.63747 12.9111 7.71111V17.1111C12.9111 17.1847 12.9708 17.2444 13.0444 17.2444H18.6333C18.707 17.2444 18.7667 17.1847 18.7667 17.1111V7.71111C18.7667 7.63747 18.707 7.57777 18.6333 7.57777Z" fill="white"/>
<path opacity="0.9" d="M8.94446 8.74444C9.84039 8.74444 10.5667 8.01815 10.5667 7.12222C10.5667 6.22629 9.84039 5.5 8.94446 5.5C8.04853 5.5 7.32224 6.22629 7.32224 7.12222C7.32224 8.01815 8.04853 8.74444 8.94446 8.74444Z" fill="url(#paint2_linear_116_431)"/>
<path d="M16.5333 12.0222L15.2889 10.7778C15.2789 10.7688 15.2665 10.763 15.2532 10.7612C15.2399 10.7593 15.2264 10.7616 15.2144 10.7676C15.2023 10.7736 15.1924 10.7831 15.1859 10.7948C15.1794 10.8065 15.1766 10.82 15.1778 10.8333V11.5889C15.1778 11.6066 15.1708 11.6235 15.1583 11.636C15.1458 11.6485 15.1288 11.6556 15.1111 11.6556H12.2222V12.5778H15.1111C15.1288 12.5778 15.1458 12.5848 15.1583 12.5973C15.1708 12.6098 15.1778 12.6268 15.1778 12.6444V13.4111C15.1839 13.4203 15.1921 13.4278 15.2018 13.433C15.2115 13.4382 15.2223 13.4409 15.2333 13.4409C15.2443 13.4409 15.2552 13.4382 15.2649 13.433C15.2746 13.4278 15.2828 13.4203 15.2889 13.4111L16.5333 12.2222C16.5475 12.2097 16.5589 12.1943 16.5667 12.1771C16.5745 12.1598 16.5785 12.1411 16.5785 12.1222C16.5785 12.1033 16.5745 12.0846 16.5667 12.0674C16.5589 12.0501 16.5475 12.0347 16.5333 12.0222Z" fill="#0078D4"/>
<defs>
<linearGradient id="paint0_linear_116_431" x1="8.94443" y1="12.5778" x2="8.94443" y2="1.39999" gradientUnits="userSpaceOnUse">
<stop stop-color="#0078D4"/>
<stop offset="0.82" stop-color="#5EA0EF"/>
</linearGradient>
<linearGradient id="paint1_linear_116_431" x1="8.94445" y1="16.9" x2="8.94445" y2="12.5778" gradientUnits="userSpaceOnUse">
<stop stop-color="#1490DF"/>
<stop offset="0.98" stop-color="#1F56A3"/>
</linearGradient>
<linearGradient id="paint2_linear_116_431" x1="8.94446" y1="8.74444" x2="8.94446" y2="5.48889" gradientUnits="userSpaceOnUse">
<stop stop-color="#D2EBFF"/>
<stop offset="1" stop-color="#F0FFFD"/>
</linearGradient>
</defs>
</svg>
