<svg width="14" height="12" viewBox="0 0 14 12" fill="none" xmlns="http://www.w3.org/2000/svg">
<path d="M7.00879 0.612305C7.6709 0.612305 8.33594 0.706055 9.00391 0.893555C9.67188 1.08105 10.3047 1.34766 10.9023 1.69336C11.5 2.03906 12.042 2.45508 12.5283 2.94141C13.0146 3.42773 13.4072 3.97266 13.7061 4.57617C13.7412 4.64648 13.7705 4.72266 13.7939 4.80469C13.8174 4.88086 13.8291 4.95996 13.8291 5.04199C13.8291 5.33496 13.7295 5.57227 13.5303 5.75391C13.3369 5.92969 13.0967 6.01758 12.8096 6.01758C12.6279 6.01758 12.4727 5.9707 12.3438 5.87695C12.2207 5.77734 12.1094 5.65723 12.0098 5.5166C11.9277 5.39941 11.8516 5.28223 11.7812 5.16504C11.7168 5.04785 11.6436 4.93359 11.5615 4.82227C11.2979 4.46484 10.9961 4.14551 10.6562 3.86426C10.3164 3.58301 9.9502 3.3457 9.55762 3.15234C9.16504 2.95312 8.75195 2.80371 8.31836 2.7041C7.89062 2.59863 7.4541 2.5459 7.00879 2.5459C6.53418 2.5459 6.0625 2.60742 5.59375 2.73047C5.13086 2.84766 4.68848 3.02051 4.2666 3.24902C3.85059 3.47754 3.46387 3.75586 3.10645 4.08398C2.75488 4.40625 2.45312 4.77246 2.20117 5.18262C2.16602 5.24121 2.13086 5.30273 2.0957 5.36719C2.06055 5.42578 2.02539 5.48438 1.99023 5.54297C1.89648 5.68945 1.7793 5.80664 1.63867 5.89453C1.49805 5.97656 1.33984 6.01758 1.16406 6.01758C1.0293 6.01758 0.90332 5.99121 0.786133 5.93848C0.668945 5.88574 0.566406 5.81543 0.478516 5.72754C0.390625 5.63965 0.320312 5.53711 0.267578 5.41992C0.214844 5.30273 0.188477 5.17676 0.188477 5.04199C0.188477 4.88379 0.229492 4.72852 0.311523 4.57617C0.62793 3.9668 1.02637 3.41895 1.50684 2.93262C1.99316 2.44043 2.5293 2.02441 3.11523 1.68457C3.70117 1.33887 4.3252 1.0752 4.9873 0.893555C5.65527 0.706055 6.3291 0.612305 7.00879 0.612305ZM7.00879 5.45508C7.39551 5.45508 7.75879 5.52832 8.09863 5.6748C8.43848 5.82129 8.73438 6.02344 8.98633 6.28125C9.23828 6.5332 9.4375 6.8291 9.58398 7.16895C9.73047 7.50879 9.80371 7.87207 9.80371 8.25879C9.80371 8.64551 9.72754 9.01172 9.5752 9.35742C9.42871 9.69727 9.22656 9.99316 8.96875 10.2451C8.7168 10.4971 8.4209 10.6963 8.08105 10.8428C7.74121 10.9893 7.37793 11.0625 6.99121 11.0625C6.59863 11.0625 6.23242 10.9893 5.89258 10.8428C5.55859 10.6963 5.26562 10.4971 5.01367 10.2451C4.76758 9.9873 4.57129 9.68848 4.4248 9.34863C4.28418 9.00293 4.21387 8.63672 4.21387 8.25C4.21387 7.86328 4.28711 7.50293 4.43359 7.16895C4.58008 6.8291 4.7793 6.5332 5.03125 6.28125C5.28906 6.02344 5.58496 5.82129 5.91895 5.6748C6.25879 5.52832 6.62207 5.45508 7.00879 5.45508Z" fill="#0883D9"/>
</svg>
