<svg width="16" height="12" viewBox="0 0 16 12" fill="none" xmlns="http://www.w3.org/2000/svg">
<path d="M8.00977 0.0136719C8.74544 0.0136719 9.48438 0.117839 10.2266 0.326172C10.9688 0.534505 11.6719 0.830729 12.3359 1.21484C13 1.59896 13.6022 2.0612 14.1426 2.60156C14.6829 3.14193 15.1191 3.7474 15.4512 4.41797C15.4902 4.49609 15.5228 4.58073 15.5488 4.67188C15.5749 4.75651 15.5879 4.8444 15.5879 4.93555C15.5879 5.26107 15.4772 5.52474 15.2559 5.72656C15.041 5.92188 14.7741 6.01953 14.4551 6.01953C14.2533 6.01953 14.0807 5.96745 13.9375 5.86328C13.8008 5.7526 13.6771 5.61914 13.5664 5.46289C13.4753 5.33268 13.3906 5.20247 13.3125 5.07227C13.2409 4.94206 13.1595 4.8151 13.0684 4.69141C12.7754 4.29427 12.4401 3.93945 12.0625 3.62695C11.6849 3.31445 11.278 3.05078 10.8418 2.83594C10.4056 2.61458 9.94661 2.44857 9.46484 2.33789C8.98958 2.2207 8.50456 2.16211 8.00977 2.16211C7.48242 2.16211 6.95833 2.23047 6.4375 2.36719C5.92318 2.4974 5.43164 2.68945 4.96289 2.94336C4.50065 3.19727 4.07096 3.50651 3.67383 3.87109C3.2832 4.22917 2.94792 4.63607 2.66797 5.0918C2.62891 5.1569 2.58984 5.22526 2.55078 5.29688C2.51172 5.36198 2.47266 5.42708 2.43359 5.49219C2.32943 5.65495 2.19922 5.78516 2.04297 5.88281C1.88672 5.97396 1.71094 6.01953 1.51562 6.01953C1.36589 6.01953 1.22591 5.99023 1.0957 5.93164C0.965495 5.87305 0.851562 5.79492 0.753906 5.69727C0.65625 5.59961 0.578125 5.48568 0.519531 5.35547C0.460938 5.22526 0.431641 5.08529 0.431641 4.93555C0.431641 4.75977 0.477214 4.58724 0.568359 4.41797C0.919922 3.74089 1.36263 3.13216 1.89648 2.5918C2.43685 2.04492 3.03255 1.58268 3.68359 1.20508C4.33464 0.820964 5.02799 0.527995 5.76367 0.326172C6.50586 0.117839 7.25456 0.0136719 8.00977 0.0136719ZM8.00977 5.39453C8.43945 5.39453 8.8431 5.47591 9.2207 5.63867C9.59831 5.80143 9.92708 6.02604 10.207 6.3125C10.487 6.59245 10.7083 6.92122 10.8711 7.29883C11.0339 7.67643 11.1152 8.08008 11.1152 8.50977C11.1152 8.93945 11.0306 9.34635 10.8613 9.73047C10.6986 10.1081 10.474 10.4368 10.1875 10.7168C9.90755 10.9967 9.57878 11.2181 9.20117 11.3809C8.82357 11.5436 8.41992 11.625 7.99023 11.625C7.55404 11.625 7.14714 11.5436 6.76953 11.3809C6.39844 11.2181 6.07292 10.9967 5.79297 10.7168C5.51953 10.4303 5.30143 10.0983 5.13867 9.7207C4.98242 9.33659 4.9043 8.92969 4.9043 8.5C4.9043 8.07031 4.98568 7.66992 5.14844 7.29883C5.3112 6.92122 5.53255 6.59245 5.8125 6.3125C6.09896 6.02604 6.42773 5.80143 6.79883 5.63867C7.17643 5.47591 7.58008 5.39453 8.00977 5.39453Z" fill="#0883D9"/>
</svg>
