<svg width="16" height="17" viewBox="0 0 16 17" fill="none" xmlns="http://www.w3.org/2000/svg">
<path d="M4.71289 13.625H2.33105C2.03809 13.625 1.75684 13.5664 1.4873 13.4492C1.22363 13.3262 0.989258 13.165 0.78418 12.9658C0.584961 12.7607 0.423828 12.5264 0.300781 12.2627C0.183594 11.9932 0.125 11.7119 0.125 11.4189V2.33105C0.125 2.03809 0.183594 1.75977 0.300781 1.49609C0.423828 1.22656 0.584961 0.992188 0.78418 0.792969C0.989258 0.587891 1.22363 0.426758 1.4873 0.30957C1.75684 0.186523 2.03809 0.125 2.33105 0.125H13.6689C13.9619 0.125 14.2402 0.186523 14.5039 0.30957C14.7734 0.426758 15.0078 0.587891 15.207 0.792969C15.4121 0.992188 15.5732 1.22656 15.6904 1.49609C15.8135 1.75977 15.875 2.03809 15.875 2.33105V11.4189C15.875 11.7236 15.8135 12.0107 15.6904 12.2803C15.5674 12.5439 15.4033 12.7754 15.1982 12.9746C14.9932 13.1738 14.7529 13.332 14.4775 13.4492C14.208 13.5664 13.9238 13.625 13.625 13.625H11.2871L8.42188 16.8154C8.31055 16.9385 8.16992 17 8 17C7.83008 17 7.68945 16.9385 7.57812 16.8154L4.71289 13.625ZM14.75 11.375V2.375C14.75 2.22266 14.7207 2.0791 14.6621 1.94434C14.6035 1.80371 14.5215 1.68359 14.416 1.58398C14.3164 1.47852 14.1963 1.39648 14.0557 1.33789C13.9209 1.2793 13.7773 1.25 13.625 1.25H2.375C2.2168 1.25 2.07031 1.2793 1.93555 1.33789C1.80078 1.39648 1.68066 1.47852 1.5752 1.58398C1.47559 1.68359 1.39648 1.80078 1.33789 1.93555C1.2793 2.07031 1.25 2.2168 1.25 2.375V11.375C1.25 11.5332 1.2793 11.6826 1.33789 11.8232C1.39648 11.958 1.47559 12.0752 1.5752 12.1748C1.6748 12.2744 1.79199 12.3535 1.92676 12.4121C2.06738 12.4707 2.2168 12.5 2.375 12.5H4.95898C5.04102 12.5 5.11719 12.5146 5.1875 12.5439C5.26367 12.5732 5.32812 12.6201 5.38086 12.6846L8 15.5938L10.6191 12.6846C10.6719 12.6201 10.7334 12.5732 10.8037 12.5439C10.8799 12.5146 10.959 12.5 11.041 12.5H13.625C13.7832 12.5 13.9297 12.4707 14.0645 12.4121C14.1992 12.3535 14.3164 12.2744 14.416 12.1748C14.5215 12.0693 14.6035 11.9492 14.6621 11.8145C14.7207 11.6797 14.75 11.5332 14.75 11.375Z" fill="#0883D9"/>
</svg>
