<svg width="12" height="16" viewBox="0 0 12 16" fill="none" xmlns="http://www.w3.org/2000/svg">
<path d="M0.375 1.25C0.375 1.0918 0.404297 0.945312 0.462891 0.810547C0.521484 0.675781 0.600586 0.558594 0.700195 0.458984C0.805664 0.353516 0.925781 0.271484 1.06055 0.212891C1.19531 0.154297 1.3418 0.125 1.5 0.125C1.65234 0.125 1.7959 0.154297 1.93066 0.212891C2.07129 0.271484 2.19141 0.353516 2.29102 0.458984C2.39648 0.558594 2.47852 0.678711 2.53711 0.819336C2.5957 0.954102 2.625 1.09766 2.625 1.25C2.625 1.4082 2.5957 1.55469 2.53711 1.68945C2.47852 1.82422 2.39648 1.94434 2.29102 2.0498C2.19141 2.14941 2.07422 2.22852 1.93945 2.28711C1.80469 2.3457 1.6582 2.375 1.5 2.375C1.3418 2.375 1.19238 2.3457 1.05176 2.28711C0.916992 2.22852 0.799805 2.14941 0.700195 2.0498C0.600586 1.9502 0.521484 1.83301 0.462891 1.69824C0.404297 1.55762 0.375 1.4082 0.375 1.25ZM4.875 1.25C4.875 1.0918 4.9043 0.945312 4.96289 0.810547C5.02148 0.675781 5.10059 0.558594 5.2002 0.458984C5.30566 0.353516 5.42578 0.271484 5.56055 0.212891C5.69531 0.154297 5.8418 0.125 6 0.125C6.15234 0.125 6.2959 0.154297 6.43066 0.212891C6.57129 0.271484 6.69141 0.353516 6.79102 0.458984C6.89648 0.558594 6.97852 0.678711 7.03711 0.819336C7.0957 0.954102 7.125 1.09766 7.125 1.25C7.125 1.4082 7.0957 1.55469 7.03711 1.68945C6.97852 1.82422 6.89648 1.94434 6.79102 2.0498C6.69141 2.14941 6.57422 2.22852 6.43945 2.28711C6.30469 2.3457 6.1582 2.375 6 2.375C5.8418 2.375 5.69238 2.3457 5.55176 2.28711C5.41699 2.22852 5.2998 2.14941 5.2002 2.0498C5.10059 1.9502 5.02148 1.83301 4.96289 1.69824C4.9043 1.55762 4.875 1.4082 4.875 1.25ZM9.375 1.25C9.375 1.0918 9.4043 0.945312 9.46289 0.810547C9.52148 0.675781 9.60059 0.558594 9.7002 0.458984C9.80566 0.353516 9.92578 0.271484 10.0605 0.212891C10.1953 0.154297 10.3418 0.125 10.5 0.125C10.6523 0.125 10.7959 0.154297 10.9307 0.212891C11.0713 0.271484 11.1914 0.353516 11.291 0.458984C11.3965 0.558594 11.4785 0.678711 11.5371 0.819336C11.5957 0.954102 11.625 1.09766 11.625 1.25C11.625 1.4082 11.5957 1.55469 11.5371 1.68945C11.4785 1.82422 11.3965 1.94434 11.291 2.0498C11.1914 2.14941 11.0742 2.22852 10.9395 2.28711C10.8047 2.3457 10.6582 2.375 10.5 2.375C10.3418 2.375 10.1924 2.3457 10.0518 2.28711C9.91699 2.22852 9.7998 2.14941 9.7002 2.0498C9.60059 1.9502 9.52148 1.83301 9.46289 1.69824C9.4043 1.55762 9.375 1.4082 9.375 1.25ZM0.375 5.75C0.375 5.5918 0.404297 5.44531 0.462891 5.31055C0.521484 5.17578 0.600586 5.05859 0.700195 4.95898C0.805664 4.85352 0.925781 4.77148 1.06055 4.71289C1.19531 4.6543 1.3418 4.625 1.5 4.625C1.65234 4.625 1.7959 4.6543 1.93066 4.71289C2.07129 4.77148 2.19141 4.85352 2.29102 4.95898C2.39648 5.05859 2.47852 5.17871 2.53711 5.31934C2.5957 5.4541 2.625 5.59766 2.625 5.75C2.625 5.9082 2.5957 6.05469 2.53711 6.18945C2.47852 6.32422 2.39648 6.44434 2.29102 6.5498C2.19141 6.64941 2.07422 6.72852 1.93945 6.78711C1.80469 6.8457 1.6582 6.875 1.5 6.875C1.3418 6.875 1.19238 6.8457 1.05176 6.78711C0.916992 6.72852 0.799805 6.64941 0.700195 6.5498C0.600586 6.4502 0.521484 6.33301 0.462891 6.19824C0.404297 6.05762 0.375 5.9082 0.375 5.75ZM4.875 5.75C4.875 5.5918 4.9043 5.44531 4.96289 5.31055C5.02148 5.17578 5.10059 5.05859 5.2002 4.95898C5.30566 4.85352 5.42578 4.77148 5.56055 4.71289C5.69531 4.6543 5.8418 4.625 6 4.625C6.15234 4.625 6.2959 4.6543 6.43066 4.71289C6.57129 4.77148 6.69141 4.85352 6.79102 4.95898C6.89648 5.05859 6.97852 5.17871 7.03711 5.31934C7.0957 5.4541 7.125 5.59766 7.125 5.75C7.125 5.9082 7.0957 6.05469 7.03711 6.18945C6.97852 6.32422 6.89648 6.44434 6.79102 6.5498C6.69141 6.64941 6.57422 6.72852 6.43945 6.78711C6.30469 6.8457 6.1582 6.875 6 6.875C5.8418 6.875 5.69238 6.8457 5.55176 6.78711C5.41699 6.72852 5.2998 6.64941 5.2002 6.5498C5.10059 6.4502 5.02148 6.33301 4.96289 6.19824C4.9043 6.05762 4.875 5.9082 4.875 5.75ZM9.375 5.75C9.375 5.5918 9.4043 5.44531 9.46289 5.31055C9.52148 5.17578 9.60059 5.05859 9.7002 4.95898C9.80566 4.85352 9.92578 4.77148 10.0605 4.71289C10.1953 4.6543 10.3418 4.625 10.5 4.625C10.6523 4.625 10.7959 4.6543 10.9307 4.71289C11.0713 4.77148 11.1914 4.85352 11.291 4.95898C11.3965 5.05859 11.4785 5.17871 11.5371 5.31934C11.5957 5.4541 11.625 5.59766 11.625 5.75C11.625 5.9082 11.5957 6.05469 11.5371 6.18945C11.4785 6.32422 11.3965 6.44434 11.291 6.5498C11.1914 6.64941 11.0742 6.72852 10.9395 6.78711C10.8047 6.8457 10.6582 6.875 10.5 6.875C10.3418 6.875 10.1924 6.8457 10.0518 6.78711C9.91699 6.72852 9.7998 6.64941 9.7002 6.5498C9.60059 6.4502 9.52148 6.33301 9.46289 6.19824C9.4043 6.05762 9.375 5.9082 9.375 5.75ZM0.375 10.25C0.375 10.0918 0.404297 9.94531 0.462891 9.81055C0.521484 9.67578 0.600586 9.55859 0.700195 9.45898C0.805664 9.35352 0.925781 9.27148 1.06055 9.21289C1.19531 9.1543 1.3418 9.125 1.5 9.125C1.65234 9.125 1.7959 9.1543 1.93066 9.21289C2.07129 9.27148 2.19141 9.35352 2.29102 9.45898C2.39648 9.55859 2.47852 9.67871 2.53711 9.81934C2.5957 9.9541 2.625 10.0977 2.625 10.25C2.625 10.4082 2.5957 10.5547 2.53711 10.6895C2.47852 10.8242 2.39648 10.9443 2.29102 11.0498C2.19141 11.1494 2.07422 11.2285 1.93945 11.2871C1.80469 11.3457 1.6582 11.375 1.5 11.375C1.3418 11.375 1.19238 11.3457 1.05176 11.2871C0.916992 11.2285 0.799805 11.1494 0.700195 11.0498C0.600586 10.9502 0.521484 10.833 0.462891 10.6982C0.404297 10.5576 0.375 10.4082 0.375 10.25ZM4.875 10.25C4.875 10.0918 4.9043 9.94531 4.96289 9.81055C5.02148 9.67578 5.10059 9.55859 5.2002 9.45898C5.30566 9.35352 5.42578 9.27148 5.56055 9.21289C5.69531 9.1543 5.8418 9.125 6 9.125C6.15234 9.125 6.2959 9.1543 6.43066 9.21289C6.57129 9.27148 6.69141 9.35352 6.79102 9.45898C6.89648 9.55859 6.97852 9.67871 7.03711 9.81934C7.0957 9.9541 7.125 10.0977 7.125 10.25C7.125 10.4082 7.0957 10.5547 7.03711 10.6895C6.97852 10.8242 6.89648 10.9443 6.79102 11.0498C6.69141 11.1494 6.57422 11.2285 6.43945 11.2871C6.30469 11.3457 6.1582 11.375 6 11.375C5.8418 11.375 5.69238 11.3457 5.55176 11.2871C5.41699 11.2285 5.2998 11.1494 5.2002 11.0498C5.10059 10.9502 5.02148 10.833 4.96289 10.6982C4.9043 10.5576 4.875 10.4082 4.875 10.25ZM9.375 10.25C9.375 10.0918 9.4043 9.94531 9.46289 9.81055C9.52148 9.67578 9.60059 9.55859 9.7002 9.45898C9.80566 9.35352 9.92578 9.27148 10.0605 9.21289C10.1953 9.1543 10.3418 9.125 10.5 9.125C10.6523 9.125 10.7959 9.1543 10.9307 9.21289C11.0713 9.27148 11.1914 9.35352 11.291 9.45898C11.3965 9.55859 11.4785 9.67871 11.5371 9.81934C11.5957 9.9541 11.625 10.0977 11.625 10.25C11.625 10.4082 11.5957 10.5547 11.5371 10.6895C11.4785 10.8242 11.3965 10.9443 11.291 11.0498C11.1914 11.1494 11.0742 11.2285 10.9395 11.2871C10.8047 11.3457 10.6582 11.375 10.5 11.375C10.3418 11.375 10.1924 11.3457 10.0518 11.2871C9.91699 11.2285 9.7998 11.1494 9.7002 11.0498C9.60059 10.9502 9.52148 10.833 9.46289 10.6982C9.4043 10.5576 9.375 10.4082 9.375 10.25ZM4.875 14.75C4.875 14.5918 4.9043 14.4453 4.96289 14.3105C5.02148 14.1758 5.10059 14.0586 5.2002 13.959C5.30566 13.8535 5.42578 13.7715 5.56055 13.7129C5.69531 13.6543 5.8418 13.625 6 13.625C6.15234 13.625 6.2959 13.6543 6.43066 13.7129C6.57129 13.7715 6.69141 13.8535 6.79102 13.959C6.89648 14.0586 6.97852 14.1787 7.03711 14.3193C7.0957 14.4541 7.125 14.5977 7.125 14.75C7.125 14.9082 7.0957 15.0547 7.03711 15.1895C6.97852 15.3242 6.89648 15.4443 6.79102 15.5498C6.69141 15.6494 6.57422 15.7285 6.43945 15.7871C6.30469 15.8457 6.1582 15.875 6 15.875C5.8418 15.875 5.69238 15.8457 5.55176 15.7871C5.41699 15.7285 5.2998 15.6494 5.2002 15.5498C5.10059 15.4502 5.02148 15.333 4.96289 15.1982C4.9043 15.0576 4.875 14.9082 4.875 14.75Z" fill="#0883D9"/>
</svg>
