<svg width="10" height="14" viewBox="0 0 10 14" fill="none" xmlns="http://www.w3.org/2000/svg">
<path d="M0 1C0 0.859375 0.0260417 0.729167 0.078125 0.609375C0.130208 0.489583 0.200521 0.385417 0.289062 0.296875C0.382812 0.203125 0.489583 0.130208 0.609375 0.078125C0.729167 0.0260417 0.859375 0 1 0C1.13542 0 1.26302 0.0260417 1.38281 0.078125C1.50781 0.130208 1.61458 0.203125 1.70312 0.296875C1.79688 0.385417 1.86979 0.492188 1.92188 0.617188C1.97396 0.736979 2 0.864583 2 1C2 1.14062 1.97396 1.27083 1.92188 1.39062C1.86979 1.51042 1.79688 1.61719 1.70312 1.71094C1.61458 1.79948 1.51042 1.86979 1.39062 1.92188C1.27083 1.97396 1.14062 2 1 2C0.859375 2 0.726562 1.97396 0.601562 1.92188C0.481771 1.86979 0.377604 1.79948 0.289062 1.71094C0.200521 1.6224 0.130208 1.51823 0.078125 1.39844C0.0260417 1.27344 0 1.14062 0 1ZM4 1C4 0.859375 4.02604 0.729167 4.07812 0.609375C4.13021 0.489583 4.20052 0.385417 4.28906 0.296875C4.38281 0.203125 4.48958 0.130208 4.60938 0.078125C4.72917 0.0260417 4.85938 0 5 0C5.13542 0 5.26302 0.0260417 5.38281 0.078125C5.50781 0.130208 5.61458 0.203125 5.70312 0.296875C5.79688 0.385417 5.86979 0.492188 5.92188 0.617188C5.97396 0.736979 6 0.864583 6 1C6 1.14062 5.97396 1.27083 5.92188 1.39062C5.86979 1.51042 5.79688 1.61719 5.70312 1.71094C5.61458 1.79948 5.51042 1.86979 5.39062 1.92188C5.27083 1.97396 5.14062 2 5 2C4.85938 2 4.72656 1.97396 4.60156 1.92188C4.48177 1.86979 4.3776 1.79948 4.28906 1.71094C4.20052 1.6224 4.13021 1.51823 4.07812 1.39844C4.02604 1.27344 4 1.14062 4 1ZM8 1C8 0.859375 8.02604 0.729167 8.07812 0.609375C8.13021 0.489583 8.20052 0.385417 8.28906 0.296875C8.38281 0.203125 8.48958 0.130208 8.60938 0.078125C8.72917 0.0260417 8.85938 0 9 0C9.13542 0 9.26302 0.0260417 9.38281 0.078125C9.50781 0.130208 9.61458 0.203125 9.70312 0.296875C9.79688 0.385417 9.86979 0.492188 9.92188 0.617188C9.97396 0.736979 10 0.864583 10 1C10 1.14062 9.97396 1.27083 9.92188 1.39062C9.86979 1.51042 9.79688 1.61719 9.70312 1.71094C9.61458 1.79948 9.51042 1.86979 9.39062 1.92188C9.27083 1.97396 9.14062 2 9 2C8.85938 2 8.72656 1.97396 8.60156 1.92188C8.48177 1.86979 8.3776 1.79948 8.28906 1.71094C8.20052 1.6224 8.13021 1.51823 8.07812 1.39844C8.02604 1.27344 8 1.14062 8 1ZM0 5C0 4.85938 0.0260417 4.72917 0.078125 4.60938C0.130208 4.48958 0.200521 4.38542 0.289062 4.29688C0.382812 4.20312 0.489583 4.13021 0.609375 4.07812C0.729167 4.02604 0.859375 4 1 4C1.13542 4 1.26302 4.02604 1.38281 4.07812C1.50781 4.13021 1.61458 4.20312 1.70312 4.29688C1.79688 4.38542 1.86979 4.49219 1.92188 4.61719C1.97396 4.73698 2 4.86458 2 5C2 5.14062 1.97396 5.27083 1.92188 5.39062C1.86979 5.51042 1.79688 5.61719 1.70312 5.71094C1.61458 5.79948 1.51042 5.86979 1.39062 5.92188C1.27083 5.97396 1.14062 6 1 6C0.859375 6 0.726562 5.97396 0.601562 5.92188C0.481771 5.86979 0.377604 5.79948 0.289062 5.71094C0.200521 5.6224 0.130208 5.51823 0.078125 5.39844C0.0260417 5.27344 0 5.14062 0 5ZM4 5C4 4.85938 4.02604 4.72917 4.07812 4.60938C4.13021 4.48958 4.20052 4.38542 4.28906 4.29688C4.38281 4.20312 4.48958 4.13021 4.60938 4.07812C4.72917 4.02604 4.85938 4 5 4C5.13542 4 5.26302 4.02604 5.38281 4.07812C5.50781 4.13021 5.61458 4.20312 5.70312 4.29688C5.79688 4.38542 5.86979 4.49219 5.92188 4.61719C5.97396 4.73698 6 4.86458 6 5C6 5.14062 5.97396 5.27083 5.92188 5.39062C5.86979 5.51042 5.79688 5.61719 5.70312 5.71094C5.61458 5.79948 5.51042 5.86979 5.39062 5.92188C5.27083 5.97396 5.14062 6 5 6C4.85938 6 4.72656 5.97396 4.60156 5.92188C4.48177 5.86979 4.3776 5.79948 4.28906 5.71094C4.20052 5.6224 4.13021 5.51823 4.07812 5.39844C4.02604 5.27344 4 5.14062 4 5ZM8 5C8 4.85938 8.02604 4.72917 8.07812 4.60938C8.13021 4.48958 8.20052 4.38542 8.28906 4.29688C8.38281 4.20312 8.48958 4.13021 8.60938 4.07812C8.72917 4.02604 8.85938 4 9 4C9.13542 4 9.26302 4.02604 9.38281 4.07812C9.50781 4.13021 9.61458 4.20312 9.70312 4.29688C9.79688 4.38542 9.86979 4.49219 9.92188 4.61719C9.97396 4.73698 10 4.86458 10 5C10 5.14062 9.97396 5.27083 9.92188 5.39062C9.86979 5.51042 9.79688 5.61719 9.70312 5.71094C9.61458 5.79948 9.51042 5.86979 9.39062 5.92188C9.27083 5.97396 9.14062 6 9 6C8.85938 6 8.72656 5.97396 8.60156 5.92188C8.48177 5.86979 8.3776 5.79948 8.28906 5.71094C8.20052 5.6224 8.13021 5.51823 8.07812 5.39844C8.02604 5.27344 8 5.14062 8 5ZM0 9C0 8.85938 0.0260417 8.72917 0.078125 8.60938C0.130208 8.48958 0.200521 8.38542 0.289062 8.29688C0.382812 8.20312 0.489583 8.13021 0.609375 8.07812C0.729167 8.02604 0.859375 8 1 8C1.13542 8 1.26302 8.02604 1.38281 8.07812C1.50781 8.13021 1.61458 8.20312 1.70312 8.29688C1.79688 8.38542 1.86979 8.49219 1.92188 8.61719C1.97396 8.73698 2 8.86458 2 9C2 9.14062 1.97396 9.27083 1.92188 9.39062C1.86979 9.51042 1.79688 9.61719 1.70312 9.71094C1.61458 9.79948 1.51042 9.86979 1.39062 9.92188C1.27083 9.97396 1.14062 10 1 10C0.859375 10 0.726562 9.97396 0.601562 9.92188C0.481771 9.86979 0.377604 9.79948 0.289062 9.71094C0.200521 9.6224 0.130208 9.51823 0.078125 9.39844C0.0260417 9.27344 0 9.14062 0 9ZM4 9C4 8.85938 4.02604 8.72917 4.07812 8.60938C4.13021 8.48958 4.20052 8.38542 4.28906 8.29688C4.38281 8.20312 4.48958 8.13021 4.60938 8.07812C4.72917 8.02604 4.85938 8 5 8C5.13542 8 5.26302 8.02604 5.38281 8.07812C5.50781 8.13021 5.61458 8.20312 5.70312 8.29688C5.79688 8.38542 5.86979 8.49219 5.92188 8.61719C5.97396 8.73698 6 8.86458 6 9C6 9.14062 5.97396 9.27083 5.92188 9.39062C5.86979 9.51042 5.79688 9.61719 5.70312 9.71094C5.61458 9.79948 5.51042 9.86979 5.39062 9.92188C5.27083 9.97396 5.14062 10 5 10C4.85938 10 4.72656 9.97396 4.60156 9.92188C4.48177 9.86979 4.3776 9.79948 4.28906 9.71094C4.20052 9.6224 4.13021 9.51823 4.07812 9.39844C4.02604 9.27344 4 9.14062 4 9ZM8 9C8 8.85938 8.02604 8.72917 8.07812 8.60938C8.13021 8.48958 8.20052 8.38542 8.28906 8.29688C8.38281 8.20312 8.48958 8.13021 8.60938 8.07812C8.72917 8.02604 8.85938 8 9 8C9.13542 8 9.26302 8.02604 9.38281 8.07812C9.50781 8.13021 9.61458 8.20312 9.70312 8.29688C9.79688 8.38542 9.86979 8.49219 9.92188 8.61719C9.97396 8.73698 10 8.86458 10 9C10 9.14062 9.97396 9.27083 9.92188 9.39062C9.86979 9.51042 9.79688 9.61719 9.70312 9.71094C9.61458 9.79948 9.51042 9.86979 9.39062 9.92188C9.27083 9.97396 9.14062 10 9 10C8.85938 10 8.72656 9.97396 8.60156 9.92188C8.48177 9.86979 8.3776 9.79948 8.28906 9.71094C8.20052 9.6224 8.13021 9.51823 8.07812 9.39844C8.02604 9.27344 8 9.14062 8 9ZM4 13C4 12.8594 4.02604 12.7292 4.07812 12.6094C4.13021 12.4896 4.20052 12.3854 4.28906 12.2969C4.38281 12.2031 4.48958 12.1302 4.60938 12.0781C4.72917 12.026 4.85938 12 5 12C5.13542 12 5.26302 12.026 5.38281 12.0781C5.50781 12.1302 5.61458 12.2031 5.70312 12.2969C5.79688 12.3854 5.86979 12.4922 5.92188 12.6172C5.97396 12.737 6 12.8646 6 13C6 13.1406 5.97396 13.2708 5.92188 13.3906C5.86979 13.5104 5.79688 13.6172 5.70312 13.7109C5.61458 13.7995 5.51042 13.8698 5.39062 13.9219C5.27083 13.974 5.14062 14 5 14C4.85938 14 4.72656 13.974 4.60156 13.9219C4.48177 13.8698 4.3776 13.7995 4.28906 13.7109C4.20052 13.6224 4.13021 13.5182 4.07812 13.3984C4.02604 13.2734 4 13.1406 4 13Z" fill="#0883D9"/>
</svg>
