<svg width="20" height="20" viewBox="0 0 20 20" fill="none" xmlns="http://www.w3.org/2000/svg">
<path d="M9.375 8.125V0.625C9.375 0.455729 9.43685 0.309245 9.56055 0.185547C9.68424 0.061849 9.83073 0 10 0C10.1693 0 10.3158 0.061849 10.4395 0.185547C10.5632 0.309245 10.625 0.455729 10.625 0.625V8.125C10.625 8.29427 10.5632 8.44076 10.4395 8.56445C10.3158 8.68815 10.1693 8.75 10 8.75C9.83073 8.75 9.68424 8.68815 9.56055 8.56445C9.43685 8.44076 9.375 8.29427 9.375 8.125ZM0.625 10.625C0.625 9.8112 0.732422 9.01042 0.947266 8.22266C1.16211 7.42839 1.4681 6.67969 1.86523 5.97656C2.26888 5.26693 2.75391 4.61914 3.32031 4.0332C3.89323 3.44076 4.53451 2.94271 5.24414 2.53906C5.3418 2.48047 5.44922 2.45117 5.56641 2.45117C5.73568 2.45117 5.88216 2.51302 6.00586 2.63672C6.12956 2.76042 6.19141 2.9069 6.19141 3.07617C6.19141 3.20638 6.16211 3.31055 6.10352 3.38867C6.05143 3.4668 5.97656 3.54167 5.87891 3.61328C5.65104 3.76953 5.42643 3.92253 5.20508 4.07227C4.99023 4.21549 4.77865 4.38151 4.57031 4.57031C4.15365 4.94792 3.7793 5.36784 3.44727 5.83008C3.11523 6.29232 2.83203 6.7806 2.59766 7.29492C2.36328 7.80924 2.18424 8.3431 2.06055 8.89648C1.93685 9.44987 1.875 10.0098 1.875 10.5762C1.875 11.3314 1.9694 12.0573 2.1582 12.7539C2.35352 13.444 2.6237 14.0918 2.96875 14.6973C3.32031 15.3027 3.74349 15.8561 4.23828 16.3574C4.73307 16.8522 5.27995 17.2786 5.87891 17.6367C6.48438 17.9883 7.13216 18.2617 7.82227 18.457C8.51888 18.6523 9.24479 18.75 10 18.75C10.7552 18.75 11.4779 18.6523 12.168 18.457C12.8646 18.2617 13.5124 17.9883 14.1113 17.6367C14.7168 17.2786 15.2669 16.8522 15.7617 16.3574C16.2565 15.8561 16.6764 15.3027 17.0215 14.6973C17.373 14.0918 17.6432 13.4408 17.832 12.7441C18.0273 12.0475 18.125 11.3249 18.125 10.5762C18.125 10.0098 18.0632 9.44987 17.9395 8.89648C17.8158 8.3431 17.6367 7.80924 17.4023 7.29492C17.168 6.7806 16.8848 6.29232 16.5527 5.83008C16.2207 5.36784 15.8464 4.94792 15.4297 4.57031C15.2214 4.38151 15.0065 4.21549 14.7852 4.07227C14.5703 3.92253 14.349 3.76953 14.1211 3.61328C14.0234 3.54167 13.9453 3.4668 13.8867 3.38867C13.8346 3.31055 13.8086 3.20638 13.8086 3.07617C13.8086 2.9069 13.8704 2.76042 13.9941 2.63672C14.1178 2.51302 14.2643 2.45117 14.4336 2.45117C14.5508 2.45117 14.6582 2.48047 14.7559 2.53906C15.4655 2.94271 16.1035 3.44076 16.6699 4.0332C17.2428 4.61914 17.7279 5.26693 18.125 5.97656C18.5286 6.67969 18.8379 7.42839 19.0527 8.22266C19.2676 9.01042 19.375 9.8112 19.375 10.625C19.375 11.4844 19.2611 12.3145 19.0332 13.1152C18.8118 13.9095 18.4961 14.6549 18.0859 15.3516C17.6823 16.0482 17.194 16.6829 16.6211 17.2559C16.0547 17.8223 15.4232 18.3105 14.7266 18.7207C14.0299 19.1243 13.2812 19.4401 12.4805 19.668C11.6862 19.8893 10.8594 20 10 20C9.13411 20 8.30078 19.8893 7.5 19.668C6.70573 19.4401 5.96029 19.1243 5.26367 18.7207C4.57357 18.3105 3.94206 17.8223 3.36914 17.2559C2.80273 16.6829 2.31445 16.0514 1.9043 15.3613C1.50065 14.6647 1.1849 13.916 0.957031 13.1152C0.735677 12.3145 0.625 11.4844 0.625 10.625Z" fill="#0883D9"/>
</svg>
