<svg width="20" height="20" viewBox="0 0 20 20" fill="none" xmlns="http://www.w3.org/2000/svg">
<g clip-path="url(#clip0_116_367)">
<path d="M6.61338 8.57367C7.3637 8.29747 8.09322 9.02699 7.81702 9.77731L6.18027 14.2238C6.02268 14.6519 5.47438 14.7724 5.1518 14.4498L1.94087 11.2389C1.61829 10.9163 1.7388 10.368 2.16691 10.2104L6.61338 8.57367Z" fill="url(#paint0_linear_116_367)"/>
<path d="M6.61338 8.57367C7.3637 8.29747 8.09322 9.02699 7.81702 9.77731L6.18027 14.2238C6.02268 14.6519 5.47438 14.7724 5.1518 14.4498L1.94087 11.2389C1.61829 10.9163 1.7388 10.368 2.16691 10.2104L6.61338 8.57367Z" fill="url(#paint1_radial_116_367)"/>
<path d="M6.61338 8.57367C7.3637 8.29747 8.09322 9.02699 7.81702 9.77731L6.18027 14.2238C6.02268 14.6519 5.47438 14.7724 5.1518 14.4498L1.94087 11.2389C1.61829 10.9163 1.7388 10.368 2.16691 10.2104L6.61338 8.57367Z" fill="url(#paint2_linear_116_367)"/>
<path d="M10.3634 12.3237C11.1137 12.0475 11.8432 12.777 11.567 13.5273L9.93027 17.9738C9.77268 18.4019 9.22438 18.5224 8.9018 18.1998L5.69087 14.9889C5.36829 14.6663 5.4888 14.118 5.91691 13.9604L10.3634 12.3237Z" fill="url(#paint3_linear_116_367)"/>
<path d="M10.3634 12.3237C11.1137 12.0475 11.8432 12.777 11.567 13.5273L9.93027 17.9738C9.77268 18.4019 9.22438 18.5224 8.9018 18.1998L5.69087 14.9889C5.36829 14.6663 5.4888 14.118 5.91691 13.9604L10.3634 12.3237Z" fill="url(#paint4_radial_116_367)"/>
<path d="M10.3634 12.3237C11.1137 12.0475 11.8432 12.777 11.567 13.5273L9.93027 17.9738C9.77268 18.4019 9.22438 18.5224 8.9018 18.1998L5.69087 14.9889C5.36829 14.6663 5.4888 14.118 5.91691 13.9604L10.3634 12.3237Z" fill="url(#paint5_radial_116_367)"/>
<path d="M13.9944 2.22142C14.0343 2.20517 14.0792 2.20707 14.1177 2.22643L16.5859 3.46557L17.7938 5.93036C17.8125 5.96867 17.8142 6.01302 17.7981 6.05252C16.9174 8.21327 15.7035 10.5111 14.0785 12.1361C12.4949 13.7197 9.81629 15.0695 7.39776 16.062L3.96545 12.6297C4.95797 10.2111 6.3077 7.53255 7.89131 5.94894C9.52121 4.31904 11.828 3.10277 13.9944 2.22142Z" fill="url(#paint6_linear_116_367)"/>
<path d="M13.9944 2.22142C14.0343 2.20517 14.0792 2.20707 14.1177 2.22643L16.5859 3.46557L17.7938 5.93036C17.8125 5.96867 17.8142 6.01302 17.7981 6.05252C16.9174 8.21327 15.7035 10.5111 14.0785 12.1361C12.4949 13.7197 9.81629 15.0695 7.39776 16.062L3.96545 12.6297C4.95797 10.2111 6.3077 7.53255 7.89131 5.94894C9.52121 4.31904 11.828 3.10277 13.9944 2.22142Z" fill="url(#paint7_radial_116_367)"/>
<path d="M13.9944 2.22142C14.0343 2.20517 14.0792 2.20707 14.1177 2.22643L16.5859 3.46557L17.7938 5.93036C17.8125 5.96867 17.8142 6.01302 17.7981 6.05252C16.9174 8.21327 15.7035 10.5111 14.0785 12.1361C12.4949 13.7197 9.81629 15.0695 7.39776 16.062L3.96545 12.6297C4.95797 10.2111 6.3077 7.53255 7.89131 5.94894C9.52121 4.31904 11.828 3.10277 13.9944 2.22142Z" fill="url(#paint8_radial_116_367)"/>
<path d="M13.9944 2.22142C14.0343 2.20517 14.0792 2.20707 14.1177 2.22643L16.5859 3.46557L17.7938 5.93036C17.8125 5.96867 17.8142 6.01302 17.7981 6.05252C16.9174 8.21327 15.7035 10.5111 14.0785 12.1361C12.4949 13.7197 9.81629 15.0695 7.39776 16.062L3.96545 12.6297C4.95797 10.2111 6.3077 7.53255 7.89131 5.94894C9.52121 4.31904 11.828 3.10277 13.9944 2.22142Z" fill="url(#paint9_radial_116_367)"/>
<path d="M13.9944 2.22142C14.0343 2.20517 14.0792 2.20707 14.1177 2.22643L16.5859 3.46557L17.7938 5.93036C17.8125 5.96867 17.8142 6.01302 17.7981 6.05252C16.9174 8.21327 15.7035 10.5111 14.0785 12.1361C12.4949 13.7197 9.81629 15.0695 7.39776 16.062L3.96545 12.6297C4.95797 10.2111 6.3077 7.53255 7.89131 5.94894C9.52121 4.31904 11.828 3.10277 13.9944 2.22142Z" fill="url(#paint10_radial_116_367)"/>
<path d="M15.3125 6.914C15.3125 8.07358 14.3725 9.01361 13.2129 9.01361C12.0533 9.01361 11.1133 8.07358 11.1133 6.914C11.1133 5.75442 12.0533 4.81439 13.2129 4.81439C14.3725 4.81439 15.3125 5.75442 15.3125 6.914Z" fill="url(#paint11_linear_116_367)"/>
<path d="M15.3125 6.914C15.3125 8.07358 14.3725 9.01361 13.2129 9.01361C12.0533 9.01361 11.1133 8.07358 11.1133 6.914C11.1133 5.75442 12.0533 4.81439 13.2129 4.81439C14.3725 4.81439 15.3125 5.75442 15.3125 6.914Z" fill="url(#paint12_linear_116_367)"/>
<path d="M15.3125 6.914C15.3125 8.07358 14.3725 9.01361 13.2129 9.01361C12.0533 9.01361 11.1133 8.07358 11.1133 6.914C11.1133 5.75442 12.0533 4.81439 13.2129 4.81439C14.3725 4.81439 15.3125 5.75442 15.3125 6.914Z" fill="url(#paint13_radial_116_367)"/>
<path d="M15.3125 6.914C15.3125 8.07358 14.3725 9.01361 13.2129 9.01361C12.0533 9.01361 11.1133 8.07358 11.1133 6.914C11.1133 5.75442 12.0533 4.81439 13.2129 4.81439C14.3725 4.81439 15.3125 5.75442 15.3125 6.914Z" fill="url(#paint14_radial_116_367)"/>
<path d="M14.6665 6.91402C14.6665 7.71681 14.0157 8.3676 13.2129 8.3676C12.4101 8.3676 11.7593 7.71681 11.7593 6.91402C11.7593 6.11124 12.4101 5.46045 13.2129 5.46045C14.0157 5.46045 14.6665 6.11124 14.6665 6.91402Z" fill="url(#paint15_radial_116_367)"/>
<path d="M1.51473 18.4579C1.07279 18.0159 1.25009 14.9511 2.81257 14.3261C2.81257 14.3261 4.37507 13.7011 5.38195 14.7014C6.38883 15.7018 5.93757 16.8261 5.93757 16.8261C5.49564 18.1519 3.61417 18.6789 3.39321 18.4579C3.27117 18.3359 3.49093 18.1137 3.39322 18.016C3.2955 17.9183 3.14462 18.0298 2.7303 18.237C2.43568 18.3843 1.69151 18.6347 1.51473 18.4579Z" fill="url(#paint16_radial_116_367)"/>
<path d="M1.51473 18.4579C1.07279 18.0159 1.25009 14.9511 2.81257 14.3261C2.81257 14.3261 4.37507 13.7011 5.38195 14.7014C6.38883 15.7018 5.93757 16.8261 5.93757 16.8261C5.49564 18.1519 3.61417 18.6789 3.39321 18.4579C3.27117 18.3359 3.49093 18.1137 3.39322 18.016C3.2955 17.9183 3.14462 18.0298 2.7303 18.237C2.43568 18.3843 1.69151 18.6347 1.51473 18.4579Z" fill="url(#paint17_radial_116_367)"/>
<path d="M3.78792 13.114C4.15404 12.7479 4.74763 12.7479 5.11375 13.114L7.32346 15.3237C7.68957 15.6898 7.68957 16.2834 7.32346 16.6496C6.95734 17.0157 6.36375 17.0157 5.99763 16.6496L3.78792 14.4398C3.42181 14.0737 3.42181 13.4801 3.78792 13.114Z" fill="url(#paint18_linear_116_367)"/>
<path d="M3.78792 13.114C4.15404 12.7479 4.74763 12.7479 5.11375 13.114L7.32346 15.3237C7.68957 15.6898 7.68957 16.2834 7.32346 16.6496C6.95734 17.0157 6.36375 17.0157 5.99763 16.6496L3.78792 14.4398C3.42181 14.0737 3.42181 13.4801 3.78792 13.114Z" fill="url(#paint19_radial_116_367)"/>
<path d="M3.78792 13.114C4.15404 12.7479 4.74763 12.7479 5.11375 13.114L7.32346 15.3237C7.68957 15.6898 7.68957 16.2834 7.32346 16.6496C6.95734 17.0157 6.36375 17.0157 5.99763 16.6496L3.78792 14.4398C3.42181 14.0737 3.42181 13.4801 3.78792 13.114Z" fill="url(#paint20_radial_116_367)"/>
<path d="M18.2327 1.79467C17.6408 1.20274 16.6028 1.26974 15.8462 1.52951C15.3194 1.71042 14.7665 1.91268 14.2022 2.13769C14.1358 2.16417 14.1182 2.24983 14.1686 2.30055L17.7194 5.87574C17.77 5.92665 17.8561 5.90929 17.8827 5.84265C18.1106 5.2723 18.3151 4.71344 18.4979 4.18116C18.7542 3.43479 18.9603 2.52224 18.2327 1.79467Z" fill="url(#paint21_linear_116_367)"/>
<path d="M18.2327 1.79467C17.6408 1.20274 16.6028 1.26974 15.8462 1.52951C15.3194 1.71042 14.7665 1.91268 14.2022 2.13769C14.1358 2.16417 14.1182 2.24983 14.1686 2.30055L17.7194 5.87574C17.77 5.92665 17.8561 5.90929 17.8827 5.84265C18.1106 5.2723 18.3151 4.71344 18.4979 4.18116C18.7542 3.43479 18.9603 2.52224 18.2327 1.79467Z" fill="url(#paint22_radial_116_367)"/>
<path d="M18.2327 1.79467C17.6408 1.20274 16.6028 1.26974 15.8462 1.52951C15.3194 1.71042 14.7665 1.91268 14.2022 2.13769C14.1358 2.16417 14.1182 2.24983 14.1686 2.30055L17.7194 5.87574C17.77 5.92665 17.8561 5.90929 17.8827 5.84265C18.1106 5.2723 18.3151 4.71344 18.4979 4.18116C18.7542 3.43479 18.9603 2.52224 18.2327 1.79467Z" fill="url(#paint23_linear_116_367)"/>
<path d="M8.48838 10.4487C9.2387 10.1725 9.96822 10.902 9.69202 11.6523L8.05527 16.0988C7.89768 16.5269 7.34938 16.6474 7.0268 16.3248L3.81587 13.1139C3.49329 12.7913 3.6138 12.243 4.04191 12.0854L8.48838 10.4487Z" fill="url(#paint24_linear_116_367)"/>
<path d="M8.48838 10.4487C9.2387 10.1725 9.96822 10.902 9.69202 11.6523L8.05527 16.0988C7.89768 16.5269 7.34938 16.6474 7.0268 16.3248L3.81587 13.1139C3.49329 12.7913 3.6138 12.243 4.04191 12.0854L8.48838 10.4487Z" fill="url(#paint25_radial_116_367)"/>
<path d="M8.48838 10.4487C9.2387 10.1725 9.96822 10.902 9.69202 11.6523L8.05527 16.0988C7.89768 16.5269 7.34938 16.6474 7.0268 16.3248L3.81587 13.1139C3.49329 12.7913 3.6138 12.243 4.04191 12.0854L8.48838 10.4487Z" fill="url(#paint26_radial_116_367)"/>
<path d="M8.48838 10.4487C9.2387 10.1725 9.96822 10.902 9.69202 11.6523L8.05527 16.0988C7.89768 16.5269 7.34938 16.6474 7.0268 16.3248L3.81587 13.1139C3.49329 12.7913 3.6138 12.243 4.04191 12.0854L8.48838 10.4487Z" fill="url(#paint27_radial_116_367)"/>
<path d="M8.48838 10.4487C9.2387 10.1725 9.96822 10.902 9.69202 11.6523L8.05527 16.0988C7.89768 16.5269 7.34938 16.6474 7.0268 16.3248L3.81587 13.1139C3.49329 12.7913 3.6138 12.243 4.04191 12.0854L8.48838 10.4487Z" fill="url(#paint28_radial_116_367)"/>
</g>
<defs>
<linearGradient id="paint0_linear_116_367" x1="5.06925" y1="10.8174" x2="1.94425" y2="10.3026" gradientUnits="userSpaceOnUse">
<stop stop-color="#EE2452"/>
<stop offset="1" stop-color="#F63E7A"/>
</linearGradient>
<radialGradient id="paint1_radial_116_367" cx="0" cy="0" r="1" gradientUnits="userSpaceOnUse" gradientTransform="translate(1.49841 10.6644) rotate(-19.9576) scale(5.00105 0.850279)">
<stop offset="0.163866" stop-color="#FF8DB0"/>
<stop offset="1" stop-color="#FF8DB0" stop-opacity="0"/>
</radialGradient>
<linearGradient id="paint2_linear_116_367" x1="3.06541" y1="12.3332" x2="3.57496" y2="11.8364" gradientUnits="userSpaceOnUse">
<stop offset="0.491189" stop-color="#DD467C"/>
<stop offset="1" stop-color="#DD467C" stop-opacity="0"/>
</linearGradient>
<linearGradient id="paint3_linear_116_367" x1="11.1825" y1="13.5448" x2="7.29633" y2="16.5944" gradientUnits="userSpaceOnUse">
<stop stop-color="#F83267"/>
<stop offset="1" stop-color="#FF3190"/>
</linearGradient>
<radialGradient id="paint4_radial_116_367" cx="0" cy="0" r="1" gradientUnits="userSpaceOnUse" gradientTransform="translate(9.11222 13.8769) rotate(86.482) scale(4.77442 4.11629)">
<stop offset="0.756562" stop-color="#E76CBE" stop-opacity="0"/>
<stop offset="0.951296" stop-color="#E76CBE"/>
</radialGradient>
<radialGradient id="paint5_radial_116_367" cx="0" cy="0" r="1" gradientUnits="userSpaceOnUse" gradientTransform="translate(8.40909 16.3964) rotate(-57.3464) scale(3.29407 1.44692)">
<stop stop-color="#FF5898"/>
<stop offset="1" stop-color="#FF5898" stop-opacity="0"/>
</radialGradient>
<linearGradient id="paint6_linear_116_367" x1="8.42875" y1="5.41983" x2="13.9366" y2="10.9667" gradientUnits="userSpaceOnUse">
<stop stop-color="#CCBBC0"/>
<stop offset="1" stop-color="#EAD2EC"/>
</linearGradient>
<radialGradient id="paint7_radial_116_367" cx="0" cy="0" r="1" gradientUnits="userSpaceOnUse" gradientTransform="translate(14.9809 13.4857) rotate(-142.447) scale(10.4231 19.5927)">
<stop offset="0.811143" stop-color="#E7E5E5" stop-opacity="0"/>
<stop offset="1" stop-color="#E7E5E5"/>
</radialGradient>
<radialGradient id="paint8_radial_116_367" cx="0" cy="0" r="1" gradientUnits="userSpaceOnUse" gradientTransform="translate(5.73842 13.3185) rotate(-56.9293) scale(6.12738 2.87981)">
<stop offset="0.281006" stop-color="#B5A3A5"/>
<stop offset="1" stop-color="#B5A3A5" stop-opacity="0"/>
</radialGradient>
<radialGradient id="paint9_radial_116_367" cx="0" cy="0" r="1" gradientUnits="userSpaceOnUse" gradientTransform="translate(3.96545 12.5569) rotate(-73.625) scale(5.43199 0.920438)">
<stop offset="0.207885" stop-color="#B28F96"/>
<stop offset="1" stop-color="#B28F96" stop-opacity="0"/>
</radialGradient>
<radialGradient id="paint10_radial_116_367" cx="0" cy="0" r="1" gradientUnits="userSpaceOnUse" gradientTransform="translate(16.9444 4.44327) rotate(137.284) scale(8.2344 2.55668)">
<stop stop-color="#FAECF1"/>
<stop offset="1" stop-color="#FAECF1" stop-opacity="0"/>
</radialGradient>
<linearGradient id="paint11_linear_116_367" x1="11.1133" y1="6.55707" x2="15.3125" y2="6.914" gradientUnits="userSpaceOnUse">
<stop stop-color="#A796A0"/>
<stop offset="1" stop-color="#A5959F"/>
</linearGradient>
<linearGradient id="paint12_linear_116_367" x1="14.6875" y1="5.31252" x2="11.875" y2="8.75002" gradientUnits="userSpaceOnUse">
<stop stop-color="#B7AFB2"/>
<stop offset="1" stop-color="#9D8FA6"/>
</linearGradient>
<radialGradient id="paint13_radial_116_367" cx="0" cy="0" r="1" gradientUnits="userSpaceOnUse" gradientTransform="translate(13.2129 6.914) rotate(90) scale(2.09961)">
<stop offset="0.586538" stop-color="#93859B"/>
<stop offset="1" stop-color="#93859B" stop-opacity="0"/>
</radialGradient>
<radialGradient id="paint14_radial_116_367" cx="0" cy="0" r="1" gradientUnits="userSpaceOnUse" gradientTransform="translate(13.2129 6.914) rotate(90) scale(2.09961)">
<stop offset="0.874455" stop-color="#93859B"/>
<stop offset="1" stop-color="#93859B" stop-opacity="0"/>
</radialGradient>
<radialGradient id="paint15_radial_116_367" cx="0" cy="0" r="1" gradientUnits="userSpaceOnUse" gradientTransform="translate(13.2129 8.3676) rotate(-90) scale(3.0285 2.78516)">
<stop stop-color="#72CDFF"/>
<stop offset="0.738019" stop-color="#66ACFF"/>
<stop offset="1" stop-color="#3B57F4"/>
</radialGradient>
<radialGradient id="paint16_radial_116_367" cx="0" cy="0" r="1" gradientUnits="userSpaceOnUse" gradientTransform="translate(5.11953 15.1536) rotate(135) scale(3.62903 2.85251)">
<stop stop-color="#D46213"/>
<stop offset="1" stop-color="#FF9542"/>
</radialGradient>
<radialGradient id="paint17_radial_116_367" cx="0" cy="0" r="1" gradientUnits="userSpaceOnUse" gradientTransform="translate(5.18984 18.1064) rotate(-131.186) scale(4.48408 4.72548)">
<stop offset="0.870944" stop-color="#FFC484" stop-opacity="0"/>
<stop offset="1" stop-color="#FFC484"/>
</radialGradient>
<linearGradient id="paint18_linear_116_367" x1="3.62401" y1="13.7206" x2="7.06151" y2="17.0995" gradientUnits="userSpaceOnUse">
<stop stop-color="#452860"/>
<stop offset="1" stop-color="#51509F"/>
</linearGradient>
<radialGradient id="paint19_radial_116_367" cx="0" cy="0" r="1" gradientUnits="userSpaceOnUse" gradientTransform="translate(4.26854 13.4081) rotate(77.8285) scale(1.019 0.900314)">
<stop stop-color="#8E839A"/>
<stop offset="1" stop-color="#8E839A" stop-opacity="0"/>
</radialGradient>
<radialGradient id="paint20_radial_116_367" cx="0" cy="0" r="1" gradientUnits="userSpaceOnUse" gradientTransform="translate(4.50431 14.0112) rotate(47.9357) scale(3.88269 2.03523)">
<stop offset="0.860492" stop-color="#6175B9" stop-opacity="0"/>
<stop offset="1" stop-color="#6175B9"/>
</radialGradient>
<linearGradient id="paint21_linear_116_367" x1="18.2355" y1="1.7974" x2="15.9379" y2="4.09496" gradientUnits="userSpaceOnUse">
<stop stop-color="#FF3745"/>
<stop offset="1" stop-color="#ED224B"/>
</linearGradient>
<radialGradient id="paint22_radial_116_367" cx="0" cy="0" r="1" gradientUnits="userSpaceOnUse" gradientTransform="translate(17.9616 2.71713) rotate(135) scale(5.15423 1.23732)">
<stop offset="0.189394" stop-color="#FF5971"/>
<stop offset="1" stop-color="#FF5971" stop-opacity="0"/>
</radialGradient>
<linearGradient id="paint23_linear_116_367" x1="16.1387" y1="4.24797" x2="16.3682" y2="4.00871" gradientUnits="userSpaceOnUse">
<stop stop-color="#D2575E"/>
<stop offset="1" stop-color="#F93251" stop-opacity="0"/>
</linearGradient>
<linearGradient id="paint24_linear_116_367" x1="9.47515" y1="10.6655" x2="5.42133" y2="14.7194" gradientUnits="userSpaceOnUse">
<stop stop-color="#FF2644"/>
<stop offset="1" stop-color="#FF2982"/>
</linearGradient>
<radialGradient id="paint25_radial_116_367" cx="0" cy="0" r="1" gradientUnits="userSpaceOnUse" gradientTransform="translate(3.89737 12.1386) rotate(-20.8651) scale(4.66114 1.22024)">
<stop stop-color="#FF95AF"/>
<stop offset="1" stop-color="#FF95AF" stop-opacity="0"/>
</radialGradient>
<radialGradient id="paint26_radial_116_367" cx="0" cy="0" r="1" gradientUnits="userSpaceOnUse" gradientTransform="translate(3.37341 12.6924) rotate(44.7044) scale(2.88138 0.851137)">
<stop offset="0.381871" stop-color="#E14678"/>
<stop offset="1" stop-color="#E14678" stop-opacity="0"/>
</radialGradient>
<radialGradient id="paint27_radial_116_367" cx="0" cy="0" r="1" gradientUnits="userSpaceOnUse" gradientTransform="translate(7.23722 11.9628) rotate(84.6743) scale(4.62936 4.93326)">
<stop offset="0.831791" stop-color="#E67BC7" stop-opacity="0"/>
<stop offset="1" stop-color="#E67BC7"/>
</radialGradient>
<radialGradient id="paint28_radial_116_367" cx="0" cy="0" r="1" gradientUnits="userSpaceOnUse" gradientTransform="translate(6.56242 13.75) rotate(45) scale(1.76777 6.02146)">
<stop stop-color="#FF739D"/>
<stop offset="0.796875" stop-color="#FF739D" stop-opacity="0"/>
</radialGradient>
<clipPath id="clip0_116_367">
<rect width="20" height="20" fill="white"/>
</clipPath>
</defs>
</svg>
