<svg width="28" height="28" viewBox="0 0 28 28" fill="none" xmlns="http://www.w3.org/2000/svg">
<g clip-path="url(#clip0_116_367)">
<path d="M9.25873 11.9743C10.3092 11.5886 11.3305 12.6074 10.9438 13.6554L8.65238 19.8655C8.43175 20.4634 7.66413 20.6317 7.21252 20.1812L2.71722 15.6967C2.2656 15.2461 2.43432 14.4804 3.03367 14.2603L9.25873 11.9743Z" fill="url(#paint0_linear_116_367)"/>
<path d="M9.25873 11.9743C10.3092 11.5886 11.3305 12.6074 10.9438 13.6554L8.65238 19.8655C8.43175 20.4634 7.66413 20.6317 7.21252 20.1812L2.71722 15.6967C2.2656 15.2461 2.43432 14.4804 3.03367 14.2603L9.25873 11.9743Z" fill="url(#paint1_radial_116_367)"/>
<path d="M9.25873 11.9743C10.3092 11.5886 11.3305 12.6074 10.9438 13.6554L8.65238 19.8655C8.43175 20.4634 7.66413 20.6317 7.21252 20.1812L2.71722 15.6967C2.2656 15.2461 2.43432 14.4804 3.03367 14.2603L9.25873 11.9743Z" fill="url(#paint2_linear_116_367)"/>
<path d="M14.5087 17.2117C15.5592 16.826 16.5805 17.8448 16.1938 18.8928L13.9024 25.1029C13.6818 25.7008 12.9141 25.8691 12.4625 25.4186L7.96722 20.934C7.5156 20.4835 7.68432 19.7177 8.28367 19.4977L14.5087 17.2117Z" fill="url(#paint3_linear_116_367)"/>
<path d="M14.5087 17.2117C15.5592 16.826 16.5805 17.8448 16.1938 18.8928L13.9024 25.1029C13.6818 25.7008 12.9141 25.8691 12.4625 25.4186L7.96722 20.934C7.5156 20.4835 7.68432 19.7177 8.28367 19.4977L14.5087 17.2117Z" fill="url(#paint4_radial_116_367)"/>
<path d="M14.5087 17.2117C15.5592 16.826 16.5805 17.8448 16.1938 18.8928L13.9024 25.1029C13.6818 25.7008 12.9141 25.8691 12.4625 25.4186L7.96722 20.934C7.5156 20.4835 7.68432 19.7177 8.28367 19.4977L14.5087 17.2117Z" fill="url(#paint5_radial_116_367)"/>
<path d="M19.6174 3.09226C19.6572 3.0761 19.702 3.07799 19.7405 3.09727L23.2202 4.8401L24.9229 8.30628C24.9418 8.34466 24.9435 8.38909 24.9273 8.42868C23.6935 11.4536 21.9911 14.674 19.7099 16.9497C17.4928 19.1614 13.7428 21.0465 10.3569 22.4327L5.55164 17.639C6.94115 14.2612 8.83078 10.5202 11.0478 8.30847C13.336 6.02578 16.5771 4.32398 19.6174 3.09226Z" fill="url(#paint6_linear_116_367)"/>
<path d="M19.6174 3.09226C19.6572 3.0761 19.702 3.07799 19.7405 3.09727L23.2202 4.8401L24.9229 8.30628C24.9418 8.34466 24.9435 8.38909 24.9273 8.42868C23.6935 11.4536 21.9911 14.674 19.7099 16.9497C17.4928 19.1614 13.7428 21.0465 10.3569 22.4327L5.55164 17.639C6.94115 14.2612 8.83078 10.5202 11.0478 8.30847C13.336 6.02578 16.5771 4.32398 19.6174 3.09226Z" fill="url(#paint7_radial_116_367)"/>
<path d="M19.6174 3.09226C19.6572 3.0761 19.702 3.07799 19.7405 3.09727L23.2202 4.8401L24.9229 8.30628C24.9418 8.34466 24.9435 8.38909 24.9273 8.42868C23.6935 11.4536 21.9911 14.674 19.7099 16.9497C17.4928 19.1614 13.7428 21.0465 10.3569 22.4327L5.55164 17.639C6.94115 14.2612 8.83078 10.5202 11.0478 8.30847C13.336 6.02578 16.5771 4.32398 19.6174 3.09226Z" fill="url(#paint8_radial_116_367)"/>
<path d="M19.6174 3.09226C19.6572 3.0761 19.702 3.07799 19.7405 3.09727L23.2202 4.8401L24.9229 8.30628C24.9418 8.34466 24.9435 8.38909 24.9273 8.42868C23.6935 11.4536 21.9911 14.674 19.7099 16.9497C17.4928 19.1614 13.7428 21.0465 10.3569 22.4327L5.55164 17.639C6.94115 14.2612 8.83078 10.5202 11.0478 8.30847C13.336 6.02578 16.5771 4.32398 19.6174 3.09226Z" fill="url(#paint9_radial_116_367)"/>
<path d="M19.6174 3.09226C19.6572 3.0761 19.702 3.07799 19.7405 3.09727L23.2202 4.8401L24.9229 8.30628C24.9418 8.34466 24.9435 8.38909 24.9273 8.42868C23.6935 11.4536 21.9911 14.674 19.7099 16.9497C17.4928 19.1614 13.7428 21.0465 10.3569 22.4327L5.55164 17.639C6.94115 14.2612 8.83078 10.5202 11.0478 8.30847C13.336 6.02578 16.5771 4.32398 19.6174 3.09226Z" fill="url(#paint10_radial_116_367)"/>
<path d="M21.4375 9.65633C21.4375 11.2758 20.1215 12.5887 18.498 12.5887C16.8746 12.5887 15.5586 11.2758 15.5586 9.65633C15.5586 8.03681 16.8746 6.72394 18.498 6.72394C20.1215 6.72394 21.4375 8.03681 21.4375 9.65633Z" fill="url(#paint11_linear_116_367)"/>
<path d="M21.4375 9.65633C21.4375 11.2758 20.1215 12.5887 18.498 12.5887C16.8746 12.5887 15.5586 11.2758 15.5586 9.65633C15.5586 8.03681 16.8746 6.72394 18.498 6.72394C20.1215 6.72394 21.4375 8.03681 21.4375 9.65633Z" fill="url(#paint12_linear_116_367)"/>
<path d="M21.4375 9.65633C21.4375 11.2758 20.1215 12.5887 18.498 12.5887C16.8746 12.5887 15.5586 11.2758 15.5586 9.65633C15.5586 8.03681 16.8746 6.72394 18.498 6.72394C20.1215 6.72394 21.4375 8.03681 21.4375 9.65633Z" fill="url(#paint13_radial_116_367)"/>
<path d="M21.4375 9.65633C21.4375 11.2758 20.1215 12.5887 18.498 12.5887C16.8746 12.5887 15.5586 11.2758 15.5586 9.65633C15.5586 8.03681 16.8746 6.72394 18.498 6.72394C20.1215 6.72394 21.4375 8.03681 21.4375 9.65633Z" fill="url(#paint14_radial_116_367)"/>
<path d="M20.5331 9.65637C20.5331 10.7776 19.622 11.6865 18.4981 11.6865C17.3742 11.6865 16.4631 10.7776 16.4631 9.65637C16.4631 8.53517 17.3742 7.62625 18.4981 7.62625C19.622 7.62625 20.5331 8.53517 20.5331 9.65637Z" fill="url(#paint15_radial_116_367)"/>
<path d="M2.12062 25.7789C1.5019 25.1617 1.75012 20.8812 3.9376 20.0083C3.9376 20.0083 6.1251 19.1354 7.53474 20.5326C8.94437 21.9297 8.3126 23.4999 8.3126 23.4999C7.6939 25.3516 5.05984 26.0876 4.75049 25.779C4.57964 25.6086 4.88731 25.2983 4.7505 25.1618C4.6137 25.0253 4.40247 25.1811 3.82242 25.4704C3.40995 25.6762 2.36811 26.0258 2.12062 25.7789Z" fill="url(#paint16_radial_116_367)"/>
<path d="M2.12062 25.7789C1.5019 25.1617 1.75012 20.8812 3.9376 20.0083C3.9376 20.0083 6.1251 19.1354 7.53474 20.5326C8.94437 21.9297 8.3126 23.4999 8.3126 23.4999C7.6939 25.3516 5.05984 26.0876 4.75049 25.779C4.57964 25.6086 4.88731 25.2983 4.7505 25.1618C4.6137 25.0253 4.40247 25.1811 3.82242 25.4704C3.40995 25.6762 2.36811 26.0258 2.12062 25.7789Z" fill="url(#paint17_radial_116_367)"/>
<path d="M5.30309 18.3155C5.81566 17.8042 6.64669 17.8042 7.15925 18.3155L10.2528 21.4017C10.7654 21.913 10.7654 22.742 10.2528 23.2534C9.74028 23.7647 8.90925 23.7647 8.39669 23.2534L5.30309 20.1672C4.79053 19.6559 4.79053 18.8268 5.30309 18.3155Z" fill="url(#paint18_linear_116_367)"/>
<path d="M5.30309 18.3155C5.81566 17.8042 6.64669 17.8042 7.15925 18.3155L10.2528 21.4017C10.7654 21.913 10.7654 22.742 10.2528 23.2534C9.74028 23.7647 8.90925 23.7647 8.39669 23.2534L5.30309 20.1672C4.79053 19.6559 4.79053 18.8268 5.30309 18.3155Z" fill="url(#paint19_radial_116_367)"/>
<path d="M5.30309 18.3155C5.81566 17.8042 6.64669 17.8042 7.15925 18.3155L10.2528 21.4017C10.7654 21.913 10.7654 22.742 10.2528 23.2534C9.74028 23.7647 8.90925 23.7647 8.39669 23.2534L5.30309 20.1672C4.79053 19.6559 4.79053 18.8268 5.30309 18.3155Z" fill="url(#paint20_radial_116_367)"/>
<path d="M25.5258 2.50653C24.6971 1.67982 23.2439 1.77341 22.1847 2.13621C21.4298 2.39481 20.6367 2.68465 19.8274 3.00783C19.7609 3.03437 19.7433 3.11993 19.7938 3.17059L24.8498 8.24908C24.9004 8.29993 24.9867 8.28259 25.0134 8.21607C25.3414 7.40009 25.6352 6.60041 25.8971 5.8396C26.2559 4.79719 26.5444 3.52269 25.5258 2.50653Z" fill="url(#paint21_linear_116_367)"/>
<path d="M25.5258 2.50653C24.6971 1.67982 23.2439 1.77341 22.1847 2.13621C21.4298 2.39481 20.6367 2.68465 19.8274 3.00783C19.7609 3.03437 19.7433 3.11993 19.7938 3.17059L24.8498 8.24908C24.9004 8.29993 24.9867 8.28259 25.0134 8.21607C25.3414 7.40009 25.6352 6.60041 25.8971 5.8396C26.2559 4.79719 26.5444 3.52269 25.5258 2.50653Z" fill="url(#paint22_radial_116_367)"/>
<path d="M25.5258 2.50653C24.6971 1.67982 23.2439 1.77341 22.1847 2.13621C21.4298 2.39481 20.6367 2.68465 19.8274 3.00783C19.7609 3.03437 19.7433 3.11993 19.7938 3.17059L24.8498 8.24908C24.9004 8.29993 24.9867 8.28259 25.0134 8.21607C25.3414 7.40009 25.6352 6.60041 25.8971 5.8396C26.2559 4.79719 26.5444 3.52269 25.5258 2.50653Z" fill="url(#paint23_linear_116_367)"/>
<path d="M11.8837 14.593C12.9342 14.2073 13.9555 15.2261 13.5688 16.2741L11.2774 22.4842C11.0568 23.0821 10.2891 23.2504 9.83752 22.7999L5.34222 18.3154C4.8906 17.8648 5.05932 17.0991 5.65867 16.879L11.8837 14.593Z" fill="url(#paint24_linear_116_367)"/>
<path d="M11.8837 14.593C12.9342 14.2073 13.9555 15.2261 13.5688 16.2741L11.2774 22.4842C11.0568 23.0821 10.2891 23.2504 9.83752 22.7999L5.34222 18.3154C4.8906 17.8648 5.05932 17.0991 5.65867 16.879L11.8837 14.593Z" fill="url(#paint25_radial_116_367)"/>
<path d="M11.8837 14.593C12.9342 14.2073 13.9555 15.2261 13.5688 16.2741L11.2774 22.4842C11.0568 23.0821 10.2891 23.2504 9.83752 22.7999L5.34222 18.3154C4.8906 17.8648 5.05932 17.0991 5.65867 16.879L11.8837 14.593Z" fill="url(#paint26_radial_116_367)"/>
<path d="M11.8837 14.593C12.9342 14.2073 13.9555 15.2261 13.5688 16.2741L11.2774 22.4842C11.0568 23.0821 10.2891 23.2504 9.83752 22.7999L5.34222 18.3154C4.8906 17.8648 5.05932 17.0991 5.65867 16.879L11.8837 14.593Z" fill="url(#paint27_radial_116_367)"/>
<path d="M11.8837 14.593C12.9342 14.2073 13.9555 15.2261 13.5688 16.2741L11.2774 22.4842C11.0568 23.0821 10.2891 23.2504 9.83752 22.7999L5.34222 18.3154C4.8906 17.8648 5.05932 17.0991 5.65867 16.879L11.8837 14.593Z" fill="url(#paint28_radial_116_367)"/>
</g>
<defs>
<linearGradient id="paint0_linear_116_367" x1="7.09695" y1="15.1081" x2="2.72251" y2="14.3857" gradientUnits="userSpaceOnUse">
<stop stop-color="#EE2452"/>
<stop offset="1" stop-color="#F63E7A"/>
</linearGradient>
<radialGradient id="paint1_radial_116_367" cx="0" cy="0" r="1" gradientUnits="userSpaceOnUse" gradientTransform="translate(2.09777 14.8944) rotate(-19.9134) scale(6.99951 1.18786)">
<stop offset="0.163866" stop-color="#FF8DB0"/>
<stop offset="1" stop-color="#FF8DB0" stop-opacity="0"/>
</radialGradient>
<linearGradient id="paint2_linear_116_367" x1="4.29158" y1="17.225" x2="5.00327" y2="16.5295" gradientUnits="userSpaceOnUse">
<stop offset="0.491189" stop-color="#DD467C"/>
<stop offset="1" stop-color="#DD467C" stop-opacity="0"/>
</linearGradient>
<linearGradient id="paint3_linear_116_367" x1="15.6555" y1="18.9172" x2="10.2248" y2="23.189" gradientUnits="userSpaceOnUse">
<stop stop-color="#F83267"/>
<stop offset="1" stop-color="#FF3190"/>
</linearGradient>
<radialGradient id="paint4_radial_116_367" cx="0" cy="0" r="1" gradientUnits="userSpaceOnUse" gradientTransform="translate(12.7571 19.381) rotate(86.4735) scale(6.66819 5.76275)">
<stop offset="0.756562" stop-color="#E76CBE" stop-opacity="0"/>
<stop offset="0.951296" stop-color="#E76CBE"/>
</radialGradient>
<radialGradient id="paint5_radial_116_367" cx="0" cy="0" r="1" gradientUnits="userSpaceOnUse" gradientTransform="translate(11.7727 22.8998) rotate(-57.2838) scale(4.60385 2.02427)">
<stop stop-color="#FF5898"/>
<stop offset="1" stop-color="#FF5898" stop-opacity="0"/>
</radialGradient>
<linearGradient id="paint6_linear_116_367" x1="11.8002" y1="7.5695" x2="19.4925" y2="15.335" gradientUnits="userSpaceOnUse">
<stop stop-color="#CCBBC0"/>
<stop offset="1" stop-color="#EAD2EC"/>
</linearGradient>
<radialGradient id="paint7_radial_116_367" cx="0" cy="0" r="1" gradientUnits="userSpaceOnUse" gradientTransform="translate(20.9733 18.8346) rotate(-142.514) scale(14.5793 27.3883)">
<stop offset="0.811143" stop-color="#E7E5E5" stop-opacity="0"/>
<stop offset="1" stop-color="#E7E5E5"/>
</radialGradient>
<radialGradient id="paint8_radial_116_367" cx="0" cy="0" r="1" gradientUnits="userSpaceOnUse" gradientTransform="translate(8.03379 18.6011) rotate(-56.8663) scale(8.56387 4.02885)">
<stop offset="0.281006" stop-color="#B5A3A5"/>
<stop offset="1" stop-color="#B5A3A5" stop-opacity="0"/>
</radialGradient>
<radialGradient id="paint9_radial_116_367" cx="0" cy="0" r="1" gradientUnits="userSpaceOnUse" gradientTransform="translate(5.55164 17.5374) rotate(-73.5877) scale(7.58797 1.28837)">
<stop offset="0.207885" stop-color="#B28F96"/>
<stop offset="1" stop-color="#B28F96" stop-opacity="0"/>
</radialGradient>
<radialGradient id="paint10_radial_116_367" cx="0" cy="0" r="1" gradientUnits="userSpaceOnUse" gradientTransform="translate(23.7221 6.2056) rotate(137.353) scale(11.5154 3.5747)">
<stop stop-color="#FAECF1"/>
<stop offset="1" stop-color="#FAECF1" stop-opacity="0"/>
</radialGradient>
<linearGradient id="paint11_linear_116_367" x1="15.5586" y1="9.15783" x2="21.4373" y2="9.65872" gradientUnits="userSpaceOnUse">
<stop stop-color="#A796A0"/>
<stop offset="1" stop-color="#A5959F"/>
</linearGradient>
<linearGradient id="paint12_linear_116_367" x1="20.5625" y1="7.41964" x2="16.6363" y2="12.2298" gradientUnits="userSpaceOnUse">
<stop stop-color="#B7AFB2"/>
<stop offset="1" stop-color="#9D8FA6"/>
</linearGradient>
<radialGradient id="paint13_radial_116_367" cx="0" cy="0" r="1" gradientUnits="userSpaceOnUse" gradientTransform="translate(18.498 9.65633) rotate(90) scale(2.93239 2.93945)">
<stop offset="0.586538" stop-color="#93859B"/>
<stop offset="1" stop-color="#93859B" stop-opacity="0"/>
</radialGradient>
<radialGradient id="paint14_radial_116_367" cx="0" cy="0" r="1" gradientUnits="userSpaceOnUse" gradientTransform="translate(18.498 9.65633) rotate(90) scale(2.93239 2.93945)">
<stop offset="0.874455" stop-color="#93859B"/>
<stop offset="1" stop-color="#93859B" stop-opacity="0"/>
</radialGradient>
<radialGradient id="paint15_radial_116_367" cx="0" cy="0" r="1" gradientUnits="userSpaceOnUse" gradientTransform="translate(18.4981 11.6865) rotate(-90) scale(4.22971 3.89923)">
<stop stop-color="#72CDFF"/>
<stop offset="0.738019" stop-color="#66ACFF"/>
<stop offset="1" stop-color="#3B57F4"/>
</radialGradient>
<radialGradient id="paint16_radial_116_367" cx="0" cy="0" r="1" gradientUnits="userSpaceOnUse" gradientTransform="translate(7.16735 21.1641) rotate(135.069) scale(5.07454 3.98871)">
<stop stop-color="#D46213"/>
<stop offset="1" stop-color="#FF9542"/>
</radialGradient>
<radialGradient id="paint17_radial_116_367" cx="0" cy="0" r="1" gradientUnits="userSpaceOnUse" gradientTransform="translate(7.26577 25.2881) rotate(-131.254) scale(6.26917 6.60876)">
<stop offset="0.870944" stop-color="#FFC484" stop-opacity="0"/>
<stop offset="1" stop-color="#FFC484"/>
</radialGradient>
<linearGradient id="paint18_linear_116_367" x1="5.07362" y1="19.1627" x2="9.87474" y2="23.8934" gradientUnits="userSpaceOnUse">
<stop stop-color="#452860"/>
<stop offset="1" stop-color="#51509F"/>
</linearGradient>
<radialGradient id="paint19_radial_116_367" cx="0" cy="0" r="1" gradientUnits="userSpaceOnUse" gradientTransform="translate(5.97596 18.7263) rotate(77.8001) scale(1.42333 1.2603)">
<stop stop-color="#8E839A"/>
<stop offset="1" stop-color="#8E839A" stop-opacity="0"/>
</radialGradient>
<radialGradient id="paint20_radial_116_367" cx="0" cy="0" r="1" gradientUnits="userSpaceOnUse" gradientTransform="translate(6.30604 19.5685) rotate(47.8671) scale(5.42857 2.84624)">
<stop offset="0.860492" stop-color="#6175B9" stop-opacity="0"/>
<stop offset="1" stop-color="#6175B9"/>
</radialGradient>
<linearGradient id="paint21_linear_116_367" x1="25.5297" y1="2.51036" x2="22.3208" y2="5.72693" gradientUnits="userSpaceOnUse">
<stop stop-color="#FF3745"/>
<stop offset="1" stop-color="#ED224B"/>
</linearGradient>
<radialGradient id="paint22_radial_116_367" cx="0" cy="0" r="1" gradientUnits="userSpaceOnUse" gradientTransform="translate(25.1463 3.79488) rotate(135.069) scale(7.20726 1.73016)">
<stop offset="0.189394" stop-color="#FF5971"/>
<stop offset="1" stop-color="#FF5971" stop-opacity="0"/>
</radialGradient>
<linearGradient id="paint23_linear_116_367" x1="22.5942" y1="5.9329" x2="22.9147" y2="5.59797" gradientUnits="userSpaceOnUse">
<stop stop-color="#D2575E"/>
<stop offset="1" stop-color="#F93251" stop-opacity="0"/>
</linearGradient>
<linearGradient id="paint24_linear_116_367" x1="13.2652" y1="14.8959" x2="7.60352" y2="20.5712" gradientUnits="userSpaceOnUse">
<stop stop-color="#FF2644"/>
<stop offset="1" stop-color="#FF2982"/>
</linearGradient>
<radialGradient id="paint25_radial_116_367" cx="0" cy="0" r="1" gradientUnits="userSpaceOnUse" gradientTransform="translate(5.45632 16.9532) rotate(-20.8193) scale(6.52361 1.70475)">
<stop stop-color="#FF95AF"/>
<stop offset="1" stop-color="#FF95AF" stop-opacity="0"/>
</radialGradient>
<radialGradient id="paint26_radial_116_367" cx="0" cy="0" r="1" gradientUnits="userSpaceOnUse" gradientTransform="translate(4.72277 17.7268) rotate(44.6355) scale(4.02914 1.19014)">
<stop offset="0.381871" stop-color="#E14678"/>
<stop offset="1" stop-color="#E14678" stop-opacity="0"/>
</radialGradient>
<radialGradient id="paint27_radial_116_367" cx="0" cy="0" r="1" gradientUnits="userSpaceOnUse" gradientTransform="translate(10.1321 16.7077) rotate(84.6615) scale(6.46567 6.90642)">
<stop offset="0.831791" stop-color="#E67BC7" stop-opacity="0"/>
<stop offset="1" stop-color="#E67BC7"/>
</radialGradient>
<radialGradient id="paint28_radial_116_367" cx="0" cy="0" r="1" gradientUnits="userSpaceOnUse" gradientTransform="translate(9.18739 19.2038) rotate(44.9311) scale(2.4719 8.41989)">
<stop stop-color="#FF739D"/>
<stop offset="0.796875" stop-color="#FF739D" stop-opacity="0"/>
</radialGradient>
<clipPath id="clip0_116_367">
<rect width="28" height="27.9327" fill="white"/>
</clipPath>
</defs>
</svg>
