<svg width="18" height="14" viewBox="0 0 18 14" fill="none" xmlns="http://www.w3.org/2000/svg">
<path d="M14.6953 0.25C15.1348 0.25 15.5537 0.34082 15.9521 0.522461C16.3564 0.698242 16.708 0.938477 17.0068 1.24316C17.3115 1.54199 17.5518 1.89355 17.7275 2.29785C17.9092 2.69629 18 3.11523 18 3.55469V10.4453C18 10.8848 17.9092 11.3066 17.7275 11.7109C17.5518 12.1094 17.3115 12.4609 17.0068 12.7656C16.708 13.0645 16.3564 13.3047 15.9521 13.4863C15.5537 13.6621 15.1348 13.75 14.6953 13.75H3.30469C2.86523 13.75 2.44336 13.6621 2.03906 13.4863C1.64062 13.3047 1.28906 13.0645 0.984375 12.7656C0.685547 12.4609 0.445312 12.1094 0.263672 11.7109C0.0878906 11.3066 0 10.8848 0 10.4453V3.55469C0 3.11523 0.0878906 2.69629 0.263672 2.29785C0.445312 1.89355 0.685547 1.54199 0.984375 1.24316C1.28906 0.938477 1.64062 0.698242 2.03906 0.522461C2.44336 0.34082 2.86523 0.25 3.30469 0.25H14.6953ZM16.875 3.58105C16.875 3.28809 16.8135 3.00977 16.6904 2.74609C16.5732 2.47656 16.4121 2.24219 16.207 2.04297C16.0078 1.83789 15.7734 1.67676 15.5039 1.55957C15.2402 1.43652 14.9619 1.375 14.6689 1.375H3.33105C3.03809 1.375 2.75684 1.43652 2.4873 1.55957C2.22363 1.67676 1.98926 1.83789 1.78418 2.04297C1.58496 2.24219 1.42383 2.47656 1.30078 2.74609C1.18359 3.00977 1.125 3.28809 1.125 3.58105V10.4189C1.125 10.7119 1.18359 10.9932 1.30078 11.2627C1.42383 11.5264 1.58496 11.7607 1.78418 11.9658C1.98926 12.165 2.22363 12.3262 2.4873 12.4492C2.75684 12.5664 3.03809 12.625 3.33105 12.625H14.6689C14.9619 12.625 15.2402 12.5664 15.5039 12.4492C15.7734 12.3262 16.0078 12.165 16.207 11.9658C16.4121 11.7607 16.5732 11.5264 16.6904 11.2627C16.8135 10.9932 16.875 10.7119 16.875 10.4189V3.58105ZM12.9375 3.625C13.166 3.625 13.3828 3.66895 13.5879 3.75684C13.793 3.84473 13.9717 3.96777 14.124 4.12598C14.2822 4.27832 14.4053 4.45703 14.4932 4.66211C14.5811 4.86719 14.625 5.08398 14.625 5.3125V8.6875C14.625 8.91602 14.5811 9.13281 14.4932 9.33789C14.4053 9.54297 14.2822 9.72461 14.124 9.88281C13.9717 10.0352 13.793 10.1553 13.5879 10.2432C13.3828 10.3311 13.166 10.375 12.9375 10.375H9.5625C9.33398 10.375 9.11719 10.3311 8.91211 10.2432C8.70703 10.1553 8.52539 10.0352 8.36719 9.88281C8.21484 9.72461 8.09473 9.54297 8.00684 9.33789C7.91895 9.13281 7.875 8.91602 7.875 8.6875V5.3125C7.875 5.08398 7.91895 4.86719 8.00684 4.66211C8.09473 4.45703 8.21484 4.27832 8.36719 4.12598C8.52539 3.96777 8.70703 3.84473 8.91211 3.75684C9.11719 3.66895 9.33398 3.625 9.5625 3.625H12.9375ZM9.5625 4.75C9.41016 4.75 9.27832 4.80566 9.16699 4.91699C9.05566 5.02832 9 5.16016 9 5.3125V5.875H13.5V5.3125C13.5 5.16016 13.4443 5.02832 13.333 4.91699C13.2217 4.80566 13.0898 4.75 12.9375 4.75H9.5625ZM9 8.6875C9 8.83984 9.05566 8.97168 9.16699 9.08301C9.27832 9.19434 9.41016 9.25 9.5625 9.25H10.125V7H9V8.6875ZM12.9375 9.25C13.0898 9.25 13.2217 9.19434 13.333 9.08301C13.4443 8.97168 13.5 8.83984 13.5 8.6875V7H11.25V9.25H12.9375Z" fill="#0883D9"/>
</svg>
