<svg width="18" height="18" viewBox="0 0 18 18" fill="none" xmlns="http://www.w3.org/2000/svg">
<path d="M12.0339 0.609499C11.8466 0.534589 11.6593 0.609499 11.5469 0.796775C11.0226 1.6957 10.0487 2.29498 8.92509 2.29498C7.80143 2.29498 6.8276 1.6957 6.30323 0.759321C6.19086 0.6095 6.00359 0.53459 5.81631 0.572045C4.84248 0.909141 3.94355 1.43351 3.15699 2.10771C3.00717 2.22007 2.96971 2.4448 3.08208 2.63208C3.60645 3.531 3.68136 4.69211 3.11954 5.62849C2.55771 6.60233 1.54642 7.1267 0.497675 7.1267C0.310399 7.1267 0.123124 7.27652 0.123124 7.4638C-0.0641522 8.47509 -0.0266947 9.52383 0.160581 10.5351C0.198036 10.7224 0.347859 10.8722 0.57259 10.8722C1.62133 10.8722 2.63262 11.3966 3.19445 12.3704C3.75628 13.3443 3.71882 14.4679 3.19445 15.3668C3.08209 15.5167 3.11953 15.7414 3.26936 15.8912C3.64391 16.2283 4.09338 16.5279 4.54284 16.7901C4.9923 17.0523 5.47921 17.2771 5.96613 17.4643C6.15341 17.5392 6.34068 17.4643 6.45304 17.2771C6.97742 16.3781 7.95125 15.7788 9.07491 15.7788C10.1986 15.7788 11.1724 16.3781 11.6968 17.3145C11.8091 17.4643 11.9964 17.5392 12.1837 17.5018C13.1575 17.1647 14.0565 16.6403 14.843 15.9661C14.9928 15.8538 15.0303 15.629 14.9179 15.4792C14.3936 14.5803 14.3186 13.4192 14.8805 12.4828C15.4423 11.509 16.4536 10.9846 17.5023 10.9846C17.6896 10.9846 17.8769 10.8348 17.8769 10.6475C18.0641 9.6362 18.0267 8.58745 17.8394 7.57616C17.802 7.38888 17.6521 7.23907 17.4274 7.23907C16.3787 7.23907 15.3674 6.71469 14.8055 5.74086C14.2437 4.76702 14.2812 3.64337 14.8055 2.74445C14.9179 2.59462 14.8805 2.36989 14.7307 2.22007C14.3561 1.88298 13.9066 1.58333 13.4572 1.32115C12.9702 0.984052 12.5208 0.796775 12.0339 0.609499Z" fill="url(#paint0_linear_46_2499)"/>
<path d="M9 13.6875C11.4853 13.6875 13.5 11.6728 13.5 9.1875C13.5 6.70222 11.4853 4.6875 9 4.6875C6.51472 4.6875 4.5 6.70222 4.5 9.1875C4.5 11.6728 6.51472 13.6875 9 13.6875Z" fill="url(#paint1_linear_46_2499)"/>
<path d="M9 12.1875C10.6569 12.1875 12 10.8444 12 9.1875C12 7.53065 10.6569 6.1875 9 6.1875C7.34315 6.1875 6 7.53065 6 9.1875C6 10.8444 7.34315 12.1875 9 12.1875Z" fill="url(#paint2_linear_46_2499)"/>
<defs>
<linearGradient id="paint0_linear_46_2499" x1="13.4572" y1="16.7994" x2="4.46792" y2="1.22961" gradientUnits="userSpaceOnUse">
<stop stop-color="#626F7A"/>
<stop offset="1" stop-color="#8B9299"/>
</linearGradient>
<linearGradient id="paint1_linear_46_2499" x1="11.2504" y1="13.1004" x2="6.74962" y2="5.30482" gradientUnits="userSpaceOnUse">
<stop stop-color="white"/>
<stop offset="1" stop-color="#CCCCCC"/>
</linearGradient>
<linearGradient id="paint2_linear_46_2499" x1="10.5002" y1="11.8011" x2="7.49977" y2="6.60409" gradientUnits="userSpaceOnUse">
<stop stop-color="#114A8B"/>
<stop offset="1" stop-color="#0669BC"/>
</linearGradient>
</defs>
</svg>
