<svg width="20" height="20" viewBox="0 0 20 20" fill="none" xmlns="http://www.w3.org/2000/svg">
<g clip-path="url(#clip0_114_48)">
<path d="M13.371 0.677221C13.1629 0.593988 12.9548 0.677221 12.8299 0.885305C12.2473 1.88411 11.1652 2.54998 9.91677 2.54998C8.66826 2.54998 7.58622 1.88411 7.00359 0.84369C6.87873 0.677222 6.67066 0.593989 6.46257 0.635605C5.38053 1.01016 4.38172 1.59279 3.50777 2.3419C3.3413 2.46674 3.29968 2.71644 3.42453 2.92453C4.00717 3.92333 4.0904 5.21346 3.46616 6.25388C2.8419 7.33592 1.71824 7.91856 0.552972 7.91856C0.344888 7.91856 0.136804 8.08502 0.136804 8.29311C-0.0712803 9.41677 -0.0296608 10.582 0.178423 11.7057C0.22004 11.9138 0.38651 12.0802 0.636211 12.0802C1.80148 12.0802 2.92513 12.6629 3.54939 13.7449C4.17364 14.827 4.13202 16.0754 3.54939 17.0742C3.42454 17.2408 3.46614 17.4904 3.63262 17.6569C4.04879 18.0314 4.5482 18.3643 5.0476 18.6557C5.547 18.947 6.08801 19.1968 6.62903 19.4048C6.83712 19.488 7.0452 19.4048 7.17004 19.1968C7.75269 18.1979 8.83472 17.532 10.0832 17.532C11.3318 17.532 12.4138 18.1979 12.9964 19.2383C13.1212 19.4048 13.3293 19.488 13.5374 19.4464C14.6194 19.0719 15.6183 18.4892 16.4922 17.7401C16.6587 17.6153 16.7003 17.3656 16.5754 17.1991C15.9929 16.2003 15.9096 14.9102 16.5339 13.8698C17.1581 12.7878 18.2818 12.2051 19.447 12.2051C19.6551 12.2051 19.8632 12.0387 19.8632 11.8306C20.0712 10.7069 20.0297 9.54161 19.8216 8.41796C19.78 8.20987 19.6134 8.04341 19.3638 8.04341C18.1986 8.04341 17.0749 7.46077 16.4506 6.37873C15.8263 5.29669 15.868 4.04819 16.4506 3.04939C16.5754 2.88291 16.5339 2.63321 16.3674 2.46674C15.9512 2.0922 15.4518 1.75926 14.9524 1.46794C14.4113 1.09339 13.912 0.885305 13.371 0.677221Z" fill="url(#paint0_linear_114_48)"/>
<path d="M10 15.2083C12.7614 15.2083 15 12.9698 15 10.2083C15 7.44691 12.7614 5.20833 10 5.20833C7.23858 5.20833 5 7.44691 5 10.2083C5 12.9698 7.23858 15.2083 10 15.2083Z" fill="url(#paint1_linear_114_48)"/>
<path d="M9.99999 13.5417C11.841 13.5417 13.3333 12.0493 13.3333 10.2083C13.3333 8.36739 11.841 6.875 9.99999 6.875C8.15905 6.875 6.66666 8.36739 6.66666 10.2083C6.66666 12.0493 8.15905 13.5417 9.99999 13.5417Z" fill="url(#paint2_linear_114_48)"/>
</g>
<defs>
<linearGradient id="paint0_linear_114_48" x1="14.9524" y1="18.666" x2="4.96436" y2="1.36623" gradientUnits="userSpaceOnUse">
<stop stop-color="#626F7A"/>
<stop offset="1" stop-color="#8B9299"/>
</linearGradient>
<linearGradient id="paint1_linear_114_48" x1="12.5004" y1="14.556" x2="7.49958" y2="5.89424" gradientUnits="userSpaceOnUse">
<stop stop-color="white"/>
<stop offset="1" stop-color="#CCCCCC"/>
</linearGradient>
<linearGradient id="paint2_linear_114_48" x1="11.6669" y1="13.1123" x2="8.33307" y2="7.33788" gradientUnits="userSpaceOnUse">
<stop stop-color="#114A8B"/>
<stop offset="1" stop-color="#0669BC"/>
</linearGradient>
<clipPath id="clip0_114_48">
<rect width="20" height="20" fill="white"/>
</clipPath>
</defs>
</svg>
