<svg width="18" height="14" viewBox="0 0 18 14" fill="none" xmlns="http://www.w3.org/2000/svg">
<path d="M14.6953 0.25C15.1348 0.25 15.5537 0.34082 15.9521 0.522461C16.3564 0.698242 16.708 0.938477 17.0068 1.24316C17.3115 1.54199 17.5518 1.89355 17.7275 2.29785C17.9092 2.69629 18 3.11523 18 3.55469V10.4453C18 10.8848 17.9092 11.3066 17.7275 11.7109C17.5518 12.1094 17.3115 12.4609 17.0068 12.7656C16.708 13.0645 16.3564 13.3047 15.9521 13.4863C15.5537 13.6621 15.1348 13.75 14.6953 13.75H3.30469C2.86523 13.75 2.44336 13.6621 2.03906 13.4863C1.64062 13.3047 1.28906 13.0645 0.984375 12.7656C0.685547 12.4609 0.445312 12.1094 0.263672 11.7109C0.0878906 11.3066 0 10.8848 0 10.4453V3.55469C0 3.11523 0.0878906 2.69629 0.263672 2.29785C0.445312 1.89355 0.685547 1.54199 0.984375 1.24316C1.28906 0.938477 1.64062 0.698242 2.03906 0.522461C2.44336 0.34082 2.86523 0.25 3.30469 0.25H14.6953ZM16.875 3.58105C16.875 3.28809 16.8135 3.00977 16.6904 2.74609C16.5732 2.47656 16.4121 2.24219 16.207 2.04297C16.0078 1.83789 15.7734 1.67676 15.5039 1.55957C15.2402 1.43652 14.9619 1.375 14.6689 1.375H3.33105C3.03809 1.375 2.75684 1.43652 2.4873 1.55957C2.22363 1.67676 1.98926 1.83789 1.78418 2.04297C1.58496 2.24219 1.42383 2.47656 1.30078 2.74609C1.18359 3.00977 1.125 3.28809 1.125 3.58105V10.4189C1.125 10.7178 1.18652 11.002 1.30957 11.2715C1.43262 11.541 1.59668 11.7754 1.80176 11.9746C2.00684 12.1738 2.24414 12.332 2.51367 12.4492C2.78906 12.5664 3.07617 12.625 3.375 12.625V5.3125C3.375 5.08398 3.41895 4.86719 3.50684 4.66211C3.59473 4.45703 3.71484 4.27832 3.86719 4.12598C4.02539 3.96777 4.20703 3.84473 4.41211 3.75684C4.61719 3.66895 4.83398 3.625 5.0625 3.625H12.9375C13.166 3.625 13.3828 3.66895 13.5879 3.75684C13.793 3.84473 13.9717 3.96777 14.124 4.12598C14.2822 4.27832 14.4053 4.45703 14.4932 4.66211C14.5811 4.86719 14.625 5.08398 14.625 5.3125V12.625H14.6689C14.9619 12.625 15.2402 12.5664 15.5039 12.4492C15.7734 12.3262 16.0078 12.165 16.207 11.9658C16.4121 11.7607 16.5732 11.5264 16.6904 11.2627C16.8135 10.9932 16.875 10.7119 16.875 10.4189V3.58105ZM13.5 12.625V5.3125C13.5 5.16016 13.4443 5.02832 13.333 4.91699C13.2217 4.80566 13.0898 4.75 12.9375 4.75H5.0625C4.91016 4.75 4.77832 4.80566 4.66699 4.91699C4.55566 5.02832 4.5 5.16016 4.5 5.3125V12.625H13.5ZM8.15625 6.71875C8.15625 6.95312 8.07422 7.15234 7.91016 7.31641C7.74609 7.48047 7.54688 7.5625 7.3125 7.5625C7.07812 7.5625 6.87891 7.48047 6.71484 7.31641C6.55078 7.15234 6.46875 6.95312 6.46875 6.71875C6.46875 6.48438 6.55078 6.28516 6.71484 6.12109C6.87891 5.95703 7.07812 5.875 7.3125 5.875C7.54688 5.875 7.74609 5.95703 7.91016 6.12109C8.07422 6.28516 8.15625 6.48438 8.15625 6.71875ZM11.5312 6.71875C11.5312 6.95312 11.4492 7.15234 11.2852 7.31641C11.1211 7.48047 10.9219 7.5625 10.6875 7.5625C10.4531 7.5625 10.2539 7.48047 10.0898 7.31641C9.92578 7.15234 9.84375 6.95312 9.84375 6.71875C9.84375 6.48438 9.92578 6.28516 10.0898 6.12109C10.2539 5.95703 10.4531 5.875 10.6875 5.875C10.9219 5.875 11.1211 5.95703 11.2852 6.12109C11.4492 6.28516 11.5312 6.48438 11.5312 6.71875ZM8.15625 10.0938C8.15625 10.3281 8.07422 10.5273 7.91016 10.6914C7.74609 10.8555 7.54688 10.9375 7.3125 10.9375C7.07812 10.9375 6.87891 10.8555 6.71484 10.6914C6.55078 10.5273 6.46875 10.3281 6.46875 10.0938C6.46875 9.85938 6.55078 9.66016 6.71484 9.49609C6.87891 9.33203 7.07812 9.25 7.3125 9.25C7.54688 9.25 7.74609 9.33203 7.91016 9.49609C8.07422 9.66016 8.15625 9.85938 8.15625 10.0938ZM11.5312 10.0938C11.5312 10.3281 11.4492 10.5273 11.2852 10.6914C11.1211 10.8555 10.9219 10.9375 10.6875 10.9375C10.4531 10.9375 10.2539 10.8555 10.0898 10.6914C9.92578 10.5273 9.84375 10.3281 9.84375 10.0938C9.84375 9.85938 9.92578 9.66016 10.0898 9.49609C10.2539 9.33203 10.4531 9.25 10.6875 9.25C10.9219 9.25 11.1211 9.33203 11.2852 9.49609C11.4492 9.66016 11.5312 9.85938 11.5312 10.0938Z" fill="#0883D9"/>
</svg>
