<svg width="18" height="18" viewBox="0 0 18 18" fill="none" xmlns="http://www.w3.org/2000/svg">
<path d="M14.6953 2.25C15.1348 2.25 15.5537 2.33789 15.9521 2.51367C16.3506 2.68945 16.7021 2.92969 17.0068 3.23438C17.3115 3.53906 17.5518 3.89062 17.7275 4.28906C17.9033 4.6875 17.9941 5.10938 18 5.55469V12.4453C18 12.8848 17.9121 13.3037 17.7363 13.7021C17.5605 14.1006 17.3203 14.4521 17.0156 14.7568C16.7109 15.0615 16.3594 15.3018 15.9609 15.4775C15.5625 15.6533 15.1406 15.7441 14.6953 15.75H3.30469C2.86523 15.75 2.44629 15.6621 2.04785 15.4863C1.64941 15.3105 1.29785 15.0703 0.993164 14.7656C0.688477 14.4609 0.448242 14.1094 0.272461 13.7109C0.0966797 13.3125 0.00585938 12.8906 0 12.4453V5.55469C0 5.11523 0.0878906 4.69629 0.263672 4.29785C0.439453 3.89941 0.679688 3.54785 0.984375 3.24316C1.28906 2.93848 1.64062 2.69824 2.03906 2.52246C2.4375 2.34668 2.85938 2.25586 3.30469 2.25H14.6953ZM3.33105 3.375C3.03809 3.375 2.75977 3.43359 2.49609 3.55078C2.23242 3.66797 1.99805 3.8291 1.79297 4.03418C1.58789 4.23926 1.42676 4.47363 1.30957 4.7373C1.19238 5.00098 1.13086 5.28223 1.125 5.58105V11.25H16.875V5.58105C16.875 5.28809 16.8164 5.00977 16.6992 4.74609C16.582 4.48242 16.4209 4.24805 16.2158 4.04297C16.0107 3.83789 15.7764 3.67676 15.5127 3.55957C15.249 3.44238 14.9678 3.38086 14.6689 3.375H3.33105ZM14.6689 14.625C14.9619 14.625 15.2402 14.5664 15.5039 14.4492C15.7676 14.332 16.002 14.1709 16.207 13.9658C16.4121 13.7607 16.5732 13.5264 16.6904 13.2627C16.8076 12.999 16.8691 12.7178 16.875 12.4189V12.375H1.125V12.4189C1.125 12.7119 1.18359 12.9902 1.30078 13.2539C1.41797 13.5176 1.5791 13.752 1.78418 13.957C1.98926 14.1621 2.22363 14.3232 2.4873 14.4404C2.75098 14.5576 3.03223 14.6191 3.33105 14.625H14.6689ZM12.9375 12.375C12.7852 12.375 12.6533 12.4307 12.542 12.542C12.4307 12.6533 12.375 12.7852 12.375 12.9375C12.375 13.0898 12.4307 13.2217 12.542 13.333C12.6533 13.4443 12.7852 13.5 12.9375 13.5C13.0898 13.5 13.2217 13.4443 13.333 13.333C13.4443 13.2217 13.5 13.0898 13.5 12.9375C13.5 12.7852 13.4443 12.6533 13.333 12.542C13.2217 12.4307 13.0898 12.375 12.9375 12.375ZM15.1875 12.375C15.0352 12.375 14.9033 12.4307 14.792 12.542C14.6807 12.6533 14.625 12.7852 14.625 12.9375C14.625 13.0898 14.6807 13.2217 14.792 13.333C14.9033 13.4443 15.0352 13.5 15.1875 13.5C15.3398 13.5 15.4717 13.4443 15.583 13.333C15.6943 13.2217 15.75 13.0898 15.75 12.9375C15.75 12.7852 15.6943 12.6533 15.583 12.542C15.4717 12.4307 15.3398 12.375 15.1875 12.375Z" fill="#0883D9"/>
</svg>
