<svg width="18" height="18" viewBox="0 0 18 18" fill="none" xmlns="http://www.w3.org/2000/svg">
<path d="M3.375 6.1875C3.375 5.49023 3.50684 4.83398 3.77051 4.21875C4.03418 3.60352 4.39746 3.06738 4.86035 2.61035C5.32324 2.15332 5.85937 1.79297 6.46875 1.5293C7.07813 1.26562 7.73438 1.13086 8.4375 1.125C8.90039 1.125 9.3457 1.18359 9.77344 1.30078C10.2012 1.41797 10.6055 1.58789 10.9863 1.81055C11.3672 2.0332 11.71 2.2998 12.0146 2.61035C12.3193 2.9209 12.583 3.26367 12.8057 3.63867C13.0283 4.01367 13.1982 4.41504 13.3154 4.84277C13.4326 5.27051 13.4941 5.71875 13.5 6.1875V6.37207C13.5 6.43066 13.4941 6.49512 13.4824 6.56543L12.375 6.37207V6.11719C12.375 5.58398 12.2695 5.08301 12.0586 4.61426C11.8477 4.14551 11.5605 3.73535 11.1973 3.38379C10.834 3.03223 10.415 2.75684 9.94043 2.55762C9.46582 2.3584 8.96484 2.25586 8.4375 2.25C7.91602 2.25 7.41797 2.34961 6.94336 2.54883C6.46875 2.74805 6.0498 3.02637 5.68652 3.38379C5.32324 3.74121 5.03613 4.15137 4.8252 4.61426C4.61426 5.07715 4.50586 5.57813 4.5 6.11719C4.5 6.47461 4.53809 6.81152 4.61426 7.12793C4.69043 7.44434 4.81348 7.76367 4.9834 8.08594H4.89551C4.53223 8.08594 4.16895 8.13574 3.80566 8.23535C3.51855 7.5791 3.375 6.89648 3.375 6.1875ZM10.2129 16.8574C9.9668 16.8574 9.72949 16.8223 9.50098 16.752C9.27246 16.6816 9.06152 16.582 8.86816 16.4531C8.6748 16.3242 8.49316 16.1748 8.32324 16.0049C8.15332 15.835 8.00391 15.6475 7.875 15.4424C7.61719 15.0381 7.33008 14.6748 7.01367 14.3525C6.69727 14.0303 6.33984 13.7314 5.94141 13.4561C5.68359 13.2803 5.42871 13.1338 5.17676 13.0166C4.9248 12.8994 4.66992 12.8027 4.41211 12.7266C4.1543 12.6504 3.8877 12.583 3.6123 12.5244C3.33691 12.4658 3.0498 12.416 2.75098 12.375C2.59863 12.3516 2.47852 12.29 2.39062 12.1904C2.30273 12.0908 2.25586 11.9648 2.25 11.8125C2.25 11.7773 2.25586 11.7305 2.26758 11.6719C2.34375 11.332 2.4668 11.0303 2.63672 10.7666C2.80664 10.5029 3.01172 10.2803 3.25195 10.0986C3.49219 9.91699 3.76172 9.7793 4.06055 9.68555C4.35938 9.5918 4.68457 9.54492 5.03613 9.54492C5.3291 9.54492 5.61621 9.57129 5.89746 9.62402C6.17871 9.67676 6.46289 9.75 6.75 9.84375V5.0625C6.75 4.83398 6.79395 4.61719 6.88184 4.41211C6.96973 4.20703 7.08984 4.02832 7.24219 3.87598C7.39453 3.72363 7.57617 3.60059 7.78711 3.50684C7.99805 3.41309 8.21484 3.36914 8.4375 3.375C8.66602 3.375 8.88281 3.41895 9.08789 3.50684C9.29297 3.59473 9.47168 3.71484 9.62402 3.86719C9.77637 4.01953 9.89941 4.20117 9.99316 4.41211C10.0869 4.62305 10.1309 4.83984 10.125 5.0625V7.40039L13.4297 7.98047C13.7637 8.03906 14.0713 8.15332 14.3525 8.32324C14.6338 8.49316 14.8799 8.70117 15.0908 8.94727C15.3018 9.19336 15.4658 9.46875 15.583 9.77344C15.7002 10.0781 15.7588 10.4033 15.7588 10.749C15.7588 11.0771 15.7002 11.4023 15.583 11.7246L14.4756 14.7305C14.2998 15.2051 14.0215 15.6006 13.6406 15.917C13.2598 16.2334 12.8203 16.4355 12.3223 16.5234L10.6084 16.8223C10.4912 16.8457 10.3594 16.8574 10.2129 16.8574ZM14.6338 10.7578C14.6338 10.5527 14.5986 10.3594 14.5283 10.1777C14.458 9.99609 14.3613 9.8291 14.2383 9.67676C14.1152 9.52441 13.9688 9.39844 13.7988 9.29883C13.6289 9.19922 13.4414 9.12891 13.2363 9.08789L9.46582 8.42871C9.33105 8.40527 9.21973 8.34082 9.13184 8.23535C9.04395 8.12988 9 8.00977 9 7.875V5.0625C9 4.91016 8.94434 4.77832 8.83301 4.66699C8.72168 4.55566 8.58984 4.5 8.4375 4.5C8.28516 4.5 8.15332 4.55566 8.04199 4.66699C7.93066 4.77832 7.875 4.91016 7.875 5.0625V10.6875C7.875 10.8457 7.82227 10.9775 7.7168 11.083C7.61133 11.1885 7.47656 11.2441 7.3125 11.25C7.25977 11.25 7.21582 11.2471 7.18066 11.2412C7.14551 11.2354 7.10449 11.2178 7.05762 11.1885C6.74121 11.042 6.41895 10.9189 6.09082 10.8193C5.7627 10.7197 5.41992 10.6699 5.0625 10.6699C4.75195 10.6699 4.47363 10.7197 4.22754 10.8193C3.98145 10.9189 3.77051 11.1006 3.59473 11.3643C4.71973 11.5693 5.71582 11.959 6.58301 12.5332C7.4502 13.1074 8.19727 13.8779 8.82422 14.8447C8.90039 14.9619 8.98828 15.0732 9.08789 15.1787C9.1875 15.2842 9.29883 15.3779 9.42188 15.46C9.54492 15.542 9.67383 15.6064 9.80859 15.6533C9.94336 15.7002 10.084 15.7266 10.2305 15.7324H10.3271C10.3623 15.7324 10.3945 15.7266 10.4238 15.7148L12.1289 15.416C12.4277 15.3633 12.6914 15.2402 12.9199 15.0469C13.1484 14.8535 13.3154 14.6162 13.4209 14.335L14.5283 11.3379C14.5986 11.1563 14.6338 10.9629 14.6338 10.7578Z" fill="#0883D9"/>
</svg>
