<svg width="16" height="18" viewBox="0 0 16 18" fill="none" xmlns="http://www.w3.org/2000/svg">
<path d="M3.5 4.41211C3.5 3.80273 3.62012 3.23145 3.86035 2.69824C4.10645 2.15918 4.43457 1.69043 4.84473 1.29199C5.26074 0.893555 5.73828 0.580078 6.27734 0.351562C6.82227 0.117187 7.39648 0 8 0C8.62109 0 9.2041 0.117187 9.74902 0.351562C10.2998 0.585938 10.7773 0.908203 11.1816 1.31836C11.5918 1.72266 11.9141 2.2002 12.1484 2.75098C12.3828 3.2959 12.5 3.87891 12.5 4.5C12.5 5.12109 12.3828 5.70703 12.1484 6.25781C11.9141 6.80273 11.5918 7.28027 11.1816 7.69043C10.7773 8.09473 10.2998 8.41406 9.74902 8.64844C9.2041 8.88281 8.62109 9 8 9C7.36133 9 6.7666 8.87988 6.21582 8.63965C5.6709 8.39941 5.19629 8.07129 4.79199 7.65527C4.3877 7.23926 4.07129 6.75293 3.84277 6.19629C3.61426 5.63965 3.5 5.04492 3.5 4.41211ZM11.375 4.42969C11.375 3.97266 11.2842 3.54492 11.1025 3.14648C10.9209 2.74219 10.6748 2.39062 10.3643 2.0918C10.0596 1.79297 9.70215 1.55859 9.29199 1.38867C8.88184 1.21289 8.45117 1.125 8 1.125C7.53125 1.125 7.0918 1.21289 6.68164 1.38867C6.27148 1.56445 5.91406 1.80469 5.60938 2.10938C5.30469 2.41406 5.06445 2.77148 4.88867 3.18164C4.71289 3.5918 4.625 4.03125 4.625 4.5C4.625 4.96875 4.71289 5.4082 4.88867 5.81836C5.06445 6.22852 5.30469 6.58594 5.60938 6.89062C5.91406 7.19531 6.27148 7.43555 6.68164 7.61133C7.0918 7.78711 7.53125 7.875 8 7.875C8.48047 7.875 8.92578 7.78711 9.33594 7.61133C9.75195 7.42969 10.1094 7.18359 10.4082 6.87305C10.7129 6.55664 10.9502 6.19043 11.1201 5.77441C11.29 5.35254 11.375 4.9043 11.375 4.42969ZM0.125 12.375C0.125 12.0762 0.183594 11.792 0.300781 11.5225C0.417969 11.2471 0.576172 11.0068 0.775391 10.8018C0.974609 10.5967 1.20605 10.4326 1.46973 10.3096C1.73926 10.1865 2.02637 10.125 2.33105 10.125H13.625C13.9238 10.125 14.208 10.1836 14.4775 10.3008C14.7529 10.418 14.9932 10.5762 15.1982 10.7754C15.4033 10.9746 15.5674 11.209 15.6904 11.4785C15.8135 11.7422 15.875 12.0264 15.875 12.3311C15.875 13.0518 15.7637 13.6934 15.541 14.2559C15.3184 14.8184 15.0166 15.3105 14.6357 15.7324C14.2549 16.1484 13.8066 16.5029 13.291 16.7959C12.7812 17.083 12.2334 17.3174 11.6475 17.499C11.0674 17.6748 10.4639 17.8037 9.83691 17.8857C9.21582 17.9619 8.60352 18 8 18C7.41992 18 6.84277 17.9707 6.26855 17.9121C5.69434 17.8477 5.12891 17.7363 4.57227 17.5781C3.93945 17.3965 3.35059 17.1533 2.80566 16.8486C2.2666 16.5439 1.79785 16.1777 1.39941 15.75C1.00098 15.3164 0.6875 14.8213 0.458984 14.2646C0.236328 13.7021 0.125 13.0723 0.125 12.375ZM14.75 12.375C14.75 12.2227 14.7207 12.0791 14.6621 11.9443C14.6035 11.8037 14.5215 11.6836 14.416 11.584C14.3164 11.4785 14.1963 11.3965 14.0557 11.3379C13.9209 11.2793 13.7773 11.25 13.625 11.25H2.375C2.2168 11.25 2.07031 11.2793 1.93555 11.3379C1.80078 11.3965 1.68066 11.4785 1.5752 11.584C1.47559 11.6836 1.39648 11.8008 1.33789 11.9355C1.2793 12.0703 1.25 12.2168 1.25 12.375C1.25 12.9785 1.34961 13.5088 1.54883 13.9658C1.74805 14.417 2.01758 14.8096 2.35742 15.1436C2.69727 15.4775 3.08984 15.7559 3.53516 15.9785C3.98633 16.2012 4.46094 16.3799 4.95898 16.5146C5.46289 16.6436 5.97559 16.7373 6.49707 16.7959C7.01855 16.8486 7.51953 16.875 8 16.875C8.48047 16.875 8.98145 16.8486 9.50293 16.7959C10.0244 16.7373 10.5342 16.6436 11.0322 16.5146C11.5361 16.3799 12.0107 16.2012 12.4561 15.9785C12.9072 15.7559 13.3027 15.4775 13.6426 15.1436C13.9824 14.8096 14.252 14.4141 14.4512 13.957C14.6504 13.5 14.75 12.9727 14.75 12.375Z" fill="#0883D9"/>
</svg>
