<svg width="17" height="14" viewBox="0 0 17 14" fill="none" xmlns="http://www.w3.org/2000/svg">
<path d="M14.625 1.375H14.6689C14.9619 1.375 15.2402 1.43652 15.5039 1.55957C15.7734 1.67676 16.0078 1.83789 16.207 2.04297C16.4121 2.24219 16.5732 2.47656 16.6904 2.74609C16.8135 3.00977 16.875 3.28809 16.875 3.58105V10.4189C16.875 10.7061 16.8164 10.9844 16.6992 11.2539C16.582 11.5176 16.4209 11.752 16.2158 11.957C16.0166 12.1562 15.7852 12.3174 15.5215 12.4404C15.2578 12.5635 14.9824 12.625 14.6953 12.625H14.625V12.9238C14.625 13.0234 14.6191 13.123 14.6074 13.2227C14.5957 13.3164 14.5693 13.4043 14.5283 13.4863C14.4932 13.5625 14.4375 13.627 14.3613 13.6797C14.291 13.7266 14.1914 13.75 14.0625 13.75C13.9336 13.75 13.8311 13.7266 13.7549 13.6797C13.6787 13.627 13.6201 13.5625 13.5791 13.4863C13.5439 13.4043 13.5205 13.3164 13.5088 13.2227C13.4971 13.123 13.4912 13.0234 13.4912 12.9238C13.4912 12.8711 13.4912 12.8213 13.4912 12.7744C13.4971 12.7217 13.5 12.6719 13.5 12.625H12.375V12.9238C12.375 13.0234 12.3691 13.123 12.3574 13.2227C12.3457 13.3164 12.3193 13.4043 12.2783 13.4863C12.2432 13.5625 12.1875 13.627 12.1113 13.6797C12.041 13.7266 11.9414 13.75 11.8125 13.75C11.6836 13.75 11.5811 13.7266 11.5049 13.6797C11.4287 13.627 11.3701 13.5625 11.3291 13.4863C11.2939 13.4043 11.2705 13.3164 11.2588 13.2227C11.2471 13.123 11.2412 13.0234 11.2412 12.9238C11.2412 12.8711 11.2412 12.8213 11.2412 12.7744C11.2471 12.7217 11.25 12.6719 11.25 12.625H10.125V12.9238C10.125 13.0234 10.1191 13.123 10.1074 13.2227C10.0957 13.3164 10.0693 13.4043 10.0283 13.4863C9.99316 13.5625 9.9375 13.627 9.86133 13.6797C9.79102 13.7266 9.69141 13.75 9.5625 13.75C9.43359 13.75 9.33105 13.7266 9.25488 13.6797C9.17871 13.627 9.12012 13.5625 9.0791 13.4863C9.04395 13.4043 9.02051 13.3164 9.00879 13.2227C8.99707 13.123 8.99121 13.0234 8.99121 12.9238C8.99121 12.8711 8.99121 12.8213 8.99121 12.7744C8.99707 12.7217 9 12.6719 9 12.625H7.875V12.9238C7.875 13.0234 7.86914 13.123 7.85742 13.2227C7.8457 13.3164 7.81934 13.4043 7.77832 13.4863C7.74316 13.5625 7.6875 13.627 7.61133 13.6797C7.54102 13.7266 7.44141 13.75 7.3125 13.75C7.18359 13.75 7.08105 13.7266 7.00488 13.6797C6.92871 13.627 6.87012 13.5625 6.8291 13.4863C6.79395 13.4043 6.77051 13.3164 6.75879 13.2227C6.74707 13.123 6.74121 13.0234 6.74121 12.9238C6.74121 12.8711 6.74121 12.8213 6.74121 12.7744C6.74707 12.7217 6.75 12.6719 6.75 12.625H5.625V12.9238C5.625 13.0234 5.61914 13.123 5.60742 13.2227C5.5957 13.3164 5.56934 13.4043 5.52832 13.4863C5.49316 13.5625 5.4375 13.627 5.36133 13.6797C5.29102 13.7266 5.19141 13.75 5.0625 13.75C4.93359 13.75 4.83105 13.7266 4.75488 13.6797C4.67871 13.627 4.62012 13.5625 4.5791 13.4863C4.54395 13.4043 4.52051 13.3164 4.50879 13.2227C4.49707 13.123 4.49121 13.0234 4.49121 12.9238C4.49121 12.8711 4.49121 12.8213 4.49121 12.7744C4.49707 12.7217 4.5 12.6719 4.5 12.625H3.375V12.9238C3.375 13.0234 3.36914 13.123 3.35742 13.2227C3.3457 13.3164 3.31934 13.4043 3.27832 13.4863C3.24316 13.5625 3.1875 13.627 3.11133 13.6797C3.04102 13.7266 2.94141 13.75 2.8125 13.75C2.68359 13.75 2.58105 13.7266 2.50488 13.6797C2.42871 13.627 2.37012 13.5625 2.3291 13.4863C2.29395 13.4043 2.27051 13.3164 2.25879 13.2227C2.24707 13.123 2.24121 13.0234 2.24121 12.9238C2.24121 12.8711 2.24121 12.8213 2.24121 12.7744C2.24707 12.7217 2.25 12.6719 2.25 12.625H2.20605C1.91309 12.625 1.63184 12.5664 1.3623 12.4492C1.09863 12.3262 0.864258 12.165 0.65918 11.9658C0.459961 11.7607 0.298828 11.5264 0.175781 11.2627C0.0585938 10.9932 0 10.7119 0 10.4189V3.58105C0 3.29395 0.0585938 3.01855 0.175781 2.75488C0.292969 2.49121 0.451172 2.25684 0.650391 2.05176C0.855469 1.84668 1.08691 1.68262 1.34473 1.55957C1.6084 1.43652 1.88672 1.375 2.17969 1.375H2.25C2.25 1.32813 2.24707 1.28125 2.24121 1.23438C2.24121 1.18164 2.24121 1.12891 2.24121 1.07617C2.24121 0.976563 2.24707 0.879883 2.25879 0.786133C2.27051 0.686523 2.29395 0.598633 2.3291 0.522461C2.37012 0.44043 2.42871 0.375977 2.50488 0.329102C2.58105 0.276367 2.68359 0.25 2.8125 0.25C2.94141 0.25 3.04102 0.276367 3.11133 0.329102C3.1875 0.375977 3.24316 0.44043 3.27832 0.522461C3.31934 0.598633 3.3457 0.686523 3.35742 0.786133C3.36914 0.879883 3.375 0.976563 3.375 1.07617V1.375H4.5C4.5 1.32813 4.49707 1.28125 4.49121 1.23438C4.49121 1.18164 4.49121 1.12891 4.49121 1.07617C4.49121 0.976563 4.49707 0.879883 4.50879 0.786133C4.52051 0.686523 4.54395 0.598633 4.5791 0.522461C4.62012 0.44043 4.67871 0.375977 4.75488 0.329102C4.83105 0.276367 4.93359 0.25 5.0625 0.25C5.19141 0.25 5.29102 0.276367 5.36133 0.329102C5.4375 0.375977 5.49316 0.44043 5.52832 0.522461C5.56934 0.598633 5.5957 0.686523 5.60742 0.786133C5.61914 0.879883 5.625 0.976563 5.625 1.07617V1.375H6.75C6.75 1.32813 6.74707 1.28125 6.74121 1.23438C6.74121 1.18164 6.74121 1.12891 6.74121 1.07617C6.74121 0.976563 6.74707 0.879883 6.75879 0.786133C6.77051 0.686523 6.79395 0.598633 6.8291 0.522461C6.87012 0.44043 6.92871 0.375977 7.00488 0.329102C7.08105 0.276367 7.18359 0.25 7.3125 0.25C7.44141 0.25 7.54102 0.276367 7.61133 0.329102C7.6875 0.375977 7.74316 0.44043 7.77832 0.522461C7.81934 0.598633 7.8457 0.686523 7.85742 0.786133C7.86914 0.879883 7.875 0.976563 7.875 1.07617V1.375H9C9 1.32813 8.99707 1.28125 8.99121 1.23438C8.99121 1.18164 8.99121 1.12891 8.99121 1.07617C8.99121 0.976563 8.99707 0.879883 9.00879 0.786133C9.02051 0.686523 9.04395 0.598633 9.0791 0.522461C9.12012 0.44043 9.17871 0.375977 9.25488 0.329102C9.33105 0.276367 9.43359 0.25 9.5625 0.25C9.69141 0.25 9.79102 0.276367 9.86133 0.329102C9.9375 0.375977 9.99316 0.44043 10.0283 0.522461C10.0693 0.598633 10.0957 0.686523 10.1074 0.786133C10.1191 0.879883 10.125 0.976563 10.125 1.07617V1.375H11.25C11.25 1.32813 11.2471 1.28125 11.2412 1.23438C11.2412 1.18164 11.2412 1.12891 11.2412 1.07617C11.2412 0.976563 11.2471 0.879883 11.2588 0.786133C11.2705 0.686523 11.2939 0.598633 11.3291 0.522461C11.3701 0.44043 11.4287 0.375977 11.5049 0.329102C11.5811 0.276367 11.6836 0.25 11.8125 0.25C11.9414 0.25 12.041 0.276367 12.1113 0.329102C12.1875 0.375977 12.2432 0.44043 12.2783 0.522461C12.3193 0.598633 12.3457 0.686523 12.3574 0.786133C12.3691 0.879883 12.375 0.976563 12.375 1.07617V1.375H13.5C13.5 1.32813 13.4971 1.28125 13.4912 1.23438C13.4912 1.18164 13.4912 1.12891 13.4912 1.07617C13.4912 0.976563 13.4971 0.879883 13.5088 0.786133C13.5205 0.686523 13.5439 0.598633 13.5791 0.522461C13.6201 0.44043 13.6787 0.375977 13.7549 0.329102C13.8311 0.276367 13.9336 0.25 14.0625 0.25C14.1914 0.25 14.291 0.276367 14.3613 0.329102C14.4375 0.375977 14.4932 0.44043 14.5283 0.522461C14.5693 0.598633 14.5957 0.686523 14.6074 0.786133C14.6191 0.879883 14.625 0.976563 14.625 1.07617V1.375ZM15.75 3.625C15.75 3.47266 15.7207 3.3291 15.6621 3.19434C15.6035 3.05371 15.5215 2.93359 15.416 2.83398C15.3164 2.72852 15.1963 2.64648 15.0557 2.58789C14.9209 2.5293 14.7773 2.5 14.625 2.5H2.25C2.0918 2.5 1.94531 2.5293 1.81055 2.58789C1.67578 2.64648 1.55566 2.72852 1.4502 2.83398C1.35059 2.93359 1.27148 3.05078 1.21289 3.18555C1.1543 3.32031 1.125 3.4668 1.125 3.625V10.375C1.125 10.5332 1.1543 10.6826 1.21289 10.8232C1.27148 10.958 1.35059 11.0752 1.4502 11.1748C1.5498 11.2744 1.66699 11.3535 1.80176 11.4121C1.94238 11.4707 2.0918 11.5 2.25 11.5H14.625C14.7832 11.5 14.9297 11.4707 15.0645 11.4121C15.1992 11.3535 15.3164 11.2744 15.416 11.1748C15.5215 11.0693 15.6035 10.9492 15.6621 10.8145C15.7207 10.6797 15.75 10.5332 15.75 10.375V3.625ZM14.0625 3.625C14.2148 3.625 14.3467 3.68066 14.458 3.79199C14.5693 3.90332 14.625 4.03516 14.625 4.1875V9.8125C14.625 9.96484 14.5693 10.0967 14.458 10.208C14.3467 10.3193 14.2148 10.375 14.0625 10.375H2.8125C2.66016 10.375 2.52832 10.3193 2.41699 10.208C2.30566 10.0967 2.25 9.96484 2.25 9.8125V4.1875C2.25 4.03516 2.30566 3.90332 2.41699 3.79199C2.52832 3.68066 2.66016 3.625 2.8125 3.625H14.0625ZM3.375 9.25H13.5V4.75H3.375V9.25Z" fill="#0883D9"/>
</svg>
