<svg width="276" height="93" viewBox="0 0 276 93" fill="none" xmlns="http://www.w3.org/2000/svg">
<g opacity="0.5">
<g filter="url(#filter0_dd_146_234)">
<rect x="17" y="2" width="255" height="85" rx="12" fill="#F5F5F5" shape-rendering="crispEdges"/>
<path d="M144.547 15.7656C148.109 15.7656 151.672 16.2656 155.234 17.2656C158.797 18.2344 162.156 19.6406 165.312 21.4844C168.469 23.3281 171.328 25.5625 173.891 28.1875C176.484 30.7812 178.609 33.6875 180.266 36.9062C180.453 37.3125 180.609 37.7188 180.734 38.125C180.859 38.5312 180.922 38.9531 180.922 39.3906C180.922 40.1719 180.781 40.8906 180.5 41.5469C180.219 42.1719 179.828 42.7188 179.328 43.1875C178.828 43.625 178.25 43.9688 177.594 44.2188C176.938 44.4688 176.234 44.5938 175.484 44.5938C174.516 44.5938 173.688 44.3438 173 43.8438C172.312 43.3125 171.719 42.6719 171.219 41.9219C170.812 41.2969 170.422 40.6719 170.047 40.0469C169.672 39.4219 169.266 38.8125 168.828 38.2188C167.422 36.3125 165.797 34.6094 163.953 33.1094C162.141 31.6094 160.188 30.3438 158.094 29.3125C156.031 28.25 153.844 27.4531 151.531 26.9219C149.25 26.3594 146.922 26.0781 144.547 26.0781C141.953 26.0781 139.422 26.4062 136.953 27.0625C134.484 27.6875 132.141 28.6094 129.922 29.8281C127.734 31.0469 125.703 32.5312 123.828 34.2812C121.953 36 120.312 37.9531 118.906 40.1406C118.688 40.4844 118.5 40.8125 118.344 41.125C118.188 41.4062 118 41.7188 117.781 42.0625C117.312 42.8438 116.688 43.4688 115.906 43.9375C115.125 44.375 114.281 44.5938 113.375 44.5938C112.656 44.5938 111.984 44.4531 111.359 44.1719C110.734 43.8906 110.188 43.5156 109.719 43.0469C109.25 42.5781 108.875 42.0312 108.594 41.4062C108.312 40.7812 108.172 40.1094 108.172 39.3906C108.172 38.5469 108.391 37.7188 108.828 36.9062C110.641 33.625 112.812 30.6875 115.344 28.0938C117.906 25.4688 120.719 23.25 123.781 21.4375C126.875 19.5938 130.172 18.1875 133.672 17.2188C137.172 16.25 140.797 15.7656 144.547 15.7656ZM144.547 41.5938C146.609 41.5938 148.547 41.9844 150.359 42.7656C152.172 43.5469 153.75 44.625 155.094 46C156.438 47.3438 157.5 48.9219 158.281 50.7344C159.062 52.5469 159.453 54.4844 159.453 56.5469C159.453 58.6406 159.047 60.5938 158.234 62.4062C157.453 64.2188 156.375 65.7969 155 67.1406C153.656 68.4844 152.078 69.5469 150.266 70.3281C148.453 71.1094 146.516 71.5 144.453 71.5C142.359 71.5 140.406 71.1094 138.594 70.3281C136.812 69.5469 135.25 68.4844 133.906 67.1406C132.594 65.7656 131.547 64.1719 130.766 62.3594C130.016 60.5156 129.641 58.5625 129.641 56.5C129.641 54.4375 130.031 52.5156 130.812 50.7344C131.594 48.9219 132.656 47.3438 134 46C135.375 44.625 136.953 43.5469 138.734 42.7656C140.547 41.9844 142.484 41.5938 144.547 41.5938Z" fill="#0078D4"/>
</g>
<circle cx="17" cy="36" r="17" fill="#0078D4"/>
<path d="M19.3284 28.9167V43.1138H17.0816V31.667C16.6749 31.9575 16.2359 32.2061 15.7646 32.4127C15.2997 32.6128 14.7671 32.7904 14.1667 32.9453V31.0279C14.5411 30.9052 14.9027 30.7761 15.2513 30.6405C15.5999 30.5049 15.9421 30.3532 16.2778 30.1853C16.62 30.0175 16.9622 29.8302 17.3044 29.6236C17.653 29.417 18.0113 29.1814 18.3793 28.9167H19.3284Z" fill="white"/>
</g>
<defs>
<filter id="filter0_dd_146_234" x="13" y="0" width="263" height="93" filterUnits="userSpaceOnUse" color-interpolation-filters="sRGB">
<feFlood flood-opacity="0" result="BackgroundImageFix"/>
<feColorMatrix in="SourceAlpha" type="matrix" values="0 0 0 0 0 0 0 0 0 0 0 0 0 0 0 0 0 0 127 0" result="hardAlpha"/>
<feOffset/>
<feGaussianBlur stdDeviation="1"/>
<feComposite in2="hardAlpha" operator="out"/>
<feColorMatrix type="matrix" values="0 0 0 0 0 0 0 0 0 0 0 0 0 0 0 0 0 0 0.12 0"/>
<feBlend mode="normal" in2="BackgroundImageFix" result="effect1_dropShadow_146_234"/>
<feColorMatrix in="SourceAlpha" type="matrix" values="0 0 0 0 0 0 0 0 0 0 0 0 0 0 0 0 0 0 127 0" result="hardAlpha"/>
<feOffset dy="2"/>
<feGaussianBlur stdDeviation="2"/>
<feComposite in2="hardAlpha" operator="out"/>
<feColorMatrix type="matrix" values="0 0 0 0 0 0 0 0 0 0 0 0 0 0 0 0 0 0 0.14 0"/>
<feBlend mode="normal" in2="effect1_dropShadow_146_234" result="effect2_dropShadow_146_234"/>
<feBlend mode="normal" in="SourceGraphic" in2="effect2_dropShadow_146_234" result="shape"/>
</filter>
</defs>
</svg>
