<svg width="276" height="93" viewBox="0 0 276 93" fill="none" xmlns="http://www.w3.org/2000/svg">
<g opacity="0.5">
<g filter="url(#filter0_dd_146_240)">
<rect x="17" y="2" width="255" height="85" rx="12" fill="#F5F5F5" shape-rendering="crispEdges"/>
<path d="M142.125 61.4167V63.8333C142.125 65.168 141.062 66.25 139.75 66.25H135V68.6667C135 71.336 132.873 73.5 130.25 73.5H120.75C118.127 73.5 116 71.336 116 68.6667V62.4177C116 61.1358 116.5 59.9064 117.391 59L135.77 40.2984C135.269 38.5633 135 36.7285 135 34.8333C135 24.1558 143.507 15.5 154 15.5C164.493 15.5 173 24.1558 173 34.8333C173 45.5108 164.493 54.1667 154 54.1667H149.25V59C149.25 60.3347 148.187 61.4167 146.875 61.4167H142.125ZM158.75 34.8333C161.373 34.8333 163.5 32.6694 163.5 30C163.5 27.3306 161.373 25.1667 158.75 25.1667C156.127 25.1667 154 27.3306 154 30C154 32.6694 156.127 34.8333 158.75 34.8333Z" fill="#0078D4"/>
</g>
<circle cx="17" cy="36" r="17" fill="#0078D4"/>
<path d="M21.4658 43.0363H12.75V41.9614C12.75 41.5223 12.8113 41.1124 12.934 40.7315C13.0567 40.3441 13.2213 39.9826 13.4279 39.6468C13.6345 39.3047 13.8766 38.9851 14.1542 38.6881C14.4318 38.3847 14.7288 38.0941 15.0452 37.8165C15.3615 37.5324 15.6843 37.2613 16.0136 37.003C16.3429 36.7383 16.6657 36.4736 16.982 36.2089C17.279 35.9571 17.5502 35.7118 17.7955 35.4729C18.0408 35.2276 18.2507 34.9758 18.425 34.7175C18.5993 34.4593 18.7349 34.1881 18.8317 33.9041C18.9285 33.6135 18.977 33.3004 18.977 32.9647C18.977 32.5967 18.9189 32.2771 18.8027 32.006C18.6929 31.7283 18.5347 31.4992 18.3281 31.3184C18.128 31.1312 17.8891 30.9923 17.6115 30.902C17.3339 30.8051 17.0304 30.7567 16.7012 30.7567C16.133 30.7567 15.5552 30.889 14.9677 31.1537C14.3802 31.4185 13.8153 31.8155 13.2729 32.3449V30.1853C13.557 29.9723 13.8443 29.7883 14.1348 29.6333C14.4254 29.4719 14.7256 29.3396 15.0355 29.2363C15.3454 29.1265 15.6714 29.0458 16.0136 28.9942C16.3558 28.9425 16.7205 28.9167 17.1079 28.9167C17.7342 28.9167 18.3023 29.0006 18.8123 29.1685C19.3224 29.3299 19.7582 29.572 20.1197 29.8948C20.4813 30.2111 20.7589 30.6082 20.9526 31.086C21.1527 31.5637 21.2528 32.1125 21.2528 32.7323C21.2528 33.294 21.1817 33.8008 21.0397 34.2527C20.9041 34.6982 20.7072 35.1146 20.449 35.502C20.1972 35.8893 19.8905 36.2573 19.529 36.606C19.1674 36.9546 18.7639 37.3129 18.3184 37.6809C17.944 37.9844 17.5695 38.2814 17.1951 38.5719C16.8271 38.8559 16.4946 39.1368 16.1976 39.4144C15.9006 39.6856 15.6585 39.96 15.4713 40.2376C15.2905 40.5087 15.2001 40.7831 15.2001 41.0607V41.1092H21.4658V43.0363Z" fill="white"/>
</g>
<defs>
<filter id="filter0_dd_146_240" x="13" y="0" width="263" height="93" filterUnits="userSpaceOnUse" color-interpolation-filters="sRGB">
<feFlood flood-opacity="0" result="BackgroundImageFix"/>
<feColorMatrix in="SourceAlpha" type="matrix" values="0 0 0 0 0 0 0 0 0 0 0 0 0 0 0 0 0 0 127 0" result="hardAlpha"/>
<feOffset/>
<feGaussianBlur stdDeviation="1"/>
<feComposite in2="hardAlpha" operator="out"/>
<feColorMatrix type="matrix" values="0 0 0 0 0 0 0 0 0 0 0 0 0 0 0 0 0 0 0.12 0"/>
<feBlend mode="normal" in2="BackgroundImageFix" result="effect1_dropShadow_146_240"/>
<feColorMatrix in="SourceAlpha" type="matrix" values="0 0 0 0 0 0 0 0 0 0 0 0 0 0 0 0 0 0 127 0" result="hardAlpha"/>
<feOffset dy="2"/>
<feGaussianBlur stdDeviation="2"/>
<feComposite in2="hardAlpha" operator="out"/>
<feColorMatrix type="matrix" values="0 0 0 0 0 0 0 0 0 0 0 0 0 0 0 0 0 0 0.14 0"/>
<feBlend mode="normal" in2="effect1_dropShadow_146_240" result="effect2_dropShadow_146_240"/>
<feBlend mode="normal" in="SourceGraphic" in2="effect2_dropShadow_146_240" result="shape"/>
</filter>
</defs>
</svg>
