<svg width="276" height="93" viewBox="0 0 276 93" fill="none" xmlns="http://www.w3.org/2000/svg">
<g filter="url(#filter0_dd_126_58)">
<rect x="17" y="2" width="255" height="85" rx="12" fill="#F5F5F5" shape-rendering="crispEdges"/>
<path d="M131.264 22.9776C134.855 20.9339 139.927 19.8967 145.233 20.1063C150.529 20.3153 155.793 21.7558 159.767 24.3776C160.833 25.0807 162.275 24.7985 162.988 23.7473C163.701 22.696 163.414 21.2739 162.349 20.5708C157.51 17.3787 151.365 15.7648 145.419 15.5301C139.485 15.2959 133.486 16.4256 128.943 19.0106C127.833 19.6426 127.452 21.0429 128.093 22.1384C128.733 23.2338 130.153 23.6096 131.264 22.9776ZM147.452 24.3404C146.183 24.1645 145.009 25.0372 144.83 26.2896C144.652 27.542 145.537 28.6998 146.807 28.8757C155.614 30.0954 160.844 35.0273 163.993 40.0891C167.179 45.2111 168.173 50.3958 168.385 51.7274C168.583 52.9768 169.771 53.8311 171.037 53.6355C172.304 53.4399 173.17 52.2684 172.972 51.0189C172.717 49.4116 171.594 43.5512 167.95 37.694C164.269 31.7767 157.959 25.7955 147.452 24.3404ZM136.807 40.3748C131.143 44.8737 127.798 54.6086 133.943 67.1676C134.501 68.3065 134.016 69.6755 132.862 70.2252C131.707 70.7749 130.319 70.2972 129.762 69.1583C122.879 55.0931 126.213 42.9099 133.895 36.8078C137.695 33.7888 142.503 32.3421 147.375 33.031C152.267 33.7227 157.004 36.5343 160.733 41.6313C161.483 42.6569 161.249 44.0882 160.209 44.8282C159.169 45.5683 157.718 45.3368 156.968 44.3113C153.877 40.086 150.201 38.0573 146.716 37.5645C143.211 37.0688 139.679 38.0933 136.807 40.3748ZM144.001 70.2079C140.173 62.4473 139.064 55.9616 139.788 51.7298C140.146 49.6365 140.919 48.2594 141.842 47.4522C142.724 46.6818 143.967 46.231 145.751 46.3978C148.152 46.6224 149.217 47.3829 149.863 48.2314C150.64 49.25 151.076 50.7122 151.575 52.9205C151.636 53.1902 151.697 53.4675 151.759 53.7517C152.67 57.8878 153.898 63.4677 159.649 67.7861C160.669 68.5522 162.126 68.3574 162.902 67.3511C163.679 66.3448 163.482 64.9081 162.461 64.1421C158.104 60.8701 157.2 56.8189 156.264 52.6281L156.264 52.6248C156.212 52.3921 156.159 52.1581 156.107 51.9246C155.63 49.816 155.037 47.3978 153.574 45.4792C151.982 43.3906 149.599 42.1573 146.189 41.8385C143.32 41.5702 140.745 42.2921 138.763 44.0244C136.823 45.72 135.687 48.1758 135.209 50.9679C134.262 56.507 135.777 64.0021 139.825 72.2112C140.386 73.3485 141.775 73.822 142.928 73.2688C144.081 72.7156 144.561 71.3452 144.001 70.2079ZM125.63 24.5916C126.496 25.5242 126.432 26.9727 125.486 27.8269C122.651 30.3888 120.887 33.2312 120.342 34.1812C119.709 35.2814 118.292 35.6677 117.177 35.044C116.062 34.4203 115.67 33.0228 116.302 31.9226C116.969 30.7629 119.013 27.4647 122.35 24.4497C123.296 23.5955 124.764 23.659 125.63 24.5916ZM164.116 51.3272C163.878 50.0844 162.664 49.2667 161.404 49.5009C160.144 49.7351 159.315 50.9324 159.553 52.1752C160.419 56.7093 162.544 60.4986 166.418 62.859C167.509 63.5236 168.939 63.1901 169.613 62.1142C170.287 61.0382 169.949 59.6272 168.858 58.9626C166.374 57.4494 164.808 54.9546 164.116 51.3272ZM145.031 51.3711C146.308 51.2654 147.431 52.2013 147.538 53.4616C148.238 61.692 152.402 66.8915 153.542 68.171C154.389 69.1209 154.294 70.5678 153.331 71.4027C152.368 72.2375 150.901 72.1442 150.055 71.1943C148.562 69.5189 143.726 63.4248 142.911 53.8445C142.804 52.5842 143.753 51.4769 145.031 51.3711ZM138.764 29.5908C139.941 29.0875 140.481 27.739 139.97 26.5788C139.46 25.4185 138.093 24.8859 136.917 25.3891C126.292 29.9345 121.425 37.6759 119.323 44.6462C117.245 51.5336 117.855 57.6635 118.076 59.3094C118.244 60.5632 119.41 61.4452 120.681 61.2796C121.953 61.1139 122.847 59.9632 122.679 58.7094C122.499 57.3663 121.96 51.9637 123.773 45.9523C125.561 40.0237 129.627 33.5 138.764 29.5908Z" fill="#0078D4"/>
</g>
<circle cx="17" cy="36" r="17" fill="#0078D4"/>
<path d="M12.75 42.523V40.4119C13.6539 41.1285 14.6739 41.4868 15.8102 41.4868C16.7335 41.4868 17.4695 41.277 18.0182 40.8573C18.5735 40.4377 18.8511 39.8695 18.8511 39.1529C18.8511 37.5776 17.647 36.7899 15.2389 36.7899H14.1639V34.9887H15.1904C17.3274 34.9887 18.3959 34.2462 18.3959 32.7613C18.3959 31.3926 17.5631 30.7082 15.8974 30.7082C14.9677 30.7082 14.0929 31.0407 13.2729 31.7057V29.7108C14.2155 29.1814 15.3292 28.9167 16.614 28.9167C17.8471 28.9167 18.8349 29.2266 19.5774 29.8463C20.3199 30.4661 20.6911 31.2602 20.6911 32.2287C20.6911 34.0558 19.7614 35.2308 17.902 35.7537V35.7925C18.9027 35.8893 19.6936 36.2412 20.2747 36.8481C20.8557 37.4485 21.1462 38.2006 21.1462 39.1045C21.1462 40.3505 20.6782 41.3577 19.742 42.126C18.8059 42.8878 17.5728 43.2687 16.0426 43.2687C14.6675 43.2687 13.5699 43.0201 12.75 42.523Z" fill="white"/>
<defs>
<filter id="filter0_dd_126_58" x="13" y="0" width="263" height="93" filterUnits="userSpaceOnUse" color-interpolation-filters="sRGB">
<feFlood flood-opacity="0" result="BackgroundImageFix"/>
<feColorMatrix in="SourceAlpha" type="matrix" values="0 0 0 0 0 0 0 0 0 0 0 0 0 0 0 0 0 0 127 0" result="hardAlpha"/>
<feOffset/>
<feGaussianBlur stdDeviation="1"/>
<feComposite in2="hardAlpha" operator="out"/>
<feColorMatrix type="matrix" values="0 0 0 0 0 0 0 0 0 0 0 0 0 0 0 0 0 0 0.12 0"/>
<feBlend mode="normal" in2="BackgroundImageFix" result="effect1_dropShadow_126_58"/>
<feColorMatrix in="SourceAlpha" type="matrix" values="0 0 0 0 0 0 0 0 0 0 0 0 0 0 0 0 0 0 127 0" result="hardAlpha"/>
<feOffset dy="2"/>
<feGaussianBlur stdDeviation="2"/>
<feComposite in2="hardAlpha" operator="out"/>
<feColorMatrix type="matrix" values="0 0 0 0 0 0 0 0 0 0 0 0 0 0 0 0 0 0 0.14 0"/>
<feBlend mode="normal" in2="effect1_dropShadow_126_58" result="effect2_dropShadow_126_58"/>
<feBlend mode="normal" in="SourceGraphic" in2="effect2_dropShadow_126_58" result="shape"/>
</filter>
</defs>
</svg>
