<svg width="23" height="18" viewBox="0 0 23 18" fill="none" xmlns="http://www.w3.org/2000/svg">
<path d="M12.1765 4.95652C4.06797 4.95652 0.612026 12.142 0.075389 16.7653C-0.00353202 17.4453 0.554901 18 1.23941 18C1.64906 18 2.02782 17.7943 2.29023 17.4797C3.74102 15.7406 7.18941 13.0435 12.1765 13.0435V16.6419C12.1765 17.3919 12.7845 18 13.5346 18C13.879 18 14.2105 17.8692 14.4621 17.634L22.5236 10.0976C22.8275 9.81344 23 9.41603 23 9C23 8.58397 22.8275 8.18656 22.5236 7.90245L14.4621 0.366026C14.2105 0.130834 13.879 0 13.5346 0C12.7845 0 12.1765 0.608061 12.1765 1.35814V4.95652Z" fill="#0883D9"/>
</svg>
