<svg xmlns="http://www.w3.org/2000/svg" width="18" height="18" viewBox="0 0 2048 2048">
  <path d="M1544 128q75 0 143 30t120 82 82 120 31 144v328q0 26-19 45t-45 19q-26 0-45-19t-19-45V507q0-50-20-95t-55-80-80-55-96-21H346q16 15 27 28t11 36q0 26-19 45t-45 19q-26 0-45-19L147 237q-19-19-19-45t19-45L275 19q19-19 45-19t45 19 19 45q0 23-11 36t-27 28h1198zm-57 896q0 24 22 43t50 39 50 46 23 63q0 21-12 51t-30 61-37 59-33 44q-31 37-79 37-20 0-42-8t-44-17-41-17-35-8q-15 0-24 6t-14 15-8 20-5 24l-17 91q-6 34-25 52t-45 27-55 10-57 2h-5q-27 0-58-1t-58-11-47-28-26-53l-20-116q-2-14-14-26t-28-12q-20 0-40 7t-42 17-43 17-43 8q-50 0-80-37-14-16-32-43t-35-59-29-61-12-52q0-39 22-64t50-45 49-38 23-43q0-25-22-43t-50-39-50-45-23-64q0-22 12-52t30-60 37-58 33-45q31-37 79-37 20 0 42 7t43 17 40 17 36 8q21 0 32-11t16-30 8-41 7-46 11-45 24-38q12-12 29-19t37-10 40-5 39-1h15q27 0 57 1t58 11 46 28 26 53l20 116q3 18 16 27t31 10q17 0 37-7t41-17 42-17 42-8q23 0 44 10t36 28q14 17 32 44t36 58 29 61 12 52q0 39-22 64t-50 45-49 38-23 43zm-128 0q0-37 12-64t31-50 45-42 52-42q-13-30-29-58t-36-54q-36 13-76 29t-80 16q-24 0-44-6t-42-18q-33-19-51-42t-27-51-13-59-11-67q-16-2-32-3t-33-1q-17 0-33 1t-32 3q-7 35-11 66t-14 58-28 52-51 43q-21 13-41 18t-45 6q-40 0-79-16t-76-30q-38 51-66 112 26 22 51 42t45 42 32 50 12 65q0 37-12 64t-31 50-45 42-52 42q13 30 29 58t36 54q35-13 74-29t79-16q32 0 61 10t52 30 39 46 22 58l17 99q17 2 32 3t33 1q17 0 33-1t33-3q5-30 9-59t13-57 24-52 43-43q23-15 48-23t53-9q18 0 38 5t40 12 39 15 37 14q38-51 66-112-26-22-51-42t-45-42-32-50-12-65zm-207 0q0 27-10 50t-27 40-41 28-50 10q-27 0-50-10t-41-27-27-40-10-51q0-27 10-50t27-40 41-28 50-10q26 0 49 10t41 27 28 41 10 50zm768 832q0 26-19 45l-128 128q-19 19-45 19t-45-19-19-45q0-23 11-36t27-28H504q-75 0-143-30t-120-82-82-120-31-144v-328q0-26 19-45t45-19q26 0 45 19t19 45v325q0 50 20 95t55 80 80 55 96 21h1195q-14-14-26-28t-12-36q0-26 19-45t45-19q26 0 45 19l128 128q19 19 19 45z" fill="#0078D4" />
</svg>