<svg width="20" height="17" viewBox="0 0 20 17" fill="none" xmlns="http://www.w3.org/2000/svg">
<rect x="0.90909" y="1.88889" width="18.1818" height="14.1667" fill="black"/>
<path d="M4.45117 6.87549C4.30957 6.93245 4.17204 6.97477 4.03857 7.00244C3.90674 7.03011 3.76921 7.04395 3.62598 7.04395C3.39648 7.04395 3.19303 7.01058 3.01562 6.94385C2.83984 6.87549 2.69092 6.77458 2.56885 6.64111C2.4484 6.50765 2.35645 6.34245 2.29297 6.14551C2.23112 5.94694 2.2002 5.71663 2.2002 5.45459C2.2002 5.18604 2.23438 4.94759 2.30273 4.73926C2.37109 4.5293 2.46875 4.3527 2.5957 4.20947C2.72266 4.06462 2.87646 3.95475 3.05713 3.87988C3.23942 3.80339 3.44368 3.76514 3.66992 3.76514C3.74316 3.76514 3.81152 3.76676 3.875 3.77002C3.9401 3.77327 4.00358 3.77979 4.06543 3.78955C4.12728 3.79769 4.18994 3.80908 4.25342 3.82373C4.31689 3.83838 4.38281 3.8571 4.45117 3.87988V4.47559C4.31283 4.41048 4.18099 4.3641 4.05566 4.33643C3.93034 4.30876 3.81641 4.29492 3.71387 4.29492C3.5625 4.29492 3.43311 4.32259 3.32568 4.37793C3.21826 4.43164 3.12956 4.50814 3.05957 4.60742C2.99121 4.70508 2.94076 4.82227 2.9082 4.95898C2.87565 5.09408 2.85938 5.243 2.85938 5.40576C2.85938 5.57829 2.87565 5.73291 2.9082 5.86963C2.94238 6.00472 2.99447 6.11947 3.06445 6.21387C3.13444 6.30827 3.22396 6.3807 3.33301 6.43115C3.44206 6.47998 3.57145 6.50439 3.72119 6.50439C3.7749 6.50439 3.83268 6.49951 3.89453 6.48975C3.95801 6.47835 4.02148 6.46452 4.08496 6.44824C4.15007 6.43034 4.21354 6.40999 4.27539 6.38721C4.33887 6.36279 4.39746 6.33838 4.45117 6.31396V6.87549ZM6.12354 4.49512C6.18538 4.49512 6.24316 4.50651 6.29688 4.5293C6.35059 4.55208 6.39697 4.58382 6.43604 4.62451C6.4751 4.66357 6.50602 4.70996 6.52881 4.76367C6.5516 4.81738 6.56299 4.87435 6.56299 4.93457C6.56299 4.99642 6.5516 5.0542 6.52881 5.10791C6.50602 5.16162 6.4751 5.20801 6.43604 5.24707C6.39697 5.28613 6.35059 5.31706 6.29688 5.33984C6.24316 5.36263 6.18538 5.37402 6.12354 5.37402C6.06169 5.37402 6.00391 5.36263 5.9502 5.33984C5.89811 5.31706 5.85173 5.28613 5.81104 5.24707C5.77197 5.20801 5.74105 5.16162 5.71826 5.10791C5.69548 5.0542 5.68408 4.99642 5.68408 4.93457C5.68408 4.87435 5.69548 4.81738 5.71826 4.76367C5.74105 4.70996 5.77197 4.66357 5.81104 4.62451C5.85173 4.58382 5.89811 4.55208 5.9502 4.5293C6.00391 4.50651 6.06169 4.49512 6.12354 4.49512ZM6.12354 6.17725C6.18538 6.17725 6.24316 6.18864 6.29688 6.21143C6.35059 6.23421 6.39697 6.26514 6.43604 6.3042C6.4751 6.34326 6.50602 6.38965 6.52881 6.44336C6.5516 6.49707 6.56299 6.55404 6.56299 6.61426C6.56299 6.67611 6.5516 6.73389 6.52881 6.7876C6.50602 6.84131 6.4751 6.88851 6.43604 6.9292C6.39697 6.96826 6.35059 6.99919 6.29688 7.02197C6.24316 7.04476 6.18538 7.05615 6.12354 7.05615C6.06169 7.05615 6.00391 7.04476 5.9502 7.02197C5.89811 6.99919 5.85173 6.96826 5.81104 6.9292C5.77197 6.88851 5.74105 6.84131 5.71826 6.7876C5.69548 6.73389 5.68408 6.67611 5.68408 6.61426C5.68408 6.55404 5.69548 6.49707 5.71826 6.44336C5.74105 6.38965 5.77197 6.34326 5.81104 6.3042C5.85173 6.26514 5.89811 6.23421 5.9502 6.21143C6.00391 6.18864 6.06169 6.17725 6.12354 6.17725ZM8.36719 3.55029L10.0737 7.5249H9.49268L7.78857 3.55029H8.36719ZM10.2471 8.00098V7.52979H12.9961V8.00098H10.2471ZM12.9961 8.00098V7.52979H15.7451V8.00098H12.9961Z" fill="white"/>
<rect x="0.90909" y="0.944443" width="18.1818" height="1.88889" fill="#D9D9D9"/>
<rect x="17.2727" y="0.944443" width="0.909091" height="0.944444" fill="#605E5C"/>
<rect x="15.4545" y="0.944443" width="0.909091" height="0.944444" fill="#605E5C"/>
<rect x="13.6364" y="0.944443" width="0.909091" height="0.944444" fill="#605E5C"/>
<rect x="0.5" y="0.5" width="19" height="16" stroke="#CDCDCD"/>
</svg>
