<svg width="14" height="19" viewBox="0 0 14 19" fill="none" xmlns="http://www.w3.org/2000/svg">
<path d="M0.583311 19C0.425331 19 0.288617 18.9412 0.17317 18.8237C0.0577235 18.7062 0 18.5671 0 18.4063V1.78174C0 1.54054 0.0455712 1.31171 0.136714 1.09524C0.227856 0.878776 0.352417 0.690142 0.510397 0.529339C0.668377 0.368536 0.856738 0.238657 1.07548 0.139702C1.29422 0.0407464 1.51904 -0.00563901 1.74993 0.000545711H8.74966C8.98663 0.000545711 9.21145 0.0469311 9.42412 0.139702C9.63678 0.232473 9.82211 0.359259 9.98009 0.520062C10.1381 0.680865 10.2657 0.872591 10.3629 1.09524C10.4601 1.31789 10.5057 1.54673 10.4996 1.78174V7.12534H12.2495C12.4865 7.12534 12.7113 7.17173 12.924 7.2645C13.1366 7.35727 13.322 7.48405 13.48 7.64486C13.6379 7.80566 13.7655 7.99739 13.8627 8.22004C13.96 8.44269 14.0055 8.67152 13.9995 8.90654V18.4063C13.9995 18.5671 13.9417 18.7062 13.8263 18.8237C13.7108 18.9412 13.5741 19 13.4162 19H0.583311ZM1.16662 17.8125H3.49987V14.8439C3.49987 14.6831 3.55759 14.5439 3.67304 14.4264C3.78848 14.3089 3.9252 14.2501 4.08318 14.2501H9.91629C10.0743 14.2501 10.211 14.3089 10.3264 14.4264C10.4419 14.5439 10.4996 14.6831 10.4996 14.8439V17.8125H12.8328V8.90654C12.8328 8.74574 12.7751 8.60658 12.6597 8.48907C12.5442 8.37156 12.4075 8.31281 12.2495 8.31281H9.91629C9.75831 8.31281 9.62159 8.25405 9.50615 8.13654C9.3907 8.01903 9.33298 7.87988 9.33298 7.71907V1.78174C9.33298 1.62094 9.27525 1.48179 9.1598 1.36428C9.04436 1.24677 8.90764 1.18801 8.74966 1.18801H1.74993C1.59195 1.18801 1.45524 1.24677 1.33979 1.36428C1.22435 1.48179 1.16662 1.62094 1.16662 1.78174V17.8125ZM2.33324 4.45354C2.33324 4.20615 2.41831 3.99587 2.58844 3.8227C2.75857 3.64953 2.96516 3.56294 3.20821 3.56294C3.45126 3.56294 3.65785 3.64953 3.82798 3.8227C3.99811 3.99587 4.08318 4.20615 4.08318 4.45354C4.08318 4.70093 3.99811 4.91121 3.82798 5.08438C3.65785 5.25756 3.45126 5.34414 3.20821 5.34414C2.96516 5.34414 2.75857 5.25756 2.58844 5.08438C2.41831 4.91121 2.33324 4.70093 2.33324 4.45354ZM5.83311 4.45354C5.83311 4.20615 5.91818 3.99587 6.08831 3.8227C6.25844 3.64953 6.46503 3.56294 6.70808 3.56294C6.95112 3.56294 7.15771 3.64953 7.32784 3.8227C7.49798 3.99587 7.58304 4.20615 7.58304 4.45354C7.58304 4.70093 7.49798 4.91121 7.32784 5.08438C7.15771 5.25756 6.95112 5.34414 6.70808 5.34414C6.46503 5.34414 6.25844 5.25756 6.08831 5.08438C5.91818 4.91121 5.83311 4.70093 5.83311 4.45354ZM2.33324 8.01594C2.33324 7.76855 2.41831 7.55827 2.58844 7.3851C2.75857 7.21193 2.96516 7.12534 3.20821 7.12534C3.45126 7.12534 3.65785 7.21193 3.82798 7.3851C3.99811 7.55827 4.08318 7.76855 4.08318 8.01594C4.08318 8.26333 3.99811 8.47361 3.82798 8.64678C3.65785 8.81995 3.45126 8.90654 3.20821 8.90654C2.96516 8.90654 2.75857 8.81995 2.58844 8.64678C2.41831 8.47361 2.33324 8.26333 2.33324 8.01594ZM5.83311 8.01594C5.83311 7.76855 5.91818 7.55827 6.08831 7.3851C6.25844 7.21193 6.46503 7.12534 6.70808 7.12534C6.95112 7.12534 7.15771 7.21193 7.32784 7.3851C7.49798 7.55827 7.58304 7.76855 7.58304 8.01594C7.58304 8.26333 7.49798 8.47361 7.32784 8.64678C7.15771 8.81995 6.95112 8.90654 6.70808 8.90654C6.46503 8.90654 6.25844 8.81995 6.08831 8.64678C5.91818 8.47361 5.83311 8.26333 5.83311 8.01594ZM2.33324 11.5783C2.33324 11.3309 2.41831 11.1207 2.58844 10.9475C2.75857 10.7743 2.96516 10.6877 3.20821 10.6877C3.45126 10.6877 3.65785 10.7743 3.82798 10.9475C3.99811 11.1207 4.08318 11.3309 4.08318 11.5783C4.08318 11.8257 3.99811 12.036 3.82798 12.2092C3.65785 12.3824 3.45126 12.4689 3.20821 12.4689C2.96516 12.4689 2.75857 12.3824 2.58844 12.2092C2.41831 12.036 2.33324 11.8257 2.33324 11.5783ZM5.83311 11.5783C5.83311 11.3309 5.91818 11.1207 6.08831 10.9475C6.25844 10.7743 6.46503 10.6877 6.70808 10.6877C6.95112 10.6877 7.15771 10.7743 7.32784 10.9475C7.49798 11.1207 7.58304 11.3309 7.58304 11.5783C7.58304 11.8257 7.49798 12.036 7.32784 12.2092C7.15771 12.3824 6.95112 12.4689 6.70808 12.4689C6.46503 12.4689 6.25844 12.3824 6.08831 12.2092C5.91818 12.036 5.83311 11.8257 5.83311 11.5783ZM9.33298 11.5783C9.33298 11.3309 9.41804 11.1207 9.58817 10.9475C9.75831 10.7743 9.9649 10.6877 10.2079 10.6877C10.451 10.6877 10.6576 10.7743 10.8277 10.9475C10.9978 11.1207 11.0829 11.3309 11.0829 11.5783C11.0829 11.8257 10.9978 12.036 10.8277 12.2092C10.6576 12.3824 10.451 12.4689 10.2079 12.4689C9.9649 12.4689 9.75831 12.3824 9.58817 12.2092C9.41804 12.036 9.33298 11.8257 9.33298 11.5783ZM4.66649 15.4376V17.8125H6.41642V15.4376H4.66649ZM7.58304 15.4376V17.8125H9.33298V15.4376H7.58304Z" fill="#5489d7"/>
</svg>
