<svg width="18" height="14" viewBox="0 0 18 14" fill="none" xmlns="http://www.w3.org/2000/svg">
<path d="M2.25 10.5V5.77865C1.91602 5.70573 1.61133 5.57812 1.33594 5.39583C1.06055 5.21354 0.823242 4.99479 0.624023 4.73958C0.424805 4.48437 0.272461 4.19271 0.166992 3.86458C0.0615234 3.53646 0.00585938 3.19922 0 2.85286C0 2.4579 0.0761719 2.08724 0.228516 1.74089C0.380859 1.39453 0.585937 1.09375 0.84375 0.838542C1.10156 0.583333 1.40039 0.379774 1.74023 0.227865C2.08008 0.0759549 2.4375 0 2.8125 0C3.1875 0 3.54492 0.0729167 3.88477 0.21875C4.22461 0.364583 4.52344 0.568142 4.78125 0.829427C5.03906 1.09071 5.24414 1.39453 5.39648 1.74089C5.54883 2.08724 5.625 2.4579 5.625 2.85286C5.625 3.2053 5.57227 3.54253 5.4668 3.86458C5.36133 4.18663 5.20898 4.47526 5.00977 4.73047C4.81055 4.98568 4.57324 5.20747 4.29785 5.39583C4.02246 5.5842 3.71484 5.71181 3.375 5.77865V10.5H6.75V5.25C6.75 5.06771 6.81445 4.91884 6.94336 4.80339L10.8809 1.30339C10.9863 1.21224 11.1094 1.16667 11.25 1.16667C11.3906 1.16667 11.5137 1.21224 11.6191 1.30339L15.5566 4.80339C15.6855 4.91884 15.75 5.06771 15.75 5.25V10.5H17.4375C17.5898 10.5 17.7217 10.5577 17.833 10.6732C17.9443 10.7886 18 10.9253 18 11.0833C18 11.2413 17.9443 11.378 17.833 11.4935C17.7217 11.6089 17.5898 11.6667 17.4375 11.6667H0.5625C0.410156 11.6667 0.27832 11.6089 0.166992 11.4935C0.0556641 11.378 0 11.2413 0 11.0833C0 10.9253 0.0556641 10.7886 0.166992 10.6732C0.27832 10.5577 0.410156 10.5 0.5625 10.5H2.25ZM2.8125 4.66667C3.04102 4.66667 3.25781 4.62109 3.46289 4.52995C3.66797 4.4388 3.84668 4.31424 3.99902 4.15625C4.15137 3.99826 4.27441 3.8099 4.36816 3.59115C4.46191 3.3724 4.50586 3.14757 4.5 2.91667C4.5 2.67969 4.45605 2.45486 4.36816 2.24219C4.28027 2.02951 4.16016 1.84418 4.00781 1.6862C3.85547 1.52821 3.67383 1.40061 3.46289 1.30339C3.25195 1.20616 3.03516 1.16059 2.8125 1.16667C2.58398 1.16667 2.36719 1.21224 2.16211 1.30339C1.95703 1.39453 1.77832 1.5191 1.62598 1.67708C1.47363 1.83507 1.35059 2.02344 1.25684 2.24219C1.16309 2.46094 1.11914 2.68576 1.125 2.91667C1.125 3.15365 1.16895 3.37847 1.25684 3.59115C1.34473 3.80382 1.46484 3.98915 1.61719 4.14714C1.76953 4.30512 1.95117 4.43273 2.16211 4.52995C2.37305 4.62717 2.58984 4.67274 2.8125 4.66667ZM11.25 2.51562L7.875 5.51432V10.5H14.625V5.51432L11.25 2.51562ZM17.4375 12.8333C17.5898 12.8333 17.7217 12.8911 17.833 13.0065C17.9443 13.122 18 13.2587 18 13.4167C18 13.5747 17.9443 13.7114 17.833 13.8268C17.7217 13.9423 17.5898 14 17.4375 14H0.5625C0.410156 14 0.27832 13.9423 0.166992 13.8268C0.0556641 13.7114 0 13.5747 0 13.4167C0 13.2587 0.0556641 13.122 0.166992 13.0065C0.27832 12.8911 0.410156 12.8333 0.5625 12.8333H17.4375Z" fill="#5489d7"/>
</svg>
