<svg width="19" height="14" viewBox="0 0 19 14" fill="none" xmlns="http://www.w3.org/2000/svg">
<path d="M0 7.01818V1.36364C0 1.17576 0.0371094 1 0.111328 0.836364C0.185547 0.672727 0.284505 0.527273 0.408203 0.4C0.531901 0.272727 0.677246 0.175758 0.844238 0.109091C1.01123 0.0424242 1.19368 0.00606061 1.3916 0H12.8584C13.0316 0 13.1955 0.030303 13.3501 0.0909091C13.5047 0.151515 13.647 0.236364 13.7769 0.345455C13.9067 0.454545 14.0088 0.581818 14.083 0.727273C14.1572 0.872727 14.2098 1.0303 14.2407 1.2H15.5117C15.9941 1.2 16.4456 1.29394 16.8662 1.48182C17.2868 1.6697 17.6579 1.92424 17.9795 2.24545C18.3011 2.56667 18.5485 2.93636 18.7217 3.35455C18.8949 3.77273 18.9876 4.21818 19 4.69091C19 5.15758 18.9103 5.6 18.731 6.01818C18.5516 6.43636 18.3011 6.80909 17.9795 7.13636C17.6579 7.46364 17.2899 7.71818 16.8755 7.9C16.4611 8.08182 16.0065 8.17576 15.5117 8.18182H14.1479C14.049 8.73939 13.8882 9.2697 13.6655 9.77273C13.4429 10.2758 13.1676 10.7455 12.8398 11.1818C12.512 11.6182 12.141 12.0061 11.7266 12.3455C11.3122 12.6848 10.8576 12.9818 10.3628 13.2364C9.868 13.4909 9.35156 13.6788 8.81348 13.8C8.27539 13.9212 7.71257 13.9879 7.125 14C6.4694 14 5.83854 13.9182 5.23242 13.7545C4.6263 13.5909 4.05729 13.3545 3.52539 13.0455C2.99349 12.7364 2.51416 12.3727 2.0874 11.9545C1.66064 11.5364 1.28955 11.0667 0.974121 10.5455C0.658691 10.0242 0.420573 9.4697 0.259766 8.88182C0.0989583 8.29394 0.0123698 7.67273 0 7.01818ZM13.0625 7.01818V1.36364C13.0625 1.30909 13.0439 1.26364 13.0068 1.22727C12.9697 1.19091 12.9202 1.1697 12.8584 1.16364H1.3916C1.33594 1.16364 1.28955 1.18182 1.25244 1.21818C1.21533 1.25455 1.19368 1.30303 1.1875 1.36364V7.01818C1.1875 7.82424 1.34212 8.57879 1.65137 9.28182C1.96061 9.98485 2.38428 10.603 2.92236 11.1364C3.46045 11.6697 4.08822 12.0848 4.80566 12.3818C5.52311 12.6788 6.29622 12.8303 7.125 12.8364C7.94759 12.8364 8.71761 12.6848 9.43506 12.3818C10.1525 12.0788 10.7834 11.6636 11.3276 11.1364C11.8719 10.6091 12.2956 9.99394 12.5986 9.29091C12.9017 8.58788 13.0563 7.8303 13.0625 7.01818ZM15.4839 7.01818C15.8055 7.01818 16.1055 6.95455 16.3838 6.82727C16.6621 6.7 16.9095 6.5303 17.126 6.31818C17.3424 6.10606 17.5094 5.86061 17.627 5.58182C17.7445 5.30303 17.8063 5.00606 17.8125 4.69091C17.8125 4.38182 17.7507 4.08788 17.627 3.80909C17.5033 3.5303 17.3363 3.28182 17.126 3.06364C16.9157 2.84545 16.6714 2.67576 16.3931 2.55455C16.1147 2.43333 15.8117 2.3697 15.4839 2.36364H14.25V7.01818H15.4839Z" fill="#5489d7"/>
</svg>
