<svg width="435" height="135" viewBox="0 0 435 135" fill="none" xmlns="http://www.w3.org/2000/svg">
<g filter="url(#filter0_d_30_200)">
<path d="M4 15C4 6.71573 10.7157 0 19 0H420C428.284 0 435 6.71573 435 15V120C435 128.284 428.284 135 420 135H19C10.7157 135 4 128.284 4 120V15Z" fill="#162436" fill-opacity="0.8" shape-rendering="crispEdges"/>
</g>
<path d="M14.1328 37L18.3281 25.7969H20.4219L24.5859 37H22.5469L21.5859 34.2969H17.0938L16.1641 37H14.1328ZM17.5781 32.7656H21.0859L19.5312 28.3125C19.4948 28.1979 19.4635 28.0833 19.4375 27.9688C19.4115 27.849 19.3854 27.7031 19.3594 27.5312H19.3125C19.2865 27.6875 19.2578 27.8255 19.2266 27.9453C19.2005 28.0651 19.1667 28.1823 19.125 28.2969L17.5781 32.7656ZM27.7812 35.9453H27.75V40.6797H25.9297V29H27.75V30.3125H27.7812C28.0885 29.8125 28.4661 29.4375 28.9141 29.1875C29.362 28.9375 29.875 28.8125 30.4531 28.8125C31.4844 28.8125 32.2865 29.1693 32.8594 29.8828C33.4375 30.5964 33.7266 31.5573 33.7266 32.7656C33.7266 34.1042 33.3984 35.1771 32.7422 35.9844C32.0859 36.7865 31.2005 37.1875 30.0859 37.1875C29.5859 37.1875 29.1432 37.0859 28.7578 36.8828C28.3724 36.6745 28.0469 36.362 27.7812 35.9453ZM27.7266 32.6953V33.5938C27.7266 34.2083 27.9115 34.7214 28.2812 35.1328C28.651 35.5391 29.1224 35.7422 29.6953 35.7422C30.3776 35.7422 30.9089 35.4818 31.2891 34.9609C31.6693 34.4401 31.8594 33.7109 31.8594 32.7734C31.8594 31.9661 31.6849 31.3464 31.3359 30.9141C30.987 30.4766 30.4974 30.2578 29.8672 30.2578C29.2266 30.2578 28.7083 30.487 28.3125 30.9453C27.9219 31.3984 27.7266 31.9818 27.7266 32.6953ZM37.4219 35.9453H37.3906V40.6797H35.5703V29H37.3906V30.3125H37.4219C37.7292 29.8125 38.1068 29.4375 38.5547 29.1875C39.0026 28.9375 39.5156 28.8125 40.0938 28.8125C41.125 28.8125 41.9271 29.1693 42.5 29.8828C43.0781 30.5964 43.3672 31.5573 43.3672 32.7656C43.3672 34.1042 43.0391 35.1771 42.3828 35.9844C41.7266 36.7865 40.8411 37.1875 39.7266 37.1875C39.2266 37.1875 38.7839 37.0859 38.3984 36.8828C38.013 36.6745 37.6875 36.362 37.4219 35.9453ZM37.3672 32.6953V33.5938C37.3672 34.2083 37.5521 34.7214 37.9219 35.1328C38.2917 35.5391 38.763 35.7422 39.3359 35.7422C40.0182 35.7422 40.5495 35.4818 40.9297 34.9609C41.3099 34.4401 41.5 33.7109 41.5 32.7734C41.5 31.9661 41.3255 31.3464 40.9766 30.9141C40.6276 30.4766 40.138 30.2578 39.5078 30.2578C38.8672 30.2578 38.349 30.487 37.9531 30.9453C37.5625 31.3984 37.3672 31.9818 37.3672 32.6953ZM45.2109 37V25.1562H47.0312V37H45.2109ZM50.3203 27.4531C49.987 27.4531 49.7109 27.3464 49.4922 27.1328C49.2734 26.9193 49.1641 26.6562 49.1641 26.3438C49.1641 26.0208 49.2734 25.7552 49.4922 25.5469C49.7109 25.3385 49.987 25.2344 50.3203 25.2344C50.6589 25.2344 50.9375 25.3385 51.1562 25.5469C51.375 25.7552 51.4844 26.0208 51.4844 26.3438C51.4844 26.6615 51.375 26.9271 51.1562 27.1406C50.9375 27.349 50.6589 27.4531 50.3203 27.4531ZM51.2188 37H49.3984V29H51.2188V37ZM59.5781 36.5078C59.1823 36.7474 58.7891 36.9193 58.3984 37.0234C58.0078 37.1328 57.5833 37.1875 57.125 37.1875C55.8958 37.1875 54.9115 36.8281 54.1719 36.1094C53.4375 35.3906 53.0703 34.4141 53.0703 33.1797C53.0703 31.8516 53.4505 30.7917 54.2109 30C54.9766 29.2083 56.0078 28.8125 57.3047 28.8125C57.7578 28.8125 58.1693 28.862 58.5391 28.9609C58.9141 29.0547 59.2943 29.2109 59.6797 29.4297L58.9688 30.6953C58.6979 30.5443 58.4323 30.4349 58.1719 30.3672C57.9115 30.2943 57.6276 30.2578 57.3203 30.2578C56.5547 30.2578 55.9635 30.5104 55.5469 31.0156C55.1302 31.5208 54.9219 32.1901 54.9219 33.0234C54.9219 33.8984 55.1458 34.5703 55.5938 35.0391C56.0469 35.5078 56.6146 35.7422 57.2969 35.7422C57.5052 35.7422 57.7448 35.7057 58.0156 35.6328C58.2865 35.5547 58.5599 35.4323 58.8359 35.2656L59.5781 36.5078ZM67.2266 37H65.4688V35.7969H65.4375C65.1667 36.2604 64.8307 36.6094 64.4297 36.8438C64.0286 37.0729 63.5677 37.1875 63.0469 37.1875C62.3229 37.1875 61.7214 36.974 61.2422 36.5469C60.763 36.1146 60.5234 35.526 60.5234 34.7812C60.5234 34.0729 60.763 33.4922 61.2422 33.0391C61.7214 32.5807 62.4323 32.2839 63.375 32.1484L65.4766 31.8672V31.7031C65.4766 31.1615 65.3359 30.7682 65.0547 30.5234C64.7734 30.2786 64.3932 30.1562 63.9141 30.1562C63.5339 30.1562 63.1458 30.224 62.75 30.3594C62.3594 30.4948 61.9792 30.7057 61.6094 30.9922L60.8203 29.9062C61.3099 29.5312 61.8151 29.2552 62.3359 29.0781C62.8568 28.901 63.4297 28.8125 64.0547 28.8125C65.1276 28.8125 65.9245 29.0781 66.4453 29.6094C66.9661 30.1354 67.2266 30.9271 67.2266 31.9844V37ZM65.4766 33.75V33.0703L63.7656 33.2969C63.2604 33.3698 62.8802 33.5078 62.625 33.7109C62.375 33.9089 62.25 34.2005 62.25 34.5859C62.25 34.9766 62.3698 35.2812 62.6094 35.5C62.849 35.7188 63.1562 35.8281 63.5312 35.8281C64.1198 35.8281 64.5911 35.6328 64.9453 35.2422C65.2995 34.8464 65.4766 34.349 65.4766 33.75ZM73.8359 36.8906C73.6016 36.9896 73.3568 37.0625 73.1016 37.1094C72.8464 37.1562 72.5729 37.1797 72.2812 37.1797C71.5417 37.1797 70.9714 36.9844 70.5703 36.5938C70.1745 36.1979 69.9766 35.6094 69.9766 34.8281V30.4219H68.6328V29H69.9766V27.0547L71.7891 26.5078V29H73.7031V30.4219H71.7891V34.6797C71.7891 35.0703 71.8594 35.3516 72 35.5234C72.1458 35.6953 72.3698 35.7812 72.6719 35.7812C72.8177 35.7812 72.9557 35.7656 73.0859 35.7344C73.2214 35.6979 73.3411 35.6536 73.4453 35.6016L73.8359 36.8906ZM76.1797 27.4531C75.8464 27.4531 75.5703 27.3464 75.3516 27.1328C75.1328 26.9193 75.0234 26.6562 75.0234 26.3438C75.0234 26.0208 75.1328 25.7552 75.3516 25.5469C75.5703 25.3385 75.8464 25.2344 76.1797 25.2344C76.5182 25.2344 76.7969 25.3385 77.0156 25.5469C77.2344 25.7552 77.3438 26.0208 77.3438 26.3438C77.3438 26.6615 77.2344 26.9271 77.0156 27.1406C76.7969 27.349 76.5182 27.4531 76.1797 27.4531ZM77.0781 37H75.2578V29H77.0781V37ZM83 37.1875C81.75 37.1875 80.7578 36.8151 80.0234 36.0703C79.2943 35.3203 78.9297 34.3177 78.9297 33.0625C78.9349 31.7344 79.3151 30.6953 80.0703 29.9453C80.8255 29.1901 81.8542 28.8125 83.1562 28.8125C84.4115 28.8073 85.3906 29.1771 86.0938 29.9219C86.8021 30.6615 87.1562 31.6641 87.1562 32.9297C87.1562 34.2318 86.7812 35.2682 86.0312 36.0391C85.2865 36.8047 84.276 37.1875 83 37.1875ZM83.0859 35.7422C83.8099 35.7422 84.3594 35.5052 84.7344 35.0312C85.1146 34.5573 85.3047 33.8724 85.3047 32.9766C85.3047 32.0911 85.1146 31.4167 84.7344 30.9531C84.3542 30.4896 83.8021 30.2578 83.0781 30.2578C82.3646 30.2578 81.8021 30.5026 81.3906 30.9922C80.9844 31.4818 80.7812 32.1589 80.7812 33.0234C80.7812 33.8932 80.9844 34.5651 81.3906 35.0391C81.7969 35.5078 82.362 35.7422 83.0859 35.7422ZM96.1406 37H94.3281V32.4922C94.3281 31.7474 94.1927 31.1901 93.9219 30.8203C93.651 30.4453 93.2448 30.2578 92.7031 30.2578C92.1615 30.2578 91.7135 30.4635 91.3594 30.875C91.0052 31.2865 90.8281 31.8073 90.8281 32.4375V37H89.0078V29H90.8281V30.2969H90.8594C91.1562 29.8021 91.5208 29.4323 91.9531 29.1875C92.3854 28.9375 92.888 28.8125 93.4609 28.8125C94.3359 28.8125 95 29.0911 95.4531 29.6484C95.9115 30.2057 96.1406 31.026 96.1406 32.1094V37ZM103.68 27.4531C103.346 27.4531 103.07 27.3464 102.852 27.1328C102.633 26.9193 102.523 26.6562 102.523 26.3438C102.523 26.0208 102.633 25.7552 102.852 25.5469C103.07 25.3385 103.346 25.2344 103.68 25.2344C104.018 25.2344 104.297 25.3385 104.516 25.5469C104.734 25.7552 104.844 26.0208 104.844 26.3438C104.844 26.6615 104.734 26.9271 104.516 27.1406C104.297 27.349 104.018 27.4531 103.68 27.4531ZM104.578 37H102.758V29H104.578V37ZM106.172 36.3594L106.961 35.0781C107.273 35.2969 107.604 35.474 107.953 35.6094C108.307 35.7396 108.69 35.8047 109.102 35.8047C109.549 35.8047 109.896 35.724 110.141 35.5625C110.391 35.3958 110.516 35.1484 110.516 34.8203C110.516 34.5599 110.411 34.3438 110.203 34.1719C110 33.9948 109.651 33.849 109.156 33.7344C108.156 33.5 107.453 33.1901 107.047 32.8047C106.646 32.4193 106.445 31.9115 106.445 31.2812C106.445 30.5573 106.727 29.9661 107.289 29.5078C107.852 29.0443 108.589 28.8125 109.5 28.8125C109.953 28.8125 110.385 28.8724 110.797 28.9922C111.208 29.1068 111.609 29.2917 112 29.5469L111.266 30.7969C110.922 30.5781 110.607 30.4219 110.32 30.3281C110.034 30.2344 109.74 30.1875 109.438 30.1875C109.01 30.1875 108.677 30.2682 108.438 30.4297C108.203 30.5859 108.086 30.8047 108.086 31.0859C108.086 31.3828 108.206 31.6042 108.445 31.75C108.69 31.8906 109.099 32.0286 109.672 32.1641C110.536 32.3724 111.169 32.6745 111.57 33.0703C111.971 33.4609 112.172 33.9844 112.172 34.6406C112.172 35.4167 111.888 36.0365 111.32 36.5C110.758 36.9583 109.995 37.1875 109.031 37.1875C108.51 37.1875 108.01 37.1198 107.531 36.9844C107.057 36.8438 106.604 36.6354 106.172 36.3594ZM117.406 37.1875C116.156 37.1875 115.164 36.8151 114.43 36.0703C113.701 35.3203 113.336 34.3177 113.336 33.0625C113.341 31.7344 113.721 30.6953 114.477 29.9453C115.232 29.1901 116.26 28.8125 117.562 28.8125C118.818 28.8073 119.797 29.1771 120.5 29.9219C121.208 30.6615 121.562 31.6641 121.562 32.9297C121.562 34.2318 121.188 35.2682 120.438 36.0391C119.693 36.8047 118.682 37.1875 117.406 37.1875ZM117.492 35.7422C118.216 35.7422 118.766 35.5052 119.141 35.0312C119.521 34.5573 119.711 33.8724 119.711 32.9766C119.711 32.0911 119.521 31.4167 119.141 30.9531C118.76 30.4896 118.208 30.2578 117.484 30.2578C116.771 30.2578 116.208 30.5026 115.797 30.9922C115.391 31.4818 115.188 32.1589 115.188 33.0234C115.188 33.8932 115.391 34.5651 115.797 35.0391C116.203 35.5078 116.768 35.7422 117.492 35.7422ZM123.414 37V25.1562H125.234V37H123.414ZM133.711 37H131.953V35.7969H131.922C131.651 36.2604 131.315 36.6094 130.914 36.8438C130.513 37.0729 130.052 37.1875 129.531 37.1875C128.807 37.1875 128.206 36.974 127.727 36.5469C127.247 36.1146 127.008 35.526 127.008 34.7812C127.008 34.0729 127.247 33.4922 127.727 33.0391C128.206 32.5807 128.917 32.2839 129.859 32.1484L131.961 31.8672V31.7031C131.961 31.1615 131.82 30.7682 131.539 30.5234C131.258 30.2786 130.878 30.1562 130.398 30.1562C130.018 30.1562 129.63 30.224 129.234 30.3594C128.844 30.4948 128.464 30.7057 128.094 30.9922L127.305 29.9062C127.794 29.5312 128.299 29.2552 128.82 29.0781C129.341 28.901 129.914 28.8125 130.539 28.8125C131.612 28.8125 132.409 29.0781 132.93 29.6094C133.451 30.1354 133.711 30.9271 133.711 31.9844V37ZM131.961 33.75V33.0703L130.25 33.2969C129.745 33.3698 129.365 33.5078 129.109 33.7109C128.859 33.9089 128.734 34.2005 128.734 34.5859C128.734 34.9766 128.854 35.2812 129.094 35.5C129.333 35.7188 129.641 35.8281 130.016 35.8281C130.604 35.8281 131.076 35.6328 131.43 35.2422C131.784 34.8464 131.961 34.349 131.961 33.75ZM140.32 36.8906C140.086 36.9896 139.841 37.0625 139.586 37.1094C139.331 37.1562 139.057 37.1797 138.766 37.1797C138.026 37.1797 137.456 36.9844 137.055 36.5938C136.659 36.1979 136.461 35.6094 136.461 34.8281V30.4219H135.117V29H136.461V27.0547L138.273 26.5078V29H140.188V30.4219H138.273V34.6797C138.273 35.0703 138.344 35.3516 138.484 35.5234C138.63 35.6953 138.854 35.7812 139.156 35.7812C139.302 35.7812 139.44 35.7656 139.57 35.7344C139.706 35.6979 139.826 35.6536 139.93 35.6016L140.32 36.8906ZM142.664 27.4531C142.331 27.4531 142.055 27.3464 141.836 27.1328C141.617 26.9193 141.508 26.6562 141.508 26.3438C141.508 26.0208 141.617 25.7552 141.836 25.5469C142.055 25.3385 142.331 25.2344 142.664 25.2344C143.003 25.2344 143.281 25.3385 143.5 25.5469C143.719 25.7552 143.828 26.0208 143.828 26.3438C143.828 26.6615 143.719 26.9271 143.5 27.1406C143.281 27.349 143.003 27.4531 142.664 27.4531ZM143.562 37H141.742V29H143.562V37ZM149.484 37.1875C148.234 37.1875 147.242 36.8151 146.508 36.0703C145.779 35.3203 145.414 34.3177 145.414 33.0625C145.419 31.7344 145.799 30.6953 146.555 29.9453C147.31 29.1901 148.339 28.8125 149.641 28.8125C150.896 28.8073 151.875 29.1771 152.578 29.9219C153.286 30.6615 153.641 31.6641 153.641 32.9297C153.641 34.2318 153.266 35.2682 152.516 36.0391C151.771 36.8047 150.76 37.1875 149.484 37.1875ZM149.57 35.7422C150.294 35.7422 150.844 35.5052 151.219 35.0312C151.599 34.5573 151.789 33.8724 151.789 32.9766C151.789 32.0911 151.599 31.4167 151.219 30.9531C150.839 30.4896 150.286 30.2578 149.562 30.2578C148.849 30.2578 148.286 30.5026 147.875 30.9922C147.469 31.4818 147.266 32.1589 147.266 33.0234C147.266 33.8932 147.469 34.5651 147.875 35.0391C148.281 35.5078 148.846 35.7422 149.57 35.7422ZM162.625 37H160.812V32.4922C160.812 31.7474 160.677 31.1901 160.406 30.8203C160.135 30.4453 159.729 30.2578 159.188 30.2578C158.646 30.2578 158.198 30.4635 157.844 30.875C157.49 31.2865 157.312 31.8073 157.312 32.4375V37H155.492V29H157.312V30.2969H157.344C157.641 29.8021 158.005 29.4323 158.438 29.1875C158.87 28.9375 159.372 28.8125 159.945 28.8125C160.82 28.8125 161.484 29.0911 161.938 29.6484C162.396 30.2057 162.625 31.026 162.625 32.1094V37Z" fill="#98ECFE"/>
<path d="M25.0391 46.5977L22.666 55H21.5117L19.7832 48.8594C19.748 48.7266 19.7188 48.5898 19.6953 48.4492C19.6719 48.3047 19.6562 48.1562 19.6484 48.0039H19.625C19.6133 48.1484 19.5938 48.291 19.5664 48.4316C19.543 48.5723 19.5117 48.7109 19.4727 48.8477L17.7324 55H16.5898L14.1289 46.5977H15.2129L17 53.043C17.0391 53.1758 17.0703 53.3125 17.0938 53.4531C17.1172 53.5938 17.1328 53.7383 17.1406 53.8867H17.1699C17.1816 53.7812 17.2012 53.6582 17.2285 53.5176C17.2598 53.377 17.3008 53.2188 17.3516 53.043L19.209 46.5977H20.1523L21.9336 53.0898C21.9648 53.1992 21.9922 53.3203 22.0156 53.4531C22.0391 53.582 22.0586 53.7227 22.0742 53.875H22.0977C22.1055 53.7734 22.123 53.6562 22.1504 53.5234C22.1777 53.3867 22.2129 53.2344 22.2559 53.0664L23.9727 46.5977H25.0391ZM26.6797 47.5059C26.4922 47.5059 26.334 47.4434 26.2051 47.3184C26.0801 47.1934 26.0176 47.0391 26.0176 46.8555C26.0176 46.6719 26.0801 46.5176 26.2051 46.3926C26.334 46.2676 26.4922 46.2051 26.6797 46.2051C26.8672 46.2051 27.0234 46.2676 27.1484 46.3926C27.2773 46.5176 27.3418 46.6719 27.3418 46.8555C27.3418 47.0391 27.2773 47.1934 27.1484 47.3184C27.0234 47.4434 26.8672 47.5059 26.6797 47.5059ZM27.1484 55H26.1875V49H27.1484V55ZM34.0742 55H33.1133V51.5781C33.1133 50.9414 32.9961 50.4648 32.7617 50.1484C32.5312 49.8281 32.1836 49.668 31.7188 49.668C31.2383 49.668 30.8398 49.8496 30.5234 50.2129C30.2109 50.5723 30.0547 51.0273 30.0547 51.5781V55H29.0938V49H30.0547V49.9961H30.0781C30.3047 49.6172 30.582 49.334 30.9102 49.1465C31.2383 48.9551 31.6172 48.8594 32.0469 48.8594C32.7031 48.8594 33.2051 49.0723 33.5527 49.498C33.9004 49.9199 34.0742 50.5312 34.0742 51.332V55ZM38.8438 54.4258L39.2891 53.7344C39.6016 53.9375 39.9141 54.0859 40.2266 54.1797C40.543 54.2734 40.8633 54.3203 41.1875 54.3203C41.8125 54.3203 42.2793 54.1738 42.5879 53.8809C42.9004 53.584 43.0566 53.2051 43.0566 52.7441C43.0566 52.1738 42.8613 51.752 42.4707 51.4785C42.0801 51.2012 41.4941 51.0625 40.7129 51.0625H40.0156V50.248H40.6777C41.3691 50.248 41.8867 50.1191 42.2305 49.8613C42.5781 49.6035 42.752 49.2012 42.752 48.6543C42.752 48.209 42.6152 47.8672 42.3418 47.6289C42.0723 47.3906 41.748 47.2715 41.3691 47.2715C41.0449 47.2715 40.7344 47.3223 40.4375 47.4238C40.1445 47.5254 39.8594 47.6836 39.582 47.8984L39.0781 47.2598C39.4336 46.9824 39.7988 46.7793 40.1738 46.6504C40.5488 46.5215 40.9609 46.457 41.4102 46.457C42.1133 46.457 42.6758 46.6426 43.0977 47.0137C43.5234 47.3848 43.7363 47.8926 43.7363 48.5371C43.7363 49.0371 43.5957 49.4668 43.3145 49.8262C43.0371 50.1816 42.6191 50.4375 42.0605 50.5938V50.6172C42.6309 50.6797 43.1035 50.8906 43.4785 51.25C43.8535 51.6055 44.041 52.0762 44.041 52.6621C44.041 53.4355 43.7832 54.043 43.2676 54.4844C42.7559 54.9219 42.0879 55.1406 41.2637 55.1406C40.8066 55.1406 40.3848 55.084 39.998 54.9707C39.6113 54.8574 39.2266 54.6758 38.8438 54.4258ZM45.4062 55V54.584C45.4062 54.2246 45.4453 53.9082 45.5234 53.6348C45.6016 53.3613 45.7305 53.1016 45.9102 52.8555C46.0898 52.6094 46.3242 52.3633 46.6133 52.1172C46.9062 51.8711 47.2637 51.5938 47.6855 51.2852C47.9902 51.0664 48.2441 50.8574 48.4473 50.6582C48.6543 50.459 48.8203 50.2598 48.9453 50.0605C49.0547 49.8965 49.1387 49.707 49.1973 49.4922C49.2598 49.2773 49.291 49.0566 49.291 48.8301C49.291 48.3691 49.1582 47.9941 48.8926 47.7051C48.627 47.416 48.2617 47.2715 47.7969 47.2715C47.4219 47.2715 47.0684 47.3418 46.7363 47.4824C46.4082 47.623 46.1016 47.8398 45.8164 48.1328L45.2305 47.5703C45.5977 47.1914 45.9941 46.9121 46.4199 46.7324C46.8457 46.5488 47.3223 46.457 47.8496 46.457C48.6387 46.457 49.2383 46.6875 49.6484 47.1484C50.0625 47.6094 50.2695 48.1426 50.2695 48.748C50.2695 49.0566 50.2266 49.3555 50.1406 49.6445C50.0586 49.9297 49.9414 50.1836 49.7891 50.4062C49.6328 50.6484 49.4414 50.8809 49.2148 51.1035C48.9883 51.3262 48.7188 51.5527 48.4062 51.7832C48.0117 52.0566 47.6855 52.291 47.4277 52.4863C47.1738 52.6816 46.9727 52.8633 46.8242 53.0312C46.6719 53.2031 46.5645 53.375 46.502 53.5469C46.4395 53.7188 46.4082 53.916 46.4082 54.1387H50.5918V55H45.4062ZM59.6621 55H58.7012V54.0625H58.6777C58.4707 54.4219 58.2148 54.6914 57.9102 54.8711C57.6094 55.0508 57.2578 55.1406 56.8555 55.1406C56.293 55.1406 55.8379 54.9766 55.4902 54.6484C55.1426 54.3203 54.9688 53.8848 54.9688 53.3418C54.9688 52.8301 55.1445 52.4062 55.4961 52.0703C55.8477 51.7344 56.3457 51.5195 56.9902 51.4258L58.7012 51.1973V51.0625C58.7012 50.5586 58.584 50.2012 58.3496 49.9902C58.1152 49.7754 57.8027 49.668 57.4121 49.668C57.0996 49.668 56.7988 49.7266 56.5098 49.8438C56.2207 49.9609 55.9492 50.1406 55.6953 50.3828L55.1328 49.8027C55.4688 49.4785 55.8262 49.2402 56.2051 49.0879C56.584 48.9355 57.0059 48.8594 57.4707 48.8594C58.1973 48.8594 58.7441 49.0469 59.1113 49.4219C59.4785 49.793 59.6621 50.3516 59.6621 51.0977V55ZM58.7012 52.5625V51.9648L57.2539 52.1641C56.8125 52.2266 56.4805 52.3379 56.2578 52.498C56.0352 52.6582 55.9238 52.9102 55.9238 53.2539C55.9238 53.6133 56.0273 53.8887 56.2344 54.0801C56.4453 54.2676 56.7012 54.3613 57.002 54.3613C57.5215 54.3613 57.9336 54.1914 58.2383 53.8516C58.5469 53.5117 58.7012 53.082 58.7012 52.5625ZM62.5039 54.1328H62.4805V57.7598H61.5195V49H62.4805V50.0547H62.5039C62.7422 49.6562 63.0332 49.3574 63.377 49.1582C63.7246 48.959 64.125 48.8594 64.5781 48.8594C65.3516 48.8594 65.9551 49.1289 66.3887 49.668C66.8223 50.2031 67.0391 50.9219 67.0391 51.8242C67.0391 52.8281 66.7949 53.6328 66.3066 54.2383C65.8184 54.8398 65.1504 55.1406 64.3027 55.1406C63.916 55.1406 63.5723 55.0566 63.2715 54.8887C62.9707 54.7207 62.7148 54.4688 62.5039 54.1328ZM62.4805 51.7129V52.5508C62.4805 53.0469 62.6406 53.4688 62.9609 53.8164C63.2852 54.1602 63.6953 54.332 64.1914 54.332C64.7734 54.332 65.2285 54.1094 65.5566 53.6641C65.8887 53.2188 66.0547 52.5996 66.0547 51.8066C66.0547 51.1387 65.9004 50.6152 65.5918 50.2363C65.2832 49.8574 64.8652 49.668 64.3379 49.668C63.7793 49.668 63.3301 49.8633 62.9902 50.2539C62.6504 50.6406 62.4805 51.127 62.4805 51.7129ZM69.5586 54.1328H69.5352V57.7598H68.5742V49H69.5352V50.0547H69.5586C69.7969 49.6562 70.0879 49.3574 70.4316 49.1582C70.7793 48.959 71.1797 48.8594 71.6328 48.8594C72.4062 48.8594 73.0098 49.1289 73.4434 49.668C73.877 50.2031 74.0938 50.9219 74.0938 51.8242C74.0938 52.8281 73.8496 53.6328 73.3613 54.2383C72.873 54.8398 72.2051 55.1406 71.3574 55.1406C70.9707 55.1406 70.627 55.0566 70.3262 54.8887C70.0254 54.7207 69.7695 54.4688 69.5586 54.1328ZM69.5352 51.7129V52.5508C69.5352 53.0469 69.6953 53.4688 70.0156 53.8164C70.3398 54.1602 70.75 54.332 71.2461 54.332C71.8281 54.332 72.2832 54.1094 72.6113 53.6641C72.9434 53.2188 73.1094 52.5996 73.1094 51.8066C73.1094 51.1387 72.9551 50.6152 72.6465 50.2363C72.3379 49.8574 71.9199 49.668 71.3926 49.668C70.834 49.668 70.3848 49.8633 70.0449 50.2539C69.7051 50.6406 69.5352 51.127 69.5352 51.7129ZM79.4141 47.5059C79.2266 47.5059 79.0684 47.4434 78.9395 47.3184C78.8145 47.1934 78.752 47.0391 78.752 46.8555C78.752 46.6719 78.8145 46.5176 78.9395 46.3926C79.0684 46.2676 79.2266 46.2051 79.4141 46.2051C79.6016 46.2051 79.7578 46.2676 79.8828 46.3926C80.0117 46.5176 80.0762 46.6719 80.0762 46.8555C80.0762 47.0391 80.0117 47.1934 79.8828 47.3184C79.7578 47.4434 79.6016 47.5059 79.4141 47.5059ZM79.8828 55H78.9219V49H79.8828V55ZM81.2656 54.5488L81.7227 53.8105C81.9844 53.9824 82.2402 54.1133 82.4902 54.2031C82.7402 54.2891 83.0098 54.332 83.2988 54.332C83.709 54.332 84.0156 54.2539 84.2188 54.0977C84.4258 53.9414 84.5293 53.7109 84.5293 53.4062C84.5293 53.1602 84.4375 52.9531 84.2539 52.7852C84.0742 52.6133 83.7832 52.4766 83.3809 52.375C82.6777 52.1953 82.1758 51.9648 81.875 51.6836C81.5742 51.4023 81.4238 51.0371 81.4238 50.5879C81.4238 50.0957 81.6094 49.6855 81.9805 49.3574C82.3516 49.0254 82.8691 48.8594 83.5332 48.8594C83.8535 48.8594 84.1582 48.9004 84.4473 48.9824C84.7363 49.0645 85.0312 49.2051 85.332 49.4043L84.9043 50.1309C84.6309 49.959 84.3848 49.8398 84.166 49.7734C83.9512 49.7031 83.7324 49.668 83.5098 49.668C83.123 49.668 82.834 49.7402 82.6426 49.8848C82.4551 50.0254 82.3613 50.2305 82.3613 50.5C82.3613 50.7695 82.459 50.9727 82.6543 51.1094C82.8496 51.2461 83.1797 51.373 83.6445 51.4902C84.2539 51.6426 84.709 51.8672 85.0098 52.1641C85.3145 52.457 85.4668 52.8496 85.4668 53.3418C85.4668 53.8965 85.2695 54.3359 84.875 54.6602C84.4844 54.9805 83.9473 55.1406 83.2637 55.1406C82.8965 55.1406 82.543 55.0898 82.2031 54.9883C81.8672 54.8867 81.5547 54.7402 81.2656 54.5488ZM89.4336 55.1406C88.5469 55.1406 87.8379 54.8613 87.3066 54.3027C86.7793 53.7402 86.5156 52.9961 86.5156 52.0703C86.5156 51.0664 86.7891 50.2812 87.3359 49.7148C87.8828 49.1484 88.6289 48.8633 89.5742 48.8594C90.4688 48.8555 91.166 49.1309 91.666 49.6855C92.1699 50.2402 92.4219 51.0039 92.4219 51.9766C92.4219 52.9375 92.1504 53.7051 91.6074 54.2793C91.0684 54.8535 90.3438 55.1406 89.4336 55.1406ZM89.5039 54.332C90.125 54.332 90.6016 54.1309 90.9336 53.7285C91.2695 53.3223 91.4375 52.75 91.4375 52.0117C91.4375 51.2578 91.2695 50.6797 90.9336 50.2773C90.5977 49.8711 90.1211 49.668 89.5039 49.668C88.8867 49.668 88.3984 49.8789 88.0391 50.3008C87.6797 50.7227 87.5 51.3008 87.5 52.0352C87.5 52.7461 87.6816 53.3066 88.0449 53.7168C88.4082 54.127 88.8945 54.332 89.5039 54.332ZM93.957 55V46.1172H94.918V55H93.957ZM101.111 55H100.15V54.0625H100.127C99.9199 54.4219 99.6641 54.6914 99.3594 54.8711C99.0586 55.0508 98.707 55.1406 98.3047 55.1406C97.7422 55.1406 97.2871 54.9766 96.9395 54.6484C96.5918 54.3203 96.418 53.8848 96.418 53.3418C96.418 52.8301 96.5938 52.4062 96.9453 52.0703C97.2969 51.7344 97.7949 51.5195 98.4395 51.4258L100.15 51.1973V51.0625C100.15 50.5586 100.033 50.2012 99.7988 49.9902C99.5645 49.7754 99.252 49.668 98.8613 49.668C98.5488 49.668 98.248 49.7266 97.959 49.8438C97.6699 49.9609 97.3984 50.1406 97.1445 50.3828L96.582 49.8027C96.918 49.4785 97.2754 49.2402 97.6543 49.0879C98.0332 48.9355 98.4551 48.8594 98.9199 48.8594C99.6465 48.8594 100.193 49.0469 100.561 49.4219C100.928 49.793 101.111 50.3516 101.111 51.0977V55ZM100.15 52.5625V51.9648L98.7031 52.1641C98.2617 52.2266 97.9297 52.3379 97.707 52.498C97.4844 52.6582 97.373 52.9102 97.373 53.2539C97.373 53.6133 97.4766 53.8887 97.6836 54.0801C97.8945 54.2676 98.1504 54.3613 98.4512 54.3613C98.9707 54.3613 99.3828 54.1914 99.6875 53.8516C99.9961 53.5117 100.15 53.082 100.15 52.5625ZM105.828 54.9414C105.664 55.0078 105.502 55.0566 105.342 55.0879C105.186 55.123 105.008 55.1406 104.809 55.1406C104.332 55.1406 103.957 55.002 103.684 54.7246C103.414 54.4434 103.279 54.0293 103.279 53.4824V49.8203H102.248V49H103.279V47.5352L104.24 47.2246V49H105.752V49.8203H104.24V53.3301C104.24 53.6934 104.309 53.9512 104.445 54.1035C104.586 54.2559 104.779 54.332 105.025 54.332C105.135 54.332 105.238 54.3184 105.336 54.291C105.438 54.2637 105.523 54.2324 105.594 54.1973L105.828 54.9414ZM107.527 47.5059C107.34 47.5059 107.182 47.4434 107.053 47.3184C106.928 47.1934 106.865 47.0391 106.865 46.8555C106.865 46.6719 106.928 46.5176 107.053 46.3926C107.182 46.2676 107.34 46.2051 107.527 46.2051C107.715 46.2051 107.871 46.2676 107.996 46.3926C108.125 46.5176 108.189 46.6719 108.189 46.8555C108.189 47.0391 108.125 47.1934 107.996 47.3184C107.871 47.4434 107.715 47.5059 107.527 47.5059ZM107.996 55H107.035V49H107.996V55ZM112.449 55.1406C111.562 55.1406 110.854 54.8613 110.322 54.3027C109.795 53.7402 109.531 52.9961 109.531 52.0703C109.531 51.0664 109.805 50.2812 110.352 49.7148C110.898 49.1484 111.645 48.8633 112.59 48.8594C113.484 48.8555 114.182 49.1309 114.682 49.6855C115.186 50.2402 115.438 51.0039 115.438 51.9766C115.438 52.9375 115.166 53.7051 114.623 54.2793C114.084 54.8535 113.359 55.1406 112.449 55.1406ZM112.52 54.332C113.141 54.332 113.617 54.1309 113.949 53.7285C114.285 53.3223 114.453 52.75 114.453 52.0117C114.453 51.2578 114.285 50.6797 113.949 50.2773C113.613 49.8711 113.137 49.668 112.52 49.668C111.902 49.668 111.414 49.8789 111.055 50.3008C110.695 50.7227 110.516 51.3008 110.516 52.0352C110.516 52.7461 110.697 53.3066 111.061 53.7168C111.424 54.127 111.91 54.332 112.52 54.332ZM121.953 55H120.992V51.5781C120.992 50.9414 120.875 50.4648 120.641 50.1484C120.41 49.8281 120.062 49.668 119.598 49.668C119.117 49.668 118.719 49.8496 118.402 50.2129C118.09 50.5723 117.934 51.0273 117.934 51.5781V55H116.973V49H117.934V49.9961H117.957C118.184 49.6172 118.461 49.334 118.789 49.1465C119.117 48.9551 119.496 48.8594 119.926 48.8594C120.582 48.8594 121.084 49.0723 121.432 49.498C121.779 49.9199 121.953 50.5312 121.953 51.332V55ZM14.1289 73L17.3516 64.5977H18.3711L21.6055 73H20.5156L19.666 70.75H16.0273L15.2246 73H14.1289ZM16.3555 69.8652H19.3438L17.9844 66.1797C17.9609 66.1211 17.9395 66.0449 17.9199 65.9512C17.9004 65.8574 17.8789 65.7461 17.8555 65.6172H17.832C17.8125 65.7344 17.791 65.8398 17.7676 65.9336C17.748 66.0273 17.7246 66.1094 17.6973 66.1797L16.3555 69.8652ZM23.7031 72.1328H23.6797V75.7598H22.7188V67H23.6797V68.0547H23.7031C23.9414 67.6562 24.2324 67.3574 24.5762 67.1582C24.9238 66.959 25.3242 66.8594 25.7773 66.8594C26.5508 66.8594 27.1543 67.1289 27.5879 67.668C28.0215 68.2031 28.2383 68.9219 28.2383 69.8242C28.2383 70.8281 27.9941 71.6328 27.5059 72.2383C27.0176 72.8398 26.3496 73.1406 25.502 73.1406C25.1152 73.1406 24.7715 73.0566 24.4707 72.8887C24.1699 72.7207 23.9141 72.4688 23.7031 72.1328ZM23.6797 69.7129V70.5508C23.6797 71.0469 23.8398 71.4688 24.1602 71.8164C24.4844 72.1602 24.8945 72.332 25.3906 72.332C25.9727 72.332 26.4277 72.1094 26.7559 71.6641C27.0879 71.2188 27.2539 70.5996 27.2539 69.8066C27.2539 69.1387 27.0996 68.6152 26.791 68.2363C26.4824 67.8574 26.0645 67.668 25.5371 67.668C24.9785 67.668 24.5293 67.8633 24.1895 68.2539C23.8496 68.6406 23.6797 69.127 23.6797 69.7129ZM30.7578 72.1328H30.7344V75.7598H29.7734V67H30.7344V68.0547H30.7578C30.9961 67.6562 31.2871 67.3574 31.6309 67.1582C31.9785 66.959 32.3789 66.8594 32.832 66.8594C33.6055 66.8594 34.209 67.1289 34.6426 67.668C35.0762 68.2031 35.293 68.9219 35.293 69.8242C35.293 70.8281 35.0488 71.6328 34.5605 72.2383C34.0723 72.8398 33.4043 73.1406 32.5566 73.1406C32.1699 73.1406 31.8262 73.0566 31.5254 72.8887C31.2246 72.7207 30.9688 72.4688 30.7578 72.1328ZM30.7344 69.7129V70.5508C30.7344 71.0469 30.8945 71.4688 31.2148 71.8164C31.5391 72.1602 31.9492 72.332 32.4453 72.332C33.0273 72.332 33.4824 72.1094 33.8105 71.6641C34.1426 71.2188 34.3086 70.5996 34.3086 69.8066C34.3086 69.1387 34.1543 68.6152 33.8457 68.2363C33.5371 67.8574 33.1191 67.668 32.5918 67.668C32.0332 67.668 31.584 67.8633 31.2441 68.2539C30.9043 68.6406 30.7344 69.127 30.7344 69.7129ZM44.3398 72.6426C44.0625 72.8145 43.7852 72.9395 43.5078 73.0176C43.2305 73.0996 42.9277 73.1406 42.5996 73.1406C41.7559 73.1406 41.0625 72.8789 40.5195 72.3555C39.9805 71.832 39.7109 71.0898 39.7109 70.1289C39.7109 69.1523 39.9824 68.3633 40.5254 67.7617C41.0723 67.1602 41.8223 66.8594 42.7754 66.8594C43.084 66.8594 43.377 66.8965 43.6543 66.9707C43.9355 67.0449 44.2188 67.166 44.5039 67.334L44.0996 68.0371C43.877 67.9121 43.6582 67.8203 43.4434 67.7617C43.2285 67.7031 42.9941 67.6738 42.7402 67.6738C42.0801 67.6738 41.5742 67.8945 41.2227 68.3359C40.8711 68.7773 40.6953 69.3379 40.6953 70.0176C40.6953 70.7676 40.8789 71.3398 41.2461 71.7344C41.6172 72.1289 42.0957 72.3262 42.6816 72.3262C42.873 72.3262 43.0723 72.2969 43.2793 72.2383C43.4902 72.1758 43.7012 72.0801 43.9121 71.9512L44.3398 72.6426ZM48.1719 73.1406C47.2852 73.1406 46.5762 72.8613 46.0449 72.3027C45.5176 71.7402 45.2539 70.9961 45.2539 70.0703C45.2539 69.0664 45.5273 68.2812 46.0742 67.7148C46.6211 67.1484 47.3672 66.8633 48.3125 66.8594C49.207 66.8555 49.9043 67.1309 50.4043 67.6855C50.9082 68.2402 51.1602 69.0039 51.1602 69.9766C51.1602 70.9375 50.8887 71.7051 50.3457 72.2793C49.8066 72.8535 49.082 73.1406 48.1719 73.1406ZM48.2422 72.332C48.8633 72.332 49.3398 72.1309 49.6719 71.7285C50.0078 71.3223 50.1758 70.75 50.1758 70.0117C50.1758 69.2578 50.0078 68.6797 49.6719 68.2773C49.3359 67.8711 48.8594 67.668 48.2422 67.668C47.625 67.668 47.1367 67.8789 46.7773 68.3008C46.418 68.7227 46.2383 69.3008 46.2383 70.0352C46.2383 70.7461 46.4199 71.3066 46.7832 71.7168C47.1465 72.127 47.6328 72.332 48.2422 72.332ZM57.6758 73H56.7148V69.5781C56.7148 68.9414 56.5977 68.4648 56.3633 68.1484C56.1328 67.8281 55.7852 67.668 55.3203 67.668C54.8398 67.668 54.4414 67.8496 54.125 68.2129C53.8125 68.5723 53.6562 69.0273 53.6562 69.5781V73H52.6953V67H53.6562V67.9961H53.6797C53.9062 67.6172 54.1836 67.334 54.5117 67.1465C54.8398 66.9551 55.2188 66.8594 55.6484 66.8594C56.3047 66.8594 56.8066 67.0723 57.1543 67.498C57.502 67.9199 57.6758 68.5312 57.6758 69.332V73ZM62.3516 72.9414C62.1875 73.0078 62.0254 73.0566 61.8652 73.0879C61.709 73.123 61.5312 73.1406 61.332 73.1406C60.8555 73.1406 60.4805 73.002 60.207 72.7246C59.9375 72.4434 59.8027 72.0293 59.8027 71.4824V67.8203H58.7715V67H59.8027V65.5352L60.7637 65.2246V67H62.2754V67.8203H60.7637V71.3301C60.7637 71.6934 60.832 71.9512 60.9688 72.1035C61.1094 72.2559 61.3027 72.332 61.5488 72.332C61.6582 72.332 61.7617 72.3184 61.8594 72.291C61.9609 72.2637 62.0469 72.2324 62.1172 72.1973L62.3516 72.9414ZM67.8066 73H66.8457V72.0625H66.8223C66.6152 72.4219 66.3594 72.6914 66.0547 72.8711C65.7539 73.0508 65.4023 73.1406 65 73.1406C64.4375 73.1406 63.9824 72.9766 63.6348 72.6484C63.2871 72.3203 63.1133 71.8848 63.1133 71.3418C63.1133 70.8301 63.2891 70.4062 63.6406 70.0703C63.9922 69.7344 64.4902 69.5195 65.1348 69.4258L66.8457 69.1973V69.0625C66.8457 68.5586 66.7285 68.2012 66.4941 67.9902C66.2598 67.7754 65.9473 67.668 65.5566 67.668C65.2441 67.668 64.9434 67.7266 64.6543 67.8438C64.3652 67.9609 64.0938 68.1406 63.8398 68.3828L63.2773 67.8027C63.6133 67.4785 63.9707 67.2402 64.3496 67.0879C64.7285 66.9355 65.1504 66.8594 65.6152 66.8594C66.3418 66.8594 66.8887 67.0469 67.2559 67.4219C67.623 67.793 67.8066 68.3516 67.8066 69.0977V73ZM66.8457 70.5625V69.9648L65.3984 70.1641C64.957 70.2266 64.625 70.3379 64.4023 70.498C64.1797 70.6582 64.0684 70.9102 64.0684 71.2539C64.0684 71.6133 64.1719 71.8887 64.3789 72.0801C64.5898 72.2676 64.8457 72.3613 65.1465 72.3613C65.666 72.3613 66.0781 72.1914 66.3828 71.8516C66.6914 71.5117 66.8457 71.082 66.8457 70.5625ZM70.1562 65.5059C69.9688 65.5059 69.8105 65.4434 69.6816 65.3184C69.5566 65.1934 69.4941 65.0391 69.4941 64.8555C69.4941 64.6719 69.5566 64.5176 69.6816 64.3926C69.8105 64.2676 69.9688 64.2051 70.1562 64.2051C70.3438 64.2051 70.5 64.2676 70.625 64.3926C70.7539 64.5176 70.8184 64.6719 70.8184 64.8555C70.8184 65.0391 70.7539 65.1934 70.625 65.3184C70.5 65.4434 70.3438 65.5059 70.1562 65.5059ZM70.625 73H69.6641V67H70.625V73ZM77.5508 73H76.5898V69.5781C76.5898 68.9414 76.4727 68.4648 76.2383 68.1484C76.0078 67.8281 75.6602 67.668 75.1953 67.668C74.7148 67.668 74.3164 67.8496 74 68.2129C73.6875 68.5723 73.5312 69.0273 73.5312 69.5781V73H72.5703V67H73.5312V67.9961H73.5547C73.7812 67.6172 74.0586 67.334 74.3867 67.1465C74.7148 66.9551 75.0938 66.8594 75.5234 66.8594C76.1797 66.8594 76.6816 67.0723 77.0293 67.498C77.377 67.9199 77.5508 68.5312 77.5508 69.332V73ZM84.1895 70.2168H79.9473C79.9629 70.8926 80.1406 71.4141 80.4805 71.7812C80.8242 72.1445 81.3047 72.3262 81.9219 72.3262C82.1914 72.3262 82.4609 72.2871 82.7305 72.209C83.0039 72.127 83.2734 71.998 83.5391 71.8223L83.9844 72.5078C83.6445 72.7266 83.3047 72.8867 82.9648 72.9883C82.625 73.0898 82.252 73.1406 81.8457 73.1406C80.9395 73.1406 80.2324 72.8711 79.7246 72.332C79.2168 71.793 78.9609 71.041 78.957 70.0762C78.9531 69.1113 79.207 68.334 79.7188 67.7441C80.2344 67.1543 80.9023 66.8594 81.7227 66.8594C82.5039 66.8594 83.1094 67.1152 83.5391 67.627C83.9727 68.1348 84.1895 68.8398 84.1895 69.7422V70.2168ZM83.2051 69.4316C83.2012 68.877 83.0664 68.4453 82.8008 68.1367C82.5352 67.8242 82.1699 67.668 81.7051 67.668C81.248 67.668 80.8594 67.8281 80.5391 68.1484C80.2227 68.4648 80.0293 68.8926 79.959 69.4316H83.2051ZM88.6074 67.8203C88.5332 67.7969 88.4668 67.7812 88.4082 67.7734C88.3496 67.7617 88.2754 67.7559 88.1855 67.7559C87.6973 67.7559 87.3125 67.9648 87.0312 68.3828C86.75 68.7969 86.6094 69.3164 86.6094 69.9414V73H85.6484V67H86.6094V68.1895H86.6328C86.7695 67.7676 86.9785 67.4473 87.2598 67.2285C87.541 67.0059 87.8652 66.8945 88.2324 66.8945C88.3535 66.8945 88.4551 66.9004 88.5371 66.9121C88.623 66.9238 88.6992 66.9414 88.7656 66.9648L88.6074 67.8203ZM89.2578 72.5488L89.7148 71.8105C89.9766 71.9824 90.2324 72.1133 90.4824 72.2031C90.7324 72.2891 91.002 72.332 91.291 72.332C91.7012 72.332 92.0078 72.2539 92.2109 72.0977C92.418 71.9414 92.5215 71.7109 92.5215 71.4062C92.5215 71.1602 92.4297 70.9531 92.2461 70.7852C92.0664 70.6133 91.7754 70.4766 91.373 70.375C90.6699 70.1953 90.168 69.9648 89.8672 69.6836C89.5664 69.4023 89.416 69.0371 89.416 68.5879C89.416 68.0957 89.6016 67.6855 89.9727 67.3574C90.3438 67.0254 90.8613 66.8594 91.5254 66.8594C91.8457 66.8594 92.1504 66.9004 92.4395 66.9824C92.7285 67.0645 93.0234 67.2051 93.3242 67.4043L92.8965 68.1309C92.623 67.959 92.377 67.8398 92.1582 67.7734C91.9434 67.7031 91.7246 67.668 91.502 67.668C91.1152 67.668 90.8262 67.7402 90.6348 67.8848C90.4473 68.0254 90.3535 68.2305 90.3535 68.5C90.3535 68.7695 90.4512 68.9727 90.6465 69.1094C90.8418 69.2461 91.1719 69.373 91.6367 69.4902C92.2461 69.6426 92.7012 69.8672 93.002 70.1641C93.3066 70.457 93.459 70.8496 93.459 71.3418C93.459 71.8965 93.2617 72.3359 92.8672 72.6602C92.4766 72.9805 91.9395 73.1406 91.2559 73.1406C90.8887 73.1406 90.5352 73.0898 90.1953 72.9883C89.8594 72.8867 89.5469 72.7402 89.2578 72.5488ZM25.0391 82.5977L22.666 91H21.5117L19.7832 84.8594C19.748 84.7266 19.7188 84.5898 19.6953 84.4492C19.6719 84.3047 19.6562 84.1562 19.6484 84.0039H19.625C19.6133 84.1484 19.5938 84.291 19.5664 84.4316C19.543 84.5723 19.5117 84.7109 19.4727 84.8477L17.7324 91H16.5898L14.1289 82.5977H15.2129L17 89.043C17.0391 89.1758 17.0703 89.3125 17.0938 89.4531C17.1172 89.5938 17.1328 89.7383 17.1406 89.8867H17.1699C17.1816 89.7812 17.2012 89.6582 17.2285 89.5176C17.2598 89.377 17.3008 89.2188 17.3516 89.043L19.209 82.5977H20.1523L21.9336 89.0898C21.9648 89.1992 21.9922 89.3203 22.0156 89.4531C22.0391 89.582 22.0586 89.7227 22.0742 89.875H22.0977C22.1055 89.7734 22.123 89.6562 22.1504 89.5234C22.1777 89.3867 22.2129 89.2344 22.2559 89.0664L23.9727 82.5977H25.0391ZM26.6797 83.5059C26.4922 83.5059 26.334 83.4434 26.2051 83.3184C26.0801 83.1934 26.0176 83.0391 26.0176 82.8555C26.0176 82.6719 26.0801 82.5176 26.2051 82.3926C26.334 82.2676 26.4922 82.2051 26.6797 82.2051C26.8672 82.2051 27.0234 82.2676 27.1484 82.3926C27.2773 82.5176 27.3418 82.6719 27.3418 82.8555C27.3418 83.0391 27.2773 83.1934 27.1484 83.3184C27.0234 83.4434 26.8672 83.5059 26.6797 83.5059ZM27.1484 91H26.1875V85H27.1484V91ZM34.0742 91H33.1133V87.5781C33.1133 86.9414 32.9961 86.4648 32.7617 86.1484C32.5312 85.8281 32.1836 85.668 31.7188 85.668C31.2383 85.668 30.8398 85.8496 30.5234 86.2129C30.2109 86.5723 30.0547 87.0273 30.0547 87.5781V91H29.0938V85H30.0547V85.9961H30.0781C30.3047 85.6172 30.582 85.334 30.9102 85.1465C31.2383 84.9551 31.6172 84.8594 32.0469 84.8594C32.7031 84.8594 33.2051 85.0723 33.5527 85.498C33.9004 85.9199 34.0742 86.5312 34.0742 87.332V91ZM40.0273 89.9805C39.8047 90.3672 39.5215 90.6582 39.1777 90.8535C38.8379 91.0449 38.4336 91.1406 37.9648 91.1406C37.2109 91.1406 36.6074 90.873 36.1543 90.3379C35.7051 89.7988 35.4805 89.0664 35.4805 88.1406C35.4805 87.1484 35.7305 86.3535 36.2305 85.7559C36.7305 85.1582 37.3965 84.8594 38.2285 84.8594C38.6426 84.8594 38.998 84.9414 39.2949 85.1055C39.5957 85.2656 39.8398 85.5078 40.0273 85.832H40.0508V82.1172H41.0117V91H40.0508V89.9805H40.0273ZM36.4648 88.0938C36.4648 88.7852 36.625 89.332 36.9453 89.7344C37.2695 90.1328 37.7031 90.332 38.2461 90.332C38.7852 90.332 39.2207 90.1387 39.5527 89.752C39.8848 89.3652 40.0508 88.877 40.0508 88.2871V87.4023C40.0508 86.918 39.8887 86.5078 39.5645 86.1719C39.2441 85.8359 38.8398 85.668 38.3516 85.668C37.7656 85.668 37.3047 85.8828 36.9688 86.3125C36.6328 86.7422 36.4648 87.3359 36.4648 88.0938ZM45.4648 91.1406C44.5781 91.1406 43.8691 90.8613 43.3379 90.3027C42.8105 89.7402 42.5469 88.9961 42.5469 88.0703C42.5469 87.0664 42.8203 86.2812 43.3672 85.7148C43.9141 85.1484 44.6602 84.8633 45.6055 84.8594C46.5 84.8555 47.1973 85.1309 47.6973 85.6855C48.2012 86.2402 48.4531 87.0039 48.4531 87.9766C48.4531 88.9375 48.1816 89.7051 47.6387 90.2793C47.0996 90.8535 46.375 91.1406 45.4648 91.1406ZM45.5352 90.332C46.1562 90.332 46.6328 90.1309 46.9648 89.7285C47.3008 89.3223 47.4688 88.75 47.4688 88.0117C47.4688 87.2578 47.3008 86.6797 46.9648 86.2773C46.6289 85.8711 46.1523 85.668 45.5352 85.668C44.918 85.668 44.4297 85.8789 44.0703 86.3008C43.7109 86.7227 43.5312 87.3008 43.5312 88.0352C43.5312 88.7461 43.7129 89.3066 44.0762 89.7168C44.4395 90.127 44.9258 90.332 45.5352 90.332ZM57.5469 85L55.748 91H54.752L53.5098 86.6934C53.4785 86.584 53.457 86.4922 53.4453 86.418C53.4375 86.3398 53.4297 86.25 53.4219 86.1484H53.3984C53.3906 86.25 53.377 86.3379 53.3574 86.4121C53.3379 86.4863 53.3105 86.5801 53.2754 86.6934L51.9336 91H50.9727L49.1562 85H50.1641L51.4062 89.5117C51.4258 89.5781 51.4414 89.6562 51.4531 89.7461C51.4688 89.8359 51.4805 89.9375 51.4883 90.0508H51.5352C51.543 89.9648 51.5547 89.877 51.5703 89.7871C51.5859 89.6934 51.6094 89.5977 51.6406 89.5L53.0234 85H53.9023L55.1445 89.5234C55.1641 89.5977 55.1797 89.6797 55.1914 89.7695C55.207 89.8555 55.2207 89.9531 55.2324 90.0625H55.2793C55.2832 89.9844 55.293 89.9004 55.3086 89.8105C55.3281 89.7207 55.3516 89.625 55.3789 89.5234L56.5977 85H57.5469ZM58.0977 90.5488L58.5547 89.8105C58.8164 89.9824 59.0723 90.1133 59.3223 90.2031C59.5723 90.2891 59.8418 90.332 60.1309 90.332C60.541 90.332 60.8477 90.2539 61.0508 90.0977C61.2578 89.9414 61.3613 89.7109 61.3613 89.4062C61.3613 89.1602 61.2695 88.9531 61.0859 88.7852C60.9062 88.6133 60.6152 88.4766 60.2129 88.375C59.5098 88.1953 59.0078 87.9648 58.707 87.6836C58.4062 87.4023 58.2559 87.0371 58.2559 86.5879C58.2559 86.0957 58.4414 85.6855 58.8125 85.3574C59.1836 85.0254 59.7012 84.8594 60.3652 84.8594C60.6855 84.8594 60.9902 84.9004 61.2793 84.9824C61.5684 85.0645 61.8633 85.2051 62.1641 85.4043L61.7363 86.1309C61.4629 85.959 61.2168 85.8398 60.998 85.7734C60.7832 85.7031 60.5645 85.668 60.3418 85.668C59.9551 85.668 59.666 85.7402 59.4746 85.8848C59.2871 86.0254 59.1934 86.2305 59.1934 86.5C59.1934 86.7695 59.291 86.9727 59.4863 87.1094C59.6816 87.2461 60.0117 87.373 60.4766 87.4902C61.0859 87.6426 61.541 87.8672 61.8418 88.1641C62.1465 88.457 62.2988 88.8496 62.2988 89.3418C62.2988 89.8965 62.1016 90.3359 61.707 90.6602C61.3164 90.9805 60.7793 91.1406 60.0957 91.1406C59.7285 91.1406 59.375 91.0898 59.0352 90.9883C58.6992 90.8867 58.3867 90.7402 58.0977 90.5488ZM66.4531 90.3555L66.9336 89.6172C67.2773 89.8398 67.6211 90.002 67.9648 90.1035C68.3086 90.2051 68.709 90.2559 69.166 90.2559C69.6777 90.2559 70.0938 90.1367 70.4141 89.8984C70.7383 89.6562 70.9004 89.3047 70.9004 88.8438C70.9004 88.4336 70.7637 88.1055 70.4902 87.8594C70.2207 87.6133 69.7676 87.375 69.1309 87.1445C68.3418 86.8594 67.7559 86.5391 67.373 86.1836C66.9941 85.8242 66.8047 85.3516 66.8047 84.7656C66.8047 84.0781 67.0508 83.5215 67.543 83.0957C68.0391 82.6699 68.6895 82.457 69.4941 82.457C69.8691 82.457 70.2363 82.498 70.5957 82.5801C70.9551 82.6582 71.3262 82.7871 71.709 82.9668L71.3398 83.7578C71.0195 83.6094 70.707 83.502 70.4023 83.4355C70.1016 83.3691 69.7754 83.3359 69.4238 83.3359C68.9199 83.3359 68.5254 83.4551 68.2402 83.6934C67.9551 83.9277 67.8125 84.2539 67.8125 84.6719C67.8125 85.0391 67.9434 85.332 68.2051 85.5508C68.4668 85.7695 68.9121 85.9922 69.541 86.2188C70.3848 86.5234 70.9902 86.8633 71.3574 87.2383C71.7246 87.6133 71.9082 88.1191 71.9082 88.7559C71.9082 89.4355 71.6621 90.0039 71.1699 90.4609C70.6777 90.9141 69.9863 91.1406 69.0957 91.1406C68.5957 91.1406 68.1348 91.0781 67.7129 90.9531C67.291 90.8281 66.8711 90.6289 66.4531 90.3555ZM77.6738 91H76.7129V90.0625H76.6895C76.4824 90.4219 76.2266 90.6914 75.9219 90.8711C75.6211 91.0508 75.2695 91.1406 74.8672 91.1406C74.3047 91.1406 73.8496 90.9766 73.502 90.6484C73.1543 90.3203 72.9805 89.8848 72.9805 89.3418C72.9805 88.8301 73.1562 88.4062 73.5078 88.0703C73.8594 87.7344 74.3574 87.5195 75.002 87.4258L76.7129 87.1973V87.0625C76.7129 86.5586 76.5957 86.2012 76.3613 85.9902C76.127 85.7754 75.8145 85.668 75.4238 85.668C75.1113 85.668 74.8105 85.7266 74.5215 85.8438C74.2324 85.9609 73.9609 86.1406 73.707 86.3828L73.1445 85.8027C73.4805 85.4785 73.8379 85.2402 74.2168 85.0879C74.5957 84.9355 75.0176 84.8594 75.4824 84.8594C76.209 84.8594 76.7559 85.0469 77.123 85.4219C77.4902 85.793 77.6738 86.3516 77.6738 87.0977V91ZM76.7129 88.5625V87.9648L75.2656 88.1641C74.8242 88.2266 74.4922 88.3379 74.2695 88.498C74.0469 88.6582 73.9355 88.9102 73.9355 89.2539C73.9355 89.6133 74.0391 89.8887 74.2461 90.0801C74.457 90.2676 74.7129 90.3613 75.0137 90.3613C75.5332 90.3613 75.9453 90.1914 76.25 89.8516C76.5586 89.5117 76.7129 89.082 76.7129 88.5625ZM84.5117 91H83.5508V87.5781C83.5508 86.9414 83.4336 86.4648 83.1992 86.1484C82.9688 85.8281 82.6211 85.668 82.1562 85.668C81.6758 85.668 81.2773 85.8496 80.9609 86.2129C80.6484 86.5723 80.4922 87.0273 80.4922 87.5781V91H79.5312V85H80.4922V85.9961H80.5156C80.7422 85.6172 81.0195 85.334 81.3477 85.1465C81.6758 84.9551 82.0547 84.8594 82.4844 84.8594C83.1406 84.8594 83.6426 85.0723 83.9902 85.498C84.3379 85.9199 84.5117 86.5312 84.5117 87.332V91ZM90.4648 89.9805C90.2422 90.3672 89.959 90.6582 89.6152 90.8535C89.2754 91.0449 88.8711 91.1406 88.4023 91.1406C87.6484 91.1406 87.0449 90.873 86.5918 90.3379C86.1426 89.7988 85.918 89.0664 85.918 88.1406C85.918 87.1484 86.168 86.3535 86.668 85.7559C87.168 85.1582 87.834 84.8594 88.666 84.8594C89.0801 84.8594 89.4355 84.9414 89.7324 85.1055C90.0332 85.2656 90.2773 85.5078 90.4648 85.832H90.4883V82.1172H91.4492V91H90.4883V89.9805H90.4648ZM86.9023 88.0938C86.9023 88.7852 87.0625 89.332 87.3828 89.7344C87.707 90.1328 88.1406 90.332 88.6836 90.332C89.2227 90.332 89.6582 90.1387 89.9902 89.752C90.3223 89.3652 90.4883 88.877 90.4883 88.2871V87.4023C90.4883 86.918 90.3262 86.5078 90.002 86.1719C89.6816 85.8359 89.2773 85.668 88.7891 85.668C88.2031 85.668 87.7422 85.8828 87.4062 86.3125C87.0703 86.7422 86.9023 87.3359 86.9023 88.0938ZM94.3789 90.2266H94.3555V91H93.3945V82.1172H94.3555V86.0547H94.3789C94.6172 85.6562 94.9082 85.3574 95.252 85.1582C95.5996 84.959 96 84.8594 96.4531 84.8594C97.2227 84.8594 97.8242 85.1289 98.2578 85.668C98.6953 86.2031 98.9141 86.9219 98.9141 87.8242C98.9141 88.8281 98.6699 89.6328 98.1816 90.2383C97.6934 90.8398 97.0254 91.1406 96.1777 91.1406C95.7832 91.1406 95.4355 91.0645 95.1348 90.9121C94.834 90.7598 94.582 90.5312 94.3789 90.2266ZM94.3555 87.7129V88.5508C94.3555 89.0469 94.5156 89.4688 94.8359 89.8164C95.1602 90.1602 95.5703 90.332 96.0664 90.332C96.6484 90.332 97.1035 90.1094 97.4316 89.6641C97.7637 89.2188 97.9297 88.5996 97.9297 87.8066C97.9297 87.1387 97.7754 86.6152 97.4668 86.2363C97.1582 85.8574 96.7402 85.668 96.2129 85.668C95.6543 85.668 95.2051 85.8633 94.8652 86.2539C94.5254 86.6406 94.3555 87.127 94.3555 87.7129ZM102.957 91.1406C102.07 91.1406 101.361 90.8613 100.83 90.3027C100.303 89.7402 100.039 88.9961 100.039 88.0703C100.039 87.0664 100.312 86.2812 100.859 85.7148C101.406 85.1484 102.152 84.8633 103.098 84.8594C103.992 84.8555 104.689 85.1309 105.189 85.6855C105.693 86.2402 105.945 87.0039 105.945 87.9766C105.945 88.9375 105.674 89.7051 105.131 90.2793C104.592 90.8535 103.867 91.1406 102.957 91.1406ZM103.027 90.332C103.648 90.332 104.125 90.1309 104.457 89.7285C104.793 89.3223 104.961 88.75 104.961 88.0117C104.961 87.2578 104.793 86.6797 104.457 86.2773C104.121 85.8711 103.645 85.668 103.027 85.668C102.41 85.668 101.922 85.8789 101.562 86.3008C101.203 86.7227 101.023 87.3008 101.023 88.0352C101.023 88.7461 101.205 89.3066 101.568 89.7168C101.932 90.127 102.418 90.332 103.027 90.332ZM111.863 85L109.848 88.0352L111.828 91H110.709L109.531 89.0547C109.492 88.9922 109.451 88.9238 109.408 88.8496C109.365 88.7754 109.318 88.6914 109.268 88.5977H109.244C109.232 88.6133 109.203 88.6602 109.156 88.7383C109.113 88.8164 109.051 88.9219 108.969 89.0547L107.768 91H106.66L108.705 88.0586L106.748 85H107.867L109.027 87.0508C109.07 87.1289 109.111 87.207 109.15 87.2852C109.193 87.3633 109.236 87.4414 109.279 87.5195H109.303C109.35 87.4414 109.396 87.3633 109.443 87.2852C109.49 87.207 109.537 87.1289 109.584 87.0508L110.803 85H111.863Z" fill="white"/>
<path d="M404.583 57C407.575 57 410 59.4251 410 62.4167V73.0178C409.431 72.9088 408.88 72.7023 408.337 72.3878C408.059 72.2263 407.78 72.0347 407.5 71.8097V66.1667H382.5V81.5833C382.5 83.1942 383.806 84.5 385.417 84.5H397.62C397.743 84.7777 397.878 85.049 398.026 85.3135C398.366 85.9208 398.766 86.4832 399.225 87H385.417C382.425 87 380 84.5748 380 81.5833V62.4167C380 59.4251 382.425 57 385.417 57H404.583ZM399.481 84.5C400.022 85.4657 400.751 86.3002 401.667 87C402.539 87.6667 403.582 88.2113 404.791 88.631C404.928 88.6785 405.076 88.6785 405.213 88.631C409.48 87.1493 411.668 84.1105 411.668 79.6407V75.4722L411.655 75.3323C411.593 75.0158 411.324 74.7778 411.002 74.7778C410.663 74.7778 410.33 74.7545 410.003 74.7075C409.13 74.5827 408.297 74.2908 407.502 73.8295C406.797 73.4212 406.122 72.8798 405.475 72.2038C405.214 71.9323 404.792 71.932 404.531 72.2033C402.874 73.9292 401.041 74.7778 399.002 74.7778C398.633 74.7778 398.335 75.0887 398.335 75.4722V79.6407L398.342 80.0828C398.398 81.7715 398.78 83.2463 399.481 84.5ZM404.583 59.5H385.417C383.806 59.5 382.5 60.8058 382.5 62.4167V63.6667H407.5V62.4167C407.5 60.8058 406.194 59.5 404.583 59.5Z" fill="#98ECFE"/>
<defs>
<filter id="filter0_d_30_200" x="0" y="0" width="435" height="135" filterUnits="userSpaceOnUse" color-interpolation-filters="sRGB">
<feFlood flood-opacity="0" result="BackgroundImageFix"/>
<feColorMatrix in="SourceAlpha" type="matrix" values="0 0 0 0 0 0 0 0 0 0 0 0 0 0 0 0 0 0 127 0" result="hardAlpha"/>
<feOffset dx="-4"/>
<feComposite in2="hardAlpha" operator="out"/>
<feColorMatrix type="matrix" values="0 0 0 0 0.596078 0 0 0 0 0.92549 0 0 0 0 0.996078 0 0 0 1 0"/>
<feBlend mode="normal" in2="BackgroundImageFix" result="effect1_dropShadow_30_200"/>
<feBlend mode="normal" in="SourceGraphic" in2="effect1_dropShadow_30_200" result="shape"/>
</filter>
</defs>
</svg>
