<svg width="429" height="135" viewBox="0 0 429 135" fill="none" xmlns="http://www.w3.org/2000/svg">
<g filter="url(#filter0_d_30_195)">
<path d="M4 15C4 6.71573 10.7157 0 19 0H414C422.284 0 429 6.71573 429 15V120C429 128.284 422.284 135 414 135H19C10.7157 135 4 128.284 4 120V15Z" fill="#162436" fill-opacity="0.8" shape-rendering="crispEdges"/>
</g>
<path d="M14.1328 37L18.3281 25.7969H20.4219L24.5859 37H22.5469L21.5859 34.2969H17.0938L16.1641 37H14.1328ZM17.5781 32.7656H21.0859L19.5312 28.3125C19.4948 28.1979 19.4635 28.0833 19.4375 27.9688C19.4115 27.849 19.3854 27.7031 19.3594 27.5312H19.3125C19.2865 27.6875 19.2578 27.8255 19.2266 27.9453C19.2005 28.0651 19.1667 28.1823 19.125 28.2969L17.5781 32.7656ZM27.7812 35.9453H27.75V40.6797H25.9297V29H27.75V30.3125H27.7812C28.0885 29.8125 28.4661 29.4375 28.9141 29.1875C29.362 28.9375 29.875 28.8125 30.4531 28.8125C31.4844 28.8125 32.2865 29.1693 32.8594 29.8828C33.4375 30.5964 33.7266 31.5573 33.7266 32.7656C33.7266 34.1042 33.3984 35.1771 32.7422 35.9844C32.0859 36.7865 31.2005 37.1875 30.0859 37.1875C29.5859 37.1875 29.1432 37.0859 28.7578 36.8828C28.3724 36.6745 28.0469 36.362 27.7812 35.9453ZM27.7266 32.6953V33.5938C27.7266 34.2083 27.9115 34.7214 28.2812 35.1328C28.651 35.5391 29.1224 35.7422 29.6953 35.7422C30.3776 35.7422 30.9089 35.4818 31.2891 34.9609C31.6693 34.4401 31.8594 33.7109 31.8594 32.7734C31.8594 31.9661 31.6849 31.3464 31.3359 30.9141C30.987 30.4766 30.4974 30.2578 29.8672 30.2578C29.2266 30.2578 28.7083 30.487 28.3125 30.9453C27.9219 31.3984 27.7266 31.9818 27.7266 32.6953ZM37.4219 35.9453H37.3906V40.6797H35.5703V29H37.3906V30.3125H37.4219C37.7292 29.8125 38.1068 29.4375 38.5547 29.1875C39.0026 28.9375 39.5156 28.8125 40.0938 28.8125C41.125 28.8125 41.9271 29.1693 42.5 29.8828C43.0781 30.5964 43.3672 31.5573 43.3672 32.7656C43.3672 34.1042 43.0391 35.1771 42.3828 35.9844C41.7266 36.7865 40.8411 37.1875 39.7266 37.1875C39.2266 37.1875 38.7839 37.0859 38.3984 36.8828C38.013 36.6745 37.6875 36.362 37.4219 35.9453ZM37.3672 32.6953V33.5938C37.3672 34.2083 37.5521 34.7214 37.9219 35.1328C38.2917 35.5391 38.763 35.7422 39.3359 35.7422C40.0182 35.7422 40.5495 35.4818 40.9297 34.9609C41.3099 34.4401 41.5 33.7109 41.5 32.7734C41.5 31.9661 41.3255 31.3464 40.9766 30.9141C40.6276 30.4766 40.138 30.2578 39.5078 30.2578C38.8672 30.2578 38.349 30.487 37.9531 30.9453C37.5625 31.3984 37.3672 31.9818 37.3672 32.6953ZM45.2109 37V25.1562H47.0312V37H45.2109ZM50.3203 27.4531C49.987 27.4531 49.7109 27.3464 49.4922 27.1328C49.2734 26.9193 49.1641 26.6562 49.1641 26.3438C49.1641 26.0208 49.2734 25.7552 49.4922 25.5469C49.7109 25.3385 49.987 25.2344 50.3203 25.2344C50.6589 25.2344 50.9375 25.3385 51.1562 25.5469C51.375 25.7552 51.4844 26.0208 51.4844 26.3438C51.4844 26.6615 51.375 26.9271 51.1562 27.1406C50.9375 27.349 50.6589 27.4531 50.3203 27.4531ZM51.2188 37H49.3984V29H51.2188V37ZM59.5781 36.5078C59.1823 36.7474 58.7891 36.9193 58.3984 37.0234C58.0078 37.1328 57.5833 37.1875 57.125 37.1875C55.8958 37.1875 54.9115 36.8281 54.1719 36.1094C53.4375 35.3906 53.0703 34.4141 53.0703 33.1797C53.0703 31.8516 53.4505 30.7917 54.2109 30C54.9766 29.2083 56.0078 28.8125 57.3047 28.8125C57.7578 28.8125 58.1693 28.862 58.5391 28.9609C58.9141 29.0547 59.2943 29.2109 59.6797 29.4297L58.9688 30.6953C58.6979 30.5443 58.4323 30.4349 58.1719 30.3672C57.9115 30.2943 57.6276 30.2578 57.3203 30.2578C56.5547 30.2578 55.9635 30.5104 55.5469 31.0156C55.1302 31.5208 54.9219 32.1901 54.9219 33.0234C54.9219 33.8984 55.1458 34.5703 55.5938 35.0391C56.0469 35.5078 56.6146 35.7422 57.2969 35.7422C57.5052 35.7422 57.7448 35.7057 58.0156 35.6328C58.2865 35.5547 58.5599 35.4323 58.8359 35.2656L59.5781 36.5078ZM67.2266 37H65.4688V35.7969H65.4375C65.1667 36.2604 64.8307 36.6094 64.4297 36.8438C64.0286 37.0729 63.5677 37.1875 63.0469 37.1875C62.3229 37.1875 61.7214 36.974 61.2422 36.5469C60.763 36.1146 60.5234 35.526 60.5234 34.7812C60.5234 34.0729 60.763 33.4922 61.2422 33.0391C61.7214 32.5807 62.4323 32.2839 63.375 32.1484L65.4766 31.8672V31.7031C65.4766 31.1615 65.3359 30.7682 65.0547 30.5234C64.7734 30.2786 64.3932 30.1562 63.9141 30.1562C63.5339 30.1562 63.1458 30.224 62.75 30.3594C62.3594 30.4948 61.9792 30.7057 61.6094 30.9922L60.8203 29.9062C61.3099 29.5312 61.8151 29.2552 62.3359 29.0781C62.8568 28.901 63.4297 28.8125 64.0547 28.8125C65.1276 28.8125 65.9245 29.0781 66.4453 29.6094C66.9661 30.1354 67.2266 30.9271 67.2266 31.9844V37ZM65.4766 33.75V33.0703L63.7656 33.2969C63.2604 33.3698 62.8802 33.5078 62.625 33.7109C62.375 33.9089 62.25 34.2005 62.25 34.5859C62.25 34.9766 62.3698 35.2812 62.6094 35.5C62.849 35.7188 63.1562 35.8281 63.5312 35.8281C64.1198 35.8281 64.5911 35.6328 64.9453 35.2422C65.2995 34.8464 65.4766 34.349 65.4766 33.75ZM73.8359 36.8906C73.6016 36.9896 73.3568 37.0625 73.1016 37.1094C72.8464 37.1562 72.5729 37.1797 72.2812 37.1797C71.5417 37.1797 70.9714 36.9844 70.5703 36.5938C70.1745 36.1979 69.9766 35.6094 69.9766 34.8281V30.4219H68.6328V29H69.9766V27.0547L71.7891 26.5078V29H73.7031V30.4219H71.7891V34.6797C71.7891 35.0703 71.8594 35.3516 72 35.5234C72.1458 35.6953 72.3698 35.7812 72.6719 35.7812C72.8177 35.7812 72.9557 35.7656 73.0859 35.7344C73.2214 35.6979 73.3411 35.6536 73.4453 35.6016L73.8359 36.8906ZM76.1797 27.4531C75.8464 27.4531 75.5703 27.3464 75.3516 27.1328C75.1328 26.9193 75.0234 26.6562 75.0234 26.3438C75.0234 26.0208 75.1328 25.7552 75.3516 25.5469C75.5703 25.3385 75.8464 25.2344 76.1797 25.2344C76.5182 25.2344 76.7969 25.3385 77.0156 25.5469C77.2344 25.7552 77.3438 26.0208 77.3438 26.3438C77.3438 26.6615 77.2344 26.9271 77.0156 27.1406C76.7969 27.349 76.5182 27.4531 76.1797 27.4531ZM77.0781 37H75.2578V29H77.0781V37ZM83 37.1875C81.75 37.1875 80.7578 36.8151 80.0234 36.0703C79.2943 35.3203 78.9297 34.3177 78.9297 33.0625C78.9349 31.7344 79.3151 30.6953 80.0703 29.9453C80.8255 29.1901 81.8542 28.8125 83.1562 28.8125C84.4115 28.8073 85.3906 29.1771 86.0938 29.9219C86.8021 30.6615 87.1562 31.6641 87.1562 32.9297C87.1562 34.2318 86.7812 35.2682 86.0312 36.0391C85.2865 36.8047 84.276 37.1875 83 37.1875ZM83.0859 35.7422C83.8099 35.7422 84.3594 35.5052 84.7344 35.0312C85.1146 34.5573 85.3047 33.8724 85.3047 32.9766C85.3047 32.0911 85.1146 31.4167 84.7344 30.9531C84.3542 30.4896 83.8021 30.2578 83.0781 30.2578C82.3646 30.2578 81.8021 30.5026 81.3906 30.9922C80.9844 31.4818 80.7812 32.1589 80.7812 33.0234C80.7812 33.8932 80.9844 34.5651 81.3906 35.0391C81.7969 35.5078 82.362 35.7422 83.0859 35.7422ZM96.1406 37H94.3281V32.4922C94.3281 31.7474 94.1927 31.1901 93.9219 30.8203C93.651 30.4453 93.2448 30.2578 92.7031 30.2578C92.1615 30.2578 91.7135 30.4635 91.3594 30.875C91.0052 31.2865 90.8281 31.8073 90.8281 32.4375V37H89.0078V29H90.8281V30.2969H90.8594C91.1562 29.8021 91.5208 29.4323 91.9531 29.1875C92.3854 28.9375 92.888 28.8125 93.4609 28.8125C94.3359 28.8125 95 29.0911 95.4531 29.6484C95.9115 30.2057 96.1406 31.026 96.1406 32.1094V37ZM108.867 37H107.109V35.7969H107.078C106.807 36.2604 106.471 36.6094 106.07 36.8438C105.669 37.0729 105.208 37.1875 104.688 37.1875C103.964 37.1875 103.362 36.974 102.883 36.5469C102.404 36.1146 102.164 35.526 102.164 34.7812C102.164 34.0729 102.404 33.4922 102.883 33.0391C103.362 32.5807 104.073 32.2839 105.016 32.1484L107.117 31.8672V31.7031C107.117 31.1615 106.977 30.7682 106.695 30.5234C106.414 30.2786 106.034 30.1562 105.555 30.1562C105.174 30.1562 104.786 30.224 104.391 30.3594C104 30.4948 103.62 30.7057 103.25 30.9922L102.461 29.9062C102.951 29.5312 103.456 29.2552 103.977 29.0781C104.497 28.901 105.07 28.8125 105.695 28.8125C106.768 28.8125 107.565 29.0781 108.086 29.6094C108.607 30.1354 108.867 30.9271 108.867 31.9844V37ZM107.117 33.75V33.0703L105.406 33.2969C104.901 33.3698 104.521 33.5078 104.266 33.7109C104.016 33.9089 103.891 34.2005 103.891 34.5859C103.891 34.9766 104.01 35.2812 104.25 35.5C104.49 35.7188 104.797 35.8281 105.172 35.8281C105.76 35.8281 106.232 35.6328 106.586 35.2422C106.94 34.8464 107.117 34.349 107.117 33.75ZM118.25 37H116.438V32.4922C116.438 31.7474 116.302 31.1901 116.031 30.8203C115.76 30.4453 115.354 30.2578 114.812 30.2578C114.271 30.2578 113.823 30.4635 113.469 30.875C113.115 31.2865 112.938 31.8073 112.938 32.4375V37H111.117V29H112.938V30.2969H112.969C113.266 29.8021 113.63 29.4323 114.062 29.1875C114.495 28.9375 114.997 28.8125 115.57 28.8125C116.445 28.8125 117.109 29.0911 117.562 29.6484C118.021 30.2057 118.25 31.026 118.25 32.1094V37ZM125.891 35.7578C125.604 36.237 125.242 36.5964 124.805 36.8359C124.367 37.0703 123.854 37.1875 123.266 37.1875C122.266 37.1875 121.461 36.8333 120.852 36.125C120.247 35.4115 119.945 34.4323 119.945 33.1875C119.945 31.8646 120.279 30.8047 120.945 30.0078C121.617 29.2109 122.503 28.8125 123.602 28.8125C124.138 28.8125 124.596 28.9141 124.977 29.1172C125.357 29.3151 125.661 29.6172 125.891 30.0234H125.922V25.1562H127.742V37H125.922V35.7578H125.891ZM121.797 33.1172C121.797 33.9401 121.982 34.5833 122.352 35.0469C122.721 35.5104 123.224 35.7422 123.859 35.7422C124.479 35.7422 124.982 35.5104 125.367 35.0469C125.753 34.5833 125.945 33.987 125.945 33.2578V32.3438C125.945 31.75 125.76 31.2552 125.391 30.8594C125.021 30.4583 124.547 30.2578 123.969 30.2578C123.292 30.2578 122.76 30.513 122.375 31.0234C121.99 31.5286 121.797 32.2266 121.797 33.1172ZM139.938 35.7578C139.651 36.237 139.289 36.5964 138.852 36.8359C138.414 37.0703 137.901 37.1875 137.312 37.1875C136.312 37.1875 135.508 36.8333 134.898 36.125C134.294 35.4115 133.992 34.4323 133.992 33.1875C133.992 31.8646 134.326 30.8047 134.992 30.0078C135.664 29.2109 136.549 28.8125 137.648 28.8125C138.185 28.8125 138.643 28.9141 139.023 29.1172C139.404 29.3151 139.708 29.6172 139.938 30.0234H139.969V25.1562H141.789V37H139.969V35.7578H139.938ZM135.844 33.1172C135.844 33.9401 136.029 34.5833 136.398 35.0469C136.768 35.5104 137.271 35.7422 137.906 35.7422C138.526 35.7422 139.029 35.5104 139.414 35.0469C139.799 34.5833 139.992 33.987 139.992 33.2578V32.3438C139.992 31.75 139.807 31.2552 139.438 30.8594C139.068 30.4583 138.594 30.2578 138.016 30.2578C137.339 30.2578 136.807 30.513 136.422 31.0234C136.036 31.5286 135.844 32.2266 135.844 33.1172ZM148.602 30.5234C148.503 30.4974 148.406 30.4792 148.312 30.4688C148.224 30.4531 148.12 30.4453 148 30.4453C147.349 30.4453 146.849 30.6849 146.5 31.1641C146.151 31.6432 145.977 32.2682 145.977 33.0391V37H144.156V29H145.977V30.5391H146.008C146.195 29.987 146.471 29.5703 146.836 29.2891C147.201 29.0026 147.63 28.8594 148.125 28.8594C148.266 28.8594 148.391 28.8672 148.5 28.8828C148.615 28.8984 148.724 28.9219 148.828 28.9531L148.602 30.5234ZM151.023 27.4531C150.69 27.4531 150.414 27.3464 150.195 27.1328C149.977 26.9193 149.867 26.6562 149.867 26.3438C149.867 26.0208 149.977 25.7552 150.195 25.5469C150.414 25.3385 150.69 25.2344 151.023 25.2344C151.362 25.2344 151.641 25.3385 151.859 25.5469C152.078 25.7552 152.188 26.0208 152.188 26.3438C152.188 26.6615 152.078 26.9271 151.859 27.1406C151.641 27.349 151.362 27.4531 151.023 27.4531ZM151.922 37H150.102V29H151.922V37ZM161.18 29L158.086 37H156.125L153.18 29H155.148L156.891 34.4141C156.964 34.6589 157.023 34.8854 157.07 35.0938C157.117 35.3021 157.148 35.4948 157.164 35.6719H157.195C157.216 35.474 157.25 35.276 157.297 35.0781C157.344 34.875 157.401 34.6667 157.469 34.4531L159.273 29H161.18ZM169.188 33.4766H163.727C163.758 34.2318 163.977 34.8073 164.383 35.2031C164.789 35.5938 165.357 35.7891 166.086 35.7891C166.383 35.7891 166.721 35.7292 167.102 35.6094C167.482 35.4896 167.857 35.2969 168.227 35.0312L169.047 36.1641C168.552 36.5234 168.049 36.7839 167.539 36.9453C167.029 37.1068 166.466 37.1875 165.852 37.1875C164.607 37.1875 163.638 36.8307 162.945 36.1172C162.253 35.3984 161.904 34.3958 161.898 33.1094C161.898 31.8281 162.255 30.7917 162.969 30C163.688 29.2083 164.607 28.8125 165.727 28.8125C166.799 28.8125 167.643 29.151 168.258 29.8281C168.878 30.5 169.188 31.4531 169.188 32.6875V33.4766ZM167.43 32.2188C167.43 31.5312 167.279 31.0156 166.977 30.6719C166.68 30.3229 166.258 30.1484 165.711 30.1484C165.195 30.1484 164.755 30.3359 164.391 30.7109C164.031 31.0807 163.81 31.5833 163.727 32.2188H167.43ZM175.367 30.5234C175.268 30.4974 175.172 30.4792 175.078 30.4688C174.99 30.4531 174.885 30.4453 174.766 30.4453C174.115 30.4453 173.615 30.6849 173.266 31.1641C172.917 31.6432 172.742 32.2682 172.742 33.0391V37H170.922V29H172.742V30.5391H172.773C172.961 29.987 173.237 29.5703 173.602 29.2891C173.966 29.0026 174.396 28.8594 174.891 28.8594C175.031 28.8594 175.156 28.8672 175.266 28.8828C175.38 28.8984 175.49 28.9219 175.594 28.9531L175.367 30.5234ZM187.234 36.5078C186.839 36.7474 186.445 36.9193 186.055 37.0234C185.664 37.1328 185.24 37.1875 184.781 37.1875C183.552 37.1875 182.568 36.8281 181.828 36.1094C181.094 35.3906 180.727 34.4141 180.727 33.1797C180.727 31.8516 181.107 30.7917 181.867 30C182.633 29.2083 183.664 28.8125 184.961 28.8125C185.414 28.8125 185.826 28.862 186.195 28.9609C186.57 29.0547 186.951 29.2109 187.336 29.4297L186.625 30.6953C186.354 30.5443 186.089 30.4349 185.828 30.3672C185.568 30.2943 185.284 30.2578 184.977 30.2578C184.211 30.2578 183.62 30.5104 183.203 31.0156C182.786 31.5208 182.578 32.1901 182.578 33.0234C182.578 33.8984 182.802 34.5703 183.25 35.0391C183.703 35.5078 184.271 35.7422 184.953 35.7422C185.161 35.7422 185.401 35.7057 185.672 35.6328C185.943 35.5547 186.216 35.4323 186.492 35.2656L187.234 36.5078ZM192.328 37.1875C191.078 37.1875 190.086 36.8151 189.352 36.0703C188.622 35.3203 188.258 34.3177 188.258 33.0625C188.263 31.7344 188.643 30.6953 189.398 29.9453C190.154 29.1901 191.182 28.8125 192.484 28.8125C193.74 28.8073 194.719 29.1771 195.422 29.9219C196.13 30.6615 196.484 31.6641 196.484 32.9297C196.484 34.2318 196.109 35.2682 195.359 36.0391C194.615 36.8047 193.604 37.1875 192.328 37.1875ZM192.414 35.7422C193.138 35.7422 193.688 35.5052 194.062 35.0312C194.443 34.5573 194.633 33.8724 194.633 32.9766C194.633 32.0911 194.443 31.4167 194.062 30.9531C193.682 30.4896 193.13 30.2578 192.406 30.2578C191.693 30.2578 191.13 30.5026 190.719 30.9922C190.312 31.4818 190.109 32.1589 190.109 33.0234C190.109 33.8932 190.312 34.5651 190.719 35.0391C191.125 35.5078 191.69 35.7422 192.414 35.7422ZM205.469 37H203.656V32.4922C203.656 31.7474 203.521 31.1901 203.25 30.8203C202.979 30.4453 202.573 30.2578 202.031 30.2578C201.49 30.2578 201.042 30.4635 200.688 30.875C200.333 31.2865 200.156 31.8073 200.156 32.4375V37H198.336V29H200.156V30.2969H200.188C200.484 29.8021 200.849 29.4323 201.281 29.1875C201.714 28.9375 202.216 28.8125 202.789 28.8125C203.664 28.8125 204.328 29.0911 204.781 29.6484C205.24 30.2057 205.469 31.026 205.469 32.1094V37ZM212.039 36.8906C211.805 36.9896 211.56 37.0625 211.305 37.1094C211.049 37.1562 210.776 37.1797 210.484 37.1797C209.745 37.1797 209.174 36.9844 208.773 36.5938C208.378 36.1979 208.18 35.6094 208.18 34.8281V30.4219H206.836V29H208.18V27.0547L209.992 26.5078V29H211.906V30.4219H209.992V34.6797C209.992 35.0703 210.062 35.3516 210.203 35.5234C210.349 35.6953 210.573 35.7812 210.875 35.7812C211.021 35.7812 211.159 35.7656 211.289 35.7344C211.424 35.6979 211.544 35.6536 211.648 35.6016L212.039 36.8906ZM217.914 30.5234C217.815 30.4974 217.719 30.4792 217.625 30.4688C217.536 30.4531 217.432 30.4453 217.312 30.4453C216.661 30.4453 216.161 30.6849 215.812 31.1641C215.464 31.6432 215.289 32.2682 215.289 33.0391V37H213.469V29H215.289V30.5391H215.32C215.508 29.987 215.784 29.5703 216.148 29.2891C216.513 29.0026 216.943 28.8594 217.438 28.8594C217.578 28.8594 217.703 28.8672 217.812 28.8828C217.927 28.8984 218.036 28.9219 218.141 28.9531L217.914 30.5234ZM222.938 37.1875C221.688 37.1875 220.695 36.8151 219.961 36.0703C219.232 35.3203 218.867 34.3177 218.867 33.0625C218.872 31.7344 219.253 30.6953 220.008 29.9453C220.763 29.1901 221.792 28.8125 223.094 28.8125C224.349 28.8073 225.328 29.1771 226.031 29.9219C226.74 30.6615 227.094 31.6641 227.094 32.9297C227.094 34.2318 226.719 35.2682 225.969 36.0391C225.224 36.8047 224.214 37.1875 222.938 37.1875ZM223.023 35.7422C223.747 35.7422 224.297 35.5052 224.672 35.0312C225.052 34.5573 225.242 33.8724 225.242 32.9766C225.242 32.0911 225.052 31.4167 224.672 30.9531C224.292 30.4896 223.74 30.2578 223.016 30.2578C222.302 30.2578 221.74 30.5026 221.328 30.9922C220.922 31.4818 220.719 32.1589 220.719 33.0234C220.719 33.8932 220.922 34.5651 221.328 35.0391C221.734 35.5078 222.299 35.7422 223.023 35.7422ZM228.945 37V25.1562H230.766V37H228.945Z" fill="#98ECFE"/>
<path d="M14.375 54.3555L14.8555 53.6172C15.1992 53.8398 15.543 54.002 15.8867 54.1035C16.2305 54.2051 16.6309 54.2559 17.0879 54.2559C17.5996 54.2559 18.0156 54.1367 18.3359 53.8984C18.6602 53.6562 18.8223 53.3047 18.8223 52.8438C18.8223 52.4336 18.6855 52.1055 18.4121 51.8594C18.1426 51.6133 17.6895 51.375 17.0527 51.1445C16.2637 50.8594 15.6777 50.5391 15.2949 50.1836C14.916 49.8242 14.7266 49.3516 14.7266 48.7656C14.7266 48.0781 14.9727 47.5215 15.4648 47.0957C15.9609 46.6699 16.6113 46.457 17.416 46.457C17.791 46.457 18.1582 46.498 18.5176 46.5801C18.877 46.6582 19.248 46.7871 19.6309 46.9668L19.2617 47.7578C18.9414 47.6094 18.6289 47.502 18.3242 47.4355C18.0234 47.3691 17.6973 47.3359 17.3457 47.3359C16.8418 47.3359 16.4473 47.4551 16.1621 47.6934C15.877 47.9277 15.7344 48.2539 15.7344 48.6719C15.7344 49.0391 15.8652 49.332 16.127 49.5508C16.3887 49.7695 16.834 49.9922 17.4629 50.2188C18.3066 50.5234 18.9121 50.8633 19.2793 51.2383C19.6465 51.6133 19.8301 52.1191 19.8301 52.7559C19.8301 53.4355 19.584 54.0039 19.0918 54.4609C18.5996 54.9141 17.9082 55.1406 17.0176 55.1406C16.5176 55.1406 16.0566 55.0781 15.6348 54.9531C15.2129 54.8281 14.793 54.6289 14.375 54.3555ZM29.8672 55H28.9062V51.5547C28.9062 50.8906 28.8027 50.4102 28.5957 50.1133C28.3926 49.8164 28.0488 49.668 27.5645 49.668C27.1543 49.668 26.8047 49.8555 26.5156 50.2305C26.2305 50.6055 26.0879 51.0547 26.0879 51.5781V55H25.127V51.4375C25.127 50.8477 25.0137 50.4062 24.7871 50.1133C24.5605 49.8164 24.2188 49.668 23.7617 49.668C23.3398 49.668 22.9922 49.8457 22.7188 50.2012C22.4453 50.5527 22.3086 51.0117 22.3086 51.5781V55H21.3477V49H22.3086V49.9492H22.332C22.5469 49.5859 22.8086 49.3145 23.1172 49.1348C23.4297 48.9512 23.7891 48.8594 24.1953 48.8594C24.6055 48.8594 24.9629 48.9746 25.2676 49.2051C25.5723 49.4316 25.7812 49.7305 25.8945 50.1016C26.1172 49.6875 26.3945 49.377 26.7266 49.1699C27.0586 48.9629 27.4453 48.8594 27.8867 48.8594C28.5469 48.8594 29.041 49.0625 29.3691 49.4688C29.7012 49.875 29.8672 50.4863 29.8672 51.3027V55ZM35.9316 55H34.9707V54.0625H34.9473C34.7402 54.4219 34.4844 54.6914 34.1797 54.8711C33.8789 55.0508 33.5273 55.1406 33.125 55.1406C32.5625 55.1406 32.1074 54.9766 31.7598 54.6484C31.4121 54.3203 31.2383 53.8848 31.2383 53.3418C31.2383 52.8301 31.4141 52.4062 31.7656 52.0703C32.1172 51.7344 32.6152 51.5195 33.2598 51.4258L34.9707 51.1973V51.0625C34.9707 50.5586 34.8535 50.2012 34.6191 49.9902C34.3848 49.7754 34.0723 49.668 33.6816 49.668C33.3691 49.668 33.0684 49.7266 32.7793 49.8438C32.4902 49.9609 32.2188 50.1406 31.9648 50.3828L31.4023 49.8027C31.7383 49.4785 32.0957 49.2402 32.4746 49.0879C32.8535 48.9355 33.2754 48.8594 33.7402 48.8594C34.4668 48.8594 35.0137 49.0469 35.3809 49.4219C35.748 49.793 35.9316 50.3516 35.9316 51.0977V55ZM34.9707 52.5625V51.9648L33.5234 52.1641C33.082 52.2266 32.75 52.3379 32.5273 52.498C32.3047 52.6582 32.1934 52.9102 32.1934 53.2539C32.1934 53.6133 32.2969 53.8887 32.5039 54.0801C32.7148 54.2676 32.9707 54.3613 33.2715 54.3613C33.791 54.3613 34.2031 54.1914 34.5078 53.8516C34.8164 53.5117 34.9707 53.082 34.9707 52.5625ZM40.748 49.8203C40.6738 49.7969 40.6074 49.7812 40.5488 49.7734C40.4902 49.7617 40.416 49.7559 40.3262 49.7559C39.8379 49.7559 39.4531 49.9648 39.1719 50.3828C38.8906 50.7969 38.75 51.3164 38.75 51.9414V55H37.7891V49H38.75V50.1895H38.7734C38.9102 49.7676 39.1191 49.4473 39.4004 49.2285C39.6816 49.0059 40.0059 48.8945 40.373 48.8945C40.4941 48.8945 40.5957 48.9004 40.6777 48.9121C40.7637 48.9238 40.8398 48.9414 40.9062 48.9648L40.748 49.8203ZM44.8203 54.9414C44.6562 55.0078 44.4941 55.0566 44.334 55.0879C44.1777 55.123 44 55.1406 43.8008 55.1406C43.3242 55.1406 42.9492 55.002 42.6758 54.7246C42.4062 54.4434 42.2715 54.0293 42.2715 53.4824V49.8203H41.2402V49H42.2715V47.5352L43.2324 47.2246V49H44.7441V49.8203H43.2324V53.3301C43.2324 53.6934 43.3008 53.9512 43.4375 54.1035C43.5781 54.2559 43.7715 54.332 44.0176 54.332C44.127 54.332 44.2305 54.3184 44.3281 54.291C44.4297 54.2637 44.5156 54.2324 44.5859 54.1973L44.8203 54.9414ZM48.4766 55L51.6992 46.5977H52.7188L55.9531 55H54.8633L54.0137 52.75H50.375L49.5723 55H48.4766ZM50.7031 51.8652H53.6914L52.332 48.1797C52.3086 48.1211 52.2871 48.0449 52.2676 47.9512C52.248 47.8574 52.2266 47.7461 52.2031 47.6172H52.1797C52.1602 47.7344 52.1387 47.8398 52.1152 47.9336C52.0957 48.0273 52.0723 48.1094 52.0449 48.1797L50.7031 51.8652ZM58.0508 54.1328H58.0273V57.7598H57.0664V49H58.0273V50.0547H58.0508C58.2891 49.6562 58.5801 49.3574 58.9238 49.1582C59.2715 48.959 59.6719 48.8594 60.125 48.8594C60.8984 48.8594 61.502 49.1289 61.9355 49.668C62.3691 50.2031 62.5859 50.9219 62.5859 51.8242C62.5859 52.8281 62.3418 53.6328 61.8535 54.2383C61.3652 54.8398 60.6973 55.1406 59.8496 55.1406C59.4629 55.1406 59.1191 55.0566 58.8184 54.8887C58.5176 54.7207 58.2617 54.4688 58.0508 54.1328ZM58.0273 51.7129V52.5508C58.0273 53.0469 58.1875 53.4688 58.5078 53.8164C58.832 54.1602 59.2422 54.332 59.7383 54.332C60.3203 54.332 60.7754 54.1094 61.1035 53.6641C61.4355 53.2188 61.6016 52.5996 61.6016 51.8066C61.6016 51.1387 61.4473 50.6152 61.1387 50.2363C60.8301 49.8574 60.4121 49.668 59.8848 49.668C59.3262 49.668 58.877 49.8633 58.5371 50.2539C58.1973 50.6406 58.0273 51.127 58.0273 51.7129ZM65.1055 54.1328H65.082V57.7598H64.1211V49H65.082V50.0547H65.1055C65.3438 49.6562 65.6348 49.3574 65.9785 49.1582C66.3262 48.959 66.7266 48.8594 67.1797 48.8594C67.9531 48.8594 68.5566 49.1289 68.9902 49.668C69.4238 50.2031 69.6406 50.9219 69.6406 51.8242C69.6406 52.8281 69.3965 53.6328 68.9082 54.2383C68.4199 54.8398 67.752 55.1406 66.9043 55.1406C66.5176 55.1406 66.1738 55.0566 65.873 54.8887C65.5723 54.7207 65.3164 54.4688 65.1055 54.1328ZM65.082 51.7129V52.5508C65.082 53.0469 65.2422 53.4688 65.5625 53.8164C65.8867 54.1602 66.2969 54.332 66.793 54.332C67.375 54.332 67.8301 54.1094 68.1582 53.6641C68.4902 53.2188 68.6562 52.5996 68.6562 51.8066C68.6562 51.1387 68.502 50.6152 68.1934 50.2363C67.8848 49.8574 67.4668 49.668 66.9395 49.668C66.3809 49.668 65.9316 49.8633 65.5918 50.2539C65.252 50.6406 65.082 51.127 65.082 51.7129ZM80.5156 54.5781C80.1094 54.7734 79.7129 54.916 79.3262 55.0059C78.9395 55.0957 78.5195 55.1406 78.0664 55.1406C76.7969 55.1406 75.8086 54.7559 75.1016 53.9863C74.3984 53.2168 74.0469 52.207 74.0469 50.957C74.0469 49.5859 74.4395 48.4941 75.2246 47.6816C76.0137 46.8652 77.041 46.457 78.3066 46.457C78.7012 46.457 79.0703 46.4941 79.4141 46.5684C79.7617 46.6426 80.1211 46.7617 80.4922 46.9258L80.1289 47.7344C79.8203 47.5977 79.5215 47.5 79.2324 47.4414C78.9434 47.3789 78.6309 47.3477 78.2949 47.3477C77.3105 47.3477 76.5273 47.666 75.9453 48.3027C75.3672 48.9355 75.0781 49.8008 75.0781 50.8984C75.0781 51.9258 75.3555 52.7422 75.9102 53.3477C76.4688 53.9531 77.207 54.2559 78.125 54.2559C78.4648 54.2559 78.7969 54.2188 79.1211 54.1445C79.4492 54.0703 79.7832 53.9492 80.123 53.7812L80.5156 54.5781ZM84.4062 55.1406C83.5195 55.1406 82.8105 54.8613 82.2793 54.3027C81.752 53.7402 81.4883 52.9961 81.4883 52.0703C81.4883 51.0664 81.7617 50.2812 82.3086 49.7148C82.8555 49.1484 83.6016 48.8633 84.5469 48.8594C85.4414 48.8555 86.1387 49.1309 86.6387 49.6855C87.1426 50.2402 87.3945 51.0039 87.3945 51.9766C87.3945 52.9375 87.123 53.7051 86.5801 54.2793C86.041 54.8535 85.3164 55.1406 84.4062 55.1406ZM84.4766 54.332C85.0977 54.332 85.5742 54.1309 85.9062 53.7285C86.2422 53.3223 86.4102 52.75 86.4102 52.0117C86.4102 51.2578 86.2422 50.6797 85.9062 50.2773C85.5703 49.8711 85.0938 49.668 84.4766 49.668C83.8594 49.668 83.3711 49.8789 83.0117 50.3008C82.6523 50.7227 82.4727 51.3008 82.4727 52.0352C82.4727 52.7461 82.6543 53.3066 83.0176 53.7168C83.3809 54.127 83.8672 54.332 84.4766 54.332ZM93.9102 55H92.9492V51.5781C92.9492 50.9414 92.832 50.4648 92.5977 50.1484C92.3672 49.8281 92.0195 49.668 91.5547 49.668C91.0742 49.668 90.6758 49.8496 90.3594 50.2129C90.0469 50.5723 89.8906 51.0273 89.8906 51.5781V55H88.9297V49H89.8906V49.9961H89.9141C90.1406 49.6172 90.418 49.334 90.7461 49.1465C91.0742 48.9551 91.4531 48.8594 91.8828 48.8594C92.5391 48.8594 93.041 49.0723 93.3887 49.498C93.7363 49.9199 93.9102 50.5312 93.9102 51.332V55ZM98.5859 54.9414C98.4219 55.0078 98.2598 55.0566 98.0996 55.0879C97.9434 55.123 97.7656 55.1406 97.5664 55.1406C97.0898 55.1406 96.7148 55.002 96.4414 54.7246C96.1719 54.4434 96.0371 54.0293 96.0371 53.4824V49.8203H95.0059V49H96.0371V47.5352L96.998 47.2246V49H98.5098V49.8203H96.998V53.3301C96.998 53.6934 97.0664 53.9512 97.2031 54.1035C97.3438 54.2559 97.5371 54.332 97.7832 54.332C97.8926 54.332 97.9961 54.3184 98.0938 54.291C98.1953 54.2637 98.2812 54.2324 98.3516 54.1973L98.5859 54.9414ZM102.752 49.8203C102.678 49.7969 102.611 49.7812 102.553 49.7734C102.494 49.7617 102.42 49.7559 102.33 49.7559C101.842 49.7559 101.457 49.9648 101.176 50.3828C100.895 50.7969 100.754 51.3164 100.754 51.9414V55H99.793V49H100.754V50.1895H100.777C100.914 49.7676 101.123 49.4473 101.404 49.2285C101.686 49.0059 102.01 48.8945 102.377 48.8945C102.498 48.8945 102.6 48.9004 102.682 48.9121C102.768 48.9238 102.844 48.9414 102.91 48.9648L102.752 49.8203ZM106.473 55.1406C105.586 55.1406 104.877 54.8613 104.346 54.3027C103.818 53.7402 103.555 52.9961 103.555 52.0703C103.555 51.0664 103.828 50.2812 104.375 49.7148C104.922 49.1484 105.668 48.8633 106.613 48.8594C107.508 48.8555 108.205 49.1309 108.705 49.6855C109.209 50.2402 109.461 51.0039 109.461 51.9766C109.461 52.9375 109.189 53.7051 108.646 54.2793C108.107 54.8535 107.383 55.1406 106.473 55.1406ZM106.543 54.332C107.164 54.332 107.641 54.1309 107.973 53.7285C108.309 53.3223 108.477 52.75 108.477 52.0117C108.477 51.2578 108.309 50.6797 107.973 50.2773C107.637 49.8711 107.16 49.668 106.543 49.668C105.926 49.668 105.438 49.8789 105.078 50.3008C104.719 50.7227 104.539 51.3008 104.539 52.0352C104.539 52.7461 104.721 53.3066 105.084 53.7168C105.447 54.127 105.934 54.332 106.543 54.332ZM110.996 55V46.1172H111.957V55H110.996ZM14.1289 73L17.3516 64.5977H18.3711L21.6055 73H20.5156L19.666 70.75H16.0273L15.2246 73H14.1289ZM16.3555 69.8652H19.3438L17.9844 66.1797C17.9609 66.1211 17.9395 66.0449 17.9199 65.9512C17.9004 65.8574 17.8789 65.7461 17.8555 65.6172H17.832C17.8125 65.7344 17.791 65.8398 17.7676 65.9336C17.748 66.0273 17.7246 66.1094 17.6973 66.1797L16.3555 69.8652ZM23.7031 72.1328H23.6797V75.7598H22.7188V67H23.6797V68.0547H23.7031C23.9414 67.6562 24.2324 67.3574 24.5762 67.1582C24.9238 66.959 25.3242 66.8594 25.7773 66.8594C26.5508 66.8594 27.1543 67.1289 27.5879 67.668C28.0215 68.2031 28.2383 68.9219 28.2383 69.8242C28.2383 70.8281 27.9941 71.6328 27.5059 72.2383C27.0176 72.8398 26.3496 73.1406 25.502 73.1406C25.1152 73.1406 24.7715 73.0566 24.4707 72.8887C24.1699 72.7207 23.9141 72.4688 23.7031 72.1328ZM23.6797 69.7129V70.5508C23.6797 71.0469 23.8398 71.4688 24.1602 71.8164C24.4844 72.1602 24.8945 72.332 25.3906 72.332C25.9727 72.332 26.4277 72.1094 26.7559 71.6641C27.0879 71.2188 27.2539 70.5996 27.2539 69.8066C27.2539 69.1387 27.0996 68.6152 26.791 68.2363C26.4824 67.8574 26.0645 67.668 25.5371 67.668C24.9785 67.668 24.5293 67.8633 24.1895 68.2539C23.8496 68.6406 23.6797 69.127 23.6797 69.7129ZM30.7578 72.1328H30.7344V75.7598H29.7734V67H30.7344V68.0547H30.7578C30.9961 67.6562 31.2871 67.3574 31.6309 67.1582C31.9785 66.959 32.3789 66.8594 32.832 66.8594C33.6055 66.8594 34.209 67.1289 34.6426 67.668C35.0762 68.2031 35.293 68.9219 35.293 69.8242C35.293 70.8281 35.0488 71.6328 34.5605 72.2383C34.0723 72.8398 33.4043 73.1406 32.5566 73.1406C32.1699 73.1406 31.8262 73.0566 31.5254 72.8887C31.2246 72.7207 30.9688 72.4688 30.7578 72.1328ZM30.7344 69.7129V70.5508C30.7344 71.0469 30.8945 71.4688 31.2148 71.8164C31.5391 72.1602 31.9492 72.332 32.4453 72.332C33.0273 72.332 33.4824 72.1094 33.8105 71.6641C34.1426 71.2188 34.3086 70.5996 34.3086 69.8066C34.3086 69.1387 34.1543 68.6152 33.8457 68.2363C33.5371 67.8574 33.1191 67.668 32.5918 67.668C32.0332 67.668 31.584 67.8633 31.2441 68.2539C30.9043 68.6406 30.7344 69.127 30.7344 69.7129ZM46.168 72.5781C45.7617 72.7734 45.3652 72.916 44.9785 73.0059C44.5918 73.0957 44.1719 73.1406 43.7188 73.1406C42.4492 73.1406 41.4609 72.7559 40.7539 71.9863C40.0508 71.2168 39.6992 70.207 39.6992 68.957C39.6992 67.5859 40.0918 66.4941 40.877 65.6816C41.666 64.8652 42.6934 64.457 43.959 64.457C44.3535 64.457 44.7227 64.4941 45.0664 64.5684C45.4141 64.6426 45.7734 64.7617 46.1445 64.9258L45.7812 65.7344C45.4727 65.5977 45.1738 65.5 44.8848 65.4414C44.5957 65.3789 44.2832 65.3477 43.9473 65.3477C42.9629 65.3477 42.1797 65.666 41.5977 66.3027C41.0195 66.9355 40.7305 67.8008 40.7305 68.8984C40.7305 69.9258 41.0078 70.7422 41.5625 71.3477C42.1211 71.9531 42.8594 72.2559 43.7773 72.2559C44.1172 72.2559 44.4492 72.2188 44.7734 72.1445C45.1016 72.0703 45.4355 71.9492 45.7754 71.7812L46.168 72.5781ZM50.0586 73.1406C49.1719 73.1406 48.4629 72.8613 47.9316 72.3027C47.4043 71.7402 47.1406 70.9961 47.1406 70.0703C47.1406 69.0664 47.4141 68.2812 47.9609 67.7148C48.5078 67.1484 49.2539 66.8633 50.1992 66.8594C51.0938 66.8555 51.791 67.1309 52.291 67.6855C52.7949 68.2402 53.0469 69.0039 53.0469 69.9766C53.0469 70.9375 52.7754 71.7051 52.2324 72.2793C51.6934 72.8535 50.9688 73.1406 50.0586 73.1406ZM50.1289 72.332C50.75 72.332 51.2266 72.1309 51.5586 71.7285C51.8945 71.3223 52.0625 70.75 52.0625 70.0117C52.0625 69.2578 51.8945 68.6797 51.5586 68.2773C51.2227 67.8711 50.7461 67.668 50.1289 67.668C49.5117 67.668 49.0234 67.8789 48.6641 68.3008C48.3047 68.7227 48.125 69.3008 48.125 70.0352C48.125 70.7461 48.3066 71.3066 48.6699 71.7168C49.0332 72.127 49.5195 72.332 50.1289 72.332ZM59.5625 73H58.6016V69.5781C58.6016 68.9414 58.4844 68.4648 58.25 68.1484C58.0195 67.8281 57.6719 67.668 57.207 67.668C56.7266 67.668 56.3281 67.8496 56.0117 68.2129C55.6992 68.5723 55.543 69.0273 55.543 69.5781V73H54.582V67H55.543V67.9961H55.5664C55.793 67.6172 56.0703 67.334 56.3984 67.1465C56.7266 66.9551 57.1055 66.8594 57.5352 66.8594C58.1914 66.8594 58.6934 67.0723 59.041 67.498C59.3887 67.9199 59.5625 68.5312 59.5625 69.332V73ZM64.2383 72.9414C64.0742 73.0078 63.9121 73.0566 63.752 73.0879C63.5957 73.123 63.418 73.1406 63.2188 73.1406C62.7422 73.1406 62.3672 73.002 62.0938 72.7246C61.8242 72.4434 61.6895 72.0293 61.6895 71.4824V67.8203H60.6582V67H61.6895V65.5352L62.6504 65.2246V67H64.1621V67.8203H62.6504V71.3301C62.6504 71.6934 62.7188 71.9512 62.8555 72.1035C62.9961 72.2559 63.1895 72.332 63.4355 72.332C63.5449 72.332 63.6484 72.3184 63.7461 72.291C63.8477 72.2637 63.9336 72.2324 64.0039 72.1973L64.2383 72.9414ZM68.4043 67.8203C68.3301 67.7969 68.2637 67.7812 68.2051 67.7734C68.1465 67.7617 68.0723 67.7559 67.9824 67.7559C67.4941 67.7559 67.1094 67.9648 66.8281 68.3828C66.5469 68.7969 66.4062 69.3164 66.4062 69.9414V73H65.4453V67H66.4062V68.1895H66.4297C66.5664 67.7676 66.7754 67.4473 67.0566 67.2285C67.3379 67.0059 67.6621 66.8945 68.0293 66.8945C68.1504 66.8945 68.252 66.9004 68.334 66.9121C68.4199 66.9238 68.4961 66.9414 68.5625 66.9648L68.4043 67.8203ZM72.125 73.1406C71.2383 73.1406 70.5293 72.8613 69.998 72.3027C69.4707 71.7402 69.207 70.9961 69.207 70.0703C69.207 69.0664 69.4805 68.2812 70.0273 67.7148C70.5742 67.1484 71.3203 66.8633 72.2656 66.8594C73.1602 66.8555 73.8574 67.1309 74.3574 67.6855C74.8613 68.2402 75.1133 69.0039 75.1133 69.9766C75.1133 70.9375 74.8418 71.7051 74.2988 72.2793C73.7598 72.8535 73.0352 73.1406 72.125 73.1406ZM72.1953 72.332C72.8164 72.332 73.293 72.1309 73.625 71.7285C73.9609 71.3223 74.1289 70.75 74.1289 70.0117C74.1289 69.2578 73.9609 68.6797 73.625 68.2773C73.2891 67.8711 72.8125 67.668 72.1953 67.668C71.5781 67.668 71.0898 67.8789 70.7305 68.3008C70.3711 68.7227 70.1914 69.3008 70.1914 70.0352C70.1914 70.7461 70.373 71.3066 70.7363 71.7168C71.0996 72.127 71.5859 72.332 72.1953 72.332ZM76.6484 73V64.1172H77.6094V73H76.6484ZM85.7129 64.9023C85.6035 64.8672 85.5039 64.8418 85.4141 64.8262C85.3281 64.8105 85.2363 64.8027 85.1387 64.8027C84.8105 64.8027 84.5664 64.8906 84.4062 65.0664C84.2461 65.2422 84.166 65.5 84.166 65.8398V67H85.5723V67.8203H84.166V73H83.2109V67.8203H82.1855V67H83.2109V65.793C83.2109 65.2266 83.3848 64.7832 83.7324 64.4629C84.0801 64.1387 84.5566 63.9766 85.1621 63.9766C85.3105 63.9766 85.4453 63.9902 85.5664 64.0176C85.6875 64.041 85.8125 64.0742 85.9414 64.1172L85.7129 64.9023ZM89.1172 73.1406C88.2305 73.1406 87.5215 72.8613 86.9902 72.3027C86.4629 71.7402 86.1992 70.9961 86.1992 70.0703C86.1992 69.0664 86.4727 68.2812 87.0195 67.7148C87.5664 67.1484 88.3125 66.8633 89.2578 66.8594C90.1523 66.8555 90.8496 67.1309 91.3496 67.6855C91.8535 68.2402 92.1055 69.0039 92.1055 69.9766C92.1055 70.9375 91.834 71.7051 91.291 72.2793C90.752 72.8535 90.0273 73.1406 89.1172 73.1406ZM89.1875 72.332C89.8086 72.332 90.2852 72.1309 90.6172 71.7285C90.9531 71.3223 91.1211 70.75 91.1211 70.0117C91.1211 69.2578 90.9531 68.6797 90.6172 68.2773C90.2812 67.8711 89.8047 67.668 89.1875 67.668C88.5703 67.668 88.082 67.8789 87.7227 68.3008C87.3633 68.7227 87.1836 69.3008 87.1836 70.0352C87.1836 70.7461 87.3652 71.3066 87.7285 71.7168C88.0918 72.127 88.5781 72.332 89.1875 72.332ZM96.5996 67.8203C96.5254 67.7969 96.459 67.7812 96.4004 67.7734C96.3418 67.7617 96.2676 67.7559 96.1777 67.7559C95.6895 67.7559 95.3047 67.9648 95.0234 68.3828C94.7422 68.7969 94.6016 69.3164 94.6016 69.9414V73H93.6406V67H94.6016V68.1895H94.625C94.7617 67.7676 94.9707 67.4473 95.252 67.2285C95.5332 67.0059 95.8574 66.8945 96.2246 66.8945C96.3457 66.8945 96.4473 66.9004 96.5293 66.9121C96.6152 66.9238 96.6914 66.9414 96.7578 66.9648L96.5996 67.8203ZM101.234 73V64.5977H103.631C104.357 64.5977 104.932 64.7715 105.354 65.1191C105.779 65.4629 105.992 65.9297 105.992 66.5195C105.992 66.9961 105.863 67.4102 105.605 67.7617C105.348 68.1133 104.992 68.3633 104.539 68.5117V68.5352C105.105 68.6016 105.559 68.8164 105.898 69.1797C106.238 69.5391 106.408 70.0078 106.408 70.5859C106.408 71.3047 106.15 71.8867 105.635 72.332C105.119 72.7773 104.469 73 103.684 73H101.234ZM102.219 65.4883V68.2012H103.227C103.766 68.2012 104.189 68.0723 104.498 67.8145C104.807 67.5527 104.961 67.1855 104.961 66.7129C104.961 66.3027 104.826 65.9961 104.557 65.793C104.287 65.5898 103.887 65.4883 103.355 65.4883H102.219ZM102.219 69.0859V72.1094H103.555C104.133 72.1094 104.58 71.9727 104.896 71.6992C105.217 71.4258 105.377 71.0508 105.377 70.5742C105.377 70.0781 105.207 69.707 104.867 69.4609C104.531 69.2109 104.025 69.0859 103.35 69.0859H102.219ZM112.836 73H111.875V72.0508H111.852C111.652 72.4141 111.398 72.6875 111.09 72.8711C110.781 73.0508 110.418 73.1406 110 73.1406C109.285 73.1406 108.748 72.9277 108.389 72.502C108.033 72.0762 107.855 71.4375 107.855 70.5859V67H108.811V70.4336C108.811 71.0664 108.932 71.541 109.174 71.8574C109.416 72.1738 109.779 72.332 110.264 72.332C110.732 72.332 111.117 72.1602 111.418 71.8164C111.723 71.4688 111.875 71.0156 111.875 70.457V67H112.836V73ZM114.219 72.5488L114.676 71.8105C114.938 71.9824 115.193 72.1133 115.443 72.2031C115.693 72.2891 115.963 72.332 116.252 72.332C116.662 72.332 116.969 72.2539 117.172 72.0977C117.379 71.9414 117.482 71.7109 117.482 71.4062C117.482 71.1602 117.391 70.9531 117.207 70.7852C117.027 70.6133 116.736 70.4766 116.334 70.375C115.631 70.1953 115.129 69.9648 114.828 69.6836C114.527 69.4023 114.377 69.0371 114.377 68.5879C114.377 68.0957 114.562 67.6855 114.934 67.3574C115.305 67.0254 115.822 66.8594 116.486 66.8594C116.807 66.8594 117.111 66.9004 117.4 66.9824C117.689 67.0645 117.984 67.2051 118.285 67.4043L117.857 68.1309C117.584 67.959 117.338 67.8398 117.119 67.7734C116.904 67.7031 116.686 67.668 116.463 67.668C116.076 67.668 115.787 67.7402 115.596 67.8848C115.408 68.0254 115.314 68.2305 115.314 68.5C115.314 68.7695 115.412 68.9727 115.607 69.1094C115.803 69.2461 116.133 69.373 116.598 69.4902C117.207 69.6426 117.662 69.8672 117.963 70.1641C118.268 70.457 118.42 70.8496 118.42 71.3418C118.42 71.8965 118.223 72.3359 117.828 72.6602C117.438 72.9805 116.9 73.1406 116.217 73.1406C115.85 73.1406 115.496 73.0898 115.156 72.9883C114.82 72.8867 114.508 72.7402 114.219 72.5488ZM120.371 65.5059C120.184 65.5059 120.025 65.4434 119.896 65.3184C119.771 65.1934 119.709 65.0391 119.709 64.8555C119.709 64.6719 119.771 64.5176 119.896 64.3926C120.025 64.2676 120.184 64.2051 120.371 64.2051C120.559 64.2051 120.715 64.2676 120.84 64.3926C120.969 64.5176 121.033 64.6719 121.033 64.8555C121.033 65.0391 120.969 65.1934 120.84 65.3184C120.715 65.4434 120.559 65.5059 120.371 65.5059ZM120.84 73H119.879V67H120.84V73ZM127.766 73H126.805V69.5781C126.805 68.9414 126.688 68.4648 126.453 68.1484C126.223 67.8281 125.875 67.668 125.41 67.668C124.93 67.668 124.531 67.8496 124.215 68.2129C123.902 68.5723 123.746 69.0273 123.746 69.5781V73H122.785V67H123.746V67.9961H123.77C123.996 67.6172 124.273 67.334 124.602 67.1465C124.93 66.9551 125.309 66.8594 125.738 66.8594C126.395 66.8594 126.896 67.0723 127.244 67.498C127.592 67.9199 127.766 68.5312 127.766 69.332V73ZM134.404 70.2168H130.162C130.178 70.8926 130.355 71.4141 130.695 71.7812C131.039 72.1445 131.52 72.3262 132.137 72.3262C132.406 72.3262 132.676 72.2871 132.945 72.209C133.219 72.127 133.488 71.998 133.754 71.8223L134.199 72.5078C133.859 72.7266 133.52 72.8867 133.18 72.9883C132.84 73.0898 132.467 73.1406 132.061 73.1406C131.154 73.1406 130.447 72.8711 129.939 72.332C129.432 71.793 129.176 71.041 129.172 70.0762C129.168 69.1113 129.422 68.334 129.934 67.7441C130.449 67.1543 131.117 66.8594 131.938 66.8594C132.719 66.8594 133.324 67.1152 133.754 67.627C134.188 68.1348 134.404 68.8398 134.404 69.7422V70.2168ZM133.42 69.4316C133.416 68.877 133.281 68.4453 133.016 68.1367C132.75 67.8242 132.385 67.668 131.92 67.668C131.463 67.668 131.074 67.8281 130.754 68.1484C130.438 68.4648 130.244 68.8926 130.174 69.4316H133.42ZM135.301 72.5488L135.758 71.8105C136.02 71.9824 136.275 72.1133 136.525 72.2031C136.775 72.2891 137.045 72.332 137.334 72.332C137.744 72.332 138.051 72.2539 138.254 72.0977C138.461 71.9414 138.564 71.7109 138.564 71.4062C138.564 71.1602 138.473 70.9531 138.289 70.7852C138.109 70.6133 137.818 70.4766 137.416 70.375C136.713 70.1953 136.211 69.9648 135.91 69.6836C135.609 69.4023 135.459 69.0371 135.459 68.5879C135.459 68.0957 135.645 67.6855 136.016 67.3574C136.387 67.0254 136.904 66.8594 137.568 66.8594C137.889 66.8594 138.193 66.9004 138.482 66.9824C138.771 67.0645 139.066 67.2051 139.367 67.4043L138.939 68.1309C138.666 67.959 138.42 67.8398 138.201 67.7734C137.986 67.7031 137.768 67.668 137.545 67.668C137.158 67.668 136.869 67.7402 136.678 67.8848C136.49 68.0254 136.396 68.2305 136.396 68.5C136.396 68.7695 136.494 68.9727 136.689 69.1094C136.885 69.2461 137.215 69.373 137.68 69.4902C138.289 69.6426 138.744 69.8672 139.045 70.1641C139.35 70.457 139.502 70.8496 139.502 71.3418C139.502 71.8965 139.305 72.3359 138.91 72.6602C138.52 72.9805 137.982 73.1406 137.299 73.1406C136.932 73.1406 136.578 73.0898 136.238 72.9883C135.902 72.8867 135.59 72.7402 135.301 72.5488ZM140.398 72.5488L140.855 71.8105C141.117 71.9824 141.373 72.1133 141.623 72.2031C141.873 72.2891 142.143 72.332 142.432 72.332C142.842 72.332 143.148 72.2539 143.352 72.0977C143.559 71.9414 143.662 71.7109 143.662 71.4062C143.662 71.1602 143.57 70.9531 143.387 70.7852C143.207 70.6133 142.916 70.4766 142.514 70.375C141.811 70.1953 141.309 69.9648 141.008 69.6836C140.707 69.4023 140.557 69.0371 140.557 68.5879C140.557 68.0957 140.742 67.6855 141.113 67.3574C141.484 67.0254 142.002 66.8594 142.666 66.8594C142.986 66.8594 143.291 66.9004 143.58 66.9824C143.869 67.0645 144.164 67.2051 144.465 67.4043L144.037 68.1309C143.764 67.959 143.518 67.8398 143.299 67.7734C143.084 67.7031 142.865 67.668 142.643 67.668C142.256 67.668 141.967 67.7402 141.775 67.8848C141.588 68.0254 141.494 68.2305 141.494 68.5C141.494 68.7695 141.592 68.9727 141.787 69.1094C141.982 69.2461 142.312 69.373 142.777 69.4902C143.387 69.6426 143.842 69.8672 144.143 70.1641C144.447 70.457 144.6 70.8496 144.6 71.3418C144.6 71.8965 144.402 72.3359 144.008 72.6602C143.617 72.9805 143.08 73.1406 142.396 73.1406C142.029 73.1406 141.676 73.0898 141.336 72.9883C141 72.8867 140.688 72.7402 140.398 72.5488ZM21.248 87.5957C21.248 88.7793 20.9824 89.666 20.4512 90.2559C19.9199 90.8457 19.1211 91.1406 18.0547 91.1406C17.0352 91.1406 16.2695 90.8574 15.7578 90.291C15.25 89.7246 14.9961 88.873 14.9961 87.7363V82.5977H15.9805V87.6719C15.9805 88.5312 16.1621 89.1777 16.5254 89.6113C16.8887 90.041 17.4336 90.2559 18.1602 90.2559C18.8633 90.2559 19.3887 90.0488 19.7363 89.6348C20.0879 89.2168 20.2637 88.5918 20.2637 87.7598V82.5977H21.248V87.5957ZM22.6602 90.5488L23.1172 89.8105C23.3789 89.9824 23.6348 90.1133 23.8848 90.2031C24.1348 90.2891 24.4043 90.332 24.6934 90.332C25.1035 90.332 25.4102 90.2539 25.6133 90.0977C25.8203 89.9414 25.9238 89.7109 25.9238 89.4062C25.9238 89.1602 25.832 88.9531 25.6484 88.7852C25.4688 88.6133 25.1777 88.4766 24.7754 88.375C24.0723 88.1953 23.5703 87.9648 23.2695 87.6836C22.9688 87.4023 22.8184 87.0371 22.8184 86.5879C22.8184 86.0957 23.0039 85.6855 23.375 85.3574C23.7461 85.0254 24.2637 84.8594 24.9277 84.8594C25.248 84.8594 25.5527 84.9004 25.8418 84.9824C26.1309 85.0645 26.4258 85.2051 26.7266 85.4043L26.2988 86.1309C26.0254 85.959 25.7793 85.8398 25.5605 85.7734C25.3457 85.7031 25.127 85.668 24.9043 85.668C24.5176 85.668 24.2285 85.7402 24.0371 85.8848C23.8496 86.0254 23.7559 86.2305 23.7559 86.5C23.7559 86.7695 23.8535 86.9727 24.0488 87.1094C24.2441 87.2461 24.5742 87.373 25.0391 87.4902C25.6484 87.6426 26.1035 87.8672 26.4043 88.1641C26.709 88.457 26.8613 88.8496 26.8613 89.3418C26.8613 89.8965 26.6641 90.3359 26.2695 90.6602C25.8789 90.9805 25.3418 91.1406 24.6582 91.1406C24.291 91.1406 23.9375 91.0898 23.5977 90.9883C23.2617 90.8867 22.9492 90.7402 22.6602 90.5488ZM33.1426 88.2168H28.9004C28.916 88.8926 29.0938 89.4141 29.4336 89.7812C29.7773 90.1445 30.2578 90.3262 30.875 90.3262C31.1445 90.3262 31.4141 90.2871 31.6836 90.209C31.957 90.127 32.2266 89.998 32.4922 89.8223L32.9375 90.5078C32.5977 90.7266 32.2578 90.8867 31.918 90.9883C31.5781 91.0898 31.2051 91.1406 30.7988 91.1406C29.8926 91.1406 29.1855 90.8711 28.6777 90.332C28.1699 89.793 27.9141 89.041 27.9102 88.0762C27.9062 87.1113 28.1602 86.334 28.6719 85.7441C29.1875 85.1543 29.8555 84.8594 30.6758 84.8594C31.457 84.8594 32.0625 85.1152 32.4922 85.627C32.9258 86.1348 33.1426 86.8398 33.1426 87.7422V88.2168ZM32.1582 87.4316C32.1543 86.877 32.0195 86.4453 31.7539 86.1367C31.4883 85.8242 31.123 85.668 30.6582 85.668C30.2012 85.668 29.8125 85.8281 29.4922 86.1484C29.1758 86.4648 28.9824 86.8926 28.9121 87.4316H32.1582ZM37.5605 85.8203C37.4863 85.7969 37.4199 85.7812 37.3613 85.7734C37.3027 85.7617 37.2285 85.7559 37.1387 85.7559C36.6504 85.7559 36.2656 85.9648 35.9844 86.3828C35.7031 86.7969 35.5625 87.3164 35.5625 87.9414V91H34.6016V85H35.5625V86.1895H35.5859C35.7227 85.7676 35.9316 85.4473 36.2129 85.2285C36.4941 85.0059 36.8184 84.8945 37.1855 84.8945C37.3066 84.8945 37.4082 84.9004 37.4902 84.9121C37.5762 84.9238 37.6523 84.9414 37.7188 84.9648L37.5605 85.8203ZM41.2227 91L44.4453 82.5977H45.4648L48.6992 91H47.6094L46.7598 88.75H43.1211L42.3184 91H41.2227ZM43.4492 87.8652H46.4375L45.0781 84.1797C45.0547 84.1211 45.0332 84.0449 45.0137 83.9512C44.9941 83.8574 44.9727 83.7461 44.9492 83.6172H44.9258C44.9062 83.7344 44.8848 83.8398 44.8613 83.9336C44.8418 84.0273 44.8184 84.1094 44.791 84.1797L43.4492 87.8652ZM54.0312 90.6426C53.7539 90.8145 53.4766 90.9395 53.1992 91.0176C52.9219 91.0996 52.6191 91.1406 52.291 91.1406C51.4473 91.1406 50.7539 90.8789 50.2109 90.3555C49.6719 89.832 49.4023 89.0898 49.4023 88.1289C49.4023 87.1523 49.6738 86.3633 50.2168 85.7617C50.7637 85.1602 51.5137 84.8594 52.4668 84.8594C52.7754 84.8594 53.0684 84.8965 53.3457 84.9707C53.627 85.0449 53.9102 85.166 54.1953 85.334L53.791 86.0371C53.5684 85.9121 53.3496 85.8203 53.1348 85.7617C52.9199 85.7031 52.6855 85.6738 52.4316 85.6738C51.7715 85.6738 51.2656 85.8945 50.9141 86.3359C50.5625 86.7773 50.3867 87.3379 50.3867 88.0176C50.3867 88.7676 50.5703 89.3398 50.9375 89.7344C51.3086 90.1289 51.7871 90.3262 52.373 90.3262C52.5645 90.3262 52.7637 90.2969 52.9707 90.2383C53.1816 90.1758 53.3926 90.0801 53.6035 89.9512L54.0312 90.6426ZM59.5742 90.6426C59.2969 90.8145 59.0195 90.9395 58.7422 91.0176C58.4648 91.0996 58.1621 91.1406 57.834 91.1406C56.9902 91.1406 56.2969 90.8789 55.7539 90.3555C55.2148 89.832 54.9453 89.0898 54.9453 88.1289C54.9453 87.1523 55.2168 86.3633 55.7598 85.7617C56.3066 85.1602 57.0566 84.8594 58.0098 84.8594C58.3184 84.8594 58.6113 84.8965 58.8887 84.9707C59.1699 85.0449 59.4531 85.166 59.7383 85.334L59.334 86.0371C59.1113 85.9121 58.8926 85.8203 58.6777 85.7617C58.4629 85.7031 58.2285 85.6738 57.9746 85.6738C57.3145 85.6738 56.8086 85.8945 56.457 86.3359C56.1055 86.7773 55.9297 87.3379 55.9297 88.0176C55.9297 88.7676 56.1133 89.3398 56.4805 89.7344C56.8516 90.1289 57.3301 90.3262 57.916 90.3262C58.1074 90.3262 58.3066 90.2969 58.5137 90.2383C58.7246 90.1758 58.9355 90.0801 59.1465 89.9512L59.5742 90.6426ZM63.4062 91.1406C62.5195 91.1406 61.8105 90.8613 61.2793 90.3027C60.752 89.7402 60.4883 88.9961 60.4883 88.0703C60.4883 87.0664 60.7617 86.2812 61.3086 85.7148C61.8555 85.1484 62.6016 84.8633 63.5469 84.8594C64.4414 84.8555 65.1387 85.1309 65.6387 85.6855C66.1426 86.2402 66.3945 87.0039 66.3945 87.9766C66.3945 88.9375 66.123 89.7051 65.5801 90.2793C65.041 90.8535 64.3164 91.1406 63.4062 91.1406ZM63.4766 90.332C64.0977 90.332 64.5742 90.1309 64.9062 89.7285C65.2422 89.3223 65.4102 88.75 65.4102 88.0117C65.4102 87.2578 65.2422 86.6797 64.9062 86.2773C64.5703 85.8711 64.0938 85.668 63.4766 85.668C62.8594 85.668 62.3711 85.8789 62.0117 86.3008C61.6523 86.7227 61.4727 87.3008 61.4727 88.0352C61.4727 88.7461 61.6543 89.3066 62.0176 89.7168C62.3809 90.127 62.8672 90.332 63.4766 90.332ZM72.7812 91H71.8203V90.0508H71.7969C71.5977 90.4141 71.3438 90.6875 71.0352 90.8711C70.7266 91.0508 70.3633 91.1406 69.9453 91.1406C69.2305 91.1406 68.6934 90.9277 68.334 90.502C67.9785 90.0762 67.8008 89.4375 67.8008 88.5859V85H68.7559V88.4336C68.7559 89.0664 68.877 89.541 69.1191 89.8574C69.3613 90.1738 69.7246 90.332 70.209 90.332C70.6777 90.332 71.0625 90.1602 71.3633 89.8164C71.668 89.4688 71.8203 89.0156 71.8203 88.457V85H72.7812V91ZM79.707 91H78.7461V87.5781C78.7461 86.9414 78.6289 86.4648 78.3945 86.1484C78.1641 85.8281 77.8164 85.668 77.3516 85.668C76.8711 85.668 76.4727 85.8496 76.1562 86.2129C75.8438 86.5723 75.6875 87.0273 75.6875 87.5781V91H74.7266V85H75.6875V85.9961H75.7109C75.9375 85.6172 76.2148 85.334 76.543 85.1465C76.8711 84.9551 77.25 84.8594 77.6797 84.8594C78.3359 84.8594 78.8379 85.0723 79.1855 85.498C79.5332 85.9199 79.707 86.5312 79.707 87.332V91ZM84.3828 90.9414C84.2188 91.0078 84.0566 91.0566 83.8965 91.0879C83.7402 91.123 83.5625 91.1406 83.3633 91.1406C82.8867 91.1406 82.5117 91.002 82.2383 90.7246C81.9688 90.4434 81.834 90.0293 81.834 89.4824V85.8203H80.8027V85H81.834V83.5352L82.7949 83.2246V85H84.3066V85.8203H82.7949V89.3301C82.7949 89.6934 82.8633 89.9512 83 90.1035C83.1406 90.2559 83.334 90.332 83.5801 90.332C83.6895 90.332 83.793 90.3184 83.8906 90.291C83.9922 90.2637 84.0781 90.2324 84.1484 90.1973L84.3828 90.9414ZM94.9297 90.5781C94.5234 90.7734 94.127 90.916 93.7402 91.0059C93.3535 91.0957 92.9336 91.1406 92.4805 91.1406C91.2109 91.1406 90.2227 90.7559 89.5156 89.9863C88.8125 89.2168 88.4609 88.207 88.4609 86.957C88.4609 85.5859 88.8535 84.4941 89.6387 83.6816C90.4277 82.8652 91.4551 82.457 92.7207 82.457C93.1152 82.457 93.4844 82.4941 93.8281 82.5684C94.1758 82.6426 94.5352 82.7617 94.9062 82.9258L94.543 83.7344C94.2344 83.5977 93.9355 83.5 93.6465 83.4414C93.3574 83.3789 93.0449 83.3477 92.709 83.3477C91.7246 83.3477 90.9414 83.666 90.3594 84.3027C89.7812 84.9355 89.4922 85.8008 89.4922 86.8984C89.4922 87.9258 89.7695 88.7422 90.3242 89.3477C90.8828 89.9531 91.6211 90.2559 92.5391 90.2559C92.8789 90.2559 93.2109 90.2188 93.5352 90.1445C93.8633 90.0703 94.1973 89.9492 94.5371 89.7812L94.9297 90.5781ZM98.8203 91.1406C97.9336 91.1406 97.2246 90.8613 96.6934 90.3027C96.166 89.7402 95.9023 88.9961 95.9023 88.0703C95.9023 87.0664 96.1758 86.2812 96.7227 85.7148C97.2695 85.1484 98.0156 84.8633 98.9609 84.8594C99.8555 84.8555 100.553 85.1309 101.053 85.6855C101.557 86.2402 101.809 87.0039 101.809 87.9766C101.809 88.9375 101.537 89.7051 100.994 90.2793C100.455 90.8535 99.7305 91.1406 98.8203 91.1406ZM98.8906 90.332C99.5117 90.332 99.9883 90.1309 100.32 89.7285C100.656 89.3223 100.824 88.75 100.824 88.0117C100.824 87.2578 100.656 86.6797 100.32 86.2773C99.9844 85.8711 99.5078 85.668 98.8906 85.668C98.2734 85.668 97.7852 85.8789 97.4258 86.3008C97.0664 86.7227 96.8867 87.3008 96.8867 88.0352C96.8867 88.7461 97.0684 89.3066 97.4316 89.7168C97.7949 90.127 98.2812 90.332 98.8906 90.332ZM108.324 91H107.363V87.5781C107.363 86.9414 107.246 86.4648 107.012 86.1484C106.781 85.8281 106.434 85.668 105.969 85.668C105.488 85.668 105.09 85.8496 104.773 86.2129C104.461 86.5723 104.305 87.0273 104.305 87.5781V91H103.344V85H104.305V85.9961H104.328C104.555 85.6172 104.832 85.334 105.16 85.1465C105.488 84.9551 105.867 84.8594 106.297 84.8594C106.953 84.8594 107.455 85.0723 107.803 85.498C108.15 85.9199 108.324 86.5312 108.324 87.332V91ZM113 90.9414C112.836 91.0078 112.674 91.0566 112.514 91.0879C112.357 91.123 112.18 91.1406 111.98 91.1406C111.504 91.1406 111.129 91.002 110.855 90.7246C110.586 90.4434 110.451 90.0293 110.451 89.4824V85.8203H109.42V85H110.451V83.5352L111.412 83.2246V85H112.924V85.8203H111.412V89.3301C111.412 89.6934 111.48 89.9512 111.617 90.1035C111.758 90.2559 111.951 90.332 112.197 90.332C112.307 90.332 112.41 90.3184 112.508 90.291C112.609 90.2637 112.695 90.2324 112.766 90.1973L113 90.9414ZM117.166 85.8203C117.092 85.7969 117.025 85.7812 116.967 85.7734C116.908 85.7617 116.834 85.7559 116.744 85.7559C116.256 85.7559 115.871 85.9648 115.59 86.3828C115.309 86.7969 115.168 87.3164 115.168 87.9414V91H114.207V85H115.168V86.1895H115.191C115.328 85.7676 115.537 85.4473 115.818 85.2285C116.1 85.0059 116.424 84.8945 116.791 84.8945C116.912 84.8945 117.014 84.9004 117.096 84.9121C117.182 84.9238 117.258 84.9414 117.324 84.9648L117.166 85.8203ZM120.887 91.1406C120 91.1406 119.291 90.8613 118.76 90.3027C118.232 89.7402 117.969 88.9961 117.969 88.0703C117.969 87.0664 118.242 86.2812 118.789 85.7148C119.336 85.1484 120.082 84.8633 121.027 84.8594C121.922 84.8555 122.619 85.1309 123.119 85.6855C123.623 86.2402 123.875 87.0039 123.875 87.9766C123.875 88.9375 123.604 89.7051 123.061 90.2793C122.521 90.8535 121.797 91.1406 120.887 91.1406ZM120.957 90.332C121.578 90.332 122.055 90.1309 122.387 89.7285C122.723 89.3223 122.891 88.75 122.891 88.0117C122.891 87.2578 122.723 86.6797 122.387 86.2773C122.051 85.8711 121.574 85.668 120.957 85.668C120.34 85.668 119.852 85.8789 119.492 86.3008C119.133 86.7227 118.953 87.3008 118.953 88.0352C118.953 88.7461 119.135 89.3066 119.498 89.7168C119.861 90.127 120.348 90.332 120.957 90.332ZM125.41 91V82.1172H126.371V91H125.41ZM23.668 109H22.6895V103.363C22.6895 103.141 22.6953 102.893 22.707 102.619C22.7227 102.346 22.7441 102.049 22.7715 101.729H22.748C22.7012 101.916 22.6562 102.078 22.6133 102.215C22.5742 102.352 22.5352 102.461 22.4961 102.543L19.625 109H19.1445L16.2793 102.59C16.2402 102.496 16.1992 102.377 16.1562 102.232C16.1133 102.088 16.0703 101.92 16.0273 101.729H16.0039C16.0195 101.896 16.0312 102.117 16.0391 102.391C16.0469 102.664 16.0508 102.992 16.0508 103.375V109H15.1016V100.598H16.4023L18.9805 106.457C19.082 106.68 19.1641 106.875 19.2266 107.043C19.293 107.211 19.3398 107.352 19.3672 107.465H19.4023C19.4883 107.234 19.5645 107.033 19.6309 106.861C19.6973 106.689 19.7559 106.547 19.8066 106.434L22.4375 100.598H23.668V109ZM26.2461 101.506C26.0586 101.506 25.9004 101.443 25.7715 101.318C25.6465 101.193 25.584 101.039 25.584 100.855C25.584 100.672 25.6465 100.518 25.7715 100.393C25.9004 100.268 26.0586 100.205 26.2461 100.205C26.4336 100.205 26.5898 100.268 26.7148 100.393C26.8438 100.518 26.9082 100.672 26.9082 100.855C26.9082 101.039 26.8438 101.193 26.7148 101.318C26.5898 101.443 26.4336 101.506 26.2461 101.506ZM26.7148 109H25.7539V103H26.7148V109ZM32.8789 108.643C32.6016 108.814 32.3242 108.939 32.0469 109.018C31.7695 109.1 31.4668 109.141 31.1387 109.141C30.2949 109.141 29.6016 108.879 29.0586 108.355C28.5195 107.832 28.25 107.09 28.25 106.129C28.25 105.152 28.5215 104.363 29.0645 103.762C29.6113 103.16 30.3613 102.859 31.3145 102.859C31.623 102.859 31.916 102.896 32.1934 102.971C32.4746 103.045 32.7578 103.166 33.043 103.334L32.6387 104.037C32.416 103.912 32.1973 103.82 31.9824 103.762C31.7676 103.703 31.5332 103.674 31.2793 103.674C30.6191 103.674 30.1133 103.895 29.7617 104.336C29.4102 104.777 29.2344 105.338 29.2344 106.018C29.2344 106.768 29.418 107.34 29.7852 107.734C30.1562 108.129 30.6348 108.326 31.2207 108.326C31.4121 108.326 31.6113 108.297 31.8184 108.238C32.0293 108.176 32.2402 108.08 32.4512 107.951L32.8789 108.643ZM37.1621 103.82C37.0879 103.797 37.0215 103.781 36.9629 103.773C36.9043 103.762 36.8301 103.756 36.7402 103.756C36.252 103.756 35.8672 103.965 35.5859 104.383C35.3047 104.797 35.1641 105.316 35.1641 105.941V109H34.2031V103H35.1641V104.189H35.1875C35.3242 103.768 35.5332 103.447 35.8145 103.229C36.0957 103.006 36.4199 102.895 36.7871 102.895C36.9082 102.895 37.0098 102.9 37.0918 102.912C37.1777 102.924 37.2539 102.941 37.3203 102.965L37.1621 103.82ZM40.8828 109.141C39.9961 109.141 39.2871 108.861 38.7559 108.303C38.2285 107.74 37.9648 106.996 37.9648 106.07C37.9648 105.066 38.2383 104.281 38.7852 103.715C39.332 103.148 40.0781 102.863 41.0234 102.859C41.918 102.855 42.6152 103.131 43.1152 103.686C43.6191 104.24 43.8711 105.004 43.8711 105.977C43.8711 106.938 43.5996 107.705 43.0566 108.279C42.5176 108.854 41.793 109.141 40.8828 109.141ZM40.9531 108.332C41.5742 108.332 42.0508 108.131 42.3828 107.729C42.7188 107.322 42.8867 106.75 42.8867 106.012C42.8867 105.258 42.7188 104.68 42.3828 104.277C42.0469 103.871 41.5703 103.668 40.9531 103.668C40.3359 103.668 39.8477 103.879 39.4883 104.301C39.1289 104.723 38.9492 105.301 38.9492 106.035C38.9492 106.746 39.1309 107.307 39.4941 107.717C39.8574 108.127 40.3438 108.332 40.9531 108.332ZM44.8438 108.549L45.3008 107.811C45.5625 107.982 45.8184 108.113 46.0684 108.203C46.3184 108.289 46.5879 108.332 46.877 108.332C47.2871 108.332 47.5938 108.254 47.7969 108.098C48.0039 107.941 48.1074 107.711 48.1074 107.406C48.1074 107.16 48.0156 106.953 47.832 106.785C47.6523 106.613 47.3613 106.477 46.959 106.375C46.2559 106.195 45.7539 105.965 45.4531 105.684C45.1523 105.402 45.002 105.037 45.002 104.588C45.002 104.096 45.1875 103.686 45.5586 103.357C45.9297 103.025 46.4473 102.859 47.1113 102.859C47.4316 102.859 47.7363 102.9 48.0254 102.982C48.3145 103.064 48.6094 103.205 48.9102 103.404L48.4824 104.131C48.209 103.959 47.9629 103.84 47.7441 103.773C47.5293 103.703 47.3105 103.668 47.0879 103.668C46.7012 103.668 46.4121 103.74 46.2207 103.885C46.0332 104.025 45.9395 104.23 45.9395 104.5C45.9395 104.77 46.0371 104.973 46.2324 105.109C46.4277 105.246 46.7578 105.373 47.2227 105.49C47.832 105.643 48.2871 105.867 48.5879 106.164C48.8926 106.457 49.0449 106.85 49.0449 107.342C49.0449 107.896 48.8477 108.336 48.4531 108.66C48.0625 108.98 47.5254 109.141 46.8418 109.141C46.4746 109.141 46.1211 109.09 45.7812 108.988C45.4453 108.887 45.1328 108.74 44.8438 108.549ZM53.0117 109.141C52.125 109.141 51.416 108.861 50.8848 108.303C50.3574 107.74 50.0938 106.996 50.0938 106.07C50.0938 105.066 50.3672 104.281 50.9141 103.715C51.4609 103.148 52.207 102.863 53.1523 102.859C54.0469 102.855 54.7441 103.131 55.2441 103.686C55.748 104.24 56 105.004 56 105.977C56 106.938 55.7285 107.705 55.1855 108.279C54.6465 108.854 53.9219 109.141 53.0117 109.141ZM53.082 108.332C53.7031 108.332 54.1797 108.131 54.5117 107.729C54.8477 107.322 55.0156 106.75 55.0156 106.012C55.0156 105.258 54.8477 104.68 54.5117 104.277C54.1758 103.871 53.6992 103.668 53.082 103.668C52.4648 103.668 51.9766 103.879 51.6172 104.301C51.2578 104.723 51.0781 105.301 51.0781 106.035C51.0781 106.746 51.2598 107.307 51.623 107.717C51.9863 108.127 52.4727 108.332 53.082 108.332ZM60.4004 100.902C60.291 100.867 60.1914 100.842 60.1016 100.826C60.0156 100.811 59.9238 100.803 59.8262 100.803C59.498 100.803 59.2539 100.891 59.0938 101.066C58.9336 101.242 58.8535 101.5 58.8535 101.84V103H60.2598V103.82H58.8535V109H57.8984V103.82H56.873V103H57.8984V101.793C57.8984 101.227 58.0723 100.783 58.4199 100.463C58.7676 100.139 59.2441 99.9766 59.8496 99.9766C59.998 99.9766 60.1328 99.9902 60.2539 100.018C60.375 100.041 60.5 100.074 60.6289 100.117L60.4004 100.902ZM64.1562 108.941C63.9922 109.008 63.8301 109.057 63.6699 109.088C63.5137 109.123 63.3359 109.141 63.1367 109.141C62.6602 109.141 62.2852 109.002 62.0117 108.725C61.7422 108.443 61.6074 108.029 61.6074 107.482V103.82H60.5762V103H61.6074V101.535L62.5684 101.225V103H64.0801V103.82H62.5684V107.33C62.5684 107.693 62.6367 107.951 62.7734 108.104C62.9141 108.256 63.1074 108.332 63.3535 108.332C63.4629 108.332 63.5664 108.318 63.6641 108.291C63.7656 108.264 63.8516 108.232 63.9219 108.197L64.1562 108.941ZM73.373 103L70.9824 109H70.0391L67.7656 103H68.8203L70.3438 107.359C70.3984 107.52 70.4434 107.67 70.4785 107.811C70.5137 107.947 70.5391 108.076 70.5547 108.197H70.5781C70.5977 108.045 70.623 107.902 70.6543 107.77C70.6855 107.633 70.7227 107.504 70.7656 107.383L72.3594 103H73.373ZM79.2617 109H78.3008V108.051H78.2773C78.0781 108.414 77.8242 108.688 77.5156 108.871C77.207 109.051 76.8438 109.141 76.4258 109.141C75.7109 109.141 75.1738 108.928 74.8145 108.502C74.459 108.076 74.2812 107.438 74.2812 106.586V103H75.2363V106.434C75.2363 107.066 75.3574 107.541 75.5996 107.857C75.8418 108.174 76.2051 108.332 76.6895 108.332C77.1582 108.332 77.543 108.16 77.8438 107.816C78.1484 107.469 78.3008 107.016 78.3008 106.457V103H79.2617V109ZM81.207 109V100.117H82.168V109H81.207ZM89.0938 109H88.1328V105.578C88.1328 104.941 88.0156 104.465 87.7812 104.148C87.5508 103.828 87.2031 103.668 86.7383 103.668C86.2578 103.668 85.8594 103.85 85.543 104.213C85.2305 104.572 85.0742 105.027 85.0742 105.578V109H84.1133V103H85.0742V103.996H85.0977C85.3242 103.617 85.6016 103.334 85.9297 103.146C86.2578 102.955 86.6367 102.859 87.0664 102.859C87.7227 102.859 88.2246 103.072 88.5723 103.498C88.9199 103.92 89.0938 104.531 89.0938 105.332V109ZM95.7324 106.217H91.4902C91.5059 106.893 91.6836 107.414 92.0234 107.781C92.3672 108.145 92.8477 108.326 93.4648 108.326C93.7344 108.326 94.0039 108.287 94.2734 108.209C94.5469 108.127 94.8164 107.998 95.082 107.822L95.5273 108.508C95.1875 108.727 94.8477 108.887 94.5078 108.988C94.168 109.09 93.7949 109.141 93.3887 109.141C92.4824 109.141 91.7754 108.871 91.2676 108.332C90.7598 107.793 90.5039 107.041 90.5 106.076C90.4961 105.111 90.75 104.334 91.2617 103.744C91.7773 103.154 92.4453 102.859 93.2656 102.859C94.0469 102.859 94.6523 103.115 95.082 103.627C95.5156 104.135 95.7324 104.84 95.7324 105.742V106.217ZM94.748 105.432C94.7441 104.877 94.6094 104.445 94.3438 104.137C94.0781 103.824 93.7129 103.668 93.248 103.668C92.791 103.668 92.4023 103.828 92.082 104.148C91.7656 104.465 91.5723 104.893 91.502 105.432H94.748ZM100.15 103.82C100.076 103.797 100.01 103.781 99.9512 103.773C99.8926 103.762 99.8184 103.756 99.7285 103.756C99.2402 103.756 98.8555 103.965 98.5742 104.383C98.293 104.797 98.1523 105.316 98.1523 105.941V109H97.1914V103H98.1523V104.189H98.1758C98.3125 103.768 98.5215 103.447 98.8027 103.229C99.084 103.006 99.4082 102.895 99.7754 102.895C99.8965 102.895 99.998 102.9 100.08 102.912C100.166 102.924 100.242 102.941 100.309 102.965L100.15 103.82ZM105.611 109H104.65V108.062H104.627C104.42 108.422 104.164 108.691 103.859 108.871C103.559 109.051 103.207 109.141 102.805 109.141C102.242 109.141 101.787 108.977 101.439 108.648C101.092 108.32 100.918 107.885 100.918 107.342C100.918 106.83 101.094 106.406 101.445 106.07C101.797 105.734 102.295 105.52 102.939 105.426L104.65 105.197V105.062C104.65 104.559 104.533 104.201 104.299 103.99C104.064 103.775 103.752 103.668 103.361 103.668C103.049 103.668 102.748 103.727 102.459 103.844C102.17 103.961 101.898 104.141 101.645 104.383L101.082 103.803C101.418 103.479 101.775 103.24 102.154 103.088C102.533 102.936 102.955 102.859 103.42 102.859C104.146 102.859 104.693 103.047 105.061 103.422C105.428 103.793 105.611 104.352 105.611 105.098V109ZM104.65 106.562V105.965L103.203 106.164C102.762 106.227 102.43 106.338 102.207 106.498C101.984 106.658 101.873 106.91 101.873 107.254C101.873 107.613 101.977 107.889 102.184 108.08C102.395 108.268 102.65 108.361 102.951 108.361C103.471 108.361 103.883 108.191 104.188 107.852C104.496 107.512 104.65 107.082 104.65 106.562ZM108.453 108.227H108.43V109H107.469V100.117H108.43V104.055H108.453C108.691 103.656 108.982 103.357 109.326 103.158C109.674 102.959 110.074 102.859 110.527 102.859C111.297 102.859 111.898 103.129 112.332 103.668C112.77 104.203 112.988 104.922 112.988 105.824C112.988 106.828 112.744 107.633 112.256 108.238C111.768 108.84 111.1 109.141 110.252 109.141C109.857 109.141 109.51 109.064 109.209 108.912C108.908 108.76 108.656 108.531 108.453 108.227ZM108.43 105.713V106.551C108.43 107.047 108.59 107.469 108.91 107.816C109.234 108.16 109.645 108.332 110.141 108.332C110.723 108.332 111.178 108.109 111.506 107.664C111.838 107.219 112.004 106.6 112.004 105.807C112.004 105.139 111.85 104.615 111.541 104.236C111.232 103.857 110.814 103.668 110.287 103.668C109.729 103.668 109.279 103.863 108.939 104.254C108.6 104.641 108.43 105.127 108.43 105.713ZM114.523 109V100.117H115.484V109H114.523ZM122.252 106.217H118.01C118.025 106.893 118.203 107.414 118.543 107.781C118.887 108.145 119.367 108.326 119.984 108.326C120.254 108.326 120.523 108.287 120.793 108.209C121.066 108.127 121.336 107.998 121.602 107.822L122.047 108.508C121.707 108.727 121.367 108.887 121.027 108.988C120.688 109.09 120.314 109.141 119.908 109.141C119.002 109.141 118.295 108.871 117.787 108.332C117.279 107.793 117.023 107.041 117.02 106.076C117.016 105.111 117.27 104.334 117.781 103.744C118.297 103.154 118.965 102.859 119.785 102.859C120.566 102.859 121.172 103.115 121.602 103.627C122.035 104.135 122.252 104.84 122.252 105.742V106.217ZM121.268 105.432C121.264 104.877 121.129 104.445 120.863 104.137C120.598 103.824 120.232 103.668 119.768 103.668C119.311 103.668 118.922 103.828 118.602 104.148C118.285 104.465 118.092 104.893 118.021 105.432H121.268ZM131.141 107.98C130.918 108.367 130.635 108.658 130.291 108.854C129.951 109.045 129.547 109.141 129.078 109.141C128.324 109.141 127.721 108.873 127.268 108.338C126.818 107.799 126.594 107.066 126.594 106.141C126.594 105.148 126.844 104.354 127.344 103.756C127.844 103.158 128.51 102.859 129.342 102.859C129.756 102.859 130.111 102.941 130.408 103.105C130.709 103.266 130.953 103.508 131.141 103.832H131.164V100.117H132.125V109H131.164V107.98H131.141ZM127.578 106.094C127.578 106.785 127.738 107.332 128.059 107.734C128.383 108.133 128.816 108.332 129.359 108.332C129.898 108.332 130.334 108.139 130.666 107.752C130.998 107.365 131.164 106.877 131.164 106.287V105.402C131.164 104.918 131.002 104.508 130.678 104.172C130.357 103.836 129.953 103.668 129.465 103.668C128.879 103.668 128.418 103.883 128.082 104.312C127.746 104.742 127.578 105.336 127.578 106.094ZM137.029 103.82C136.955 103.797 136.889 103.781 136.83 103.773C136.771 103.762 136.697 103.756 136.607 103.756C136.119 103.756 135.734 103.965 135.453 104.383C135.172 104.797 135.031 105.316 135.031 105.941V109H134.07V103H135.031V104.189H135.055C135.191 103.768 135.4 103.447 135.682 103.229C135.963 103.006 136.287 102.895 136.654 102.895C136.775 102.895 136.877 102.9 136.959 102.912C137.045 102.924 137.121 102.941 137.188 102.965L137.029 103.82ZM138.734 101.506C138.547 101.506 138.389 101.443 138.26 101.318C138.135 101.193 138.072 101.039 138.072 100.855C138.072 100.672 138.135 100.518 138.26 100.393C138.389 100.268 138.547 100.205 138.734 100.205C138.922 100.205 139.078 100.268 139.203 100.393C139.332 100.518 139.396 100.672 139.396 100.855C139.396 101.039 139.332 101.193 139.203 101.318C139.078 101.443 138.922 101.506 138.734 101.506ZM139.203 109H138.242V103H139.203V109ZM145.865 103L143.475 109H142.531L140.258 103H141.312L142.836 107.359C142.891 107.52 142.936 107.67 142.971 107.811C143.006 107.947 143.031 108.076 143.047 108.197H143.07C143.09 108.045 143.115 107.902 143.146 107.77C143.178 107.633 143.215 107.504 143.258 107.383L144.852 103H145.865ZM151.725 106.217H147.482C147.498 106.893 147.676 107.414 148.016 107.781C148.359 108.145 148.84 108.326 149.457 108.326C149.727 108.326 149.996 108.287 150.266 108.209C150.539 108.127 150.809 107.998 151.074 107.822L151.52 108.508C151.18 108.727 150.84 108.887 150.5 108.988C150.16 109.09 149.787 109.141 149.381 109.141C148.475 109.141 147.768 108.871 147.26 108.332C146.752 107.793 146.496 107.041 146.492 106.076C146.488 105.111 146.742 104.334 147.254 103.744C147.77 103.154 148.438 102.859 149.258 102.859C150.039 102.859 150.645 103.115 151.074 103.627C151.508 104.135 151.725 104.84 151.725 105.742V106.217ZM150.74 105.432C150.736 104.877 150.602 104.445 150.336 104.137C150.07 103.824 149.705 103.668 149.24 103.668C148.783 103.668 148.395 103.828 148.074 104.148C147.758 104.465 147.564 104.893 147.494 105.432H150.74ZM156.143 103.82C156.068 103.797 156.002 103.781 155.943 103.773C155.885 103.762 155.811 103.756 155.721 103.756C155.232 103.756 154.848 103.965 154.566 104.383C154.285 104.797 154.145 105.316 154.145 105.941V109H153.184V103H154.145V104.189H154.168C154.305 103.768 154.514 103.447 154.795 103.229C155.076 103.006 155.4 102.895 155.768 102.895C155.889 102.895 155.99 102.9 156.072 102.912C156.158 102.924 156.234 102.941 156.301 102.965L156.143 103.82ZM161.633 108.227H161.609V109H160.648V100.117H161.609V104.055H161.633C161.871 103.656 162.162 103.357 162.506 103.158C162.854 102.959 163.254 102.859 163.707 102.859C164.477 102.859 165.078 103.129 165.512 103.668C165.949 104.203 166.168 104.922 166.168 105.824C166.168 106.828 165.924 107.633 165.436 108.238C164.947 108.84 164.279 109.141 163.432 109.141C163.037 109.141 162.689 109.064 162.389 108.912C162.088 108.76 161.836 108.531 161.633 108.227ZM161.609 105.713V106.551C161.609 107.047 161.77 107.469 162.09 107.816C162.414 108.16 162.824 108.332 163.32 108.332C163.902 108.332 164.357 108.109 164.686 107.664C165.018 107.219 165.184 106.6 165.184 105.807C165.184 105.139 165.029 104.615 164.721 104.236C164.412 103.857 163.994 103.668 163.467 103.668C162.908 103.668 162.459 103.863 162.119 104.254C161.779 104.641 161.609 105.127 161.609 105.713ZM167.703 109V100.117H168.664V109H167.703ZM173.117 109.141C172.23 109.141 171.521 108.861 170.99 108.303C170.463 107.74 170.199 106.996 170.199 106.07C170.199 105.066 170.473 104.281 171.02 103.715C171.566 103.148 172.312 102.863 173.258 102.859C174.152 102.855 174.85 103.131 175.35 103.686C175.854 104.24 176.105 105.004 176.105 105.977C176.105 106.938 175.834 107.705 175.291 108.279C174.752 108.854 174.027 109.141 173.117 109.141ZM173.188 108.332C173.809 108.332 174.285 108.131 174.617 107.729C174.953 107.322 175.121 106.75 175.121 106.012C175.121 105.258 174.953 104.68 174.617 104.277C174.281 103.871 173.805 103.668 173.188 103.668C172.57 103.668 172.082 103.879 171.723 104.301C171.363 104.723 171.184 105.301 171.184 106.035C171.184 106.746 171.365 107.307 171.729 107.717C172.092 108.127 172.578 108.332 173.188 108.332ZM181.859 108.643C181.582 108.814 181.305 108.939 181.027 109.018C180.75 109.1 180.447 109.141 180.119 109.141C179.275 109.141 178.582 108.879 178.039 108.355C177.5 107.832 177.23 107.09 177.23 106.129C177.23 105.152 177.502 104.363 178.045 103.762C178.592 103.16 179.342 102.859 180.295 102.859C180.604 102.859 180.896 102.896 181.174 102.971C181.455 103.045 181.738 103.166 182.023 103.334L181.619 104.037C181.396 103.912 181.178 103.82 180.963 103.762C180.748 103.703 180.514 103.674 180.26 103.674C179.6 103.674 179.094 103.895 178.742 104.336C178.391 104.777 178.215 105.338 178.215 106.018C178.215 106.768 178.398 107.34 178.766 107.734C179.137 108.129 179.615 108.326 180.201 108.326C180.393 108.326 180.592 108.297 180.799 108.238C181.01 108.176 181.221 108.08 181.432 107.951L181.859 108.643ZM188.164 109H186.816L184.168 106.117H184.145V109H183.184V100.117H184.145V105.748H184.168L186.688 103H187.947L185.164 105.895L188.164 109ZM189.148 109V100.117H190.109V109H189.148ZM192.547 101.506C192.359 101.506 192.201 101.443 192.072 101.318C191.947 101.193 191.885 101.039 191.885 100.855C191.885 100.672 191.947 100.518 192.072 100.393C192.201 100.268 192.359 100.205 192.547 100.205C192.734 100.205 192.891 100.268 193.016 100.393C193.145 100.518 193.209 100.672 193.209 100.855C193.209 101.039 193.145 101.193 193.016 101.318C192.891 101.443 192.734 101.506 192.547 101.506ZM193.016 109H192.055V103H193.016V109ZM194.398 108.549L194.855 107.811C195.117 107.982 195.373 108.113 195.623 108.203C195.873 108.289 196.143 108.332 196.432 108.332C196.842 108.332 197.148 108.254 197.352 108.098C197.559 107.941 197.662 107.711 197.662 107.406C197.662 107.16 197.57 106.953 197.387 106.785C197.207 106.613 196.916 106.477 196.514 106.375C195.811 106.195 195.309 105.965 195.008 105.684C194.707 105.402 194.557 105.037 194.557 104.588C194.557 104.096 194.742 103.686 195.113 103.357C195.484 103.025 196.002 102.859 196.666 102.859C196.986 102.859 197.291 102.9 197.58 102.982C197.869 103.064 198.164 103.205 198.465 103.404L198.037 104.131C197.764 103.959 197.518 103.84 197.299 103.773C197.084 103.703 196.865 103.668 196.643 103.668C196.256 103.668 195.967 103.74 195.775 103.885C195.588 104.025 195.494 104.23 195.494 104.5C195.494 104.77 195.592 104.973 195.787 105.109C195.982 105.246 196.312 105.373 196.777 105.49C197.387 105.643 197.842 105.867 198.143 106.164C198.447 106.457 198.6 106.85 198.6 107.342C198.6 107.896 198.402 108.336 198.008 108.66C197.617 108.98 197.08 109.141 196.396 109.141C196.029 109.141 195.676 109.09 195.336 108.988C195 108.887 194.688 108.74 194.398 108.549ZM202.918 108.941C202.754 109.008 202.592 109.057 202.432 109.088C202.275 109.123 202.098 109.141 201.898 109.141C201.422 109.141 201.047 109.002 200.773 108.725C200.504 108.443 200.369 108.029 200.369 107.482V103.82H199.338V103H200.369V101.535L201.33 101.225V103H202.842V103.82H201.33V107.33C201.33 107.693 201.398 107.951 201.535 108.104C201.676 108.256 201.869 108.332 202.115 108.332C202.225 108.332 202.328 108.318 202.426 108.291C202.527 108.264 202.613 108.232 202.684 108.197L202.918 108.941Z" fill="white"/>
<path d="M375.25 87C374.729 87 374.241 86.9023 373.785 86.707C373.329 86.5117 372.932 86.2448 372.594 85.9062C372.255 85.5677 371.988 85.1706 371.793 84.7148C371.598 84.2591 371.5 83.7708 371.5 83.25V58.25C371.5 57.7292 371.598 57.2409 371.793 56.7852C371.988 56.3294 372.255 55.9323 372.594 55.5938C372.932 55.2552 373.329 54.9883 373.785 54.793C374.241 54.5977 374.729 54.5 375.25 54.5H400.25C400.771 54.5 401.259 54.5977 401.715 54.793C402.171 54.9883 402.568 55.2552 402.906 55.5938C403.245 55.9323 403.512 56.3294 403.707 56.7852C403.902 57.2409 404 57.7292 404 58.25V68.5039C403.206 68.1003 402.372 67.7682 401.5 67.5078V58.25C401.5 57.9115 401.376 57.6185 401.129 57.3711C400.882 57.1237 400.589 57 400.25 57H389V69.5H389.84C388.538 70.4245 387.424 71.5378 386.5 72.8398V72H374V83.25C374 83.5885 374.124 83.8815 374.371 84.1289C374.618 84.3763 374.911 84.5 375.25 84.5H384.527C384.762 85.3464 385.087 86.1797 385.504 87H375.25ZM374 69.5H386.5V57H375.25C374.911 57 374.618 57.1237 374.371 57.3711C374.124 57.6185 374 57.9115 374 58.25V69.5ZM393.297 90.7305C392.555 90.418 391.826 90.0208 391.109 89.5391C391.227 89.1224 391.337 88.7188 391.441 88.3281C391.546 87.9375 391.604 87.5208 391.617 87.0781C391.617 86.5052 391.52 85.9583 391.324 85.4375C391.129 84.9167 390.862 84.4349 390.523 83.9922C390.185 83.5495 389.781 83.1849 389.312 82.8984C388.844 82.612 388.329 82.3906 387.77 82.2344L386.559 81.9609C386.52 81.5573 386.5 81.1536 386.5 80.75C386.5 80.3594 386.52 79.9557 386.559 79.5391L387.77 79.2656C388.329 79.1354 388.844 78.9206 389.312 78.6211C389.781 78.3216 390.185 77.9505 390.523 77.5078C390.862 77.0651 391.129 76.5898 391.324 76.082C391.52 75.5742 391.617 75.0208 391.617 74.4219C391.617 73.9922 391.565 73.582 391.461 73.1914C391.357 72.8008 391.24 72.3906 391.109 71.9609C391.826 71.4792 392.555 71.082 393.297 70.7695C393.648 71.1211 393.974 71.4401 394.273 71.7266C394.573 72.013 394.898 72.2604 395.25 72.4688C395.602 72.6771 395.973 72.8464 396.363 72.9766C396.754 73.1068 397.216 73.1654 397.75 73.1523C398.271 73.1523 398.733 73.0938 399.137 72.9766C399.54 72.8594 399.911 72.6966 400.25 72.4883C400.589 72.2799 400.908 72.026 401.207 71.7266C401.507 71.4271 401.839 71.1081 402.203 70.7695C402.945 71.082 403.674 71.4792 404.391 71.9609C404.273 72.3776 404.163 72.7812 404.059 73.1719C403.954 73.5625 403.896 73.9792 403.883 74.4219C403.883 74.9948 403.974 75.5417 404.156 76.0625C404.339 76.5833 404.605 77.0651 404.957 77.5078C405.309 77.9505 405.719 78.3151 406.188 78.6016C406.656 78.888 407.171 79.1094 407.73 79.2656L408.941 79.5391C408.98 79.9557 409 80.3594 409 80.75C409 81.1536 408.98 81.5573 408.941 81.9609L407.73 82.2344C407.171 82.3646 406.656 82.5794 406.188 82.8789C405.719 83.1784 405.315 83.5495 404.977 83.9922C404.638 84.4349 404.371 84.9102 404.176 85.418C403.98 85.9258 403.883 86.4792 403.883 87.0781C403.883 87.5078 403.935 87.918 404.039 88.3086C404.143 88.6992 404.26 89.1094 404.391 89.5391C403.674 90.0208 402.945 90.418 402.203 90.7305C401.852 90.3789 401.526 90.0599 401.227 89.7734C400.927 89.487 400.602 89.2396 400.25 89.0312C399.898 88.8229 399.527 88.6536 399.137 88.5234C398.746 88.3932 398.284 88.3346 397.75 88.3477C397.216 88.3477 396.754 88.4062 396.363 88.5234C395.973 88.6406 395.602 88.8034 395.25 89.0117C394.898 89.2201 394.579 89.474 394.293 89.7734C394.007 90.0729 393.674 90.3919 393.297 90.7305ZM400.25 80.75C400.25 80.4115 400.185 80.0924 400.055 79.793C399.924 79.4935 399.749 79.2266 399.527 78.9922C399.306 78.7578 399.039 78.5755 398.727 78.4453C398.414 78.3151 398.089 78.25 397.75 78.25C397.398 78.25 397.073 78.3151 396.773 78.4453C396.474 78.5755 396.214 78.7513 395.992 78.9727C395.771 79.194 395.589 79.4609 395.445 79.7734C395.302 80.0859 395.237 80.4115 395.25 80.75C395.25 81.1016 395.315 81.4271 395.445 81.7266C395.576 82.026 395.751 82.293 395.973 82.5273C396.194 82.7617 396.454 82.9375 396.754 83.0547C397.053 83.1719 397.385 83.237 397.75 83.25C398.102 83.25 398.427 83.1849 398.727 83.0547C399.026 82.9245 399.286 82.7487 399.508 82.5273C399.729 82.306 399.911 82.0391 400.055 81.7266C400.198 81.4141 400.263 81.0885 400.25 80.75Z" fill="#98ECFE"/>
<defs>
<filter id="filter0_d_30_195" x="0" y="0" width="429" height="135" filterUnits="userSpaceOnUse" color-interpolation-filters="sRGB">
<feFlood flood-opacity="0" result="BackgroundImageFix"/>
<feColorMatrix in="SourceAlpha" type="matrix" values="0 0 0 0 0 0 0 0 0 0 0 0 0 0 0 0 0 0 127 0" result="hardAlpha"/>
<feOffset dx="-4"/>
<feComposite in2="hardAlpha" operator="out"/>
<feColorMatrix type="matrix" values="0 0 0 0 0.596078 0 0 0 0 0.92549 0 0 0 0 0.996078 0 0 0 1 0"/>
<feBlend mode="normal" in2="BackgroundImageFix" result="effect1_dropShadow_30_195"/>
<feBlend mode="normal" in="SourceGraphic" in2="effect1_dropShadow_30_195" result="shape"/>
</filter>
</defs>
</svg>
