<svg width="430" height="183" viewBox="0 0 430 183" fill="none" xmlns="http://www.w3.org/2000/svg">
<g filter="url(#filter0_d_24_200)">
<path d="M4 14C4 5.71573 10.7157 -1 19 -1H414.431C422.715 -1 429.431 5.71573 429.431 14V168C429.431 176.284 422.715 183 414.431 183H19C10.7157 183 4 176.284 4 168V14Z" fill="#162436" fill-opacity="0.8" shape-rendering="crispEdges"/>
</g>
<path d="M21.6719 31.3333H15.3828V20.1302H21.4219V21.7083H17.2422V24.8802H21.1172V26.4505H17.2422V29.7552H21.6719V31.3333ZM30.5938 31.3333H28.7812V26.8255C28.7812 26.0807 28.6458 25.5234 28.375 25.1536C28.1042 24.7786 27.6979 24.5911 27.1562 24.5911C26.6146 24.5911 26.1667 24.7969 25.8125 25.2083C25.4583 25.6198 25.2812 26.1406 25.2812 26.7708V31.3333H23.4609V23.3333H25.2812V24.6302H25.3125C25.6094 24.1354 25.974 23.7656 26.4062 23.5208C26.8385 23.2708 27.3411 23.1458 27.9141 23.1458C28.7891 23.1458 29.4531 23.4245 29.9062 23.9818C30.3646 24.539 30.5938 25.3594 30.5938 26.4427V31.3333ZM38.7969 30.8411C38.401 31.0807 38.0078 31.2526 37.6172 31.3568C37.2266 31.4661 36.8021 31.5208 36.3438 31.5208C35.1146 31.5208 34.1302 31.1614 33.3906 30.4427C32.6562 29.7239 32.2891 28.7474 32.2891 27.513C32.2891 26.1849 32.6693 25.125 33.4297 24.3333C34.1953 23.5416 35.2266 23.1458 36.5234 23.1458C36.9766 23.1458 37.388 23.1953 37.7578 23.2943C38.1328 23.388 38.513 23.5443 38.8984 23.763L38.1875 25.0286C37.9167 24.8776 37.651 24.7682 37.3906 24.7005C37.1302 24.6276 36.8464 24.5911 36.5391 24.5911C35.7734 24.5911 35.1823 24.8437 34.7656 25.3489C34.349 25.8541 34.1406 26.5234 34.1406 27.3568C34.1406 28.2318 34.3646 28.9036 34.8125 29.3724C35.2656 29.8411 35.8333 30.0755 36.5156 30.0755C36.724 30.0755 36.9635 30.039 37.2344 29.9661C37.5052 29.888 37.7786 29.7656 38.0547 29.5989L38.7969 30.8411ZM44.7891 24.8568C44.6901 24.8307 44.5938 24.8125 44.5 24.8021C44.4115 24.7864 44.3073 24.7786 44.1875 24.7786C43.5365 24.7786 43.0365 25.0182 42.6875 25.4974C42.3385 25.9765 42.1641 26.6015 42.1641 27.3724V31.3333H40.3438V23.3333H42.1641V24.8724H42.1953C42.3828 24.3203 42.6589 23.9036 43.0234 23.6224C43.388 23.3359 43.8177 23.1927 44.3125 23.1927C44.4531 23.1927 44.5781 23.2005 44.6875 23.2161C44.8021 23.2318 44.9115 23.2552 45.0156 23.2864L44.7891 24.8568ZM53.1875 23.3333L49.5078 32.8411C49.2214 33.5755 48.8307 34.1354 48.3359 34.5208C47.8464 34.9062 47.2604 35.0989 46.5781 35.0989C46.3802 35.0989 46.1927 35.0859 46.0156 35.0599C45.8438 35.039 45.6745 35.0078 45.5078 34.9661L45.8281 33.5521C45.9375 33.5885 46.0391 33.6146 46.1328 33.6302C46.2266 33.6458 46.3281 33.6536 46.4375 33.6536C46.7344 33.6536 46.987 33.5781 47.1953 33.4271C47.4036 33.276 47.5703 33.0521 47.6953 32.7552L48.3047 31.3177L45.125 23.3333H47.1406L49 28.9036C49.026 28.9922 49.0547 29.1068 49.0859 29.2474C49.1172 29.3828 49.151 29.5416 49.1875 29.7239H49.2266C49.2474 29.6198 49.2734 29.5026 49.3047 29.3724C49.3359 29.237 49.3776 29.0859 49.4297 28.9193L51.3594 23.3333H53.1875ZM56.25 30.2786H56.2188V35.013H54.3984V23.3333H56.2188V24.6458H56.25C56.5573 24.1458 56.9349 23.7708 57.3828 23.5208C57.8307 23.2708 58.3438 23.1458 58.9219 23.1458C59.9531 23.1458 60.7552 23.5026 61.3281 24.2161C61.9062 24.9297 62.1953 25.8906 62.1953 27.0989C62.1953 28.4375 61.8672 29.5104 61.2109 30.3177C60.5547 31.1198 59.6693 31.5208 58.5547 31.5208C58.0547 31.5208 57.612 31.4193 57.2266 31.2161C56.8411 31.0078 56.5156 30.6953 56.25 30.2786ZM56.1953 27.0286V27.9271C56.1953 28.5416 56.3802 29.0547 56.75 29.4661C57.1198 29.8724 57.5911 30.0755 58.1641 30.0755C58.8464 30.0755 59.3776 29.8151 59.7578 29.2943C60.138 28.7734 60.3281 28.0443 60.3281 27.1068C60.3281 26.2995 60.1536 25.6797 59.8047 25.2474C59.4557 24.8099 58.9661 24.5911 58.3359 24.5911C57.6953 24.5911 57.1771 24.8203 56.7812 25.2786C56.3906 25.7318 56.1953 26.3151 56.1953 27.0286ZM68.3984 31.2239C68.1641 31.3229 67.9193 31.3958 67.6641 31.4427C67.4089 31.4896 67.1354 31.513 66.8438 31.513C66.1042 31.513 65.5339 31.3177 65.1328 30.9271C64.737 30.5312 64.5391 29.9427 64.5391 29.1614V24.7552H63.1953V23.3333H64.5391V21.388L66.3516 20.8411V23.3333H68.2656V24.7552H66.3516V29.013C66.3516 29.4036 66.4219 29.6849 66.5625 29.8568C66.7083 30.0286 66.9323 30.1146 67.2344 30.1146C67.3802 30.1146 67.5182 30.0989 67.6484 30.0677C67.7839 30.0312 67.9036 29.987 68.0078 29.9349L68.3984 31.2239ZM70.7422 21.7864C70.4089 21.7864 70.1328 21.6797 69.9141 21.4661C69.6953 21.2526 69.5859 20.9896 69.5859 20.6771C69.5859 20.3541 69.6953 20.0885 69.9141 19.8802C70.1328 19.6719 70.4089 19.5677 70.7422 19.5677C71.0807 19.5677 71.3594 19.6719 71.5781 19.8802C71.7969 20.0885 71.9062 20.3541 71.9062 20.6771C71.9062 20.9948 71.7969 21.2604 71.5781 21.4739C71.3594 21.6823 71.0807 21.7864 70.7422 21.7864ZM71.6406 31.3333H69.8203V23.3333H71.6406V31.3333ZM77.5625 31.5208C76.3125 31.5208 75.3203 31.1484 74.5859 30.4036C73.8568 29.6536 73.4922 28.651 73.4922 27.3958C73.4974 26.0677 73.8776 25.0286 74.6328 24.2786C75.388 23.5234 76.4167 23.1458 77.7188 23.1458C78.974 23.1406 79.9531 23.5104 80.6562 24.2552C81.3646 24.9948 81.7188 25.9974 81.7188 27.263C81.7188 28.5651 81.3438 29.6015 80.5938 30.3724C79.849 31.138 78.8385 31.5208 77.5625 31.5208ZM77.6484 30.0755C78.3724 30.0755 78.9219 29.8385 79.2969 29.3646C79.6771 28.8906 79.8672 28.2057 79.8672 27.3099C79.8672 26.4245 79.6771 25.75 79.2969 25.2864C78.9167 24.8229 78.3646 24.5911 77.6406 24.5911C76.9271 24.5911 76.3646 24.8359 75.9531 25.3255C75.5469 25.8151 75.3438 26.4922 75.3438 27.3568C75.3438 28.2265 75.5469 28.8984 75.9531 29.3724C76.3594 29.8411 76.9245 30.0755 77.6484 30.0755ZM90.7031 31.3333H88.8906V26.8255C88.8906 26.0807 88.7552 25.5234 88.4844 25.1536C88.2135 24.7786 87.8073 24.5911 87.2656 24.5911C86.724 24.5911 86.276 24.7969 85.9219 25.2083C85.5677 25.6198 85.3906 26.1406 85.3906 26.7708V31.3333H83.5703V23.3333H85.3906V24.6302H85.4219C85.7188 24.1354 86.0833 23.7656 86.5156 23.5208C86.9479 23.2708 87.4505 23.1458 88.0234 23.1458C88.8984 23.1458 89.5625 23.4245 90.0156 23.9818C90.474 24.539 90.7031 25.3594 90.7031 26.4427V31.3333ZM103.43 31.3333H101.672V30.1302H101.641C101.37 30.5937 101.034 30.9427 100.633 31.1771C100.232 31.4062 99.7708 31.5208 99.25 31.5208C98.526 31.5208 97.9245 31.3073 97.4453 30.8802C96.9661 30.4479 96.7266 29.8594 96.7266 29.1146C96.7266 28.4062 96.9661 27.8255 97.4453 27.3724C97.9245 26.914 98.6354 26.6172 99.5781 26.4818L101.68 26.2005V26.0364C101.68 25.4948 101.539 25.1015 101.258 24.8568C100.977 24.612 100.596 24.4896 100.117 24.4896C99.737 24.4896 99.349 24.5573 98.9531 24.6927C98.5625 24.8281 98.1823 25.039 97.8125 25.3255L97.0234 24.2396C97.513 23.8646 98.0182 23.5885 98.5391 23.4114C99.0599 23.2344 99.6328 23.1458 100.258 23.1458C101.331 23.1458 102.128 23.4114 102.648 23.9427C103.169 24.4687 103.43 25.2604 103.43 26.3177V31.3333ZM101.68 28.0833V27.4036L99.9688 27.6302C99.4635 27.7031 99.0833 27.8411 98.8281 28.0443C98.5781 28.2422 98.4531 28.5338 98.4531 28.9193C98.4531 29.3099 98.5729 29.6146 98.8125 29.8333C99.0521 30.0521 99.3594 30.1614 99.7344 30.1614C100.323 30.1614 100.794 29.9661 101.148 29.5755C101.503 29.1797 101.68 28.6823 101.68 28.0833ZM112.812 31.3333H111V26.8255C111 26.0807 110.865 25.5234 110.594 25.1536C110.323 24.7786 109.917 24.5911 109.375 24.5911C108.833 24.5911 108.385 24.7969 108.031 25.2083C107.677 25.6198 107.5 26.1406 107.5 26.7708V31.3333H105.68V23.3333H107.5V24.6302H107.531C107.828 24.1354 108.193 23.7656 108.625 23.5208C109.057 23.2708 109.56 23.1458 110.133 23.1458C111.008 23.1458 111.672 23.4245 112.125 23.9818C112.583 24.539 112.812 25.3594 112.812 26.4427V31.3333ZM120.453 30.0911C120.167 30.5703 119.805 30.9297 119.367 31.1693C118.93 31.4036 118.417 31.5208 117.828 31.5208C116.828 31.5208 116.023 31.1666 115.414 30.4583C114.81 29.7448 114.508 28.7656 114.508 27.5208C114.508 26.1979 114.841 25.138 115.508 24.3411C116.18 23.5443 117.065 23.1458 118.164 23.1458C118.701 23.1458 119.159 23.2474 119.539 23.4505C119.919 23.6484 120.224 23.9505 120.453 24.3568H120.484V19.4896H122.305V31.3333H120.484V30.0911H120.453ZM116.359 27.4505C116.359 28.2734 116.544 28.9166 116.914 29.3802C117.284 29.8437 117.786 30.0755 118.422 30.0755C119.042 30.0755 119.544 29.8437 119.93 29.3802C120.315 28.9166 120.508 28.3203 120.508 27.5911V26.6771C120.508 26.0833 120.323 25.5885 119.953 25.1927C119.583 24.7916 119.109 24.5911 118.531 24.5911C117.854 24.5911 117.323 24.8463 116.938 25.3568C116.552 25.862 116.359 26.5599 116.359 27.4505ZM134.5 30.0911C134.214 30.5703 133.852 30.9297 133.414 31.1693C132.977 31.4036 132.464 31.5208 131.875 31.5208C130.875 31.5208 130.07 31.1666 129.461 30.4583C128.857 29.7448 128.555 28.7656 128.555 27.5208C128.555 26.1979 128.888 25.138 129.555 24.3411C130.227 23.5443 131.112 23.1458 132.211 23.1458C132.747 23.1458 133.206 23.2474 133.586 23.4505C133.966 23.6484 134.271 23.9505 134.5 24.3568H134.531V19.4896H136.352V31.3333H134.531V30.0911H134.5ZM130.406 27.4505C130.406 28.2734 130.591 28.9166 130.961 29.3802C131.331 29.8437 131.833 30.0755 132.469 30.0755C133.089 30.0755 133.591 29.8437 133.977 29.3802C134.362 28.9166 134.555 28.3203 134.555 27.5911V26.6771C134.555 26.0833 134.37 25.5885 134 25.1927C133.63 24.7916 133.156 24.5911 132.578 24.5911C131.901 24.5911 131.37 24.8463 130.984 25.3568C130.599 25.862 130.406 26.5599 130.406 27.4505ZM144.82 31.3333H143.062V30.1302H143.031C142.76 30.5937 142.424 30.9427 142.023 31.1771C141.622 31.4062 141.161 31.5208 140.641 31.5208C139.917 31.5208 139.315 31.3073 138.836 30.8802C138.357 30.4479 138.117 29.8594 138.117 29.1146C138.117 28.4062 138.357 27.8255 138.836 27.3724C139.315 26.914 140.026 26.6172 140.969 26.4818L143.07 26.2005V26.0364C143.07 25.4948 142.93 25.1015 142.648 24.8568C142.367 24.612 141.987 24.4896 141.508 24.4896C141.128 24.4896 140.74 24.5573 140.344 24.6927C139.953 24.8281 139.573 25.039 139.203 25.3255L138.414 24.2396C138.904 23.8646 139.409 23.5885 139.93 23.4114C140.451 23.2344 141.023 23.1458 141.648 23.1458C142.721 23.1458 143.518 23.4114 144.039 23.9427C144.56 24.4687 144.82 25.2604 144.82 26.3177V31.3333ZM143.07 28.0833V27.4036L141.359 27.6302C140.854 27.7031 140.474 27.8411 140.219 28.0443C139.969 28.2422 139.844 28.5338 139.844 28.9193C139.844 29.3099 139.964 29.6146 140.203 29.8333C140.443 30.0521 140.75 30.1614 141.125 30.1614C141.714 30.1614 142.185 29.9661 142.539 29.5755C142.893 29.1797 143.07 28.6823 143.07 28.0833ZM151.43 31.2239C151.195 31.3229 150.951 31.3958 150.695 31.4427C150.44 31.4896 150.167 31.513 149.875 31.513C149.135 31.513 148.565 31.3177 148.164 30.9271C147.768 30.5312 147.57 29.9427 147.57 29.1614V24.7552H146.227V23.3333H147.57V21.388L149.383 20.8411V23.3333H151.297V24.7552H149.383V29.013C149.383 29.4036 149.453 29.6849 149.594 29.8568C149.74 30.0286 149.964 30.1146 150.266 30.1146C150.411 30.1146 150.549 30.0989 150.68 30.0677C150.815 30.0312 150.935 29.987 151.039 29.9349L151.43 31.2239ZM158.961 31.3333H157.203V30.1302H157.172C156.901 30.5937 156.565 30.9427 156.164 31.1771C155.763 31.4062 155.302 31.5208 154.781 31.5208C154.057 31.5208 153.456 31.3073 152.977 30.8802C152.497 30.4479 152.258 29.8594 152.258 29.1146C152.258 28.4062 152.497 27.8255 152.977 27.3724C153.456 26.914 154.167 26.6172 155.109 26.4818L157.211 26.2005V26.0364C157.211 25.4948 157.07 25.1015 156.789 24.8568C156.508 24.612 156.128 24.4896 155.648 24.4896C155.268 24.4896 154.88 24.5573 154.484 24.6927C154.094 24.8281 153.714 25.039 153.344 25.3255L152.555 24.2396C153.044 23.8646 153.549 23.5885 154.07 23.4114C154.591 23.2344 155.164 23.1458 155.789 23.1458C156.862 23.1458 157.659 23.4114 158.18 23.9427C158.701 24.4687 158.961 25.2604 158.961 26.3177V31.3333ZM157.211 28.0833V27.4036L155.5 27.6302C154.995 27.7031 154.615 27.8411 154.359 28.0443C154.109 28.2422 153.984 28.5338 153.984 28.9193C153.984 29.3099 154.104 29.6146 154.344 29.8333C154.583 30.0521 154.891 30.1614 155.266 30.1614C155.854 30.1614 156.326 29.9661 156.68 29.5755C157.034 29.1797 157.211 28.6823 157.211 28.0833ZM167.469 30.2786H167.438V35.013H165.617V23.3333H167.438V24.6458H167.469C167.776 24.1458 168.154 23.7708 168.602 23.5208C169.049 23.2708 169.562 23.1458 170.141 23.1458C171.172 23.1458 171.974 23.5026 172.547 24.2161C173.125 24.9297 173.414 25.8906 173.414 27.0989C173.414 28.4375 173.086 29.5104 172.43 30.3177C171.773 31.1198 170.888 31.5208 169.773 31.5208C169.273 31.5208 168.831 31.4193 168.445 31.2161C168.06 31.0078 167.734 30.6953 167.469 30.2786ZM167.414 27.0286V27.9271C167.414 28.5416 167.599 29.0547 167.969 29.4661C168.339 29.8724 168.81 30.0755 169.383 30.0755C170.065 30.0755 170.596 29.8151 170.977 29.2943C171.357 28.7734 171.547 28.0443 171.547 27.1068C171.547 26.2995 171.372 25.6797 171.023 25.2474C170.674 24.8099 170.185 24.5911 169.555 24.5911C168.914 24.5911 168.396 24.8203 168 25.2786C167.609 25.7318 167.414 26.3151 167.414 27.0286ZM179.711 24.8568C179.612 24.8307 179.516 24.8125 179.422 24.8021C179.333 24.7864 179.229 24.7786 179.109 24.7786C178.458 24.7786 177.958 25.0182 177.609 25.4974C177.26 25.9765 177.086 26.6015 177.086 27.3724V31.3333H175.266V23.3333H177.086V24.8724H177.117C177.305 24.3203 177.581 23.9036 177.945 23.6224C178.31 23.3359 178.74 23.1927 179.234 23.1927C179.375 23.1927 179.5 23.2005 179.609 23.2161C179.724 23.2318 179.833 23.2552 179.938 23.2864L179.711 24.8568ZM184.734 31.5208C183.484 31.5208 182.492 31.1484 181.758 30.4036C181.029 29.6536 180.664 28.651 180.664 27.3958C180.669 26.0677 181.049 25.0286 181.805 24.2786C182.56 23.5234 183.589 23.1458 184.891 23.1458C186.146 23.1406 187.125 23.5104 187.828 24.2552C188.536 24.9948 188.891 25.9974 188.891 27.263C188.891 28.5651 188.516 29.6015 187.766 30.3724C187.021 31.138 186.01 31.5208 184.734 31.5208ZM184.82 30.0755C185.544 30.0755 186.094 29.8385 186.469 29.3646C186.849 28.8906 187.039 28.2057 187.039 27.3099C187.039 26.4245 186.849 25.75 186.469 25.2864C186.089 24.8229 185.536 24.5911 184.812 24.5911C184.099 24.5911 183.536 24.8359 183.125 25.3255C182.719 25.8151 182.516 26.4922 182.516 27.3568C182.516 28.2265 182.719 28.8984 183.125 29.3724C183.531 29.8411 184.096 30.0755 184.82 30.0755ZM195.102 31.2239C194.867 31.3229 194.622 31.3958 194.367 31.4427C194.112 31.4896 193.839 31.513 193.547 31.513C192.807 31.513 192.237 31.3177 191.836 30.9271C191.44 30.5312 191.242 29.9427 191.242 29.1614V24.7552H189.898V23.3333H191.242V21.388L193.055 20.8411V23.3333H194.969V24.7552H193.055V29.013C193.055 29.4036 193.125 29.6849 193.266 29.8568C193.411 30.0286 193.635 30.1146 193.938 30.1146C194.083 30.1146 194.221 30.0989 194.352 30.0677C194.487 30.0312 194.607 29.987 194.711 29.9349L195.102 31.2239ZM203.297 27.8099H197.836C197.867 28.5651 198.086 29.1406 198.492 29.5364C198.898 29.9271 199.466 30.1224 200.195 30.1224C200.492 30.1224 200.831 30.0625 201.211 29.9427C201.591 29.8229 201.966 29.6302 202.336 29.3646L203.156 30.4974C202.661 30.8568 202.159 31.1172 201.648 31.2786C201.138 31.4401 200.576 31.5208 199.961 31.5208C198.716 31.5208 197.747 31.164 197.055 30.4505C196.362 29.7318 196.013 28.7291 196.008 27.4427C196.008 26.1614 196.365 25.125 197.078 24.3333C197.797 23.5416 198.716 23.1458 199.836 23.1458C200.909 23.1458 201.753 23.4844 202.367 24.1614C202.987 24.8333 203.297 25.7864 203.297 27.0208V27.8099ZM201.539 26.5521C201.539 25.8646 201.388 25.3489 201.086 25.0052C200.789 24.6562 200.367 24.4818 199.82 24.4818C199.305 24.4818 198.865 24.6693 198.5 25.0443C198.141 25.414 197.919 25.9166 197.836 26.5521H201.539ZM211.016 30.8411C210.62 31.0807 210.227 31.2526 209.836 31.3568C209.445 31.4661 209.021 31.5208 208.562 31.5208C207.333 31.5208 206.349 31.1614 205.609 30.4427C204.875 29.7239 204.508 28.7474 204.508 27.513C204.508 26.1849 204.888 25.125 205.648 24.3333C206.414 23.5416 207.445 23.1458 208.742 23.1458C209.195 23.1458 209.607 23.1953 209.977 23.2943C210.352 23.388 210.732 23.5443 211.117 23.763L210.406 25.0286C210.135 24.8776 209.87 24.7682 209.609 24.7005C209.349 24.6276 209.065 24.5911 208.758 24.5911C207.992 24.5911 207.401 24.8437 206.984 25.3489C206.568 25.8541 206.359 26.5234 206.359 27.3568C206.359 28.2318 206.583 28.9036 207.031 29.3724C207.484 29.8411 208.052 30.0755 208.734 30.0755C208.943 30.0755 209.182 30.039 209.453 29.9661C209.724 29.888 209.997 29.7656 210.273 29.5989L211.016 30.8411ZM216.914 31.2239C216.68 31.3229 216.435 31.3958 216.18 31.4427C215.924 31.4896 215.651 31.513 215.359 31.513C214.62 31.513 214.049 31.3177 213.648 30.9271C213.253 30.5312 213.055 29.9427 213.055 29.1614V24.7552H211.711V23.3333H213.055V21.388L214.867 20.8411V23.3333H216.781V24.7552H214.867V29.013C214.867 29.4036 214.938 29.6849 215.078 29.8568C215.224 30.0286 215.448 30.1146 215.75 30.1146C215.896 30.1146 216.034 30.0989 216.164 30.0677C216.299 30.0312 216.419 29.987 216.523 29.9349L216.914 31.2239ZM219.258 21.7864C218.924 21.7864 218.648 21.6797 218.43 21.4661C218.211 21.2526 218.102 20.9896 218.102 20.6771C218.102 20.3541 218.211 20.0885 218.43 19.8802C218.648 19.6719 218.924 19.5677 219.258 19.5677C219.596 19.5677 219.875 19.6719 220.094 19.8802C220.312 20.0885 220.422 20.3541 220.422 20.6771C220.422 20.9948 220.312 21.2604 220.094 21.4739C219.875 21.6823 219.596 21.7864 219.258 21.7864ZM220.156 31.3333H218.336V23.3333H220.156V31.3333ZM226.078 31.5208C224.828 31.5208 223.836 31.1484 223.102 30.4036C222.372 29.6536 222.008 28.651 222.008 27.3958C222.013 26.0677 222.393 25.0286 223.148 24.2786C223.904 23.5234 224.932 23.1458 226.234 23.1458C227.49 23.1406 228.469 23.5104 229.172 24.2552C229.88 24.9948 230.234 25.9974 230.234 27.263C230.234 28.5651 229.859 29.6015 229.109 30.3724C228.365 31.138 227.354 31.5208 226.078 31.5208ZM226.164 30.0755C226.888 30.0755 227.438 29.8385 227.812 29.3646C228.193 28.8906 228.383 28.2057 228.383 27.3099C228.383 26.4245 228.193 25.75 227.812 25.2864C227.432 24.8229 226.88 24.5911 226.156 24.5911C225.443 24.5911 224.88 24.8359 224.469 25.3255C224.062 25.8151 223.859 26.4922 223.859 27.3568C223.859 28.2265 224.062 28.8984 224.469 29.3724C224.875 29.8411 225.44 30.0755 226.164 30.0755ZM239.219 31.3333H237.406V26.8255C237.406 26.0807 237.271 25.5234 237 25.1536C236.729 24.7786 236.323 24.5911 235.781 24.5911C235.24 24.5911 234.792 24.7969 234.438 25.2083C234.083 25.6198 233.906 26.1406 233.906 26.7708V31.3333H232.086V23.3333H233.906V24.6302H233.938C234.234 24.1354 234.599 23.7656 235.031 23.5208C235.464 23.2708 235.966 23.1458 236.539 23.1458C237.414 23.1458 238.078 23.4245 238.531 23.9818C238.99 24.539 239.219 25.3594 239.219 26.4427V31.3333Z" fill="#98ECFE"/>
<path d="M15.1016 49.3333V40.931H17.498C18.2246 40.931 18.7988 41.1048 19.2207 41.4525C19.6465 41.7962 19.8594 42.263 19.8594 42.8528C19.8594 43.3294 19.7305 43.7435 19.4727 44.095C19.2148 44.4466 18.8594 44.6966 18.4062 44.845V44.8685C18.9727 44.9349 19.4258 45.1497 19.7656 45.513C20.1055 45.8724 20.2754 46.3411 20.2754 46.9193C20.2754 47.638 20.0176 48.22 19.502 48.6653C18.9863 49.1107 18.3359 49.3333 17.5508 49.3333H15.1016ZM16.0859 41.8216V44.5345H17.0938C17.6328 44.5345 18.0566 44.4056 18.3652 44.1478C18.6738 43.886 18.8281 43.5189 18.8281 43.0462C18.8281 42.636 18.6934 42.3294 18.4238 42.1263C18.1543 41.9232 17.7539 41.8216 17.2227 41.8216H16.0859ZM16.0859 45.4193V48.4427H17.4219C18 48.4427 18.4473 48.306 18.7637 48.0325C19.084 47.7591 19.2441 47.3841 19.2441 46.9075C19.2441 46.4114 19.0742 46.0403 18.7344 45.7943C18.3984 45.5443 17.8926 45.4193 17.2168 45.4193H16.0859ZM22.3438 41.8978C22.1484 41.8978 21.9844 41.8333 21.8516 41.7044C21.7188 41.5716 21.6523 41.4095 21.6523 41.2181C21.6523 41.0267 21.7188 40.8665 21.8516 40.7376C21.9844 40.6048 22.1484 40.5384 22.3438 40.5384C22.5391 40.5384 22.7031 40.6048 22.8359 40.7376C22.9688 40.8665 23.0352 41.0267 23.0352 41.2181C23.0352 41.4095 22.9688 41.5716 22.8359 41.7044C22.7031 41.8333 22.5391 41.8978 22.3438 41.8978ZM22.8125 49.3333H21.8516V43.3333H22.8125V49.3333ZM27.6172 49.263C27.4531 49.3294 27.291 49.3782 27.1309 49.4095C26.9746 49.4446 26.7969 49.4622 26.5977 49.4622C26.1211 49.4622 25.7461 49.3235 25.4727 49.0462C25.2031 48.765 25.0684 48.3509 25.0684 47.804V44.1536H24.0371V43.3333H25.0684V41.8685L26.0293 41.5579V43.3333H27.541V44.1536H26.0293V47.6927C26.0293 48.0364 26.0898 48.2845 26.2109 48.4368C26.3359 48.5892 26.5215 48.6653 26.7676 48.6653C26.8848 48.6653 26.998 48.6517 27.1074 48.6243C27.2168 48.597 27.3086 48.5657 27.3828 48.5306L27.6172 49.263ZM33.3125 49.3333H28.9531V40.931H29.9375V48.4427H33.3125V49.3333ZM36.9805 49.4739C36.0938 49.4739 35.3848 49.1946 34.8535 48.636C34.3262 48.0735 34.0625 47.3294 34.0625 46.4036C34.0625 45.3997 34.3359 44.6146 34.8828 44.0482C35.4297 43.4818 36.1758 43.1966 37.1211 43.1927C38.0156 43.1888 38.7129 43.4642 39.2129 44.0189C39.7168 44.5735 39.9688 45.3372 39.9688 46.3099C39.9688 47.2708 39.6973 48.0384 39.1543 48.6126C38.6152 49.1868 37.8906 49.4739 36.9805 49.4739ZM37.0508 48.6653C37.6719 48.6653 38.1484 48.4642 38.4805 48.0618C38.8164 47.6556 38.9844 47.0833 38.9844 46.345C38.9844 45.5911 38.8164 45.013 38.4805 44.6107C38.1445 44.2044 37.668 44.0013 37.0508 44.0013C36.4336 44.0013 35.9453 44.2122 35.5859 44.6341C35.2266 45.056 35.0469 45.6341 35.0469 46.3685C35.0469 47.0794 35.2285 47.64 35.5918 48.0501C35.9551 48.4603 36.4414 48.6653 37.0508 48.6653ZM45.7227 48.9759C45.4453 49.1478 45.168 49.2728 44.8906 49.3509C44.6133 49.4329 44.3105 49.4739 43.9824 49.4739C43.1387 49.4739 42.4453 49.2122 41.9023 48.6888C41.3633 48.1653 41.0938 47.4232 41.0938 46.4622C41.0938 45.4857 41.3652 44.6966 41.9082 44.095C42.4551 43.4935 43.2051 43.1927 44.1582 43.1927C44.4668 43.1927 44.7598 43.2298 45.0371 43.304C45.3184 43.3782 45.6016 43.4993 45.8867 43.6673L45.4824 44.3704C45.2598 44.2454 45.041 44.1536 44.8262 44.095C44.6113 44.0364 44.377 44.0071 44.123 44.0071C43.4629 44.0071 42.957 44.2278 42.6055 44.6693C42.2539 45.1107 42.0781 45.6712 42.0781 46.3509C42.0781 47.1009 42.2617 47.6732 42.6289 48.0677C43 48.4622 43.4785 48.6595 44.0645 48.6595C44.2559 48.6595 44.4551 48.6302 44.6621 48.5716C44.873 48.5091 45.084 48.4134 45.2949 48.2845L45.7227 48.9759ZM52.0273 49.3333H50.6797L48.0312 46.4505H48.0078V49.3333H47.0469V40.4505H48.0078V46.0814H48.0312L50.5508 43.3333H51.8105L49.0273 46.2278L52.0273 49.3333ZM57.834 46.5501H53.5918C53.6074 47.2259 53.7852 47.7474 54.125 48.1146C54.4688 48.4778 54.9492 48.6595 55.5664 48.6595C55.8359 48.6595 56.1055 48.6204 56.375 48.5423C56.6484 48.4603 56.918 48.3314 57.1836 48.1556L57.6289 48.8411C57.2891 49.0599 56.9492 49.22 56.6094 49.3216C56.2695 49.4232 55.8965 49.4739 55.4902 49.4739C54.584 49.4739 53.877 49.2044 53.3691 48.6653C52.8613 48.1263 52.6055 47.3743 52.6016 46.4095C52.5977 45.4446 52.8516 44.6673 53.3633 44.0775C53.8789 43.4876 54.5469 43.1927 55.3672 43.1927C56.1484 43.1927 56.7539 43.4485 57.1836 43.9603C57.6172 44.4681 57.834 45.1732 57.834 46.0755V46.5501ZM56.8496 45.765C56.8457 45.2103 56.7109 44.7786 56.4453 44.47C56.1797 44.1575 55.8145 44.0013 55.3496 44.0013C54.8926 44.0013 54.5039 44.1614 54.1836 44.4818C53.8672 44.7982 53.6738 45.2259 53.6035 45.765H56.8496ZM62.252 44.1536C62.1777 44.1302 62.1113 44.1146 62.0527 44.1068C61.9941 44.095 61.9199 44.0892 61.8301 44.0892C61.3418 44.0892 60.957 44.2982 60.6758 44.7161C60.3945 45.1302 60.2539 45.6497 60.2539 46.2747V49.3333H59.293V43.3333H60.2539V44.5228H60.2773C60.4141 44.1009 60.623 43.7806 60.9043 43.5618C61.1855 43.3392 61.5098 43.2278 61.877 43.2278C61.998 43.2278 62.0996 43.2337 62.1816 43.2454C62.2676 43.2571 62.3438 43.2747 62.4102 43.2982L62.252 44.1536ZM70.8945 48.3138C70.6719 48.7005 70.3887 48.9915 70.0449 49.1868C69.7051 49.3782 69.3008 49.4739 68.832 49.4739C68.0781 49.4739 67.4746 49.2064 67.0215 48.6712C66.5723 48.1321 66.3477 47.3997 66.3477 46.4739C66.3477 45.4818 66.5977 44.6868 67.0977 44.0892C67.5977 43.4915 68.2637 43.1927 69.0957 43.1927C69.5098 43.1927 69.8652 43.2747 70.1621 43.4388C70.4629 43.5989 70.707 43.8411 70.8945 44.1653H70.918V40.4505H71.8789V49.3333H70.918V48.3138H70.8945ZM67.332 46.4271C67.332 47.1185 67.4922 47.6653 67.8125 48.0677C68.1367 48.4661 68.5703 48.6653 69.1133 48.6653C69.6523 48.6653 70.0879 48.472 70.4199 48.0853C70.752 47.6985 70.918 47.2103 70.918 46.6204V45.7357C70.918 45.2513 70.7559 44.8411 70.4316 44.5052C70.1113 44.1693 69.707 44.0013 69.2188 44.0013C68.6328 44.0013 68.1719 44.2161 67.8359 44.6458C67.5 45.0755 67.332 45.6693 67.332 46.4271ZM76.7832 44.1536C76.709 44.1302 76.6426 44.1146 76.584 44.1068C76.5254 44.095 76.4512 44.0892 76.3613 44.0892C75.873 44.0892 75.4883 44.2982 75.207 44.7161C74.9258 45.1302 74.7852 45.6497 74.7852 46.2747V49.3333H73.8242V43.3333H74.7852V44.5228H74.8086C74.9453 44.1009 75.1543 43.7806 75.4355 43.5618C75.7168 43.3392 76.041 43.2278 76.4082 43.2278C76.5293 43.2278 76.6309 43.2337 76.7129 43.2454C76.7988 43.2571 76.875 43.2747 76.9414 43.2982L76.7832 44.1536ZM78.4883 41.8978C78.293 41.8978 78.1289 41.8333 77.9961 41.7044C77.8633 41.5716 77.7969 41.4095 77.7969 41.2181C77.7969 41.0267 77.8633 40.8665 77.9961 40.7376C78.1289 40.6048 78.293 40.5384 78.4883 40.5384C78.6836 40.5384 78.8477 40.6048 78.9805 40.7376C79.1133 40.8665 79.1797 41.0267 79.1797 41.2181C79.1797 41.4095 79.1133 41.5716 78.9805 41.7044C78.8477 41.8333 78.6836 41.8978 78.4883 41.8978ZM78.957 49.3333H77.9961V43.3333H78.957V49.3333ZM85.6191 43.3333L83.2285 49.3333H82.2852L80.0117 43.3333H81.0664L82.5898 47.6927C82.6445 47.8528 82.6895 48.0032 82.7246 48.1439C82.7598 48.2806 82.7852 48.4095 82.8008 48.5306H82.8242C82.8438 48.3782 82.8691 48.2357 82.9004 48.1028C82.9316 47.9661 82.9688 47.8372 83.0117 47.7161L84.6055 43.3333H85.6191ZM91.4785 46.5501H87.2363C87.252 47.2259 87.4297 47.7474 87.7695 48.1146C88.1133 48.4778 88.5938 48.6595 89.2109 48.6595C89.4805 48.6595 89.75 48.6204 90.0195 48.5423C90.293 48.4603 90.5625 48.3314 90.8281 48.1556L91.2734 48.8411C90.9336 49.0599 90.5938 49.22 90.2539 49.3216C89.9141 49.4232 89.541 49.4739 89.1348 49.4739C88.2285 49.4739 87.5215 49.2044 87.0137 48.6653C86.5059 48.1263 86.25 47.3743 86.2461 46.4095C86.2422 45.4446 86.4961 44.6673 87.0078 44.0775C87.5234 43.4876 88.1914 43.1927 89.0117 43.1927C89.793 43.1927 90.3984 43.4485 90.8281 43.9603C91.2617 44.4681 91.4785 45.1732 91.4785 46.0755V46.5501ZM90.4941 45.765C90.4902 45.2103 90.3555 44.7786 90.0898 44.47C89.8242 44.1575 89.459 44.0013 88.9941 44.0013C88.5371 44.0013 88.1484 44.1614 87.8281 44.4818C87.5117 44.7982 87.3184 45.2259 87.248 45.765H90.4941ZM101.053 46.5501H96.8105C96.8262 47.2259 97.0039 47.7474 97.3438 48.1146C97.6875 48.4778 98.168 48.6595 98.7852 48.6595C99.0547 48.6595 99.3242 48.6204 99.5938 48.5423C99.8672 48.4603 100.137 48.3314 100.402 48.1556L100.848 48.8411C100.508 49.0599 100.168 49.22 99.8281 49.3216C99.4883 49.4232 99.1152 49.4739 98.709 49.4739C97.8027 49.4739 97.0957 49.2044 96.5879 48.6653C96.0801 48.1263 95.8242 47.3743 95.8203 46.4095C95.8164 45.4446 96.0703 44.6673 96.582 44.0775C97.0977 43.4876 97.7656 43.1927 98.5859 43.1927C99.3672 43.1927 99.9727 43.4485 100.402 43.9603C100.836 44.4681 101.053 45.1732 101.053 46.0755V46.5501ZM100.068 45.765C100.064 45.2103 99.9297 44.7786 99.6641 44.47C99.3984 44.1575 99.0332 44.0013 98.5684 44.0013C98.1113 44.0013 97.7227 44.1614 97.4023 44.4818C97.0859 44.7982 96.8926 45.2259 96.8223 45.765H100.068ZM107.492 49.3333H106.531V45.9114C106.531 45.2747 106.414 44.7982 106.18 44.4818C105.949 44.1614 105.602 44.0013 105.137 44.0013C104.656 44.0013 104.258 44.1829 103.941 44.5462C103.629 44.9056 103.473 45.3607 103.473 45.9114V49.3333H102.512V43.3333H103.473V44.3294H103.496C103.723 43.9505 104 43.6673 104.328 43.4798C104.656 43.2884 105.035 43.1927 105.465 43.1927C106.121 43.1927 106.623 43.4056 106.971 43.8314C107.318 44.2532 107.492 44.8646 107.492 45.6653V49.3333ZM113.527 48.9759C113.25 49.1478 112.973 49.2728 112.695 49.3509C112.418 49.4329 112.115 49.4739 111.787 49.4739C110.943 49.4739 110.25 49.2122 109.707 48.6888C109.168 48.1653 108.898 47.4232 108.898 46.4622C108.898 45.4857 109.17 44.6966 109.713 44.095C110.26 43.4935 111.01 43.1927 111.963 43.1927C112.271 43.1927 112.564 43.2298 112.842 43.304C113.123 43.3782 113.406 43.4993 113.691 43.6673L113.287 44.3704C113.064 44.2454 112.846 44.1536 112.631 44.095C112.416 44.0364 112.182 44.0071 111.928 44.0071C111.268 44.0071 110.762 44.2278 110.41 44.6693C110.059 45.1107 109.883 45.6712 109.883 46.3509C109.883 47.1009 110.066 47.6732 110.434 48.0677C110.805 48.4622 111.283 48.6595 111.869 48.6595C112.061 48.6595 112.26 48.6302 112.467 48.5716C112.678 48.5091 112.889 48.4134 113.1 48.2845L113.527 48.9759ZM117.811 44.1536C117.736 44.1302 117.67 44.1146 117.611 44.1068C117.553 44.095 117.479 44.0892 117.389 44.0892C116.9 44.0892 116.516 44.2982 116.234 44.7161C115.953 45.1302 115.812 45.6497 115.812 46.2747V49.3333H114.852V43.3333H115.812V44.5228H115.836C115.973 44.1009 116.182 43.7806 116.463 43.5618C116.744 43.3392 117.068 43.2278 117.436 43.2278C117.557 43.2278 117.658 43.2337 117.74 43.2454C117.826 43.2571 117.902 43.2747 117.969 43.2982L117.811 44.1536ZM123.799 43.3333L120.969 50.4759C120.746 51.0384 120.467 51.4583 120.131 51.7357C119.795 52.0169 119.4 52.1575 118.947 52.1575C118.83 52.1575 118.723 52.1497 118.625 52.1341C118.527 52.1224 118.434 52.1048 118.344 52.0814L118.531 51.261C118.602 51.2845 118.666 51.3001 118.725 51.3079C118.787 51.3196 118.848 51.3255 118.906 51.3255C119.164 51.3255 119.377 51.2591 119.545 51.1263C119.717 50.9935 119.854 50.806 119.955 50.5638L120.477 49.3216L118.133 43.3333H119.199L120.822 47.9505C120.83 47.9778 120.844 48.0306 120.863 48.1087C120.887 48.1868 120.914 48.2864 120.945 48.4075H120.98C120.992 48.3607 121.006 48.3001 121.021 48.2259C121.041 48.1517 121.066 48.0638 121.098 47.9622L122.803 43.3333H123.799ZM125.82 48.4661H125.797V52.0931H124.836V43.3333H125.797V44.388H125.82C126.059 43.9896 126.35 43.6907 126.693 43.4915C127.041 43.2923 127.441 43.1927 127.895 43.1927C128.668 43.1927 129.271 43.4622 129.705 44.0013C130.139 44.5364 130.355 45.2552 130.355 46.1575C130.355 47.1614 130.111 47.9661 129.623 48.5716C129.135 49.1732 128.467 49.4739 127.619 49.4739C127.232 49.4739 126.889 49.39 126.588 49.222C126.287 49.054 126.031 48.8021 125.82 48.4661ZM125.797 46.0462V46.8841C125.797 47.3802 125.957 47.8021 126.277 48.1497C126.602 48.4935 127.012 48.6653 127.508 48.6653C128.09 48.6653 128.545 48.4427 128.873 47.9974C129.205 47.5521 129.371 46.9329 129.371 46.14C129.371 45.472 129.217 44.9485 128.908 44.5696C128.6 44.1907 128.182 44.0013 127.654 44.0013C127.096 44.0013 126.646 44.1966 126.307 44.5872C125.967 44.9739 125.797 45.4603 125.797 46.0462ZM134.75 49.263C134.586 49.3294 134.424 49.3782 134.264 49.4095C134.107 49.4446 133.93 49.4622 133.73 49.4622C133.254 49.4622 132.879 49.3235 132.605 49.0462C132.336 48.765 132.201 48.3509 132.201 47.804V44.1536H131.17V43.3333H132.201V41.8685L133.162 41.5579V43.3333H134.674V44.1536H133.162V47.6927C133.162 48.0364 133.223 48.2845 133.344 48.4368C133.469 48.5892 133.654 48.6653 133.9 48.6653C134.018 48.6653 134.131 48.6517 134.24 48.6243C134.35 48.597 134.441 48.5657 134.516 48.5306L134.75 49.263ZM136.449 41.8978C136.254 41.8978 136.09 41.8333 135.957 41.7044C135.824 41.5716 135.758 41.4095 135.758 41.2181C135.758 41.0267 135.824 40.8665 135.957 40.7376C136.09 40.6048 136.254 40.5384 136.449 40.5384C136.645 40.5384 136.809 40.6048 136.941 40.7376C137.074 40.8665 137.141 41.0267 137.141 41.2181C137.141 41.4095 137.074 41.5716 136.941 41.7044C136.809 41.8333 136.645 41.8978 136.449 41.8978ZM136.918 49.3333H135.957V43.3333H136.918V49.3333ZM141.371 49.4739C140.484 49.4739 139.775 49.1946 139.244 48.636C138.717 48.0735 138.453 47.3294 138.453 46.4036C138.453 45.3997 138.727 44.6146 139.273 44.0482C139.82 43.4818 140.566 43.1966 141.512 43.1927C142.406 43.1888 143.104 43.4642 143.604 44.0189C144.107 44.5735 144.359 45.3372 144.359 46.3099C144.359 47.2708 144.088 48.0384 143.545 48.6126C143.006 49.1868 142.281 49.4739 141.371 49.4739ZM141.441 48.6653C142.062 48.6653 142.539 48.4642 142.871 48.0618C143.207 47.6556 143.375 47.0833 143.375 46.345C143.375 45.5911 143.207 45.013 142.871 44.6107C142.535 44.2044 142.059 44.0013 141.441 44.0013C140.824 44.0013 140.336 44.2122 139.977 44.6341C139.617 45.056 139.438 45.6341 139.438 46.3685C139.438 47.0794 139.619 47.64 139.982 48.0501C140.346 48.4603 140.832 48.6653 141.441 48.6653ZM150.875 49.3333H149.914V45.9114C149.914 45.2747 149.797 44.7982 149.562 44.4818C149.332 44.1614 148.984 44.0013 148.52 44.0013C148.039 44.0013 147.641 44.1829 147.324 44.5462C147.012 44.9056 146.855 45.3607 146.855 45.9114V49.3333H145.895V43.3333H146.855V44.3294H146.879C147.105 43.9505 147.383 43.6673 147.711 43.4798C148.039 43.2884 148.418 43.1927 148.848 43.1927C149.504 43.1927 150.006 43.4056 150.354 43.8314C150.701 44.2532 150.875 44.8646 150.875 45.6653V49.3333ZM15.1016 67.3333V58.931H17.498C18.2246 58.931 18.7988 59.1048 19.2207 59.4525C19.6465 59.7962 19.8594 60.263 19.8594 60.8528C19.8594 61.3294 19.7305 61.7435 19.4727 62.095C19.2148 62.4466 18.8594 62.6966 18.4062 62.845V62.8685C18.9727 62.9349 19.4258 63.1497 19.7656 63.513C20.1055 63.8724 20.2754 64.3411 20.2754 64.9193C20.2754 65.638 20.0176 66.22 19.502 66.6653C18.9863 67.1107 18.3359 67.3333 17.5508 67.3333H15.1016ZM16.0859 59.8216V62.5345H17.0938C17.6328 62.5345 18.0566 62.4056 18.3652 62.1478C18.6738 61.886 18.8281 61.5189 18.8281 61.0462C18.8281 60.636 18.6934 60.3294 18.4238 60.1263C18.1543 59.9232 17.7539 59.8216 17.2227 59.8216H16.0859ZM16.0859 63.4193V66.4427H17.4219C18 66.4427 18.4473 66.306 18.7637 66.0325C19.084 65.7591 19.2441 65.3841 19.2441 64.9075C19.2441 64.4114 19.0742 64.0403 18.7344 63.7943C18.3984 63.5443 17.8926 63.4193 17.2168 63.4193H16.0859ZM22.3438 59.8978C22.1484 59.8978 21.9844 59.8333 21.8516 59.7044C21.7188 59.5716 21.6523 59.4095 21.6523 59.2181C21.6523 59.0267 21.7188 58.8665 21.8516 58.7376C21.9844 58.6048 22.1484 58.5384 22.3438 58.5384C22.5391 58.5384 22.7031 58.6048 22.8359 58.7376C22.9688 58.8665 23.0352 59.0267 23.0352 59.2181C23.0352 59.4095 22.9688 59.5716 22.8359 59.7044C22.7031 59.8333 22.5391 59.8978 22.3438 59.8978ZM22.8125 67.3333H21.8516V61.3333H22.8125V67.3333ZM27.6172 67.263C27.4531 67.3294 27.291 67.3782 27.1309 67.4095C26.9746 67.4446 26.7969 67.4622 26.5977 67.4622C26.1211 67.4622 25.7461 67.3235 25.4727 67.0462C25.2031 66.765 25.0684 66.3509 25.0684 65.804V62.1536H24.0371V61.3333H25.0684V59.8685L26.0293 59.5579V61.3333H27.541V62.1536H26.0293V65.6927C26.0293 66.0364 26.0898 66.2845 26.2109 66.4368C26.3359 66.5892 26.5215 66.6653 26.7676 66.6653C26.8848 66.6653 26.998 66.6517 27.1074 66.6243C27.2168 66.597 27.3086 66.5657 27.3828 66.5306L27.6172 67.263ZM33.3125 67.3333H28.9531V58.931H29.9375V66.4427H33.3125V67.3333ZM36.9805 67.4739C36.0938 67.4739 35.3848 67.1946 34.8535 66.636C34.3262 66.0735 34.0625 65.3294 34.0625 64.4036C34.0625 63.3997 34.3359 62.6146 34.8828 62.0482C35.4297 61.4818 36.1758 61.1966 37.1211 61.1927C38.0156 61.1888 38.7129 61.4642 39.2129 62.0189C39.7168 62.5735 39.9688 63.3372 39.9688 64.3099C39.9688 65.2708 39.6973 66.0384 39.1543 66.6126C38.6152 67.1868 37.8906 67.4739 36.9805 67.4739ZM37.0508 66.6653C37.6719 66.6653 38.1484 66.4642 38.4805 66.0618C38.8164 65.6556 38.9844 65.0833 38.9844 64.345C38.9844 63.5911 38.8164 63.013 38.4805 62.6107C38.1445 62.2044 37.668 62.0013 37.0508 62.0013C36.4336 62.0013 35.9453 62.2122 35.5859 62.6341C35.2266 63.056 35.0469 63.6341 35.0469 64.3685C35.0469 65.0794 35.2285 65.64 35.5918 66.0501C35.9551 66.4603 36.4414 66.6653 37.0508 66.6653ZM45.7227 66.9759C45.4453 67.1478 45.168 67.2728 44.8906 67.3509C44.6133 67.4329 44.3105 67.4739 43.9824 67.4739C43.1387 67.4739 42.4453 67.2122 41.9023 66.6888C41.3633 66.1653 41.0938 65.4232 41.0938 64.4622C41.0938 63.4857 41.3652 62.6966 41.9082 62.095C42.4551 61.4935 43.2051 61.1927 44.1582 61.1927C44.4668 61.1927 44.7598 61.2298 45.0371 61.304C45.3184 61.3782 45.6016 61.4993 45.8867 61.6673L45.4824 62.3704C45.2598 62.2454 45.041 62.1536 44.8262 62.095C44.6113 62.0364 44.377 62.0071 44.123 62.0071C43.4629 62.0071 42.957 62.2278 42.6055 62.6693C42.2539 63.1107 42.0781 63.6712 42.0781 64.3509C42.0781 65.1009 42.2617 65.6732 42.6289 66.0677C43 66.4622 43.4785 66.6595 44.0645 66.6595C44.2559 66.6595 44.4551 66.6302 44.6621 66.5716C44.873 66.5091 45.084 66.4134 45.2949 66.2845L45.7227 66.9759ZM52.0273 67.3333H50.6797L48.0312 64.4505H48.0078V67.3333H47.0469V58.4505H48.0078V64.0814H48.0312L50.5508 61.3333H51.8105L49.0273 64.2278L52.0273 67.3333ZM57.834 64.5501H53.5918C53.6074 65.2259 53.7852 65.7474 54.125 66.1146C54.4688 66.4778 54.9492 66.6595 55.5664 66.6595C55.8359 66.6595 56.1055 66.6204 56.375 66.5423C56.6484 66.4603 56.918 66.3314 57.1836 66.1556L57.6289 66.8411C57.2891 67.0599 56.9492 67.22 56.6094 67.3216C56.2695 67.4232 55.8965 67.4739 55.4902 67.4739C54.584 67.4739 53.877 67.2044 53.3691 66.6653C52.8613 66.1263 52.6055 65.3743 52.6016 64.4095C52.5977 63.4446 52.8516 62.6673 53.3633 62.0775C53.8789 61.4876 54.5469 61.1927 55.3672 61.1927C56.1484 61.1927 56.7539 61.4485 57.1836 61.9603C57.6172 62.4681 57.834 63.1732 57.834 64.0755V64.5501ZM56.8496 63.765C56.8457 63.2103 56.7109 62.7786 56.4453 62.47C56.1797 62.1575 55.8145 62.0013 55.3496 62.0013C54.8926 62.0013 54.5039 62.1614 54.1836 62.4818C53.8672 62.7982 53.6738 63.2259 53.6035 63.765H56.8496ZM62.252 62.1536C62.1777 62.1302 62.1113 62.1146 62.0527 62.1068C61.9941 62.095 61.9199 62.0892 61.8301 62.0892C61.3418 62.0892 60.957 62.2982 60.6758 62.7161C60.3945 63.1302 60.2539 63.6497 60.2539 64.2747V67.3333H59.293V61.3333H60.2539V62.5228H60.2773C60.4141 62.1009 60.623 61.7806 60.9043 61.5618C61.1855 61.3392 61.5098 61.2278 61.877 61.2278C61.998 61.2278 62.0996 61.2337 62.1816 61.2454C62.2676 61.2571 62.3438 61.2747 62.4102 61.2982L62.252 62.1536ZM71.8438 59.8216H69.418V67.3333H68.4336V59.8216H66.0137V58.931H71.8438V59.8216ZM74.3867 67.4739C73.5 67.4739 72.791 67.1946 72.2598 66.636C71.7324 66.0735 71.4688 65.3294 71.4688 64.4036C71.4688 63.3997 71.7422 62.6146 72.2891 62.0482C72.8359 61.4818 73.582 61.1966 74.5273 61.1927C75.4219 61.1888 76.1191 61.4642 76.6191 62.0189C77.123 62.5735 77.375 63.3372 77.375 64.3099C77.375 65.2708 77.1035 66.0384 76.5605 66.6126C76.0215 67.1868 75.2969 67.4739 74.3867 67.4739ZM74.457 66.6653C75.0781 66.6653 75.5547 66.4642 75.8867 66.0618C76.2227 65.6556 76.3906 65.0833 76.3906 64.345C76.3906 63.5911 76.2227 63.013 75.8867 62.6107C75.5508 62.2044 75.0742 62.0013 74.457 62.0013C73.8398 62.0013 73.3516 62.2122 72.9922 62.6341C72.6328 63.056 72.4531 63.6341 72.4531 64.3685C72.4531 65.0794 72.6348 65.64 72.998 66.0501C73.3613 66.4603 73.8477 66.6653 74.457 66.6653ZM88.6133 66.7591C88.1914 66.9974 87.7461 67.1771 87.2773 67.2982C86.8086 67.4153 86.3164 67.4739 85.8008 67.4739C84.5703 67.4739 83.5918 67.1028 82.8652 66.3607C82.1426 65.6185 81.7812 64.5794 81.7812 63.2435C81.7812 61.8802 82.1855 60.7982 82.9941 59.9974C83.8066 59.1927 84.8477 58.7903 86.1172 58.7903C86.582 58.7903 87.0137 58.8392 87.4121 58.9368C87.8105 59.0306 88.2168 59.1829 88.6309 59.3939L88.2266 60.1907C87.8789 60.011 87.5371 59.8821 87.2012 59.804C86.8652 59.722 86.502 59.681 86.1113 59.681C85.1504 59.681 84.3594 59.9857 83.7383 60.595C83.1211 61.2044 82.8125 62.0638 82.8125 63.1732C82.8125 64.2982 83.084 65.1497 83.627 65.7278C84.1699 66.3021 84.9355 66.5892 85.9238 66.5892C86.252 66.5892 86.5586 66.5579 86.8438 66.4954C87.1289 66.429 87.3906 66.3294 87.6289 66.1966V63.8411H85.7891V62.9505H88.6133V66.7591ZM92.9492 67.4739C92.0625 67.4739 91.3535 67.1946 90.8223 66.636C90.2949 66.0735 90.0312 65.3294 90.0312 64.4036C90.0312 63.3997 90.3047 62.6146 90.8516 62.0482C91.3984 61.4818 92.1445 61.1966 93.0898 61.1927C93.9844 61.1888 94.6816 61.4642 95.1816 62.0189C95.6855 62.5735 95.9375 63.3372 95.9375 64.3099C95.9375 65.2708 95.666 66.0384 95.123 66.6126C94.584 67.1868 93.8594 67.4739 92.9492 67.4739ZM93.0195 66.6653C93.6406 66.6653 94.1172 66.4642 94.4492 66.0618C94.7852 65.6556 94.9531 65.0833 94.9531 64.345C94.9531 63.5911 94.7852 63.013 94.4492 62.6107C94.1133 62.2044 93.6367 62.0013 93.0195 62.0013C92.4023 62.0013 91.9141 62.2122 91.5547 62.6341C91.1953 63.056 91.0156 63.6341 91.0156 64.3685C91.0156 65.0794 91.1973 65.64 91.5605 66.0501C91.9238 66.4603 92.4102 66.6653 93.0195 66.6653ZM15.1016 85.3333V76.931H17.4219C18.9023 76.931 20.0117 77.2728 20.75 77.9564C21.4922 78.636 21.8633 79.6595 21.8633 81.0267C21.8633 82.3235 21.4512 83.3665 20.627 84.1556C19.8066 84.9407 18.707 85.3333 17.3281 85.3333H15.1016ZM16.0859 77.8216V84.4427H17.3398C18.4414 84.4427 19.2988 84.1478 19.9121 83.5579C20.5254 82.9681 20.832 82.1321 20.832 81.0501C20.832 79.972 20.5449 79.1653 19.9707 78.6302C19.4004 78.0911 18.543 77.8216 17.3984 77.8216H16.0859ZM28.209 82.5501H23.9668C23.9824 83.2259 24.1602 83.7474 24.5 84.1146C24.8438 84.4778 25.3242 84.6595 25.9414 84.6595C26.2109 84.6595 26.4805 84.6204 26.75 84.5423C27.0234 84.4603 27.293 84.3314 27.5586 84.1556L28.0039 84.8411C27.6641 85.0599 27.3242 85.22 26.9844 85.3216C26.6445 85.4232 26.2715 85.4739 25.8652 85.4739C24.959 85.4739 24.252 85.2044 23.7441 84.6653C23.2363 84.1263 22.9805 83.3743 22.9766 82.4095C22.9727 81.4446 23.2266 80.6673 23.7383 80.0775C24.2539 79.4876 24.9219 79.1927 25.7422 79.1927C26.5234 79.1927 27.1289 79.4485 27.5586 79.9603C27.9922 80.4681 28.209 81.1732 28.209 82.0755V82.5501ZM27.2246 81.765C27.2207 81.2103 27.0859 80.7786 26.8203 80.47C26.5547 80.1575 26.1895 80.0013 25.7246 80.0013C25.2676 80.0013 24.8789 80.1614 24.5586 80.4818C24.2422 80.7982 24.0488 81.2259 23.9785 81.765H27.2246ZM34.3848 79.3333L31.9941 85.3333H31.0508L28.7773 79.3333H29.832L31.3555 83.6927C31.4102 83.8528 31.4551 84.0032 31.4902 84.1439C31.5254 84.2806 31.5508 84.4095 31.5664 84.5306H31.5898C31.6094 84.3782 31.6348 84.2357 31.666 84.1028C31.6973 83.9661 31.7344 83.8372 31.7773 83.7161L33.3711 79.3333H34.3848ZM35.9141 77.8978C35.7188 77.8978 35.5547 77.8333 35.4219 77.7044C35.2891 77.5716 35.2227 77.4095 35.2227 77.2181C35.2227 77.0267 35.2891 76.8665 35.4219 76.7376C35.5547 76.6048 35.7188 76.5384 35.9141 76.5384C36.1094 76.5384 36.2734 76.6048 36.4062 76.7376C36.5391 76.8665 36.6055 77.0267 36.6055 77.2181C36.6055 77.4095 36.5391 77.5716 36.4062 77.7044C36.2734 77.8333 36.1094 77.8978 35.9141 77.8978ZM36.3828 85.3333H35.4219V79.3333H36.3828V85.3333ZM42.5469 84.9759C42.2695 85.1478 41.9922 85.2728 41.7148 85.3509C41.4375 85.4329 41.1348 85.4739 40.8066 85.4739C39.9629 85.4739 39.2695 85.2122 38.7266 84.6888C38.1875 84.1653 37.918 83.4232 37.918 82.4622C37.918 81.4857 38.1895 80.6966 38.7324 80.095C39.2793 79.4935 40.0293 79.1927 40.9824 79.1927C41.291 79.1927 41.584 79.2298 41.8613 79.304C42.1426 79.3782 42.4258 79.4993 42.7109 79.6673L42.3066 80.3704C42.084 80.2454 41.8652 80.1536 41.6504 80.095C41.4355 80.0364 41.2012 80.0071 40.9473 80.0071C40.2871 80.0071 39.7812 80.2278 39.4297 80.6693C39.0781 81.1107 38.9023 81.6712 38.9023 82.3509C38.9023 83.1009 39.0859 83.6732 39.4531 84.0677C39.8242 84.4622 40.3027 84.6595 40.8887 84.6595C41.0801 84.6595 41.2793 84.6302 41.4863 84.5716C41.6973 84.5091 41.9082 84.4134 42.1191 84.2845L42.5469 84.9759ZM48.6934 82.5501H44.4512C44.4668 83.2259 44.6445 83.7474 44.9844 84.1146C45.3281 84.4778 45.8086 84.6595 46.4258 84.6595C46.6953 84.6595 46.9648 84.6204 47.2344 84.5423C47.5078 84.4603 47.7773 84.3314 48.043 84.1556L48.4883 84.8411C48.1484 85.0599 47.8086 85.22 47.4688 85.3216C47.1289 85.4232 46.7559 85.4739 46.3496 85.4739C45.4434 85.4739 44.7363 85.2044 44.2285 84.6653C43.7207 84.1263 43.4648 83.3743 43.4609 82.4095C43.457 81.4446 43.7109 80.6673 44.2227 80.0775C44.7383 79.4876 45.4062 79.1927 46.2266 79.1927C47.0078 79.1927 47.6133 79.4485 48.043 79.9603C48.4766 80.4681 48.6934 81.1732 48.6934 82.0755V82.5501ZM47.709 81.765C47.7051 81.2103 47.5703 80.7786 47.3047 80.47C47.0391 80.1575 46.6738 80.0013 46.209 80.0013C45.752 80.0013 45.3633 80.1614 45.043 80.4818C44.7266 80.7982 44.5332 81.2259 44.4629 81.765H47.709ZM58.0273 85.3333H53.5742V76.931H57.8398V77.8216H54.5586V80.6165H57.5938V81.5013H54.5586V84.4427H58.0273V85.3333ZM64.4961 85.3333H63.5352V81.9114C63.5352 81.2747 63.418 80.7982 63.1836 80.4818C62.9531 80.1614 62.6055 80.0013 62.1406 80.0013C61.6602 80.0013 61.2617 80.1829 60.9453 80.5462C60.6328 80.9056 60.4766 81.3607 60.4766 81.9114V85.3333H59.5156V79.3333H60.4766V80.3294H60.5C60.7266 79.9505 61.0039 79.6673 61.332 79.4798C61.6602 79.2884 62.0391 79.1927 62.4688 79.1927C63.125 79.1927 63.627 79.4056 63.9746 79.8314C64.3223 80.2532 64.4961 80.8646 64.4961 81.6653V85.3333ZM70.5312 84.9759C70.2539 85.1478 69.9766 85.2728 69.6992 85.3509C69.4219 85.4329 69.1191 85.4739 68.791 85.4739C67.9473 85.4739 67.2539 85.2122 66.7109 84.6888C66.1719 84.1653 65.9023 83.4232 65.9023 82.4622C65.9023 81.4857 66.1738 80.6966 66.7168 80.095C67.2637 79.4935 68.0137 79.1927 68.9668 79.1927C69.2754 79.1927 69.5684 79.2298 69.8457 79.304C70.127 79.3782 70.4102 79.4993 70.6953 79.6673L70.291 80.3704C70.0684 80.2454 69.8496 80.1536 69.6348 80.095C69.4199 80.0364 69.1855 80.0071 68.9316 80.0071C68.2715 80.0071 67.7656 80.2278 67.4141 80.6693C67.0625 81.1107 66.8867 81.6712 66.8867 82.3509C66.8867 83.1009 67.0703 83.6732 67.4375 84.0677C67.8086 84.4622 68.2871 84.6595 68.873 84.6595C69.0645 84.6595 69.2637 84.6302 69.4707 84.5716C69.6816 84.5091 69.8926 84.4134 70.1035 84.2845L70.5312 84.9759ZM74.8145 80.1536C74.7402 80.1302 74.6738 80.1146 74.6152 80.1068C74.5566 80.095 74.4824 80.0892 74.3926 80.0892C73.9043 80.0892 73.5195 80.2982 73.2383 80.7161C72.957 81.1302 72.8164 81.6497 72.8164 82.2747V85.3333H71.8555V79.3333H72.8164V80.5228H72.8398C72.9766 80.1009 73.1855 79.7806 73.4668 79.5618C73.748 79.3392 74.0723 79.2278 74.4395 79.2278C74.5605 79.2278 74.6621 79.2337 74.7441 79.2454C74.8301 79.2571 74.9062 79.2747 74.9727 79.2982L74.8145 80.1536ZM80.8027 79.3333L77.9727 86.4759C77.75 87.0384 77.4707 87.4583 77.1348 87.7357C76.7988 88.0169 76.4043 88.1575 75.9512 88.1575C75.834 88.1575 75.7266 88.1497 75.6289 88.1341C75.5312 88.1224 75.4375 88.1048 75.3477 88.0814L75.5352 87.261C75.6055 87.2845 75.6699 87.3001 75.7285 87.3079C75.791 87.3196 75.8516 87.3255 75.9102 87.3255C76.168 87.3255 76.3809 87.2591 76.5488 87.1263C76.7207 86.9935 76.8574 86.806 76.959 86.5638L77.4805 85.3216L75.1367 79.3333H76.2031L77.8262 83.9505C77.834 83.9778 77.8477 84.0306 77.8672 84.1087C77.8906 84.1868 77.918 84.2864 77.9492 84.4075H77.9844C77.9961 84.3607 78.0098 84.3001 78.0254 84.2259C78.0449 84.1517 78.0703 84.0638 78.1016 83.9622L79.8066 79.3333H80.8027ZM82.8242 84.4661H82.8008V88.0931H81.8398V79.3333H82.8008V80.388H82.8242C83.0625 79.9896 83.3535 79.6907 83.6973 79.4915C84.0449 79.2923 84.4453 79.1927 84.8984 79.1927C85.6719 79.1927 86.2754 79.4622 86.709 80.0013C87.1426 80.5364 87.3594 81.2552 87.3594 82.1575C87.3594 83.1614 87.1152 83.9661 86.627 84.5716C86.1387 85.1732 85.4707 85.4739 84.623 85.4739C84.2363 85.4739 83.8926 85.39 83.5918 85.222C83.291 85.054 83.0352 84.8021 82.8242 84.4661ZM82.8008 82.0462V82.8841C82.8008 83.3802 82.9609 83.8021 83.2812 84.1497C83.6055 84.4935 84.0156 84.6653 84.5117 84.6653C85.0938 84.6653 85.5488 84.4427 85.877 83.9974C86.209 83.5521 86.375 82.9329 86.375 82.14C86.375 81.472 86.2207 80.9485 85.9121 80.5696C85.6035 80.1907 85.1855 80.0013 84.6582 80.0013C84.0996 80.0013 83.6504 80.1966 83.3105 80.5872C82.9707 80.9739 82.8008 81.4603 82.8008 82.0462ZM91.7539 85.263C91.5898 85.3294 91.4277 85.3782 91.2676 85.4095C91.1113 85.4446 90.9336 85.4622 90.7344 85.4622C90.2578 85.4622 89.8828 85.3235 89.6094 85.0462C89.3398 84.765 89.2051 84.3509 89.2051 83.804V80.1536H88.1738V79.3333H89.2051V77.8685L90.166 77.5579V79.3333H91.6777V80.1536H90.166V83.6927C90.166 84.0364 90.2266 84.2845 90.3477 84.4368C90.4727 84.5892 90.6582 84.6653 90.9043 84.6653C91.0215 84.6653 91.1348 84.6517 91.2441 84.6243C91.3535 84.597 91.4453 84.5657 91.5195 84.5306L91.7539 85.263ZM93.4531 77.8978C93.2578 77.8978 93.0938 77.8333 92.9609 77.7044C92.8281 77.5716 92.7617 77.4095 92.7617 77.2181C92.7617 77.0267 92.8281 76.8665 92.9609 76.7376C93.0938 76.6048 93.2578 76.5384 93.4531 76.5384C93.6484 76.5384 93.8125 76.6048 93.9453 76.7376C94.0781 76.8665 94.1445 77.0267 94.1445 77.2181C94.1445 77.4095 94.0781 77.5716 93.9453 77.7044C93.8125 77.8333 93.6484 77.8978 93.4531 77.8978ZM93.9219 85.3333H92.9609V79.3333H93.9219V85.3333ZM98.375 85.4739C97.4883 85.4739 96.7793 85.1946 96.248 84.636C95.7207 84.0735 95.457 83.3294 95.457 82.4036C95.457 81.3997 95.7305 80.6146 96.2773 80.0482C96.8242 79.4818 97.5703 79.1966 98.5156 79.1927C99.4102 79.1888 100.107 79.4642 100.607 80.0189C101.111 80.5735 101.363 81.3372 101.363 82.3099C101.363 83.2708 101.092 84.0384 100.549 84.6126C100.01 85.1868 99.2852 85.4739 98.375 85.4739ZM98.4453 84.6653C99.0664 84.6653 99.543 84.4642 99.875 84.0618C100.211 83.6556 100.379 83.0833 100.379 82.345C100.379 81.5911 100.211 81.013 99.875 80.6107C99.5391 80.2044 99.0625 80.0013 98.4453 80.0013C97.8281 80.0013 97.3398 80.2122 96.9805 80.6341C96.6211 81.056 96.4414 81.6341 96.4414 82.3685C96.4414 83.0794 96.623 83.64 96.9863 84.0501C97.3496 84.4603 97.8359 84.6653 98.4453 84.6653ZM107.879 85.3333H106.918V81.9114C106.918 81.2747 106.801 80.7982 106.566 80.4818C106.336 80.1614 105.988 80.0013 105.523 80.0013C105.043 80.0013 104.645 80.1829 104.328 80.5462C104.016 80.9056 103.859 81.3607 103.859 81.9114V85.3333H102.898V79.3333H103.859V80.3294H103.883C104.109 79.9505 104.387 79.6673 104.715 79.4798C105.043 79.2884 105.422 79.1927 105.852 79.1927C106.508 79.1927 107.01 79.4056 107.357 79.8314C107.705 80.2532 107.879 80.8646 107.879 81.6653V85.3333ZM19.5547 103.333H15.1016V94.931H19.3672V95.8216H16.0859V98.6165H19.1211V99.5013H16.0859V102.443H19.5547V103.333ZM26.0234 103.333H25.0625V99.9114C25.0625 99.2747 24.9453 98.7982 24.7109 98.4818C24.4805 98.1614 24.1328 98.0013 23.668 98.0013C23.1875 98.0013 22.7891 98.1829 22.4727 98.5462C22.1602 98.9056 22.0039 99.3607 22.0039 99.9114V103.333H21.043V97.3333H22.0039V98.3294H22.0273C22.2539 97.9505 22.5312 97.6673 22.8594 97.4798C23.1875 97.2884 23.5664 97.1927 23.9961 97.1927C24.6523 97.1927 25.1543 97.4056 25.502 97.8314C25.8496 98.2532 26.0234 98.8646 26.0234 99.6653V103.333ZM32.0586 102.976C31.7812 103.148 31.5039 103.273 31.2266 103.351C30.9492 103.433 30.6465 103.474 30.3184 103.474C29.4746 103.474 28.7812 103.212 28.2383 102.689C27.6992 102.165 27.4297 101.423 27.4297 100.462C27.4297 99.4857 27.7012 98.6966 28.2441 98.095C28.791 97.4935 29.541 97.1927 30.4941 97.1927C30.8027 97.1927 31.0957 97.2298 31.373 97.304C31.6543 97.3782 31.9375 97.4993 32.2227 97.6673L31.8184 98.3704C31.5957 98.2454 31.377 98.1536 31.1621 98.095C30.9473 98.0364 30.7129 98.0071 30.459 98.0071C29.7988 98.0071 29.293 98.2278 28.9414 98.6693C28.5898 99.1107 28.4141 99.6712 28.4141 100.351C28.4141 101.101 28.5977 101.673 28.9648 102.068C29.3359 102.462 29.8145 102.659 30.4004 102.659C30.5918 102.659 30.791 102.63 30.998 102.572C31.209 102.509 31.4199 102.413 31.6309 102.284L32.0586 102.976ZM36.3418 98.1536C36.2676 98.1302 36.2012 98.1146 36.1426 98.1068C36.084 98.095 36.0098 98.0892 35.9199 98.0892C35.4316 98.0892 35.0469 98.2982 34.7656 98.7161C34.4844 99.1302 34.3438 99.6497 34.3438 100.275V103.333H33.3828V97.3333H34.3438V98.5228H34.3672C34.5039 98.1009 34.7129 97.7806 34.9941 97.5618C35.2754 97.3392 35.5996 97.2278 35.9668 97.2278C36.0879 97.2278 36.1895 97.2337 36.2715 97.2454C36.3574 97.2571 36.4336 97.2747 36.5 97.2982L36.3418 98.1536ZM42.3301 97.3333L39.5 104.476C39.2773 105.038 38.998 105.458 38.6621 105.736C38.3262 106.017 37.9316 106.158 37.4785 106.158C37.3613 106.158 37.2539 106.15 37.1562 106.134C37.0586 106.122 36.9648 106.105 36.875 106.081L37.0625 105.261C37.1328 105.284 37.1973 105.3 37.2559 105.308C37.3184 105.32 37.3789 105.326 37.4375 105.326C37.6953 105.326 37.9082 105.259 38.0762 105.126C38.248 104.993 38.3848 104.806 38.4863 104.564L39.0078 103.322L36.6641 97.3333H37.7305L39.3535 101.951C39.3613 101.978 39.375 102.031 39.3945 102.109C39.418 102.187 39.4453 102.286 39.4766 102.408H39.5117C39.5234 102.361 39.5371 102.3 39.5527 102.226C39.5723 102.152 39.5977 102.064 39.6289 101.962L41.334 97.3333H42.3301ZM44.3516 102.466H44.3281V106.093H43.3672V97.3333H44.3281V98.388H44.3516C44.5898 97.9896 44.8809 97.6907 45.2246 97.4915C45.5723 97.2923 45.9727 97.1927 46.4258 97.1927C47.1992 97.1927 47.8027 97.4622 48.2363 98.0013C48.6699 98.5364 48.8867 99.2552 48.8867 100.158C48.8867 101.161 48.6426 101.966 48.1543 102.572C47.666 103.173 46.998 103.474 46.1504 103.474C45.7637 103.474 45.4199 103.39 45.1191 103.222C44.8184 103.054 44.5625 102.802 44.3516 102.466ZM44.3281 100.046V100.884C44.3281 101.38 44.4883 101.802 44.8086 102.15C45.1328 102.493 45.543 102.665 46.0391 102.665C46.6211 102.665 47.0762 102.443 47.4043 101.997C47.7363 101.552 47.9023 100.933 47.9023 100.14C47.9023 99.472 47.748 98.9485 47.4395 98.5696C47.1309 98.1907 46.7129 98.0013 46.1855 98.0013C45.627 98.0013 45.1777 98.1966 44.8379 98.5872C44.498 98.9739 44.3281 99.4603 44.3281 100.046ZM53.2812 103.263C53.1172 103.329 52.9551 103.378 52.7949 103.409C52.6387 103.445 52.4609 103.462 52.2617 103.462C51.7852 103.462 51.4102 103.324 51.1367 103.046C50.8672 102.765 50.7324 102.351 50.7324 101.804V98.1536H49.7012V97.3333H50.7324V95.8685L51.6934 95.5579V97.3333H53.2051V98.1536H51.6934V101.693C51.6934 102.036 51.7539 102.284 51.875 102.437C52 102.589 52.1855 102.665 52.4316 102.665C52.5488 102.665 52.6621 102.652 52.7715 102.624C52.8809 102.597 52.9727 102.566 53.0469 102.531L53.2812 103.263ZM59.3105 100.55H55.0684C55.084 101.226 55.2617 101.747 55.6016 102.115C55.9453 102.478 56.4258 102.659 57.043 102.659C57.3125 102.659 57.582 102.62 57.8516 102.542C58.125 102.46 58.3945 102.331 58.6602 102.156L59.1055 102.841C58.7656 103.06 58.4258 103.22 58.0859 103.322C57.7461 103.423 57.373 103.474 56.9668 103.474C56.0605 103.474 55.3535 103.204 54.8457 102.665C54.3379 102.126 54.082 101.374 54.0781 100.409C54.0742 99.4446 54.3281 98.6673 54.8398 98.0775C55.3555 97.4876 56.0234 97.1927 56.8438 97.1927C57.625 97.1927 58.2305 97.4485 58.6602 97.9603C59.0938 98.4681 59.3105 99.1732 59.3105 100.076V100.55ZM58.3262 99.765C58.3223 99.2103 58.1875 98.7786 57.9219 98.47C57.6562 98.1575 57.291 98.0013 56.8262 98.0013C56.3691 98.0013 55.9805 98.1614 55.6602 98.4818C55.3438 98.7982 55.1504 99.2259 55.0801 99.765H58.3262ZM64.9062 102.314C64.6836 102.701 64.4004 102.992 64.0566 103.187C63.7168 103.378 63.3125 103.474 62.8438 103.474C62.0898 103.474 61.4863 103.206 61.0332 102.671C60.584 102.132 60.3594 101.4 60.3594 100.474C60.3594 99.4818 60.6094 98.6868 61.1094 98.0892C61.6094 97.4915 62.2754 97.1927 63.1074 97.1927C63.5215 97.1927 63.877 97.2747 64.1738 97.4388C64.4746 97.5989 64.7188 97.8411 64.9062 98.1653H64.9297V94.4505H65.8906V103.333H64.9297V102.314H64.9062ZM61.3438 100.427C61.3438 101.118 61.5039 101.665 61.8242 102.068C62.1484 102.466 62.582 102.665 63.125 102.665C63.6641 102.665 64.0996 102.472 64.4316 102.085C64.7637 101.699 64.9297 101.21 64.9297 100.62V99.7357C64.9297 99.2513 64.7676 98.8411 64.4434 98.5052C64.123 98.1693 63.7188 98.0013 63.2305 98.0013C62.6445 98.0013 62.1836 98.2161 61.8477 98.6458C61.5117 99.0755 61.3438 99.6693 61.3438 100.427ZM76.1094 103.333H75.1484V99.8763C75.1484 99.2513 75.0312 98.7825 74.7969 98.47C74.5664 98.1575 74.2188 98.0013 73.7539 98.0013C73.2852 98.0013 72.8906 98.1829 72.5703 98.5462C72.25 98.9056 72.0898 99.3685 72.0898 99.9349V103.333H71.1289V94.4505H72.0898V98.3294H72.1133C72.3438 97.9505 72.623 97.6673 72.9512 97.4798C73.2793 97.2884 73.6562 97.1927 74.082 97.1927C74.7578 97.1927 75.2637 97.3958 75.5996 97.8021C75.9395 98.2083 76.1094 98.8196 76.1094 99.636V103.333ZM82.1738 103.333H81.2129V102.396H81.1895C80.9824 102.755 80.7266 103.025 80.4219 103.204C80.1211 103.384 79.7695 103.474 79.3672 103.474C78.8047 103.474 78.3496 103.31 78.002 102.982C77.6543 102.654 77.4805 102.218 77.4805 101.675C77.4805 101.163 77.6562 100.74 78.0078 100.404C78.3594 100.068 78.8574 99.8528 79.502 99.7591L81.2129 99.5306V99.3958C81.2129 98.8919 81.0957 98.5345 80.8613 98.3235C80.627 98.1087 80.3145 98.0013 79.9238 98.0013C79.6113 98.0013 79.3105 98.0599 79.0215 98.1771C78.7324 98.2943 78.4609 98.4739 78.207 98.7161L77.6445 98.136C77.9805 97.8118 78.3379 97.5735 78.7168 97.4212C79.0957 97.2689 79.5176 97.1927 79.9824 97.1927C80.709 97.1927 81.2559 97.3802 81.623 97.7552C81.9902 98.1263 82.1738 98.6849 82.1738 99.431V103.333ZM81.2129 100.896V100.298L79.7656 100.497C79.3242 100.56 78.9922 100.671 78.7695 100.831C78.5469 100.992 78.4355 101.243 78.4355 101.587C78.4355 101.947 78.5391 102.222 78.7461 102.413C78.957 102.601 79.2129 102.695 79.5137 102.695C80.0332 102.695 80.4453 102.525 80.75 102.185C81.0586 101.845 81.2129 101.415 81.2129 100.896ZM86.9902 98.1536C86.916 98.1302 86.8496 98.1146 86.791 98.1068C86.7324 98.095 86.6582 98.0892 86.5684 98.0892C86.0801 98.0892 85.6953 98.2982 85.4141 98.7161C85.1328 99.1302 84.9922 99.6497 84.9922 100.275V103.333H84.0312V97.3333H84.9922V98.5228H85.0156C85.1523 98.1009 85.3613 97.7806 85.6426 97.5618C85.9238 97.3392 86.248 97.2278 86.6152 97.2278C86.7363 97.2278 86.8379 97.2337 86.9199 97.2454C87.0059 97.2571 87.082 97.2747 87.1484 97.2982L86.9902 98.1536ZM92.3398 102.314C92.1172 102.701 91.834 102.992 91.4902 103.187C91.1504 103.378 90.7461 103.474 90.2773 103.474C89.5234 103.474 88.9199 103.206 88.4668 102.671C88.0176 102.132 87.793 101.4 87.793 100.474C87.793 99.4818 88.043 98.6868 88.543 98.0892C89.043 97.4915 89.709 97.1927 90.541 97.1927C90.9551 97.1927 91.3105 97.2747 91.6074 97.4388C91.9082 97.5989 92.1523 97.8411 92.3398 98.1653H92.3633V94.4505H93.3242V103.333H92.3633V102.314H92.3398ZM88.7773 100.427C88.7773 101.118 88.9375 101.665 89.2578 102.068C89.582 102.466 90.0156 102.665 90.5586 102.665C91.0977 102.665 91.5332 102.472 91.8652 102.085C92.1973 101.699 92.3633 101.21 92.3633 100.62V99.7357C92.3633 99.2513 92.2012 98.8411 91.877 98.5052C91.5566 98.1693 91.1523 98.0013 90.6641 98.0013C90.0781 98.0013 89.6172 98.2161 89.2812 98.6458C88.9453 99.0755 88.7773 99.6693 88.7773 100.427ZM102.699 102.314C102.477 102.701 102.193 102.992 101.85 103.187C101.51 103.378 101.105 103.474 100.637 103.474C99.8828 103.474 99.2793 103.206 98.8262 102.671C98.377 102.132 98.1523 101.4 98.1523 100.474C98.1523 99.4818 98.4023 98.6868 98.9023 98.0892C99.4023 97.4915 100.068 97.1927 100.9 97.1927C101.314 97.1927 101.67 97.2747 101.967 97.4388C102.268 97.5989 102.512 97.8411 102.699 98.1653H102.723V94.4505H103.684V103.333H102.723V102.314H102.699ZM99.1367 100.427C99.1367 101.118 99.2969 101.665 99.6172 102.068C99.9414 102.466 100.375 102.665 100.918 102.665C101.457 102.665 101.893 102.472 102.225 102.085C102.557 101.699 102.723 101.21 102.723 100.62V99.7357C102.723 99.2513 102.561 98.8411 102.236 98.5052C101.916 98.1693 101.512 98.0013 101.023 98.0013C100.438 98.0013 99.9766 98.2161 99.6406 98.6458C99.3047 99.0755 99.1367 99.6693 99.1367 100.427ZM108.588 98.1536C108.514 98.1302 108.447 98.1146 108.389 98.1068C108.33 98.095 108.256 98.0892 108.166 98.0892C107.678 98.0892 107.293 98.2982 107.012 98.7161C106.73 99.1302 106.59 99.6497 106.59 100.275V103.333H105.629V97.3333H106.59V98.5228H106.613C106.75 98.1009 106.959 97.7806 107.24 97.5618C107.521 97.3392 107.846 97.2278 108.213 97.2278C108.334 97.2278 108.436 97.2337 108.518 97.2454C108.604 97.2571 108.68 97.2747 108.746 97.2982L108.588 98.1536ZM110.293 95.8978C110.098 95.8978 109.934 95.8333 109.801 95.7044C109.668 95.5716 109.602 95.4095 109.602 95.2181C109.602 95.0267 109.668 94.8665 109.801 94.7376C109.934 94.6048 110.098 94.5384 110.293 94.5384C110.488 94.5384 110.652 94.6048 110.785 94.7376C110.918 94.8665 110.984 95.0267 110.984 95.2181C110.984 95.4095 110.918 95.5716 110.785 95.7044C110.652 95.8333 110.488 95.8978 110.293 95.8978ZM110.762 103.333H109.801V97.3333H110.762V103.333ZM117.424 97.3333L115.033 103.333H114.09L111.816 97.3333H112.871L114.395 101.693C114.449 101.853 114.494 102.003 114.529 102.144C114.564 102.281 114.59 102.409 114.605 102.531H114.629C114.648 102.378 114.674 102.236 114.705 102.103C114.736 101.966 114.773 101.837 114.816 101.716L116.41 97.3333H117.424ZM123.283 100.55H119.041C119.057 101.226 119.234 101.747 119.574 102.115C119.918 102.478 120.398 102.659 121.016 102.659C121.285 102.659 121.555 102.62 121.824 102.542C122.098 102.46 122.367 102.331 122.633 102.156L123.078 102.841C122.738 103.06 122.398 103.22 122.059 103.322C121.719 103.423 121.346 103.474 120.939 103.474C120.033 103.474 119.326 103.204 118.818 102.665C118.311 102.126 118.055 101.374 118.051 100.409C118.047 99.4446 118.301 98.6673 118.812 98.0775C119.328 97.4876 119.996 97.1927 120.816 97.1927C121.598 97.1927 122.203 97.4485 122.633 97.9603C123.066 98.4681 123.283 99.1732 123.283 100.076V100.55ZM122.299 99.765C122.295 99.2103 122.16 98.7786 121.895 98.47C121.629 98.1575 121.264 98.0013 120.799 98.0013C120.342 98.0013 119.953 98.1614 119.633 98.4818C119.316 98.7982 119.123 99.2259 119.053 99.765H122.299ZM16.0859 118.251V121.333H15.1016V112.931H17.4102C18.3086 112.931 19.0039 113.154 19.4961 113.599C19.9922 114.044 20.2402 114.673 20.2402 115.486C20.2402 116.294 19.9648 116.958 19.4141 117.478C18.8672 117.993 18.127 118.251 17.1934 118.251H16.0859ZM16.0859 113.822V117.361H17.1172C17.7969 117.361 18.3145 117.202 18.6699 116.886C19.0293 116.566 19.209 116.115 19.209 115.533C19.209 114.962 19.0449 114.534 18.7168 114.249C18.3887 113.964 17.8965 113.822 17.2402 113.822H16.0859ZM26.0762 118.55H21.834C21.8496 119.226 22.0273 119.747 22.3672 120.115C22.7109 120.478 23.1914 120.659 23.8086 120.659C24.0781 120.659 24.3477 120.62 24.6172 120.542C24.8906 120.46 25.1602 120.331 25.4258 120.156L25.8711 120.841C25.5312 121.06 25.1914 121.22 24.8516 121.322C24.5117 121.423 24.1387 121.474 23.7324 121.474C22.8262 121.474 22.1191 121.204 21.6113 120.665C21.1035 120.126 20.8477 119.374 20.8438 118.409C20.8398 117.445 21.0938 116.667 21.6055 116.077C22.1211 115.488 22.7891 115.193 23.6094 115.193C24.3906 115.193 24.9961 115.449 25.4258 115.96C25.8594 116.468 26.0762 117.173 26.0762 118.076V118.55ZM25.0918 117.765C25.0879 117.21 24.9531 116.779 24.6875 116.47C24.4219 116.158 24.0566 116.001 23.5918 116.001C23.1348 116.001 22.7461 116.161 22.4258 116.482C22.1094 116.798 21.916 117.226 21.8457 117.765H25.0918ZM30.4941 116.154C30.4199 116.13 30.3535 116.115 30.2949 116.107C30.2363 116.095 30.1621 116.089 30.0723 116.089C29.584 116.089 29.1992 116.298 28.918 116.716C28.6367 117.13 28.4961 117.65 28.4961 118.275V121.333H27.5352V115.333H28.4961V116.523H28.5195C28.6562 116.101 28.8652 115.781 29.1465 115.562C29.4277 115.339 29.752 115.228 30.1191 115.228C30.2402 115.228 30.3418 115.234 30.4238 115.245C30.5098 115.257 30.5859 115.275 30.6523 115.298L30.4941 116.154ZM31.1445 120.882L31.6016 120.144C31.8633 120.316 32.1191 120.447 32.3691 120.536C32.6191 120.622 32.8887 120.665 33.1777 120.665C33.5879 120.665 33.8984 120.589 34.1094 120.437C34.3242 120.284 34.4316 120.056 34.4316 119.751C34.4316 119.505 34.3359 119.298 34.1445 119.13C33.957 118.958 33.6621 118.822 33.2598 118.72C32.5098 118.529 31.9961 118.288 31.7188 117.999C31.4414 117.706 31.3027 117.347 31.3027 116.921C31.3027 116.429 31.4883 116.019 31.8594 115.691C32.2305 115.359 32.748 115.193 33.4121 115.193C33.7324 115.193 34.0371 115.234 34.3262 115.316C34.6152 115.398 34.9102 115.538 35.2109 115.738L34.7832 116.464C34.5098 116.292 34.2637 116.173 34.0449 116.107C33.8301 116.036 33.6113 116.001 33.3887 116.001C33.002 116.001 32.707 116.074 32.5039 116.218C32.3008 116.359 32.1992 116.564 32.1992 116.833C32.1992 117.103 32.3027 117.306 32.5098 117.443C32.7207 117.579 33.0586 117.708 33.5234 117.829C34.1328 117.993 34.5879 118.224 34.8887 118.521C35.1934 118.814 35.3457 119.199 35.3457 119.675C35.3457 120.23 35.1484 120.669 34.7539 120.993C34.3633 121.314 33.8262 121.474 33.1426 121.474C32.7754 121.474 32.4219 121.423 32.082 121.322C31.7461 121.22 31.4336 121.074 31.1445 120.882ZM39.3125 121.474C38.4258 121.474 37.7168 121.195 37.1855 120.636C36.6582 120.074 36.3945 119.329 36.3945 118.404C36.3945 117.4 36.668 116.615 37.2148 116.048C37.7617 115.482 38.5078 115.197 39.4531 115.193C40.3477 115.189 41.0449 115.464 41.5449 116.019C42.0488 116.574 42.3008 117.337 42.3008 118.31C42.3008 119.271 42.0293 120.038 41.4863 120.613C40.9473 121.187 40.2227 121.474 39.3125 121.474ZM39.3828 120.665C40.0039 120.665 40.4805 120.464 40.8125 120.062C41.1484 119.656 41.3164 119.083 41.3164 118.345C41.3164 117.591 41.1484 117.013 40.8125 116.611C40.4766 116.204 40 116.001 39.3828 116.001C38.7656 116.001 38.2773 116.212 37.918 116.634C37.5586 117.056 37.3789 117.634 37.3789 118.368C37.3789 119.079 37.5605 119.64 37.9238 120.05C38.2871 120.46 38.7734 120.665 39.3828 120.665ZM48.8164 121.333H47.8555V117.911C47.8555 117.275 47.7383 116.798 47.5039 116.482C47.2734 116.161 46.9258 116.001 46.4609 116.001C45.9805 116.001 45.582 116.183 45.2656 116.546C44.9531 116.906 44.7969 117.361 44.7969 117.911V121.333H43.8359V115.333H44.7969V116.329H44.8203C45.0469 115.951 45.3242 115.667 45.6523 115.48C45.9805 115.288 46.3594 115.193 46.7891 115.193C47.4453 115.193 47.9473 115.406 48.2949 115.831C48.6426 116.253 48.8164 116.865 48.8164 117.665V121.333ZM54.8809 121.333H53.9199V120.396H53.8965C53.6895 120.755 53.4336 121.025 53.1289 121.204C52.8281 121.384 52.4766 121.474 52.0742 121.474C51.5117 121.474 51.0566 121.31 50.709 120.982C50.3613 120.654 50.1875 120.218 50.1875 119.675C50.1875 119.163 50.3633 118.74 50.7148 118.404C51.0664 118.068 51.5645 117.853 52.209 117.759L53.9199 117.531V117.396C53.9199 116.892 53.8027 116.534 53.5684 116.324C53.334 116.109 53.0215 116.001 52.6309 116.001C52.3184 116.001 52.0176 116.06 51.7285 116.177C51.4395 116.294 51.168 116.474 50.9141 116.716L50.3516 116.136C50.6875 115.812 51.0449 115.574 51.4238 115.421C51.8027 115.269 52.2246 115.193 52.6895 115.193C53.416 115.193 53.9629 115.38 54.3301 115.755C54.6973 116.126 54.8809 116.685 54.8809 117.431V121.333ZM53.9199 118.896V118.298L52.4727 118.497C52.0312 118.56 51.6992 118.671 51.4766 118.831C51.2539 118.992 51.1426 119.243 51.1426 119.587C51.1426 119.947 51.2461 120.222 51.4531 120.413C51.6641 120.601 51.9199 120.695 52.2207 120.695C52.7402 120.695 53.1523 120.525 53.457 120.185C53.7656 119.845 53.9199 119.415 53.9199 118.896ZM56.7383 121.333V112.451H57.6992V121.333H56.7383ZM67.0742 120.314C66.8516 120.701 66.5684 120.992 66.2246 121.187C65.8848 121.378 65.4805 121.474 65.0117 121.474C64.2578 121.474 63.6543 121.206 63.2012 120.671C62.752 120.132 62.5273 119.4 62.5273 118.474C62.5273 117.482 62.7773 116.687 63.2773 116.089C63.7773 115.492 64.4434 115.193 65.2754 115.193C65.6895 115.193 66.0449 115.275 66.3418 115.439C66.6426 115.599 66.8867 115.841 67.0742 116.165H67.0977V112.451H68.0586V121.333H67.0977V120.314H67.0742ZM63.5117 118.427C63.5117 119.118 63.6719 119.665 63.9922 120.068C64.3164 120.466 64.75 120.665 65.293 120.665C65.832 120.665 66.2676 120.472 66.5996 120.085C66.9316 119.699 67.0977 119.21 67.0977 118.62V117.736C67.0977 117.251 66.9355 116.841 66.6113 116.505C66.291 116.169 65.8867 116.001 65.3984 116.001C64.8125 116.001 64.3516 116.216 64.0156 116.646C63.6797 117.076 63.5117 117.669 63.5117 118.427ZM74.252 121.333H73.291V120.396H73.2676C73.0605 120.755 72.8047 121.025 72.5 121.204C72.1992 121.384 71.8477 121.474 71.4453 121.474C70.8828 121.474 70.4277 121.31 70.0801 120.982C69.7324 120.654 69.5586 120.218 69.5586 119.675C69.5586 119.163 69.7344 118.74 70.0859 118.404C70.4375 118.068 70.9355 117.853 71.5801 117.759L73.291 117.531V117.396C73.291 116.892 73.1738 116.534 72.9395 116.324C72.7051 116.109 72.3926 116.001 72.002 116.001C71.6895 116.001 71.3887 116.06 71.0996 116.177C70.8105 116.294 70.5391 116.474 70.2852 116.716L69.7227 116.136C70.0586 115.812 70.416 115.574 70.7949 115.421C71.1738 115.269 71.5957 115.193 72.0605 115.193C72.7871 115.193 73.334 115.38 73.7012 115.755C74.0684 116.126 74.252 116.685 74.252 117.431V121.333ZM73.291 118.896V118.298L71.8438 118.497C71.4023 118.56 71.0703 118.671 70.8477 118.831C70.625 118.992 70.5137 119.243 70.5137 119.587C70.5137 119.947 70.6172 120.222 70.8242 120.413C71.0352 120.601 71.291 120.695 71.5918 120.695C72.1113 120.695 72.5234 120.525 72.8281 120.185C73.1367 119.845 73.291 119.415 73.291 118.896ZM78.9688 121.263C78.8047 121.329 78.6426 121.378 78.4824 121.409C78.3262 121.445 78.1484 121.462 77.9492 121.462C77.4727 121.462 77.0977 121.324 76.8242 121.046C76.5547 120.765 76.4199 120.351 76.4199 119.804V116.154H75.3887V115.333H76.4199V113.868L77.3809 113.558V115.333H78.8926V116.154H77.3809V119.693C77.3809 120.036 77.4414 120.284 77.5625 120.437C77.6875 120.589 77.873 120.665 78.1191 120.665C78.2363 120.665 78.3496 120.652 78.459 120.624C78.5684 120.597 78.6602 120.566 78.7344 120.531L78.9688 121.263ZM84.4238 121.333H83.4629V120.396H83.4395C83.2324 120.755 82.9766 121.025 82.6719 121.204C82.3711 121.384 82.0195 121.474 81.6172 121.474C81.0547 121.474 80.5996 121.31 80.252 120.982C79.9043 120.654 79.7305 120.218 79.7305 119.675C79.7305 119.163 79.9062 118.74 80.2578 118.404C80.6094 118.068 81.1074 117.853 81.752 117.759L83.4629 117.531V117.396C83.4629 116.892 83.3457 116.534 83.1113 116.324C82.877 116.109 82.5645 116.001 82.1738 116.001C81.8613 116.001 81.5605 116.06 81.2715 116.177C80.9824 116.294 80.7109 116.474 80.457 116.716L79.8945 116.136C80.2305 115.812 80.5879 115.574 80.9668 115.421C81.3457 115.269 81.7676 115.193 82.2324 115.193C82.959 115.193 83.5059 115.38 83.873 115.755C84.2402 116.126 84.4238 116.685 84.4238 117.431V121.333ZM83.4629 118.896V118.298L82.0156 118.497C81.5742 118.56 81.2422 118.671 81.0195 118.831C80.7969 118.992 80.6855 119.243 80.6855 119.587C80.6855 119.947 80.7891 120.222 80.9961 120.413C81.207 120.601 81.4629 120.695 81.7637 120.695C82.2832 120.695 82.6953 120.525 83 120.185C83.3086 119.845 83.4629 119.415 83.4629 118.896ZM94.3965 118.55H90.1543C90.1699 119.226 90.3477 119.747 90.6875 120.115C91.0312 120.478 91.5117 120.659 92.1289 120.659C92.3984 120.659 92.668 120.62 92.9375 120.542C93.2109 120.46 93.4805 120.331 93.7461 120.156L94.1914 120.841C93.8516 121.06 93.5117 121.22 93.1719 121.322C92.832 121.423 92.459 121.474 92.0527 121.474C91.1465 121.474 90.4395 121.204 89.9316 120.665C89.4238 120.126 89.168 119.374 89.1641 118.409C89.1602 117.445 89.4141 116.667 89.9258 116.077C90.4414 115.488 91.1094 115.193 91.9297 115.193C92.7109 115.193 93.3164 115.449 93.7461 115.96C94.1797 116.468 94.3965 117.173 94.3965 118.076V118.55ZM93.4121 117.765C93.4082 117.21 93.2734 116.779 93.0078 116.47C92.7422 116.158 92.377 116.001 91.9121 116.001C91.4551 116.001 91.0664 116.161 90.7461 116.482C90.4297 116.798 90.2363 117.226 90.166 117.765H93.4121ZM100.836 121.333H99.875V117.911C99.875 117.275 99.7578 116.798 99.5234 116.482C99.293 116.161 98.9453 116.001 98.4805 116.001C98 116.001 97.6016 116.183 97.2852 116.546C96.9727 116.906 96.8164 117.361 96.8164 117.911V121.333H95.8555V115.333H96.8164V116.329H96.8398C97.0664 115.951 97.3438 115.667 97.6719 115.48C98 115.288 98.3789 115.193 98.8086 115.193C99.4648 115.193 99.9668 115.406 100.314 115.831C100.662 116.253 100.836 116.865 100.836 117.665V121.333ZM106.871 120.976C106.594 121.148 106.316 121.273 106.039 121.351C105.762 121.433 105.459 121.474 105.131 121.474C104.287 121.474 103.594 121.212 103.051 120.689C102.512 120.165 102.242 119.423 102.242 118.462C102.242 117.486 102.514 116.697 103.057 116.095C103.604 115.493 104.354 115.193 105.307 115.193C105.615 115.193 105.908 115.23 106.186 115.304C106.467 115.378 106.75 115.499 107.035 115.667L106.631 116.37C106.408 116.245 106.189 116.154 105.975 116.095C105.76 116.036 105.525 116.007 105.271 116.007C104.611 116.007 104.105 116.228 103.754 116.669C103.402 117.111 103.227 117.671 103.227 118.351C103.227 119.101 103.41 119.673 103.777 120.068C104.148 120.462 104.627 120.659 105.213 120.659C105.404 120.659 105.604 120.63 105.811 120.572C106.021 120.509 106.232 120.413 106.443 120.284L106.871 120.976ZM111.154 116.154C111.08 116.13 111.014 116.115 110.955 116.107C110.896 116.095 110.822 116.089 110.732 116.089C110.244 116.089 109.859 116.298 109.578 116.716C109.297 117.13 109.156 117.65 109.156 118.275V121.333H108.195V115.333H109.156V116.523H109.18C109.316 116.101 109.525 115.781 109.807 115.562C110.088 115.339 110.412 115.228 110.779 115.228C110.9 115.228 111.002 115.234 111.084 115.245C111.17 115.257 111.246 115.275 111.312 115.298L111.154 116.154ZM117.143 115.333L114.312 122.476C114.09 123.038 113.811 123.458 113.475 123.736C113.139 124.017 112.744 124.158 112.291 124.158C112.174 124.158 112.066 124.15 111.969 124.134C111.871 124.122 111.777 124.105 111.688 124.081L111.875 123.261C111.945 123.284 112.01 123.3 112.068 123.308C112.131 123.32 112.191 123.326 112.25 123.326C112.508 123.326 112.721 123.259 112.889 123.126C113.061 122.993 113.197 122.806 113.299 122.564L113.82 121.322L111.477 115.333H112.543L114.166 119.951C114.174 119.978 114.188 120.031 114.207 120.109C114.23 120.187 114.258 120.286 114.289 120.408H114.324C114.336 120.361 114.35 120.3 114.365 120.226C114.385 120.152 114.41 120.064 114.441 119.962L116.146 115.333H117.143ZM119.164 120.466H119.141V124.093H118.18V115.333H119.141V116.388H119.164C119.402 115.99 119.693 115.691 120.037 115.492C120.385 115.292 120.785 115.193 121.238 115.193C122.012 115.193 122.615 115.462 123.049 116.001C123.482 116.536 123.699 117.255 123.699 118.158C123.699 119.161 123.455 119.966 122.967 120.572C122.479 121.173 121.811 121.474 120.963 121.474C120.576 121.474 120.232 121.39 119.932 121.222C119.631 121.054 119.375 120.802 119.164 120.466ZM119.141 118.046V118.884C119.141 119.38 119.301 119.802 119.621 120.15C119.945 120.493 120.355 120.665 120.852 120.665C121.434 120.665 121.889 120.443 122.217 119.997C122.549 119.552 122.715 118.933 122.715 118.14C122.715 117.472 122.561 116.949 122.252 116.57C121.943 116.191 121.525 116.001 120.998 116.001C120.439 116.001 119.99 116.197 119.65 116.587C119.311 116.974 119.141 117.46 119.141 118.046ZM128.094 121.263C127.93 121.329 127.768 121.378 127.607 121.409C127.451 121.445 127.273 121.462 127.074 121.462C126.598 121.462 126.223 121.324 125.949 121.046C125.68 120.765 125.545 120.351 125.545 119.804V116.154H124.514V115.333H125.545V113.868L126.506 113.558V115.333H128.018V116.154H126.506V119.693C126.506 120.036 126.566 120.284 126.688 120.437C126.812 120.589 126.998 120.665 127.244 120.665C127.361 120.665 127.475 120.652 127.584 120.624C127.693 120.597 127.785 120.566 127.859 120.531L128.094 121.263ZM129.793 113.898C129.598 113.898 129.434 113.833 129.301 113.704C129.168 113.572 129.102 113.409 129.102 113.218C129.102 113.027 129.168 112.867 129.301 112.738C129.434 112.605 129.598 112.538 129.793 112.538C129.988 112.538 130.152 112.605 130.285 112.738C130.418 112.867 130.484 113.027 130.484 113.218C130.484 113.409 130.418 113.572 130.285 113.704C130.152 113.833 129.988 113.898 129.793 113.898ZM130.262 121.333H129.301V115.333H130.262V121.333ZM134.715 121.474C133.828 121.474 133.119 121.195 132.588 120.636C132.061 120.074 131.797 119.329 131.797 118.404C131.797 117.4 132.07 116.615 132.617 116.048C133.164 115.482 133.91 115.197 134.855 115.193C135.75 115.189 136.447 115.464 136.947 116.019C137.451 116.574 137.703 117.337 137.703 118.31C137.703 119.271 137.432 120.038 136.889 120.613C136.35 121.187 135.625 121.474 134.715 121.474ZM134.785 120.665C135.406 120.665 135.883 120.464 136.215 120.062C136.551 119.656 136.719 119.083 136.719 118.345C136.719 117.591 136.551 117.013 136.215 116.611C135.879 116.204 135.402 116.001 134.785 116.001C134.168 116.001 133.68 116.212 133.32 116.634C132.961 117.056 132.781 117.634 132.781 118.368C132.781 119.079 132.963 119.64 133.326 120.05C133.689 120.46 134.176 120.665 134.785 120.665ZM144.219 121.333H143.258V117.911C143.258 117.275 143.141 116.798 142.906 116.482C142.676 116.161 142.328 116.001 141.863 116.001C141.383 116.001 140.984 116.183 140.668 116.546C140.355 116.906 140.199 117.361 140.199 117.911V121.333H139.238V115.333H140.199V116.329H140.223C140.449 115.951 140.727 115.667 141.055 115.48C141.383 115.288 141.762 115.193 142.191 115.193C142.848 115.193 143.35 115.406 143.697 115.831C144.045 116.253 144.219 116.865 144.219 117.665V121.333ZM151.848 123.243H150.992C150.387 122.552 149.932 121.781 149.627 120.929C149.326 120.074 149.176 119.14 149.176 118.128C149.176 117.109 149.326 116.167 149.627 115.304C149.932 114.437 150.387 113.646 150.992 112.931H151.859C151.246 113.673 150.785 114.476 150.477 115.339C150.172 116.202 150.02 117.128 150.02 118.117C150.02 119.093 150.172 120.009 150.477 120.865C150.781 121.72 151.238 122.513 151.848 123.243ZM154.062 118.251V121.333H153.078V112.931H155.387C156.285 112.931 156.98 113.154 157.473 113.599C157.969 114.044 158.217 114.673 158.217 115.486C158.217 116.294 157.941 116.958 157.391 117.478C156.844 117.993 156.104 118.251 155.17 118.251H154.062ZM154.062 113.822V117.361H155.094C155.773 117.361 156.291 117.202 156.646 116.886C157.006 116.566 157.186 116.115 157.186 115.533C157.186 114.962 157.021 114.534 156.693 114.249C156.365 113.964 155.873 113.822 155.217 113.822H154.062ZM159.805 121.333V112.931H162.125C163.605 112.931 164.715 113.273 165.453 113.956C166.195 114.636 166.566 115.659 166.566 117.027C166.566 118.324 166.154 119.367 165.33 120.156C164.51 120.941 163.41 121.333 162.031 121.333H159.805ZM160.789 113.822V120.443H162.043C163.145 120.443 164.002 120.148 164.615 119.558C165.229 118.968 165.535 118.132 165.535 117.05C165.535 115.972 165.248 115.165 164.674 114.63C164.104 114.091 163.246 113.822 162.102 113.822H160.789ZM172.672 121.333H168.219V112.931H172.484V113.822H169.203V116.617H172.238V117.501H169.203V120.443H172.672V121.333ZM174.184 123.243H173.328C173.938 122.513 174.395 121.72 174.699 120.865C175.004 120.009 175.156 119.093 175.156 118.117C175.156 117.128 175.002 116.202 174.693 115.339C174.389 114.476 173.93 113.673 173.316 112.931H174.184C174.793 113.646 175.25 114.437 175.555 115.304C175.859 116.167 176.012 117.109 176.012 118.128C176.012 119.14 175.859 120.074 175.555 120.929C175.25 121.781 174.793 122.552 174.184 123.243ZM19.5547 139.333H15.1016V130.931H19.3672V131.822H16.0859V134.617H19.1211V135.501H16.0859V138.443H19.5547V139.333ZM29.5625 139.333H28.6016V135.888C28.6016 135.224 28.498 134.743 28.291 134.447C28.0879 134.15 27.7441 134.001 27.2598 134.001C26.8496 134.001 26.5 134.189 26.2109 134.564C25.9258 134.939 25.7832 135.388 25.7832 135.911V139.333H24.8223V135.771C24.8223 135.181 24.709 134.74 24.4824 134.447C24.2559 134.15 23.9141 134.001 23.457 134.001C23.0352 134.001 22.6875 134.179 22.4141 134.534C22.1406 134.886 22.0039 135.345 22.0039 135.911V139.333H21.043V133.333H22.0039V134.283H22.0273C22.2422 133.919 22.5039 133.648 22.8125 133.468C23.125 133.284 23.4844 133.193 23.8906 133.193C24.3008 133.193 24.6582 133.308 24.9629 133.538C25.2676 133.765 25.4766 134.064 25.5898 134.435C25.8125 134.021 26.0898 133.71 26.4219 133.503C26.7539 133.296 27.1406 133.193 27.582 133.193C28.2422 133.193 28.7363 133.396 29.0645 133.802C29.3965 134.208 29.5625 134.82 29.5625 135.636V139.333ZM35.627 139.333H34.666V138.396H34.6426C34.4355 138.755 34.1797 139.025 33.875 139.204C33.5742 139.384 33.2227 139.474 32.8203 139.474C32.2578 139.474 31.8027 139.31 31.4551 138.982C31.1074 138.654 30.9336 138.218 30.9336 137.675C30.9336 137.163 31.1094 136.74 31.4609 136.404C31.8125 136.068 32.3105 135.853 32.9551 135.759L34.666 135.531V135.396C34.666 134.892 34.5488 134.534 34.3145 134.324C34.0801 134.109 33.7676 134.001 33.377 134.001C33.0645 134.001 32.7637 134.06 32.4746 134.177C32.1855 134.294 31.9141 134.474 31.6602 134.716L31.0977 134.136C31.4336 133.812 31.791 133.574 32.1699 133.421C32.5488 133.269 32.9707 133.193 33.4355 133.193C34.1621 133.193 34.709 133.38 35.0762 133.755C35.4434 134.126 35.627 134.685 35.627 135.431V139.333ZM34.666 136.896V136.298L33.2188 136.497C32.7773 136.56 32.4453 136.671 32.2227 136.831C32 136.992 31.8887 137.243 31.8887 137.587C31.8887 137.947 31.9922 138.222 32.1992 138.413C32.4102 138.601 32.666 138.695 32.9668 138.695C33.4863 138.695 33.8984 138.525 34.2031 138.185C34.5117 137.845 34.666 137.415 34.666 136.896ZM37.9766 131.898C37.7812 131.898 37.6172 131.833 37.4844 131.704C37.3516 131.572 37.2852 131.409 37.2852 131.218C37.2852 131.027 37.3516 130.867 37.4844 130.738C37.6172 130.605 37.7812 130.538 37.9766 130.538C38.1719 130.538 38.3359 130.605 38.4688 130.738C38.6016 130.867 38.668 131.027 38.668 131.218C38.668 131.409 38.6016 131.572 38.4688 131.704C38.3359 131.833 38.1719 131.898 37.9766 131.898ZM38.4453 139.333H37.4844V133.333H38.4453V139.333ZM40.3906 139.333V130.451H41.3516V139.333H40.3906ZM51.4121 136.55H47.1699C47.1855 137.226 47.3633 137.747 47.7031 138.115C48.0469 138.478 48.5273 138.659 49.1445 138.659C49.4141 138.659 49.6836 138.62 49.9531 138.542C50.2266 138.46 50.4961 138.331 50.7617 138.156L51.207 138.841C50.8672 139.06 50.5273 139.22 50.1875 139.322C49.8477 139.423 49.4746 139.474 49.0684 139.474C48.1621 139.474 47.4551 139.204 46.9473 138.665C46.4395 138.126 46.1836 137.374 46.1797 136.409C46.1758 135.445 46.4297 134.667 46.9414 134.077C47.457 133.488 48.125 133.193 48.9453 133.193C49.7266 133.193 50.332 133.449 50.7617 133.96C51.1953 134.468 51.4121 135.173 51.4121 136.076V136.55ZM50.4277 135.765C50.4238 135.21 50.2891 134.779 50.0234 134.47C49.7578 134.158 49.3926 134.001 48.9277 134.001C48.4707 134.001 48.082 134.161 47.7617 134.482C47.4453 134.798 47.252 135.226 47.1816 135.765H50.4277ZM57.8516 139.333H56.8906V135.911C56.8906 135.275 56.7734 134.798 56.5391 134.482C56.3086 134.161 55.9609 134.001 55.4961 134.001C55.0156 134.001 54.6172 134.183 54.3008 134.546C53.9883 134.906 53.832 135.361 53.832 135.911V139.333H52.8711V133.333H53.832V134.329H53.8555C54.082 133.951 54.3594 133.667 54.6875 133.48C55.0156 133.288 55.3945 133.193 55.8242 133.193C56.4805 133.193 56.9824 133.406 57.3301 133.831C57.6777 134.253 57.8516 134.865 57.8516 135.665V139.333ZM63.8867 138.976C63.6094 139.148 63.332 139.273 63.0547 139.351C62.7773 139.433 62.4746 139.474 62.1465 139.474C61.3027 139.474 60.6094 139.212 60.0664 138.689C59.5273 138.165 59.2578 137.423 59.2578 136.462C59.2578 135.486 59.5293 134.697 60.0723 134.095C60.6191 133.493 61.3691 133.193 62.3223 133.193C62.6309 133.193 62.9238 133.23 63.2012 133.304C63.4824 133.378 63.7656 133.499 64.0508 133.667L63.6465 134.37C63.4238 134.245 63.2051 134.154 62.9902 134.095C62.7754 134.036 62.541 134.007 62.2871 134.007C61.627 134.007 61.1211 134.228 60.7695 134.669C60.418 135.111 60.2422 135.671 60.2422 136.351C60.2422 137.101 60.4258 137.673 60.793 138.068C61.1641 138.462 61.6426 138.659 62.2285 138.659C62.4199 138.659 62.6191 138.63 62.8262 138.572C63.0371 138.509 63.248 138.413 63.459 138.284L63.8867 138.976ZM68.1699 134.154C68.0957 134.13 68.0293 134.115 67.9707 134.107C67.9121 134.095 67.8379 134.089 67.748 134.089C67.2598 134.089 66.875 134.298 66.5938 134.716C66.3125 135.13 66.1719 135.65 66.1719 136.275V139.333H65.2109V133.333H66.1719V134.523H66.1953C66.332 134.101 66.541 133.781 66.8223 133.562C67.1035 133.339 67.4277 133.228 67.7949 133.228C67.916 133.228 68.0176 133.234 68.0996 133.245C68.1855 133.257 68.2617 133.275 68.3281 133.298L68.1699 134.154ZM74.1582 133.333L71.3281 140.476C71.1055 141.038 70.8262 141.458 70.4902 141.736C70.1543 142.017 69.7598 142.158 69.3066 142.158C69.1895 142.158 69.082 142.15 68.9844 142.134C68.8867 142.122 68.793 142.105 68.7031 142.081L68.8906 141.261C68.9609 141.284 69.0254 141.3 69.084 141.308C69.1465 141.32 69.207 141.326 69.2656 141.326C69.5234 141.326 69.7363 141.259 69.9043 141.126C70.0762 140.993 70.2129 140.806 70.3145 140.564L70.8359 139.322L68.4922 133.333H69.5586L71.1816 137.951C71.1895 137.978 71.2031 138.031 71.2227 138.109C71.2461 138.187 71.2734 138.286 71.3047 138.408H71.3398C71.3516 138.361 71.3652 138.3 71.3809 138.226C71.4004 138.152 71.4258 138.064 71.457 137.962L73.1621 133.333H74.1582ZM76.1797 138.466H76.1562V142.093H75.1953V133.333H76.1562V134.388H76.1797C76.418 133.99 76.709 133.691 77.0527 133.492C77.4004 133.292 77.8008 133.193 78.2539 133.193C79.0273 133.193 79.6309 133.462 80.0645 134.001C80.498 134.536 80.7148 135.255 80.7148 136.158C80.7148 137.161 80.4707 137.966 79.9824 138.572C79.4941 139.173 78.8262 139.474 77.9785 139.474C77.5918 139.474 77.248 139.39 76.9473 139.222C76.6465 139.054 76.3906 138.802 76.1797 138.466ZM76.1562 136.046V136.884C76.1562 137.38 76.3164 137.802 76.6367 138.15C76.9609 138.493 77.3711 138.665 77.8672 138.665C78.4492 138.665 78.9043 138.443 79.2324 137.997C79.5645 137.552 79.7305 136.933 79.7305 136.14C79.7305 135.472 79.5762 134.949 79.2676 134.57C78.959 134.191 78.541 134.001 78.0137 134.001C77.4551 134.001 77.0059 134.197 76.666 134.587C76.3262 134.974 76.1562 135.46 76.1562 136.046ZM85.1094 139.263C84.9453 139.329 84.7832 139.378 84.623 139.409C84.4668 139.445 84.2891 139.462 84.0898 139.462C83.6133 139.462 83.2383 139.324 82.9648 139.046C82.6953 138.765 82.5605 138.351 82.5605 137.804V134.154H81.5293V133.333H82.5605V131.868L83.5215 131.558V133.333H85.0332V134.154H83.5215V137.693C83.5215 138.036 83.582 138.284 83.7031 138.437C83.8281 138.589 84.0137 138.665 84.2598 138.665C84.377 138.665 84.4902 138.652 84.5996 138.624C84.709 138.597 84.8008 138.566 84.875 138.531L85.1094 139.263ZM86.8086 131.898C86.6133 131.898 86.4492 131.833 86.3164 131.704C86.1836 131.572 86.1172 131.409 86.1172 131.218C86.1172 131.027 86.1836 130.867 86.3164 130.738C86.4492 130.605 86.6133 130.538 86.8086 130.538C87.0039 130.538 87.168 130.605 87.3008 130.738C87.4336 130.867 87.5 131.027 87.5 131.218C87.5 131.409 87.4336 131.572 87.3008 131.704C87.168 131.833 87.0039 131.898 86.8086 131.898ZM87.2773 139.333H86.3164V133.333H87.2773V139.333ZM91.7305 139.474C90.8438 139.474 90.1348 139.195 89.6035 138.636C89.0762 138.074 88.8125 137.329 88.8125 136.404C88.8125 135.4 89.0859 134.615 89.6328 134.048C90.1797 133.482 90.9258 133.197 91.8711 133.193C92.7656 133.189 93.4629 133.464 93.9629 134.019C94.4668 134.574 94.7188 135.337 94.7188 136.31C94.7188 137.271 94.4473 138.038 93.9043 138.613C93.3652 139.187 92.6406 139.474 91.7305 139.474ZM91.8008 138.665C92.4219 138.665 92.8984 138.464 93.2305 138.062C93.5664 137.656 93.7344 137.083 93.7344 136.345C93.7344 135.591 93.5664 135.013 93.2305 134.611C92.8945 134.204 92.418 134.001 91.8008 134.001C91.1836 134.001 90.6953 134.212 90.3359 134.634C89.9766 135.056 89.7969 135.634 89.7969 136.368C89.7969 137.079 89.9785 137.64 90.3418 138.05C90.7051 138.46 91.1914 138.665 91.8008 138.665ZM101.234 139.333H100.273V135.911C100.273 135.275 100.156 134.798 99.9219 134.482C99.6914 134.161 99.3438 134.001 98.8789 134.001C98.3984 134.001 98 134.183 97.6836 134.546C97.3711 134.906 97.2148 135.361 97.2148 135.911V139.333H96.2539V133.333H97.2148V134.329H97.2383C97.4648 133.951 97.7422 133.667 98.0703 133.48C98.3984 133.288 98.7773 133.193 99.207 133.193C99.8633 133.193 100.365 133.406 100.713 133.831C101.061 134.253 101.234 134.865 101.234 135.665V139.333Z" fill="white"/>
<path d="M369 91.75V81.75C369 81.4635 369.052 81.2422 369.156 81.0859C369.26 80.9297 369.397 80.806 369.566 80.7148C369.736 80.6237 369.931 80.5651 370.152 80.5391C370.374 80.513 370.595 80.5 370.816 80.5H371.5C371.5 80.2005 371.493 79.8945 371.48 79.582C371.467 79.2695 371.461 78.9505 371.461 78.625C371.461 78.1823 371.487 77.7526 371.539 77.3359C371.591 76.9193 371.702 76.5026 371.871 76.0859C372.275 75.1354 372.887 74.3867 373.707 73.8398C374.527 73.293 375.458 73.013 376.5 73C377.19 73 377.835 73.1302 378.434 73.3906C379.033 73.651 379.566 74.0026 380.035 74.4453C380.504 74.888 380.862 75.4219 381.109 76.0469C381.357 76.6719 381.487 77.3229 381.5 78V80.5H382.125C382.346 80.5 382.568 80.513 382.789 80.5391C383.01 80.5651 383.212 80.6172 383.395 80.6953C383.577 80.7734 383.72 80.8971 383.824 81.0664C383.928 81.2357 383.987 81.4635 384 81.75V91.75C384 92.0885 383.876 92.3815 383.629 92.6289C383.382 92.8763 383.089 93 382.75 93H370.25C369.898 93 369.605 92.8828 369.371 92.6484C369.137 92.4141 369.013 92.1146 369 91.75ZM374 80.5H379V78C379 77.6484 378.935 77.3229 378.805 77.0234C378.674 76.724 378.499 76.4635 378.277 76.2422C378.056 76.0208 377.789 75.8385 377.477 75.6953C377.164 75.5521 376.839 75.487 376.5 75.5C376.148 75.5 375.823 75.5651 375.523 75.6953C375.224 75.8255 374.957 76.0013 374.723 76.2227C374.488 76.444 374.312 76.7044 374.195 77.0039C374.078 77.3034 374.013 77.6354 374 78V80.5ZM379 86.75C379 86.4115 378.935 86.0924 378.805 85.793C378.674 85.4935 378.499 85.2266 378.277 84.9922C378.056 84.7578 377.789 84.5755 377.477 84.4453C377.164 84.3151 376.839 84.25 376.5 84.25C376.148 84.25 375.823 84.3151 375.523 84.4453C375.224 84.5755 374.964 84.7513 374.742 84.9727C374.521 85.194 374.339 85.4609 374.195 85.7734C374.052 86.0859 373.987 86.4115 374 86.75C374 87.1016 374.065 87.4271 374.195 87.7266C374.326 88.026 374.501 88.293 374.723 88.5273C374.944 88.7617 375.204 88.9375 375.504 89.0547C375.803 89.1719 376.135 89.237 376.5 89.25C376.839 89.25 377.158 89.1849 377.457 89.0547C377.757 88.9245 378.023 88.7487 378.258 88.5273C378.492 88.306 378.674 88.0391 378.805 87.7266C378.935 87.4141 379 87.0885 379 86.75ZM404.098 85.5C404.749 85.5 405.367 85.6302 405.953 85.8906C406.539 86.151 407.06 86.5091 407.516 86.9648C407.971 87.4206 408.329 87.9414 408.59 88.5273C408.85 89.1133 408.987 89.7383 409 90.4023V95.5977C409 96.2487 408.87 96.8672 408.609 97.4531C408.349 98.0391 407.991 98.5599 407.535 99.0156C407.079 99.4714 406.559 99.8294 405.973 100.09C405.387 100.35 404.762 100.487 404.098 100.5H373.902C373.251 100.5 372.633 100.37 372.047 100.109C371.461 99.849 370.94 99.4909 370.484 99.0352C370.029 98.5794 369.671 98.0586 369.41 97.4727C369.15 96.8867 369.013 96.2617 369 95.5977V95.5H371.5C371.5 95.8516 371.565 96.1771 371.695 96.4766C371.826 96.776 372.001 97.043 372.223 97.2773C372.444 97.5117 372.704 97.6875 373.004 97.8047C373.303 97.9219 373.635 97.987 374 98H404C404.352 98 404.677 97.9349 404.977 97.8047C405.276 97.6745 405.536 97.4987 405.758 97.2773C405.979 97.056 406.161 96.7891 406.305 96.4766C406.448 96.1641 406.513 95.8385 406.5 95.5V90.5C406.5 90.1615 406.435 89.8424 406.305 89.543C406.174 89.2435 405.999 88.9766 405.777 88.7422C405.556 88.5078 405.289 88.3255 404.977 88.1953C404.664 88.0651 404.339 88 404 88H386.5V85.5H404.098ZM399.625 94.25C399.104 94.25 398.661 94.0677 398.297 93.7031C397.932 93.3385 397.75 92.8958 397.75 92.375C397.75 91.8542 397.932 91.4115 398.297 91.0469C398.661 90.6823 399.104 90.5 399.625 90.5C400.146 90.5 400.589 90.6823 400.953 91.0469C401.318 91.4115 401.5 91.8542 401.5 92.375C401.5 92.8958 401.318 93.3385 400.953 93.7031C400.589 94.0677 400.146 94.25 399.625 94.25Z" fill="#98ECFE"/>
<defs>
<filter id="filter0_d_24_200" x="0" y="-1" width="429.431" height="184" filterUnits="userSpaceOnUse" color-interpolation-filters="sRGB">
<feFlood flood-opacity="0" result="BackgroundImageFix"/>
<feColorMatrix in="SourceAlpha" type="matrix" values="0 0 0 0 0 0 0 0 0 0 0 0 0 0 0 0 0 0 127 0" result="hardAlpha"/>
<feOffset dx="-4"/>
<feComposite in2="hardAlpha" operator="out"/>
<feColorMatrix type="matrix" values="0 0 0 0 0.596078 0 0 0 0 0.92549 0 0 0 0 0.996078 0 0 0 1 0"/>
<feBlend mode="normal" in2="BackgroundImageFix" result="effect1_dropShadow_24_200"/>
<feBlend mode="normal" in="SourceGraphic" in2="effect1_dropShadow_24_200" result="shape"/>
</filter>
</defs>
</svg>
