<svg width="24" height="18" viewBox="0 0 24 18" fill="none" xmlns="http://www.w3.org/2000/svg">
<path d="M20.6704 10.0795C21.1098 10.5189 21.1098 11.2311 20.6704 11.6704L14.6704 17.6704C14.2311 18.1098 13.5189 18.1098 13.0795 17.6704L7.0795 11.6704C6.64017 11.2311 6.64017 10.5189 7.0795 10.0795C7.51884 9.6402 8.23116 9.6402 8.67049 10.0795L12.75 14.1589V4.5C12.75 3.25735 11.7426 2.25 10.5 2.25H1.125C0.503685 2.25 0 1.74631 0 1.125C0 0.503685 0.503685 0 1.125 0H10.5C12.9853 0 15 2.01472 15 4.5V14.1589L19.0795 10.0795C19.5189 9.6402 20.2311 9.6402 20.6704 10.0795Z" fill="#0883D9"/>
</svg>
