<svg width="649" height="135" viewBox="0 0 649 135" fill="none" xmlns="http://www.w3.org/2000/svg">
<g filter="url(#filter0_d_8_114)">
<path d="M4 15C4 6.71573 10.7157 0 19 0H633.742C642.026 0 648.742 6.71573 648.742 15V120C648.742 128.284 642.026 135 633.742 135H19C10.7157 135 4 128.284 4 120V15Z" fill="#162436" fill-opacity="0.8" shape-rendering="crispEdges"/>
</g>
<path d="M24.3828 33.875H22.5156V29.0156H17.2422V33.875H15.3828V22.6719H17.2422V27.3828H22.5156V22.6719H24.3828V33.875ZM33.0547 33.875H31.2969V32.6719H31.2656C30.9948 33.1354 30.6589 33.4844 30.2578 33.7188C29.8568 33.9479 29.3958 34.0625 28.875 34.0625C28.151 34.0625 27.5495 33.849 27.0703 33.4219C26.5911 32.9896 26.3516 32.401 26.3516 31.6562C26.3516 30.9479 26.5911 30.3672 27.0703 29.9141C27.5495 29.4557 28.2604 29.1589 29.2031 29.0234L31.3047 28.7422V28.5781C31.3047 28.0365 31.1641 27.6432 30.8828 27.3984C30.6016 27.1536 30.2214 27.0312 29.7422 27.0312C29.362 27.0312 28.974 27.099 28.5781 27.2344C28.1875 27.3698 27.8073 27.5807 27.4375 27.8672L26.6484 26.7812C27.138 26.4062 27.6432 26.1302 28.1641 25.9531C28.6849 25.776 29.2578 25.6875 29.8828 25.6875C30.9557 25.6875 31.7526 25.9531 32.2734 26.4844C32.7943 27.0104 33.0547 27.8021 33.0547 28.8594V33.875ZM31.3047 30.625V29.9453L29.5938 30.1719C29.0885 30.2448 28.7083 30.3828 28.4531 30.5859C28.2031 30.7839 28.0781 31.0755 28.0781 31.4609C28.0781 31.8516 28.1979 32.1562 28.4375 32.375C28.6771 32.5938 28.9844 32.7031 29.3594 32.7031C29.9479 32.7031 30.4193 32.5078 30.7734 32.1172C31.1276 31.7214 31.3047 31.224 31.3047 30.625ZM39.7578 27.3984C39.6589 27.3724 39.5625 27.3542 39.4688 27.3438C39.3802 27.3281 39.276 27.3203 39.1562 27.3203C38.5052 27.3203 38.0052 27.5599 37.6562 28.0391C37.3073 28.5182 37.1328 29.1432 37.1328 29.9141V33.875H35.3125V25.875H37.1328V27.4141H37.1641C37.3516 26.862 37.6276 26.4453 37.9922 26.1641C38.3568 25.8776 38.7865 25.7344 39.2812 25.7344C39.4219 25.7344 39.5469 25.7422 39.6562 25.7578C39.7708 25.7734 39.8802 25.7969 39.9844 25.8281L39.7578 27.3984ZM46.6562 32.6328C46.3698 33.112 46.0078 33.4714 45.5703 33.7109C45.1328 33.9453 44.6198 34.0625 44.0312 34.0625C43.0312 34.0625 42.2266 33.7083 41.6172 33C41.013 32.2865 40.7109 31.3073 40.7109 30.0625C40.7109 28.7396 41.0443 27.6797 41.7109 26.8828C42.3828 26.0859 43.2682 25.6875 44.3672 25.6875C44.9036 25.6875 45.362 25.7891 45.7422 25.9922C46.1224 26.1901 46.4271 26.4922 46.6562 26.8984H46.6875V22.0312H48.5078V33.875H46.6875V32.6328H46.6562ZM42.5625 29.9922C42.5625 30.8151 42.7474 31.4583 43.1172 31.9219C43.487 32.3854 43.9896 32.6172 44.625 32.6172C45.2448 32.6172 45.7474 32.3854 46.1328 31.9219C46.5182 31.4583 46.7109 30.862 46.7109 30.1328V29.2188C46.7109 28.625 46.526 28.1302 46.1562 27.7344C45.7865 27.3333 45.3125 27.1328 44.7344 27.1328C44.0573 27.1328 43.526 27.388 43.1406 27.8984C42.7552 28.4036 42.5625 29.1016 42.5625 29.9922ZM61.625 25.875L59.2734 33.875H57.375L55.9297 28.6094C55.888 28.4583 55.8594 28.3177 55.8438 28.1875C55.8281 28.0521 55.8151 27.9062 55.8047 27.75H55.7656C55.7552 27.9167 55.737 28.0651 55.7109 28.1953C55.6849 28.3203 55.651 28.4531 55.6094 28.5938L54.0547 33.875H52.1953L49.8438 25.875H51.7188L53.125 31.5312C53.151 31.6354 53.1745 31.7552 53.1953 31.8906C53.2161 32.0208 53.2318 32.1667 53.2422 32.3281H53.2969C53.3073 32.1823 53.3229 32.0417 53.3438 31.9062C53.3698 31.7708 53.401 31.638 53.4375 31.5078L55.0703 25.875H56.7734L58.2344 31.5391C58.2552 31.6224 58.2734 31.7318 58.2891 31.8672C58.3099 31.9974 58.3307 32.1562 58.3516 32.3438H58.4062C58.4167 32.2188 58.4323 32.0885 58.4531 31.9531C58.474 31.8177 58.5026 31.6797 58.5391 31.5391L59.8984 25.875H61.625ZM69.0859 33.875H67.3281V32.6719H67.2969C67.026 33.1354 66.6901 33.4844 66.2891 33.7188C65.888 33.9479 65.4271 34.0625 64.9062 34.0625C64.1823 34.0625 63.5807 33.849 63.1016 33.4219C62.6224 32.9896 62.3828 32.401 62.3828 31.6562C62.3828 30.9479 62.6224 30.3672 63.1016 29.9141C63.5807 29.4557 64.2917 29.1589 65.2344 29.0234L67.3359 28.7422V28.5781C67.3359 28.0365 67.1953 27.6432 66.9141 27.3984C66.6328 27.1536 66.2526 27.0312 65.7734 27.0312C65.3932 27.0312 65.0052 27.099 64.6094 27.2344C64.2188 27.3698 63.8385 27.5807 63.4688 27.8672L62.6797 26.7812C63.1693 26.4062 63.6745 26.1302 64.1953 25.9531C64.7161 25.776 65.2891 25.6875 65.9141 25.6875C66.987 25.6875 67.7839 25.9531 68.3047 26.4844C68.8255 27.0104 69.0859 27.8021 69.0859 28.8594V33.875ZM67.3359 30.625V29.9453L65.625 30.1719C65.1198 30.2448 64.7396 30.3828 64.4844 30.5859C64.2344 30.7839 64.1094 31.0755 64.1094 31.4609C64.1094 31.8516 64.2292 32.1562 64.4688 32.375C64.7083 32.5938 65.0156 32.7031 65.3906 32.7031C65.9792 32.7031 66.4505 32.5078 66.8047 32.1172C67.1589 31.7214 67.3359 31.224 67.3359 30.625ZM75.7891 27.3984C75.6901 27.3724 75.5938 27.3542 75.5 27.3438C75.4115 27.3281 75.3073 27.3203 75.1875 27.3203C74.5365 27.3203 74.0365 27.5599 73.6875 28.0391C73.3385 28.5182 73.1641 29.1432 73.1641 29.9141V33.875H71.3438V25.875H73.1641V27.4141H73.1953C73.3828 26.862 73.6589 26.4453 74.0234 26.1641C74.388 25.8776 74.8177 25.7344 75.3125 25.7344C75.4531 25.7344 75.5781 25.7422 75.6875 25.7578C75.8021 25.7734 75.9115 25.7969 76.0156 25.8281L75.7891 27.3984ZM84.0312 30.3516H78.5703C78.6016 31.1068 78.8203 31.6823 79.2266 32.0781C79.6328 32.4688 80.2005 32.6641 80.9297 32.6641C81.2266 32.6641 81.5651 32.6042 81.9453 32.4844C82.3255 32.3646 82.7005 32.1719 83.0703 31.9062L83.8906 33.0391C83.3958 33.3984 82.8932 33.6589 82.3828 33.8203C81.8724 33.9818 81.3099 34.0625 80.6953 34.0625C79.4505 34.0625 78.4818 33.7057 77.7891 32.9922C77.0964 32.2734 76.7474 31.2708 76.7422 29.9844C76.7422 28.7031 77.099 27.6667 77.8125 26.875C78.5312 26.0833 79.4505 25.6875 80.5703 25.6875C81.6432 25.6875 82.487 26.026 83.1016 26.7031C83.7214 27.375 84.0312 28.3281 84.0312 29.5625V30.3516ZM82.2734 29.0938C82.2734 28.4062 82.1224 27.8906 81.8203 27.5469C81.5234 27.1979 81.1016 27.0234 80.5547 27.0234C80.0391 27.0234 79.599 27.2109 79.2344 27.5859C78.875 27.9557 78.6536 28.4583 78.5703 29.0938H82.2734ZM94.6172 27.3984C94.5182 27.3724 94.4219 27.3542 94.3281 27.3438C94.2396 27.3281 94.1354 27.3203 94.0156 27.3203C93.3646 27.3203 92.8646 27.5599 92.5156 28.0391C92.1667 28.5182 91.9922 29.1432 91.9922 29.9141V33.875H90.1719V25.875H91.9922V27.4141H92.0234C92.2109 26.862 92.487 26.4453 92.8516 26.1641C93.2161 25.8776 93.6458 25.7344 94.1406 25.7344C94.2812 25.7344 94.4062 25.7422 94.5156 25.7578C94.6302 25.7734 94.7396 25.7969 94.8438 25.8281L94.6172 27.3984ZM99.6406 34.0625C98.3906 34.0625 97.3984 33.6901 96.6641 32.9453C95.9349 32.1953 95.5703 31.1927 95.5703 29.9375C95.5755 28.6094 95.9557 27.5703 96.7109 26.8203C97.4661 26.0651 98.4948 25.6875 99.7969 25.6875C101.052 25.6823 102.031 26.0521 102.734 26.7969C103.443 27.5365 103.797 28.5391 103.797 29.8047C103.797 31.1068 103.422 32.1432 102.672 32.9141C101.927 33.6797 100.917 34.0625 99.6406 34.0625ZM99.7266 32.6172C100.451 32.6172 101 32.3802 101.375 31.9062C101.755 31.4323 101.945 30.7474 101.945 29.8516C101.945 28.9661 101.755 28.2917 101.375 27.8281C100.995 27.3646 100.443 27.1328 99.7188 27.1328C99.0052 27.1328 98.4427 27.3776 98.0312 27.8672C97.625 28.3568 97.4219 29.0339 97.4219 29.8984C97.4219 30.7682 97.625 31.4401 98.0312 31.9141C98.4375 32.3828 99.0026 32.6172 99.7266 32.6172ZM109.203 34.0625C107.953 34.0625 106.961 33.6901 106.227 32.9453C105.497 32.1953 105.133 31.1927 105.133 29.9375C105.138 28.6094 105.518 27.5703 106.273 26.8203C107.029 26.0651 108.057 25.6875 109.359 25.6875C110.615 25.6823 111.594 26.0521 112.297 26.7969C113.005 27.5365 113.359 28.5391 113.359 29.8047C113.359 31.1068 112.984 32.1432 112.234 32.9141C111.49 33.6797 110.479 34.0625 109.203 34.0625ZM109.289 32.6172C110.013 32.6172 110.562 32.3802 110.938 31.9062C111.318 31.4323 111.508 30.7474 111.508 29.8516C111.508 28.9661 111.318 28.2917 110.938 27.8281C110.557 27.3646 110.005 27.1328 109.281 27.1328C108.568 27.1328 108.005 27.3776 107.594 27.8672C107.188 28.3568 106.984 29.0339 106.984 29.8984C106.984 30.7682 107.188 31.4401 107.594 31.9141C108 32.3828 108.565 32.6172 109.289 32.6172ZM119.57 33.7656C119.336 33.8646 119.091 33.9375 118.836 33.9844C118.581 34.0312 118.307 34.0547 118.016 34.0547C117.276 34.0547 116.706 33.8594 116.305 33.4688C115.909 33.0729 115.711 32.4844 115.711 31.7031V27.2969H114.367V25.875H115.711V23.9297L117.523 23.3828V25.875H119.438V27.2969H117.523V31.5547C117.523 31.9453 117.594 32.2266 117.734 32.3984C117.88 32.5703 118.104 32.6562 118.406 32.6562C118.552 32.6562 118.69 32.6406 118.82 32.6094C118.956 32.5729 119.076 32.5286 119.18 32.4766L119.57 33.7656ZM120.938 30.1719V28.8359H125.203V30.1719H120.938ZM130.984 34.0625C129.734 34.0625 128.742 33.6901 128.008 32.9453C127.279 32.1953 126.914 31.1927 126.914 29.9375C126.919 28.6094 127.299 27.5703 128.055 26.8203C128.81 26.0651 129.839 25.6875 131.141 25.6875C132.396 25.6823 133.375 26.0521 134.078 26.7969C134.786 27.5365 135.141 28.5391 135.141 29.8047C135.141 31.1068 134.766 32.1432 134.016 32.9141C133.271 33.6797 132.26 34.0625 130.984 34.0625ZM131.07 32.6172C131.794 32.6172 132.344 32.3802 132.719 31.9062C133.099 31.4323 133.289 30.7474 133.289 29.8516C133.289 28.9661 133.099 28.2917 132.719 27.8281C132.339 27.3646 131.786 27.1328 131.062 27.1328C130.349 27.1328 129.786 27.3776 129.375 27.8672C128.969 28.3568 128.766 29.0339 128.766 29.8984C128.766 30.7682 128.969 31.4401 129.375 31.9141C129.781 32.3828 130.346 32.6172 131.07 32.6172ZM141.32 23.4609C141.174 23.4036 141.042 23.3646 140.922 23.3438C140.802 23.3177 140.672 23.3047 140.531 23.3047C140.146 23.3047 139.854 23.4167 139.656 23.6406C139.464 23.8594 139.367 24.1771 139.367 24.5938V25.875H141.219V27.2969H139.367V33.875H137.555V27.2969H136.195V25.875H137.555V24.5C137.555 23.6875 137.815 23.0443 138.336 22.5703C138.862 22.0911 139.557 21.8516 140.422 21.8516C140.693 21.8516 140.927 21.8698 141.125 21.9062C141.323 21.9427 141.529 21.9948 141.742 22.0625L141.32 23.4609ZM142.453 30.1719V28.8359H146.719V30.1719H142.453ZM153.305 33.7656C153.07 33.8646 152.826 33.9375 152.57 33.9844C152.315 34.0312 152.042 34.0547 151.75 34.0547C151.01 34.0547 150.44 33.8594 150.039 33.4688C149.643 33.0729 149.445 32.4844 149.445 31.7031V27.2969H148.102V25.875H149.445V23.9297L151.258 23.3828V25.875H153.172V27.2969H151.258V31.5547C151.258 31.9453 151.328 32.2266 151.469 32.3984C151.615 32.5703 151.839 32.6562 152.141 32.6562C152.286 32.6562 152.424 32.6406 152.555 32.6094C152.69 32.5729 152.81 32.5286 152.914 32.4766L153.305 33.7656ZM159.18 27.3984C159.081 27.3724 158.984 27.3542 158.891 27.3438C158.802 27.3281 158.698 27.3203 158.578 27.3203C157.927 27.3203 157.427 27.5599 157.078 28.0391C156.729 28.5182 156.555 29.1432 156.555 29.9141V33.875H154.734V25.875H156.555V27.4141H156.586C156.773 26.862 157.049 26.4453 157.414 26.1641C157.779 25.8776 158.208 25.7344 158.703 25.7344C158.844 25.7344 158.969 25.7422 159.078 25.7578C159.193 25.7734 159.302 25.7969 159.406 25.8281L159.18 27.3984ZM167.695 33.875H165.875V32.6328H165.844C165.562 33.1068 165.216 33.4635 164.805 33.7031C164.393 33.9427 163.919 34.0625 163.383 34.0625C162.445 34.0625 161.74 33.7812 161.266 33.2188C160.797 32.6562 160.562 31.8099 160.562 30.6797V25.875H162.367V30.4688C162.367 31.1875 162.505 31.7266 162.781 32.0859C163.062 32.4401 163.482 32.6172 164.039 32.6172C164.581 32.6172 165.021 32.4219 165.359 32.0312C165.703 31.6406 165.875 31.1198 165.875 30.4688V25.875H167.695V33.875ZM169.281 33.2344L170.07 31.9531C170.383 32.1719 170.714 32.349 171.062 32.4844C171.417 32.6146 171.799 32.6797 172.211 32.6797C172.659 32.6797 173.005 32.599 173.25 32.4375C173.5 32.2708 173.625 32.0234 173.625 31.6953C173.625 31.4349 173.521 31.2188 173.312 31.0469C173.109 30.8698 172.76 30.724 172.266 30.6094C171.266 30.375 170.562 30.0651 170.156 29.6797C169.755 29.2943 169.555 28.7865 169.555 28.1562C169.555 27.4323 169.836 26.8411 170.398 26.3828C170.961 25.9193 171.698 25.6875 172.609 25.6875C173.062 25.6875 173.495 25.7474 173.906 25.8672C174.318 25.9818 174.719 26.1667 175.109 26.4219L174.375 27.6719C174.031 27.4531 173.716 27.2969 173.43 27.2031C173.143 27.1094 172.849 27.0625 172.547 27.0625C172.12 27.0625 171.786 27.1432 171.547 27.3047C171.312 27.4609 171.195 27.6797 171.195 27.9609C171.195 28.2578 171.315 28.4792 171.555 28.625C171.799 28.7656 172.208 28.9036 172.781 29.0391C173.646 29.2474 174.279 29.5495 174.68 29.9453C175.081 30.3359 175.281 30.8594 175.281 31.5156C175.281 32.2917 174.997 32.9115 174.43 33.375C173.867 33.8333 173.104 34.0625 172.141 34.0625C171.62 34.0625 171.12 33.9948 170.641 33.8594C170.167 33.7188 169.714 33.5104 169.281 33.2344ZM181.32 33.7656C181.086 33.8646 180.841 33.9375 180.586 33.9844C180.331 34.0312 180.057 34.0547 179.766 34.0547C179.026 34.0547 178.456 33.8594 178.055 33.4688C177.659 33.0729 177.461 32.4844 177.461 31.7031V27.2969H176.117V25.875H177.461V23.9297L179.273 23.3828V25.875H181.188V27.2969H179.273V31.5547C179.273 31.9453 179.344 32.2266 179.484 32.3984C179.63 32.5703 179.854 32.6562 180.156 32.6562C180.302 32.6562 180.44 32.6406 180.57 32.6094C180.706 32.5729 180.826 32.5286 180.93 32.4766L181.32 33.7656Z" fill="#98ECFE"/>
<path d="M20.0586 44.3633H17.6328V51.875H16.6484V44.3633H14.2285V43.4727H20.0586V44.3633ZM23.1816 46.6953C23.1074 46.6719 23.041 46.6562 22.9824 46.6484C22.9238 46.6367 22.8496 46.6309 22.7598 46.6309C22.2715 46.6309 21.8867 46.8398 21.6055 47.2578C21.3242 47.6719 21.1836 48.1914 21.1836 48.8164V51.875H20.2227V45.875H21.1836V47.0645H21.207C21.3438 46.6426 21.5527 46.3223 21.834 46.1035C22.1152 45.8809 22.4395 45.7695 22.8066 45.7695C22.9277 45.7695 23.0293 45.7754 23.1113 45.7871C23.1973 45.7988 23.2734 45.8164 23.3398 45.8398L23.1816 46.6953ZM29.2461 51.875H28.2852V50.9258H28.2617C28.0625 51.2891 27.8086 51.5625 27.5 51.7461C27.1914 51.9258 26.8281 52.0156 26.4102 52.0156C25.6953 52.0156 25.1582 51.8027 24.7988 51.377C24.4434 50.9512 24.2656 50.3125 24.2656 49.4609V45.875H25.2207V49.3086C25.2207 49.9414 25.3418 50.416 25.584 50.7324C25.8262 51.0488 26.1895 51.207 26.6738 51.207C27.1426 51.207 27.5273 51.0352 27.8281 50.6914C28.1328 50.3438 28.2852 49.8906 28.2852 49.332V45.875H29.2461V51.875ZM30.6289 51.4238L31.0859 50.6855C31.3477 50.8574 31.6035 50.9883 31.8535 51.0781C32.1035 51.1641 32.373 51.207 32.6621 51.207C33.0723 51.207 33.3828 51.1309 33.5938 50.9785C33.8086 50.8262 33.916 50.5977 33.916 50.293C33.916 50.0469 33.8203 49.8398 33.6289 49.6719C33.4414 49.5 33.1465 49.3633 32.7441 49.2617C31.9941 49.0703 31.4805 48.8301 31.2031 48.541C30.9258 48.248 30.7871 47.8887 30.7871 47.4629C30.7871 46.9707 30.9727 46.5605 31.3438 46.2324C31.7148 45.9004 32.2324 45.7344 32.8965 45.7344C33.2168 45.7344 33.5215 45.7754 33.8105 45.8574C34.0996 45.9395 34.3945 46.0801 34.6953 46.2793L34.2676 47.0059C33.9941 46.834 33.748 46.7148 33.5293 46.6484C33.3145 46.5781 33.0957 46.543 32.873 46.543C32.4863 46.543 32.1914 46.6152 31.9883 46.7598C31.7852 46.9004 31.6836 47.1055 31.6836 47.375C31.6836 47.6445 31.7871 47.8477 31.9941 47.9844C32.2051 48.1211 32.543 48.25 33.0078 48.3711C33.6172 48.5352 34.0723 48.7656 34.373 49.0625C34.6777 49.3555 34.8301 49.7402 34.8301 50.2168C34.8301 50.7715 34.6328 51.2109 34.2383 51.5352C33.8477 51.8555 33.3105 52.0156 32.627 52.0156C32.2598 52.0156 31.9062 51.9648 31.5664 51.8633C31.2305 51.7617 30.918 51.6152 30.6289 51.4238ZM39.1484 51.8047C38.9844 51.8711 38.8223 51.9199 38.6621 51.9512C38.5059 51.9863 38.3281 52.0039 38.1289 52.0039C37.6523 52.0039 37.2773 51.8652 37.0039 51.5879C36.7344 51.3066 36.5996 50.8926 36.5996 50.3457V46.6953H35.5684V45.875H36.5996V44.4102L37.5605 44.0996V45.875H39.0723V46.6953H37.5605V50.2344C37.5605 50.5781 37.6211 50.8262 37.7422 50.9785C37.8672 51.1309 38.0527 51.207 38.2988 51.207C38.416 51.207 38.5293 51.1934 38.6387 51.166C38.748 51.1387 38.8398 51.1074 38.9141 51.0723L39.1484 51.8047ZM45.1777 49.0918H40.9355C40.9512 49.7676 41.1289 50.2891 41.4688 50.6562C41.8125 51.0195 42.293 51.2012 42.9102 51.2012C43.1797 51.2012 43.4492 51.1621 43.7188 51.084C43.9922 51.002 44.2617 50.873 44.5273 50.6973L44.9727 51.3828C44.6328 51.6016 44.293 51.7617 43.9531 51.8633C43.6133 51.9648 43.2402 52.0156 42.834 52.0156C41.9277 52.0156 41.2207 51.7461 40.7129 51.207C40.2051 50.668 39.9492 49.916 39.9453 48.9512C39.9414 47.9863 40.1953 47.209 40.707 46.6191C41.2227 46.0293 41.8906 45.7344 42.7109 45.7344C43.4922 45.7344 44.0977 45.9902 44.5273 46.502C44.9609 47.0098 45.1777 47.7148 45.1777 48.6172V49.0918ZM44.1934 48.3066C44.1895 47.752 44.0547 47.3203 43.7891 47.0117C43.5234 46.6992 43.1582 46.543 42.6934 46.543C42.2363 46.543 41.8477 46.7031 41.5273 47.0234C41.2109 47.3398 41.0176 47.7676 40.9473 48.3066H44.1934ZM50.7734 50.8555C50.5508 51.2422 50.2676 51.5332 49.9238 51.7285C49.584 51.9199 49.1797 52.0156 48.7109 52.0156C47.957 52.0156 47.3535 51.748 46.9004 51.2129C46.4512 50.6738 46.2266 49.9414 46.2266 49.0156C46.2266 48.0234 46.4766 47.2285 46.9766 46.6309C47.4766 46.0332 48.1426 45.7344 48.9746 45.7344C49.3887 45.7344 49.7441 45.8164 50.041 45.9805C50.3418 46.1406 50.5859 46.3828 50.7734 46.707H50.7969V42.9922H51.7578V51.875H50.7969V50.8555H50.7734ZM47.2109 48.9688C47.2109 49.6602 47.3711 50.207 47.6914 50.6094C48.0156 51.0078 48.4492 51.207 48.9922 51.207C49.5312 51.207 49.9668 51.0137 50.2988 50.627C50.6309 50.2402 50.7969 49.752 50.7969 49.1621V48.2773C50.7969 47.793 50.6348 47.3828 50.3105 47.0469C49.9902 46.7109 49.5859 46.543 49.0977 46.543C48.5117 46.543 48.0508 46.7578 47.7148 47.1875C47.3789 47.6172 47.2109 48.2109 47.2109 48.9688ZM58.1094 48.793V51.875H57.125V43.4727H59.4336C60.332 43.4727 61.0273 43.6953 61.5195 44.1406C62.0156 44.5859 62.2637 45.2148 62.2637 46.0273C62.2637 46.8359 61.9883 47.5 61.4375 48.0195C60.8906 48.5352 60.1504 48.793 59.2168 48.793H58.1094ZM58.1094 44.3633V47.9023H59.1406C59.8203 47.9023 60.3379 47.7441 60.6934 47.4277C61.0527 47.1074 61.2324 46.6562 61.2324 46.0742C61.2324 45.5039 61.0684 45.0762 60.7402 44.791C60.4121 44.5059 59.9199 44.3633 59.2637 44.3633H58.1094ZM63.7227 51.875V42.9922H64.6836V51.875H63.7227ZM70.877 51.875H69.916V50.9375H69.8926C69.6855 51.2969 69.4297 51.5664 69.125 51.7461C68.8242 51.9258 68.4727 52.0156 68.0703 52.0156C67.5078 52.0156 67.0527 51.8516 66.7051 51.5234C66.3574 51.1953 66.1836 50.7598 66.1836 50.2168C66.1836 49.7051 66.3594 49.2812 66.7109 48.9453C67.0625 48.6094 67.5605 48.3945 68.2051 48.3008L69.916 48.0723V47.9375C69.916 47.4336 69.7988 47.0762 69.5645 46.8652C69.3301 46.6504 69.0176 46.543 68.627 46.543C68.3145 46.543 68.0137 46.6016 67.7246 46.7188C67.4355 46.8359 67.1641 47.0156 66.9102 47.2578L66.3477 46.6777C66.6836 46.3535 67.041 46.1152 67.4199 45.9629C67.7988 45.8105 68.2207 45.7344 68.6855 45.7344C69.4121 45.7344 69.959 45.9219 70.3262 46.2969C70.6934 46.668 70.877 47.2266 70.877 47.9727V51.875ZM69.916 49.4375V48.8398L68.4688 49.0391C68.0273 49.1016 67.6953 49.2129 67.4727 49.373C67.25 49.5332 67.1387 49.7852 67.1387 50.1289C67.1387 50.4883 67.2422 50.7637 67.4492 50.9551C67.6602 51.1426 67.916 51.2363 68.2168 51.2363C68.7363 51.2363 69.1484 51.0664 69.4531 50.7266C69.7617 50.3867 69.916 49.957 69.916 49.4375ZM75.5938 51.8047C75.4297 51.8711 75.2676 51.9199 75.1074 51.9512C74.9512 51.9863 74.7734 52.0039 74.5742 52.0039C74.0977 52.0039 73.7227 51.8652 73.4492 51.5879C73.1797 51.3066 73.0449 50.8926 73.0449 50.3457V46.6953H72.0137V45.875H73.0449V44.4102L74.0059 44.0996V45.875H75.5176V46.6953H74.0059V50.2344C74.0059 50.5781 74.0664 50.8262 74.1875 50.9785C74.3125 51.1309 74.498 51.207 74.7441 51.207C74.8613 51.207 74.9746 51.1934 75.084 51.166C75.1934 51.1387 75.2852 51.1074 75.3594 51.0723L75.5938 51.8047ZM79.666 43.7773C79.5566 43.7422 79.457 43.7168 79.3672 43.7012C79.2812 43.6855 79.1895 43.6777 79.0918 43.6777C78.7637 43.6777 78.5195 43.7656 78.3594 43.9414C78.1992 44.1172 78.1191 44.375 78.1191 44.7148V45.875H79.5254V46.6953H78.1191V51.875H77.1641V46.6953H76.1387V45.875H77.1641V44.668C77.1641 44.1016 77.3379 43.6602 77.6855 43.3438C78.0332 43.0234 78.5098 42.8633 79.1152 42.8633C79.2637 42.8633 79.3984 42.875 79.5195 42.8984C79.6406 42.918 79.7656 42.9492 79.8945 42.9922L79.666 43.7773ZM83.0703 52.0156C82.1836 52.0156 81.4746 51.7363 80.9434 51.1777C80.416 50.6152 80.1523 49.8711 80.1523 48.9453C80.1523 47.9414 80.4258 47.1562 80.9727 46.5898C81.5195 46.0234 82.2656 45.7383 83.2109 45.7344C84.1055 45.7305 84.8027 46.0059 85.3027 46.5605C85.8066 47.1152 86.0586 47.8789 86.0586 48.8516C86.0586 49.8125 85.7871 50.5801 85.2441 51.1543C84.7051 51.7285 83.9805 52.0156 83.0703 52.0156ZM83.1406 51.207C83.7617 51.207 84.2383 51.0059 84.5703 50.6035C84.9062 50.1973 85.0742 49.625 85.0742 48.8867C85.0742 48.1328 84.9062 47.5547 84.5703 47.1523C84.2344 46.7461 83.7578 46.543 83.1406 46.543C82.5234 46.543 82.0352 46.7539 81.6758 47.1758C81.3164 47.5977 81.1367 48.1758 81.1367 48.9102C81.1367 49.6211 81.3184 50.1816 81.6816 50.5918C82.0449 51.002 82.5312 51.207 83.1406 51.207ZM90.5527 46.6953C90.4785 46.6719 90.4121 46.6562 90.3535 46.6484C90.2949 46.6367 90.2207 46.6309 90.1309 46.6309C89.6426 46.6309 89.2578 46.8398 88.9766 47.2578C88.6953 47.6719 88.5547 48.1914 88.5547 48.8164V51.875H87.5938V45.875H88.5547V47.0645H88.5781C88.7148 46.6426 88.9238 46.3223 89.2051 46.1035C89.4863 45.8809 89.8105 45.7695 90.1777 45.7695C90.2988 45.7695 90.4004 45.7754 90.4824 45.7871C90.5684 45.7988 90.6445 45.8164 90.7109 45.8398L90.5527 46.6953ZM100.285 51.875H99.3242V48.4297C99.3242 47.7656 99.2207 47.2852 99.0137 46.9883C98.8105 46.6914 98.4668 46.543 97.9824 46.543C97.5723 46.543 97.2227 46.7305 96.9336 47.1055C96.6484 47.4805 96.5059 47.9297 96.5059 48.4531V51.875H95.5449V48.3125C95.5449 47.7227 95.4316 47.2812 95.2051 46.9883C94.9785 46.6914 94.6367 46.543 94.1797 46.543C93.7578 46.543 93.4102 46.7207 93.1367 47.0762C92.8633 47.4277 92.7266 47.8867 92.7266 48.4531V51.875H91.7656V45.875H92.7266V46.8242H92.75C92.9648 46.4609 93.2266 46.1895 93.5352 46.0098C93.8477 45.8262 94.207 45.7344 94.6133 45.7344C95.0234 45.7344 95.3809 45.8496 95.6855 46.0801C95.9902 46.3066 96.1992 46.6055 96.3125 46.9766C96.5352 46.5625 96.8125 46.252 97.1445 46.0449C97.4766 45.8379 97.8633 45.7344 98.3047 45.7344C98.9648 45.7344 99.459 45.9375 99.7871 46.3438C100.119 46.75 100.285 47.3613 100.285 48.1777V51.875ZM114.09 51.875H113.111V46.2383C113.111 46.0156 113.117 45.7676 113.129 45.4941C113.145 45.2207 113.166 44.9238 113.193 44.6035H113.17C113.123 44.791 113.078 44.9531 113.035 45.0898C112.996 45.2266 112.957 45.3359 112.918 45.418L110.047 51.875H109.566L106.701 45.4648C106.662 45.3711 106.621 45.252 106.578 45.1074C106.535 44.9629 106.492 44.7949 106.449 44.6035H106.426C106.441 44.7715 106.453 44.9922 106.461 45.2656C106.469 45.5391 106.473 45.8672 106.473 46.25V51.875H105.523V43.4727H106.824L109.402 49.332C109.504 49.5547 109.586 49.75 109.648 49.918C109.715 50.0859 109.762 50.2266 109.789 50.3398H109.824C109.91 50.1094 109.986 49.9082 110.053 49.7363C110.119 49.5645 110.178 49.4219 110.229 49.3086L112.859 43.4727H114.09V51.875ZM118.684 52.0156C117.797 52.0156 117.088 51.7363 116.557 51.1777C116.029 50.6152 115.766 49.8711 115.766 48.9453C115.766 47.9414 116.039 47.1562 116.586 46.5898C117.133 46.0234 117.879 45.7383 118.824 45.7344C119.719 45.7305 120.416 46.0059 120.916 46.5605C121.42 47.1152 121.672 47.8789 121.672 48.8516C121.672 49.8125 121.4 50.5801 120.857 51.1543C120.318 51.7285 119.594 52.0156 118.684 52.0156ZM118.754 51.207C119.375 51.207 119.852 51.0059 120.184 50.6035C120.52 50.1973 120.688 49.625 120.688 48.8867C120.688 48.1328 120.52 47.5547 120.184 47.1523C119.848 46.7461 119.371 46.543 118.754 46.543C118.137 46.543 117.648 46.7539 117.289 47.1758C116.93 47.5977 116.75 48.1758 116.75 48.9102C116.75 49.6211 116.932 50.1816 117.295 50.5918C117.658 51.002 118.145 51.207 118.754 51.207ZM127.344 50.8555C127.121 51.2422 126.838 51.5332 126.494 51.7285C126.154 51.9199 125.75 52.0156 125.281 52.0156C124.527 52.0156 123.924 51.748 123.471 51.2129C123.021 50.6738 122.797 49.9414 122.797 49.0156C122.797 48.0234 123.047 47.2285 123.547 46.6309C124.047 46.0332 124.713 45.7344 125.545 45.7344C125.959 45.7344 126.314 45.8164 126.611 45.9805C126.912 46.1406 127.156 46.3828 127.344 46.707H127.367V42.9922H128.328V51.875H127.367V50.8555H127.344ZM123.781 48.9688C123.781 49.6602 123.941 50.207 124.262 50.6094C124.586 51.0078 125.02 51.207 125.562 51.207C126.102 51.207 126.537 51.0137 126.869 50.627C127.201 50.2402 127.367 49.752 127.367 49.1621V48.2773C127.367 47.793 127.205 47.3828 126.881 47.0469C126.561 46.7109 126.156 46.543 125.668 46.543C125.082 46.543 124.621 46.7578 124.285 47.1875C123.949 47.6172 123.781 48.2109 123.781 48.9688ZM135.125 51.875H134.164V50.9258H134.141C133.941 51.2891 133.688 51.5625 133.379 51.7461C133.07 51.9258 132.707 52.0156 132.289 52.0156C131.574 52.0156 131.037 51.8027 130.678 51.377C130.322 50.9512 130.145 50.3125 130.145 49.4609V45.875H131.1V49.3086C131.1 49.9414 131.221 50.416 131.463 50.7324C131.705 51.0488 132.068 51.207 132.553 51.207C133.021 51.207 133.406 51.0352 133.707 50.6914C134.012 50.3438 134.164 49.8906 134.164 49.332V45.875H135.125V51.875ZM137.07 51.875V42.9922H138.031V51.875H137.07ZM144.799 49.0918H140.557C140.572 49.7676 140.75 50.2891 141.09 50.6562C141.434 51.0195 141.914 51.2012 142.531 51.2012C142.801 51.2012 143.07 51.1621 143.34 51.084C143.613 51.002 143.883 50.873 144.148 50.6973L144.594 51.3828C144.254 51.6016 143.914 51.7617 143.574 51.8633C143.234 51.9648 142.861 52.0156 142.455 52.0156C141.549 52.0156 140.842 51.7461 140.334 51.207C139.826 50.668 139.57 49.916 139.566 48.9512C139.562 47.9863 139.816 47.209 140.328 46.6191C140.844 46.0293 141.512 45.7344 142.332 45.7344C143.113 45.7344 143.719 45.9902 144.148 46.502C144.582 47.0098 144.799 47.7148 144.799 48.6172V49.0918ZM143.814 48.3066C143.811 47.752 143.676 47.3203 143.41 47.0117C143.145 46.6992 142.779 46.543 142.314 46.543C141.857 46.543 141.469 46.7031 141.148 47.0234C140.832 47.3398 140.639 47.7676 140.568 48.3066H143.814ZM152.07 53.7852H151.215C150.609 53.0938 150.154 52.3223 149.85 51.4707C149.549 50.6152 149.398 49.6816 149.398 48.6699C149.398 47.6504 149.549 46.709 149.85 45.8457C150.154 44.9785 150.609 44.1875 151.215 43.4727H152.082C151.469 44.2148 151.008 45.0176 150.699 45.8809C150.395 46.7441 150.242 47.6699 150.242 48.6582C150.242 49.6348 150.395 50.5508 150.699 51.4062C151.004 52.2617 151.461 53.0547 152.07 53.7852ZM158.258 44.3633H155.832V51.875H154.848V44.3633H152.428V43.4727H158.258V44.3633ZM160.578 48.793V51.875H159.594V43.4727H161.902C162.801 43.4727 163.496 43.6953 163.988 44.1406C164.484 44.5859 164.732 45.2148 164.732 46.0273C164.732 46.8359 164.457 47.5 163.906 48.0195C163.359 48.5352 162.619 48.793 161.686 48.793H160.578ZM160.578 44.3633V47.9023H161.609C162.289 47.9023 162.807 47.7441 163.162 47.4277C163.521 47.1074 163.701 46.6562 163.701 46.0742C163.701 45.5039 163.537 45.0762 163.209 44.791C162.881 44.5059 162.389 44.3633 161.732 44.3633H160.578ZM174.887 51.875H173.908V46.2383C173.908 46.0156 173.914 45.7676 173.926 45.4941C173.941 45.2207 173.963 44.9238 173.99 44.6035H173.967C173.92 44.791 173.875 44.9531 173.832 45.0898C173.793 45.2266 173.754 45.3359 173.715 45.418L170.844 51.875H170.363L167.498 45.4648C167.459 45.3711 167.418 45.252 167.375 45.1074C167.332 44.9629 167.289 44.7949 167.246 44.6035H167.223C167.238 44.7715 167.25 44.9922 167.258 45.2656C167.266 45.5391 167.27 45.8672 167.27 46.25V51.875H166.32V43.4727H167.621L170.199 49.332C170.301 49.5547 170.383 49.75 170.445 49.918C170.512 50.0859 170.559 50.2266 170.586 50.3398H170.621C170.707 50.1094 170.783 49.9082 170.85 49.7363C170.916 49.5645 170.975 49.4219 171.025 49.3086L173.656 43.4727H174.887V51.875ZM176.996 53.7852H176.141C176.75 53.0547 177.207 52.2617 177.512 51.4062C177.816 50.5508 177.969 49.6348 177.969 48.6582C177.969 47.6699 177.814 46.7441 177.506 45.8809C177.201 45.0176 176.742 44.2148 176.129 43.4727H176.996C177.605 44.1875 178.062 44.9785 178.367 45.8457C178.672 46.709 178.824 47.6504 178.824 48.6699C178.824 49.6816 178.672 50.6152 178.367 51.4707C178.062 52.3223 177.605 53.0938 176.996 53.7852ZM183.641 51.875V51.459C183.641 51.0996 183.68 50.7832 183.758 50.5098C183.836 50.2363 183.965 49.9766 184.145 49.7305C184.324 49.4844 184.559 49.2383 184.848 48.9922C185.141 48.7461 185.498 48.4688 185.92 48.1602C186.225 47.9414 186.479 47.7324 186.682 47.5332C186.889 47.334 187.055 47.1348 187.18 46.9355C187.289 46.7715 187.373 46.582 187.432 46.3672C187.494 46.1523 187.525 45.9316 187.525 45.7051C187.525 45.2441 187.393 44.8691 187.127 44.5801C186.861 44.291 186.496 44.1465 186.031 44.1465C185.656 44.1465 185.303 44.2168 184.971 44.3574C184.643 44.498 184.336 44.7148 184.051 45.0078L183.465 44.4453C183.832 44.0664 184.229 43.7871 184.654 43.6074C185.08 43.4238 185.557 43.332 186.084 43.332C186.873 43.332 187.473 43.5625 187.883 44.0234C188.297 44.4844 188.504 45.0176 188.504 45.623C188.504 45.9316 188.461 46.2305 188.375 46.5195C188.293 46.8047 188.176 47.0586 188.023 47.2812C187.867 47.5234 187.676 47.7559 187.449 47.9785C187.223 48.2012 186.953 48.4277 186.641 48.6582C186.246 48.9316 185.92 49.166 185.662 49.3613C185.408 49.5566 185.207 49.7383 185.059 49.9062C184.906 50.0781 184.799 50.25 184.736 50.4219C184.674 50.5938 184.643 50.791 184.643 51.0137H188.826V51.875H183.641ZM190.684 52.0039C190.496 52.0039 190.336 51.9395 190.203 51.8105C190.07 51.6777 190.004 51.5195 190.004 51.3359C190.004 51.1562 190.07 51 190.203 50.8672C190.336 50.7344 190.496 50.668 190.684 50.668C190.871 50.668 191.031 50.7344 191.164 50.8672C191.297 51 191.363 51.1562 191.363 51.3359C191.363 51.5195 191.297 51.6777 191.164 51.8105C191.031 51.9395 190.871 52.0039 190.684 52.0039ZM195.137 52.0215C194.293 52.0215 193.639 51.6602 193.174 50.9375C192.713 50.2109 192.482 49.1797 192.482 47.8438C192.482 46.3789 192.725 45.2617 193.209 44.4922C193.693 43.7188 194.395 43.332 195.312 43.332C196.195 43.332 196.855 43.6914 197.293 44.4102C197.734 45.125 197.955 46.2012 197.955 47.6387C197.955 49.0527 197.707 50.1367 197.211 50.8906C196.715 51.6445 196.023 52.0215 195.137 52.0215ZM195.266 44.1465C194.668 44.1465 194.219 44.4512 193.918 45.0605C193.617 45.666 193.467 46.5781 193.467 47.7969C193.467 48.9297 193.613 49.7812 193.906 50.3516C194.199 50.918 194.641 51.2012 195.23 51.2012C195.812 51.2012 196.248 50.9121 196.537 50.334C196.826 49.7559 196.971 48.8887 196.971 47.7324C196.971 46.5371 196.828 45.6406 196.543 45.043C196.258 44.4453 195.832 44.1465 195.266 44.1465ZM23.668 69.875H22.6895V64.2383C22.6895 64.0156 22.6953 63.7676 22.707 63.4941C22.7227 63.2207 22.7441 62.9238 22.7715 62.6035H22.748C22.7012 62.791 22.6562 62.9531 22.6133 63.0898C22.5742 63.2266 22.5352 63.3359 22.4961 63.418L19.625 69.875H19.1445L16.2793 63.4648C16.2402 63.3711 16.1992 63.252 16.1562 63.1074C16.1133 62.9629 16.0703 62.7949 16.0273 62.6035H16.0039C16.0195 62.7715 16.0312 62.9922 16.0391 63.2656C16.0469 63.5391 16.0508 63.8672 16.0508 64.25V69.875H15.1016V61.4727H16.4023L18.9805 67.332C19.082 67.5547 19.1641 67.75 19.2266 67.918C19.293 68.0859 19.3398 68.2266 19.3672 68.3398H19.4023C19.4883 68.1094 19.5645 67.9082 19.6309 67.7363C19.6973 67.5645 19.7559 67.4219 19.8066 67.3086L22.4375 61.4727H23.668V69.875ZM26.2461 62.4395C26.0508 62.4395 25.8867 62.375 25.7539 62.2461C25.6211 62.1133 25.5547 61.9512 25.5547 61.7598C25.5547 61.5684 25.6211 61.4082 25.7539 61.2793C25.8867 61.1465 26.0508 61.0801 26.2461 61.0801C26.4414 61.0801 26.6055 61.1465 26.7383 61.2793C26.8711 61.4082 26.9375 61.5684 26.9375 61.7598C26.9375 61.9512 26.8711 62.1133 26.7383 62.2461C26.6055 62.375 26.4414 62.4395 26.2461 62.4395ZM26.7148 69.875H25.7539V63.875H26.7148V69.875ZM32.8789 69.5176C32.6016 69.6895 32.3242 69.8145 32.0469 69.8926C31.7695 69.9746 31.4668 70.0156 31.1387 70.0156C30.2949 70.0156 29.6016 69.7539 29.0586 69.2305C28.5195 68.707 28.25 67.9648 28.25 67.0039C28.25 66.0273 28.5215 65.2383 29.0645 64.6367C29.6113 64.0352 30.3613 63.7344 31.3145 63.7344C31.623 63.7344 31.916 63.7715 32.1934 63.8457C32.4746 63.9199 32.7578 64.041 33.043 64.209L32.6387 64.9121C32.416 64.7871 32.1973 64.6953 31.9824 64.6367C31.7676 64.5781 31.5332 64.5488 31.2793 64.5488C30.6191 64.5488 30.1133 64.7695 29.7617 65.2109C29.4102 65.6523 29.2344 66.2129 29.2344 66.8926C29.2344 67.6426 29.418 68.2148 29.7852 68.6094C30.1562 69.0039 30.6348 69.2012 31.2207 69.2012C31.4121 69.2012 31.6113 69.1719 31.8184 69.1133C32.0293 69.0508 32.2402 68.9551 32.4512 68.8262L32.8789 69.5176ZM37.1621 64.6953C37.0879 64.6719 37.0215 64.6562 36.9629 64.6484C36.9043 64.6367 36.8301 64.6309 36.7402 64.6309C36.252 64.6309 35.8672 64.8398 35.5859 65.2578C35.3047 65.6719 35.1641 66.1914 35.1641 66.8164V69.875H34.2031V63.875H35.1641V65.0645H35.1875C35.3242 64.6426 35.5332 64.3223 35.8145 64.1035C36.0957 63.8809 36.4199 63.7695 36.7871 63.7695C36.9082 63.7695 37.0098 63.7754 37.0918 63.7871C37.1777 63.7988 37.2539 63.8164 37.3203 63.8398L37.1621 64.6953ZM40.8828 70.0156C39.9961 70.0156 39.2871 69.7363 38.7559 69.1777C38.2285 68.6152 37.9648 67.8711 37.9648 66.9453C37.9648 65.9414 38.2383 65.1562 38.7852 64.5898C39.332 64.0234 40.0781 63.7383 41.0234 63.7344C41.918 63.7305 42.6152 64.0059 43.1152 64.5605C43.6191 65.1152 43.8711 65.8789 43.8711 66.8516C43.8711 67.8125 43.5996 68.5801 43.0566 69.1543C42.5176 69.7285 41.793 70.0156 40.8828 70.0156ZM40.9531 69.207C41.5742 69.207 42.0508 69.0059 42.3828 68.6035C42.7188 68.1973 42.8867 67.625 42.8867 66.8867C42.8867 66.1328 42.7188 65.5547 42.3828 65.1523C42.0469 64.7461 41.5703 64.543 40.9531 64.543C40.3359 64.543 39.8477 64.7539 39.4883 65.1758C39.1289 65.5977 38.9492 66.1758 38.9492 66.9102C38.9492 67.6211 39.1309 68.1816 39.4941 68.5918C39.8574 69.002 40.3438 69.207 40.9531 69.207ZM44.8438 69.4238L45.3008 68.6855C45.5625 68.8574 45.8184 68.9883 46.0684 69.0781C46.3184 69.1641 46.5879 69.207 46.877 69.207C47.2871 69.207 47.5977 69.1309 47.8086 68.9785C48.0234 68.8262 48.1309 68.5977 48.1309 68.293C48.1309 68.0469 48.0352 67.8398 47.8438 67.6719C47.6562 67.5 47.3613 67.3633 46.959 67.2617C46.209 67.0703 45.6953 66.8301 45.418 66.541C45.1406 66.248 45.002 65.8887 45.002 65.4629C45.002 64.9707 45.1875 64.5605 45.5586 64.2324C45.9297 63.9004 46.4473 63.7344 47.1113 63.7344C47.4316 63.7344 47.7363 63.7754 48.0254 63.8574C48.3145 63.9395 48.6094 64.0801 48.9102 64.2793L48.4824 65.0059C48.209 64.834 47.9629 64.7148 47.7441 64.6484C47.5293 64.5781 47.3105 64.543 47.0879 64.543C46.7012 64.543 46.4062 64.6152 46.2031 64.7598C46 64.9004 45.8984 65.1055 45.8984 65.375C45.8984 65.6445 46.002 65.8477 46.209 65.9844C46.4199 66.1211 46.7578 66.25 47.2227 66.3711C47.832 66.5352 48.2871 66.7656 48.5879 67.0625C48.8926 67.3555 49.0449 67.7402 49.0449 68.2168C49.0449 68.7715 48.8477 69.2109 48.4531 69.5352C48.0625 69.8555 47.5254 70.0156 46.8418 70.0156C46.4746 70.0156 46.1211 69.9648 45.7812 69.8633C45.4453 69.7617 45.1328 69.6152 44.8438 69.4238ZM53.0117 70.0156C52.125 70.0156 51.416 69.7363 50.8848 69.1777C50.3574 68.6152 50.0938 67.8711 50.0938 66.9453C50.0938 65.9414 50.3672 65.1562 50.9141 64.5898C51.4609 64.0234 52.207 63.7383 53.1523 63.7344C54.0469 63.7305 54.7441 64.0059 55.2441 64.5605C55.748 65.1152 56 65.8789 56 66.8516C56 67.8125 55.7285 68.5801 55.1855 69.1543C54.6465 69.7285 53.9219 70.0156 53.0117 70.0156ZM53.082 69.207C53.7031 69.207 54.1797 69.0059 54.5117 68.6035C54.8477 68.1973 55.0156 67.625 55.0156 66.8867C55.0156 66.1328 54.8477 65.5547 54.5117 65.1523C54.1758 64.7461 53.6992 64.543 53.082 64.543C52.4648 64.543 51.9766 64.7539 51.6172 65.1758C51.2578 65.5977 51.0781 66.1758 51.0781 66.9102C51.0781 67.6211 51.2598 68.1816 51.623 68.5918C51.9863 69.002 52.4727 69.207 53.082 69.207ZM60.4004 61.7773C60.291 61.7422 60.1914 61.7168 60.1016 61.7012C60.0156 61.6855 59.9238 61.6777 59.8262 61.6777C59.498 61.6777 59.2539 61.7656 59.0938 61.9414C58.9336 62.1172 58.8535 62.375 58.8535 62.7148V63.875H60.2598V64.6953H58.8535V69.875H57.8984V64.6953H56.873V63.875H57.8984V62.668C57.8984 62.1016 58.0723 61.6602 58.4199 61.3438C58.7676 61.0234 59.2441 60.8633 59.8496 60.8633C59.998 60.8633 60.1328 60.875 60.2539 60.8984C60.375 60.918 60.5 60.9492 60.6289 60.9922L60.4004 61.7773ZM64.1562 69.8047C63.9922 69.8711 63.8301 69.9199 63.6699 69.9512C63.5137 69.9863 63.3359 70.0039 63.1367 70.0039C62.6602 70.0039 62.2852 69.8652 62.0117 69.5879C61.7422 69.3066 61.6074 68.8926 61.6074 68.3457V64.6953H60.5762V63.875H61.6074V62.4102L62.5684 62.0996V63.875H64.0801V64.6953H62.5684V68.2344C62.5684 68.5781 62.6289 68.8262 62.75 68.9785C62.875 69.1309 63.0605 69.207 63.3066 69.207C63.4238 69.207 63.5371 69.1934 63.6465 69.166C63.7559 69.1387 63.8477 69.1074 63.9219 69.0723L64.1562 69.8047ZM69.7695 66.793V69.875H68.7852V61.4727H71.0938C71.9922 61.4727 72.6875 61.6953 73.1797 62.1406C73.6758 62.5859 73.9238 63.2148 73.9238 64.0273C73.9238 64.8359 73.6484 65.5 73.0977 66.0195C72.5508 66.5352 71.8105 66.793 70.877 66.793H69.7695ZM69.7695 62.3633V65.9023H70.8008C71.4805 65.9023 71.998 65.7441 72.3535 65.4277C72.7129 65.1074 72.8926 64.6562 72.8926 64.0742C72.8926 63.5039 72.7285 63.0762 72.4004 62.791C72.0723 62.5059 71.5801 62.3633 70.9238 62.3633H69.7695ZM75.3828 69.875V60.9922H76.3438V69.875H75.3828ZM83.1406 69.875H82.1797V68.9258H82.1562C81.957 69.2891 81.7031 69.5625 81.3945 69.7461C81.0859 69.9258 80.7227 70.0156 80.3047 70.0156C79.5898 70.0156 79.0527 69.8027 78.6934 69.377C78.3379 68.9512 78.1602 68.3125 78.1602 67.4609V63.875H79.1152V67.3086C79.1152 67.9414 79.2363 68.416 79.4785 68.7324C79.7207 69.0488 80.084 69.207 80.5684 69.207C81.0371 69.207 81.4219 69.0352 81.7227 68.6914C82.0273 68.3438 82.1797 67.8906 82.1797 67.332V63.875H83.1406V69.875ZM87.9453 69.8047C87.7812 69.8711 87.6191 69.9199 87.459 69.9512C87.3027 69.9863 87.125 70.0039 86.9258 70.0039C86.4492 70.0039 86.0742 69.8652 85.8008 69.5879C85.5312 69.3066 85.3965 68.8926 85.3965 68.3457V64.6953H84.3652V63.875H85.3965V62.4102L86.3574 62.0996V63.875H87.8691V64.6953H86.3574V68.2344C86.3574 68.5781 86.418 68.8262 86.5391 68.9785C86.6641 69.1309 86.8496 69.207 87.0957 69.207C87.2129 69.207 87.3262 69.1934 87.4355 69.166C87.5449 69.1387 87.6367 69.1074 87.7109 69.0723L87.9453 69.8047ZM91.6602 70.0156C90.7734 70.0156 90.0645 69.7363 89.5332 69.1777C89.0059 68.6152 88.7422 67.8711 88.7422 66.9453C88.7422 65.9414 89.0156 65.1562 89.5625 64.5898C90.1094 64.0234 90.8555 63.7383 91.8008 63.7344C92.6953 63.7305 93.3926 64.0059 93.8926 64.5605C94.3965 65.1152 94.6484 65.8789 94.6484 66.8516C94.6484 67.8125 94.377 68.5801 93.834 69.1543C93.2949 69.7285 92.5703 70.0156 91.6602 70.0156ZM91.7305 69.207C92.3516 69.207 92.8281 69.0059 93.1602 68.6035C93.4961 68.1973 93.6641 67.625 93.6641 66.8867C93.6641 66.1328 93.4961 65.5547 93.1602 65.1523C92.8242 64.7461 92.3477 64.543 91.7305 64.543C91.1133 64.543 90.625 64.7539 90.2656 65.1758C89.9062 65.5977 89.7266 66.1758 89.7266 66.9102C89.7266 67.6211 89.9082 68.1816 90.2715 68.5918C90.6348 69.002 91.1211 69.207 91.7305 69.207ZM101.164 69.875H100.203V66.4531C100.203 65.8164 100.086 65.3398 99.8516 65.0234C99.6211 64.7031 99.2734 64.543 98.8086 64.543C98.3281 64.543 97.9297 64.7246 97.6133 65.0879C97.3008 65.4473 97.1445 65.9023 97.1445 66.4531V69.875H96.1836V63.875H97.1445V64.8711H97.168C97.3945 64.4922 97.6719 64.209 98 64.0215C98.3281 63.8301 98.707 63.7344 99.1367 63.7344C99.793 63.7344 100.295 63.9473 100.643 64.373C100.99 64.7949 101.164 65.4062 101.164 66.207V69.875ZM105.711 69.4238L106.168 68.6855C106.43 68.8574 106.686 68.9883 106.936 69.0781C107.186 69.1641 107.455 69.207 107.744 69.207C108.154 69.207 108.465 69.1309 108.676 68.9785C108.891 68.8262 108.998 68.5977 108.998 68.293C108.998 68.0469 108.902 67.8398 108.711 67.6719C108.523 67.5 108.229 67.3633 107.826 67.2617C107.076 67.0703 106.562 66.8301 106.285 66.541C106.008 66.248 105.869 65.8887 105.869 65.4629C105.869 64.9707 106.055 64.5605 106.426 64.2324C106.797 63.9004 107.314 63.7344 107.979 63.7344C108.299 63.7344 108.604 63.7754 108.893 63.8574C109.182 63.9395 109.477 64.0801 109.777 64.2793L109.35 65.0059C109.076 64.834 108.83 64.7148 108.611 64.6484C108.396 64.5781 108.178 64.543 107.955 64.543C107.568 64.543 107.273 64.6152 107.07 64.7598C106.867 64.9004 106.766 65.1055 106.766 65.375C106.766 65.6445 106.869 65.8477 107.076 65.9844C107.287 66.1211 107.625 66.25 108.09 66.3711C108.699 66.5352 109.154 66.7656 109.455 67.0625C109.76 67.3555 109.912 67.7402 109.912 68.2168C109.912 68.7715 109.715 69.2109 109.32 69.5352C108.93 69.8555 108.393 70.0156 107.709 70.0156C107.342 70.0156 106.988 69.9648 106.648 69.8633C106.312 69.7617 106 69.6152 105.711 69.4238ZM116.193 67.0918H111.951C111.967 67.7676 112.145 68.2891 112.484 68.6562C112.828 69.0195 113.309 69.2012 113.926 69.2012C114.195 69.2012 114.465 69.1621 114.734 69.084C115.008 69.002 115.277 68.873 115.543 68.6973L115.988 69.3828C115.648 69.6016 115.309 69.7617 114.969 69.8633C114.629 69.9648 114.256 70.0156 113.85 70.0156C112.943 70.0156 112.236 69.7461 111.729 69.207C111.221 68.668 110.965 67.916 110.961 66.9512C110.957 65.9863 111.211 65.209 111.723 64.6191C112.238 64.0293 112.906 63.7344 113.727 63.7344C114.508 63.7344 115.113 63.9902 115.543 64.502C115.977 65.0098 116.193 65.7148 116.193 66.6172V67.0918ZM115.209 66.3066C115.205 65.752 115.07 65.3203 114.805 65.0117C114.539 64.6992 114.174 64.543 113.709 64.543C113.252 64.543 112.863 64.7031 112.543 65.0234C112.227 65.3398 112.033 65.7676 111.963 66.3066H115.209ZM121.871 69.5176C121.594 69.6895 121.316 69.8145 121.039 69.8926C120.762 69.9746 120.459 70.0156 120.131 70.0156C119.287 70.0156 118.594 69.7539 118.051 69.2305C117.512 68.707 117.242 67.9648 117.242 67.0039C117.242 66.0273 117.514 65.2383 118.057 64.6367C118.604 64.0352 119.354 63.7344 120.307 63.7344C120.615 63.7344 120.908 63.7715 121.186 63.8457C121.467 63.9199 121.75 64.041 122.035 64.209L121.631 64.9121C121.408 64.7871 121.189 64.6953 120.975 64.6367C120.76 64.5781 120.525 64.5488 120.271 64.5488C119.611 64.5488 119.105 64.7695 118.754 65.2109C118.402 65.6523 118.227 66.2129 118.227 66.8926C118.227 67.6426 118.41 68.2148 118.777 68.6094C119.148 69.0039 119.627 69.2012 120.213 69.2012C120.404 69.2012 120.604 69.1719 120.811 69.1133C121.021 69.0508 121.232 68.9551 121.443 68.8262L121.871 69.5176ZM128.047 69.875H127.086V68.9258H127.062C126.863 69.2891 126.609 69.5625 126.301 69.7461C125.992 69.9258 125.629 70.0156 125.211 70.0156C124.496 70.0156 123.959 69.8027 123.6 69.377C123.244 68.9512 123.066 68.3125 123.066 67.4609V63.875H124.021V67.3086C124.021 67.9414 124.143 68.416 124.385 68.7324C124.627 69.0488 124.99 69.207 125.475 69.207C125.943 69.207 126.328 69.0352 126.629 68.6914C126.934 68.3438 127.086 67.8906 127.086 67.332V63.875H128.047V69.875ZM132.951 64.6953C132.877 64.6719 132.811 64.6562 132.752 64.6484C132.693 64.6367 132.619 64.6309 132.529 64.6309C132.041 64.6309 131.656 64.8398 131.375 65.2578C131.094 65.6719 130.953 66.1914 130.953 66.8164V69.875H129.992V63.875H130.953V65.0645H130.977C131.113 64.6426 131.322 64.3223 131.604 64.1035C131.885 63.8809 132.209 63.7695 132.576 63.7695C132.697 63.7695 132.799 63.7754 132.881 63.7871C132.967 63.7988 133.043 63.8164 133.109 63.8398L132.951 64.6953ZM134.656 62.4395C134.461 62.4395 134.297 62.375 134.164 62.2461C134.031 62.1133 133.965 61.9512 133.965 61.7598C133.965 61.5684 134.031 61.4082 134.164 61.2793C134.297 61.1465 134.461 61.0801 134.656 61.0801C134.852 61.0801 135.016 61.1465 135.148 61.2793C135.281 61.4082 135.348 61.5684 135.348 61.7598C135.348 61.9512 135.281 62.1133 135.148 62.2461C135.016 62.375 134.852 62.4395 134.656 62.4395ZM135.125 69.875H134.164V63.875H135.125V69.875ZM139.93 69.8047C139.766 69.8711 139.604 69.9199 139.443 69.9512C139.287 69.9863 139.109 70.0039 138.91 70.0039C138.434 70.0039 138.059 69.8652 137.785 69.5879C137.516 69.3066 137.381 68.8926 137.381 68.3457V64.6953H136.35V63.875H137.381V62.4102L138.342 62.0996V63.875H139.854V64.6953H138.342V68.2344C138.342 68.5781 138.402 68.8262 138.523 68.9785C138.648 69.1309 138.834 69.207 139.08 69.207C139.197 69.207 139.311 69.1934 139.42 69.166C139.529 69.1387 139.621 69.1074 139.695 69.0723L139.93 69.8047ZM145.912 63.875L143.082 71.0176C142.859 71.5801 142.58 72 142.244 72.2773C141.908 72.5586 141.514 72.6992 141.061 72.6992C140.943 72.6992 140.836 72.6914 140.738 72.6758C140.641 72.6641 140.547 72.6465 140.457 72.623L140.645 71.8027C140.715 71.8262 140.779 71.8418 140.838 71.8496C140.9 71.8613 140.961 71.8672 141.02 71.8672C141.277 71.8672 141.49 71.8008 141.658 71.668C141.83 71.5352 141.967 71.3477 142.068 71.1055L142.59 69.8633L140.246 63.875H141.312L142.936 68.4922C142.943 68.5195 142.957 68.5723 142.977 68.6504C143 68.7285 143.027 68.8281 143.059 68.9492H143.094C143.105 68.9023 143.119 68.8418 143.135 68.7676C143.154 68.6934 143.18 68.6055 143.211 68.5039L144.916 63.875H145.912ZM151.227 69.0078H151.203V72.6348H150.242V63.875H151.203V64.9297H151.227C151.465 64.5312 151.756 64.2324 152.1 64.0332C152.447 63.834 152.848 63.7344 153.301 63.7344C154.074 63.7344 154.678 64.0039 155.111 64.543C155.545 65.0781 155.762 65.7969 155.762 66.6992C155.762 67.7031 155.518 68.5078 155.029 69.1133C154.541 69.7148 153.873 70.0156 153.025 70.0156C152.639 70.0156 152.295 69.9316 151.994 69.7637C151.693 69.5957 151.438 69.3438 151.227 69.0078ZM151.203 66.5879V67.4258C151.203 67.9219 151.363 68.3438 151.684 68.6914C152.008 69.0352 152.418 69.207 152.914 69.207C153.496 69.207 153.951 68.9844 154.279 68.5391C154.611 68.0938 154.777 67.4746 154.777 66.6816C154.777 66.0137 154.623 65.4902 154.314 65.1113C154.006 64.7324 153.588 64.543 153.061 64.543C152.502 64.543 152.053 64.7383 151.713 65.1289C151.373 65.5156 151.203 66.002 151.203 66.5879ZM160.256 64.6953C160.182 64.6719 160.115 64.6562 160.057 64.6484C159.998 64.6367 159.924 64.6309 159.834 64.6309C159.346 64.6309 158.961 64.8398 158.68 65.2578C158.398 65.6719 158.258 66.1914 158.258 66.8164V69.875H157.297V63.875H158.258V65.0645H158.281C158.418 64.6426 158.627 64.3223 158.908 64.1035C159.189 63.8809 159.514 63.7695 159.881 63.7695C160.002 63.7695 160.104 63.7754 160.186 63.7871C160.271 63.7988 160.348 63.8164 160.414 63.8398L160.256 64.6953ZM163.977 70.0156C163.09 70.0156 162.381 69.7363 161.85 69.1777C161.322 68.6152 161.059 67.8711 161.059 66.9453C161.059 65.9414 161.332 65.1562 161.879 64.5898C162.426 64.0234 163.172 63.7383 164.117 63.7344C165.012 63.7305 165.709 64.0059 166.209 64.5605C166.713 65.1152 166.965 65.8789 166.965 66.8516C166.965 67.8125 166.693 68.5801 166.15 69.1543C165.611 69.7285 164.887 70.0156 163.977 70.0156ZM164.047 69.207C164.668 69.207 165.145 69.0059 165.477 68.6035C165.812 68.1973 165.98 67.625 165.98 66.8867C165.98 66.1328 165.812 65.5547 165.477 65.1523C165.141 64.7461 164.664 64.543 164.047 64.543C163.43 64.543 162.941 64.7539 162.582 65.1758C162.223 65.5977 162.043 66.1758 162.043 66.9102C162.043 67.6211 162.225 68.1816 162.588 68.5918C162.951 69.002 163.438 69.207 164.047 69.207ZM172.719 69.5176C172.441 69.6895 172.164 69.8145 171.887 69.8926C171.609 69.9746 171.307 70.0156 170.979 70.0156C170.135 70.0156 169.441 69.7539 168.898 69.2305C168.359 68.707 168.09 67.9648 168.09 67.0039C168.09 66.0273 168.361 65.2383 168.904 64.6367C169.451 64.0352 170.201 63.7344 171.154 63.7344C171.463 63.7344 171.756 63.7715 172.033 63.8457C172.314 63.9199 172.598 64.041 172.883 64.209L172.479 64.9121C172.256 64.7871 172.037 64.6953 171.822 64.6367C171.607 64.5781 171.373 64.5488 171.119 64.5488C170.459 64.5488 169.953 64.7695 169.602 65.2109C169.25 65.6523 169.074 66.2129 169.074 66.8926C169.074 67.6426 169.258 68.2148 169.625 68.6094C169.996 69.0039 170.475 69.2012 171.061 69.2012C171.252 69.2012 171.451 69.1719 171.658 69.1133C171.869 69.0508 172.08 68.9551 172.291 68.8262L172.719 69.5176ZM178.865 67.0918H174.623C174.639 67.7676 174.816 68.2891 175.156 68.6562C175.5 69.0195 175.98 69.2012 176.598 69.2012C176.867 69.2012 177.137 69.1621 177.406 69.084C177.68 69.002 177.949 68.873 178.215 68.6973L178.66 69.3828C178.32 69.6016 177.98 69.7617 177.641 69.8633C177.301 69.9648 176.928 70.0156 176.521 70.0156C175.615 70.0156 174.908 69.7461 174.4 69.207C173.893 68.668 173.637 67.916 173.633 66.9512C173.629 65.9863 173.883 65.209 174.395 64.6191C174.91 64.0293 175.578 63.7344 176.398 63.7344C177.18 63.7344 177.785 63.9902 178.215 64.502C178.648 65.0098 178.865 65.7148 178.865 66.6172V67.0918ZM177.881 66.3066C177.877 65.752 177.742 65.3203 177.477 65.0117C177.211 64.6992 176.846 64.543 176.381 64.543C175.924 64.543 175.535 64.7031 175.215 65.0234C174.898 65.3398 174.705 65.7676 174.635 66.3066H177.881ZM179.762 69.4238L180.219 68.6855C180.48 68.8574 180.736 68.9883 180.986 69.0781C181.236 69.1641 181.506 69.207 181.795 69.207C182.205 69.207 182.516 69.1309 182.727 68.9785C182.941 68.8262 183.049 68.5977 183.049 68.293C183.049 68.0469 182.953 67.8398 182.762 67.6719C182.574 67.5 182.279 67.3633 181.877 67.2617C181.127 67.0703 180.613 66.8301 180.336 66.541C180.059 66.248 179.92 65.8887 179.92 65.4629C179.92 64.9707 180.105 64.5605 180.477 64.2324C180.848 63.9004 181.365 63.7344 182.029 63.7344C182.35 63.7344 182.654 63.7754 182.943 63.8574C183.232 63.9395 183.527 64.0801 183.828 64.2793L183.4 65.0059C183.127 64.834 182.881 64.7148 182.662 64.6484C182.447 64.5781 182.229 64.543 182.006 64.543C181.619 64.543 181.324 64.6152 181.121 64.7598C180.918 64.9004 180.816 65.1055 180.816 65.375C180.816 65.6445 180.92 65.8477 181.127 65.9844C181.338 66.1211 181.676 66.25 182.141 66.3711C182.75 66.5352 183.205 66.7656 183.506 67.0625C183.811 67.3555 183.963 67.7402 183.963 68.2168C183.963 68.7715 183.766 69.2109 183.371 69.5352C182.98 69.8555 182.443 70.0156 181.76 70.0156C181.393 70.0156 181.039 69.9648 180.699 69.8633C180.363 69.7617 180.051 69.6152 179.762 69.4238ZM184.859 69.4238L185.316 68.6855C185.578 68.8574 185.834 68.9883 186.084 69.0781C186.334 69.1641 186.604 69.207 186.893 69.207C187.303 69.207 187.613 69.1309 187.824 68.9785C188.039 68.8262 188.146 68.5977 188.146 68.293C188.146 68.0469 188.051 67.8398 187.859 67.6719C187.672 67.5 187.377 67.3633 186.975 67.2617C186.225 67.0703 185.711 66.8301 185.434 66.541C185.156 66.248 185.018 65.8887 185.018 65.4629C185.018 64.9707 185.203 64.5605 185.574 64.2324C185.945 63.9004 186.463 63.7344 187.127 63.7344C187.447 63.7344 187.752 63.7754 188.041 63.8574C188.33 63.9395 188.625 64.0801 188.926 64.2793L188.498 65.0059C188.225 64.834 187.979 64.7148 187.76 64.6484C187.545 64.5781 187.326 64.543 187.104 64.543C186.717 64.543 186.422 64.6152 186.219 64.7598C186.016 64.9004 185.914 65.1055 185.914 65.375C185.914 65.6445 186.018 65.8477 186.225 65.9844C186.436 66.1211 186.773 66.25 187.238 66.3711C187.848 66.5352 188.303 66.7656 188.604 67.0625C188.908 67.3555 189.061 67.7402 189.061 68.2168C189.061 68.7715 188.863 69.2109 188.469 69.5352C188.078 69.8555 187.541 70.0156 186.857 70.0156C186.49 70.0156 186.137 69.9648 185.797 69.8633C185.461 69.7617 185.148 69.6152 184.859 69.4238ZM193.027 70.0156C192.141 70.0156 191.432 69.7363 190.9 69.1777C190.373 68.6152 190.109 67.8711 190.109 66.9453C190.109 65.9414 190.383 65.1562 190.93 64.5898C191.477 64.0234 192.223 63.7383 193.168 63.7344C194.062 63.7305 194.76 64.0059 195.26 64.5605C195.764 65.1152 196.016 65.8789 196.016 66.8516C196.016 67.8125 195.744 68.5801 195.201 69.1543C194.662 69.7285 193.938 70.0156 193.027 70.0156ZM193.098 69.207C193.719 69.207 194.195 69.0059 194.527 68.6035C194.863 68.1973 195.031 67.625 195.031 66.8867C195.031 66.1328 194.863 65.5547 194.527 65.1523C194.191 64.7461 193.715 64.543 193.098 64.543C192.48 64.543 191.992 64.7539 191.633 65.1758C191.273 65.5977 191.094 66.1758 191.094 66.9102C191.094 67.6211 191.275 68.1816 191.639 68.5918C192.002 69.002 192.488 69.207 193.098 69.207ZM200.51 64.6953C200.436 64.6719 200.369 64.6562 200.311 64.6484C200.252 64.6367 200.178 64.6309 200.088 64.6309C199.6 64.6309 199.215 64.8398 198.934 65.2578C198.652 65.6719 198.512 66.1914 198.512 66.8164V69.875H197.551V63.875H198.512V65.0645H198.535C198.672 64.6426 198.881 64.3223 199.162 64.1035C199.443 63.8809 199.768 63.7695 200.135 63.7695C200.256 63.7695 200.357 63.7754 200.439 63.7871C200.525 63.7988 200.602 63.8164 200.668 63.8398L200.51 64.6953Z" fill="white"/>
<path d="M626.132 67V82C626.132 82.6901 626.002 83.3411 625.741 83.9531C625.481 84.5521 625.123 85.0794 624.667 85.5352C624.211 85.9909 623.677 86.349 623.065 86.6094C622.466 86.8698 621.822 87 621.132 87H601.132C600.442 87 599.791 86.8698 599.179 86.6094C598.58 86.349 598.052 85.9909 597.597 85.5352C597.141 85.0794 596.783 84.5521 596.522 83.9531C596.262 83.3411 596.132 82.6901 596.132 82V67C596.132 66.3099 596.262 65.6654 596.522 65.0664C596.783 64.4544 597.141 63.9206 597.597 63.4648C598.052 63.0091 598.58 62.651 599.179 62.3906C599.791 62.1302 600.442 62 601.132 62V57C601.132 55.6198 601.392 54.3242 601.913 53.1133C602.434 51.8893 603.143 50.8281 604.042 49.9297C604.953 49.0182 606.015 48.3021 607.226 47.7812C608.449 47.2604 609.752 47 611.132 47C612.512 47 613.808 47.2604 615.018 47.7812C616.242 48.3021 617.304 49.0182 618.202 49.9297C619.114 50.8281 619.83 51.8893 620.351 53.1133C620.871 54.3242 621.132 55.6198 621.132 57V62C621.822 62 622.466 62.1302 623.065 62.3906C623.677 62.651 624.211 63.0091 624.667 63.4648C625.123 63.9206 625.481 64.4544 625.741 65.0664C626.002 65.6654 626.132 66.3099 626.132 67ZM603.632 62H618.632V57C618.632 55.9583 618.436 54.9818 618.046 54.0703C617.655 53.1589 617.121 52.3646 616.444 51.6875C615.767 51.0104 614.973 50.4766 614.061 50.0859C613.15 49.6953 612.173 49.5 611.132 49.5C610.09 49.5 609.114 49.6953 608.202 50.0859C607.291 50.4766 606.496 51.0104 605.819 51.6875C605.142 52.3646 604.608 53.1589 604.218 54.0703C603.827 54.9818 603.632 55.9583 603.632 57V62ZM623.632 67C623.632 66.6615 623.567 66.3424 623.436 66.043C623.306 65.7305 623.124 65.4635 622.89 65.2422C622.668 65.0078 622.401 64.8255 622.089 64.6953C621.789 64.5651 621.47 64.5 621.132 64.5H601.132C600.78 64.5 600.455 64.5651 600.155 64.6953C599.856 64.8255 599.589 65.0078 599.354 65.2422C599.133 65.4635 598.957 65.724 598.827 66.0234C598.697 66.3229 598.632 66.6484 598.632 67V82C598.632 82.3516 598.697 82.6836 598.827 82.9961C598.957 83.2956 599.133 83.556 599.354 83.7773C599.576 83.9987 599.836 84.1745 600.136 84.3047C600.448 84.4349 600.78 84.5 601.132 84.5H621.132C621.483 84.5 621.809 84.4349 622.108 84.3047C622.408 84.1745 622.668 83.9987 622.89 83.7773C623.124 83.543 623.306 83.276 623.436 82.9766C623.567 82.6771 623.632 82.3516 623.632 82V67ZM613.632 74.5C613.632 74.8516 613.567 75.1771 613.436 75.4766C613.306 75.776 613.124 76.043 612.89 76.2773C612.668 76.4987 612.408 76.6745 612.108 76.8047C611.809 76.9349 611.483 77 611.132 77C610.78 77 610.448 76.9349 610.136 76.8047C609.836 76.6745 609.576 76.4987 609.354 76.2773C609.133 76.056 608.957 75.7956 608.827 75.4961C608.697 75.1836 608.632 74.8516 608.632 74.5C608.632 74.1484 608.697 73.8229 608.827 73.5234C608.957 73.224 609.133 72.9635 609.354 72.7422C609.589 72.5078 609.856 72.3255 610.155 72.1953C610.455 72.0651 610.78 72 611.132 72C611.47 72 611.789 72.0651 612.089 72.1953C612.401 72.3255 612.668 72.5078 612.89 72.7422C613.124 72.9635 613.306 73.2305 613.436 73.543C613.567 73.8424 613.632 74.1615 613.632 74.5Z" fill="#98ECFE"/>
<defs>
<filter id="filter0_d_8_114" x="0" y="0" width="648.742" height="135" filterUnits="userSpaceOnUse" color-interpolation-filters="sRGB">
<feFlood flood-opacity="0" result="BackgroundImageFix"/>
<feColorMatrix in="SourceAlpha" type="matrix" values="0 0 0 0 0 0 0 0 0 0 0 0 0 0 0 0 0 0 127 0" result="hardAlpha"/>
<feOffset dx="-4"/>
<feComposite in2="hardAlpha" operator="out"/>
<feColorMatrix type="matrix" values="0 0 0 0 0.596078 0 0 0 0 0.92549 0 0 0 0 0.996078 0 0 0 1 0"/>
<feBlend mode="normal" in2="BackgroundImageFix" result="effect1_dropShadow_8_114"/>
<feBlend mode="normal" in="SourceGraphic" in2="effect1_dropShadow_8_114" result="shape"/>
</filter>
</defs>
</svg>
