<svg width="22" height="18" viewBox="0 0 22 18" fill="none" xmlns="http://www.w3.org/2000/svg">
<path d="M0 2.25C0 1.00736 1.00736 0 2.25 0H12.6C13.8426 0 14.85 1.00736 14.85 2.25V15.075C14.85 15.4478 14.5478 15.75 14.175 15.75H1.35C1.35 16.2471 1.75295 16.65 2.25 16.65H14.175C14.5478 16.65 14.85 16.9522 14.85 17.325C14.85 17.6978 14.5478 18 14.175 18H2.25C1.00736 18 0 16.9926 0 15.75V2.25ZM7.425 5.4C7.92207 5.4 8.325 4.99705 8.325 4.5C8.325 4.00295 7.92207 3.6 7.425 3.6C6.92793 3.6 6.525 4.00295 6.525 4.5C6.525 4.99705 6.92793 5.4 7.425 5.4ZM6.75 6.975V11.475C6.75 11.8478 7.05222 12.15 7.425 12.15C7.79778 12.15 8.1 11.8478 8.1 11.475V6.975C8.1 6.60221 7.79778 6.3 7.425 6.3C7.05222 6.3 6.75 6.60221 6.75 6.975Z" fill="#0883D9"/>
</svg>
