<svg width="20" height="20" viewBox="0 0 20 20" fill="none" xmlns="http://www.w3.org/2000/svg">
<path d="M0 2.5C0 1.11929 1.11929 0 2.5 0H14C15.3807 0 16.5 1.11929 16.5 2.5V16.75C16.5 17.1642 16.1642 17.5 15.75 17.5H1.5C1.5 18.0523 1.94772 18.5 2.5 18.5H15.75C16.1642 18.5 16.5 18.8358 16.5 19.25C16.5 19.6642 16.1642 20 15.75 20H2.5C1.11929 20 0 18.8807 0 17.5V2.5ZM8.25 6C8.8023 6 9.25 5.55228 9.25 5C9.25 4.44772 8.8023 4 8.25 4C7.6977 4 7.25 4.44772 7.25 5C7.25 5.55228 7.6977 6 8.25 6ZM7.5 7.75V12.75C7.5 13.1642 7.8358 13.5 8.25 13.5C8.6642 13.5 9 13.1642 9 12.75V7.75C9 7.33579 8.6642 7 8.25 7C7.8358 7 7.5 7.33579 7.5 7.75Z" fill="#0883D9"/>
</svg>
