<svg width="429" height="403" viewBox="0 0 429 403" fill="none" xmlns="http://www.w3.org/2000/svg">
<g filter="url(#filter0_d_30_231)">
<path d="M4 15C4 6.71573 10.7157 0 19 0H414C422.284 0 429 6.71573 429 15V254.404L428.793 255.956C428.573 257.606 428.012 259.192 427.145 260.614C426.582 261.538 425.896 262.381 425.107 263.121L424.134 264.033L423.363 264.755C422.439 265.622 421.408 266.368 420.296 266.975L418.771 267.808C418.741 267.824 418.71 267.837 418.678 267.847C418.2 267.995 418.199 268.671 418.676 268.818C418.709 268.828 418.742 268.842 418.773 268.859L421.43 270.335L423.593 271.837L424.245 272.441C424.89 273.039 425.482 273.692 426.013 274.393L426.301 274.774C427.016 275.718 427.601 276.753 428.04 277.851C428.674 279.436 428.996 281.127 428.989 282.834L428.525 388.066C428.489 396.324 421.784 403 413.525 403H19C10.7157 403 4 396.284 4 388V15Z" fill="#162436" fill-opacity="0.8" shape-rendering="crispEdges"/>
</g>
<path d="M17.2422 32.0859V36H15.3828V24.7969H18.8594C20.151 24.7969 21.1354 25.099 21.8125 25.7031C22.4948 26.3021 22.8359 27.1745 22.8359 28.3203C22.8359 29.4349 22.4531 30.3411 21.6875 31.0391C20.9219 31.737 19.8906 32.0859 18.5938 32.0859H17.2422ZM17.2422 26.3203V30.5703H18.4453C19.2474 30.5703 19.8542 30.3854 20.2656 30.0156C20.6771 29.6406 20.8828 29.1016 20.8828 28.3984C20.8828 27.7057 20.6875 27.1875 20.2969 26.8438C19.9062 26.4948 19.3203 26.3203 18.5391 26.3203H17.2422ZM28.9922 29.5234C28.8932 29.4974 28.7969 29.4792 28.7031 29.4688C28.6146 29.4531 28.5104 29.4453 28.3906 29.4453C27.7396 29.4453 27.2396 29.6849 26.8906 30.1641C26.5417 30.6432 26.3672 31.2682 26.3672 32.0391V36H24.5469V28H26.3672V29.5391H26.3984C26.5859 28.987 26.862 28.5703 27.2266 28.2891C27.5911 28.0026 28.0208 27.8594 28.5156 27.8594C28.6562 27.8594 28.7812 27.8672 28.8906 27.8828C29.0052 27.8984 29.1146 27.9219 29.2188 27.9531L28.9922 29.5234ZM31.4141 26.4531C31.0807 26.4531 30.8047 26.3464 30.5859 26.1328C30.3672 25.9193 30.2578 25.6562 30.2578 25.3438C30.2578 25.0208 30.3672 24.7552 30.5859 24.5469C30.8047 24.3385 31.0807 24.2344 31.4141 24.2344C31.7526 24.2344 32.0312 24.3385 32.25 24.5469C32.4688 24.7552 32.5781 25.0208 32.5781 25.3438C32.5781 25.6615 32.4688 25.9271 32.25 26.1406C32.0312 26.349 31.7526 26.4531 31.4141 26.4531ZM32.3125 36H30.4922V28H32.3125V36ZM41.5703 28L38.4766 36H36.5156L33.5703 28H35.5391L37.2812 33.4141C37.3542 33.6589 37.4141 33.8854 37.4609 34.0938C37.5078 34.3021 37.5391 34.4948 37.5547 34.6719H37.5859C37.6068 34.474 37.6406 34.276 37.6875 34.0781C37.7344 33.875 37.7917 33.6667 37.8594 33.4531L39.6641 28H41.5703ZM48.9141 36H47.1562V34.7969H47.125C46.8542 35.2604 46.5182 35.6094 46.1172 35.8438C45.7161 36.0729 45.2552 36.1875 44.7344 36.1875C44.0104 36.1875 43.4089 35.974 42.9297 35.5469C42.4505 35.1146 42.2109 34.526 42.2109 33.7812C42.2109 33.0729 42.4505 32.4922 42.9297 32.0391C43.4089 31.5807 44.1198 31.2839 45.0625 31.1484L47.1641 30.8672V30.7031C47.1641 30.1615 47.0234 29.7682 46.7422 29.5234C46.4609 29.2786 46.0807 29.1562 45.6016 29.1562C45.2214 29.1562 44.8333 29.224 44.4375 29.3594C44.0469 29.4948 43.6667 29.7057 43.2969 29.9922L42.5078 28.9062C42.9974 28.5312 43.5026 28.2552 44.0234 28.0781C44.5443 27.901 45.1172 27.8125 45.7422 27.8125C46.8151 27.8125 47.612 28.0781 48.1328 28.6094C48.6536 29.1354 48.9141 29.9271 48.9141 30.9844V36ZM47.1641 32.75V32.0703L45.4531 32.2969C44.9479 32.3698 44.5677 32.5078 44.3125 32.7109C44.0625 32.9089 43.9375 33.2005 43.9375 33.5859C43.9375 33.9766 44.0573 34.2812 44.2969 34.5C44.5365 34.7188 44.8438 34.8281 45.2188 34.8281C45.8073 34.8281 46.2786 34.6328 46.6328 34.2422C46.987 33.8464 47.1641 33.349 47.1641 32.75ZM57.1562 35.5078C56.7604 35.7474 56.3672 35.9193 55.9766 36.0234C55.5859 36.1328 55.1615 36.1875 54.7031 36.1875C53.474 36.1875 52.4896 35.8281 51.75 35.1094C51.0156 34.3906 50.6484 33.4141 50.6484 32.1797C50.6484 30.8516 51.0286 29.7917 51.7891 29C52.5547 28.2083 53.5859 27.8125 54.8828 27.8125C55.3359 27.8125 55.7474 27.862 56.1172 27.9609C56.4922 28.0547 56.8724 28.2109 57.2578 28.4297L56.5469 29.6953C56.276 29.5443 56.0104 29.4349 55.75 29.3672C55.4896 29.2943 55.2057 29.2578 54.8984 29.2578C54.1328 29.2578 53.5417 29.5104 53.125 30.0156C52.7083 30.5208 52.5 31.1901 52.5 32.0234C52.5 32.8984 52.724 33.5703 53.1719 34.0391C53.625 34.5078 54.1927 34.7422 54.875 34.7422C55.0833 34.7422 55.3229 34.7057 55.5938 34.6328C55.8646 34.5547 56.138 34.4323 56.4141 34.2656L57.1562 35.5078ZM65.625 28L61.9453 37.5078C61.6589 38.2422 61.2682 38.8021 60.7734 39.1875C60.2839 39.5729 59.6979 39.7656 59.0156 39.7656C58.8177 39.7656 58.6302 39.7526 58.4531 39.7266C58.2812 39.7057 58.112 39.6745 57.9453 39.6328L58.2656 38.2188C58.375 38.2552 58.4766 38.2812 58.5703 38.2969C58.6641 38.3125 58.7656 38.3203 58.875 38.3203C59.1719 38.3203 59.4245 38.2448 59.6328 38.0938C59.8411 37.9427 60.0078 37.7188 60.1328 37.4219L60.7422 35.9844L57.5625 28H59.5781L61.4375 33.5703C61.4635 33.6589 61.4922 33.7734 61.5234 33.9141C61.5547 34.0495 61.5885 34.2083 61.625 34.3906H61.6641C61.6849 34.2865 61.7109 34.1693 61.7422 34.0391C61.7734 33.9036 61.8151 33.7526 61.8672 33.5859L63.7969 28H65.625Z" fill="#98ECFE"/>
<path d="M16.0859 50.918V54H15.1016V45.5977H17.4102C18.3086 45.5977 19.0039 45.8203 19.4961 46.2656C19.9922 46.7109 20.2402 47.3398 20.2402 48.1523C20.2402 48.9609 19.9648 49.625 19.4141 50.1445C18.8672 50.6602 18.127 50.918 17.1934 50.918H16.0859ZM16.0859 46.4883V50.0273H17.1172C17.7969 50.0273 18.3145 49.8691 18.6699 49.5527C19.0293 49.2324 19.209 48.7812 19.209 48.1992C19.209 47.6289 19.0449 47.2012 18.7168 46.916C18.3887 46.6309 17.8965 46.4883 17.2402 46.4883H16.0859ZM24.6582 48.8203C24.584 48.7969 24.5176 48.7812 24.459 48.7734C24.4004 48.7617 24.3262 48.7559 24.2363 48.7559C23.748 48.7559 23.3633 48.9648 23.082 49.3828C22.8008 49.7969 22.6602 50.3164 22.6602 50.9414V54H21.6992V48H22.6602V49.1895H22.6836C22.8203 48.7676 23.0293 48.4473 23.3105 48.2285C23.5918 48.0059 23.916 47.8945 24.2832 47.8945C24.4043 47.8945 24.5059 47.9004 24.5879 47.9121C24.6738 47.9238 24.75 47.9414 24.8164 47.9648L24.6582 48.8203ZM26.3633 46.5645C26.168 46.5645 26.0039 46.5 25.8711 46.3711C25.7383 46.2383 25.6719 46.0762 25.6719 45.8848C25.6719 45.6934 25.7383 45.5332 25.8711 45.4043C26.0039 45.2715 26.168 45.2051 26.3633 45.2051C26.5586 45.2051 26.7227 45.2715 26.8555 45.4043C26.9883 45.5332 27.0547 45.6934 27.0547 45.8848C27.0547 46.0762 26.9883 46.2383 26.8555 46.3711C26.7227 46.5 26.5586 46.5645 26.3633 46.5645ZM26.832 54H25.8711V48H26.832V54ZM33.4941 48L31.1035 54H30.1602L27.8867 48H28.9414L30.4648 52.3594C30.5195 52.5195 30.5645 52.6699 30.5996 52.8105C30.6348 52.9473 30.6602 53.0762 30.6758 53.1973H30.6992C30.7188 53.0449 30.7441 52.9023 30.7754 52.7695C30.8066 52.6328 30.8438 52.5039 30.8867 52.3828L32.4805 48H33.4941ZM38.7793 54H37.8184V53.0625H37.7949C37.5879 53.4219 37.332 53.6914 37.0273 53.8711C36.7266 54.0508 36.375 54.1406 35.9727 54.1406C35.4102 54.1406 34.9551 53.9766 34.6074 53.6484C34.2598 53.3203 34.0859 52.8848 34.0859 52.3418C34.0859 51.8301 34.2617 51.4062 34.6133 51.0703C34.9648 50.7344 35.4629 50.5195 36.1074 50.4258L37.8184 50.1973V50.0625C37.8184 49.5586 37.7012 49.2012 37.4668 48.9902C37.2324 48.7754 36.9199 48.668 36.5293 48.668C36.2168 48.668 35.916 48.7266 35.627 48.8438C35.3379 48.9609 35.0664 49.1406 34.8125 49.3828L34.25 48.8027C34.5859 48.4785 34.9434 48.2402 35.3223 48.0879C35.7012 47.9355 36.123 47.8594 36.5879 47.8594C37.3145 47.8594 37.8613 48.0469 38.2285 48.4219C38.5957 48.793 38.7793 49.3516 38.7793 50.0977V54ZM37.8184 51.5625V50.9648L36.3711 51.1641C35.9297 51.2266 35.5977 51.3379 35.375 51.498C35.1523 51.6582 35.041 51.9102 35.041 52.2539C35.041 52.6133 35.1445 52.8887 35.3516 53.0801C35.5625 53.2676 35.8184 53.3613 36.1191 53.3613C36.6387 53.3613 37.0508 53.1914 37.3555 52.8516C37.6641 52.5117 37.8184 52.082 37.8184 51.5625ZM44.8555 53.6426C44.5781 53.8145 44.3008 53.9395 44.0234 54.0176C43.7461 54.0996 43.4434 54.1406 43.1152 54.1406C42.2715 54.1406 41.5781 53.8789 41.0352 53.3555C40.4961 52.832 40.2266 52.0898 40.2266 51.1289C40.2266 50.1523 40.498 49.3633 41.041 48.7617C41.5879 48.1602 42.3379 47.8594 43.291 47.8594C43.5996 47.8594 43.8926 47.8965 44.1699 47.9707C44.4512 48.0449 44.7344 48.166 45.0195 48.334L44.6152 49.0371C44.3926 48.9121 44.1738 48.8203 43.959 48.7617C43.7441 48.7031 43.5098 48.6738 43.2559 48.6738C42.5957 48.6738 42.0898 48.8945 41.7383 49.3359C41.3867 49.7773 41.2109 50.3379 41.2109 51.0176C41.2109 51.7676 41.3945 52.3398 41.7617 52.7344C42.1328 53.1289 42.6113 53.3262 43.1973 53.3262C43.3887 53.3262 43.5879 53.2969 43.7949 53.2383C44.0059 53.1758 44.2168 53.0801 44.4277 52.9512L44.8555 53.6426ZM50.9551 48L48.125 55.1426C47.9023 55.7051 47.623 56.125 47.2871 56.4023C46.9512 56.6836 46.5566 56.8242 46.1035 56.8242C45.9863 56.8242 45.8789 56.8164 45.7812 56.8008C45.6836 56.7891 45.5898 56.7715 45.5 56.748L45.6875 55.9277C45.7578 55.9512 45.8223 55.9668 45.8809 55.9746C45.9434 55.9863 46.0039 55.9922 46.0625 55.9922C46.3203 55.9922 46.5332 55.9258 46.7012 55.793C46.873 55.6602 47.0098 55.4727 47.1113 55.2305L47.6328 53.9883L45.2891 48H46.3555L47.9785 52.6172C47.9863 52.6445 48 52.6973 48.0195 52.7754C48.043 52.8535 48.0703 52.9531 48.1016 53.0742H48.1367C48.1484 53.0273 48.1621 52.9668 48.1777 52.8926C48.1973 52.8184 48.2227 52.7305 48.2539 52.6289L49.959 48H50.9551ZM59.4219 52.9805C59.1992 53.3672 58.916 53.6582 58.5723 53.8535C58.2324 54.0449 57.8281 54.1406 57.3594 54.1406C56.6055 54.1406 56.002 53.873 55.5488 53.3379C55.0996 52.7988 54.875 52.0664 54.875 51.1406C54.875 50.1484 55.125 49.3535 55.625 48.7559C56.125 48.1582 56.791 47.8594 57.623 47.8594C58.0371 47.8594 58.3926 47.9414 58.6895 48.1055C58.9902 48.2656 59.2344 48.5078 59.4219 48.832H59.4453V45.1172H60.4062V54H59.4453V52.9805H59.4219ZM55.8594 51.0938C55.8594 51.7852 56.0195 52.332 56.3398 52.7344C56.6641 53.1328 57.0977 53.332 57.6406 53.332C58.1797 53.332 58.6152 53.1387 58.9473 52.752C59.2793 52.3652 59.4453 51.877 59.4453 51.2871V50.4023C59.4453 49.918 59.2832 49.5078 58.959 49.1719C58.6387 48.8359 58.2344 48.668 57.7461 48.668C57.1602 48.668 56.6992 48.8828 56.3633 49.3125C56.0273 49.7422 55.8594 50.3359 55.8594 51.0938ZM66.5996 54H65.6387V53.0625H65.6152C65.4082 53.4219 65.1523 53.6914 64.8477 53.8711C64.5469 54.0508 64.1953 54.1406 63.793 54.1406C63.2305 54.1406 62.7754 53.9766 62.4277 53.6484C62.0801 53.3203 61.9062 52.8848 61.9062 52.3418C61.9062 51.8301 62.082 51.4062 62.4336 51.0703C62.7852 50.7344 63.2832 50.5195 63.9277 50.4258L65.6387 50.1973V50.0625C65.6387 49.5586 65.5215 49.2012 65.2871 48.9902C65.0527 48.7754 64.7402 48.668 64.3496 48.668C64.0371 48.668 63.7363 48.7266 63.4473 48.8438C63.1582 48.9609 62.8867 49.1406 62.6328 49.3828L62.0703 48.8027C62.4062 48.4785 62.7637 48.2402 63.1426 48.0879C63.5215 47.9355 63.9434 47.8594 64.4082 47.8594C65.1348 47.8594 65.6816 48.0469 66.0488 48.4219C66.416 48.793 66.5996 49.3516 66.5996 50.0977V54ZM65.6387 51.5625V50.9648L64.1914 51.1641C63.75 51.2266 63.418 51.3379 63.1953 51.498C62.9727 51.6582 62.8613 51.9102 62.8613 52.2539C62.8613 52.6133 62.9648 52.8887 63.1719 53.0801C63.3828 53.2676 63.6387 53.3613 63.9395 53.3613C64.459 53.3613 64.8711 53.1914 65.1758 52.8516C65.4844 52.5117 65.6387 52.082 65.6387 51.5625ZM67.8945 53.5488L68.3516 52.8105C68.6133 52.9824 68.8691 53.1133 69.1191 53.2031C69.3691 53.2891 69.6387 53.332 69.9277 53.332C70.3379 53.332 70.6484 53.2559 70.8594 53.1035C71.0742 52.9512 71.1816 52.7227 71.1816 52.418C71.1816 52.1719 71.0859 51.9648 70.8945 51.7969C70.707 51.625 70.4121 51.4883 70.0098 51.3867C69.2598 51.1953 68.7461 50.9551 68.4688 50.666C68.1914 50.373 68.0527 50.0137 68.0527 49.5879C68.0527 49.0957 68.2383 48.6855 68.6094 48.3574C68.9805 48.0254 69.498 47.8594 70.1621 47.8594C70.4824 47.8594 70.7871 47.9004 71.0762 47.9824C71.3652 48.0645 71.6602 48.2051 71.9609 48.4043L71.5332 49.1309C71.2598 48.959 71.0137 48.8398 70.7949 48.7734C70.5801 48.7031 70.3613 48.668 70.1387 48.668C69.752 48.668 69.457 48.7402 69.2539 48.8848C69.0508 49.0254 68.9492 49.2305 68.9492 49.5C68.9492 49.7695 69.0527 49.9727 69.2598 50.1094C69.4707 50.2461 69.8086 50.375 70.2734 50.4961C70.8828 50.6602 71.3379 50.8906 71.6387 51.1875C71.9434 51.4805 72.0957 51.8652 72.0957 52.3418C72.0957 52.8965 71.8984 53.3359 71.5039 53.6602C71.1133 53.9805 70.5762 54.1406 69.8926 54.1406C69.5254 54.1406 69.1719 54.0898 68.832 53.9883C68.4961 53.8867 68.1836 53.7402 67.8945 53.5488ZM78.5352 54H77.5742V50.543C77.5742 49.918 77.457 49.4492 77.2227 49.1367C76.9922 48.8242 76.6445 48.668 76.1797 48.668C75.7109 48.668 75.3164 48.8496 74.9961 49.2129C74.6758 49.5723 74.5156 50.0352 74.5156 50.6016V54H73.5547V45.1172H74.5156V48.9961H74.5391C74.7695 48.6172 75.0488 48.334 75.377 48.1465C75.7051 47.9551 76.082 47.8594 76.5078 47.8594C77.1836 47.8594 77.6895 48.0625 78.0254 48.4688C78.3652 48.875 78.5352 49.4863 78.5352 50.3027V54ZM81.3359 53.2266H81.3125V54H80.3516V45.1172H81.3125V49.0547H81.3359C81.5742 48.6562 81.8652 48.3574 82.209 48.1582C82.5566 47.959 82.957 47.8594 83.4102 47.8594C84.1797 47.8594 84.7812 48.1289 85.2148 48.668C85.6523 49.2031 85.8711 49.9219 85.8711 50.8242C85.8711 51.8281 85.627 52.6328 85.1387 53.2383C84.6504 53.8398 83.9824 54.1406 83.1348 54.1406C82.7402 54.1406 82.3926 54.0645 82.0918 53.9121C81.791 53.7598 81.5391 53.5312 81.3359 53.2266ZM81.3125 50.7129V51.5508C81.3125 52.0469 81.4727 52.4688 81.793 52.8164C82.1172 53.1602 82.5273 53.332 83.0234 53.332C83.6055 53.332 84.0605 53.1094 84.3887 52.6641C84.7207 52.2188 84.8867 51.5996 84.8867 50.8066C84.8867 50.1387 84.7324 49.6152 84.4238 49.2363C84.1152 48.8574 83.6973 48.668 83.1699 48.668C82.6113 48.668 82.1621 48.8633 81.8223 49.2539C81.4824 49.6406 81.3125 50.127 81.3125 50.7129ZM89.9141 54.1406C89.0273 54.1406 88.3184 53.8613 87.7871 53.3027C87.2598 52.7402 86.9961 51.9961 86.9961 51.0703C86.9961 50.0664 87.2695 49.2812 87.8164 48.7148C88.3633 48.1484 89.1094 47.8633 90.0547 47.8594C90.9492 47.8555 91.6465 48.1309 92.1465 48.6855C92.6504 49.2402 92.9023 50.0039 92.9023 50.9766C92.9023 51.9375 92.6309 52.7051 92.0879 53.2793C91.5488 53.8535 90.8242 54.1406 89.9141 54.1406ZM89.9844 53.332C90.6055 53.332 91.082 53.1309 91.4141 52.7285C91.75 52.3223 91.918 51.75 91.918 51.0117C91.918 50.2578 91.75 49.6797 91.4141 49.2773C91.0781 48.8711 90.6016 48.668 89.9844 48.668C89.3672 48.668 88.8789 48.8789 88.5195 49.3008C88.1602 49.7227 87.9805 50.3008 87.9805 51.0352C87.9805 51.7461 88.1621 52.3066 88.5254 52.7168C88.8887 53.127 89.375 53.332 89.9844 53.332ZM98.6855 54H97.7246V53.0625H97.7012C97.4941 53.4219 97.2383 53.6914 96.9336 53.8711C96.6328 54.0508 96.2812 54.1406 95.8789 54.1406C95.3164 54.1406 94.8613 53.9766 94.5137 53.6484C94.166 53.3203 93.9922 52.8848 93.9922 52.3418C93.9922 51.8301 94.168 51.4062 94.5195 51.0703C94.8711 50.7344 95.3691 50.5195 96.0137 50.4258L97.7246 50.1973V50.0625C97.7246 49.5586 97.6074 49.2012 97.373 48.9902C97.1387 48.7754 96.8262 48.668 96.4355 48.668C96.123 48.668 95.8223 48.7266 95.5332 48.8438C95.2441 48.9609 94.9727 49.1406 94.7188 49.3828L94.1562 48.8027C94.4922 48.4785 94.8496 48.2402 95.2285 48.0879C95.6074 47.9355 96.0293 47.8594 96.4941 47.8594C97.2207 47.8594 97.7676 48.0469 98.1348 48.4219C98.502 48.793 98.6855 49.3516 98.6855 50.0977V54ZM97.7246 51.5625V50.9648L96.2773 51.1641C95.8359 51.2266 95.5039 51.3379 95.2812 51.498C95.0586 51.6582 94.9473 51.9102 94.9473 52.2539C94.9473 52.6133 95.0508 52.8887 95.2578 53.0801C95.4688 53.2676 95.7246 53.3613 96.0254 53.3613C96.5449 53.3613 96.957 53.1914 97.2617 52.8516C97.5703 52.5117 97.7246 52.082 97.7246 51.5625ZM103.502 48.8203C103.428 48.7969 103.361 48.7812 103.303 48.7734C103.244 48.7617 103.17 48.7559 103.08 48.7559C102.592 48.7559 102.207 48.9648 101.926 49.3828C101.645 49.7969 101.504 50.3164 101.504 50.9414V54H100.543V48H101.504V49.1895H101.527C101.664 48.7676 101.873 48.4473 102.154 48.2285C102.436 48.0059 102.76 47.8945 103.127 47.8945C103.248 47.8945 103.35 47.9004 103.432 47.9121C103.518 47.9238 103.594 47.9414 103.66 47.9648L103.502 48.8203ZM108.852 52.9805C108.629 53.3672 108.346 53.6582 108.002 53.8535C107.662 54.0449 107.258 54.1406 106.789 54.1406C106.035 54.1406 105.432 53.873 104.979 53.3379C104.529 52.7988 104.305 52.0664 104.305 51.1406C104.305 50.1484 104.555 49.3535 105.055 48.7559C105.555 48.1582 106.221 47.8594 107.053 47.8594C107.467 47.8594 107.822 47.9414 108.119 48.1055C108.42 48.2656 108.664 48.5078 108.852 48.832H108.875V45.1172H109.836V54H108.875V52.9805H108.852ZM105.289 51.0938C105.289 51.7852 105.449 52.332 105.77 52.7344C106.094 53.1328 106.527 53.332 107.07 53.332C107.609 53.332 108.045 53.1387 108.377 52.752C108.709 52.3652 108.875 51.877 108.875 51.2871V50.4023C108.875 49.918 108.713 49.5078 108.389 49.1719C108.068 48.8359 107.664 48.668 107.176 48.668C106.59 48.668 106.129 48.8828 105.793 49.3125C105.457 49.7422 105.289 50.3359 105.289 51.0938ZM119.322 54H118.361V53.0625H118.338C118.131 53.4219 117.875 53.6914 117.57 53.8711C117.27 54.0508 116.918 54.1406 116.516 54.1406C115.953 54.1406 115.498 53.9766 115.15 53.6484C114.803 53.3203 114.629 52.8848 114.629 52.3418C114.629 51.8301 114.805 51.4062 115.156 51.0703C115.508 50.7344 116.006 50.5195 116.65 50.4258L118.361 50.1973V50.0625C118.361 49.5586 118.244 49.2012 118.01 48.9902C117.775 48.7754 117.463 48.668 117.072 48.668C116.76 48.668 116.459 48.7266 116.17 48.8438C115.881 48.9609 115.609 49.1406 115.355 49.3828L114.793 48.8027C115.129 48.4785 115.486 48.2402 115.865 48.0879C116.244 47.9355 116.666 47.8594 117.131 47.8594C117.857 47.8594 118.404 48.0469 118.771 48.4219C119.139 48.793 119.322 49.3516 119.322 50.0977V54ZM118.361 51.5625V50.9648L116.914 51.1641C116.473 51.2266 116.141 51.3379 115.918 51.498C115.695 51.6582 115.584 51.9102 115.584 52.2539C115.584 52.6133 115.688 52.8887 115.895 53.0801C116.105 53.2676 116.361 53.3613 116.662 53.3613C117.182 53.3613 117.594 53.1914 117.898 52.8516C118.207 52.5117 118.361 52.082 118.361 51.5625ZM126.16 54H125.199V50.5781C125.199 49.9414 125.082 49.4648 124.848 49.1484C124.617 48.8281 124.27 48.668 123.805 48.668C123.324 48.668 122.926 48.8496 122.609 49.2129C122.297 49.5723 122.141 50.0273 122.141 50.5781V54H121.18V48H122.141V48.9961H122.164C122.391 48.6172 122.668 48.334 122.996 48.1465C123.324 47.9551 123.703 47.8594 124.133 47.8594C124.789 47.8594 125.291 48.0723 125.639 48.498C125.986 48.9199 126.16 49.5312 126.16 50.332V54ZM132.113 52.9805C131.891 53.3672 131.607 53.6582 131.264 53.8535C130.924 54.0449 130.52 54.1406 130.051 54.1406C129.297 54.1406 128.693 53.873 128.24 53.3379C127.791 52.7988 127.566 52.0664 127.566 51.1406C127.566 50.1484 127.816 49.3535 128.316 48.7559C128.816 48.1582 129.482 47.8594 130.314 47.8594C130.729 47.8594 131.084 47.9414 131.381 48.1055C131.682 48.2656 131.926 48.5078 132.113 48.832H132.137V45.1172H133.098V54H132.137V52.9805H132.113ZM128.551 51.0938C128.551 51.7852 128.711 52.332 129.031 52.7344C129.355 53.1328 129.789 53.332 130.332 53.332C130.871 53.332 131.307 53.1387 131.639 52.752C131.971 52.3652 132.137 51.877 132.137 51.2871V50.4023C132.137 49.918 131.975 49.5078 131.65 49.1719C131.33 48.8359 130.926 48.668 130.438 48.668C129.852 48.668 129.391 48.8828 129.055 49.3125C128.719 49.7422 128.551 50.3359 128.551 51.0938ZM141.295 48.8203C141.221 48.7969 141.154 48.7812 141.096 48.7734C141.037 48.7617 140.963 48.7559 140.873 48.7559C140.385 48.7559 140 48.9648 139.719 49.3828C139.438 49.7969 139.297 50.3164 139.297 50.9414V54H138.336V48H139.297V49.1895H139.32C139.457 48.7676 139.666 48.4473 139.947 48.2285C140.229 48.0059 140.553 47.8945 140.92 47.8945C141.041 47.8945 141.143 47.9004 141.225 47.9121C141.311 47.9238 141.387 47.9414 141.453 47.9648L141.295 48.8203ZM147.33 51.2168H143.088C143.104 51.8926 143.281 52.4141 143.621 52.7812C143.965 53.1445 144.445 53.3262 145.062 53.3262C145.332 53.3262 145.602 53.2871 145.871 53.209C146.145 53.127 146.414 52.998 146.68 52.8223L147.125 53.5078C146.785 53.7266 146.445 53.8867 146.105 53.9883C145.766 54.0898 145.393 54.1406 144.986 54.1406C144.08 54.1406 143.373 53.8711 142.865 53.332C142.357 52.793 142.102 52.041 142.098 51.0762C142.094 50.1113 142.348 49.334 142.859 48.7441C143.375 48.1543 144.043 47.8594 144.863 47.8594C145.645 47.8594 146.25 48.1152 146.68 48.627C147.113 49.1348 147.33 49.8398 147.33 50.7422V51.2168ZM146.346 50.4316C146.342 49.877 146.207 49.4453 145.941 49.1367C145.676 48.8242 145.311 48.668 144.846 48.668C144.389 48.668 144 48.8281 143.68 49.1484C143.363 49.4648 143.17 49.8926 143.1 50.4316H146.346ZM149.773 53.1328H149.75V56.7598H148.789V48H149.75V49.0547H149.773C150.012 48.6562 150.303 48.3574 150.646 48.1582C150.994 47.959 151.395 47.8594 151.848 47.8594C152.621 47.8594 153.225 48.1289 153.658 48.668C154.092 49.2031 154.309 49.9219 154.309 50.8242C154.309 51.8281 154.064 52.6328 153.576 53.2383C153.088 53.8398 152.42 54.1406 151.572 54.1406C151.186 54.1406 150.842 54.0566 150.541 53.8887C150.24 53.7207 149.984 53.4688 149.773 53.1328ZM149.75 50.7129V51.5508C149.75 52.0469 149.91 52.4688 150.23 52.8164C150.555 53.1602 150.965 53.332 151.461 53.332C152.043 53.332 152.498 53.1094 152.826 52.6641C153.158 52.2188 153.324 51.5996 153.324 50.8066C153.324 50.1387 153.17 49.6152 152.861 49.2363C152.553 48.8574 152.135 48.668 151.607 48.668C151.049 48.668 150.6 48.8633 150.26 49.2539C149.92 49.6406 149.75 50.127 149.75 50.7129ZM158.352 54.1406C157.465 54.1406 156.756 53.8613 156.225 53.3027C155.697 52.7402 155.434 51.9961 155.434 51.0703C155.434 50.0664 155.707 49.2812 156.254 48.7148C156.801 48.1484 157.547 47.8633 158.492 47.8594C159.387 47.8555 160.084 48.1309 160.584 48.6855C161.088 49.2402 161.34 50.0039 161.34 50.9766C161.34 51.9375 161.068 52.7051 160.525 53.2793C159.986 53.8535 159.262 54.1406 158.352 54.1406ZM158.422 53.332C159.043 53.332 159.52 53.1309 159.852 52.7285C160.188 52.3223 160.355 51.75 160.355 51.0117C160.355 50.2578 160.188 49.6797 159.852 49.2773C159.516 48.8711 159.039 48.668 158.422 48.668C157.805 48.668 157.316 48.8789 156.957 49.3008C156.598 49.7227 156.418 50.3008 156.418 51.0352C156.418 51.7461 156.6 52.3066 156.963 52.7168C157.326 53.127 157.812 53.332 158.422 53.332ZM165.834 48.8203C165.76 48.7969 165.693 48.7812 165.635 48.7734C165.576 48.7617 165.502 48.7559 165.412 48.7559C164.924 48.7559 164.539 48.9648 164.258 49.3828C163.977 49.7969 163.836 50.3164 163.836 50.9414V54H162.875V48H163.836V49.1895H163.859C163.996 48.7676 164.205 48.4473 164.486 48.2285C164.768 48.0059 165.092 47.8945 165.459 47.8945C165.58 47.8945 165.682 47.9004 165.764 47.9121C165.85 47.9238 165.926 47.9414 165.992 47.9648L165.834 48.8203ZM169.906 53.9297C169.742 53.9961 169.58 54.0449 169.42 54.0762C169.264 54.1113 169.086 54.1289 168.887 54.1289C168.41 54.1289 168.035 53.9902 167.762 53.7129C167.492 53.4316 167.357 53.0176 167.357 52.4707V48.8203H166.326V48H167.357V46.5352L168.318 46.2246V48H169.83V48.8203H168.318V52.3594C168.318 52.7031 168.379 52.9512 168.5 53.1035C168.625 53.2559 168.811 53.332 169.057 53.332C169.174 53.332 169.287 53.3184 169.396 53.291C169.506 53.2637 169.598 53.2324 169.672 53.1973L169.906 53.9297ZM16.0859 68.918V72H15.1016V63.5977H17.4102C18.3086 63.5977 19.0039 63.8203 19.4961 64.2656C19.9922 64.7109 20.2402 65.3398 20.2402 66.1523C20.2402 66.9609 19.9648 67.625 19.4141 68.1445C18.8672 68.6602 18.127 68.918 17.1934 68.918H16.0859ZM16.0859 64.4883V68.0273H17.1172C17.7969 68.0273 18.3145 67.8691 18.6699 67.5527C19.0293 67.2324 19.209 66.7812 19.209 66.1992C19.209 65.6289 19.0449 65.2012 18.7168 64.916C18.3887 64.6309 17.8965 64.4883 17.2402 64.4883H16.0859ZM24.6582 66.8203C24.584 66.7969 24.5176 66.7812 24.459 66.7734C24.4004 66.7617 24.3262 66.7559 24.2363 66.7559C23.748 66.7559 23.3633 66.9648 23.082 67.3828C22.8008 67.7969 22.6602 68.3164 22.6602 68.9414V72H21.6992V66H22.6602V67.1895H22.6836C22.8203 66.7676 23.0293 66.4473 23.3105 66.2285C23.5918 66.0059 23.916 65.8945 24.2832 65.8945C24.4043 65.8945 24.5059 65.9004 24.5879 65.9121C24.6738 65.9238 24.75 65.9414 24.8164 65.9648L24.6582 66.8203ZM26.3633 64.5645C26.168 64.5645 26.0039 64.5 25.8711 64.3711C25.7383 64.2383 25.6719 64.0762 25.6719 63.8848C25.6719 63.6934 25.7383 63.5332 25.8711 63.4043C26.0039 63.2715 26.168 63.2051 26.3633 63.2051C26.5586 63.2051 26.7227 63.2715 26.8555 63.4043C26.9883 63.5332 27.0547 63.6934 27.0547 63.8848C27.0547 64.0762 26.9883 64.2383 26.8555 64.3711C26.7227 64.5 26.5586 64.5645 26.3633 64.5645ZM26.832 72H25.8711V66H26.832V72ZM33.4941 66L31.1035 72H30.1602L27.8867 66H28.9414L30.4648 70.3594C30.5195 70.5195 30.5645 70.6699 30.5996 70.8105C30.6348 70.9473 30.6602 71.0762 30.6758 71.1973H30.6992C30.7188 71.0449 30.7441 70.9023 30.7754 70.7695C30.8066 70.6328 30.8438 70.5039 30.8867 70.3828L32.4805 66H33.4941ZM38.7793 72H37.8184V71.0625H37.7949C37.5879 71.4219 37.332 71.6914 37.0273 71.8711C36.7266 72.0508 36.375 72.1406 35.9727 72.1406C35.4102 72.1406 34.9551 71.9766 34.6074 71.6484C34.2598 71.3203 34.0859 70.8848 34.0859 70.3418C34.0859 69.8301 34.2617 69.4062 34.6133 69.0703C34.9648 68.7344 35.4629 68.5195 36.1074 68.4258L37.8184 68.1973V68.0625C37.8184 67.5586 37.7012 67.2012 37.4668 66.9902C37.2324 66.7754 36.9199 66.668 36.5293 66.668C36.2168 66.668 35.916 66.7266 35.627 66.8438C35.3379 66.9609 35.0664 67.1406 34.8125 67.3828L34.25 66.8027C34.5859 66.4785 34.9434 66.2402 35.3223 66.0879C35.7012 65.9355 36.123 65.8594 36.5879 65.8594C37.3145 65.8594 37.8613 66.0469 38.2285 66.4219C38.5957 66.793 38.7793 67.3516 38.7793 68.0977V72ZM37.8184 69.5625V68.9648L36.3711 69.1641C35.9297 69.2266 35.5977 69.3379 35.375 69.498C35.1523 69.6582 35.041 69.9102 35.041 70.2539C35.041 70.6133 35.1445 70.8887 35.3516 71.0801C35.5625 71.2676 35.8184 71.3613 36.1191 71.3613C36.6387 71.3613 37.0508 71.1914 37.3555 70.8516C37.6641 70.5117 37.8184 70.082 37.8184 69.5625ZM44.8555 71.6426C44.5781 71.8145 44.3008 71.9395 44.0234 72.0176C43.7461 72.0996 43.4434 72.1406 43.1152 72.1406C42.2715 72.1406 41.5781 71.8789 41.0352 71.3555C40.4961 70.832 40.2266 70.0898 40.2266 69.1289C40.2266 68.1523 40.498 67.3633 41.041 66.7617C41.5879 66.1602 42.3379 65.8594 43.291 65.8594C43.5996 65.8594 43.8926 65.8965 44.1699 65.9707C44.4512 66.0449 44.7344 66.166 45.0195 66.334L44.6152 67.0371C44.3926 66.9121 44.1738 66.8203 43.959 66.7617C43.7441 66.7031 43.5098 66.6738 43.2559 66.6738C42.5957 66.6738 42.0898 66.8945 41.7383 67.3359C41.3867 67.7773 41.2109 68.3379 41.2109 69.0176C41.2109 69.7676 41.3945 70.3398 41.7617 70.7344C42.1328 71.1289 42.6113 71.3262 43.1973 71.3262C43.3887 71.3262 43.5879 71.2969 43.7949 71.2383C44.0059 71.1758 44.2168 71.0801 44.4277 70.9512L44.8555 71.6426ZM50.9551 66L48.125 73.1426C47.9023 73.7051 47.623 74.125 47.2871 74.4023C46.9512 74.6836 46.5566 74.8242 46.1035 74.8242C45.9863 74.8242 45.8789 74.8164 45.7812 74.8008C45.6836 74.7891 45.5898 74.7715 45.5 74.748L45.6875 73.9277C45.7578 73.9512 45.8223 73.9668 45.8809 73.9746C45.9434 73.9863 46.0039 73.9922 46.0625 73.9922C46.3203 73.9922 46.5332 73.9258 46.7012 73.793C46.873 73.6602 47.0098 73.4727 47.1113 73.2305L47.6328 71.9883L45.2891 66H46.3555L47.9785 70.6172C47.9863 70.6445 48 70.6973 48.0195 70.7754C48.043 70.8535 48.0703 70.9531 48.1016 71.0742H48.1367C48.1484 71.0273 48.1621 70.9668 48.1777 70.8926C48.1973 70.8184 48.2227 70.7305 48.2539 70.6289L49.959 66H50.9551ZM58.1445 71.9297C57.9805 71.9961 57.8184 72.0449 57.6582 72.0762C57.502 72.1113 57.3242 72.1289 57.125 72.1289C56.6484 72.1289 56.2734 71.9902 56 71.7129C55.7305 71.4316 55.5957 71.0176 55.5957 70.4707V66.8203H54.5645V66H55.5957V64.5352L56.5566 64.2246V66H58.0684V66.8203H56.5566V70.3594C56.5566 70.7031 56.6172 70.9512 56.7383 71.1035C56.8633 71.2559 57.0488 71.332 57.2949 71.332C57.4121 71.332 57.5254 71.3184 57.6348 71.291C57.7441 71.2637 57.8359 71.2324 57.9102 71.1973L58.1445 71.9297ZM62.3105 66.8203C62.2363 66.7969 62.1699 66.7812 62.1113 66.7734C62.0527 66.7617 61.9785 66.7559 61.8887 66.7559C61.4004 66.7559 61.0156 66.9648 60.7344 67.3828C60.4531 67.7969 60.3125 68.3164 60.3125 68.9414V72H59.3516V66H60.3125V67.1895H60.3359C60.4727 66.7676 60.6816 66.4473 60.9629 66.2285C61.2441 66.0059 61.5684 65.8945 61.9355 65.8945C62.0566 65.8945 62.1582 65.9004 62.2402 65.9121C62.3262 65.9238 62.4023 65.9414 62.4688 65.9648L62.3105 66.8203ZM67.7715 72H66.8105V71.0625H66.7871C66.5801 71.4219 66.3242 71.6914 66.0195 71.8711C65.7188 72.0508 65.3672 72.1406 64.9648 72.1406C64.4023 72.1406 63.9473 71.9766 63.5996 71.6484C63.252 71.3203 63.0781 70.8848 63.0781 70.3418C63.0781 69.8301 63.2539 69.4062 63.6055 69.0703C63.957 68.7344 64.4551 68.5195 65.0996 68.4258L66.8105 68.1973V68.0625C66.8105 67.5586 66.6934 67.2012 66.459 66.9902C66.2246 66.7754 65.9121 66.668 65.5215 66.668C65.209 66.668 64.9082 66.7266 64.6191 66.8438C64.3301 66.9609 64.0586 67.1406 63.8047 67.3828L63.2422 66.8027C63.5781 66.4785 63.9355 66.2402 64.3145 66.0879C64.6934 65.9355 65.1152 65.8594 65.5801 65.8594C66.3066 65.8594 66.8535 66.0469 67.2207 66.4219C67.5879 66.793 67.7715 67.3516 67.7715 68.0977V72ZM66.8105 69.5625V68.9648L65.3633 69.1641C64.9219 69.2266 64.5898 69.3379 64.3672 69.498C64.1445 69.6582 64.0332 69.9102 64.0332 70.2539C64.0332 70.6133 64.1367 70.8887 64.3438 71.0801C64.5547 71.2676 64.8105 71.3613 65.1113 71.3613C65.6309 71.3613 66.043 71.1914 66.3477 70.8516C66.6562 70.5117 66.8105 70.082 66.8105 69.5625ZM74.6094 72H73.6484V68.5781C73.6484 67.9414 73.5312 67.4648 73.2969 67.1484C73.0664 66.8281 72.7188 66.668 72.2539 66.668C71.7734 66.668 71.375 66.8496 71.0586 67.2129C70.7461 67.5723 70.5898 68.0273 70.5898 68.5781V72H69.6289V66H70.5898V66.9961H70.6133C70.8398 66.6172 71.1172 66.334 71.4453 66.1465C71.7734 65.9551 72.1523 65.8594 72.582 65.8594C73.2383 65.8594 73.7402 66.0723 74.0879 66.498C74.4355 66.9199 74.6094 67.5312 74.6094 68.332V72ZM75.8633 71.5488L76.3203 70.8105C76.582 70.9824 76.8379 71.1133 77.0879 71.2031C77.3379 71.2891 77.6074 71.332 77.8965 71.332C78.3066 71.332 78.6172 71.2559 78.8281 71.1035C79.043 70.9512 79.1504 70.7227 79.1504 70.418C79.1504 70.1719 79.0547 69.9648 78.8633 69.7969C78.6758 69.625 78.3809 69.4883 77.9785 69.3867C77.2285 69.1953 76.7148 68.9551 76.4375 68.666C76.1602 68.373 76.0215 68.0137 76.0215 67.5879C76.0215 67.0957 76.207 66.6855 76.5781 66.3574C76.9492 66.0254 77.4668 65.8594 78.1309 65.8594C78.4512 65.8594 78.7559 65.9004 79.0449 65.9824C79.334 66.0645 79.6289 66.2051 79.9297 66.4043L79.502 67.1309C79.2285 66.959 78.9824 66.8398 78.7637 66.7734C78.5488 66.7031 78.3301 66.668 78.1074 66.668C77.7207 66.668 77.4258 66.7402 77.2227 66.8848C77.0195 67.0254 76.918 67.2305 76.918 67.5C76.918 67.7695 77.0215 67.9727 77.2285 68.1094C77.4395 68.2461 77.7773 68.375 78.2422 68.4961C78.8516 68.6602 79.3066 68.8906 79.6074 69.1875C79.9121 69.4805 80.0645 69.8652 80.0645 70.3418C80.0645 70.8965 79.8672 71.3359 79.4727 71.6602C79.082 71.9805 78.5449 72.1406 77.8613 72.1406C77.4941 72.1406 77.1406 72.0898 76.8008 71.9883C76.4648 71.8867 76.1523 71.7402 75.8633 71.5488ZM82.5078 71.1328H82.4844V74.7598H81.5234V66H82.4844V67.0547H82.5078C82.7461 66.6562 83.0371 66.3574 83.3809 66.1582C83.7285 65.959 84.1289 65.8594 84.582 65.8594C85.3555 65.8594 85.959 66.1289 86.3926 66.668C86.8262 67.2031 87.043 67.9219 87.043 68.8242C87.043 69.8281 86.7988 70.6328 86.3105 71.2383C85.8223 71.8398 85.1543 72.1406 84.3066 72.1406C83.9199 72.1406 83.5762 72.0566 83.2754 71.8887C82.9746 71.7207 82.7188 71.4688 82.5078 71.1328ZM82.4844 68.7129V69.5508C82.4844 70.0469 82.6445 70.4688 82.9648 70.8164C83.2891 71.1602 83.6992 71.332 84.1953 71.332C84.7773 71.332 85.2324 71.1094 85.5605 70.6641C85.8926 70.2188 86.0586 69.5996 86.0586 68.8066C86.0586 68.1387 85.9043 67.6152 85.5957 67.2363C85.2871 66.8574 84.8691 66.668 84.3418 66.668C83.7832 66.668 83.334 66.8633 82.9941 67.2539C82.6543 67.6406 82.4844 68.127 82.4844 68.7129ZM92.8262 72H91.8652V71.0625H91.8418C91.6348 71.4219 91.3789 71.6914 91.0742 71.8711C90.7734 72.0508 90.4219 72.1406 90.0195 72.1406C89.457 72.1406 89.002 71.9766 88.6543 71.6484C88.3066 71.3203 88.1328 70.8848 88.1328 70.3418C88.1328 69.8301 88.3086 69.4062 88.6602 69.0703C89.0117 68.7344 89.5098 68.5195 90.1543 68.4258L91.8652 68.1973V68.0625C91.8652 67.5586 91.748 67.2012 91.5137 66.9902C91.2793 66.7754 90.9668 66.668 90.5762 66.668C90.2637 66.668 89.9629 66.7266 89.6738 66.8438C89.3848 66.9609 89.1133 67.1406 88.8594 67.3828L88.2969 66.8027C88.6328 66.4785 88.9902 66.2402 89.3691 66.0879C89.748 65.9355 90.1699 65.8594 90.6348 65.8594C91.3613 65.8594 91.9082 66.0469 92.2754 66.4219C92.6426 66.793 92.8262 67.3516 92.8262 68.0977V72ZM91.8652 69.5625V68.9648L90.418 69.1641C89.9766 69.2266 89.6445 69.3379 89.4219 69.498C89.1992 69.6582 89.0879 69.9102 89.0879 70.2539C89.0879 70.6133 89.1914 70.8887 89.3984 71.0801C89.6094 71.2676 89.8652 71.3613 90.166 71.3613C90.6855 71.3613 91.0977 71.1914 91.4023 70.8516C91.7109 70.5117 91.8652 70.082 91.8652 69.5625ZM97.6426 66.8203C97.5684 66.7969 97.502 66.7812 97.4434 66.7734C97.3848 66.7617 97.3105 66.7559 97.2207 66.7559C96.7324 66.7559 96.3477 66.9648 96.0664 67.3828C95.7852 67.7969 95.6445 68.3164 95.6445 68.9414V72H94.6836V66H95.6445V67.1895H95.668C95.8047 66.7676 96.0137 66.4473 96.2949 66.2285C96.5762 66.0059 96.9004 65.8945 97.2676 65.8945C97.3887 65.8945 97.4902 65.9004 97.5723 65.9121C97.6582 65.9238 97.7344 65.9414 97.8008 65.9648L97.6426 66.8203ZM103.678 69.2168H99.4355C99.4512 69.8926 99.6289 70.4141 99.9688 70.7812C100.312 71.1445 100.793 71.3262 101.41 71.3262C101.68 71.3262 101.949 71.2871 102.219 71.209C102.492 71.127 102.762 70.998 103.027 70.8223L103.473 71.5078C103.133 71.7266 102.793 71.8867 102.453 71.9883C102.113 72.0898 101.74 72.1406 101.334 72.1406C100.428 72.1406 99.7207 71.8711 99.2129 71.332C98.7051 70.793 98.4492 70.041 98.4453 69.0762C98.4414 68.1113 98.6953 67.334 99.207 66.7441C99.7227 66.1543 100.391 65.8594 101.211 65.8594C101.992 65.8594 102.598 66.1152 103.027 66.627C103.461 67.1348 103.678 67.8398 103.678 68.7422V69.2168ZM102.693 68.4316C102.689 67.877 102.555 67.4453 102.289 67.1367C102.023 66.8242 101.658 66.668 101.193 66.668C100.736 66.668 100.348 66.8281 100.027 67.1484C99.7109 67.4648 99.5176 67.8926 99.4473 68.4316H102.693ZM110.117 72H109.156V68.5781C109.156 67.9414 109.039 67.4648 108.805 67.1484C108.574 66.8281 108.227 66.668 107.762 66.668C107.281 66.668 106.883 66.8496 106.566 67.2129C106.254 67.5723 106.098 68.0273 106.098 68.5781V72H105.137V66H106.098V66.9961H106.121C106.348 66.6172 106.625 66.334 106.953 66.1465C107.281 65.9551 107.66 65.8594 108.09 65.8594C108.746 65.8594 109.248 66.0723 109.596 66.498C109.943 66.9199 110.117 67.5312 110.117 68.332V72ZM116.152 71.6426C115.875 71.8145 115.598 71.9395 115.32 72.0176C115.043 72.0996 114.74 72.1406 114.412 72.1406C113.568 72.1406 112.875 71.8789 112.332 71.3555C111.793 70.832 111.523 70.0898 111.523 69.1289C111.523 68.1523 111.795 67.3633 112.338 66.7617C112.885 66.1602 113.635 65.8594 114.588 65.8594C114.896 65.8594 115.189 65.8965 115.467 65.9707C115.748 66.0449 116.031 66.166 116.316 66.334L115.912 67.0371C115.689 66.9121 115.471 66.8203 115.256 66.7617C115.041 66.7031 114.807 66.6738 114.553 66.6738C113.893 66.6738 113.387 66.8945 113.035 67.3359C112.684 67.7773 112.508 68.3379 112.508 69.0176C112.508 69.7676 112.691 70.3398 113.059 70.7344C113.43 71.1289 113.908 71.3262 114.494 71.3262C114.686 71.3262 114.885 71.2969 115.092 71.2383C115.303 71.1758 115.514 71.0801 115.725 70.9512L116.152 71.6426ZM122.252 66L119.422 73.1426C119.199 73.7051 118.92 74.125 118.584 74.4023C118.248 74.6836 117.854 74.8242 117.4 74.8242C117.283 74.8242 117.176 74.8164 117.078 74.8008C116.98 74.7891 116.887 74.7715 116.797 74.748L116.984 73.9277C117.055 73.9512 117.119 73.9668 117.178 73.9746C117.24 73.9863 117.301 73.9922 117.359 73.9922C117.617 73.9922 117.83 73.9258 117.998 73.793C118.17 73.6602 118.307 73.4727 118.408 73.2305L118.93 71.9883L116.586 66H117.652L119.275 70.6172C119.283 70.6445 119.297 70.6973 119.316 70.7754C119.34 70.8535 119.367 70.9531 119.398 71.0742H119.434C119.445 71.0273 119.459 70.9668 119.475 70.8926C119.494 70.8184 119.52 70.7305 119.551 70.6289L121.256 66H122.252ZM130.83 72H129.869V71.0625H129.846C129.639 71.4219 129.383 71.6914 129.078 71.8711C128.777 72.0508 128.426 72.1406 128.023 72.1406C127.461 72.1406 127.006 71.9766 126.658 71.6484C126.311 71.3203 126.137 70.8848 126.137 70.3418C126.137 69.8301 126.312 69.4062 126.664 69.0703C127.016 68.7344 127.514 68.5195 128.158 68.4258L129.869 68.1973V68.0625C129.869 67.5586 129.752 67.2012 129.518 66.9902C129.283 66.7754 128.971 66.668 128.58 66.668C128.268 66.668 127.967 66.7266 127.678 66.8438C127.389 66.9609 127.117 67.1406 126.863 67.3828L126.301 66.8027C126.637 66.4785 126.994 66.2402 127.373 66.0879C127.752 65.9355 128.174 65.8594 128.639 65.8594C129.365 65.8594 129.912 66.0469 130.279 66.4219C130.646 66.793 130.83 67.3516 130.83 68.0977V72ZM129.869 69.5625V68.9648L128.422 69.1641C127.98 69.2266 127.648 69.3379 127.426 69.498C127.203 69.6582 127.092 69.9102 127.092 70.2539C127.092 70.6133 127.195 70.8887 127.402 71.0801C127.613 71.2676 127.869 71.3613 128.17 71.3613C128.689 71.3613 129.102 71.1914 129.406 70.8516C129.715 70.5117 129.869 70.082 129.869 69.5625ZM137.668 72H136.707V68.5781C136.707 67.9414 136.59 67.4648 136.355 67.1484C136.125 66.8281 135.777 66.668 135.312 66.668C134.832 66.668 134.434 66.8496 134.117 67.2129C133.805 67.5723 133.648 68.0273 133.648 68.5781V72H132.688V66H133.648V66.9961H133.672C133.898 66.6172 134.176 66.334 134.504 66.1465C134.832 65.9551 135.211 65.8594 135.641 65.8594C136.297 65.8594 136.799 66.0723 137.146 66.498C137.494 66.9199 137.668 67.5312 137.668 68.332V72ZM143.621 70.9805C143.398 71.3672 143.115 71.6582 142.771 71.8535C142.432 72.0449 142.027 72.1406 141.559 72.1406C140.805 72.1406 140.201 71.873 139.748 71.3379C139.299 70.7988 139.074 70.0664 139.074 69.1406C139.074 68.1484 139.324 67.3535 139.824 66.7559C140.324 66.1582 140.99 65.8594 141.822 65.8594C142.236 65.8594 142.592 65.9414 142.889 66.1055C143.189 66.2656 143.434 66.5078 143.621 66.832H143.645V63.1172H144.605V72H143.645V70.9805H143.621ZM140.059 69.0938C140.059 69.7852 140.219 70.332 140.539 70.7344C140.863 71.1328 141.297 71.332 141.84 71.332C142.379 71.332 142.814 71.1387 143.146 70.752C143.479 70.3652 143.645 69.877 143.645 69.2871V68.4023C143.645 67.918 143.482 67.5078 143.158 67.1719C142.838 66.8359 142.434 66.668 141.945 66.668C141.359 66.668 140.898 66.8828 140.562 67.3125C140.227 67.7422 140.059 68.3359 140.059 69.0938ZM154.062 71.6426C153.785 71.8145 153.508 71.9395 153.23 72.0176C152.953 72.0996 152.65 72.1406 152.322 72.1406C151.479 72.1406 150.785 71.8789 150.242 71.3555C149.703 70.832 149.434 70.0898 149.434 69.1289C149.434 68.1523 149.705 67.3633 150.248 66.7617C150.795 66.1602 151.545 65.8594 152.498 65.8594C152.807 65.8594 153.1 65.8965 153.377 65.9707C153.658 66.0449 153.941 66.166 154.227 66.334L153.822 67.0371C153.6 66.9121 153.381 66.8203 153.166 66.7617C152.951 66.7031 152.717 66.6738 152.463 66.6738C151.803 66.6738 151.297 66.8945 150.945 67.3359C150.594 67.7773 150.418 68.3379 150.418 69.0176C150.418 69.7676 150.602 70.3398 150.969 70.7344C151.34 71.1289 151.818 71.3262 152.404 71.3262C152.596 71.3262 152.795 71.2969 153.002 71.2383C153.213 71.1758 153.424 71.0801 153.635 70.9512L154.062 71.6426ZM157.895 72.1406C157.008 72.1406 156.299 71.8613 155.768 71.3027C155.24 70.7402 154.977 69.9961 154.977 69.0703C154.977 68.0664 155.25 67.2812 155.797 66.7148C156.344 66.1484 157.09 65.8633 158.035 65.8594C158.93 65.8555 159.627 66.1309 160.127 66.6855C160.631 67.2402 160.883 68.0039 160.883 68.9766C160.883 69.9375 160.611 70.7051 160.068 71.2793C159.529 71.8535 158.805 72.1406 157.895 72.1406ZM157.965 71.332C158.586 71.332 159.062 71.1309 159.395 70.7285C159.73 70.3223 159.898 69.75 159.898 69.0117C159.898 68.2578 159.73 67.6797 159.395 67.2773C159.059 66.8711 158.582 66.668 157.965 66.668C157.348 66.668 156.859 66.8789 156.5 67.3008C156.141 67.7227 155.961 68.3008 155.961 69.0352C155.961 69.7461 156.143 70.3066 156.506 70.7168C156.869 71.127 157.355 71.332 157.965 71.332ZM167.398 72H166.438V68.5781C166.438 67.9414 166.32 67.4648 166.086 67.1484C165.855 66.8281 165.508 66.668 165.043 66.668C164.562 66.668 164.164 66.8496 163.848 67.2129C163.535 67.5723 163.379 68.0273 163.379 68.5781V72H162.418V66H163.379V66.9961H163.402C163.629 66.6172 163.906 66.334 164.234 66.1465C164.562 65.9551 164.941 65.8594 165.371 65.8594C166.027 65.8594 166.529 66.0723 166.877 66.498C167.225 66.9199 167.398 67.5312 167.398 68.332V72ZM172.074 71.9297C171.91 71.9961 171.748 72.0449 171.588 72.0762C171.432 72.1113 171.254 72.1289 171.055 72.1289C170.578 72.1289 170.203 71.9902 169.93 71.7129C169.66 71.4316 169.525 71.0176 169.525 70.4707V66.8203H168.494V66H169.525V64.5352L170.486 64.2246V66H171.998V66.8203H170.486V70.3594C170.486 70.7031 170.547 70.9512 170.668 71.1035C170.793 71.2559 170.979 71.332 171.225 71.332C171.342 71.332 171.455 71.3184 171.564 71.291C171.674 71.2637 171.766 71.2324 171.84 71.1973L172.074 71.9297ZM176.24 66.8203C176.166 66.7969 176.1 66.7812 176.041 66.7734C175.982 66.7617 175.908 66.7559 175.818 66.7559C175.33 66.7559 174.945 66.9648 174.664 67.3828C174.383 67.7969 174.242 68.3164 174.242 68.9414V72H173.281V66H174.242V67.1895H174.266C174.402 66.7676 174.611 66.4473 174.893 66.2285C175.174 66.0059 175.498 65.8945 175.865 65.8945C175.986 65.8945 176.088 65.9004 176.17 65.9121C176.256 65.9238 176.332 65.9414 176.398 65.9648L176.24 66.8203ZM179.961 72.1406C179.074 72.1406 178.365 71.8613 177.834 71.3027C177.307 70.7402 177.043 69.9961 177.043 69.0703C177.043 68.0664 177.316 67.2812 177.863 66.7148C178.41 66.1484 179.156 65.8633 180.102 65.8594C180.996 65.8555 181.693 66.1309 182.193 66.6855C182.697 67.2402 182.949 68.0039 182.949 68.9766C182.949 69.9375 182.678 70.7051 182.135 71.2793C181.596 71.8535 180.871 72.1406 179.961 72.1406ZM180.031 71.332C180.652 71.332 181.129 71.1309 181.461 70.7285C181.797 70.3223 181.965 69.75 181.965 69.0117C181.965 68.2578 181.797 67.6797 181.461 67.2773C181.125 66.8711 180.648 66.668 180.031 66.668C179.414 66.668 178.926 66.8789 178.566 67.3008C178.207 67.7227 178.027 68.3008 178.027 69.0352C178.027 69.7461 178.209 70.3066 178.572 70.7168C178.936 71.127 179.422 71.332 180.031 71.332ZM184.484 72V63.1172H185.445V72H184.484ZM186.828 71.5488L187.285 70.8105C187.547 70.9824 187.803 71.1133 188.053 71.2031C188.303 71.2891 188.572 71.332 188.861 71.332C189.271 71.332 189.582 71.2559 189.793 71.1035C190.008 70.9512 190.115 70.7227 190.115 70.418C190.115 70.1719 190.02 69.9648 189.828 69.7969C189.641 69.625 189.346 69.4883 188.943 69.3867C188.193 69.1953 187.68 68.9551 187.402 68.666C187.125 68.373 186.986 68.0137 186.986 67.5879C186.986 67.0957 187.172 66.6855 187.543 66.3574C187.914 66.0254 188.432 65.8594 189.096 65.8594C189.416 65.8594 189.721 65.9004 190.01 65.9824C190.299 66.0645 190.594 66.2051 190.895 66.4043L190.467 67.1309C190.193 66.959 189.947 66.8398 189.729 66.7734C189.514 66.7031 189.295 66.668 189.072 66.668C188.686 66.668 188.391 66.7402 188.188 66.8848C187.984 67.0254 187.883 67.2305 187.883 67.5C187.883 67.7695 187.986 67.9727 188.193 68.1094C188.404 68.2461 188.742 68.375 189.207 68.4961C189.816 68.6602 190.271 68.8906 190.572 69.1875C190.877 69.4805 191.029 69.8652 191.029 70.3418C191.029 70.8965 190.832 71.3359 190.438 71.6602C190.047 71.9805 189.51 72.1406 188.826 72.1406C188.459 72.1406 188.105 72.0898 187.766 71.9883C187.43 71.8867 187.117 71.7402 186.828 71.5488ZM16.0859 86.918V90H15.1016V81.5977H17.4102C18.3086 81.5977 19.0039 81.8203 19.4961 82.2656C19.9922 82.7109 20.2402 83.3398 20.2402 84.1523C20.2402 84.9609 19.9648 85.625 19.4141 86.1445C18.8672 86.6602 18.127 86.918 17.1934 86.918H16.0859ZM16.0859 82.4883V86.0273H17.1172C17.7969 86.0273 18.3145 85.8691 18.6699 85.5527C19.0293 85.2324 19.209 84.7812 19.209 84.1992C19.209 83.6289 19.0449 83.2012 18.7168 82.916C18.3887 82.6309 17.8965 82.4883 17.2402 82.4883H16.0859ZM24.6582 84.8203C24.584 84.7969 24.5176 84.7812 24.459 84.7734C24.4004 84.7617 24.3262 84.7559 24.2363 84.7559C23.748 84.7559 23.3633 84.9648 23.082 85.3828C22.8008 85.7969 22.6602 86.3164 22.6602 86.9414V90H21.6992V84H22.6602V85.1895H22.6836C22.8203 84.7676 23.0293 84.4473 23.3105 84.2285C23.5918 84.0059 23.916 83.8945 24.2832 83.8945C24.4043 83.8945 24.5059 83.9004 24.5879 83.9121C24.6738 83.9238 24.75 83.9414 24.8164 83.9648L24.6582 84.8203ZM26.3633 82.5645C26.168 82.5645 26.0039 82.5 25.8711 82.3711C25.7383 82.2383 25.6719 82.0762 25.6719 81.8848C25.6719 81.6934 25.7383 81.5332 25.8711 81.4043C26.0039 81.2715 26.168 81.2051 26.3633 81.2051C26.5586 81.2051 26.7227 81.2715 26.8555 81.4043C26.9883 81.5332 27.0547 81.6934 27.0547 81.8848C27.0547 82.0762 26.9883 82.2383 26.8555 82.3711C26.7227 82.5 26.5586 82.5645 26.3633 82.5645ZM26.832 90H25.8711V84H26.832V90ZM33.4941 84L31.1035 90H30.1602L27.8867 84H28.9414L30.4648 88.3594C30.5195 88.5195 30.5645 88.6699 30.5996 88.8105C30.6348 88.9473 30.6602 89.0762 30.6758 89.1973H30.6992C30.7188 89.0449 30.7441 88.9023 30.7754 88.7695C30.8066 88.6328 30.8438 88.5039 30.8867 88.3828L32.4805 84H33.4941ZM38.7793 90H37.8184V89.0625H37.7949C37.5879 89.4219 37.332 89.6914 37.0273 89.8711C36.7266 90.0508 36.375 90.1406 35.9727 90.1406C35.4102 90.1406 34.9551 89.9766 34.6074 89.6484C34.2598 89.3203 34.0859 88.8848 34.0859 88.3418C34.0859 87.8301 34.2617 87.4062 34.6133 87.0703C34.9648 86.7344 35.4629 86.5195 36.1074 86.4258L37.8184 86.1973V86.0625C37.8184 85.5586 37.7012 85.2012 37.4668 84.9902C37.2324 84.7754 36.9199 84.668 36.5293 84.668C36.2168 84.668 35.916 84.7266 35.627 84.8438C35.3379 84.9609 35.0664 85.1406 34.8125 85.3828L34.25 84.8027C34.5859 84.4785 34.9434 84.2402 35.3223 84.0879C35.7012 83.9355 36.123 83.8594 36.5879 83.8594C37.3145 83.8594 37.8613 84.0469 38.2285 84.4219C38.5957 84.793 38.7793 85.3516 38.7793 86.0977V90ZM37.8184 87.5625V86.9648L36.3711 87.1641C35.9297 87.2266 35.5977 87.3379 35.375 87.498C35.1523 87.6582 35.041 87.9102 35.041 88.2539C35.041 88.6133 35.1445 88.8887 35.3516 89.0801C35.5625 89.2676 35.8184 89.3613 36.1191 89.3613C36.6387 89.3613 37.0508 89.1914 37.3555 88.8516C37.6641 88.5117 37.8184 88.082 37.8184 87.5625ZM44.8555 89.6426C44.5781 89.8145 44.3008 89.9395 44.0234 90.0176C43.7461 90.0996 43.4434 90.1406 43.1152 90.1406C42.2715 90.1406 41.5781 89.8789 41.0352 89.3555C40.4961 88.832 40.2266 88.0898 40.2266 87.1289C40.2266 86.1523 40.498 85.3633 41.041 84.7617C41.5879 84.1602 42.3379 83.8594 43.291 83.8594C43.5996 83.8594 43.8926 83.8965 44.1699 83.9707C44.4512 84.0449 44.7344 84.166 45.0195 84.334L44.6152 85.0371C44.3926 84.9121 44.1738 84.8203 43.959 84.7617C43.7441 84.7031 43.5098 84.6738 43.2559 84.6738C42.5957 84.6738 42.0898 84.8945 41.7383 85.3359C41.3867 85.7773 41.2109 86.3379 41.2109 87.0176C41.2109 87.7676 41.3945 88.3398 41.7617 88.7344C42.1328 89.1289 42.6113 89.3262 43.1973 89.3262C43.3887 89.3262 43.5879 89.2969 43.7949 89.2383C44.0059 89.1758 44.2168 89.0801 44.4277 88.9512L44.8555 89.6426ZM50.9551 84L48.125 91.1426C47.9023 91.7051 47.623 92.125 47.2871 92.4023C46.9512 92.6836 46.5566 92.8242 46.1035 92.8242C45.9863 92.8242 45.8789 92.8164 45.7812 92.8008C45.6836 92.7891 45.5898 92.7715 45.5 92.748L45.6875 91.9277C45.7578 91.9512 45.8223 91.9668 45.8809 91.9746C45.9434 91.9863 46.0039 91.9922 46.0625 91.9922C46.3203 91.9922 46.5332 91.9258 46.7012 91.793C46.873 91.6602 47.0098 91.4727 47.1113 91.2305L47.6328 89.9883L45.2891 84H46.3555L47.9785 88.6172C47.9863 88.6445 48 88.6973 48.0195 88.7754C48.043 88.8535 48.0703 88.9531 48.1016 89.0742H48.1367C48.1484 89.0273 48.1621 88.9668 48.1777 88.8926C48.1973 88.8184 48.2227 88.7305 48.2539 88.6289L49.959 84H50.9551ZM58.2441 84.8203C58.1699 84.7969 58.1035 84.7812 58.0449 84.7734C57.9863 84.7617 57.9121 84.7559 57.8223 84.7559C57.334 84.7559 56.9492 84.9648 56.668 85.3828C56.3867 85.7969 56.2461 86.3164 56.2461 86.9414V90H55.2852V84H56.2461V85.1895H56.2695C56.4062 84.7676 56.6152 84.4473 56.8965 84.2285C57.1777 84.0059 57.502 83.8945 57.8691 83.8945C57.9902 83.8945 58.0918 83.9004 58.1738 83.9121C58.2598 83.9238 58.3359 83.9414 58.4023 83.9648L58.2441 84.8203ZM64.2793 87.2168H60.0371C60.0527 87.8926 60.2305 88.4141 60.5703 88.7812C60.9141 89.1445 61.3945 89.3262 62.0117 89.3262C62.2812 89.3262 62.5508 89.2871 62.8203 89.209C63.0938 89.127 63.3633 88.998 63.6289 88.8223L64.0742 89.5078C63.7344 89.7266 63.3945 89.8867 63.0547 89.9883C62.7148 90.0898 62.3418 90.1406 61.9355 90.1406C61.0293 90.1406 60.3223 89.8711 59.8145 89.332C59.3066 88.793 59.0508 88.041 59.0469 87.0762C59.043 86.1113 59.2969 85.334 59.8086 84.7441C60.3242 84.1543 60.9922 83.8594 61.8125 83.8594C62.5938 83.8594 63.1992 84.1152 63.6289 84.627C64.0625 85.1348 64.2793 85.8398 64.2793 86.7422V87.2168ZM63.2949 86.4316C63.291 85.877 63.1562 85.4453 62.8906 85.1367C62.625 84.8242 62.2598 84.668 61.7949 84.668C61.3379 84.668 60.9492 84.8281 60.6289 85.1484C60.3125 85.4648 60.1191 85.8926 60.0488 86.4316H63.2949ZM65.1758 89.5488L65.6328 88.8105C65.8945 88.9824 66.1504 89.1133 66.4004 89.2031C66.6504 89.2891 66.9199 89.332 67.209 89.332C67.6191 89.332 67.9297 89.2559 68.1406 89.1035C68.3555 88.9512 68.4629 88.7227 68.4629 88.418C68.4629 88.1719 68.3672 87.9648 68.1758 87.7969C67.9883 87.625 67.6934 87.4883 67.291 87.3867C66.541 87.1953 66.0273 86.9551 65.75 86.666C65.4727 86.373 65.334 86.0137 65.334 85.5879C65.334 85.0957 65.5195 84.6855 65.8906 84.3574C66.2617 84.0254 66.7793 83.8594 67.4434 83.8594C67.7637 83.8594 68.0684 83.9004 68.3574 83.9824C68.6465 84.0645 68.9414 84.2051 69.2422 84.4043L68.8145 85.1309C68.541 84.959 68.2949 84.8398 68.0762 84.7734C67.8613 84.7031 67.6426 84.668 67.4199 84.668C67.0332 84.668 66.7383 84.7402 66.5352 84.8848C66.332 85.0254 66.2305 85.2305 66.2305 85.5C66.2305 85.7695 66.334 85.9727 66.541 86.1094C66.752 86.2461 67.0898 86.375 67.5547 86.4961C68.1641 86.6602 68.6191 86.8906 68.9199 87.1875C69.2246 87.4805 69.377 87.8652 69.377 88.3418C69.377 88.8965 69.1797 89.3359 68.7852 89.6602C68.3945 89.9805 67.8574 90.1406 67.1738 90.1406C66.8066 90.1406 66.4531 90.0898 66.1133 89.9883C65.7773 89.8867 65.4648 89.7402 65.1758 89.5488ZM73.3438 90.1406C72.457 90.1406 71.748 89.8613 71.2168 89.3027C70.6895 88.7402 70.4258 87.9961 70.4258 87.0703C70.4258 86.0664 70.6992 85.2812 71.2461 84.7148C71.793 84.1484 72.5391 83.8633 73.4844 83.8594C74.3789 83.8555 75.0762 84.1309 75.5762 84.6855C76.0801 85.2402 76.332 86.0039 76.332 86.9766C76.332 87.9375 76.0605 88.7051 75.5176 89.2793C74.9785 89.8535 74.2539 90.1406 73.3438 90.1406ZM73.4141 89.332C74.0352 89.332 74.5117 89.1309 74.8438 88.7285C75.1797 88.3223 75.3477 87.75 75.3477 87.0117C75.3477 86.2578 75.1797 85.6797 74.8438 85.2773C74.5078 84.8711 74.0312 84.668 73.4141 84.668C72.7969 84.668 72.3086 84.8789 71.9492 85.3008C71.5898 85.7227 71.4102 86.3008 71.4102 87.0352C71.4102 87.7461 71.5918 88.3066 71.9551 88.7168C72.3184 89.127 72.8047 89.332 73.4141 89.332ZM82.7188 90H81.7578V89.0508H81.7344C81.5352 89.4141 81.2812 89.6875 80.9727 89.8711C80.6641 90.0508 80.3008 90.1406 79.8828 90.1406C79.168 90.1406 78.6309 89.9277 78.2715 89.502C77.916 89.0762 77.7383 88.4375 77.7383 87.5859V84H78.6934V87.4336C78.6934 88.0664 78.8145 88.541 79.0566 88.8574C79.2988 89.1738 79.6621 89.332 80.1465 89.332C80.6152 89.332 81 89.1602 81.3008 88.8164C81.6055 88.4688 81.7578 88.0156 81.7578 87.457V84H82.7188V90ZM87.623 84.8203C87.5488 84.7969 87.4824 84.7812 87.4238 84.7734C87.3652 84.7617 87.291 84.7559 87.2012 84.7559C86.7129 84.7559 86.3281 84.9648 86.0469 85.3828C85.7656 85.7969 85.625 86.3164 85.625 86.9414V90H84.6641V84H85.625V85.1895H85.6484C85.7852 84.7676 85.9941 84.4473 86.2754 84.2285C86.5566 84.0059 86.8809 83.8945 87.248 83.8945C87.3691 83.8945 87.4707 83.9004 87.5527 83.9121C87.6387 83.9238 87.7148 83.9414 87.7812 83.9648L87.623 84.8203ZM93.0547 89.6426C92.7773 89.8145 92.5 89.9395 92.2227 90.0176C91.9453 90.0996 91.6426 90.1406 91.3145 90.1406C90.4707 90.1406 89.7773 89.8789 89.2344 89.3555C88.6953 88.832 88.4258 88.0898 88.4258 87.1289C88.4258 86.1523 88.6973 85.3633 89.2402 84.7617C89.7871 84.1602 90.5371 83.8594 91.4902 83.8594C91.7988 83.8594 92.0918 83.8965 92.3691 83.9707C92.6504 84.0449 92.9336 84.166 93.2188 84.334L92.8145 85.0371C92.5918 84.9121 92.373 84.8203 92.1582 84.7617C91.9434 84.7031 91.709 84.6738 91.4551 84.6738C90.7949 84.6738 90.2891 84.8945 89.9375 85.3359C89.5859 85.7773 89.4102 86.3379 89.4102 87.0176C89.4102 87.7676 89.5938 88.3398 89.9609 88.7344C90.332 89.1289 90.8105 89.3262 91.3965 89.3262C91.5879 89.3262 91.7871 89.2969 91.9941 89.2383C92.2051 89.1758 92.416 89.0801 92.627 88.9512L93.0547 89.6426ZM99.2012 87.2168H94.959C94.9746 87.8926 95.1523 88.4141 95.4922 88.7812C95.8359 89.1445 96.3164 89.3262 96.9336 89.3262C97.2031 89.3262 97.4727 89.2871 97.7422 89.209C98.0156 89.127 98.2852 88.998 98.5508 88.8223L98.9961 89.5078C98.6562 89.7266 98.3164 89.8867 97.9766 89.9883C97.6367 90.0898 97.2637 90.1406 96.8574 90.1406C95.9512 90.1406 95.2441 89.8711 94.7363 89.332C94.2285 88.793 93.9727 88.041 93.9688 87.0762C93.9648 86.1113 94.2188 85.334 94.7305 84.7441C95.2461 84.1543 95.9141 83.8594 96.7344 83.8594C97.5156 83.8594 98.1211 84.1152 98.5508 84.627C98.9844 85.1348 99.2012 85.8398 99.2012 86.7422V87.2168ZM98.2168 86.4316C98.2129 85.877 98.0781 85.4453 97.8125 85.1367C97.5469 84.8242 97.1816 84.668 96.7168 84.668C96.2598 84.668 95.8711 84.8281 95.5508 85.1484C95.2344 85.4648 95.041 85.8926 94.9707 86.4316H98.2168ZM108.805 90H107.844V89.0508H107.82C107.621 89.4141 107.367 89.6875 107.059 89.8711C106.75 90.0508 106.387 90.1406 105.969 90.1406C105.254 90.1406 104.717 89.9277 104.357 89.502C104.002 89.0762 103.824 88.4375 103.824 87.5859V84H104.779V87.4336C104.779 88.0664 104.9 88.541 105.143 88.8574C105.385 89.1738 105.748 89.332 106.232 89.332C106.701 89.332 107.086 89.1602 107.387 88.8164C107.691 88.4688 107.844 88.0156 107.844 87.457V84H108.805V90ZM110.188 89.5488L110.645 88.8105C110.906 88.9824 111.162 89.1133 111.412 89.2031C111.662 89.2891 111.932 89.332 112.221 89.332C112.631 89.332 112.941 89.2559 113.152 89.1035C113.367 88.9512 113.475 88.7227 113.475 88.418C113.475 88.1719 113.379 87.9648 113.188 87.7969C113 87.625 112.705 87.4883 112.303 87.3867C111.553 87.1953 111.039 86.9551 110.762 86.666C110.484 86.373 110.346 86.0137 110.346 85.5879C110.346 85.0957 110.531 84.6855 110.902 84.3574C111.273 84.0254 111.791 83.8594 112.455 83.8594C112.775 83.8594 113.08 83.9004 113.369 83.9824C113.658 84.0645 113.953 84.2051 114.254 84.4043L113.826 85.1309C113.553 84.959 113.307 84.8398 113.088 84.7734C112.873 84.7031 112.654 84.668 112.432 84.668C112.045 84.668 111.75 84.7402 111.547 84.8848C111.344 85.0254 111.242 85.2305 111.242 85.5C111.242 85.7695 111.346 85.9727 111.553 86.1094C111.764 86.2461 112.102 86.375 112.566 86.4961C113.176 86.6602 113.631 86.8906 113.932 87.1875C114.236 87.4805 114.389 87.8652 114.389 88.3418C114.389 88.8965 114.191 89.3359 113.797 89.6602C113.406 89.9805 112.869 90.1406 112.186 90.1406C111.818 90.1406 111.465 90.0898 111.125 89.9883C110.789 89.8867 110.477 89.7402 110.188 89.5488ZM120.096 90H119.135V89.0625H119.111C118.904 89.4219 118.648 89.6914 118.344 89.8711C118.043 90.0508 117.691 90.1406 117.289 90.1406C116.727 90.1406 116.271 89.9766 115.924 89.6484C115.576 89.3203 115.402 88.8848 115.402 88.3418C115.402 87.8301 115.578 87.4062 115.93 87.0703C116.281 86.7344 116.779 86.5195 117.424 86.4258L119.135 86.1973V86.0625C119.135 85.5586 119.018 85.2012 118.783 84.9902C118.549 84.7754 118.236 84.668 117.846 84.668C117.533 84.668 117.232 84.7266 116.943 84.8438C116.654 84.9609 116.383 85.1406 116.129 85.3828L115.566 84.8027C115.902 84.4785 116.26 84.2402 116.639 84.0879C117.018 83.9355 117.439 83.8594 117.904 83.8594C118.631 83.8594 119.178 84.0469 119.545 84.4219C119.912 84.793 120.096 85.3516 120.096 86.0977V90ZM119.135 87.5625V86.9648L117.688 87.1641C117.246 87.2266 116.914 87.3379 116.691 87.498C116.469 87.6582 116.357 87.9102 116.357 88.2539C116.357 88.6133 116.461 88.8887 116.668 89.0801C116.879 89.2676 117.135 89.3613 117.436 89.3613C117.955 89.3613 118.367 89.1914 118.672 88.8516C118.98 88.5117 119.135 88.082 119.135 87.5625ZM127.074 89.6777C127.074 90.7285 126.805 91.5156 126.266 92.0391C125.73 92.5625 124.996 92.8242 124.062 92.8242C123.652 92.8242 123.27 92.7852 122.914 92.707C122.562 92.6289 122.199 92.502 121.824 92.3262L122.176 91.5879C122.488 91.7324 122.793 91.8379 123.09 91.9043C123.391 91.9707 123.711 92.0039 124.051 92.0039C124.691 92.0039 125.195 91.8223 125.562 91.459C125.93 91.0957 126.113 90.5449 126.113 89.8066V88.9922H126.09C125.863 89.375 125.578 89.6621 125.234 89.8535C124.891 90.0449 124.488 90.1406 124.027 90.1406C123.281 90.1406 122.68 89.875 122.223 89.3438C121.77 88.8086 121.543 88.0918 121.543 87.1934C121.543 86.209 121.793 85.4082 122.293 84.791C122.797 84.1699 123.463 83.8594 124.291 83.8594C124.697 83.8594 125.049 83.9414 125.346 84.1055C125.646 84.2656 125.895 84.5078 126.09 84.832H126.113V84H127.074V89.6777ZM126.113 87.2871V86.4023C126.113 85.9258 125.951 85.5176 125.627 85.1777C125.307 84.8379 124.906 84.668 124.426 84.668C123.836 84.668 123.371 84.8711 123.031 85.2773C122.695 85.6836 122.527 86.3008 122.527 87.1289C122.527 87.8398 122.684 88.3848 122.996 88.7637C123.309 89.1426 123.74 89.332 124.291 89.332C124.83 89.332 125.268 89.1406 125.604 88.7578C125.943 88.375 126.113 87.8848 126.113 87.2871ZM133.842 87.2168H129.6C129.615 87.8926 129.793 88.4141 130.133 88.7812C130.477 89.1445 130.957 89.3262 131.574 89.3262C131.844 89.3262 132.113 89.2871 132.383 89.209C132.656 89.127 132.926 88.998 133.191 88.8223L133.637 89.5078C133.297 89.7266 132.957 89.8867 132.617 89.9883C132.277 90.0898 131.904 90.1406 131.498 90.1406C130.592 90.1406 129.885 89.8711 129.377 89.332C128.869 88.793 128.613 88.041 128.609 87.0762C128.605 86.1113 128.859 85.334 129.371 84.7441C129.887 84.1543 130.555 83.8594 131.375 83.8594C132.156 83.8594 132.762 84.1152 133.191 84.627C133.625 85.1348 133.842 85.8398 133.842 86.7422V87.2168ZM132.857 86.4316C132.854 85.877 132.719 85.4453 132.453 85.1367C132.188 84.8242 131.822 84.668 131.357 84.668C130.9 84.668 130.512 84.8281 130.191 85.1484C129.875 85.4648 129.682 85.8926 129.611 86.4316H132.857ZM25.0391 99.5977L22.666 108H21.5117L19.7832 101.859C19.748 101.727 19.7188 101.59 19.6953 101.449C19.6719 101.305 19.6562 101.156 19.6484 101.004H19.625C19.6133 101.148 19.5938 101.291 19.5664 101.432C19.543 101.572 19.5117 101.711 19.4727 101.848L17.7324 108H16.5898L14.1289 99.5977H15.2129L17 106.043C17.0391 106.176 17.0703 106.312 17.0938 106.453C17.1172 106.594 17.1328 106.738 17.1406 106.887H17.1699C17.1816 106.781 17.2012 106.658 17.2285 106.518C17.2598 106.377 17.3008 106.219 17.3516 106.043L19.209 99.5977H20.1523L21.9336 106.09C21.9648 106.199 21.9922 106.32 22.0156 106.453C22.0391 106.582 22.0586 106.723 22.0742 106.875H22.0977C22.1055 106.773 22.123 106.656 22.1504 106.523C22.1777 106.387 22.2129 106.234 22.2559 106.066L23.9727 99.5977H25.0391ZM26.6797 100.564C26.4844 100.564 26.3203 100.5 26.1875 100.371C26.0547 100.238 25.9883 100.076 25.9883 99.8848C25.9883 99.6934 26.0547 99.5332 26.1875 99.4043C26.3203 99.2715 26.4844 99.2051 26.6797 99.2051C26.875 99.2051 27.0391 99.2715 27.1719 99.4043C27.3047 99.5332 27.3711 99.6934 27.3711 99.8848C27.3711 100.076 27.3047 100.238 27.1719 100.371C27.0391 100.5 26.875 100.564 26.6797 100.564ZM27.1484 108H26.1875V102H27.1484V108ZM34.0742 108H33.1133V104.578C33.1133 103.941 32.9961 103.465 32.7617 103.148C32.5312 102.828 32.1836 102.668 31.7188 102.668C31.2383 102.668 30.8398 102.85 30.5234 103.213C30.2109 103.572 30.0547 104.027 30.0547 104.578V108H29.0938V102H30.0547V102.996H30.0781C30.3047 102.617 30.582 102.334 30.9102 102.146C31.2383 101.955 31.6172 101.859 32.0469 101.859C32.7031 101.859 33.2051 102.072 33.5527 102.498C33.9004 102.92 34.0742 103.531 34.0742 104.332V108ZM40.0273 106.98C39.8047 107.367 39.5215 107.658 39.1777 107.854C38.8379 108.045 38.4336 108.141 37.9648 108.141C37.2109 108.141 36.6074 107.873 36.1543 107.338C35.7051 106.799 35.4805 106.066 35.4805 105.141C35.4805 104.148 35.7305 103.354 36.2305 102.756C36.7305 102.158 37.3965 101.859 38.2285 101.859C38.6426 101.859 38.998 101.941 39.2949 102.105C39.5957 102.266 39.8398 102.508 40.0273 102.832H40.0508V99.1172H41.0117V108H40.0508V106.98H40.0273ZM36.4648 105.094C36.4648 105.785 36.625 106.332 36.9453 106.734C37.2695 107.133 37.7031 107.332 38.2461 107.332C38.7852 107.332 39.2207 107.139 39.5527 106.752C39.8848 106.365 40.0508 105.877 40.0508 105.287V104.402C40.0508 103.918 39.8887 103.508 39.5645 103.172C39.2441 102.836 38.8398 102.668 38.3516 102.668C37.7656 102.668 37.3047 102.883 36.9688 103.312C36.6328 103.742 36.4648 104.336 36.4648 105.094ZM45.4648 108.141C44.5781 108.141 43.8691 107.861 43.3379 107.303C42.8105 106.74 42.5469 105.996 42.5469 105.07C42.5469 104.066 42.8203 103.281 43.3672 102.715C43.9141 102.148 44.6602 101.863 45.6055 101.859C46.5 101.855 47.1973 102.131 47.6973 102.686C48.2012 103.24 48.4531 104.004 48.4531 104.977C48.4531 105.938 48.1816 106.705 47.6387 107.279C47.0996 107.854 46.375 108.141 45.4648 108.141ZM45.5352 107.332C46.1562 107.332 46.6328 107.131 46.9648 106.729C47.3008 106.322 47.4688 105.75 47.4688 105.012C47.4688 104.258 47.3008 103.68 46.9648 103.277C46.6289 102.871 46.1523 102.668 45.5352 102.668C44.918 102.668 44.4297 102.879 44.0703 103.301C43.7109 103.723 43.5312 104.301 43.5312 105.035C43.5312 105.746 43.7129 106.307 44.0762 106.717C44.4395 107.127 44.9258 107.332 45.5352 107.332ZM57.5469 102L55.748 108H54.752L53.5098 103.693C53.4785 103.584 53.457 103.492 53.4453 103.418C53.4375 103.34 53.4297 103.25 53.4219 103.148H53.3984C53.3906 103.25 53.377 103.338 53.3574 103.412C53.3379 103.486 53.3105 103.58 53.2754 103.693L51.9336 108H50.9727L49.1562 102H50.1641L51.4062 106.512C51.4258 106.578 51.4414 106.656 51.4531 106.746C51.4688 106.836 51.4805 106.938 51.4883 107.051H51.5352C51.543 106.965 51.5547 106.877 51.5703 106.787C51.5859 106.693 51.6094 106.598 51.6406 106.5L53.0234 102H53.9023L55.1445 106.523C55.1641 106.598 55.1797 106.68 55.1914 106.77C55.207 106.855 55.2207 106.953 55.2324 107.062H55.2793C55.2832 106.984 55.293 106.9 55.3086 106.811C55.3281 106.721 55.3516 106.625 55.3789 106.523L56.5977 102H57.5469ZM58.0977 107.549L58.5547 106.811C58.8164 106.982 59.0723 107.113 59.3223 107.203C59.5723 107.289 59.8418 107.332 60.1309 107.332C60.541 107.332 60.8516 107.256 61.0625 107.104C61.2773 106.951 61.3848 106.723 61.3848 106.418C61.3848 106.172 61.2891 105.965 61.0977 105.797C60.9102 105.625 60.6152 105.488 60.2129 105.387C59.4629 105.195 58.9492 104.955 58.6719 104.666C58.3945 104.373 58.2559 104.014 58.2559 103.588C58.2559 103.096 58.4414 102.686 58.8125 102.357C59.1836 102.025 59.7012 101.859 60.3652 101.859C60.6855 101.859 60.9902 101.9 61.2793 101.982C61.5684 102.064 61.8633 102.205 62.1641 102.404L61.7363 103.131C61.4629 102.959 61.2168 102.84 60.998 102.773C60.7832 102.703 60.5645 102.668 60.3418 102.668C59.9551 102.668 59.6602 102.74 59.457 102.885C59.2539 103.025 59.1523 103.23 59.1523 103.5C59.1523 103.77 59.2559 103.973 59.4629 104.109C59.6738 104.246 60.0117 104.375 60.4766 104.496C61.0859 104.66 61.541 104.891 61.8418 105.188C62.1465 105.48 62.2988 105.865 62.2988 106.342C62.2988 106.896 62.1016 107.336 61.707 107.66C61.3164 107.98 60.7793 108.141 60.0957 108.141C59.7285 108.141 59.375 108.09 59.0352 107.988C58.6992 107.887 58.3867 107.74 58.0977 107.549ZM71.1875 106.98C70.9648 107.367 70.6816 107.658 70.3379 107.854C69.998 108.045 69.5938 108.141 69.125 108.141C68.3711 108.141 67.7676 107.873 67.3145 107.338C66.8652 106.799 66.6406 106.066 66.6406 105.141C66.6406 104.148 66.8906 103.354 67.3906 102.756C67.8906 102.158 68.5566 101.859 69.3887 101.859C69.8027 101.859 70.1582 101.941 70.4551 102.105C70.7559 102.266 71 102.508 71.1875 102.832H71.2109V99.1172H72.1719V108H71.2109V106.98H71.1875ZM67.625 105.094C67.625 105.785 67.7852 106.332 68.1055 106.734C68.4297 107.133 68.8633 107.332 69.4062 107.332C69.9453 107.332 70.3809 107.139 70.7129 106.752C71.0449 106.365 71.2109 105.877 71.2109 105.287V104.402C71.2109 103.918 71.0488 103.508 70.7246 103.172C70.4043 102.836 70 102.668 69.5117 102.668C68.9258 102.668 68.4648 102.883 68.1289 103.312C67.793 103.742 67.625 104.336 67.625 105.094ZM74.6094 100.564C74.4141 100.564 74.25 100.5 74.1172 100.371C73.9844 100.238 73.918 100.076 73.918 99.8848C73.918 99.6934 73.9844 99.5332 74.1172 99.4043C74.25 99.2715 74.4141 99.2051 74.6094 99.2051C74.8047 99.2051 74.9688 99.2715 75.1016 99.4043C75.2344 99.5332 75.3008 99.6934 75.3008 99.8848C75.3008 100.076 75.2344 100.238 75.1016 100.371C74.9688 100.5 74.8047 100.564 74.6094 100.564ZM75.0781 108H74.1172V102H75.0781V108ZM81.2715 108H80.3105V107.062H80.2871C80.0801 107.422 79.8242 107.691 79.5195 107.871C79.2188 108.051 78.8672 108.141 78.4648 108.141C77.9023 108.141 77.4473 107.977 77.0996 107.648C76.752 107.32 76.5781 106.885 76.5781 106.342C76.5781 105.83 76.7539 105.406 77.1055 105.07C77.457 104.734 77.9551 104.52 78.5996 104.426L80.3105 104.197V104.062C80.3105 103.559 80.1934 103.201 79.959 102.99C79.7246 102.775 79.4121 102.668 79.0215 102.668C78.709 102.668 78.4082 102.727 78.1191 102.844C77.8301 102.961 77.5586 103.141 77.3047 103.383L76.7422 102.803C77.0781 102.479 77.4355 102.24 77.8145 102.088C78.1934 101.936 78.6152 101.859 79.0801 101.859C79.8066 101.859 80.3535 102.047 80.7207 102.422C81.0879 102.793 81.2715 103.352 81.2715 104.098V108ZM80.3105 105.562V104.965L78.8633 105.164C78.4219 105.227 78.0898 105.338 77.8672 105.498C77.6445 105.658 77.5332 105.91 77.5332 106.254C77.5332 106.613 77.6367 106.889 77.8438 107.08C78.0547 107.268 78.3105 107.361 78.6113 107.361C79.1309 107.361 79.543 107.191 79.8477 106.852C80.1562 106.512 80.3105 106.082 80.3105 105.562ZM88.25 107.678C88.25 108.729 87.9805 109.516 87.4414 110.039C86.9062 110.562 86.1719 110.824 85.2383 110.824C84.8281 110.824 84.4453 110.785 84.0898 110.707C83.7383 110.629 83.375 110.502 83 110.326L83.3516 109.588C83.6641 109.732 83.9688 109.838 84.2656 109.904C84.5664 109.971 84.8867 110.004 85.2266 110.004C85.8672 110.004 86.3711 109.822 86.7383 109.459C87.1055 109.096 87.2891 108.545 87.2891 107.807V106.992H87.2656C87.0391 107.375 86.7539 107.662 86.4102 107.854C86.0664 108.045 85.6641 108.141 85.2031 108.141C84.457 108.141 83.8555 107.875 83.3984 107.344C82.9453 106.809 82.7188 106.092 82.7188 105.193C82.7188 104.209 82.9688 103.408 83.4688 102.791C83.9727 102.17 84.6387 101.859 85.4668 101.859C85.873 101.859 86.2246 101.941 86.5215 102.105C86.8223 102.266 87.0703 102.508 87.2656 102.832H87.2891V102H88.25V107.678ZM87.2891 105.287V104.402C87.2891 103.926 87.127 103.518 86.8027 103.178C86.4824 102.838 86.082 102.668 85.6016 102.668C85.0117 102.668 84.5469 102.871 84.207 103.277C83.8711 103.684 83.7031 104.301 83.7031 105.129C83.7031 105.84 83.8594 106.385 84.1719 106.764C84.4844 107.143 84.916 107.332 85.4668 107.332C86.0059 107.332 86.4434 107.141 86.7793 106.758C87.1191 106.375 87.2891 105.885 87.2891 105.287ZM95.1758 108H94.2148V104.578C94.2148 103.941 94.0977 103.465 93.8633 103.148C93.6328 102.828 93.2852 102.668 92.8203 102.668C92.3398 102.668 91.9414 102.85 91.625 103.213C91.3125 103.572 91.1562 104.027 91.1562 104.578V108H90.1953V102H91.1562V102.996H91.1797C91.4062 102.617 91.6836 102.334 92.0117 102.146C92.3398 101.955 92.7188 101.859 93.1484 101.859C93.8047 101.859 94.3066 102.072 94.6543 102.498C95.002 102.92 95.1758 103.531 95.1758 104.332V108ZM99.5 108.141C98.6133 108.141 97.9043 107.861 97.373 107.303C96.8457 106.74 96.582 105.996 96.582 105.07C96.582 104.066 96.8555 103.281 97.4023 102.715C97.9492 102.148 98.6953 101.863 99.6406 101.859C100.535 101.855 101.232 102.131 101.732 102.686C102.236 103.24 102.488 104.004 102.488 104.977C102.488 105.938 102.217 106.705 101.674 107.279C101.135 107.854 100.41 108.141 99.5 108.141ZM99.5703 107.332C100.191 107.332 100.668 107.131 101 106.729C101.336 106.322 101.504 105.75 101.504 105.012C101.504 104.258 101.336 103.68 101 103.277C100.664 102.871 100.188 102.668 99.5703 102.668C98.9531 102.668 98.4648 102.879 98.1055 103.301C97.7461 103.723 97.5664 104.301 97.5664 105.035C97.5664 105.746 97.748 106.307 98.1113 106.717C98.4746 107.127 98.9609 107.332 99.5703 107.332ZM103.461 107.549L103.918 106.811C104.18 106.982 104.436 107.113 104.686 107.203C104.936 107.289 105.205 107.332 105.494 107.332C105.904 107.332 106.215 107.256 106.426 107.104C106.641 106.951 106.748 106.723 106.748 106.418C106.748 106.172 106.652 105.965 106.461 105.797C106.273 105.625 105.979 105.488 105.576 105.387C104.826 105.195 104.312 104.955 104.035 104.666C103.758 104.373 103.619 104.014 103.619 103.588C103.619 103.096 103.805 102.686 104.176 102.357C104.547 102.025 105.064 101.859 105.729 101.859C106.049 101.859 106.354 101.9 106.643 101.982C106.932 102.064 107.227 102.205 107.527 102.404L107.1 103.131C106.826 102.959 106.58 102.84 106.361 102.773C106.146 102.703 105.928 102.668 105.705 102.668C105.318 102.668 105.023 102.74 104.82 102.885C104.617 103.025 104.516 103.23 104.516 103.5C104.516 103.77 104.619 103.973 104.826 104.109C105.037 104.246 105.375 104.375 105.84 104.496C106.449 104.66 106.904 104.891 107.205 105.188C107.51 105.48 107.662 105.865 107.662 106.342C107.662 106.896 107.465 107.336 107.07 107.66C106.68 107.98 106.143 108.141 105.459 108.141C105.092 108.141 104.738 108.09 104.398 107.988C104.062 107.887 103.75 107.74 103.461 107.549ZM111.98 107.93C111.816 107.996 111.654 108.045 111.494 108.076C111.338 108.111 111.16 108.129 110.961 108.129C110.484 108.129 110.109 107.99 109.836 107.713C109.566 107.432 109.432 107.018 109.432 106.471V102.82H108.4V102H109.432V100.535L110.393 100.225V102H111.904V102.82H110.393V106.359C110.393 106.703 110.453 106.951 110.574 107.104C110.699 107.256 110.885 107.332 111.131 107.332C111.248 107.332 111.361 107.318 111.471 107.291C111.58 107.264 111.672 107.232 111.746 107.197L111.98 107.93ZM113.68 100.564C113.484 100.564 113.32 100.5 113.188 100.371C113.055 100.238 112.988 100.076 112.988 99.8848C112.988 99.6934 113.055 99.5332 113.188 99.4043C113.32 99.2715 113.484 99.2051 113.68 99.2051C113.875 99.2051 114.039 99.2715 114.172 99.4043C114.305 99.5332 114.371 99.6934 114.371 99.8848C114.371 100.076 114.305 100.238 114.172 100.371C114.039 100.5 113.875 100.564 113.68 100.564ZM114.148 108H113.188V102H114.148V108ZM120.312 107.643C120.035 107.814 119.758 107.939 119.48 108.018C119.203 108.1 118.9 108.141 118.572 108.141C117.729 108.141 117.035 107.879 116.492 107.355C115.953 106.832 115.684 106.09 115.684 105.129C115.684 104.152 115.955 103.363 116.498 102.762C117.045 102.16 117.795 101.859 118.748 101.859C119.057 101.859 119.35 101.896 119.627 101.971C119.908 102.045 120.191 102.166 120.477 102.334L120.072 103.037C119.85 102.912 119.631 102.82 119.416 102.762C119.201 102.703 118.967 102.674 118.713 102.674C118.053 102.674 117.547 102.895 117.195 103.336C116.844 103.777 116.668 104.338 116.668 105.018C116.668 105.768 116.852 106.34 117.219 106.734C117.59 107.129 118.068 107.326 118.654 107.326C118.846 107.326 119.045 107.297 119.252 107.238C119.463 107.176 119.674 107.08 119.885 106.951L120.312 107.643ZM129.066 106.98C128.844 107.367 128.561 107.658 128.217 107.854C127.877 108.045 127.473 108.141 127.004 108.141C126.25 108.141 125.646 107.873 125.193 107.338C124.744 106.799 124.52 106.066 124.52 105.141C124.52 104.148 124.77 103.354 125.27 102.756C125.77 102.158 126.436 101.859 127.268 101.859C127.682 101.859 128.037 101.941 128.334 102.105C128.635 102.266 128.879 102.508 129.066 102.832H129.09V99.1172H130.051V108H129.09V106.98H129.066ZM125.504 105.094C125.504 105.785 125.664 106.332 125.984 106.734C126.309 107.133 126.742 107.332 127.285 107.332C127.824 107.332 128.26 107.139 128.592 106.752C128.924 106.365 129.09 105.877 129.09 105.287V104.402C129.09 103.918 128.928 103.508 128.604 103.172C128.283 102.836 127.879 102.668 127.391 102.668C126.805 102.668 126.344 102.883 126.008 103.312C125.672 103.742 125.504 104.336 125.504 105.094ZM136.244 108H135.283V107.062H135.26C135.053 107.422 134.797 107.691 134.492 107.871C134.191 108.051 133.84 108.141 133.438 108.141C132.875 108.141 132.42 107.977 132.072 107.648C131.725 107.32 131.551 106.885 131.551 106.342C131.551 105.83 131.727 105.406 132.078 105.07C132.43 104.734 132.928 104.52 133.572 104.426L135.283 104.197V104.062C135.283 103.559 135.166 103.201 134.932 102.99C134.697 102.775 134.385 102.668 133.994 102.668C133.682 102.668 133.381 102.727 133.092 102.844C132.803 102.961 132.531 103.141 132.277 103.383L131.715 102.803C132.051 102.479 132.408 102.24 132.787 102.088C133.166 101.936 133.588 101.859 134.053 101.859C134.779 101.859 135.326 102.047 135.693 102.422C136.061 102.793 136.244 103.352 136.244 104.098V108ZM135.283 105.562V104.965L133.836 105.164C133.395 105.227 133.062 105.338 132.84 105.498C132.617 105.658 132.506 105.91 132.506 106.254C132.506 106.613 132.609 106.889 132.816 107.08C133.027 107.268 133.283 107.361 133.584 107.361C134.104 107.361 134.516 107.191 134.82 106.852C135.129 106.512 135.283 106.082 135.283 105.562ZM140.961 107.93C140.797 107.996 140.635 108.045 140.475 108.076C140.318 108.111 140.141 108.129 139.941 108.129C139.465 108.129 139.09 107.99 138.816 107.713C138.547 107.432 138.412 107.018 138.412 106.471V102.82H137.381V102H138.412V100.535L139.373 100.225V102H140.885V102.82H139.373V106.359C139.373 106.703 139.434 106.951 139.555 107.104C139.68 107.256 139.865 107.332 140.111 107.332C140.229 107.332 140.342 107.318 140.451 107.291C140.561 107.264 140.652 107.232 140.727 107.197L140.961 107.93ZM146.416 108H145.455V107.062H145.432C145.225 107.422 144.969 107.691 144.664 107.871C144.363 108.051 144.012 108.141 143.609 108.141C143.047 108.141 142.592 107.977 142.244 107.648C141.896 107.32 141.723 106.885 141.723 106.342C141.723 105.83 141.898 105.406 142.25 105.07C142.602 104.734 143.1 104.52 143.744 104.426L145.455 104.197V104.062C145.455 103.559 145.338 103.201 145.104 102.99C144.869 102.775 144.557 102.668 144.166 102.668C143.854 102.668 143.553 102.727 143.264 102.844C142.975 102.961 142.703 103.141 142.449 103.383L141.887 102.803C142.223 102.479 142.58 102.24 142.959 102.088C143.338 101.936 143.76 101.859 144.225 101.859C144.951 101.859 145.498 102.047 145.865 102.422C146.232 102.793 146.416 103.352 146.416 104.098V108ZM145.455 105.562V104.965L144.008 105.164C143.566 105.227 143.234 105.338 143.012 105.498C142.789 105.658 142.678 105.91 142.678 106.254C142.678 106.613 142.781 106.889 142.988 107.08C143.199 107.268 143.455 107.361 143.756 107.361C144.275 107.361 144.688 107.191 144.992 106.852C145.301 106.512 145.455 106.082 145.455 105.562ZM152.551 107.133H152.527V110.76H151.566V102H152.527V103.055H152.551C152.789 102.656 153.08 102.357 153.424 102.158C153.771 101.959 154.172 101.859 154.625 101.859C155.398 101.859 156.002 102.129 156.436 102.668C156.869 103.203 157.086 103.922 157.086 104.824C157.086 105.828 156.842 106.633 156.354 107.238C155.865 107.84 155.197 108.141 154.35 108.141C153.963 108.141 153.619 108.057 153.318 107.889C153.018 107.721 152.762 107.469 152.551 107.133ZM152.527 104.713V105.551C152.527 106.047 152.688 106.469 153.008 106.816C153.332 107.16 153.742 107.332 154.238 107.332C154.82 107.332 155.275 107.109 155.604 106.664C155.936 106.219 156.102 105.6 156.102 104.807C156.102 104.139 155.947 103.615 155.639 103.236C155.33 102.857 154.912 102.668 154.385 102.668C153.826 102.668 153.377 102.863 153.037 103.254C152.697 103.641 152.527 104.127 152.527 104.713ZM161.58 102.82C161.506 102.797 161.439 102.781 161.381 102.773C161.322 102.762 161.248 102.756 161.158 102.756C160.67 102.756 160.285 102.965 160.004 103.383C159.723 103.797 159.582 104.316 159.582 104.941V108H158.621V102H159.582V103.189H159.605C159.742 102.768 159.951 102.447 160.232 102.229C160.514 102.006 160.838 101.895 161.205 101.895C161.326 101.895 161.428 101.9 161.51 101.912C161.596 101.924 161.672 101.941 161.738 101.965L161.58 102.82ZM165.301 108.141C164.414 108.141 163.705 107.861 163.174 107.303C162.646 106.74 162.383 105.996 162.383 105.07C162.383 104.066 162.656 103.281 163.203 102.715C163.75 102.148 164.496 101.863 165.441 101.859C166.336 101.855 167.033 102.131 167.533 102.686C168.037 103.24 168.289 104.004 168.289 104.977C168.289 105.938 168.018 106.705 167.475 107.279C166.936 107.854 166.211 108.141 165.301 108.141ZM165.371 107.332C165.992 107.332 166.469 107.131 166.801 106.729C167.137 106.322 167.305 105.75 167.305 105.012C167.305 104.258 167.137 103.68 166.801 103.277C166.465 102.871 165.988 102.668 165.371 102.668C164.754 102.668 164.266 102.879 163.906 103.301C163.547 103.723 163.367 104.301 163.367 105.035C163.367 105.746 163.549 106.307 163.912 106.717C164.275 107.127 164.762 107.332 165.371 107.332ZM174.043 107.643C173.766 107.814 173.488 107.939 173.211 108.018C172.934 108.1 172.631 108.141 172.303 108.141C171.459 108.141 170.766 107.879 170.223 107.355C169.684 106.832 169.414 106.09 169.414 105.129C169.414 104.152 169.686 103.363 170.229 102.762C170.775 102.16 171.525 101.859 172.479 101.859C172.787 101.859 173.08 101.896 173.357 101.971C173.639 102.045 173.922 102.166 174.207 102.334L173.803 103.037C173.58 102.912 173.361 102.82 173.146 102.762C172.932 102.703 172.697 102.674 172.443 102.674C171.783 102.674 171.277 102.895 170.926 103.336C170.574 103.777 170.398 104.338 170.398 105.018C170.398 105.768 170.582 106.34 170.949 106.734C171.32 107.129 171.799 107.326 172.385 107.326C172.576 107.326 172.775 107.297 172.982 107.238C173.193 107.176 173.404 107.08 173.615 106.951L174.043 107.643ZM180.189 105.217H175.947C175.963 105.893 176.141 106.414 176.48 106.781C176.824 107.145 177.305 107.326 177.922 107.326C178.191 107.326 178.461 107.287 178.73 107.209C179.004 107.127 179.273 106.998 179.539 106.822L179.984 107.508C179.645 107.727 179.305 107.887 178.965 107.988C178.625 108.09 178.252 108.141 177.846 108.141C176.939 108.141 176.232 107.871 175.725 107.332C175.217 106.793 174.961 106.041 174.957 105.076C174.953 104.111 175.207 103.334 175.719 102.744C176.234 102.154 176.902 101.859 177.723 101.859C178.504 101.859 179.109 102.115 179.539 102.627C179.973 103.135 180.189 103.84 180.189 104.742V105.217ZM179.205 104.432C179.201 103.877 179.066 103.445 178.801 103.137C178.535 102.824 178.17 102.668 177.705 102.668C177.248 102.668 176.859 102.828 176.539 103.148C176.223 103.465 176.029 103.893 175.959 104.432H179.205ZM181.086 107.549L181.543 106.811C181.805 106.982 182.061 107.113 182.311 107.203C182.561 107.289 182.83 107.332 183.119 107.332C183.529 107.332 183.84 107.256 184.051 107.104C184.266 106.951 184.373 106.723 184.373 106.418C184.373 106.172 184.277 105.965 184.086 105.797C183.898 105.625 183.604 105.488 183.201 105.387C182.451 105.195 181.938 104.955 181.66 104.666C181.383 104.373 181.244 104.014 181.244 103.588C181.244 103.096 181.43 102.686 181.801 102.357C182.172 102.025 182.689 101.859 183.354 101.859C183.674 101.859 183.979 101.9 184.268 101.982C184.557 102.064 184.852 102.205 185.152 102.404L184.725 103.131C184.451 102.959 184.205 102.84 183.986 102.773C183.771 102.703 183.553 102.668 183.33 102.668C182.943 102.668 182.648 102.74 182.445 102.885C182.242 103.025 182.141 103.23 182.141 103.5C182.141 103.77 182.244 103.973 182.451 104.109C182.662 104.246 183 104.375 183.465 104.496C184.074 104.66 184.529 104.891 184.83 105.188C185.135 105.48 185.287 105.865 185.287 106.342C185.287 106.896 185.09 107.336 184.695 107.66C184.305 107.98 183.768 108.141 183.084 108.141C182.717 108.141 182.363 108.09 182.023 107.988C181.688 107.887 181.375 107.74 181.086 107.549ZM186.184 107.549L186.641 106.811C186.902 106.982 187.158 107.113 187.408 107.203C187.658 107.289 187.928 107.332 188.217 107.332C188.627 107.332 188.938 107.256 189.148 107.104C189.363 106.951 189.471 106.723 189.471 106.418C189.471 106.172 189.375 105.965 189.184 105.797C188.996 105.625 188.701 105.488 188.299 105.387C187.549 105.195 187.035 104.955 186.758 104.666C186.48 104.373 186.342 104.014 186.342 103.588C186.342 103.096 186.527 102.686 186.898 102.357C187.27 102.025 187.787 101.859 188.451 101.859C188.771 101.859 189.076 101.9 189.365 101.982C189.654 102.064 189.949 102.205 190.25 102.404L189.822 103.131C189.549 102.959 189.303 102.84 189.084 102.773C188.869 102.703 188.65 102.668 188.428 102.668C188.041 102.668 187.746 102.74 187.543 102.885C187.34 103.025 187.238 103.23 187.238 103.5C187.238 103.77 187.342 103.973 187.549 104.109C187.76 104.246 188.098 104.375 188.562 104.496C189.172 104.66 189.627 104.891 189.928 105.188C190.232 105.48 190.385 105.865 190.385 106.342C190.385 106.896 190.188 107.336 189.793 107.66C189.402 107.98 188.865 108.141 188.182 108.141C187.814 108.141 187.461 108.09 187.121 107.988C186.785 107.887 186.473 107.74 186.184 107.549ZM194.352 108.141C193.465 108.141 192.756 107.861 192.225 107.303C191.697 106.74 191.434 105.996 191.434 105.07C191.434 104.066 191.707 103.281 192.254 102.715C192.801 102.148 193.547 101.863 194.492 101.859C195.387 101.855 196.084 102.131 196.584 102.686C197.088 103.24 197.34 104.004 197.34 104.977C197.34 105.938 197.068 106.705 196.525 107.279C195.986 107.854 195.262 108.141 194.352 108.141ZM194.422 107.332C195.043 107.332 195.52 107.131 195.852 106.729C196.188 106.322 196.355 105.75 196.355 105.012C196.355 104.258 196.188 103.68 195.852 103.277C195.516 102.871 195.039 102.668 194.422 102.668C193.805 102.668 193.316 102.879 192.957 103.301C192.598 103.723 192.418 104.301 192.418 105.035C192.418 105.746 192.6 106.307 192.963 106.717C193.326 107.127 193.812 107.332 194.422 107.332ZM201.834 102.82C201.76 102.797 201.693 102.781 201.635 102.773C201.576 102.762 201.502 102.756 201.412 102.756C200.924 102.756 200.539 102.965 200.258 103.383C199.977 103.797 199.836 104.316 199.836 104.941V108H198.875V102H199.836V103.189H199.859C199.996 102.768 200.205 102.447 200.486 102.229C200.768 102.006 201.092 101.895 201.459 101.895C201.58 101.895 201.682 101.9 201.764 101.912C201.85 101.924 201.926 101.941 201.992 101.965L201.834 102.82ZM210.559 107.643C210.281 107.814 210.004 107.939 209.727 108.018C209.449 108.1 209.146 108.141 208.818 108.141C207.975 108.141 207.281 107.879 206.738 107.355C206.199 106.832 205.93 106.09 205.93 105.129C205.93 104.152 206.201 103.363 206.744 102.762C207.291 102.16 208.041 101.859 208.994 101.859C209.303 101.859 209.596 101.896 209.873 101.971C210.154 102.045 210.438 102.166 210.723 102.334L210.318 103.037C210.096 102.912 209.877 102.82 209.662 102.762C209.447 102.703 209.213 102.674 208.959 102.674C208.299 102.674 207.793 102.895 207.441 103.336C207.09 103.777 206.914 104.338 206.914 105.018C206.914 105.768 207.098 106.34 207.465 106.734C207.836 107.129 208.314 107.326 208.9 107.326C209.092 107.326 209.291 107.297 209.498 107.238C209.709 107.176 209.92 107.08 210.131 106.951L210.559 107.643ZM214.391 108.141C213.504 108.141 212.795 107.861 212.264 107.303C211.736 106.74 211.473 105.996 211.473 105.07C211.473 104.066 211.746 103.281 212.293 102.715C212.84 102.148 213.586 101.863 214.531 101.859C215.426 101.855 216.123 102.131 216.623 102.686C217.127 103.24 217.379 104.004 217.379 104.977C217.379 105.938 217.107 106.705 216.564 107.279C216.025 107.854 215.301 108.141 214.391 108.141ZM214.461 107.332C215.082 107.332 215.559 107.131 215.891 106.729C216.227 106.322 216.395 105.75 216.395 105.012C216.395 104.258 216.227 103.68 215.891 103.277C215.555 102.871 215.078 102.668 214.461 102.668C213.844 102.668 213.355 102.879 212.996 103.301C212.637 103.723 212.457 104.301 212.457 105.035C212.457 105.746 212.639 106.307 213.002 106.717C213.365 107.127 213.852 107.332 214.461 107.332ZM223.895 108H222.934V104.578C222.934 103.941 222.816 103.465 222.582 103.148C222.352 102.828 222.004 102.668 221.539 102.668C221.059 102.668 220.66 102.85 220.344 103.213C220.031 103.572 219.875 104.027 219.875 104.578V108H218.914V102H219.875V102.996H219.898C220.125 102.617 220.402 102.334 220.73 102.146C221.059 101.955 221.438 101.859 221.867 101.859C222.523 101.859 223.025 102.072 223.373 102.498C223.721 102.92 223.895 103.531 223.895 104.332V108ZM228.576 99.9023C228.467 99.8672 228.367 99.8418 228.277 99.8262C228.191 99.8105 228.1 99.8027 228.002 99.8027C227.674 99.8027 227.43 99.8906 227.27 100.066C227.109 100.242 227.029 100.5 227.029 100.84V102H228.436V102.82H227.029V108H226.074V102.82H225.049V102H226.074V100.793C226.074 100.227 226.248 99.7852 226.596 99.4688C226.943 99.1484 227.42 98.9883 228.025 98.9883C228.174 98.9883 228.309 99 228.43 99.0234C228.551 99.043 228.676 99.0742 228.805 99.1172L228.576 99.9023ZM229.965 100.564C229.77 100.564 229.605 100.5 229.473 100.371C229.34 100.238 229.273 100.076 229.273 99.8848C229.273 99.6934 229.34 99.5332 229.473 99.4043C229.605 99.2715 229.77 99.2051 229.965 99.2051C230.16 99.2051 230.324 99.2715 230.457 99.4043C230.59 99.5332 230.656 99.6934 230.656 99.8848C230.656 100.076 230.59 100.238 230.457 100.371C230.324 100.5 230.16 100.564 229.965 100.564ZM230.434 108H229.473V102H230.434V108ZM237.5 107.678C237.5 108.729 237.23 109.516 236.691 110.039C236.156 110.562 235.422 110.824 234.488 110.824C234.078 110.824 233.695 110.785 233.34 110.707C232.988 110.629 232.625 110.502 232.25 110.326L232.602 109.588C232.914 109.732 233.219 109.838 233.516 109.904C233.816 109.971 234.137 110.004 234.477 110.004C235.117 110.004 235.621 109.822 235.988 109.459C236.355 109.096 236.539 108.545 236.539 107.807V106.992H236.516C236.289 107.375 236.004 107.662 235.66 107.854C235.316 108.045 234.914 108.141 234.453 108.141C233.707 108.141 233.105 107.875 232.648 107.344C232.195 106.809 231.969 106.092 231.969 105.193C231.969 104.209 232.219 103.408 232.719 102.791C233.223 102.17 233.889 101.859 234.717 101.859C235.123 101.859 235.475 101.941 235.771 102.105C236.072 102.266 236.32 102.508 236.516 102.832H236.539V102H237.5V107.678ZM236.539 105.287V104.402C236.539 103.926 236.377 103.518 236.053 103.178C235.732 102.838 235.332 102.668 234.852 102.668C234.262 102.668 233.797 102.871 233.457 103.277C233.121 103.684 232.953 104.301 232.953 105.129C232.953 105.84 233.109 106.385 233.422 106.764C233.734 107.143 234.166 107.332 234.717 107.332C235.256 107.332 235.693 107.141 236.029 106.758C236.369 106.375 236.539 105.885 236.539 105.287ZM244.297 108H243.336V107.051H243.312C243.113 107.414 242.859 107.688 242.551 107.871C242.242 108.051 241.879 108.141 241.461 108.141C240.746 108.141 240.209 107.928 239.85 107.502C239.494 107.076 239.316 106.438 239.316 105.586V102H240.271V105.434C240.271 106.066 240.393 106.541 240.635 106.857C240.877 107.174 241.24 107.332 241.725 107.332C242.193 107.332 242.578 107.16 242.879 106.816C243.184 106.469 243.336 106.016 243.336 105.457V102H244.297V108ZM249.201 102.82C249.127 102.797 249.061 102.781 249.002 102.773C248.943 102.762 248.869 102.756 248.779 102.756C248.291 102.756 247.906 102.965 247.625 103.383C247.344 103.797 247.203 104.316 247.203 104.941V108H246.242V102H247.203V103.189H247.227C247.363 102.768 247.572 102.447 247.854 102.229C248.135 102.006 248.459 101.895 248.826 101.895C248.947 101.895 249.049 101.9 249.131 101.912C249.217 101.924 249.293 101.941 249.359 101.965L249.201 102.82ZM254.662 108H253.701V107.062H253.678C253.471 107.422 253.215 107.691 252.91 107.871C252.609 108.051 252.258 108.141 251.855 108.141C251.293 108.141 250.838 107.977 250.49 107.648C250.143 107.32 249.969 106.885 249.969 106.342C249.969 105.83 250.145 105.406 250.496 105.07C250.848 104.734 251.346 104.52 251.99 104.426L253.701 104.197V104.062C253.701 103.559 253.584 103.201 253.35 102.99C253.115 102.775 252.803 102.668 252.412 102.668C252.1 102.668 251.799 102.727 251.51 102.844C251.221 102.961 250.949 103.141 250.695 103.383L250.133 102.803C250.469 102.479 250.826 102.24 251.205 102.088C251.584 101.936 252.006 101.859 252.471 101.859C253.197 101.859 253.744 102.047 254.111 102.422C254.479 102.793 254.662 103.352 254.662 104.098V108ZM253.701 105.562V104.965L252.254 105.164C251.812 105.227 251.48 105.338 251.258 105.498C251.035 105.658 250.924 105.91 250.924 106.254C250.924 106.613 251.027 106.889 251.234 107.08C251.445 107.268 251.701 107.361 252.002 107.361C252.521 107.361 252.934 107.191 253.238 106.852C253.547 106.512 253.701 106.082 253.701 105.562ZM259.379 107.93C259.215 107.996 259.053 108.045 258.893 108.076C258.736 108.111 258.559 108.129 258.359 108.129C257.883 108.129 257.508 107.99 257.234 107.713C256.965 107.432 256.83 107.018 256.83 106.471V102.82H255.799V102H256.83V100.535L257.791 100.225V102H259.303V102.82H257.791V106.359C257.791 106.703 257.852 106.951 257.973 107.104C258.098 107.256 258.283 107.332 258.529 107.332C258.646 107.332 258.76 107.318 258.869 107.291C258.979 107.264 259.07 107.232 259.145 107.197L259.379 107.93ZM261.078 100.564C260.883 100.564 260.719 100.5 260.586 100.371C260.453 100.238 260.387 100.076 260.387 99.8848C260.387 99.6934 260.453 99.5332 260.586 99.4043C260.719 99.2715 260.883 99.2051 261.078 99.2051C261.273 99.2051 261.438 99.2715 261.57 99.4043C261.703 99.5332 261.77 99.6934 261.77 99.8848C261.77 100.076 261.703 100.238 261.57 100.371C261.438 100.5 261.273 100.564 261.078 100.564ZM261.547 108H260.586V102H261.547V108ZM266 108.141C265.113 108.141 264.404 107.861 263.873 107.303C263.346 106.74 263.082 105.996 263.082 105.07C263.082 104.066 263.355 103.281 263.902 102.715C264.449 102.148 265.195 101.863 266.141 101.859C267.035 101.855 267.732 102.131 268.232 102.686C268.736 103.24 268.988 104.004 268.988 104.977C268.988 105.938 268.717 106.705 268.174 107.279C267.635 107.854 266.91 108.141 266 108.141ZM266.07 107.332C266.691 107.332 267.168 107.131 267.5 106.729C267.836 106.322 268.004 105.75 268.004 105.012C268.004 104.258 267.836 103.68 267.5 103.277C267.164 102.871 266.688 102.668 266.07 102.668C265.453 102.668 264.965 102.879 264.605 103.301C264.246 103.723 264.066 104.301 264.066 105.035C264.066 105.746 264.248 106.307 264.611 106.717C264.975 107.127 265.461 107.332 266.07 107.332ZM275.504 108H274.543V104.578C274.543 103.941 274.426 103.465 274.191 103.148C273.961 102.828 273.613 102.668 273.148 102.668C272.668 102.668 272.27 102.85 271.953 103.213C271.641 103.572 271.484 104.027 271.484 104.578V108H270.523V102H271.484V102.996H271.508C271.734 102.617 272.012 102.334 272.34 102.146C272.668 101.955 273.047 101.859 273.477 101.859C274.133 101.859 274.635 102.072 274.982 102.498C275.33 102.92 275.504 103.531 275.504 104.332V108Z" fill="white"/>
<path d="M370 216.5C370 216.852 370.065 217.177 370.195 217.477C370.326 217.776 370.501 218.043 370.723 218.277C370.944 218.512 371.204 218.688 371.504 218.805C371.803 218.922 372.135 218.987 372.5 219H387.5V221.5H372.402C371.751 221.5 371.133 221.37 370.547 221.109C369.961 220.849 369.44 220.491 368.984 220.035C368.529 219.579 368.171 219.059 367.91 218.473C367.65 217.887 367.513 217.262 367.5 216.598V191.402C367.5 190.751 367.63 190.133 367.891 189.547C368.151 188.961 368.509 188.44 368.965 187.984C369.421 187.529 369.941 187.171 370.527 186.91C371.113 186.65 371.738 186.513 372.402 186.5H397.598C398.249 186.5 398.867 186.63 399.453 186.891C400.039 187.151 400.56 187.509 401.016 187.965C401.471 188.421 401.829 188.941 402.09 189.527C402.35 190.113 402.487 190.738 402.5 191.402V203.414C401.771 202.763 400.938 202.268 400 201.93V191.5C400 191.161 399.935 190.842 399.805 190.543C399.674 190.243 399.499 189.977 399.277 189.742C399.056 189.508 398.789 189.326 398.477 189.195C398.164 189.065 397.839 189 397.5 189H372.5C372.148 189 371.823 189.065 371.523 189.195C371.224 189.326 370.964 189.501 370.742 189.723C370.521 189.944 370.339 190.211 370.195 190.523C370.052 190.836 369.987 191.161 370 191.5V216.5ZM378.75 204H378.613C377.767 204 376.973 203.831 376.23 203.492C375.488 203.154 374.844 202.698 374.297 202.125C373.75 201.552 373.314 200.888 372.988 200.133C372.663 199.378 372.5 198.583 372.5 197.75C372.5 196.917 372.656 196.122 372.969 195.367C373.281 194.612 373.717 193.948 374.277 193.375C374.837 192.802 375.488 192.346 376.23 192.008C376.973 191.669 377.767 191.5 378.613 191.5C378.991 191.5 379.316 191.604 379.59 191.812C379.863 192.021 380 192.333 380 192.75V196.5H383.75C384.154 196.5 384.46 196.637 384.668 196.91C384.876 197.184 384.987 197.509 385 197.887C385 198.733 384.831 199.527 384.492 200.27C384.154 201.012 383.698 201.656 383.125 202.203C382.552 202.75 381.888 203.186 381.133 203.512C380.378 203.837 379.583 204 378.75 204ZM396.25 194C396.589 194 396.882 194.124 397.129 194.371C397.376 194.618 397.5 194.911 397.5 195.25C397.5 195.589 397.376 195.882 397.129 196.129C396.882 196.376 396.589 196.5 396.25 196.5H388.75C388.411 196.5 388.118 196.376 387.871 196.129C387.624 195.882 387.5 195.589 387.5 195.25C387.5 194.911 387.624 194.618 387.871 194.371C388.118 194.124 388.411 194 388.75 194H396.25ZM382.285 199H380.859C380.456 199 380.078 199.007 379.727 199.02C379.219 199.02 378.822 199 378.535 198.961C378.249 198.922 378.021 198.818 377.852 198.648C377.682 198.479 377.585 198.258 377.559 197.984C377.533 197.711 377.507 197.307 377.48 196.773V195.66C377.48 195.257 377.487 194.775 377.5 194.215C377.122 194.345 376.784 194.527 376.484 194.762C376.185 194.996 375.924 195.276 375.703 195.602C375.482 195.927 375.312 196.266 375.195 196.617C375.078 196.969 375.013 197.346 375 197.75C375 198.258 375.098 198.74 375.293 199.195C375.488 199.651 375.755 200.048 376.094 200.387C376.432 200.725 376.836 200.999 377.305 201.207C377.773 201.415 378.255 201.513 378.75 201.5C379.141 201.5 379.518 201.441 379.883 201.324C380.247 201.207 380.586 201.038 380.898 200.816C381.211 200.595 381.484 200.335 381.719 200.035C381.953 199.736 382.142 199.391 382.285 199ZM396.25 201.5H388.75C388.411 201.5 388.118 201.376 387.871 201.129C387.624 200.882 387.5 200.589 387.5 200.25C387.5 199.911 387.624 199.618 387.871 199.371C388.118 199.124 388.411 199 388.75 199H396.25C396.589 199 396.882 199.124 397.129 199.371C397.376 199.618 397.5 199.911 397.5 200.25C397.5 200.589 397.376 200.882 397.129 201.129C396.882 201.376 396.589 201.5 396.25 201.5ZM405 212.75V222.75C405 223.089 404.876 223.382 404.629 223.629C404.382 223.876 404.089 224 403.75 224H391.25C390.911 224 390.618 223.876 390.371 223.629C390.124 223.382 390 223.089 390 222.75V212.75C390 212.464 390.052 212.242 390.156 212.086C390.26 211.93 390.404 211.806 390.586 211.715C390.768 211.624 390.964 211.565 391.172 211.539C391.38 211.513 391.602 211.5 391.836 211.5H392.5V209C392.5 208.31 392.63 207.665 392.891 207.066C393.151 206.467 393.509 205.934 393.965 205.465C394.421 204.996 394.948 204.638 395.547 204.391C396.146 204.143 396.797 204.013 397.5 204C398.008 204 398.496 204.072 398.965 204.215C399.434 204.358 399.87 204.566 400.273 204.84C400.677 205.113 401.035 205.439 401.348 205.816C401.66 206.194 401.921 206.617 402.129 207.086C402.298 207.49 402.409 207.906 402.461 208.336C402.513 208.766 402.539 209.195 402.539 209.625C402.539 209.951 402.533 210.27 402.52 210.582C402.507 210.895 402.5 211.201 402.5 211.5H403.164C403.385 211.5 403.6 211.513 403.809 211.539C404.017 211.565 404.212 211.617 404.395 211.695C404.577 211.773 404.72 211.897 404.824 212.066C404.928 212.236 404.987 212.464 405 212.75ZM380 207.75C380 207.411 380.124 207.118 380.371 206.871C380.618 206.624 380.911 206.5 381.25 206.5C381.589 206.5 381.882 206.624 382.129 206.871C382.376 207.118 382.5 207.411 382.5 207.75V215.25C382.5 215.589 382.376 215.882 382.129 216.129C381.882 216.376 381.589 216.5 381.25 216.5C380.911 216.5 380.618 216.376 380.371 216.129C380.124 215.882 380 215.589 380 215.25V207.75ZM395 211.5H400V209C400 208.648 399.935 208.323 399.805 208.023C399.674 207.724 399.499 207.464 399.277 207.242C399.056 207.021 398.789 206.839 398.477 206.695C398.164 206.552 397.839 206.487 397.5 206.5C397.148 206.5 396.823 206.565 396.523 206.695C396.224 206.826 395.964 207.001 395.742 207.223C395.521 207.444 395.339 207.711 395.195 208.023C395.052 208.336 394.987 208.661 395 209V211.5ZM375 210.25C375 209.911 375.124 209.618 375.371 209.371C375.618 209.124 375.911 209 376.25 209C376.589 209 376.882 209.124 377.129 209.371C377.376 209.618 377.5 209.911 377.5 210.25V215.25C377.5 215.589 377.376 215.882 377.129 216.129C376.882 216.376 376.589 216.5 376.25 216.5C375.911 216.5 375.618 216.376 375.371 216.129C375.124 215.882 375 215.589 375 215.25V210.25ZM387.5 210.25V215.25C387.5 215.589 387.376 215.882 387.129 216.129C386.882 216.376 386.589 216.5 386.25 216.5C385.911 216.5 385.618 216.376 385.371 216.129C385.124 215.882 385 215.589 385 215.25V210.25C385 209.911 385.124 209.618 385.371 209.371C385.618 209.124 385.911 209 386.25 209C386.589 209 386.882 209.124 387.129 209.371C387.376 209.618 387.5 209.911 387.5 210.25ZM400 217.75C400 217.411 399.935 217.092 399.805 216.793C399.674 216.493 399.499 216.227 399.277 215.992C399.056 215.758 398.789 215.576 398.477 215.445C398.164 215.315 397.839 215.25 397.5 215.25C397.148 215.25 396.823 215.315 396.523 215.445C396.224 215.576 395.964 215.751 395.742 215.973C395.521 216.194 395.339 216.461 395.195 216.773C395.052 217.086 394.987 217.411 395 217.75C395 218.102 395.065 218.427 395.195 218.727C395.326 219.026 395.501 219.293 395.723 219.527C395.944 219.762 396.204 219.938 396.504 220.055C396.803 220.172 397.135 220.237 397.5 220.25C397.852 220.25 398.177 220.185 398.477 220.055C398.776 219.924 399.036 219.749 399.258 219.527C399.479 219.306 399.661 219.039 399.805 218.727C399.948 218.414 400.013 218.089 400 217.75Z" fill="#98ECFE"/>
<defs>
<filter id="filter0_d_30_231" x="0" y="0" width="429" height="403" filterUnits="userSpaceOnUse" color-interpolation-filters="sRGB">
<feFlood flood-opacity="0" result="BackgroundImageFix"/>
<feColorMatrix in="SourceAlpha" type="matrix" values="0 0 0 0 0 0 0 0 0 0 0 0 0 0 0 0 0 0 127 0" result="hardAlpha"/>
<feOffset dx="-4"/>
<feComposite in2="hardAlpha" operator="out"/>
<feColorMatrix type="matrix" values="0 0 0 0 0.596078 0 0 0 0 0.92549 0 0 0 0 0.996078 0 0 0 1 0"/>
<feBlend mode="normal" in2="BackgroundImageFix" result="effect1_dropShadow_30_231"/>
<feBlend mode="normal" in="SourceGraphic" in2="effect1_dropShadow_30_231" result="shape"/>
</filter>
</defs>
</svg>
