<svg xmlns="http://www.w3.org/2000/svg" width="18" height="18" viewBox="0 0 2048 2048">
  <path d="M1792 0q53 0 99 20t82 55 55 81 20 100q0 53-20 99t-55 82-81 55-100 20h-128v1280q0 53-20 99t-55 82-81 55-100 20H256q-53 0-99-20t-82-55-55-81-20-100q0-53 20-99t55-82 81-55 100-20V256q0-53 20-99t55-82 81-55T512 0h1280zM128 1792q0 27 10 50t27 40 41 28 50 10h930q-34-60-34-128t34-128H256q-27 0-50 10t-40 27-28 41-10 50zm1280 128q27 0 50-10t40-27 28-41 10-50V256q0-68 34-128H512q-27 0-50 10t-40 27-28 41-10 50v1280h1024q26 0 45 19t19 45q0 26-19 45t-45 19q-25 0-49 9t-42 28q-18 18-27 42t-10 49q0 27 10 50t27 40 41 28 50 10zm384-1536q27 0 50-10t40-27 28-41 10-50q0-27-10-50t-27-40-41-28-50-10q-27 0-50 10t-40 27-28 41-10 50v128h128zm-1280 0h896v128H512V384zm0 256h256v128H512V640zm0 256h256v128H512V896zm0 256h256v128H512v-128zm640-512q53 0 99 20t82 55 55 81 20 100q0 17-4 33t-4 31v539l-248-124-248 124V960q0-14-4-30t-4-34q0-53 20-99t55-82 81-55 100-20zm0 128q-27 0-50 10t-40 27-28 41-10 50q0 27 10 50t27 40 41 28 50 10q27 0 50-10t40-27 28-41 10-50q0-27-10-50t-27-40-41-28-50-10zm136 549v-204q-30 20-65 29t-71 10q-36 0-71-9t-65-30v204l136-68 136 68z" fill="#0078D4" />
</svg>