<svg id="b157d67e-c44c-479b-a18f-833e3e6f8b6c" xmlns="http://www.w3.org/2000/svg" width="18" height="18" viewBox="0 0 18 18">
  <g>
    <rect x="3.165" y="11.05" width="4.441" height="4.663" fill="#52d3ff" />
    <path d="M5.386,9.884,3.165,11.05H7.606L9.827,9.884Z" fill="#08c" />
    <path d="M9.827,14.547,7.606,15.713V11.05L9.827,9.884Z" fill="#005782" />
    <rect x="3.165" y="6.107" width="4.441" height="4.663" fill="#52d3ff" />
    <path d="M5.386,4.941,3.165,6.107H7.606L9.827,4.941Z" fill="#08c" />
    <path d="M9.827,9.6,7.606,10.77V6.107L9.827,4.941Z" fill="#005782" />
    <rect x="8.201" y="11.05" width="4.441" height="4.663" fill="#52d3ff" />
    <path d="M10.422,9.884,8.2,11.05h4.441l2.221-1.166Z" fill="#08c" />
    <path d="M14.863,14.547l-2.221,1.166V11.05l2.221-1.166Z" fill="#005782" />
    <rect x="0.554" y="12.729" width="4.441" height="4.663" fill="#52d3ff" />
    <path d="M2.774,11.563.554,12.729H5l2.22-1.166Z" fill="#08c" />
    <path d="M7.215,16.226,5,17.392V12.729l2.22-1.166Z" fill="#005782" />
    <rect x="5.59" y="12.729" width="4.441" height="4.663" fill="#52d3ff" />
    <path d="M7.811,11.563,5.59,12.729h4.441l2.221-1.166Z" fill="#08c" />
    <path d="M12.252,16.226l-2.221,1.166V12.729l2.221-1.166Z" fill="#005782" />
    <rect x="0.554" y="7.692" width="4.441" height="4.663" fill="#52d3ff" />
    <path d="M2.774,6.527.554,7.693H5l2.22-1.166Z" fill="#08c" />
    <path d="M7.215,11.19,5,12.356V7.693l2.22-1.166Z" fill="#005782" />
    <rect x="8.201" y="6.107" width="4.441" height="4.663" fill="#52d3ff" />
    <path d="M10.422,4.941,8.2,6.107h4.441l2.221-1.166Z" fill="#08c" />
    <path d="M14.863,9.6,12.642,10.77V6.107l2.221-1.166Z" fill="#005782" />
    <rect x="9.835" y="1.261" width="4.663" height="4.441" transform="translate(1.101 9.623) rotate(-45)" fill="#52d3ff" />
    <path d="M14.639,1.009,12.245.263l3.14,3.14,2.394.746Z" fill="#08c" />
    <path d="M14.482,7.447,12.088,6.7l3.3-3.3,2.394.746Z" fill="#005782" />
  </g>
</svg>