<svg width="20" height="20" viewBox="0 0 20 20" fill="none" xmlns="http://www.w3.org/2000/svg">
<path d="M1.81653 0H18.1835C19.1859 0 20 0.814095 20 1.81653V18.1835C20 19.1859 19.1859 20 18.1835 20H1.81653C0.814095 20 0 19.1859 0 18.1835V1.81653C0 0.814095 0.814095 0 1.81653 0Z" fill="#605E5C"/>
<g clip-path="url(#clip0_111_2097)">
<path d="M11.027 8.93146C10.9795 9.21812 11.061 9.51843 11.2714 9.73002L14.4419 12.9174C14.5641 13.0403 14.6252 13.1973 14.6252 13.3679V14.4736C14.6252 14.5418 14.5709 14.6033 14.4962 14.6033H13.2267C13.1588 14.6033 13.0977 14.5487 13.0977 14.4736V13.7092C13.0977 13.3542 12.8125 13.0676 12.4595 13.0676H11.5702V12.1735C11.5702 11.8186 11.285 11.5319 10.932 11.5319H10.0426V11.1497C10.0426 11.02 9.98153 10.904 9.8729 10.8289C9.76428 10.7606 9.6285 10.747 9.51309 10.7948C9.19401 10.9313 8.84098 11.02 8.49474 11.02C7.08263 11.02 5.9285 9.86652 5.9285 8.44004C5.9285 7.01355 7.06905 5.91468 8.49474 5.91468C9.92043 5.91468 11.061 7.06815 11.061 8.49464C11.061 8.63115 11.0406 8.76765 11.0135 8.92463L11.027 8.93146ZM5.17493 8.45369C5.17493 10.2965 6.6685 11.7981 8.50153 11.7981C8.77309 11.7981 9.03786 11.7571 9.28905 11.6957C9.30263 12.037 9.58098 12.31 9.92043 12.31H10.8098V13.2041C10.8098 13.559 11.0949 13.8457 11.4479 13.8457H12.3373V14.4872C12.3373 14.9787 12.7379 15.3814 13.2267 15.3814H14.4962C14.985 15.3814 15.3856 14.9787 15.3856 14.4872V13.3815C15.3856 13.0062 15.2362 12.6512 14.9782 12.3919L11.8078 9.20447C11.8078 9.20447 11.7602 9.12939 11.7738 9.08162C11.8078 8.90416 11.8281 8.71305 11.8281 8.51512C11.8281 6.65864 10.3413 5.15707 8.50153 5.15707C6.66171 5.15707 5.17493 6.59721 5.17493 8.45369ZM7.74116 7.04768C8.09419 7.04768 8.37933 7.33434 8.37933 7.68926C8.37933 8.04417 8.09419 8.33083 7.74116 8.33083C7.38814 8.33083 7.103 8.04417 7.103 7.68926C7.103 7.33434 7.38814 7.04768 7.74116 7.04768Z" fill="white"/>
</g>
<defs>
<clipPath id="clip0_111_2097">
<rect width="10.2106" height="10.2106" fill="white" transform="translate(5.17493 5.15707)"/>
</clipPath>
</defs>
</svg>
